<svg xmlns="http://www.w3.org/2000/svg" xmlns:xlink="http://www.w3.org/1999/xlink" version="1.2" width="200.00mm" height="95.00mm" viewBox="0.0000 -0.0000 113.8110 54.0602">
<style type="text/css">
<![CDATA[
tspan { white-space: pre; }
]]>
</style>
<g transform="translate(47.1917, 4.7926)">
<text font-family="serif" font-weight="bold" font-size="3.4927" text-anchor="start" fill="currentColor">
<tspan>Ege zeybek</tspan>
</text>
</g>
<g transform="translate(31.2810, 8.2926)">
<text font-family="serif" font-weight="bold" font-size="2.4696" text-anchor="start" fill="currentColor">
<tspan>Ανατολικό Αιγαίο Παράλια Μικράς Ασίας</tspan>
</text>
</g>
<g transform="translate(5.6906, 17.3549)">
<line stroke-linejoin="round" stroke-linecap="round" stroke-width="0.1000" stroke="currentColor" x1="0.0500" y1="0" x2="102.3799" y2="0"/>
</g>
<g transform="translate(5.6906, 16.3549)">
<line stroke-linejoin="round" stroke-linecap="round" stroke-width="0.1000" stroke="currentColor" x1="0.0500" y1="0" x2="102.3799" y2="0"/>
</g>
<g transform="translate(5.6906, 15.3549)">
<line stroke-linejoin="round" stroke-linecap="round" stroke-width="0.1000" stroke="currentColor" x1="0.0500" y1="0" x2="102.3799" y2="0"/>
</g>
<g transform="translate(5.6906, 14.3549)">
<line stroke-linejoin="round" stroke-linecap="round" stroke-width="0.1000" stroke="currentColor" x1="0.0500" y1="0" x2="102.3799" y2="0"/>
</g>
<g transform="translate(5.6906, 13.3549)">
<line stroke-linejoin="round" stroke-linecap="round" stroke-width="0.1000" stroke="currentColor" x1="0.0500" y1="0" x2="102.3799" y2="0"/>
</g>
<g transform="translate(107.5205, 15.3549)">
<rect x="0.0000" y="-2.0000" width="0.6000" height="4.0000" ry="0.0000" fill="currentColor"/>
</g>
<g transform="translate(107.0305, 15.3549)">
<rect x="0.0000" y="-2.0000" width="0.1900" height="4.0000" ry="0.0000" fill="currentColor"/>
</g>
<g transform="translate(63.2404, 15.3549)">
<rect x="0.0000" y="-2.0000" width="0.1900" height="4.0000" ry="0.0000" fill="currentColor"/>
</g>
<g transform="translate(76.3574, 15.3549)">
<rect x="-0.0650" y="-1.3139" width="0.1300" height="3.1239" ry="0.0400" fill="currentColor"/>
</g>
<g transform="translate(76.2924, 13.8549)">
<path transform="scale(0.0040, -0.0040)" d="M218 136c55 0 108 -28 108 -89c0 -71 -55 -121 -102 -149c-35 -21 -75 -34 -116 -34c-55 0 -108 28 -108 89c0 71 55 121 102 149c35 21 75 34 116 34z" fill="currentColor"/>
</g>
<g transform="translate(73.9988, 15.3549)">
<rect x="-0.0650" y="-0.8139" width="0.1300" height="2.9974" ry="0.0400" fill="currentColor"/>
</g>
<g transform="translate(73.9338, 14.3549)">
<path transform="scale(0.0040, -0.0040)" d="M218 136c55 0 108 -28 108 -89c0 -71 -55 -121 -102 -149c-35 -21 -75 -34 -116 -34c-55 0 -108 28 -108 89c0 71 55 121 102 149c35 21 75 34 116 34z" fill="currentColor"/>
</g>
<g transform="translate(72.1674, 15.3549)">
<rect x="-0.0650" y="-1.3139" width="0.1300" height="3.3139" ry="0.0400" fill="currentColor"/>
</g>
<g transform="translate(72.1024, 13.8549)">
<path transform="scale(0.0040, -0.0040)" d="M218 136c55 0 108 -28 108 -89c0 -71 -55 -121 -102 -149c-35 -21 -75 -34 -116 -34c-55 0 -108 28 -108 89c0 71 55 121 102 149c35 21 75 34 116 34z" fill="currentColor"/>
</g>
<g transform="translate(70.3360, 15.3549)">
<rect x="-0.0650" y="-1.8139" width="0.1300" height="3.6304" ry="0.0400" fill="currentColor"/>
</g>
<g transform="translate(82.3789, 15.3549)">
<rect x="-0.0650" y="-0.8139" width="0.1300" height="3.6357" ry="0.0400" fill="currentColor"/>
</g>
<g transform="translate(82.3139, 14.3549)">
<path transform="scale(0.0040, -0.0040)" d="M218 136c55 0 108 -28 108 -89c0 -71 -55 -121 -102 -149c-35 -21 -75 -34 -116 -34c-55 0 -108 28 -108 89c0 71 55 121 102 149c35 21 75 34 116 34z" fill="currentColor"/>
</g>
<g transform="translate(80.5475, 15.3549)">
<rect x="-0.0650" y="-1.3139" width="0.1300" height="3.1239" ry="0.0400" fill="currentColor"/>
</g>
<g transform="translate(80.4825, 13.8549)">
<path transform="scale(0.0040, -0.0040)" d="M218 136c55 0 108 -28 108 -89c0 -71 -55 -121 -102 -149c-35 -21 -75 -34 -116 -34c-55 0 -108 28 -108 89c0 71 55 121 102 149c35 21 75 34 116 34z" fill="currentColor"/>
</g>
<g transform="translate(78.7160, 15.3549)">
<rect x="-0.0650" y="-1.3139" width="0.1300" height="3.1239" ry="0.0400" fill="currentColor"/>
</g>
<g transform="translate(78.6510, 13.8549)">
<path transform="scale(0.0040, -0.0040)" d="M218 136c55 0 108 -28 108 -89c0 -71 -55 -121 -102 -149c-35 -21 -75 -34 -116 -34c-55 0 -108 28 -108 89c0 71 55 121 102 149c35 21 75 34 116 34z" fill="currentColor"/>
</g>
<g transform="translate(60.6206, 15.3549)">
<rect x="-0.0650" y="-0.8139" width="0.1300" height="3.3139" ry="0.0400" fill="currentColor"/>
</g>
<g transform="translate(64.3145, 15.3549)">
<rect x="-0.0650" y="-2.3139" width="0.1300" height="3.1239" ry="0.0400" fill="currentColor"/>
</g>
<g transform="translate(64.2495, 12.8549)">
<path transform="scale(0.0040, -0.0040)" d="M218 136c55 0 108 -28 108 -89c0 -71 -55 -121 -102 -149c-35 -21 -75 -34 -116 -34c-55 0 -108 28 -108 89c0 71 55 121 102 149c35 21 75 34 116 34z" fill="currentColor"/>
</g>
<g transform="translate(60.5556, 14.3549)">
<path transform="scale(0.0040, -0.0040)" d="M218 136c55 0 108 -28 108 -89c0 -71 -55 -121 -102 -149c-35 -21 -75 -34 -116 -34c-55 0 -108 28 -108 89c0 71 55 121 102 149c35 21 75 34 116 34z" fill="currentColor"/>
</g>
<g transform="translate(59.8568, 12.6949)">
<path transform="scale(0.0022, -0.0022)" d="M0 0c0 -195 207 -332 207 -527c0 -70 -16 -140 -42 -205c-6 -11 -16 -16 -26 -16c-16 0 -31 13 -31 31v6c27 58 43 120 43 184c0 99 -86 202 -151 277h-25v250h25z" fill="currentColor"/>
</g>
<g transform="translate(59.7918, 15.3549)">
<rect x="-0.0650" y="-2.7000" width="0.1300" height="2.6233" ry="0.0400" fill="currentColor"/>
</g>
<g transform="translate(59.1332, 15.3549)">
<path transform="scale(0.0022, -0.0022)" d="M199 142c66 0 123 -38 123 -108s-48 -117 -94 -145c-32 -19 -68 -31 -105 -31c-66 0 -123 38 -123 108s48 117 94 145c32 19 68 31 105 31z" fill="currentColor"/>
</g>
<g transform="translate(94.1068, 17.5449)">
<polygon stroke-linejoin="round" stroke-linecap="round" stroke-width="0.0800" fill="currentColor" stroke="currentColor" points="2.1986 0.4200 2.1986 0.8200 0.0400 0.2000 0.0400 -0.2000"/>
</g>
<g transform="translate(66.6731, 15.3549)">
<rect x="-0.0650" y="-2.3139" width="0.1300" height="3.1239" ry="0.0400" fill="currentColor"/>
</g>
<g transform="translate(68.5046, 15.3549)">
<rect x="-0.0650" y="-2.3139" width="0.1300" height="3.1239" ry="0.0400" fill="currentColor"/>
</g>
<g transform="translate(68.4396, 12.8549)">
<path transform="scale(0.0040, -0.0040)" d="M218 136c55 0 108 -28 108 -89c0 -71 -55 -121 -102 -149c-35 -21 -75 -34 -116 -34c-55 0 -108 28 -108 89c0 71 55 121 102 149c35 21 75 34 116 34z" fill="currentColor"/>
</g>
<g transform="translate(70.2710, 13.3549)">
<path transform="scale(0.0040, -0.0040)" d="M218 136c55 0 108 -28 108 -89c0 -71 -55 -121 -102 -149c-35 -21 -75 -34 -116 -34c-55 0 -108 28 -108 89c0 71 55 121 102 149c35 21 75 34 116 34z" fill="currentColor"/>
</g>
<g transform="translate(66.6081, 12.8549)">
<path transform="scale(0.0040, -0.0040)" d="M218 136c55 0 108 -28 108 -89c0 -71 -55 -121 -102 -149c-35 -21 -75 -34 -116 -34c-55 0 -108 28 -108 89c0 71 55 121 102 149c35 21 75 34 116 34z" fill="currentColor"/>
</g>
<g transform="translate(101.5248, 15.3549)">
<rect x="-0.0650" y="-0.8139" width="0.1300" height="4.8139" ry="0.0400" fill="currentColor"/>
</g>
<g transform="translate(104.4106, 15.3549)">
<rect x="-0.0650" y="-0.8139" width="0.1300" height="4.8139" ry="0.0400" fill="currentColor"/>
</g>
<g color="rgb(50.0000%, 50.0000%, 50.0000%)">
<g transform="translate(104.3456, 14.3549)">
<path transform="scale(0.0040, -0.0040)" d="M218 136c55 0 108 -28 108 -89c0 -71 -55 -121 -102 -149c-35 -21 -75 -34 -116 -34c-55 0 -108 28 -108 89c0 71 55 121 102 149c35 21 75 34 116 34z" fill="currentColor"/>
</g>
</g>
<g transform="translate(104.3456, 16.3549)">
<path transform="scale(0.0040, -0.0040)" d="M218 136c55 0 108 -28 108 -89c0 -71 -55 -121 -102 -149c-35 -21 -75 -34 -116 -34c-55 0 -108 28 -108 89c0 71 55 121 102 149c35 21 75 34 116 34z" fill="currentColor"/>
</g>
<g color="rgb(50.0000%, 50.0000%, 50.0000%)">
<g transform="translate(101.4598, 14.3549)">
<path transform="scale(0.0040, -0.0040)" d="M218 136c55 0 108 -28 108 -89c0 -71 -55 -121 -102 -149c-35 -21 -75 -34 -116 -34c-55 0 -108 28 -108 89c0 71 55 121 102 149c35 21 75 34 116 34z" fill="currentColor"/>
</g>
</g>
<g transform="translate(101.4598, 16.3549)">
<path transform="scale(0.0040, -0.0040)" d="M218 136c55 0 108 -28 108 -89c0 -71 -55 -121 -102 -149c-35 -21 -75 -34 -116 -34c-55 0 -108 28 -108 89c0 71 55 121 102 149c35 21 75 34 116 34z" fill="currentColor"/>
</g>
<g transform="translate(98.6390, 15.3549)">
<rect x="-0.0650" y="-0.8139" width="0.1300" height="4.8139" ry="0.0400" fill="currentColor"/>
</g>
<g color="rgb(50.0000%, 50.0000%, 50.0000%)">
<g transform="translate(98.5740, 14.3549)">
<path transform="scale(0.0040, -0.0040)" d="M218 136c55 0 108 -28 108 -89c0 -71 -55 -121 -102 -149c-35 -21 -75 -34 -116 -34c-55 0 -108 28 -108 89c0 71 55 121 102 149c35 21 75 34 116 34z" fill="currentColor"/>
</g>
</g>
<g transform="translate(98.5740, 16.3549)">
<path transform="scale(0.0040, -0.0040)" d="M218 136c55 0 108 -28 108 -89c0 -71 -55 -121 -102 -149c-35 -21 -75 -34 -116 -34c-55 0 -108 28 -108 89c0 71 55 121 102 149c35 21 75 34 116 34z" fill="currentColor"/>
</g>
<g transform="translate(32.3596, 17.3549)">
<polygon stroke-linejoin="round" stroke-linecap="round" stroke-width="0.0800" fill="currentColor" stroke="currentColor" points="1.9214 0.1568 1.9214 0.5568 0.0400 0.2000 0.0400 -0.2000"/>
</g>
<g transform="translate(32.3596, 18.1649)">
<polygon stroke-linejoin="round" stroke-linecap="round" stroke-width="0.0800" fill="currentColor" stroke="currentColor" points="3.7528 0.4900 3.7528 0.8900 0.0400 0.2000 0.0400 -0.2000"/>
</g>
<g transform="translate(91.2404, 17.6798)">
<polygon stroke-linejoin="round" stroke-linecap="round" stroke-width="0.0800" fill="currentColor" stroke="currentColor" points="1.1250 -0.3348 1.1250 0.0652 0.0400 0.2000 0.0400 -0.2000"/>
</g>
<g transform="translate(88.0853, 18.0449)">
<polygon stroke-linejoin="round" stroke-linecap="round" stroke-width="0.0800" fill="currentColor" stroke="currentColor" points="1.1250 -0.3348 1.1250 0.0652 0.0400 0.2000 0.0400 -0.2000"/>
</g>
<g transform="translate(88.0853, 18.8549)">
<polygon stroke-linejoin="round" stroke-linecap="round" stroke-width="0.0800" fill="currentColor" stroke="currentColor" points="4.2800 -0.7000 4.2800 -0.3000 0.0400 0.2000 0.0400 -0.2000"/>
</g>
<g transform="translate(82.3139, 17.3549)">
<polygon stroke-linejoin="round" stroke-linecap="round" stroke-width="0.0800" fill="currentColor" stroke="currentColor" points="1.9214 0.1568 1.9214 0.5568 0.0400 0.2000 0.0400 -0.2000"/>
</g>
<g transform="translate(82.3139, 18.1649)">
<polygon stroke-linejoin="round" stroke-linecap="round" stroke-width="0.0800" fill="currentColor" stroke="currentColor" points="3.7528 0.4900 3.7528 0.8900 0.0400 0.2000 0.0400 -0.2000"/>
</g>
<g transform="translate(78.6510, 16.3549)">
<polygon stroke-linejoin="round" stroke-linecap="round" stroke-width="0.0800" fill="currentColor" stroke="currentColor" points="1.9214 -0.2000 1.9214 0.2000 0.0400 0.2000 0.0400 -0.2000"/>
</g>
<g transform="translate(76.2924, 17.1649)">
<polygon stroke-linejoin="round" stroke-linecap="round" stroke-width="0.0800" fill="currentColor" stroke="currentColor" points="4.2800 -0.2000 4.2800 0.2000 0.0400 0.2000 0.0400 -0.2000"/>
</g>
<g transform="translate(70.2710, 16.3549)">
<polygon stroke-linejoin="round" stroke-linecap="round" stroke-width="0.0800" fill="currentColor" stroke="currentColor" points="1.9214 -0.0035 1.9214 0.3965 0.0400 0.2000 0.0400 -0.2000"/>
</g>
<g transform="translate(70.2710, 17.1649)">
<polygon stroke-linejoin="round" stroke-linecap="round" stroke-width="0.0800" fill="currentColor" stroke="currentColor" points="3.7528 0.1800 3.7528 0.5800 0.0400 0.2000 0.0400 -0.2000"/>
</g>
<g transform="translate(66.6081, 15.3549)">
<polygon stroke-linejoin="round" stroke-linecap="round" stroke-width="0.0800" fill="currentColor" stroke="currentColor" points="1.9214 -0.2000 1.9214 0.2000 0.0400 0.2000 0.0400 -0.2000"/>
</g>
<g transform="translate(64.2495, 16.1649)">
<polygon stroke-linejoin="round" stroke-linecap="round" stroke-width="0.0800" fill="currentColor" stroke="currentColor" points="4.2800 -0.2000 4.2800 0.2000 0.0400 0.2000 0.0400 -0.2000"/>
</g>
<g transform="translate(54.6412, 18.3549)">
<polygon stroke-linejoin="round" stroke-linecap="round" stroke-width="0.0800" fill="currentColor" stroke="currentColor" points="2.4486 -0.3900 2.4486 0.0100 0.0400 0.2000 0.0400 -0.2000"/>
</g>
<g transform="translate(5.6906, 15.3549)">
<line stroke-linejoin="round" stroke-linecap="round" stroke-width="0.1000" stroke="currentColor" x1="54.4527" y1="-0.4099" x2="54.5786" y2="-0.5901"/>
</g>
<g transform="translate(50.9784, 18.6312)">
<polygon stroke-linejoin="round" stroke-linecap="round" stroke-width="0.0800" fill="currentColor" stroke="currentColor" points="1.9214 -0.2863 1.9214 0.1137 0.0400 0.2000 0.0400 -0.2000"/>
</g>
<g transform="translate(48.6198, 19.5449)">
<polygon stroke-linejoin="round" stroke-linecap="round" stroke-width="0.0800" fill="currentColor" stroke="currentColor" points="4.2800 -0.3900 4.2800 0.0100 0.0400 0.2000 0.0400 -0.2000"/>
</g>
<g transform="translate(44.1525, 17.5449)">
<polygon stroke-linejoin="round" stroke-linecap="round" stroke-width="0.0800" fill="currentColor" stroke="currentColor" points="2.1986 0.4200 2.1986 0.8200 0.0400 0.2000 0.0400 -0.2000"/>
</g>
<g transform="translate(41.2861, 17.6798)">
<polygon stroke-linejoin="round" stroke-linecap="round" stroke-width="0.0800" fill="currentColor" stroke="currentColor" points="1.1250 -0.3348 1.1250 0.0652 0.0400 0.2000 0.0400 -0.2000"/>
</g>
<g transform="translate(38.1311, 18.0449)">
<polygon stroke-linejoin="round" stroke-linecap="round" stroke-width="0.0800" fill="currentColor" stroke="currentColor" points="1.1250 -0.3348 1.1250 0.0652 0.0400 0.2000 0.0400 -0.2000"/>
</g>
<g transform="translate(38.1311, 18.8549)">
<polygon stroke-linejoin="round" stroke-linecap="round" stroke-width="0.0800" fill="currentColor" stroke="currentColor" points="4.2800 -0.7000 4.2800 -0.3000 0.0400 0.2000 0.0400 -0.2000"/>
</g>
<g transform="translate(28.6968, 16.3549)">
<polygon stroke-linejoin="round" stroke-linecap="round" stroke-width="0.0800" fill="currentColor" stroke="currentColor" points="1.9214 -0.2000 1.9214 0.2000 0.0400 0.2000 0.0400 -0.2000"/>
</g>
<g transform="translate(26.3382, 17.1649)">
<polygon stroke-linejoin="round" stroke-linecap="round" stroke-width="0.0800" fill="currentColor" stroke="currentColor" points="4.2800 -0.2000 4.2800 0.2000 0.0400 0.2000 0.0400 -0.2000"/>
</g>
<g transform="translate(20.3167, 16.3549)">
<polygon stroke-linejoin="round" stroke-linecap="round" stroke-width="0.0800" fill="currentColor" stroke="currentColor" points="1.9214 -0.0035 1.9214 0.3965 0.0400 0.2000 0.0400 -0.2000"/>
</g>
<g transform="translate(20.3167, 17.1649)">
<polygon stroke-linejoin="round" stroke-linecap="round" stroke-width="0.0800" fill="currentColor" stroke="currentColor" points="3.7528 0.1800 3.7528 0.5800 0.0400 0.2000 0.0400 -0.2000"/>
</g>
<g transform="translate(16.6539, 15.3549)">
<polygon stroke-linejoin="round" stroke-linecap="round" stroke-width="0.0800" fill="currentColor" stroke="currentColor" points="1.9214 -0.2000 1.9214 0.2000 0.0400 0.2000 0.0400 -0.2000"/>
</g>
<g transform="translate(14.2953, 16.1649)">
<polygon stroke-linejoin="round" stroke-linecap="round" stroke-width="0.0800" fill="currentColor" stroke="currentColor" points="4.2800 -0.2000 4.2800 0.2000 0.0400 0.2000 0.0400 -0.2000"/>
</g>
<g transform="translate(90.1667, 14.3549)">
<path transform="scale(0.0040, -0.0040)" d="M218 136c55 0 108 -28 108 -89c0 -71 -55 -121 -102 -149c-35 -21 -75 -34 -116 -34c-55 0 -108 28 -108 89c0 71 55 121 102 149c35 21 75 34 116 34z" fill="currentColor"/>
</g>
<g transform="translate(88.1503, 15.3549)">
<rect x="-0.0650" y="1.1861" width="0.1300" height="2.3064" ry="0.0400" fill="currentColor"/>
</g>
<g transform="translate(88.0853, 16.3549)">
<path transform="scale(0.0040, -0.0040)" d="M218 136c55 0 108 -28 108 -89c0 -71 -55 -121 -102 -149c-35 -21 -75 -34 -116 -34c-55 0 -108 28 -108 89c0 71 55 121 102 149c35 21 75 34 116 34z" fill="currentColor"/>
</g>
<g transform="translate(90.2317, 15.3549)">
<rect x="-0.0650" y="-0.8139" width="0.1300" height="4.0655" ry="0.0400" fill="currentColor"/>
</g>
<g transform="translate(86.0417, 15.3549)">
<rect x="-0.0650" y="0.1861" width="0.1300" height="3.3021" ry="0.0400" fill="currentColor"/>
</g>
<g transform="translate(85.9767, 15.3549)">
<path transform="scale(0.0040, -0.0040)" d="M218 136c55 0 108 -28 108 -89c0 -71 -55 -121 -102 -149c-35 -21 -75 -34 -116 -34c-55 0 -108 28 -108 89c0 71 55 121 102 149c35 21 75 34 116 34z" fill="currentColor"/>
</g>
<g transform="translate(84.2103, 15.3549)">
<rect x="-0.0650" y="-0.3139" width="0.1300" height="3.4689" ry="0.0400" fill="currentColor"/>
</g>
<g transform="translate(84.1453, 14.8549)">
<path transform="scale(0.0040, -0.0040)" d="M218 136c55 0 108 -28 108 -89c0 -71 -55 -121 -102 -149c-35 -21 -75 -34 -116 -34c-55 0 -108 28 -108 89c0 71 55 121 102 149c35 21 75 34 116 34z" fill="currentColor"/>
</g>
<g transform="translate(94.1068, 14.8549)">
<path transform="scale(0.0040, -0.0040)" d="M218 136c55 0 108 -28 108 -89c0 -71 -55 -121 -102 -149c-35 -21 -75 -34 -116 -34c-55 0 -108 28 -108 89c0 71 55 121 102 149c35 21 75 34 116 34z" fill="currentColor"/>
</g>
<g transform="translate(96.2804, 15.3549)">
<rect x="-0.0650" y="0.6861" width="0.1300" height="2.1059" ry="0.0400" fill="currentColor"/>
</g>
<g transform="translate(96.2154, 15.8549)">
<path transform="scale(0.0040, -0.0040)" d="M218 136c55 0 108 -28 108 -89c0 -71 -55 -121 -102 -149c-35 -21 -75 -34 -116 -34c-55 0 -108 28 -108 89c0 71 55 121 102 149c35 21 75 34 116 34z" fill="currentColor"/>
</g>
<g transform="translate(94.1718, 15.3549)">
<rect x="-0.0650" y="-0.3139" width="0.1300" height="2.5219" ry="0.0400" fill="currentColor"/>
</g>
<g transform="translate(92.3404, 15.3549)">
<rect x="-0.0650" y="0.1861" width="0.1300" height="2.8214" ry="0.0400" fill="currentColor"/>
</g>
<g transform="translate(92.2754, 15.3549)">
<path transform="scale(0.0040, -0.0040)" d="M218 136c55 0 108 -28 108 -89c0 -71 -55 -121 -102 -149c-35 -21 -75 -34 -116 -34c-55 0 -108 28 -108 89c0 71 55 121 102 149c35 21 75 34 116 34z" fill="currentColor"/>
</g>
<g transform="translate(26.3382, 13.8549)">
<path transform="scale(0.0040, -0.0040)" d="M218 136c55 0 108 -28 108 -89c0 -71 -55 -121 -102 -149c-35 -21 -75 -34 -116 -34c-55 0 -108 28 -108 89c0 71 55 121 102 149c35 21 75 34 116 34z" fill="currentColor"/>
</g>
<g transform="translate(28.7618, 15.3549)">
<rect x="-0.0650" y="-1.3139" width="0.1300" height="3.1239" ry="0.0400" fill="currentColor"/>
</g>
<g transform="translate(28.6968, 13.8549)">
<path transform="scale(0.0040, -0.0040)" d="M218 136c55 0 108 -28 108 -89c0 -71 -55 -121 -102 -149c-35 -21 -75 -34 -116 -34c-55 0 -108 28 -108 89c0 71 55 121 102 149c35 21 75 34 116 34z" fill="currentColor"/>
</g>
<g transform="translate(26.4032, 15.3549)">
<rect x="-0.0650" y="-1.3139" width="0.1300" height="3.1239" ry="0.0400" fill="currentColor"/>
</g>
<g transform="translate(24.0446, 15.3549)">
<rect x="-0.0650" y="-0.8139" width="0.1300" height="2.9974" ry="0.0400" fill="currentColor"/>
</g>
<g transform="translate(23.9796, 14.3549)">
<path transform="scale(0.0040, -0.0040)" d="M218 136c55 0 108 -28 108 -89c0 -71 -55 -121 -102 -149c-35 -21 -75 -34 -116 -34c-55 0 -108 28 -108 89c0 71 55 121 102 149c35 21 75 34 116 34z" fill="currentColor"/>
</g>
<g transform="translate(36.0225, 15.3549)">
<path transform="scale(0.0040, -0.0040)" d="M218 136c55 0 108 -28 108 -89c0 -71 -55 -121 -102 -149c-35 -21 -75 -34 -116 -34c-55 0 -108 28 -108 89c0 71 55 121 102 149c35 21 75 34 116 34z" fill="currentColor"/>
</g>
<g transform="translate(34.2560, 15.3549)">
<rect x="-0.0650" y="-0.3139" width="0.1300" height="3.4689" ry="0.0400" fill="currentColor"/>
</g>
<g transform="translate(34.1910, 14.8549)">
<path transform="scale(0.0040, -0.0040)" d="M218 136c55 0 108 -28 108 -89c0 -71 -55 -121 -102 -149c-35 -21 -75 -34 -116 -34c-55 0 -108 28 -108 89c0 71 55 121 102 149c35 21 75 34 116 34z" fill="currentColor"/>
</g>
<g transform="translate(22.2131, 15.3549)">
<rect x="-0.0650" y="-1.3139" width="0.1300" height="3.3139" ry="0.0400" fill="currentColor"/>
</g>
<g transform="translate(32.4246, 15.3549)">
<rect x="-0.0650" y="-0.8139" width="0.1300" height="3.6357" ry="0.0400" fill="currentColor"/>
</g>
<g transform="translate(32.3596, 14.3549)">
<path transform="scale(0.0040, -0.0040)" d="M218 136c55 0 108 -28 108 -89c0 -71 -55 -121 -102 -149c-35 -21 -75 -34 -116 -34c-55 0 -108 28 -108 89c0 71 55 121 102 149c35 21 75 34 116 34z" fill="currentColor"/>
</g>
<g transform="translate(30.5932, 15.3549)">
<rect x="-0.0650" y="-1.3139" width="0.1300" height="3.1239" ry="0.0400" fill="currentColor"/>
</g>
<g transform="translate(30.5282, 13.8549)">
<path transform="scale(0.0040, -0.0040)" d="M218 136c55 0 108 -28 108 -89c0 -71 -55 -121 -102 -149c-35 -21 -75 -34 -116 -34c-55 0 -108 28 -108 89c0 71 55 121 102 149c35 21 75 34 116 34z" fill="currentColor"/>
</g>
<g transform="translate(14.3603, 15.3549)">
<rect x="-0.0650" y="-2.3139" width="0.1300" height="3.1239" ry="0.0400" fill="currentColor"/>
</g>
<g transform="translate(5.6906, 11.2533)">
<text font-family="serif" font-size="2.6163" text-anchor="start" fill="currentColor">
<tspan>Α</tspan>
</text>
</g>
<g transform="translate(10.8101, 15.3549)">
<path transform="scale(0.0040, -0.0040)" d="M170 241c51 0 53 43 53 100v18v18c0 57 -2 100 -53 100c-57 0 -61 -51 -61 -118s4 -118 61 -118zM223 234c-15 -10 -33 -16 -53 -16c-101 0 -170 46 -170 141s69 141 170 141c112 0 170 -124 170 -250c0 -128 -72 -250 -190 -250c-70 0 -136 39 -136 103
c0 36 29 66 65 66s66 -30 66 -66c0 -24 -40 -25 -40 -49c0 -20 23 -31 45 -31c66 0 75 65 75 139c0 24 -2 48 -2 72z" fill="currentColor"/>
</g>
<g transform="translate(10.6906, 17.3709)">
<path transform="scale(0.0040, -0.0040)" d="M196 117h117c0 -48 27 -94 72 -94c8 0 12 -5 12 -11s-4 -12 -12 -12c-44 0 -87 13 -131 13s-87 -13 -131 -13c-8 0 -12 6 -12 12s4 11 12 11c45 0 73 46 73 94zM204 307c22 14 44 29 60 50c11 15 19 33 27 50c2 4 5 6 9 6c6 0 13 -5 13 -14v-245h72c10 0 15 -7 15 -14
s-5 -15 -15 -15h-72v-8h-117v8h-167c-23 0 -31 14 -31 23c0 3 1 5 2 6c80 93 138 207 138 330c0 10 7 19 16 16c23 -7 47 -13 71 -13s48 6 71 13c14 4 23 -9 17 -16l-284 -330h167v131c0 8 1 17 8 22z" fill="currentColor"/>
</g>
<g transform="translate(6.4906, 16.3549)">
<path transform="scale(0.0040, -0.0040)" d="M266 -635h-6c-108 0 -195 88 -195 197c0 58 53 103 112 103c54 0 95 -47 95 -103c0 -52 -43 -95 -95 -95c-11 0 -21 2 -31 6c26 -39 68 -65 117 -65h4zM461 -203c68 24 113 95 113 164c0 90 -66 179 -173 190c24 -116 46 -231 60 -354zM74 28c0 -135 129 -247 264 -247
c28 0 55 2 82 6c-14 127 -37 245 -63 364c-79 -8 -124 -61 -124 -119c0 -44 25 -91 81 -123c5 -5 7 -10 7 -15c0 -11 -10 -22 -22 -22c-3 0 -6 1 -9 2c-80 43 -117 115 -117 185c0 88 58 174 160 197c-14 58 -29 117 -46 175c-107 -121 -213 -243 -213 -403zM335 -262
c-188 0 -333 172 -333 374c0 177 131 306 248 441c-19 62 -37 125 -45 190c-6 52 -7 104 -7 156c0 115 55 224 149 292c6 5 14 5 20 0c71 -84 133 -245 133 -358c0 -143 -86 -255 -180 -364c21 -68 39 -138 56 -207c4 0 9 1 13 1c155 0 256 -128 256 -261
c0 -76 -33 -154 -107 -210c-22 -17 -47 -28 -73 -36c3 -35 5 -70 5 -105c0 -19 -1 -39 -2 -58c-7 -119 -88 -225 -202 -228l1 43c93 2 153 92 159 191c1 18 2 37 2 55c0 31 -1 61 -4 92c-29 -5 -58 -8 -89 -8zM428 916c0 55 -4 79 -20 129c-99 -48 -162 -149 -162 -259
c0 -74 18 -133 36 -194c80 97 146 198 146 324z" fill="currentColor"/>
</g>
<g transform="translate(14.2953, 12.8549)">
<path transform="scale(0.0040, -0.0040)" d="M218 136c55 0 108 -28 108 -89c0 -71 -55 -121 -102 -149c-35 -21 -75 -34 -116 -34c-55 0 -108 28 -108 89c0 71 55 121 102 149c35 21 75 34 116 34z" fill="currentColor"/>
</g>
<g transform="translate(22.1481, 13.8549)">
<path transform="scale(0.0040, -0.0040)" d="M218 136c55 0 108 -28 108 -89c0 -71 -55 -121 -102 -149c-35 -21 -75 -34 -116 -34c-55 0 -108 28 -108 89c0 71 55 121 102 149c35 21 75 34 116 34z" fill="currentColor"/>
</g>
<g transform="translate(20.3817, 15.3549)">
<rect x="-0.0650" y="-1.8139" width="0.1300" height="3.6304" ry="0.0400" fill="currentColor"/>
</g>
<g transform="translate(20.3167, 13.3549)">
<path transform="scale(0.0040, -0.0040)" d="M218 136c55 0 108 -28 108 -89c0 -71 -55 -121 -102 -149c-35 -21 -75 -34 -116 -34c-55 0 -108 28 -108 89c0 71 55 121 102 149c35 21 75 34 116 34z" fill="currentColor"/>
</g>
<g transform="translate(18.5503, 15.3549)">
<rect x="-0.0650" y="-2.3139" width="0.1300" height="3.1239" ry="0.0400" fill="currentColor"/>
</g>
<g transform="translate(18.4853, 12.8549)">
<path transform="scale(0.0040, -0.0040)" d="M218 136c55 0 108 -28 108 -89c0 -71 -55 -121 -102 -149c-35 -21 -75 -34 -116 -34c-55 0 -108 28 -108 89c0 71 55 121 102 149c35 21 75 34 116 34z" fill="currentColor"/>
</g>
<g transform="translate(16.7189, 15.3549)">
<rect x="-0.0650" y="-2.3139" width="0.1300" height="3.1239" ry="0.0400" fill="currentColor"/>
</g>
<g transform="translate(16.6539, 12.8549)">
<path transform="scale(0.0040, -0.0040)" d="M218 136c55 0 108 -28 108 -89c0 -71 -55 -121 -102 -149c-35 -21 -75 -34 -116 -34c-55 0 -108 28 -108 89c0 71 55 121 102 149c35 21 75 34 116 34z" fill="currentColor"/>
</g>
<g color="rgb(50.0000%, 50.0000%, 50.0000%)">
<g transform="translate(50.9784, 14.3549)">
<path transform="scale(0.0040, -0.0040)" d="M218 136c55 0 108 -28 108 -89c0 -71 -55 -121 -102 -149c-35 -21 -75 -34 -116 -34c-55 0 -108 28 -108 89c0 71 55 121 102 149c35 21 75 34 116 34z" fill="currentColor"/>
</g>
</g>
<g transform="translate(50.9784, 16.3549)">
<path transform="scale(0.0040, -0.0040)" d="M218 136c55 0 108 -28 108 -89c0 -71 -55 -121 -102 -149c-35 -21 -75 -34 -116 -34c-55 0 -108 28 -108 89c0 71 55 121 102 149c35 21 75 34 116 34z" fill="currentColor"/>
</g>
<g transform="translate(48.6848, 15.3549)">
<rect x="-0.0650" y="-0.8139" width="0.1300" height="5.0010" ry="0.0400" fill="currentColor"/>
</g>
<g color="rgb(50.0000%, 50.0000%, 50.0000%)">
<g transform="translate(48.6198, 14.3549)">
<path transform="scale(0.0040, -0.0040)" d="M218 136c55 0 108 -28 108 -89c0 -71 -55 -121 -102 -149c-35 -21 -75 -34 -116 -34c-55 0 -108 28 -108 89c0 71 55 121 102 149c35 21 75 34 116 34z" fill="currentColor"/>
</g>
</g>
<g transform="translate(48.6198, 16.3549)">
<path transform="scale(0.0040, -0.0040)" d="M218 136c55 0 108 -28 108 -89c0 -71 -55 -121 -102 -149c-35 -21 -75 -34 -116 -34c-55 0 -108 28 -108 89c0 71 55 121 102 149c35 21 75 34 116 34z" fill="currentColor"/>
</g>
<g transform="translate(46.3261, 15.3549)">
<rect x="-0.0650" y="0.6861" width="0.1300" height="2.1059" ry="0.0400" fill="currentColor"/>
</g>
<g transform="translate(46.2611, 15.8549)">
<path transform="scale(0.0040, -0.0040)" d="M218 136c55 0 108 -28 108 -89c0 -71 -55 -121 -102 -149c-35 -21 -75 -34 -116 -34c-55 0 -108 28 -108 89c0 71 55 121 102 149c35 21 75 34 116 34z" fill="currentColor"/>
</g>
<g transform="translate(44.2175, 15.3549)">
<rect x="-0.0650" y="-0.3139" width="0.1300" height="2.5219" ry="0.0400" fill="currentColor"/>
</g>
<g transform="translate(57.0648, 15.3549)">
<rect x="-0.0650" y="-0.3139" width="0.1300" height="3.1289" ry="0.0400" fill="currentColor"/>
</g>
<g transform="translate(56.9998, 14.8549)">
<path transform="scale(0.0040, -0.0040)" d="M218 136c55 0 108 -28 108 -89c0 -71 -55 -121 -102 -149c-35 -21 -75 -34 -116 -34c-55 0 -108 28 -108 89c0 71 55 121 102 149c35 21 75 34 116 34z" fill="currentColor"/>
</g>
<g transform="translate(54.7062, 15.3549)">
<rect x="-0.0650" y="0.1861" width="0.1300" height="2.8089" ry="0.0400" fill="currentColor"/>
</g>
<g transform="translate(54.6412, 15.3549)">
<path transform="scale(0.0040, -0.0040)" d="M218 136c55 0 108 -28 108 -89c0 -71 -55 -121 -102 -149c-35 -21 -75 -34 -116 -34c-55 0 -108 28 -108 89c0 71 55 121 102 149c35 21 75 34 116 34z" fill="currentColor"/>
</g>
<g transform="translate(52.8748, 15.3549)">
<rect x="-0.0650" y="0.6861" width="0.1300" height="3.3168" ry="0.0400" fill="currentColor"/>
</g>
<g transform="translate(52.8098, 15.8549)">
<path transform="scale(0.0040, -0.0040)" d="M218 136c55 0 108 -28 108 -89c0 -71 -55 -121 -102 -149c-35 -21 -75 -34 -116 -34c-55 0 -108 28 -108 89c0 71 55 121 102 149c35 21 75 34 116 34z" fill="currentColor"/>
</g>
<g transform="translate(51.0434, 15.3549)">
<rect x="-0.0650" y="-0.8139" width="0.1300" height="4.8973" ry="0.0400" fill="currentColor"/>
</g>
<g transform="translate(42.3211, 15.3549)">
<path transform="scale(0.0040, -0.0040)" d="M218 136c55 0 108 -28 108 -89c0 -71 -55 -121 -102 -149c-35 -21 -75 -34 -116 -34c-55 0 -108 28 -108 89c0 71 55 121 102 149c35 21 75 34 116 34z" fill="currentColor"/>
</g>
<g transform="translate(38.1311, 16.3549)">
<path transform="scale(0.0040, -0.0040)" d="M218 136c55 0 108 -28 108 -89c0 -71 -55 -121 -102 -149c-35 -21 -75 -34 -116 -34c-55 0 -108 28 -108 89c0 71 55 121 102 149c35 21 75 34 116 34z" fill="currentColor"/>
</g>
<g transform="translate(38.1961, 15.3549)">
<rect x="-0.0650" y="1.1861" width="0.1300" height="2.3064" ry="0.0400" fill="currentColor"/>
</g>
<g transform="translate(36.0875, 15.3549)">
<rect x="-0.0650" y="0.1861" width="0.1300" height="3.3021" ry="0.0400" fill="currentColor"/>
</g>
<g transform="translate(40.2775, 15.3549)">
<rect x="-0.0650" y="-0.8139" width="0.1300" height="4.0655" ry="0.0400" fill="currentColor"/>
</g>
<g transform="translate(44.1525, 14.8549)">
<path transform="scale(0.0040, -0.0040)" d="M218 136c55 0 108 -28 108 -89c0 -71 -55 -121 -102 -149c-35 -21 -75 -34 -116 -34c-55 0 -108 28 -108 89c0 71 55 121 102 149c35 21 75 34 116 34z" fill="currentColor"/>
</g>
<g transform="translate(40.2125, 14.3549)">
<path transform="scale(0.0040, -0.0040)" d="M218 136c55 0 108 -28 108 -89c0 -71 -55 -121 -102 -149c-35 -21 -75 -34 -116 -34c-55 0 -108 28 -108 89c0 71 55 121 102 149c35 21 75 34 116 34z" fill="currentColor"/>
</g>
<g transform="translate(42.3861, 15.3549)">
<rect x="-0.0650" y="0.1861" width="0.1300" height="2.8214" ry="0.0400" fill="currentColor"/>
</g>
<g transform="translate(5.6906, 29.3549)">
<line stroke-linejoin="round" stroke-linecap="round" stroke-width="0.1000" stroke="currentColor" x1="0.0500" y1="0" x2="102.3799" y2="0"/>
</g>
<g transform="translate(5.6906, 28.3549)">
<line stroke-linejoin="round" stroke-linecap="round" stroke-width="0.1000" stroke="currentColor" x1="0.0500" y1="0" x2="102.3799" y2="0"/>
</g>
<g transform="translate(5.6906, 27.3549)">
<line stroke-linejoin="round" stroke-linecap="round" stroke-width="0.1000" stroke="currentColor" x1="0.0500" y1="0" x2="102.3799" y2="0"/>
</g>
<g transform="translate(5.6906, 26.3549)">
<line stroke-linejoin="round" stroke-linecap="round" stroke-width="0.1000" stroke="currentColor" x1="0.0500" y1="0" x2="102.3799" y2="0"/>
</g>
<g transform="translate(5.6906, 25.3549)">
<line stroke-linejoin="round" stroke-linecap="round" stroke-width="0.1000" stroke="currentColor" x1="0.0500" y1="0" x2="102.3799" y2="0"/>
</g>
<g transform="translate(107.5205, 27.3549)">
<rect x="0.0000" y="-2.0000" width="0.6000" height="4.0000" ry="0.0000" fill="currentColor"/>
</g>
<g transform="translate(107.0305, 27.3549)">
<rect x="0.0000" y="-2.0000" width="0.1900" height="4.0000" ry="0.0000" fill="currentColor"/>
</g>
<g transform="translate(61.8515, 27.3549)">
<rect x="0.0000" y="-2.0000" width="0.1900" height="4.0000" ry="0.0000" fill="currentColor"/>
</g>
<g transform="translate(75.3572, 27.3549)">
<rect x="-0.0650" y="0.1861" width="0.1300" height="3.3069" ry="0.0400" fill="currentColor"/>
</g>
<g transform="translate(75.2922, 27.3549)">
<path transform="scale(0.0040, -0.0040)" d="M218 136c55 0 108 -28 108 -89c0 -71 -55 -121 -102 -149c-35 -21 -75 -34 -116 -34c-55 0 -108 28 -108 89c0 71 55 121 102 149c35 21 75 34 116 34z" fill="currentColor"/>
</g>
<g transform="translate(74.1328, 27.3549)">
<rect x="-0.0650" y="-3.4890" width="0.1300" height="2.8029" ry="0.0400" fill="currentColor"/>
</g>
<g transform="translate(72.8936, 26.8549)">
<path transform="scale(0.0040, -0.0040)" d="M218 136c55 0 108 -28 108 -89c0 -71 -55 -121 -102 -149c-35 -21 -75 -34 -116 -34c-55 0 -108 28 -108 89c0 71 55 121 102 149c35 21 75 34 116 34z" fill="currentColor"/>
</g>
<g transform="translate(72.0314, 27.3549)">
<rect x="-0.0650" y="-3.1339" width="0.1300" height="3.4478" ry="0.0400" fill="currentColor"/>
</g>
<g transform="translate(70.7922, 27.8549)">
<path transform="scale(0.0040, -0.0040)" d="M218 136c55 0 108 -28 108 -89c0 -71 -55 -121 -102 -149c-35 -21 -75 -34 -116 -34c-55 0 -108 28 -108 89c0 71 55 121 102 149c35 21 75 34 116 34z" fill="currentColor"/>
</g>
<g transform="translate(70.1800, 27.3549)">
<rect x="-0.0650" y="-2.8210" width="0.1300" height="3.1349" ry="0.0400" fill="currentColor"/>
</g>
<g transform="translate(81.7087, 27.3549)">
<rect x="-0.0650" y="-0.3139" width="0.1300" height="3.1140" ry="0.0400" fill="currentColor"/>
</g>
<g transform="translate(81.6437, 26.8549)">
<path transform="scale(0.0040, -0.0040)" d="M218 136c55 0 108 -28 108 -89c0 -71 -55 -121 -102 -149c-35 -21 -75 -34 -116 -34c-55 0 -108 28 -108 89c0 71 55 121 102 149c35 21 75 34 116 34z" fill="currentColor"/>
</g>
<g transform="translate(79.8573, 27.3549)">
<rect x="-0.0650" y="-0.8139" width="0.1300" height="3.8209" ry="0.0400" fill="currentColor"/>
</g>
<g transform="translate(79.7923, 26.3549)">
<path transform="scale(0.0040, -0.0040)" d="M218 136c55 0 108 -28 108 -89c0 -71 -55 -121 -102 -149c-35 -21 -75 -34 -116 -34c-55 0 -108 28 -108 89c0 71 55 121 102 149c35 21 75 34 116 34z" fill="currentColor"/>
</g>
<g transform="translate(77.7559, 27.3549)">
<rect x="-0.0650" y="0.1861" width="0.1300" height="3.0478" ry="0.0400" fill="currentColor"/>
</g>
<g transform="translate(77.6909, 27.3549)">
<path transform="scale(0.0040, -0.0040)" d="M218 136c55 0 108 -28 108 -89c0 -71 -55 -121 -102 -149c-35 -21 -75 -34 -116 -34c-55 0 -108 28 -108 89c0 71 55 121 102 149c35 21 75 34 116 34z" fill="currentColor"/>
</g>
<g transform="translate(62.9225, 27.3549)">
<rect x="-0.0650" y="-0.8139" width="0.1300" height="5.3065" ry="0.0400" fill="currentColor"/>
</g>
<g color="rgb(50.0000%, 50.0000%, 50.0000%)">
<g transform="translate(62.8575, 26.3549)">
<path transform="scale(0.0040, -0.0040)" d="M218 136c55 0 108 -28 108 -89c0 -71 -55 -121 -102 -149c-35 -21 -75 -34 -116 -34c-55 0 -108 28 -108 89c0 71 55 121 102 149c35 21 75 34 116 34z" fill="currentColor"/>
</g>
</g>
<g transform="translate(62.8575, 28.3549)">
<path transform="scale(0.0040, -0.0040)" d="M218 136c55 0 108 -28 108 -89c0 -71 -55 -121 -102 -149c-35 -21 -75 -34 -116 -34c-55 0 -108 28 -108 89c0 71 55 121 102 149c35 21 75 34 116 34z" fill="currentColor"/>
</g>
<g transform="translate(59.1717, 27.3549)">
<rect x="-0.0650" y="-0.8139" width="0.1300" height="3.3139" ry="0.0400" fill="currentColor"/>
</g>
<g transform="translate(59.1067, 26.3549)">
<path transform="scale(0.0040, -0.0040)" d="M218 136c55 0 108 -28 108 -89c0 -71 -55 -121 -102 -149c-35 -21 -75 -34 -116 -34c-55 0 -108 28 -108 89c0 71 55 121 102 149c35 21 75 34 116 34z" fill="currentColor"/>
</g>
<g transform="translate(58.4079, 24.6949)">
<path transform="scale(0.0022, -0.0022)" d="M0 0c0 -195 207 -332 207 -527c0 -70 -16 -140 -42 -205c-6 -11 -16 -16 -26 -16c-16 0 -31 13 -31 31v6c27 58 43 120 43 184c0 99 -86 202 -151 277h-25v250h25z" fill="currentColor"/>
</g>
<g transform="translate(58.3429, 27.3549)">
<rect x="-0.0650" y="-2.7000" width="0.1300" height="2.6233" ry="0.0400" fill="currentColor"/>
</g>
<g transform="translate(57.6843, 27.3549)">
<path transform="scale(0.0022, -0.0022)" d="M199 142c66 0 123 -38 123 -108s-48 -117 -94 -145c-32 -19 -68 -31 -105 -31c-66 0 -123 38 -123 108s48 117 94 145c32 19 68 31 105 31z" fill="currentColor"/>
</g>
<g transform="translate(93.8467, 29.5449)">
<polygon stroke-linejoin="round" stroke-linecap="round" stroke-width="0.0800" fill="currentColor" stroke="currentColor" points="2.2386 0.4200 2.2386 0.8200 0.0400 0.2000 0.0400 -0.2000"/>
</g>
<g transform="translate(65.3212, 27.3549)">
<rect x="-0.0650" y="-0.8139" width="0.1300" height="5.0327" ry="0.0400" fill="currentColor"/>
</g>
<g transform="translate(67.1726, 27.3549)">
<rect x="-0.0650" y="0.1861" width="0.1300" height="3.8213" ry="0.0400" fill="currentColor"/>
</g>
<g transform="translate(67.1076, 27.3549)">
<path transform="scale(0.0040, -0.0040)" d="M218 136c55 0 108 -28 108 -89c0 -71 -55 -121 -102 -149c-35 -21 -75 -34 -116 -34c-55 0 -108 28 -108 89c0 71 55 121 102 149c35 21 75 34 116 34z" fill="currentColor"/>
</g>
<g transform="translate(68.9408, 27.8549)">
<path transform="scale(0.0040, -0.0040)" d="M218 136c55 0 108 -28 108 -89c0 -71 -55 -121 -102 -149c-35 -21 -75 -34 -116 -34c-55 0 -108 28 -108 89c0 71 55 121 102 149c35 21 75 34 116 34z" fill="currentColor"/>
</g>
<g color="rgb(50.0000%, 50.0000%, 50.0000%)">
<g transform="translate(65.2562, 26.3549)">
<path transform="scale(0.0040, -0.0040)" d="M218 136c55 0 108 -28 108 -89c0 -71 -55 -121 -102 -149c-35 -21 -75 -34 -116 -34c-55 0 -108 28 -108 89c0 71 55 121 102 149c35 21 75 34 116 34z" fill="currentColor"/>
</g>
</g>
<g transform="translate(65.2562, 28.3549)">
<path transform="scale(0.0040, -0.0040)" d="M218 136c55 0 108 -28 108 -89c0 -71 -55 -121 -102 -149c-35 -21 -75 -34 -116 -34c-55 0 -108 28 -108 89c0 71 55 121 102 149c35 21 75 34 116 34z" fill="currentColor"/>
</g>
<g transform="translate(101.4048, 27.3549)">
<rect x="-0.0650" y="-0.8139" width="0.1300" height="4.8139" ry="0.0400" fill="currentColor"/>
</g>
<g transform="translate(104.3506, 27.3549)">
<rect x="-0.0650" y="-0.8139" width="0.1300" height="4.8139" ry="0.0400" fill="currentColor"/>
</g>
<g color="rgb(50.0000%, 50.0000%, 50.0000%)">
<g transform="translate(104.2856, 26.3549)">
<path transform="scale(0.0040, -0.0040)" d="M218 136c55 0 108 -28 108 -89c0 -71 -55 -121 -102 -149c-35 -21 -75 -34 -116 -34c-55 0 -108 28 -108 89c0 71 55 121 102 149c35 21 75 34 116 34z" fill="currentColor"/>
</g>
</g>
<g transform="translate(104.2856, 28.3549)">
<path transform="scale(0.0040, -0.0040)" d="M218 136c55 0 108 -28 108 -89c0 -71 -55 -121 -102 -149c-35 -21 -75 -34 -116 -34c-55 0 -108 28 -108 89c0 71 55 121 102 149c35 21 75 34 116 34z" fill="currentColor"/>
</g>
<g color="rgb(50.0000%, 50.0000%, 50.0000%)">
<g transform="translate(101.3398, 26.3549)">
<path transform="scale(0.0040, -0.0040)" d="M218 136c55 0 108 -28 108 -89c0 -71 -55 -121 -102 -149c-35 -21 -75 -34 -116 -34c-55 0 -108 28 -108 89c0 71 55 121 102 149c35 21 75 34 116 34z" fill="currentColor"/>
</g>
</g>
<g transform="translate(101.3398, 28.3549)">
<path transform="scale(0.0040, -0.0040)" d="M218 136c55 0 108 -28 108 -89c0 -71 -55 -121 -102 -149c-35 -21 -75 -34 -116 -34c-55 0 -108 28 -108 89c0 71 55 121 102 149c35 21 75 34 116 34z" fill="currentColor"/>
</g>
<g transform="translate(98.4589, 27.3549)">
<rect x="-0.0650" y="-0.8139" width="0.1300" height="4.8139" ry="0.0400" fill="currentColor"/>
</g>
<g color="rgb(50.0000%, 50.0000%, 50.0000%)">
<g transform="translate(98.3939, 26.3549)">
<path transform="scale(0.0040, -0.0040)" d="M218 136c55 0 108 -28 108 -89c0 -71 -55 -121 -102 -149c-35 -21 -75 -34 -116 -34c-55 0 -108 28 -108 89c0 71 55 121 102 149c35 21 75 34 116 34z" fill="currentColor"/>
</g>
</g>
<g transform="translate(98.3939, 28.3549)">
<path transform="scale(0.0040, -0.0040)" d="M218 136c55 0 108 -28 108 -89c0 -71 -55 -121 -102 -149c-35 -21 -75 -34 -116 -34c-55 0 -108 28 -108 89c0 71 55 121 102 149c35 21 75 34 116 34z" fill="currentColor"/>
</g>
<g transform="translate(30.2767, 29.3549)">
<polygon stroke-linejoin="round" stroke-linecap="round" stroke-width="0.0800" fill="currentColor" stroke="currentColor" points="1.9414 -0.5009 1.9414 -0.1009 0.0400 0.2000 0.0400 -0.2000"/>
</g>
<g transform="translate(30.2767, 30.1649)">
<polygon stroke-linejoin="round" stroke-linecap="round" stroke-width="0.0800" fill="currentColor" stroke="currentColor" points="4.0428 -0.8200 4.0428 -0.4200 0.0400 0.2000 0.0400 -0.2000"/>
</g>
<g transform="translate(90.9602, 29.6779)">
<polygon stroke-linejoin="round" stroke-linecap="round" stroke-width="0.0800" fill="currentColor" stroke="currentColor" points="1.1250 -0.3330 1.1250 0.0670 0.0400 0.2000 0.0400 -0.2000"/>
</g>
<g transform="translate(87.7452, 30.0449)">
<polygon stroke-linejoin="round" stroke-linecap="round" stroke-width="0.0800" fill="currentColor" stroke="currentColor" points="1.1250 -0.3330 1.1250 0.0670 0.0400 0.2000 0.0400 -0.2000"/>
</g>
<g transform="translate(87.7452, 30.8549)">
<polygon stroke-linejoin="round" stroke-linecap="round" stroke-width="0.0800" fill="currentColor" stroke="currentColor" points="4.3401 -0.7000 4.3401 -0.3000 0.0400 0.2000 0.0400 -0.2000"/>
</g>
<g transform="translate(81.6437, 29.3549)">
<polygon stroke-linejoin="round" stroke-linecap="round" stroke-width="0.0800" fill="currentColor" stroke="currentColor" points="1.9414 -0.5009 1.9414 -0.1009 0.0400 0.2000 0.0400 -0.2000"/>
</g>
<g transform="translate(81.6437, 30.1649)">
<polygon stroke-linejoin="round" stroke-linecap="round" stroke-width="0.0800" fill="currentColor" stroke="currentColor" points="4.0428 -0.8200 4.0428 -0.4200 0.0400 0.2000 0.0400 -0.2000"/>
</g>
<g transform="translate(77.6909, 29.7859)">
<polygon stroke-linejoin="round" stroke-linecap="round" stroke-width="0.0800" fill="currentColor" stroke="currentColor" points="2.1914 -0.4410 2.1914 -0.0410 0.0400 0.2000 0.0400 -0.2000"/>
</g>
<g transform="translate(75.2922, 30.8549)">
<polygon stroke-linejoin="round" stroke-linecap="round" stroke-width="0.0800" fill="currentColor" stroke="currentColor" points="4.5901 -0.7000 4.5901 -0.3000 0.0400 0.2000 0.0400 -0.2000"/>
</g>
<g transform="translate(70.1150, 24.5449)">
<polygon stroke-linejoin="round" stroke-linecap="round" stroke-width="0.0800" fill="currentColor" stroke="currentColor" points="4.0428 -0.8900 4.0428 -0.4900 0.0400 0.2000 0.0400 -0.2000"/>
</g>
<g transform="translate(70.1150, 25.3549)">
<polygon stroke-linejoin="round" stroke-linecap="round" stroke-width="0.0800" fill="currentColor" stroke="currentColor" points="1.9414 -0.5349 1.9414 -0.1349 0.0400 0.2000 0.0400 -0.2000"/>
</g>
<g transform="translate(65.2562, 30.7711)">
<polygon stroke-linejoin="round" stroke-linecap="round" stroke-width="0.0800" fill="currentColor" stroke="currentColor" points="1.9414 -0.4262 1.9414 -0.0262 0.0400 0.2000 0.0400 -0.2000"/>
</g>
<g transform="translate(62.8575, 31.8549)">
<polygon stroke-linejoin="round" stroke-linecap="round" stroke-width="0.0800" fill="currentColor" stroke="currentColor" points="4.3401 -0.7000 4.3401 -0.3000 0.0400 0.2000 0.0400 -0.2000"/>
</g>
<g transform="translate(53.1284, 30.3549)">
<polygon stroke-linejoin="round" stroke-linecap="round" stroke-width="0.0800" fill="currentColor" stroke="currentColor" points="2.4886 -0.3900 2.4886 0.0100 0.0400 0.2000 0.0400 -0.2000"/>
</g>
<g transform="translate(5.6906, 27.3549)">
<line stroke-linejoin="round" stroke-linecap="round" stroke-width="0.1000" stroke="currentColor" x1="53.0038" y1="-0.4099" x2="53.1297" y2="-0.5901"/>
</g>
<g transform="translate(49.4256, 30.6309)">
<polygon stroke-linejoin="round" stroke-linecap="round" stroke-width="0.0800" fill="currentColor" stroke="currentColor" points="1.9414 -0.2860 1.9414 0.1140 0.0400 0.2000 0.0400 -0.2000"/>
</g>
<g transform="translate(47.0270, 31.5449)">
<polygon stroke-linejoin="round" stroke-linecap="round" stroke-width="0.0800" fill="currentColor" stroke="currentColor" points="4.3401 -0.3900 4.3401 0.0100 0.0400 0.2000 0.0400 -0.2000"/>
</g>
<g transform="translate(42.4797, 29.5449)">
<polygon stroke-linejoin="round" stroke-linecap="round" stroke-width="0.0800" fill="currentColor" stroke="currentColor" points="2.2386 0.4200 2.2386 0.8200 0.0400 0.2000 0.0400 -0.2000"/>
</g>
<g transform="translate(39.5933, 29.6779)">
<polygon stroke-linejoin="round" stroke-linecap="round" stroke-width="0.0800" fill="currentColor" stroke="currentColor" points="1.1250 -0.3330 1.1250 0.0670 0.0400 0.2000 0.0400 -0.2000"/>
</g>
<g transform="translate(36.3782, 30.0449)">
<polygon stroke-linejoin="round" stroke-linecap="round" stroke-width="0.0800" fill="currentColor" stroke="currentColor" points="1.1250 -0.3330 1.1250 0.0670 0.0400 0.2000 0.0400 -0.2000"/>
</g>
<g transform="translate(36.3782, 30.8549)">
<polygon stroke-linejoin="round" stroke-linecap="round" stroke-width="0.0800" fill="currentColor" stroke="currentColor" points="4.3401 -0.7000 4.3401 -0.3000 0.0400 0.2000 0.0400 -0.2000"/>
</g>
<g transform="translate(26.3239, 29.7859)">
<polygon stroke-linejoin="round" stroke-linecap="round" stroke-width="0.0800" fill="currentColor" stroke="currentColor" points="2.1914 -0.4410 2.1914 -0.0410 0.0400 0.2000 0.0400 -0.2000"/>
</g>
<g transform="translate(23.9253, 30.8549)">
<polygon stroke-linejoin="round" stroke-linecap="round" stroke-width="0.0800" fill="currentColor" stroke="currentColor" points="4.5901 -0.7000 4.5901 -0.3000 0.0400 0.2000 0.0400 -0.2000"/>
</g>
<g transform="translate(18.7480, 24.5449)">
<polygon stroke-linejoin="round" stroke-linecap="round" stroke-width="0.0800" fill="currentColor" stroke="currentColor" points="4.0428 -0.8900 4.0428 -0.4900 0.0400 0.2000 0.0400 -0.2000"/>
</g>
<g transform="translate(18.7480, 25.3549)">
<polygon stroke-linejoin="round" stroke-linecap="round" stroke-width="0.0800" fill="currentColor" stroke="currentColor" points="1.9414 -0.5349 1.9414 -0.1349 0.0400 0.2000 0.0400 -0.2000"/>
</g>
<g transform="translate(13.8892, 30.7711)">
<polygon stroke-linejoin="round" stroke-linecap="round" stroke-width="0.0800" fill="currentColor" stroke="currentColor" points="1.9414 -0.4262 1.9414 -0.0262 0.0400 0.2000 0.0400 -0.2000"/>
</g>
<g transform="translate(11.4906, 31.8549)">
<polygon stroke-linejoin="round" stroke-linecap="round" stroke-width="0.0800" fill="currentColor" stroke="currentColor" points="4.3401 -0.7000 4.3401 -0.3000 0.0400 0.2000 0.0400 -0.2000"/>
</g>
<g transform="translate(89.8466, 26.3549)">
<path transform="scale(0.0040, -0.0040)" d="M218 136c55 0 108 -28 108 -89c0 -71 -55 -121 -102 -149c-35 -21 -75 -34 -116 -34c-55 0 -108 28 -108 89c0 71 55 121 102 149c35 21 75 34 116 34z" fill="currentColor"/>
</g>
<g transform="translate(87.8102, 27.3549)">
<rect x="-0.0650" y="1.1861" width="0.1300" height="2.3065" ry="0.0400" fill="currentColor"/>
</g>
<g transform="translate(87.7452, 28.3549)">
<path transform="scale(0.0040, -0.0040)" d="M218 136c55 0 108 -28 108 -89c0 -71 -55 -121 -102 -149c-35 -21 -75 -34 -116 -34c-55 0 -108 28 -108 89c0 71 55 121 102 149c35 21 75 34 116 34z" fill="currentColor"/>
</g>
<g transform="translate(89.9116, 27.3549)">
<rect x="-0.0650" y="-0.8139" width="0.1300" height="4.0666" ry="0.0400" fill="currentColor"/>
</g>
<g transform="translate(85.6616, 27.3549)">
<rect x="-0.0650" y="-1.3139" width="0.1300" height="3.5138" ry="0.0400" fill="currentColor"/>
</g>
<g transform="translate(85.5966, 25.8549)">
<path transform="scale(0.0040, -0.0040)" d="M218 136c55 0 108 -28 108 -89c0 -71 -55 -121 -102 -149c-35 -21 -75 -34 -116 -34c-55 0 -108 28 -108 89c0 71 55 121 102 149c35 21 75 34 116 34z" fill="currentColor"/>
</g>
<g transform="translate(83.5601, 27.3549)">
<rect x="-0.0650" y="-0.3139" width="0.1300" height="2.8329" ry="0.0400" fill="currentColor"/>
</g>
<g transform="translate(83.4951, 26.8549)">
<path transform="scale(0.0040, -0.0040)" d="M218 136c55 0 108 -28 108 -89c0 -71 -55 -121 -102 -149c-35 -21 -75 -34 -116 -34c-55 0 -108 28 -108 89c0 71 55 121 102 149c35 21 75 34 116 34z" fill="currentColor"/>
</g>
<g transform="translate(93.8467, 26.8549)">
<path transform="scale(0.0040, -0.0040)" d="M218 136c55 0 108 -28 108 -89c0 -71 -55 -121 -102 -149c-35 -21 -75 -34 -116 -34c-55 0 -108 28 -108 89c0 71 55 121 102 149c35 21 75 34 116 34z" fill="currentColor"/>
</g>
<g transform="translate(96.0603, 27.3549)">
<rect x="-0.0650" y="0.6861" width="0.1300" height="2.1062" ry="0.0400" fill="currentColor"/>
</g>
<g transform="translate(95.9953, 27.8549)">
<path transform="scale(0.0040, -0.0040)" d="M218 136c55 0 108 -28 108 -89c0 -71 -55 -121 -102 -149c-35 -21 -75 -34 -116 -34c-55 0 -108 28 -108 89c0 71 55 121 102 149c35 21 75 34 116 34z" fill="currentColor"/>
</g>
<g transform="translate(93.9117, 27.3549)">
<rect x="-0.0650" y="-0.3139" width="0.1300" height="2.5216" ry="0.0400" fill="currentColor"/>
</g>
<g transform="translate(92.0602, 27.3549)">
<rect x="-0.0650" y="0.1861" width="0.1300" height="2.8213" ry="0.0400" fill="currentColor"/>
</g>
<g transform="translate(91.9952, 27.3549)">
<path transform="scale(0.0040, -0.0040)" d="M218 136c55 0 108 -28 108 -89c0 -71 -55 -121 -102 -149c-35 -21 -75 -34 -116 -34c-55 0 -108 28 -108 89c0 71 55 121 102 149c35 21 75 34 116 34z" fill="currentColor"/>
</g>
<g transform="translate(23.9253, 27.3549)">
<path transform="scale(0.0040, -0.0040)" d="M218 136c55 0 108 -28 108 -89c0 -71 -55 -121 -102 -149c-35 -21 -75 -34 -116 -34c-55 0 -108 28 -108 89c0 71 55 121 102 149c35 21 75 34 116 34z" fill="currentColor"/>
</g>
<g transform="translate(26.3889, 27.3549)">
<rect x="-0.0650" y="0.1861" width="0.1300" height="3.0478" ry="0.0400" fill="currentColor"/>
</g>
<g transform="translate(26.3239, 27.3549)">
<path transform="scale(0.0040, -0.0040)" d="M218 136c55 0 108 -28 108 -89c0 -71 -55 -121 -102 -149c-35 -21 -75 -34 -116 -34c-55 0 -108 28 -108 89c0 71 55 121 102 149c35 21 75 34 116 34z" fill="currentColor"/>
</g>
<g transform="translate(23.9903, 27.3549)">
<rect x="-0.0650" y="0.1861" width="0.1300" height="3.3069" ry="0.0400" fill="currentColor"/>
</g>
<g transform="translate(22.7658, 27.3549)">
<rect x="-0.0650" y="-3.4890" width="0.1300" height="2.8029" ry="0.0400" fill="currentColor"/>
</g>
<g transform="translate(21.5266, 26.8549)">
<path transform="scale(0.0040, -0.0040)" d="M218 136c55 0 108 -28 108 -89c0 -71 -55 -121 -102 -149c-35 -21 -75 -34 -116 -34c-55 0 -108 28 -108 89c0 71 55 121 102 149c35 21 75 34 116 34z" fill="currentColor"/>
</g>
<g transform="translate(34.2296, 25.8549)">
<path transform="scale(0.0040, -0.0040)" d="M218 136c55 0 108 -28 108 -89c0 -71 -55 -121 -102 -149c-35 -21 -75 -34 -116 -34c-55 0 -108 28 -108 89c0 71 55 121 102 149c35 21 75 34 116 34z" fill="currentColor"/>
</g>
<g transform="translate(32.1932, 27.3549)">
<rect x="-0.0650" y="-0.3139" width="0.1300" height="2.8329" ry="0.0400" fill="currentColor"/>
</g>
<g transform="translate(32.1282, 26.8549)">
<path transform="scale(0.0040, -0.0040)" d="M218 136c55 0 108 -28 108 -89c0 -71 -55 -121 -102 -149c-35 -21 -75 -34 -116 -34c-55 0 -108 28 -108 89c0 71 55 121 102 149c35 21 75 34 116 34z" fill="currentColor"/>
</g>
<g transform="translate(20.6644, 27.3549)">
<rect x="-0.0650" y="-3.1339" width="0.1300" height="3.4478" ry="0.0400" fill="currentColor"/>
</g>
<g transform="translate(30.3417, 27.3549)">
<rect x="-0.0650" y="-0.3139" width="0.1300" height="3.1140" ry="0.0400" fill="currentColor"/>
</g>
<g transform="translate(30.2767, 26.8549)">
<path transform="scale(0.0040, -0.0040)" d="M218 136c55 0 108 -28 108 -89c0 -71 -55 -121 -102 -149c-35 -21 -75 -34 -116 -34c-55 0 -108 28 -108 89c0 71 55 121 102 149c35 21 75 34 116 34z" fill="currentColor"/>
</g>
<g transform="translate(28.4903, 27.3549)">
<rect x="-0.0650" y="-0.8139" width="0.1300" height="3.8209" ry="0.0400" fill="currentColor"/>
</g>
<g transform="translate(28.4253, 26.3549)">
<path transform="scale(0.0040, -0.0040)" d="M218 136c55 0 108 -28 108 -89c0 -71 -55 -121 -102 -149c-35 -21 -75 -34 -116 -34c-55 0 -108 28 -108 89c0 71 55 121 102 149c35 21 75 34 116 34z" fill="currentColor"/>
</g>
<g transform="translate(11.5556, 27.3549)">
<rect x="-0.0650" y="-0.8139" width="0.1300" height="5.3065" ry="0.0400" fill="currentColor"/>
</g>
<g color="rgb(50.0000%, 50.0000%, 50.0000%)">
<g transform="translate(11.4906, 26.3549)">
<path transform="scale(0.0040, -0.0040)" d="M218 136c55 0 108 -28 108 -89c0 -71 -55 -121 -102 -149c-35 -21 -75 -34 -116 -34c-55 0 -108 28 -108 89c0 71 55 121 102 149c35 21 75 34 116 34z" fill="currentColor"/>
</g>
</g>
<g transform="translate(11.4906, 28.3549)">
<path transform="scale(0.0040, -0.0040)" d="M218 136c55 0 108 -28 108 -89c0 -71 -55 -121 -102 -149c-35 -21 -75 -34 -116 -34c-55 0 -108 28 -108 89c0 71 55 121 102 149c35 21 75 34 116 34z" fill="currentColor"/>
</g>
<g transform="translate(13.8892, 28.3549)">
<path transform="scale(0.0040, -0.0040)" d="M218 136c55 0 108 -28 108 -89c0 -71 -55 -121 -102 -149c-35 -21 -75 -34 -116 -34c-55 0 -108 28 -108 89c0 71 55 121 102 149c35 21 75 34 116 34z" fill="currentColor"/>
</g>
<g transform="translate(5.6906, 24.0574)">
<text font-family="serif" font-size="2.6163" text-anchor="start" fill="currentColor">
<tspan>Β</tspan>
</text>
</g>
<g transform="translate(6.4906, 28.3549)">
<path transform="scale(0.0040, -0.0040)" d="M266 -635h-6c-108 0 -195 88 -195 197c0 58 53 103 112 103c54 0 95 -47 95 -103c0 -52 -43 -95 -95 -95c-11 0 -21 2 -31 6c26 -39 68 -65 117 -65h4zM461 -203c68 24 113 95 113 164c0 90 -66 179 -173 190c24 -116 46 -231 60 -354zM74 28c0 -135 129 -247 264 -247
c28 0 55 2 82 6c-14 127 -37 245 -63 364c-79 -8 -124 -61 -124 -119c0 -44 25 -91 81 -123c5 -5 7 -10 7 -15c0 -11 -10 -22 -22 -22c-3 0 -6 1 -9 2c-80 43 -117 115 -117 185c0 88 58 174 160 197c-14 58 -29 117 -46 175c-107 -121 -213 -243 -213 -403zM335 -262
c-188 0 -333 172 -333 374c0 177 131 306 248 441c-19 62 -37 125 -45 190c-6 52 -7 104 -7 156c0 115 55 224 149 292c6 5 14 5 20 0c71 -84 133 -245 133 -358c0 -143 -86 -255 -180 -364c21 -68 39 -138 56 -207c4 0 9 1 13 1c155 0 256 -128 256 -261
c0 -76 -33 -154 -107 -210c-22 -17 -47 -28 -73 -36c3 -35 5 -70 5 -105c0 -19 -1 -39 -2 -58c-7 -119 -88 -225 -202 -228l1 43c93 2 153 92 159 191c1 18 2 37 2 55c0 31 -1 61 -4 92c-29 -5 -58 -8 -89 -8zM428 916c0 55 -4 79 -20 129c-99 -48 -162 -149 -162 -259
c0 -74 18 -133 36 -194c80 97 146 198 146 324z" fill="currentColor"/>
</g>
<g transform="translate(19.4252, 27.8549)">
<path transform="scale(0.0040, -0.0040)" d="M218 136c55 0 108 -28 108 -89c0 -71 -55 -121 -102 -149c-35 -21 -75 -34 -116 -34c-55 0 -108 28 -108 89c0 71 55 121 102 149c35 21 75 34 116 34z" fill="currentColor"/>
</g>
<g transform="translate(18.8130, 27.3549)">
<rect x="-0.0650" y="-2.8210" width="0.1300" height="3.1349" ry="0.0400" fill="currentColor"/>
</g>
<g transform="translate(17.5738, 27.8549)">
<path transform="scale(0.0040, -0.0040)" d="M218 136c55 0 108 -28 108 -89c0 -71 -55 -121 -102 -149c-35 -21 -75 -34 -116 -34c-55 0 -108 28 -108 89c0 71 55 121 102 149c35 21 75 34 116 34z" fill="currentColor"/>
</g>
<g transform="translate(15.8056, 27.3549)">
<rect x="-0.0650" y="0.1861" width="0.1300" height="3.8213" ry="0.0400" fill="currentColor"/>
</g>
<g transform="translate(15.7406, 27.3549)">
<path transform="scale(0.0040, -0.0040)" d="M218 136c55 0 108 -28 108 -89c0 -71 -55 -121 -102 -149c-35 -21 -75 -34 -116 -34c-55 0 -108 28 -108 89c0 71 55 121 102 149c35 21 75 34 116 34z" fill="currentColor"/>
</g>
<g transform="translate(13.9542, 27.3549)">
<rect x="-0.0650" y="-0.8139" width="0.1300" height="5.0327" ry="0.0400" fill="currentColor"/>
</g>
<g color="rgb(50.0000%, 50.0000%, 50.0000%)">
<g transform="translate(13.8892, 26.3549)">
<path transform="scale(0.0040, -0.0040)" d="M218 136c55 0 108 -28 108 -89c0 -71 -55 -121 -102 -149c-35 -21 -75 -34 -116 -34c-55 0 -108 28 -108 89c0 71 55 121 102 149c35 21 75 34 116 34z" fill="currentColor"/>
</g>
</g>
<g color="rgb(50.0000%, 50.0000%, 50.0000%)">
<g transform="translate(49.4256, 26.3549)">
<path transform="scale(0.0040, -0.0040)" d="M218 136c55 0 108 -28 108 -89c0 -71 -55 -121 -102 -149c-35 -21 -75 -34 -116 -34c-55 0 -108 28 -108 89c0 71 55 121 102 149c35 21 75 34 116 34z" fill="currentColor"/>
</g>
</g>
<g transform="translate(49.4256, 28.3549)">
<path transform="scale(0.0040, -0.0040)" d="M218 136c55 0 108 -28 108 -89c0 -71 -55 -121 -102 -149c-35 -21 -75 -34 -116 -34c-55 0 -108 28 -108 89c0 71 55 121 102 149c35 21 75 34 116 34z" fill="currentColor"/>
</g>
<g transform="translate(47.0920, 27.3549)">
<rect x="-0.0650" y="-0.8139" width="0.1300" height="5.0011" ry="0.0400" fill="currentColor"/>
</g>
<g color="rgb(50.0000%, 50.0000%, 50.0000%)">
<g transform="translate(47.0270, 26.3549)">
<path transform="scale(0.0040, -0.0040)" d="M218 136c55 0 108 -28 108 -89c0 -71 -55 -121 -102 -149c-35 -21 -75 -34 -116 -34c-55 0 -108 28 -108 89c0 71 55 121 102 149c35 21 75 34 116 34z" fill="currentColor"/>
</g>
</g>
<g transform="translate(47.0270, 28.3549)">
<path transform="scale(0.0040, -0.0040)" d="M218 136c55 0 108 -28 108 -89c0 -71 -55 -121 -102 -149c-35 -21 -75 -34 -116 -34c-55 0 -108 28 -108 89c0 71 55 121 102 149c35 21 75 34 116 34z" fill="currentColor"/>
</g>
<g transform="translate(49.4906, 27.3549)">
<rect x="-0.0650" y="-0.8139" width="0.1300" height="4.8970" ry="0.0400" fill="currentColor"/>
</g>
<g transform="translate(34.2946, 27.3549)">
<rect x="-0.0650" y="-1.3139" width="0.1300" height="3.5138" ry="0.0400" fill="currentColor"/>
</g>
<g transform="translate(44.6283, 27.8549)">
<path transform="scale(0.0040, -0.0040)" d="M218 136c55 0 108 -28 108 -89c0 -71 -55 -121 -102 -149c-35 -21 -75 -34 -116 -34c-55 0 -108 28 -108 89c0 71 55 121 102 149c35 21 75 34 116 34z" fill="currentColor"/>
</g>
<g transform="translate(42.5447, 27.3549)">
<rect x="-0.0650" y="-0.3139" width="0.1300" height="2.5216" ry="0.0400" fill="currentColor"/>
</g>
<g transform="translate(55.5921, 27.3549)">
<rect x="-0.0650" y="-0.3139" width="0.1300" height="3.1288" ry="0.0400" fill="currentColor"/>
</g>
<g transform="translate(55.5271, 26.8549)">
<path transform="scale(0.0040, -0.0040)" d="M218 136c55 0 108 -28 108 -89c0 -71 -55 -121 -102 -149c-35 -21 -75 -34 -116 -34c-55 0 -108 28 -108 89c0 71 55 121 102 149c35 21 75 34 116 34z" fill="currentColor"/>
</g>
<g transform="translate(53.1934, 27.3549)">
<rect x="-0.0650" y="0.1861" width="0.1300" height="2.8090" ry="0.0400" fill="currentColor"/>
</g>
<g transform="translate(53.1284, 27.3549)">
<path transform="scale(0.0040, -0.0040)" d="M218 136c55 0 108 -28 108 -89c0 -71 -55 -121 -102 -149c-35 -21 -75 -34 -116 -34c-55 0 -108 28 -108 89c0 71 55 121 102 149c35 21 75 34 116 34z" fill="currentColor"/>
</g>
<g transform="translate(44.6933, 27.3549)">
<rect x="-0.0650" y="0.6861" width="0.1300" height="2.1062" ry="0.0400" fill="currentColor"/>
</g>
<g transform="translate(51.3420, 27.3549)">
<rect x="-0.0650" y="0.6861" width="0.1300" height="3.3167" ry="0.0400" fill="currentColor"/>
</g>
<g transform="translate(51.2770, 27.8549)">
<path transform="scale(0.0040, -0.0040)" d="M218 136c55 0 108 -28 108 -89c0 -71 -55 -121 -102 -149c-35 -21 -75 -34 -116 -34c-55 0 -108 28 -108 89c0 71 55 121 102 149c35 21 75 34 116 34z" fill="currentColor"/>
</g>
<g transform="translate(36.4432, 27.3549)">
<rect x="-0.0650" y="1.1861" width="0.1300" height="2.3065" ry="0.0400" fill="currentColor"/>
</g>
<g transform="translate(40.6283, 27.3549)">
<path transform="scale(0.0040, -0.0040)" d="M218 136c55 0 108 -28 108 -89c0 -71 -55 -121 -102 -149c-35 -21 -75 -34 -116 -34c-55 0 -108 28 -108 89c0 71 55 121 102 149c35 21 75 34 116 34z" fill="currentColor"/>
</g>
<g transform="translate(38.5446, 27.3549)">
<rect x="-0.0650" y="-0.8139" width="0.1300" height="4.0666" ry="0.0400" fill="currentColor"/>
</g>
<g transform="translate(36.3782, 28.3549)">
<path transform="scale(0.0040, -0.0040)" d="M218 136c55 0 108 -28 108 -89c0 -71 -55 -121 -102 -149c-35 -21 -75 -34 -116 -34c-55 0 -108 28 -108 89c0 71 55 121 102 149c35 21 75 34 116 34z" fill="currentColor"/>
</g>
<g transform="translate(40.6933, 27.3549)">
<rect x="-0.0650" y="0.1861" width="0.1300" height="2.8213" ry="0.0400" fill="currentColor"/>
</g>
<g transform="translate(38.4796, 26.3549)">
<path transform="scale(0.0040, -0.0040)" d="M218 136c55 0 108 -28 108 -89c0 -71 -55 -121 -102 -149c-35 -21 -75 -34 -116 -34c-55 0 -108 28 -108 89c0 71 55 121 102 149c35 21 75 34 116 34z" fill="currentColor"/>
</g>
<g transform="translate(42.4797, 26.8549)">
<path transform="scale(0.0040, -0.0040)" d="M218 136c55 0 108 -28 108 -89c0 -71 -55 -121 -102 -149c-35 -21 -75 -34 -116 -34c-55 0 -108 28 -108 89c0 71 55 121 102 149c35 21 75 34 116 34z" fill="currentColor"/>
</g>
<g transform="translate(5.6906, 41.4123)">
<line stroke-linejoin="round" stroke-linecap="round" stroke-width="0.1000" stroke="currentColor" x1="0.0500" y1="0" x2="102.3799" y2="0"/>
</g>
<g transform="translate(5.6906, 40.4123)">
<line stroke-linejoin="round" stroke-linecap="round" stroke-width="0.1000" stroke="currentColor" x1="0.0500" y1="0" x2="102.3799" y2="0"/>
</g>
<g transform="translate(5.6906, 39.4123)">
<line stroke-linejoin="round" stroke-linecap="round" stroke-width="0.1000" stroke="currentColor" x1="0.0500" y1="0" x2="102.3799" y2="0"/>
</g>
<g transform="translate(5.6906, 38.4123)">
<line stroke-linejoin="round" stroke-linecap="round" stroke-width="0.1000" stroke="currentColor" x1="0.0500" y1="0" x2="102.3799" y2="0"/>
</g>
<g transform="translate(5.6906, 37.4123)">
<line stroke-linejoin="round" stroke-linecap="round" stroke-width="0.1000" stroke="currentColor" x1="0.0500" y1="0" x2="102.3799" y2="0"/>
</g>
<g transform="translate(5.6906, 36.4123)">
<rect x="88.0066" y="-0.1000" width="1.9063" height="0.2000" ry="0.1000" fill="currentColor"/>
</g>
<g transform="translate(5.6906, 36.4123)">
<rect x="86.0346" y="-0.1000" width="1.8720" height="0.2000" ry="0.1000" fill="currentColor"/>
</g>
<g transform="translate(5.6906, 36.4123)">
<rect x="82.4751" y="-0.1000" width="1.7970" height="0.2000" ry="0.1000" fill="currentColor"/>
</g>
<g transform="translate(5.6906, 36.4123)">
<rect x="80.0041" y="-0.1000" width="1.9563" height="0.2000" ry="0.1000" fill="currentColor"/>
</g>
<g transform="translate(5.6906, 36.4123)">
<rect x="77.5331" y="-0.1000" width="1.9563" height="0.2000" ry="0.1000" fill="currentColor"/>
</g>
<g transform="translate(5.6906, 35.4123)">
<rect x="53.0297" y="-0.1000" width="1.9296" height="0.2000" ry="0.1000" fill="currentColor"/>
</g>
<g transform="translate(5.6906, 36.4123)">
<rect x="53.0297" y="-0.1000" width="1.9296" height="0.2000" ry="0.1000" fill="currentColor"/>
</g>
<g transform="translate(5.6906, 36.4123)">
<rect x="51.7258" y="-0.1000" width="1.0855" height="0.2000" ry="0.1000" fill="currentColor"/>
</g>
<g transform="translate(5.6906, 35.4123)">
<rect x="49.3802" y="-0.1000" width="1.9563" height="0.2000" ry="0.1000" fill="currentColor"/>
</g>
<g transform="translate(5.6906, 36.4123)">
<rect x="49.3802" y="-0.1000" width="1.9563" height="0.2000" ry="0.1000" fill="currentColor"/>
</g>
<g transform="translate(5.6906, 36.4123)">
<rect x="46.9593" y="-0.1000" width="1.9063" height="0.2000" ry="0.1000" fill="currentColor"/>
</g>
<g transform="translate(5.6906, 36.4123)">
<rect x="44.9873" y="-0.1000" width="1.8720" height="0.2000" ry="0.1000" fill="currentColor"/>
</g>
<g transform="translate(5.6906, 36.4123)">
<rect x="36.5358" y="-0.1000" width="1.9063" height="0.2000" ry="0.1000" fill="currentColor"/>
</g>
<g transform="translate(5.6906, 36.4123)">
<rect x="34.5639" y="-0.1000" width="1.8720" height="0.2000" ry="0.1000" fill="currentColor"/>
</g>
<g transform="translate(5.6906, 36.4123)">
<rect x="31.0043" y="-0.1000" width="1.7970" height="0.2000" ry="0.1000" fill="currentColor"/>
</g>
<g transform="translate(5.6906, 36.4123)">
<rect x="28.5334" y="-0.1000" width="1.9563" height="0.2000" ry="0.1000" fill="currentColor"/>
</g>
<g transform="translate(5.6906, 36.4123)">
<rect x="26.0624" y="-0.1000" width="1.9563" height="0.2000" ry="0.1000" fill="currentColor"/>
</g>
<g transform="translate(107.5205, 39.4123)">
<rect x="0.0000" y="-2.0000" width="0.6000" height="4.0000" ry="0.0000" fill="currentColor"/>
</g>
<g transform="translate(107.0305, 39.4123)">
<rect x="0.0000" y="-2.0000" width="0.1900" height="4.0000" ry="0.0000" fill="currentColor"/>
</g>
<g transform="translate(61.9311, 39.4123)">
<rect x="0.0000" y="-2.0000" width="0.1900" height="4.0000" ry="0.0000" fill="currentColor"/>
</g>
<g transform="translate(75.4536, 37.9123)">
<path transform="scale(0.0040, -0.0040)" d="M218 136c55 0 108 -28 108 -89c0 -71 -55 -121 -102 -149c-35 -21 -75 -34 -116 -34c-55 0 -108 28 -108 89c0 71 55 121 102 149c35 21 75 34 116 34z" fill="currentColor"/>
</g>
<g transform="translate(69.2074, 37.4123)">
<path transform="scale(0.0040, -0.0040)" d="M218 136c55 0 108 -28 108 -89c0 -71 -55 -121 -102 -149c-35 -21 -75 -34 -116 -34c-55 0 -108 28 -108 89c0 71 55 121 102 149c35 21 75 34 116 34z" fill="currentColor"/>
</g>
<g transform="translate(73.0476, 39.4123)">
<rect x="-0.0650" y="-0.8139" width="0.1300" height="2.9976" ry="0.0400" fill="currentColor"/>
</g>
<g transform="translate(72.9826, 38.4123)">
<path transform="scale(0.0040, -0.0040)" d="M218 136c55 0 108 -28 108 -89c0 -71 -55 -121 -102 -149c-35 -21 -75 -34 -116 -34c-55 0 -108 28 -108 89c0 71 55 121 102 149c35 21 75 34 116 34z" fill="currentColor"/>
</g>
<g transform="translate(71.1600, 39.4123)">
<rect x="-0.0650" y="-1.3139" width="0.1300" height="3.3139" ry="0.0400" fill="currentColor"/>
</g>
<g transform="translate(71.0950, 37.9123)">
<path transform="scale(0.0040, -0.0040)" d="M218 136c55 0 108 -28 108 -89c0 -71 -55 -121 -102 -149c-35 -21 -75 -34 -116 -34c-55 0 -108 28 -108 89c0 71 55 121 102 149c35 21 75 34 116 34z" fill="currentColor"/>
</g>
<g transform="translate(69.2724, 39.4123)">
<rect x="-0.0650" y="-1.8139" width="0.1300" height="3.6302" ry="0.0400" fill="currentColor"/>
</g>
<g transform="translate(81.1438, 39.4123)">
<rect x="-0.0650" y="-2.3139" width="0.1300" height="2.4991" ry="0.0400" fill="currentColor"/>
</g>
<g transform="translate(81.0788, 36.9123)">
<path transform="scale(0.0040, -0.0040)" d="M218 136c55 0 108 -28 108 -89c0 -71 -55 -121 -102 -149c-35 -21 -75 -34 -116 -34c-55 0 -108 28 -108 89c0 71 55 121 102 149c35 21 75 34 116 34z" fill="currentColor"/>
</g>
<g transform="translate(77.1578, 37.4123)">
<path transform="scale(0.0040, -0.0040)" d="M0 119c0 8 5 15 13 18l46 17v158c0 10 8 19 18 19s19 -9 19 -19v-145l83 31v158c0 10 9 19 19 19s18 -9 18 -19v-145l32 12c2 1 5 1 7 1c11 0 20 -9 20 -20v-60c0 -8 -5 -16 -13 -19l-46 -16v-160l32 11c2 1 5 1 7 1c11 0 20 -9 20 -20v-60c0 -8 -5 -15 -13 -18l-46 -17
v-158c0 -10 -8 -19 -18 -19s-19 9 -19 19v145l-83 -31v-158c0 -10 -9 -19 -19 -19s-18 9 -18 19v145l-32 -12c-2 -1 -5 -1 -7 -1c-11 0 -20 9 -20 20v60c0 8 5 16 13 19l46 16v160l-32 -11c-2 -1 -5 -1 -7 -1c-11 0 -20 9 -20 20v60zM179 95l-83 -30v-160l83 30v160z" fill="currentColor"/>
</g>
<g transform="translate(78.6728, 39.4123)">
<rect x="-0.0650" y="-1.8139" width="0.1300" height="2.8177" ry="0.0400" fill="currentColor"/>
</g>
<g transform="translate(78.6078, 37.4123)">
<path transform="scale(0.0040, -0.0040)" d="M218 136c55 0 108 -28 108 -89c0 -71 -55 -121 -102 -149c-35 -21 -75 -34 -116 -34c-55 0 -108 28 -108 89c0 71 55 121 102 149c35 21 75 34 116 34z" fill="currentColor"/>
</g>
<g transform="translate(75.5186, 39.4123)">
<rect x="-0.0650" y="-1.3139" width="0.1300" height="2.5001" ry="0.0400" fill="currentColor"/>
</g>
<g transform="translate(59.0846, 39.4123)">
<rect x="-0.0650" y="-4.3139" width="0.1300" height="4.3139" ry="0.0400" fill="currentColor"/>
</g>
<g transform="translate(63.0263, 39.4123)">
<rect x="-0.0650" y="-2.3139" width="0.1300" height="3.1239" ry="0.0400" fill="currentColor"/>
</g>
<g transform="translate(62.9613, 36.9123)">
<path transform="scale(0.0040, -0.0040)" d="M218 136c55 0 108 -28 108 -89c0 -71 -55 -121 -102 -149c-35 -21 -75 -34 -116 -34c-55 0 -108 28 -108 89c0 71 55 121 102 149c35 21 75 34 116 34z" fill="currentColor"/>
</g>
<g transform="translate(59.0196, 34.9123)">
<path transform="scale(0.0040, -0.0040)" d="M218 136c55 0 108 -28 108 -89c0 -71 -55 -121 -102 -149c-35 -21 -75 -34 -116 -34c-55 0 -108 28 -108 89c0 71 55 121 102 149c35 21 75 34 116 34z" fill="currentColor"/>
</g>
<g transform="translate(58.3209, 33.5523)">
<path transform="scale(0.0022, -0.0022)" d="M0 0c0 -195 207 -332 207 -527c0 -70 -16 -140 -42 -205c-6 -11 -16 -16 -26 -16c-16 0 -31 13 -31 31v6c27 58 43 120 43 184c0 99 -86 202 -151 277h-25v250h25z" fill="currentColor"/>
</g>
<g transform="translate(58.2559, 39.4123)">
<rect x="-0.0650" y="-5.9000" width="0.1300" height="2.3233" ry="0.0400" fill="currentColor"/>
</g>
<g transform="translate(57.5972, 35.9123)">
<path transform="scale(0.0022, -0.0022)" d="M199 142c66 0 123 -38 123 -108s-48 -117 -94 -145c-32 -19 -68 -31 -105 -31c-66 0 -123 38 -123 108s48 117 94 145c32 19 68 31 105 31z" fill="currentColor"/>
</g>
<g transform="translate(92.0168, 39.4123)">
<polygon stroke-linejoin="round" stroke-linecap="round" stroke-width="0.0800" fill="currentColor" stroke="currentColor" points="2.0463 0.0129 2.0463 0.4129 0.0400 0.2000 0.0400 -0.2000"/>
</g>
<g transform="translate(92.0168, 40.2223)">
<polygon stroke-linejoin="round" stroke-linecap="round" stroke-width="0.0800" fill="currentColor" stroke="currentColor" points="3.6839 0.1800 3.6839 0.5800 0.0400 0.2000 0.0400 -0.2000"/>
</g>
<g transform="translate(65.4973, 39.4123)">
<rect x="-0.0650" y="-2.3139" width="0.1300" height="3.1239" ry="0.0400" fill="currentColor"/>
</g>
<g transform="translate(67.3848, 39.4123)">
<rect x="-0.0650" y="-2.3139" width="0.1300" height="3.1239" ry="0.0400" fill="currentColor"/>
</g>
<g transform="translate(67.3198, 36.9123)">
<path transform="scale(0.0040, -0.0040)" d="M218 136c55 0 108 -28 108 -89c0 -71 -55 -121 -102 -149c-35 -21 -75 -34 -116 -34c-55 0 -108 28 -108 89c0 71 55 121 102 149c35 21 75 34 116 34z" fill="currentColor"/>
</g>
<g transform="translate(65.4323, 36.9123)">
<path transform="scale(0.0040, -0.0040)" d="M218 136c55 0 108 -28 108 -89c0 -71 -55 -121 -102 -149c-35 -21 -75 -34 -116 -34c-55 0 -108 28 -108 89c0 71 55 121 102 149c35 21 75 34 116 34z" fill="currentColor"/>
</g>
<g transform="translate(101.2011, 39.4123)">
<rect x="-0.0650" y="-2.3139" width="0.1300" height="3.3139" ry="0.0400" fill="currentColor"/>
</g>
<g transform="translate(104.2554, 39.4123)">
<rect x="-0.0650" y="-2.3139" width="0.1300" height="3.3139" ry="0.0400" fill="currentColor"/>
</g>
<g transform="translate(104.1904, 36.9123)">
<path transform="scale(0.0040, -0.0040)" d="M218 136c55 0 108 -28 108 -89c0 -71 -55 -121 -102 -149c-35 -21 -75 -34 -116 -34c-55 0 -108 28 -108 89c0 71 55 121 102 149c35 21 75 34 116 34z" fill="currentColor"/>
</g>
<g transform="translate(101.1361, 36.9123)">
<path transform="scale(0.0040, -0.0040)" d="M218 136c55 0 108 -28 108 -89c0 -71 -55 -121 -102 -149c-35 -21 -75 -34 -116 -34c-55 0 -108 28 -108 89c0 71 55 121 102 149c35 21 75 34 116 34z" fill="currentColor"/>
</g>
<g transform="translate(98.1467, 39.4123)">
<rect x="-0.0650" y="-2.3139" width="0.1300" height="3.3139" ry="0.0400" fill="currentColor"/>
</g>
<g transform="translate(98.0817, 36.9123)">
<path transform="scale(0.0040, -0.0040)" d="M218 136c55 0 108 -28 108 -89c0 -71 -55 -121 -102 -149c-35 -21 -75 -34 -116 -34c-55 0 -108 28 -108 89c0 71 55 121 102 149c35 21 75 34 116 34z" fill="currentColor"/>
</g>
<g transform="translate(29.6080, 39.6023)">
<polygon stroke-linejoin="round" stroke-linecap="round" stroke-width="0.0800" fill="currentColor" stroke="currentColor" points="2.5610 -0.3900 2.5610 0.0100 0.0400 0.2000 0.0400 -0.2000"/>
</g>
<g transform="translate(88.4917, 39.1538)">
<polygon stroke-linejoin="round" stroke-linecap="round" stroke-width="0.0800" fill="currentColor" stroke="currentColor" points="1.7276 0.0586 1.7276 0.4586 0.0400 0.2000 0.0400 -0.2000"/>
</g>
<g transform="translate(86.0207, 39.6023)">
<polygon stroke-linejoin="round" stroke-linecap="round" stroke-width="0.0800" fill="currentColor" stroke="currentColor" points="4.1986 0.4200 4.1986 0.8200 0.0400 0.2000 0.0400 -0.2000"/>
</g>
<g transform="translate(81.0788, 39.6023)">
<polygon stroke-linejoin="round" stroke-linecap="round" stroke-width="0.0800" fill="currentColor" stroke="currentColor" points="2.5610 -0.3900 2.5610 0.0100 0.0400 0.2000 0.0400 -0.2000"/>
</g>
<g transform="translate(75.4536, 40.6023)">
<polygon stroke-linejoin="round" stroke-linecap="round" stroke-width="0.0800" fill="currentColor" stroke="currentColor" points="3.2442 -0.3900 3.2442 0.0100 0.0400 0.2000 0.0400 -0.2000"/>
</g>
<g transform="translate(69.2074, 40.4123)">
<polygon stroke-linejoin="round" stroke-linecap="round" stroke-width="0.0800" fill="currentColor" stroke="currentColor" points="1.9776 -0.0037 1.9776 0.3963 0.0400 0.2000 0.0400 -0.2000"/>
</g>
<g transform="translate(69.2074, 41.2223)">
<polygon stroke-linejoin="round" stroke-linecap="round" stroke-width="0.0800" fill="currentColor" stroke="currentColor" points="3.8652 0.1800 3.8652 0.5800 0.0400 0.2000 0.0400 -0.2000"/>
</g>
<g transform="translate(65.4323, 39.4123)">
<polygon stroke-linejoin="round" stroke-linecap="round" stroke-width="0.0800" fill="currentColor" stroke="currentColor" points="1.9776 -0.2000 1.9776 0.2000 0.0400 0.2000 0.0400 -0.2000"/>
</g>
<g transform="translate(62.9613, 40.2223)">
<polygon stroke-linejoin="round" stroke-linecap="round" stroke-width="0.0800" fill="currentColor" stroke="currentColor" points="4.4486 -0.2000 4.4486 0.2000 0.0400 0.2000 0.0400 -0.2000"/>
</g>
<g transform="translate(52.9259, 39.6023)">
<polygon stroke-linejoin="round" stroke-linecap="round" stroke-width="0.0800" fill="currentColor" stroke="currentColor" points="2.5610 -0.3900 2.5610 0.0100 0.0400 0.2000 0.0400 -0.2000"/>
</g>
<g transform="translate(5.6906, 39.4123)">
<line stroke-linejoin="round" stroke-linecap="round" stroke-width="0.1000" stroke="currentColor" x1="52.9167" y1="-3.9099" x2="53.0427" y2="-4.0901"/>
</g>
<g transform="translate(49.0820, 39.4977)">
<polygon stroke-linejoin="round" stroke-linecap="round" stroke-width="0.0800" fill="currentColor" stroke="currentColor" points="1.9776 -0.2854 1.9776 0.1146 0.0400 0.2000 0.0400 -0.2000"/>
</g>
<g transform="translate(46.6110, 40.4123)">
<polygon stroke-linejoin="round" stroke-linecap="round" stroke-width="0.0800" fill="currentColor" stroke="currentColor" points="4.4486 -0.3900 4.4486 0.0100 0.0400 0.2000 0.0400 -0.2000"/>
</g>
<g transform="translate(40.5461, 39.4123)">
<polygon stroke-linejoin="round" stroke-linecap="round" stroke-width="0.0800" fill="currentColor" stroke="currentColor" points="2.0463 0.0129 2.0463 0.4129 0.0400 0.2000 0.0400 -0.2000"/>
</g>
<g transform="translate(40.5461, 40.2223)">
<polygon stroke-linejoin="round" stroke-linecap="round" stroke-width="0.0800" fill="currentColor" stroke="currentColor" points="3.6839 0.1800 3.6839 0.5800 0.0400 0.2000 0.0400 -0.2000"/>
</g>
<g transform="translate(37.0209, 39.1538)">
<polygon stroke-linejoin="round" stroke-linecap="round" stroke-width="0.0800" fill="currentColor" stroke="currentColor" points="1.7276 0.0586 1.7276 0.4586 0.0400 0.2000 0.0400 -0.2000"/>
</g>
<g transform="translate(34.5500, 39.6023)">
<polygon stroke-linejoin="round" stroke-linecap="round" stroke-width="0.0800" fill="currentColor" stroke="currentColor" points="4.1986 0.4200 4.1986 0.8200 0.0400 0.2000 0.0400 -0.2000"/>
</g>
<g transform="translate(23.9828, 40.6023)">
<polygon stroke-linejoin="round" stroke-linecap="round" stroke-width="0.0800" fill="currentColor" stroke="currentColor" points="3.2442 -0.3900 3.2442 0.0100 0.0400 0.2000 0.0400 -0.2000"/>
</g>
<g transform="translate(17.7367, 40.4123)">
<polygon stroke-linejoin="round" stroke-linecap="round" stroke-width="0.0800" fill="currentColor" stroke="currentColor" points="1.9776 -0.0037 1.9776 0.3963 0.0400 0.2000 0.0400 -0.2000"/>
</g>
<g transform="translate(17.7367, 41.2223)">
<polygon stroke-linejoin="round" stroke-linecap="round" stroke-width="0.0800" fill="currentColor" stroke="currentColor" points="3.8652 0.1800 3.8652 0.5800 0.0400 0.2000 0.0400 -0.2000"/>
</g>
<g transform="translate(13.9615, 39.4123)">
<polygon stroke-linejoin="round" stroke-linecap="round" stroke-width="0.0800" fill="currentColor" stroke="currentColor" points="1.9776 -0.2000 1.9776 0.2000 0.0400 0.2000 0.0400 -0.2000"/>
</g>
<g transform="translate(11.4906, 40.2223)">
<polygon stroke-linejoin="round" stroke-linecap="round" stroke-width="0.0800" fill="currentColor" stroke="currentColor" points="4.4486 -0.2000 4.4486 0.2000 0.0400 0.2000 0.0400 -0.2000"/>
</g>
<g transform="translate(90.1293, 36.9123)">
<path transform="scale(0.0040, -0.0040)" d="M218 136c55 0 108 -28 108 -89c0 -71 -55 -121 -102 -149c-35 -21 -75 -34 -116 -34c-55 0 -108 28 -108 89c0 71 55 121 102 149c35 21 75 34 116 34z" fill="currentColor"/>
</g>
<g transform="translate(88.5567, 39.4123)">
<rect x="-0.0650" y="-3.3139" width="0.1300" height="3.8748" ry="0.0400" fill="currentColor"/>
</g>
<g transform="translate(88.4917, 35.9123)">
<path transform="scale(0.0040, -0.0040)" d="M218 136c55 0 108 -28 108 -89c0 -71 -55 -121 -102 -149c-35 -21 -75 -34 -116 -34c-55 0 -108 28 -108 89c0 71 55 121 102 149c35 21 75 34 116 34z" fill="currentColor"/>
</g>
<g transform="translate(90.1943, 39.4123)">
<rect x="-0.0650" y="-2.3139" width="0.1300" height="3.1144" ry="0.0400" fill="currentColor"/>
</g>
<g transform="translate(86.0857, 39.4123)">
<rect x="-0.0650" y="-3.3139" width="0.1300" height="3.5134" ry="0.0400" fill="currentColor"/>
</g>
<g transform="translate(86.0207, 35.9123)">
<path transform="scale(0.0040, -0.0040)" d="M218 136c55 0 108 -28 108 -89c0 -71 -55 -121 -102 -149c-35 -21 -75 -34 -116 -34c-55 0 -108 28 -108 89c0 71 55 121 102 149c35 21 75 34 116 34z" fill="currentColor"/>
</g>
<g transform="translate(83.6147, 39.4123)">
<rect x="-0.0650" y="-2.8139" width="0.1300" height="2.8186" ry="0.0400" fill="currentColor"/>
</g>
<g transform="translate(95.6758, 39.4123)">
<rect x="-0.0650" y="-1.8139" width="0.1300" height="2.9973" ry="0.0400" fill="currentColor"/>
</g>
<g transform="translate(95.6108, 37.4123)">
<path transform="scale(0.0040, -0.0040)" d="M218 136c55 0 108 -28 108 -89c0 -71 -55 -121 -102 -149c-35 -21 -75 -34 -116 -34c-55 0 -108 28 -108 89c0 71 55 121 102 149c35 21 75 34 116 34z" fill="currentColor"/>
</g>
<g transform="translate(94.0382, 39.4123)">
<rect x="-0.0650" y="-2.8139" width="0.1300" height="3.8302" ry="0.0400" fill="currentColor"/>
</g>
<g transform="translate(93.9732, 36.4123)">
<path transform="scale(0.0040, -0.0040)" d="M218 136c55 0 108 -28 108 -89c0 -71 -55 -121 -102 -149c-35 -21 -75 -34 -116 -34c-55 0 -108 28 -108 89c0 71 55 121 102 149c35 21 75 34 116 34z" fill="currentColor"/>
</g>
<g transform="translate(83.5497, 36.4123)">
<path transform="scale(0.0040, -0.0040)" d="M218 136c55 0 108 -28 108 -89c0 -71 -55 -121 -102 -149c-35 -21 -75 -34 -116 -34c-55 0 -108 28 -108 89c0 71 55 121 102 149c35 21 75 34 116 34z" fill="currentColor"/>
</g>
<g transform="translate(92.0818, 39.4123)">
<rect x="-0.0650" y="-2.8139" width="0.1300" height="3.6305" ry="0.0400" fill="currentColor"/>
</g>
<g transform="translate(92.0168, 36.4123)">
<path transform="scale(0.0040, -0.0040)" d="M218 136c55 0 108 -28 108 -89c0 -71 -55 -121 -102 -149c-35 -21 -75 -34 -116 -34c-55 0 -108 28 -108 89c0 71 55 121 102 149c35 21 75 34 116 34z" fill="currentColor"/>
</g>
<g transform="translate(27.2021, 39.4123)">
<rect x="-0.0650" y="-1.8139" width="0.1300" height="2.8177" ry="0.0400" fill="currentColor"/>
</g>
<g transform="translate(27.1371, 37.4123)">
<path transform="scale(0.0040, -0.0040)" d="M218 136c55 0 108 -28 108 -89c0 -71 -55 -121 -102 -149c-35 -21 -75 -34 -116 -34c-55 0 -108 28 -108 89c0 71 55 121 102 149c35 21 75 34 116 34z" fill="currentColor"/>
</g>
<g transform="translate(24.0478, 39.4123)">
<rect x="-0.0650" y="-1.3139" width="0.1300" height="2.5001" ry="0.0400" fill="currentColor"/>
</g>
<g transform="translate(23.9828, 37.9123)">
<path transform="scale(0.0040, -0.0040)" d="M218 136c55 0 108 -28 108 -89c0 -71 -55 -121 -102 -149c-35 -21 -75 -34 -116 -34c-55 0 -108 28 -108 89c0 71 55 121 102 149c35 21 75 34 116 34z" fill="currentColor"/>
</g>
<g transform="translate(21.5769, 39.4123)">
<rect x="-0.0650" y="-0.8139" width="0.1300" height="2.9976" ry="0.0400" fill="currentColor"/>
</g>
<g transform="translate(21.5119, 38.4123)">
<path transform="scale(0.0040, -0.0040)" d="M218 136c55 0 108 -28 108 -89c0 -71 -55 -121 -102 -149c-35 -21 -75 -34 -116 -34c-55 0 -108 28 -108 89c0 71 55 121 102 149c35 21 75 34 116 34z" fill="currentColor"/>
</g>
<g transform="translate(34.6150, 39.4123)">
<rect x="-0.0650" y="-3.3139" width="0.1300" height="3.5134" ry="0.0400" fill="currentColor"/>
</g>
<g transform="translate(34.5500, 35.9123)">
<path transform="scale(0.0040, -0.0040)" d="M218 136c55 0 108 -28 108 -89c0 -71 -55 -121 -102 -149c-35 -21 -75 -34 -116 -34c-55 0 -108 28 -108 89c0 71 55 121 102 149c35 21 75 34 116 34z" fill="currentColor"/>
</g>
<g transform="translate(32.1440, 39.4123)">
<rect x="-0.0650" y="-2.8139" width="0.1300" height="2.8186" ry="0.0400" fill="currentColor"/>
</g>
<g transform="translate(32.0790, 36.4123)">
<path transform="scale(0.0040, -0.0040)" d="M218 136c55 0 108 -28 108 -89c0 -71 -55 -121 -102 -149c-35 -21 -75 -34 -116 -34c-55 0 -108 28 -108 89c0 71 55 121 102 149c35 21 75 34 116 34z" fill="currentColor"/>
</g>
<g transform="translate(19.6893, 39.4123)">
<rect x="-0.0650" y="-1.3139" width="0.1300" height="3.3139" ry="0.0400" fill="currentColor"/>
</g>
<g transform="translate(29.6730, 39.4123)">
<rect x="-0.0650" y="-2.3139" width="0.1300" height="2.4991" ry="0.0400" fill="currentColor"/>
</g>
<g transform="translate(29.6080, 36.9123)">
<path transform="scale(0.0040, -0.0040)" d="M218 136c55 0 108 -28 108 -89c0 -71 -55 -121 -102 -149c-35 -21 -75 -34 -116 -34c-55 0 -108 28 -108 89c0 71 55 121 102 149c35 21 75 34 116 34z" fill="currentColor"/>
</g>
<g transform="translate(25.6871, 37.4123)">
<path transform="scale(0.0040, -0.0040)" d="M0 119c0 8 5 15 13 18l46 17v158c0 10 8 19 18 19s19 -9 19 -19v-145l83 31v158c0 10 9 19 19 19s18 -9 18 -19v-145l32 12c2 1 5 1 7 1c11 0 20 -9 20 -20v-60c0 -8 -5 -16 -13 -19l-46 -16v-160l32 11c2 1 5 1 7 1c11 0 20 -9 20 -20v-60c0 -8 -5 -15 -13 -18l-46 -17
v-158c0 -10 -8 -19 -18 -19s-19 9 -19 19v145l-83 -31v-158c0 -10 -9 -19 -19 -19s-18 9 -18 19v145l-32 -12c-2 -1 -5 -1 -7 -1c-11 0 -20 9 -20 20v60c0 8 5 16 13 19l46 16v160l-32 -11c-2 -1 -5 -1 -7 -1c-11 0 -20 9 -20 20v60zM179 95l-83 -30v-160l83 30v160z" fill="currentColor"/>
</g>
<g transform="translate(11.5556, 39.4123)">
<rect x="-0.0650" y="-2.3139" width="0.1300" height="3.1239" ry="0.0400" fill="currentColor"/>
</g>
<g transform="translate(11.4906, 36.9123)">
<path transform="scale(0.0040, -0.0040)" d="M218 136c55 0 108 -28 108 -89c0 -71 -55 -121 -102 -149c-35 -21 -75 -34 -116 -34c-55 0 -108 28 -108 89c0 71 55 121 102 149c35 21 75 34 116 34z" fill="currentColor"/>
</g>
<g transform="translate(13.9615, 36.9123)">
<path transform="scale(0.0040, -0.0040)" d="M218 136c55 0 108 -28 108 -89c0 -71 -55 -121 -102 -149c-35 -21 -75 -34 -116 -34c-55 0 -108 28 -108 89c0 71 55 121 102 149c35 21 75 34 116 34z" fill="currentColor"/>
</g>
<g transform="translate(5.6906, 36.5623)">
<text font-family="serif" font-size="2.6163" text-anchor="start" fill="currentColor">
<tspan>Γ</tspan>
</text>
</g>
<g transform="translate(6.4906, 40.4123)">
<path transform="scale(0.0040, -0.0040)" d="M266 -635h-6c-108 0 -195 88 -195 197c0 58 53 103 112 103c54 0 95 -47 95 -103c0 -52 -43 -95 -95 -95c-11 0 -21 2 -31 6c26 -39 68 -65 117 -65h4zM461 -203c68 24 113 95 113 164c0 90 -66 179 -173 190c24 -116 46 -231 60 -354zM74 28c0 -135 129 -247 264 -247
c28 0 55 2 82 6c-14 127 -37 245 -63 364c-79 -8 -124 -61 -124 -119c0 -44 25 -91 81 -123c5 -5 7 -10 7 -15c0 -11 -10 -22 -22 -22c-3 0 -6 1 -9 2c-80 43 -117 115 -117 185c0 88 58 174 160 197c-14 58 -29 117 -46 175c-107 -121 -213 -243 -213 -403zM335 -262
c-188 0 -333 172 -333 374c0 177 131 306 248 441c-19 62 -37 125 -45 190c-6 52 -7 104 -7 156c0 115 55 224 149 292c6 5 14 5 20 0c71 -84 133 -245 133 -358c0 -143 -86 -255 -180 -364c21 -68 39 -138 56 -207c4 0 9 1 13 1c155 0 256 -128 256 -261
c0 -76 -33 -154 -107 -210c-22 -17 -47 -28 -73 -36c3 -35 5 -70 5 -105c0 -19 -1 -39 -2 -58c-7 -119 -88 -225 -202 -228l1 43c93 2 153 92 159 191c1 18 2 37 2 55c0 31 -1 61 -4 92c-29 -5 -58 -8 -89 -8zM428 916c0 55 -4 79 -20 129c-99 -48 -162 -149 -162 -259
c0 -74 18 -133 36 -194c80 97 146 198 146 324z" fill="currentColor"/>
</g>
<g transform="translate(19.6243, 37.9123)">
<path transform="scale(0.0040, -0.0040)" d="M218 136c55 0 108 -28 108 -89c0 -71 -55 -121 -102 -149c-35 -21 -75 -34 -116 -34c-55 0 -108 28 -108 89c0 71 55 121 102 149c35 21 75 34 116 34z" fill="currentColor"/>
</g>
<g transform="translate(17.8017, 39.4123)">
<rect x="-0.0650" y="-1.8139" width="0.1300" height="3.6302" ry="0.0400" fill="currentColor"/>
</g>
<g transform="translate(17.7367, 37.4123)">
<path transform="scale(0.0040, -0.0040)" d="M218 136c55 0 108 -28 108 -89c0 -71 -55 -121 -102 -149c-35 -21 -75 -34 -116 -34c-55 0 -108 28 -108 89c0 71 55 121 102 149c35 21 75 34 116 34z" fill="currentColor"/>
</g>
<g transform="translate(15.9141, 39.4123)">
<rect x="-0.0650" y="-2.3139" width="0.1300" height="3.1239" ry="0.0400" fill="currentColor"/>
</g>
<g transform="translate(15.8491, 36.9123)">
<path transform="scale(0.0040, -0.0040)" d="M218 136c55 0 108 -28 108 -89c0 -71 -55 -121 -102 -149c-35 -21 -75 -34 -116 -34c-55 0 -108 28 -108 89c0 71 55 121 102 149c35 21 75 34 116 34z" fill="currentColor"/>
</g>
<g transform="translate(14.0265, 39.4123)">
<rect x="-0.0650" y="-2.3139" width="0.1300" height="3.1239" ry="0.0400" fill="currentColor"/>
</g>
<g transform="translate(49.1470, 39.4123)">
<rect x="-0.0650" y="-2.3139" width="0.1300" height="3.2065" ry="0.0400" fill="currentColor"/>
</g>
<g transform="translate(49.0820, 36.9123)">
<path transform="scale(0.0040, -0.0040)" d="M218 136c55 0 108 -28 108 -89c0 -71 -55 -121 -102 -149c-35 -21 -75 -34 -116 -34c-55 0 -108 28 -108 89c0 71 55 121 102 149c35 21 75 34 116 34z" fill="currentColor"/>
</g>
<g transform="translate(46.6760, 39.4123)">
<rect x="-0.0650" y="-2.3139" width="0.1300" height="3.3111" ry="0.0400" fill="currentColor"/>
</g>
<g transform="translate(46.6110, 36.9123)">
<path transform="scale(0.0040, -0.0040)" d="M218 136c55 0 108 -28 108 -89c0 -71 -55 -121 -102 -149c-35 -21 -75 -34 -116 -34c-55 0 -108 28 -108 89c0 71 55 121 102 149c35 21 75 34 116 34z" fill="currentColor"/>
</g>
<g transform="translate(44.2050, 39.4123)">
<rect x="-0.0650" y="-1.8139" width="0.1300" height="2.9973" ry="0.0400" fill="currentColor"/>
</g>
<g transform="translate(44.1400, 37.4123)">
<path transform="scale(0.0040, -0.0040)" d="M218 136c55 0 108 -28 108 -89c0 -71 -55 -121 -102 -149c-35 -21 -75 -34 -116 -34c-55 0 -108 28 -108 89c0 71 55 121 102 149c35 21 75 34 116 34z" fill="currentColor"/>
</g>
<g transform="translate(42.5674, 39.4123)">
<rect x="-0.0650" y="-2.8139" width="0.1300" height="3.8302" ry="0.0400" fill="currentColor"/>
</g>
<g transform="translate(52.9259, 35.9123)">
<path transform="scale(0.0040, -0.0040)" d="M218 136c55 0 108 -28 108 -89c0 -71 -55 -121 -102 -149c-35 -21 -75 -34 -116 -34c-55 0 -108 28 -108 89c0 71 55 121 102 149c35 21 75 34 116 34z" fill="currentColor"/>
</g>
<g transform="translate(55.4618, 39.4123)">
<rect x="-0.0650" y="-3.8139" width="0.1300" height="3.8186" ry="0.0400" fill="currentColor"/>
</g>
<g transform="translate(55.3968, 35.4123)">
<path transform="scale(0.0040, -0.0040)" d="M218 136c55 0 108 -28 108 -89c0 -71 -55 -121 -102 -149c-35 -21 -75 -34 -116 -34c-55 0 -108 28 -108 89c0 71 55 121 102 149c35 21 75 34 116 34z" fill="currentColor"/>
</g>
<g transform="translate(52.9909, 39.4123)">
<rect x="-0.0650" y="-3.3139" width="0.1300" height="3.4991" ry="0.0400" fill="currentColor"/>
</g>
<g transform="translate(51.0345, 39.4123)">
<rect x="-0.0650" y="-2.8139" width="0.1300" height="3.6266" ry="0.0400" fill="currentColor"/>
</g>
<g transform="translate(50.9695, 36.4123)">
<path transform="scale(0.0040, -0.0040)" d="M218 136c55 0 108 -28 108 -89c0 -71 -55 -121 -102 -149c-35 -21 -75 -34 -116 -34c-55 0 -108 28 -108 89c0 71 55 121 102 149c35 21 75 34 116 34z" fill="currentColor"/>
</g>
<g transform="translate(40.5461, 36.4123)">
<path transform="scale(0.0040, -0.0040)" d="M218 136c55 0 108 -28 108 -89c0 -71 -55 -121 -102 -149c-35 -21 -75 -34 -116 -34c-55 0 -108 28 -108 89c0 71 55 121 102 149c35 21 75 34 116 34z" fill="currentColor"/>
</g>
<g transform="translate(38.7235, 39.4123)">
<rect x="-0.0650" y="-2.3139" width="0.1300" height="3.1144" ry="0.0400" fill="currentColor"/>
</g>
<g transform="translate(38.6585, 36.9123)">
<path transform="scale(0.0040, -0.0040)" d="M218 136c55 0 108 -28 108 -89c0 -71 -55 -121 -102 -149c-35 -21 -75 -34 -116 -34c-55 0 -108 28 -108 89c0 71 55 121 102 149c35 21 75 34 116 34z" fill="currentColor"/>
</g>
<g transform="translate(37.0859, 39.4123)">
<rect x="-0.0650" y="-3.3139" width="0.1300" height="3.8748" ry="0.0400" fill="currentColor"/>
</g>
<g transform="translate(37.0209, 35.9123)">
<path transform="scale(0.0040, -0.0040)" d="M218 136c55 0 108 -28 108 -89c0 -71 -55 -121 -102 -149c-35 -21 -75 -34 -116 -34c-55 0 -108 28 -108 89c0 71 55 121 102 149c35 21 75 34 116 34z" fill="currentColor"/>
</g>
<g transform="translate(40.6111, 39.4123)">
<rect x="-0.0650" y="-2.8139" width="0.1300" height="3.6305" ry="0.0400" fill="currentColor"/>
</g>
<g transform="translate(42.5024, 36.4123)">
<path transform="scale(0.0040, -0.0040)" d="M218 136c55 0 108 -28 108 -89c0 -71 -55 -121 -102 -149c-35 -21 -75 -34 -116 -34c-55 0 -108 28 -108 89c0 71 55 121 102 149c35 21 75 34 116 34z" fill="currentColor"/>
</g>
<g transform="translate(51.2377, 48.8661)">
<text font-family="serif" font-size="2.2001" text-anchor="start" fill="currentColor">
<tspan>Χ. Κόχυλας</tspan>
</text>
</g>
<g transform="translate(27.8154, 52.3941)">
<a xlink:href="https://lilypond.org/">
<rect x="0.0000" y="-0.5280" width="58.1802" height="2.2001" fill="none" stroke="none" stroke-width="0.0"/>
</a>
</g>
<g transform="translate(27.8154, 52.3941)">
<text font-family="serif" font-size="2.2001" text-anchor="start" fill="currentColor">
<tspan>Music engraving by LilyPond 2.24.4—www.lilypond.org</tspan>
</text>
</g>
</svg>
