<svg xmlns="http://www.w3.org/2000/svg" xmlns:xlink="http://www.w3.org/1999/xlink" version="1.2" width="210.00mm" height="130.00mm" viewBox="0.0000 -0.0000 119.5016 73.9772">
<style type="text/css">
<![CDATA[
tspan { white-space: pre; }
]]>
</style>
<g transform="translate(45.4960, 6.2363)">
<text font-family="serif" font-weight="bold" font-size="3.4927" text-anchor="start" fill="currentColor">
<tspan>Ένα μικρό φυντάνι</tspan>
</text>
</g>
<g transform="translate(46.6227, 9.7363)">
<text font-family="serif" font-weight="bold" font-size="2.4696" text-anchor="start" fill="currentColor">
<tspan>Προποντίδα, Νικομήδεια</tspan>
</text>
</g>
<g transform="translate(5.6906, 20.0623)">
<line stroke-linejoin="round" stroke-linecap="round" stroke-width="0.1000" stroke="currentColor" x1="0.0500" y1="0" x2="83.4013" y2="0"/>
</g>
<g transform="translate(5.6906, 19.0623)">
<line stroke-linejoin="round" stroke-linecap="round" stroke-width="0.1000" stroke="currentColor" x1="0.0500" y1="0" x2="83.4013" y2="0"/>
</g>
<g transform="translate(5.6906, 18.0623)">
<line stroke-linejoin="round" stroke-linecap="round" stroke-width="0.1000" stroke="currentColor" x1="0.0500" y1="0" x2="83.4013" y2="0"/>
</g>
<g transform="translate(5.6906, 17.0623)">
<line stroke-linejoin="round" stroke-linecap="round" stroke-width="0.1000" stroke="currentColor" x1="0.0500" y1="0" x2="83.4013" y2="0"/>
</g>
<g transform="translate(5.6906, 16.0623)">
<line stroke-linejoin="round" stroke-linecap="round" stroke-width="0.1000" stroke="currentColor" x1="0.0500" y1="0" x2="83.4013" y2="0"/>
</g>
<g transform="translate(88.5418, 18.0623)">
<rect x="0.0000" y="-2.0000" width="0.6000" height="4.0000" ry="0.0000" fill="currentColor"/>
</g>
<g transform="translate(88.0518, 18.0623)">
<rect x="0.0000" y="-2.0000" width="0.1900" height="4.0000" ry="0.0000" fill="currentColor"/>
</g>
<g transform="translate(68.7283, 18.0623)">
<rect x="0.0000" y="-2.0000" width="0.1900" height="4.0000" ry="0.0000" fill="currentColor"/>
</g>
<g transform="translate(33.2036, 18.0623)">
<rect x="0.0000" y="-2.0000" width="0.1900" height="4.0000" ry="0.0000" fill="currentColor"/>
</g>
<g transform="translate(50.4693, 18.0623)">
<rect x="0.0000" y="-2.0000" width="0.1900" height="4.0000" ry="0.0000" fill="currentColor"/>
</g>
<a style="color:inherit;" xlink:href="textedit://C:/Users/har1sf0x/Documents/GitHub/musicSchoolTampouras.github.io/sheets/ly/%ce%88%ce%bd%ce%b1_%ce%bc%ce%b9%ce%ba%cf%81%cf%8c_%cf%86%cf%85%ce%bd%cf%84%ce%ac%ce%bd%ce%b9.ly:26:47:48">
<g transform="translate(64.1079, 24.6684)">
<text font-family="serif" font-size="2.4696" text-anchor="start" fill="currentColor">
<tspan>φυ</tspan>
</text>
</g>
</a>
<a style="color:inherit;" xlink:href="textedit://C:/Users/har1sf0x/Documents/GitHub/musicSchoolTampouras.github.io/sheets/ly/%ce%88%ce%bd%ce%b1_%ce%bc%ce%b9%ce%ba%cf%81%cf%8c_%cf%86%cf%85%ce%bd%cf%84%ce%ac%ce%bd%ce%b9.ly:17:2:3">
<g transform="translate(70.8487, 15.0123)">
<path transform="scale(0.0022, -0.0022)" d="M204 223c21 13 46 23 59 45c8 14 10 46 31 46c11 0 24 -8 24 -25v-110h70c18 0 27 -14 27 -27s-9 -27 -27 -27h-70c2 -45 36 -82 80 -82c14 0 22 -10 22 -21s-8 -22 -22 -22c-49 0 -96 14 -145 14s-97 -14 -146 -14c-14 0 -21 11 -21 22s7 21 21 21c44 0 79 37 81 82
h-134c-43 0 -57 25 -57 42c0 5 1 10 3 12c73 81 123 182 123 291c0 17 11 31 25 31c2 0 4 0 6 -1c22 -6 43 -14 66 -14s45 8 67 14c3 1 6 1 9 1c15 0 26 -11 26 -21c0 -4 -1 -7 -4 -10l-264 -291h134v4c0 16 3 32 16 40z" fill="currentColor"/>
</g>
</a>
<a style="color:inherit;" xlink:href="textedit://C:/Users/har1sf0x/Documents/GitHub/musicSchoolTampouras.github.io/sheets/ly/%ce%88%ce%bd%ce%b1_%ce%bc%ce%b9%ce%ba%cf%81%cf%8c_%cf%86%cf%85%ce%bd%cf%84%ce%ac%ce%bd%ce%b9.ly:17:2:3">
<g transform="translate(70.9170, 13.3875)">
<path transform="scale(0.0022, -0.0022)" d="M155 457c-34 0 -71 -8 -71 -38c0 -19 32 -23 32 -42c0 -28 -23 -51 -51 -51s-51 23 -51 51c0 72 66 123 141 123c93 0 174 -31 174 -113c0 -36 -10 -65 -42 -80c-17 -8 -26 -25 -26 -41s9 -32 26 -40c37 -17 59 -45 59 -85c0 -94 -83 -141 -186 -141
c-84 0 -160 54 -160 133c0 32 26 58 58 58s58 -26 58 -58c0 -22 -36 -26 -36 -48c0 -33 42 -42 80 -42c41 0 56 50 56 98v21c0 44 -2 77 -43 77h-65c-18 0 -27 14 -27 27s9 27 27 27h65c42 0 43 36 43 83v11c0 43 -20 70 -61 70z" fill="currentColor"/>
</g>
</a>
<g color="rgb(50.0000%, 50.0000%, 50.0000%)">
<a style="color:inherit;" xlink:href="textedit://C:/Users/har1sf0x/Documents/GitHub/musicSchoolTampouras.github.io/sheets/ly/%ce%88%ce%bd%ce%b1_%ce%bc%ce%b9%ce%ba%cf%81%cf%8c_%cf%86%cf%85%ce%bd%cf%84%ce%ac%ce%bd%ce%b9.ly:17:2:3">
<g transform="translate(70.6575, 19.0623)">
<path transform="scale(0.0040, -0.0040)" d="M218 136c55 0 108 -28 108 -89c0 -71 -55 -121 -102 -149c-35 -21 -75 -34 -116 -34c-55 0 -108 28 -108 89c0 71 55 121 102 149c35 21 75 34 116 34z" fill="currentColor"/>
</g>
</a>
</g>
<g color="rgb(50.0000%, 50.0000%, 50.0000%)">
<a style="color:inherit;" xlink:href="textedit://C:/Users/har1sf0x/Documents/GitHub/musicSchoolTampouras.github.io/sheets/ly/%ce%88%ce%bd%ce%b1_%ce%bc%ce%b9%ce%ba%cf%81%cf%8c_%cf%86%cf%85%ce%bd%cf%84%ce%ac%ce%bd%ce%b9.ly:17:2:3">
<g transform="translate(70.6575, 17.0623)">
<path transform="scale(0.0040, -0.0040)" d="M218 136c55 0 108 -28 108 -89c0 -71 -55 -121 -102 -149c-35 -21 -75 -34 -116 -34c-55 0 -108 28 -108 89c0 71 55 121 102 149c35 21 75 34 116 34z" fill="currentColor"/>
</g>
</a>
</g>
<a style="color:inherit;" xlink:href="textedit://C:/Users/har1sf0x/Documents/GitHub/musicSchoolTampouras.github.io/sheets/ly/%ce%88%ce%bd%ce%b1_%ce%bc%ce%b9%ce%ba%cf%81%cf%8c_%cf%86%cf%85%ce%bd%cf%84%ce%ac%ce%bd%ce%b9.ly:17:2:3">
<g transform="translate(69.4183, 19.0623)">
<path transform="scale(0.0040, -0.0040)" d="M218 136c55 0 108 -28 108 -89c0 -71 -55 -121 -102 -149c-35 -21 -75 -34 -116 -34c-55 0 -108 28 -108 89c0 71 55 121 102 149c35 21 75 34 116 34z" fill="currentColor"/>
</g>
</a>
<g transform="translate(63.3374, 17.5623)">
<path transform="scale(0.0040, -0.0040)" d="M0 119c0 8 5 15 13 18l46 17v158c0 10 8 19 18 19s19 -9 19 -19v-145l83 31v158c0 10 9 19 19 19s18 -9 18 -19v-145l32 12c2 1 5 1 7 1c11 0 20 -9 20 -20v-60c0 -8 -5 -16 -13 -19l-46 -16v-160l32 11c2 1 5 1 7 1c11 0 20 -9 20 -20v-60c0 -8 -5 -15 -13 -18l-46 -17
v-158c0 -10 -8 -19 -18 -19s-19 9 -19 19v145l-83 -31v-158c0 -10 -9 -19 -19 -19s-18 9 -18 19v145l-32 -12c-2 -1 -5 -1 -7 -1c-11 0 -20 9 -20 20v60c0 8 5 16 13 19l46 16v160l-32 -11c-2 -1 -5 -1 -7 -1c-11 0 -20 9 -20 20v60zM179 95l-83 -30v-160l83 30v160z" fill="currentColor"/>
</g>
<g transform="translate(66.0266, 18.0623)">
<rect x="-0.0650" y="-3.5043" width="0.1300" height="4.8182" ry="0.0400" fill="currentColor"/>
</g>
<g color="rgb(50.0000%, 50.0000%, 50.0000%)">
<a style="color:inherit;" xlink:href="textedit://C:/Users/har1sf0x/Documents/GitHub/musicSchoolTampouras.github.io/sheets/ly/%ce%88%ce%bd%ce%b1_%ce%bc%ce%b9%ce%ba%cf%81%cf%8c_%cf%86%cf%85%ce%bd%cf%84%ce%ac%ce%bd%ce%b9.ly:17:26:27">
<g transform="translate(74.3617, 19.0623)">
<path transform="scale(0.0040, -0.0040)" d="M218 136c55 0 108 -28 108 -89c0 -71 -55 -121 -102 -149c-35 -21 -75 -34 -116 -34c-55 0 -108 28 -108 89c0 71 55 121 102 149c35 21 75 34 116 34z" fill="currentColor"/>
</g>
</a>
</g>
<g color="rgb(50.0000%, 50.0000%, 50.0000%)">
<a style="color:inherit;" xlink:href="textedit://C:/Users/har1sf0x/Documents/GitHub/musicSchoolTampouras.github.io/sheets/ly/%ce%88%ce%bd%ce%b1_%ce%bc%ce%b9%ce%ba%cf%81%cf%8c_%cf%86%cf%85%ce%bd%cf%84%ce%ac%ce%bd%ce%b9.ly:17:26:27">
<g transform="translate(74.3617, 17.0623)">
<path transform="scale(0.0040, -0.0040)" d="M218 136c55 0 108 -28 108 -89c0 -71 -55 -121 -102 -149c-35 -21 -75 -34 -116 -34c-55 0 -108 28 -108 89c0 71 55 121 102 149c35 21 75 34 116 34z" fill="currentColor"/>
</g>
</a>
</g>
<a style="color:inherit;" xlink:href="textedit://C:/Users/har1sf0x/Documents/GitHub/musicSchoolTampouras.github.io/sheets/ly/%ce%88%ce%bd%ce%b1_%ce%bc%ce%b9%ce%ba%cf%81%cf%8c_%cf%86%cf%85%ce%bd%cf%84%ce%ac%ce%bd%ce%b9.ly:17:26:27">
<g transform="translate(73.1225, 19.0623)">
<path transform="scale(0.0040, -0.0040)" d="M218 136c55 0 108 -28 108 -89c0 -71 -55 -121 -102 -149c-35 -21 -75 -34 -116 -34c-55 0 -108 28 -108 89c0 71 55 121 102 149c35 21 75 34 116 34z" fill="currentColor"/>
</g>
</a>
<a style="color:inherit;" xlink:href="textedit://C:/Users/har1sf0x/Documents/GitHub/musicSchoolTampouras.github.io/sheets/ly/%ce%88%ce%bd%ce%b1_%ce%bc%ce%b9%ce%ba%cf%81%cf%8c_%cf%86%cf%85%ce%bd%cf%84%ce%ac%ce%bd%ce%b9.ly:26:53:54">
<g transform="translate(70.6575, 24.6684)">
<text font-family="serif" font-size="2.4696" text-anchor="start" fill="currentColor">
<tspan>ντά</tspan>
</text>
</g>
</a>
<g transform="translate(70.7225, 18.0623)">
<rect x="-0.0650" y="-0.8139" width="0.1300" height="5.0039" ry="0.0400" fill="currentColor"/>
</g>
<g transform="translate(59.0070, 18.0623)">
<rect x="-0.0650" y="-2.8100" width="0.1300" height="3.1239" ry="0.0400" fill="currentColor"/>
</g>
<a style="color:inherit;" xlink:href="textedit://C:/Users/har1sf0x/Documents/GitHub/musicSchoolTampouras.github.io/sheets/ly/%ce%88%ce%bd%ce%b1_%ce%bc%ce%b9%ce%ba%cf%81%cf%8c_%cf%86%cf%85%ce%bd%cf%84%ce%ac%ce%bd%ce%b9.ly:16:41:42">
<g transform="translate(57.9931, 14.5123)">
<path transform="scale(0.0022, -0.0022)" d="M190 446c-56 0 -61 -84 -61 -155v-41v-41c0 -71 5 -155 61 -155s61 84 61 155v41v41c0 71 -5 155 -61 155zM190 500c118 0 190 -122 190 -250s-72 -250 -190 -250s-190 122 -190 250s72 250 190 250z" fill="currentColor"/>
</g>
</a>
<a style="color:inherit;" xlink:href="textedit://C:/Users/har1sf0x/Documents/GitHub/musicSchoolTampouras.github.io/sheets/ly/%ce%88%ce%bd%ce%b1_%ce%bc%ce%b9%ce%ba%cf%81%cf%8c_%cf%86%cf%85%ce%bd%cf%84%ce%ac%ce%bd%ce%b9.ly:16:40:41">
<g transform="translate(57.7678, 18.5623)">
<path transform="scale(0.0040, -0.0040)" d="M218 136c55 0 108 -28 108 -89c0 -71 -55 -121 -102 -149c-35 -21 -75 -34 -116 -34c-55 0 -108 28 -108 89c0 71 55 121 102 149c35 21 75 34 116 34z" fill="currentColor"/>
</g>
</a>
<g transform="translate(56.5028, 18.0623)">
<rect x="-0.0650" y="-2.8100" width="0.1300" height="3.1239" ry="0.0400" fill="currentColor"/>
</g>
<a style="color:inherit;" xlink:href="textedit://C:/Users/har1sf0x/Documents/GitHub/musicSchoolTampouras.github.io/sheets/ly/%ce%88%ce%bd%ce%b1_%ce%bc%ce%b9%ce%ba%cf%81%cf%8c_%cf%86%cf%85%ce%bd%cf%84%ce%ac%ce%bd%ce%b9.ly:26:35:36">
<g transform="translate(55.2635, 24.6684)">
<text font-family="serif" font-size="2.4696" text-anchor="start" fill="currentColor">
<tspan>μι</tspan>
</text>
</g>
</a>
<a style="color:inherit;" xlink:href="textedit://C:/Users/har1sf0x/Documents/GitHub/musicSchoolTampouras.github.io/sheets/ly/%ce%88%ce%bd%ce%b1_%ce%bc%ce%b9%ce%ba%cf%81%cf%8c_%cf%86%cf%85%ce%bd%cf%84%ce%ac%ce%bd%ce%b9.ly:16:27:28">
<g transform="translate(55.4889, 14.5123)">
<path transform="scale(0.0022, -0.0022)" d="M190 446c-56 0 -61 -84 -61 -155v-41v-41c0 -71 5 -155 61 -155s61 84 61 155v41v41c0 71 -5 155 -61 155zM190 500c118 0 190 -122 190 -250s-72 -250 -190 -250s-190 122 -190 250s72 250 190 250z" fill="currentColor"/>
</g>
</a>
<a style="color:inherit;" xlink:href="textedit://C:/Users/har1sf0x/Documents/GitHub/musicSchoolTampouras.github.io/sheets/ly/%ce%88%ce%bd%ce%b1_%ce%bc%ce%b9%ce%ba%cf%81%cf%8c_%cf%86%cf%85%ce%bd%cf%84%ce%ac%ce%bd%ce%b9.ly:16:24:25">
<g transform="translate(55.2635, 18.5623)">
<path transform="scale(0.0040, -0.0040)" d="M218 136c55 0 108 -28 108 -89c0 -71 -55 -121 -102 -149c-35 -21 -75 -34 -116 -34c-55 0 -108 28 -108 89c0 71 55 121 102 149c35 21 75 34 116 34z" fill="currentColor"/>
</g>
</a>
<g transform="translate(80.4486, 22.0623)">
<polygon stroke-linejoin="round" stroke-linecap="round" stroke-width="0.0800" fill="currentColor" stroke="currentColor" points="4.1900 -0.2000 4.1900 0.2000 0.0400 0.2000 0.0400 -0.2000"/>
</g>
<a style="color:inherit;" xlink:href="textedit://C:/Users/har1sf0x/Documents/GitHub/musicSchoolTampouras.github.io/sheets/ly/%ce%88%ce%bd%ce%b1_%ce%bc%ce%b9%ce%ba%cf%81%cf%8c_%cf%86%cf%85%ce%bd%cf%84%ce%ac%ce%bd%ce%b9.ly:16:76:77">
<g transform="translate(65.0298, 13.8179)">
<path transform="scale(0.0022, -0.0022)" d="M194 486c15 0 25 15 41 15c13 0 24 -13 24 -31v-341c0 -47 35 -86 81 -86c14 0 21 -10 21 -21s-7 -22 -21 -22c-49 0 -97 14 -146 14s-96 -14 -145 -14c-14 0 -22 11 -22 22s8 21 22 21c46 0 80 39 80 86v137c0 23 -16 35 -30 35c-7 0 -13 -4 -17 -11l-34 -65
c-5 -10 -14 -15 -23 -15c-14 0 -28 12 -28 27c0 4 1 8 3 13l129 250c2 4 7 6 11 6c20 0 35 -20 54 -20z" fill="currentColor"/>
</g>
</a>
<g color="rgb(50.0000%, 50.0000%, 50.0000%)">
<a style="color:inherit;" xlink:href="textedit://C:/Users/har1sf0x/Documents/GitHub/musicSchoolTampouras.github.io/sheets/ly/%ce%88%ce%bd%ce%b1_%ce%bc%ce%b9%ce%ba%cf%81%cf%8c_%cf%86%cf%85%ce%bd%cf%84%ce%ac%ce%bd%ce%b9.ly:16:76:77">
<g transform="translate(64.7874, 17.5623)">
<path transform="scale(0.0040, -0.0040)" d="M218 136c55 0 108 -28 108 -89c0 -71 -55 -121 -102 -149c-35 -21 -75 -34 -116 -34c-55 0 -108 28 -108 89c0 71 55 121 102 149c35 21 75 34 116 34z" fill="currentColor"/>
</g>
</a>
</g>
<a style="color:inherit;" xlink:href="textedit://C:/Users/har1sf0x/Documents/GitHub/musicSchoolTampouras.github.io/sheets/ly/%ce%88%ce%bd%ce%b1_%ce%bc%ce%b9%ce%ba%cf%81%cf%8c_%cf%86%cf%85%ce%bd%cf%84%ce%ac%ce%bd%ce%b9.ly:16:76:77">
<g transform="translate(64.7874, 19.5623)">
<path transform="scale(0.0040, -0.0040)" d="M218 136c55 0 108 -28 108 -89c0 -71 -55 -121 -102 -149c-35 -21 -75 -34 -116 -34c-55 0 -108 28 -108 89c0 71 55 121 102 149c35 21 75 34 116 34z" fill="currentColor"/>
</g>
</a>
<g transform="translate(61.5112, 18.0623)">
<rect x="-0.0650" y="-3.8057" width="0.1300" height="4.6196" ry="0.0400" fill="currentColor"/>
</g>
<a style="color:inherit;" xlink:href="textedit://C:/Users/har1sf0x/Documents/GitHub/musicSchoolTampouras.github.io/sheets/ly/%ce%88%ce%bd%ce%b1_%ce%bc%ce%b9%ce%ba%cf%81%cf%8c_%cf%86%cf%85%ce%bd%cf%84%ce%ac%ce%bd%ce%b9.ly:26:43:44">
<g transform="translate(59.0803, 24.6684)">
<text font-family="serif" font-size="2.4696" text-anchor="start" fill="currentColor">
<tspan>κρό</tspan>
</text>
</g>
</a>
<a style="color:inherit;" xlink:href="textedit://C:/Users/har1sf0x/Documents/GitHub/musicSchoolTampouras.github.io/sheets/ly/%ce%88%ce%bd%ce%b1_%ce%bc%ce%b9%ce%ba%cf%81%cf%8c_%cf%86%cf%85%ce%bd%cf%84%ce%ac%ce%bd%ce%b9.ly:16:52:53">
<g transform="translate(60.4631, 13.5166)">
<path transform="scale(0.0022, -0.0022)" d="M204 223c21 13 46 23 59 45c8 14 10 46 31 46c11 0 24 -8 24 -25v-110h70c18 0 27 -14 27 -27s-9 -27 -27 -27h-70c2 -45 36 -82 80 -82c14 0 22 -10 22 -21s-8 -22 -22 -22c-49 0 -96 14 -145 14s-97 -14 -146 -14c-14 0 -21 11 -21 22s7 21 21 21c44 0 79 37 81 82
h-134c-43 0 -57 25 -57 42c0 5 1 10 3 12c73 81 123 182 123 291c0 17 11 31 25 31c2 0 4 0 6 -1c22 -6 43 -14 66 -14s45 8 67 14c3 1 6 1 9 1c15 0 26 -11 26 -21c0 -4 -1 -7 -4 -10l-264 -291h134v4c0 16 3 32 16 40z" fill="currentColor"/>
</g>
</a>
<a style="color:inherit;" xlink:href="textedit://C:/Users/har1sf0x/Documents/GitHub/musicSchoolTampouras.github.io/sheets/ly/%ce%88%ce%bd%ce%b1_%ce%bc%ce%b9%ce%ba%cf%81%cf%8c_%cf%86%cf%85%ce%bd%cf%84%ce%ac%ce%bd%ce%b9.ly:16:52:53">
<g transform="translate(60.5314, 11.8918)">
<path transform="scale(0.0022, -0.0022)" d="M155 457c-34 0 -71 -8 -71 -38c0 -19 32 -23 32 -42c0 -28 -23 -51 -51 -51s-51 23 -51 51c0 72 66 123 141 123c93 0 174 -31 174 -113c0 -36 -10 -65 -42 -80c-17 -8 -26 -25 -26 -41s9 -32 26 -40c37 -17 59 -45 59 -85c0 -94 -83 -141 -186 -141
c-84 0 -160 54 -160 133c0 32 26 58 58 58s58 -26 58 -58c0 -22 -36 -26 -36 -48c0 -33 42 -42 80 -42c41 0 56 50 56 98v21c0 44 -2 77 -43 77h-65c-18 0 -27 14 -27 27s9 27 27 27h65c42 0 43 36 43 83v11c0 43 -20 70 -61 70z" fill="currentColor"/>
</g>
</a>
<g color="rgb(50.0000%, 50.0000%, 50.0000%)">
<a style="color:inherit;" xlink:href="textedit://C:/Users/har1sf0x/Documents/GitHub/musicSchoolTampouras.github.io/sheets/ly/%ce%88%ce%bd%ce%b1_%ce%bc%ce%b9%ce%ba%cf%81%cf%8c_%cf%86%cf%85%ce%bd%cf%84%ce%ac%ce%bd%ce%b9.ly:16:52:53">
<g transform="translate(61.4332, 19.0623)">
<path transform="scale(0.0040, -0.0040)" d="M218 136c55 0 108 -28 108 -89c0 -71 -55 -121 -102 -149c-35 -21 -75 -34 -116 -34c-55 0 -108 28 -108 89c0 71 55 121 102 149c35 21 75 34 116 34z" fill="currentColor"/>
</g>
</a>
</g>
<g color="rgb(50.0000%, 50.0000%, 50.0000%)">
<a style="color:inherit;" xlink:href="textedit://C:/Users/har1sf0x/Documents/GitHub/musicSchoolTampouras.github.io/sheets/ly/%ce%88%ce%bd%ce%b1_%ce%bc%ce%b9%ce%ba%cf%81%cf%8c_%cf%86%cf%85%ce%bd%cf%84%ce%ac%ce%bd%ce%b9.ly:16:52:53">
<g transform="translate(60.2720, 17.0623)">
<path transform="scale(0.0040, -0.0040)" d="M218 136c55 0 108 -28 108 -89c0 -71 -55 -121 -102 -149c-35 -21 -75 -34 -116 -34c-55 0 -108 28 -108 89c0 71 55 121 102 149c35 21 75 34 116 34z" fill="currentColor"/>
</g>
</a>
</g>
<a style="color:inherit;" xlink:href="textedit://C:/Users/har1sf0x/Documents/GitHub/musicSchoolTampouras.github.io/sheets/ly/%ce%88%ce%bd%ce%b1_%ce%bc%ce%b9%ce%ba%cf%81%cf%8c_%cf%86%cf%85%ce%bd%cf%84%ce%ac%ce%bd%ce%b9.ly:16:52:53">
<g transform="translate(60.2720, 19.0623)">
<path transform="scale(0.0040, -0.0040)" d="M218 136c55 0 108 -28 108 -89c0 -71 -55 -121 -102 -149c-35 -21 -75 -34 -116 -34c-55 0 -108 28 -108 89c0 71 55 121 102 149c35 21 75 34 116 34z" fill="currentColor"/>
</g>
</a>
<g transform="translate(84.6136, 18.0623)">
<rect x="-0.0650" y="-0.8139" width="0.1300" height="4.8139" ry="0.0400" fill="currentColor"/>
</g>
<a style="color:inherit;" xlink:href="textedit://C:/Users/har1sf0x/Documents/GitHub/musicSchoolTampouras.github.io/sheets/ly/%ce%88%ce%bd%ce%b1_%ce%bc%ce%b9%ce%ba%cf%81%cf%8c_%cf%86%cf%85%ce%bd%cf%84%ce%ac%ce%bd%ce%b9.ly:18:26:27">
<g transform="translate(84.7398, 15.0123)">
<path transform="scale(0.0022, -0.0022)" d="M204 223c21 13 46 23 59 45c8 14 10 46 31 46c11 0 24 -8 24 -25v-110h70c18 0 27 -14 27 -27s-9 -27 -27 -27h-70c2 -45 36 -82 80 -82c14 0 22 -10 22 -21s-8 -22 -22 -22c-49 0 -96 14 -145 14s-97 -14 -146 -14c-14 0 -21 11 -21 22s7 21 21 21c44 0 79 37 81 82
h-134c-43 0 -57 25 -57 42c0 5 1 10 3 12c73 81 123 182 123 291c0 17 11 31 25 31c2 0 4 0 6 -1c22 -6 43 -14 66 -14s45 8 67 14c3 1 6 1 9 1c15 0 26 -11 26 -21c0 -4 -1 -7 -4 -10l-264 -291h134v4c0 16 3 32 16 40z" fill="currentColor"/>
</g>
</a>
<a style="color:inherit;" xlink:href="textedit://C:/Users/har1sf0x/Documents/GitHub/musicSchoolTampouras.github.io/sheets/ly/%ce%88%ce%bd%ce%b1_%ce%bc%ce%b9%ce%ba%cf%81%cf%8c_%cf%86%cf%85%ce%bd%cf%84%ce%ac%ce%bd%ce%b9.ly:18:26:27">
<g transform="translate(84.8080, 13.3875)">
<path transform="scale(0.0022, -0.0022)" d="M155 457c-34 0 -71 -8 -71 -38c0 -19 32 -23 32 -42c0 -28 -23 -51 -51 -51s-51 23 -51 51c0 72 66 123 141 123c93 0 174 -31 174 -113c0 -36 -10 -65 -42 -80c-17 -8 -26 -25 -26 -41s9 -32 26 -40c37 -17 59 -45 59 -85c0 -94 -83 -141 -186 -141
c-84 0 -160 54 -160 133c0 32 26 58 58 58s58 -26 58 -58c0 -22 -36 -26 -36 -48c0 -33 42 -42 80 -42c41 0 56 50 56 98v21c0 44 -2 77 -43 77h-65c-18 0 -27 14 -27 27s9 27 27 27h65c42 0 43 36 43 83v11c0 43 -20 70 -61 70z" fill="currentColor"/>
</g>
</a>
<g color="rgb(50.0000%, 50.0000%, 50.0000%)">
<a style="color:inherit;" xlink:href="textedit://C:/Users/har1sf0x/Documents/GitHub/musicSchoolTampouras.github.io/sheets/ly/%ce%88%ce%bd%ce%b1_%ce%bc%ce%b9%ce%ba%cf%81%cf%8c_%cf%86%cf%85%ce%bd%cf%84%ce%ac%ce%bd%ce%b9.ly:18:26:27">
<g transform="translate(84.5486, 19.0623)">
<path transform="scale(0.0040, -0.0040)" d="M218 136c55 0 108 -28 108 -89c0 -71 -55 -121 -102 -149c-35 -21 -75 -34 -116 -34c-55 0 -108 28 -108 89c0 71 55 121 102 149c35 21 75 34 116 34z" fill="currentColor"/>
</g>
</a>
</g>
<g color="rgb(50.0000%, 50.0000%, 50.0000%)">
<a style="color:inherit;" xlink:href="textedit://C:/Users/har1sf0x/Documents/GitHub/musicSchoolTampouras.github.io/sheets/ly/%ce%88%ce%bd%ce%b1_%ce%bc%ce%b9%ce%ba%cf%81%cf%8c_%cf%86%cf%85%ce%bd%cf%84%ce%ac%ce%bd%ce%b9.ly:18:26:27">
<g transform="translate(84.5486, 17.0623)">
<path transform="scale(0.0040, -0.0040)" d="M218 136c55 0 108 -28 108 -89c0 -71 -55 -121 -102 -149c-35 -21 -75 -34 -116 -34c-55 0 -108 28 -108 89c0 71 55 121 102 149c35 21 75 34 116 34z" fill="currentColor"/>
</g>
</a>
</g>
<a style="color:inherit;" xlink:href="textedit://C:/Users/har1sf0x/Documents/GitHub/musicSchoolTampouras.github.io/sheets/ly/%ce%88%ce%bd%ce%b1_%ce%bc%ce%b9%ce%ba%cf%81%cf%8c_%cf%86%cf%85%ce%bd%cf%84%ce%ac%ce%bd%ce%b9.ly:18:26:27">
<g transform="translate(83.3094, 19.0623)">
<path transform="scale(0.0040, -0.0040)" d="M218 136c55 0 108 -28 108 -89c0 -71 -55 -121 -102 -149c-35 -21 -75 -34 -116 -34c-55 0 -108 28 -108 89c0 71 55 121 102 149c35 21 75 34 116 34z" fill="currentColor"/>
</g>
</a>
<g transform="translate(38.1015, 20.7523)">
<polygon stroke-linejoin="round" stroke-linecap="round" stroke-width="0.0800" fill="currentColor" stroke="currentColor" points="2.5942 -0.2000 2.5942 0.2000 0.0400 0.2000 0.0400 -0.2000"/>
</g>
<g transform="translate(34.3973, 21.5623)">
<polygon stroke-linejoin="round" stroke-linecap="round" stroke-width="0.0800" fill="currentColor" stroke="currentColor" points="6.2984 -0.2000 6.2984 0.2000 0.0400 0.2000 0.0400 -0.2000"/>
</g>
<g transform="translate(74.3617, 21.4423)">
<polygon stroke-linejoin="round" stroke-linecap="round" stroke-width="0.0800" fill="currentColor" stroke="currentColor" points="3.1334 -0.2000 3.1334 0.2000 0.0400 0.2000 0.0400 -0.2000"/>
</g>
<g transform="translate(70.6575, 22.2523)">
<polygon stroke-linejoin="round" stroke-linecap="round" stroke-width="0.0800" fill="currentColor" stroke="currentColor" points="6.8376 -0.2000 6.8376 0.2000 0.0400 0.2000 0.0400 -0.2000"/>
</g>
<a style="color:inherit;" xlink:href="textedit://C:/Users/har1sf0x/Documents/GitHub/musicSchoolTampouras.github.io/sheets/ly/%ce%88%ce%bd%ce%b1_%ce%bc%ce%b9%ce%ba%cf%81%cf%8c_%cf%86%cf%85%ce%bd%cf%84%ce%ac%ce%bd%ce%b9.ly:26:61:62">
<g transform="translate(76.6588, 24.6684)">
<rect x="0.0000" y="-0.5500" width="0.6600" height="0.1300" ry="0.0400" fill="currentColor"/>
</g>
</a>
<g transform="translate(61.4462, 14.2523)">
<polygon stroke-linejoin="round" stroke-linecap="round" stroke-width="0.0800" fill="currentColor" stroke="currentColor" points="4.6054 0.1100 4.6054 0.5100 0.0400 0.2000 0.0400 -0.2000"/>
</g>
<a style="color:inherit;" xlink:href="textedit://C:/Users/har1sf0x/Documents/GitHub/musicSchoolTampouras.github.io/sheets/ly/%ce%88%ce%bd%ce%b1_%ce%bc%ce%b9%ce%ba%cf%81%cf%8c_%cf%86%cf%85%ce%bd%cf%84%ce%ac%ce%bd%ce%b9.ly:26:50:51">
<g transform="translate(68.3843, 24.6684)">
<rect x="0.0000" y="-0.5500" width="0.6600" height="0.1300" ry="0.0400" fill="currentColor"/>
</g>
</a>
<g transform="translate(52.7335, 15.2523)">
<polygon stroke-linejoin="round" stroke-linecap="round" stroke-width="0.0800" fill="currentColor" stroke="currentColor" points="6.2984 -0.2000 6.2984 0.2000 0.0400 0.2000 0.0400 -0.2000"/>
</g>
<g transform="translate(56.4378, 16.0623)">
<polygon stroke-linejoin="round" stroke-linecap="round" stroke-width="0.0800" fill="currentColor" stroke="currentColor" points="2.5942 -0.2000 2.5942 0.2000 0.0400 0.2000 0.0400 -0.2000"/>
</g>
<a style="color:inherit;" xlink:href="textedit://C:/Users/har1sf0x/Documents/GitHub/musicSchoolTampouras.github.io/sheets/ly/%ce%88%ce%bd%ce%b1_%ce%bc%ce%b9%ce%ba%cf%81%cf%8c_%cf%86%cf%85%ce%bd%cf%84%ce%ac%ce%bd%ce%b9.ly:26:40:41">
<g transform="translate(57.8321, 24.6684)">
<rect x="0.0000" y="-0.5500" width="0.6600" height="0.1300" ry="0.0400" fill="currentColor"/>
</g>
</a>
<g transform="translate(44.2841, 15.2523)">
<polygon stroke-linejoin="round" stroke-linecap="round" stroke-width="0.0800" fill="currentColor" stroke="currentColor" points="3.5442 0.4200 3.5442 0.8200 0.0400 0.2000 0.0400 -0.2000"/>
</g>
<a style="color:inherit;" xlink:href="textedit://C:/Users/har1sf0x/Documents/GitHub/musicSchoolTampouras.github.io/sheets/ly/%ce%88%ce%bd%ce%b1_%ce%bc%ce%b9%ce%ba%cf%81%cf%8c_%cf%86%cf%85%ce%bd%cf%84%ce%ac%ce%bd%ce%b9.ly:26:29:30">
<g transform="translate(49.0339, 24.6684)">
<rect x="0.0000" y="-0.5500" width="0.6600" height="0.1300" ry="0.0400" fill="currentColor"/>
</g>
</a>
<g transform="translate(25.9962, 20.2523)">
<polygon stroke-linejoin="round" stroke-linecap="round" stroke-width="0.0800" fill="currentColor" stroke="currentColor" points="3.7942 -0.3900 3.7942 0.0100 0.0400 0.2000 0.0400 -0.2000"/>
</g>
<a style="color:inherit;" xlink:href="textedit://C:/Users/har1sf0x/Documents/GitHub/musicSchoolTampouras.github.io/sheets/ly/%ce%88%ce%bd%ce%b1_%ce%bc%ce%b9%ce%ba%cf%81%cf%8c_%cf%86%cf%85%ce%bd%cf%84%ce%ac%ce%bd%ce%b9.ly:26:14:15">
<g transform="translate(31.3549, 24.6684)">
<rect x="0.0000" y="-0.5500" width="0.6600" height="0.1300" ry="0.0400" fill="currentColor"/>
</g>
<g transform="translate(21.3549, 24.6684)">
<rect x="0.0000" y="-0.5500" width="0.6600" height="0.1300" ry="0.0400" fill="currentColor"/>
</g>
</a>
<g transform="translate(18.4395, 14.8723)">
<polygon stroke-linejoin="round" stroke-linecap="round" stroke-width="0.0800" fill="currentColor" stroke="currentColor" points="6.2984 -0.5100 6.2984 -0.1100 0.0400 0.2000 0.0400 -0.2000"/>
</g>
<g transform="translate(22.1437, 15.5011)">
<polygon stroke-linejoin="round" stroke-linecap="round" stroke-width="0.0800" fill="currentColor" stroke="currentColor" points="2.5942 -0.3288 2.5942 0.0712 0.0400 0.2000 0.0400 -0.2000"/>
</g>
<g transform="translate(77.4702, 18.0623)">
<rect x="-0.0650" y="-0.8139" width="0.1300" height="5.0039" ry="0.0400" fill="currentColor"/>
</g>
<a style="color:inherit;" xlink:href="textedit://C:/Users/har1sf0x/Documents/GitHub/musicSchoolTampouras.github.io/sheets/ly/%ce%88%ce%bd%ce%b1_%ce%bc%ce%b9%ce%ba%cf%81%cf%8c_%cf%86%cf%85%ce%bd%cf%84%ce%ac%ce%bd%ce%b9.ly:17:51:52">
<g transform="translate(77.5963, 15.0123)">
<path transform="scale(0.0022, -0.0022)" d="M204 223c21 13 46 23 59 45c8 14 10 46 31 46c11 0 24 -8 24 -25v-110h70c18 0 27 -14 27 -27s-9 -27 -27 -27h-70c2 -45 36 -82 80 -82c14 0 22 -10 22 -21s-8 -22 -22 -22c-49 0 -96 14 -145 14s-97 -14 -146 -14c-14 0 -21 11 -21 22s7 21 21 21c44 0 79 37 81 82
h-134c-43 0 -57 25 -57 42c0 5 1 10 3 12c73 81 123 182 123 291c0 17 11 31 25 31c2 0 4 0 6 -1c22 -6 43 -14 66 -14s45 8 67 14c3 1 6 1 9 1c15 0 26 -11 26 -21c0 -4 -1 -7 -4 -10l-264 -291h134v4c0 16 3 32 16 40z" fill="currentColor"/>
</g>
</a>
<a style="color:inherit;" xlink:href="textedit://C:/Users/har1sf0x/Documents/GitHub/musicSchoolTampouras.github.io/sheets/ly/%ce%88%ce%bd%ce%b1_%ce%bc%ce%b9%ce%ba%cf%81%cf%8c_%cf%86%cf%85%ce%bd%cf%84%ce%ac%ce%bd%ce%b9.ly:17:51:52">
<g transform="translate(77.6646, 13.3875)">
<path transform="scale(0.0022, -0.0022)" d="M155 457c-34 0 -71 -8 -71 -38c0 -19 32 -23 32 -42c0 -28 -23 -51 -51 -51s-51 23 -51 51c0 72 66 123 141 123c93 0 174 -31 174 -113c0 -36 -10 -65 -42 -80c-17 -8 -26 -25 -26 -41s9 -32 26 -40c37 -17 59 -45 59 -85c0 -94 -83 -141 -186 -141
c-84 0 -160 54 -160 133c0 32 26 58 58 58s58 -26 58 -58c0 -22 -36 -26 -36 -48c0 -33 42 -42 80 -42c41 0 56 50 56 98v21c0 44 -2 77 -43 77h-65c-18 0 -27 14 -27 27s9 27 27 27h65c42 0 43 36 43 83v11c0 43 -20 70 -61 70z" fill="currentColor"/>
</g>
</a>
<g color="rgb(50.0000%, 50.0000%, 50.0000%)">
<a style="color:inherit;" xlink:href="textedit://C:/Users/har1sf0x/Documents/GitHub/musicSchoolTampouras.github.io/sheets/ly/%ce%88%ce%bd%ce%b1_%ce%bc%ce%b9%ce%ba%cf%81%cf%8c_%cf%86%cf%85%ce%bd%cf%84%ce%ac%ce%bd%ce%b9.ly:17:51:52">
<g transform="translate(77.4052, 19.0623)">
<path transform="scale(0.0040, -0.0040)" d="M218 136c55 0 108 -28 108 -89c0 -71 -55 -121 -102 -149c-35 -21 -75 -34 -116 -34c-55 0 -108 28 -108 89c0 71 55 121 102 149c35 21 75 34 116 34z" fill="currentColor"/>
</g>
</a>
</g>
<g color="rgb(50.0000%, 50.0000%, 50.0000%)">
<a style="color:inherit;" xlink:href="textedit://C:/Users/har1sf0x/Documents/GitHub/musicSchoolTampouras.github.io/sheets/ly/%ce%88%ce%bd%ce%b1_%ce%bc%ce%b9%ce%ba%cf%81%cf%8c_%cf%86%cf%85%ce%bd%cf%84%ce%ac%ce%bd%ce%b9.ly:17:51:52">
<g transform="translate(77.4052, 17.0623)">
<path transform="scale(0.0040, -0.0040)" d="M218 136c55 0 108 -28 108 -89c0 -71 -55 -121 -102 -149c-35 -21 -75 -34 -116 -34c-55 0 -108 28 -108 89c0 71 55 121 102 149c35 21 75 34 116 34z" fill="currentColor"/>
</g>
</a>
</g>
<a style="color:inherit;" xlink:href="textedit://C:/Users/har1sf0x/Documents/GitHub/musicSchoolTampouras.github.io/sheets/ly/%ce%88%ce%bd%ce%b1_%ce%bc%ce%b9%ce%ba%cf%81%cf%8c_%cf%86%cf%85%ce%bd%cf%84%ce%ac%ce%bd%ce%b9.ly:17:51:52">
<g transform="translate(76.1660, 19.0623)">
<path transform="scale(0.0040, -0.0040)" d="M218 136c55 0 108 -28 108 -89c0 -71 -55 -121 -102 -149c-35 -21 -75 -34 -116 -34c-55 0 -108 28 -108 89c0 71 55 121 102 149c35 21 75 34 116 34z" fill="currentColor"/>
</g>
</a>
<g transform="translate(74.4267, 18.0623)">
<rect x="-0.0650" y="-0.8139" width="0.1300" height="5.0039" ry="0.0400" fill="currentColor"/>
</g>
<a style="color:inherit;" xlink:href="textedit://C:/Users/har1sf0x/Documents/GitHub/musicSchoolTampouras.github.io/sheets/ly/%ce%88%ce%bd%ce%b1_%ce%bc%ce%b9%ce%ba%cf%81%cf%8c_%cf%86%cf%85%ce%bd%cf%84%ce%ac%ce%bd%ce%b9.ly:17:26:27">
<g transform="translate(74.5529, 15.0123)">
<path transform="scale(0.0022, -0.0022)" d="M204 223c21 13 46 23 59 45c8 14 10 46 31 46c11 0 24 -8 24 -25v-110h70c18 0 27 -14 27 -27s-9 -27 -27 -27h-70c2 -45 36 -82 80 -82c14 0 22 -10 22 -21s-8 -22 -22 -22c-49 0 -96 14 -145 14s-97 -14 -146 -14c-14 0 -21 11 -21 22s7 21 21 21c44 0 79 37 81 82
h-134c-43 0 -57 25 -57 42c0 5 1 10 3 12c73 81 123 182 123 291c0 17 11 31 25 31c2 0 4 0 6 -1c22 -6 43 -14 66 -14s45 8 67 14c3 1 6 1 9 1c15 0 26 -11 26 -21c0 -4 -1 -7 -4 -10l-264 -291h134v4c0 16 3 32 16 40z" fill="currentColor"/>
</g>
</a>
<a style="color:inherit;" xlink:href="textedit://C:/Users/har1sf0x/Documents/GitHub/musicSchoolTampouras.github.io/sheets/ly/%ce%88%ce%bd%ce%b1_%ce%bc%ce%b9%ce%ba%cf%81%cf%8c_%cf%86%cf%85%ce%bd%cf%84%ce%ac%ce%bd%ce%b9.ly:18:2:3">
<g transform="translate(80.6398, 15.0123)">
<path transform="scale(0.0022, -0.0022)" d="M204 223c21 13 46 23 59 45c8 14 10 46 31 46c11 0 24 -8 24 -25v-110h70c18 0 27 -14 27 -27s-9 -27 -27 -27h-70c2 -45 36 -82 80 -82c14 0 22 -10 22 -21s-8 -22 -22 -22c-49 0 -96 14 -145 14s-97 -14 -146 -14c-14 0 -21 11 -21 22s7 21 21 21c44 0 79 37 81 82
h-134c-43 0 -57 25 -57 42c0 5 1 10 3 12c73 81 123 182 123 291c0 17 11 31 25 31c2 0 4 0 6 -1c22 -6 43 -14 66 -14s45 8 67 14c3 1 6 1 9 1c15 0 26 -11 26 -21c0 -4 -1 -7 -4 -10l-264 -291h134v4c0 16 3 32 16 40z" fill="currentColor"/>
</g>
</a>
<g transform="translate(80.5136, 18.0623)">
<rect x="-0.0650" y="-0.8139" width="0.1300" height="4.8139" ry="0.0400" fill="currentColor"/>
</g>
<a style="color:inherit;" xlink:href="textedit://C:/Users/har1sf0x/Documents/GitHub/musicSchoolTampouras.github.io/sheets/ly/%ce%88%ce%bd%ce%b1_%ce%bc%ce%b9%ce%ba%cf%81%cf%8c_%cf%86%cf%85%ce%bd%cf%84%ce%ac%ce%bd%ce%b9.ly:26:64:65">
<g transform="translate(79.9057, 24.6684)">
<text font-family="serif" font-size="2.4696" text-anchor="start" fill="currentColor">
<tspan>νι,</tspan>
</text>
</g>
</a>
<a style="color:inherit;" xlink:href="textedit://C:/Users/har1sf0x/Documents/GitHub/musicSchoolTampouras.github.io/sheets/ly/%ce%88%ce%bd%ce%b1_%ce%bc%ce%b9%ce%ba%cf%81%cf%8c_%cf%86%cf%85%ce%bd%cf%84%ce%ac%ce%bd%ce%b9.ly:17:26:27">
<g transform="translate(74.6212, 13.3875)">
<path transform="scale(0.0022, -0.0022)" d="M155 457c-34 0 -71 -8 -71 -38c0 -19 32 -23 32 -42c0 -28 -23 -51 -51 -51s-51 23 -51 51c0 72 66 123 141 123c93 0 174 -31 174 -113c0 -36 -10 -65 -42 -80c-17 -8 -26 -25 -26 -41s9 -32 26 -40c37 -17 59 -45 59 -85c0 -94 -83 -141 -186 -141
c-84 0 -160 54 -160 133c0 32 26 58 58 58s58 -26 58 -58c0 -22 -36 -26 -36 -48c0 -33 42 -42 80 -42c41 0 56 50 56 98v21c0 44 -2 77 -43 77h-65c-18 0 -27 14 -27 27s9 27 27 27h65c42 0 43 36 43 83v11c0 43 -20 70 -61 70z" fill="currentColor"/>
</g>
</a>
<a style="color:inherit;" xlink:href="textedit://C:/Users/har1sf0x/Documents/GitHub/musicSchoolTampouras.github.io/sheets/ly/%ce%88%ce%bd%ce%b1_%ce%bc%ce%b9%ce%ba%cf%81%cf%8c_%cf%86%cf%85%ce%bd%cf%84%ce%ac%ce%bd%ce%b9.ly:18:2:3">
<g transform="translate(80.7080, 13.3875)">
<path transform="scale(0.0022, -0.0022)" d="M155 457c-34 0 -71 -8 -71 -38c0 -19 32 -23 32 -42c0 -28 -23 -51 -51 -51s-51 23 -51 51c0 72 66 123 141 123c93 0 174 -31 174 -113c0 -36 -10 -65 -42 -80c-17 -8 -26 -25 -26 -41s9 -32 26 -40c37 -17 59 -45 59 -85c0 -94 -83 -141 -186 -141
c-84 0 -160 54 -160 133c0 32 26 58 58 58s58 -26 58 -58c0 -22 -36 -26 -36 -48c0 -33 42 -42 80 -42c41 0 56 50 56 98v21c0 44 -2 77 -43 77h-65c-18 0 -27 14 -27 27s9 27 27 27h65c42 0 43 36 43 83v11c0 43 -20 70 -61 70z" fill="currentColor"/>
</g>
</a>
<g color="rgb(50.0000%, 50.0000%, 50.0000%)">
<a style="color:inherit;" xlink:href="textedit://C:/Users/har1sf0x/Documents/GitHub/musicSchoolTampouras.github.io/sheets/ly/%ce%88%ce%bd%ce%b1_%ce%bc%ce%b9%ce%ba%cf%81%cf%8c_%cf%86%cf%85%ce%bd%cf%84%ce%ac%ce%bd%ce%b9.ly:18:2:3">
<g transform="translate(80.4486, 19.0623)">
<path transform="scale(0.0040, -0.0040)" d="M218 136c55 0 108 -28 108 -89c0 -71 -55 -121 -102 -149c-35 -21 -75 -34 -116 -34c-55 0 -108 28 -108 89c0 71 55 121 102 149c35 21 75 34 116 34z" fill="currentColor"/>
</g>
</a>
</g>
<g color="rgb(50.0000%, 50.0000%, 50.0000%)">
<a style="color:inherit;" xlink:href="textedit://C:/Users/har1sf0x/Documents/GitHub/musicSchoolTampouras.github.io/sheets/ly/%ce%88%ce%bd%ce%b1_%ce%bc%ce%b9%ce%ba%cf%81%cf%8c_%cf%86%cf%85%ce%bd%cf%84%ce%ac%ce%bd%ce%b9.ly:18:2:3">
<g transform="translate(80.4486, 17.0623)">
<path transform="scale(0.0040, -0.0040)" d="M218 136c55 0 108 -28 108 -89c0 -71 -55 -121 -102 -149c-35 -21 -75 -34 -116 -34c-55 0 -108 28 -108 89c0 71 55 121 102 149c35 21 75 34 116 34z" fill="currentColor"/>
</g>
</a>
</g>
<a style="color:inherit;" xlink:href="textedit://C:/Users/har1sf0x/Documents/GitHub/musicSchoolTampouras.github.io/sheets/ly/%ce%88%ce%bd%ce%b1_%ce%bc%ce%b9%ce%ba%cf%81%cf%8c_%cf%86%cf%85%ce%bd%cf%84%ce%ac%ce%bd%ce%b9.ly:18:2:3">
<g transform="translate(79.2094, 19.0623)">
<path transform="scale(0.0040, -0.0040)" d="M218 136c55 0 108 -28 108 -89c0 -71 -55 -121 -102 -149c-35 -21 -75 -34 -116 -34c-55 0 -108 28 -108 89c0 71 55 121 102 149c35 21 75 34 116 34z" fill="currentColor"/>
</g>
</a>
<a style="color:inherit;" xlink:href="textedit://C:/Users/har1sf0x/Documents/GitHub/musicSchoolTampouras.github.io/sheets/ly/%ce%88%ce%bd%ce%b1_%ce%bc%ce%b9%ce%ba%cf%81%cf%8c_%cf%86%cf%85%ce%bd%cf%84%ce%ac%ce%bd%ce%b9.ly:14:56:57">
<g transform="translate(25.9962, 17.5623)">
<path transform="scale(0.0040, -0.0040)" d="M218 136c55 0 108 -28 108 -89c0 -71 -55 -121 -102 -149c-35 -21 -75 -34 -116 -34c-55 0 -108 28 -108 89c0 71 55 121 102 149c35 21 75 34 116 34z" fill="currentColor"/>
</g>
</a>
<a style="color:inherit;" xlink:href="textedit://C:/Users/har1sf0x/Documents/GitHub/musicSchoolTampouras.github.io/sheets/ly/%ce%88%ce%bd%ce%b1_%ce%bc%ce%b9%ce%ba%cf%81%cf%8c_%cf%86%cf%85%ce%bd%cf%84%ce%ac%ce%bd%ce%b9.ly:14:71:72">
<g transform="translate(29.7004, 17.0623)">
<path transform="scale(0.0040, -0.0040)" d="M218 136c55 0 108 -28 108 -89c0 -71 -55 -121 -102 -149c-35 -21 -75 -34 -116 -34c-55 0 -108 28 -108 89c0 71 55 121 102 149c35 21 75 34 116 34z" fill="currentColor"/>
</g>
</a>
<g transform="translate(26.0612, 18.0623)">
<rect x="-0.0650" y="-0.3139" width="0.1300" height="2.5007" ry="0.0400" fill="currentColor"/>
</g>
<a style="color:inherit;" xlink:href="textedit://C:/Users/har1sf0x/Documents/GitHub/musicSchoolTampouras.github.io/sheets/ly/%ce%88%ce%bd%ce%b1_%ce%bc%ce%b9%ce%ba%cf%81%cf%8c_%cf%86%cf%85%ce%bd%cf%84%ce%ac%ce%bd%ce%b9.ly:14:58:59">
<g transform="translate(26.2386, 15.0123)">
<path transform="scale(0.0022, -0.0022)" d="M194 486c15 0 25 15 41 15c13 0 24 -13 24 -31v-341c0 -47 35 -86 81 -86c14 0 21 -10 21 -21s-7 -22 -21 -22c-49 0 -97 14 -146 14s-96 -14 -145 -14c-14 0 -22 11 -22 22s8 21 22 21c46 0 80 39 80 86v137c0 23 -16 35 -30 35c-7 0 -13 -4 -17 -11l-34 -65
c-5 -10 -14 -15 -23 -15c-14 0 -28 12 -28 27c0 4 1 8 3 13l129 250c2 4 7 6 11 6c20 0 35 -20 54 -20z" fill="currentColor"/>
</g>
</a>
<a style="color:inherit;" xlink:href="textedit://C:/Users/har1sf0x/Documents/GitHub/musicSchoolTampouras.github.io/sheets/ly/%ce%88%ce%bd%ce%b1_%ce%bc%ce%b9%ce%ba%cf%81%cf%8c_%cf%86%cf%85%ce%bd%cf%84%ce%ac%ce%bd%ce%b9.ly:14:73:74">
<g transform="translate(29.9599, 15.0123)">
<path transform="scale(0.0022, -0.0022)" d="M155 457c-34 0 -71 -8 -71 -38c0 -19 32 -23 32 -42c0 -28 -23 -51 -51 -51s-51 23 -51 51c0 72 66 123 141 123c93 0 174 -31 174 -113c0 -36 -10 -65 -42 -80c-17 -8 -26 -25 -26 -41s9 -32 26 -40c37 -17 59 -45 59 -85c0 -94 -83 -141 -186 -141
c-84 0 -160 54 -160 133c0 32 26 58 58 58s58 -26 58 -58c0 -22 -36 -26 -36 -48c0 -33 42 -42 80 -42c41 0 56 50 56 98v21c0 44 -2 77 -43 77h-65c-18 0 -27 14 -27 27s9 27 27 27h65c42 0 43 36 43 83v11c0 43 -20 70 -61 70z" fill="currentColor"/>
</g>
</a>
<g transform="translate(24.7129, 18.0623)">
<rect x="-0.0650" y="-3.4968" width="0.1300" height="3.3107" ry="0.0400" fill="currentColor"/>
</g>
<a style="color:inherit;" xlink:href="textedit://C:/Users/har1sf0x/Documents/GitHub/musicSchoolTampouras.github.io/sheets/ly/%ce%88%ce%bd%ce%b1_%ce%bc%ce%b9%ce%ba%cf%81%cf%8c_%cf%86%cf%85%ce%bd%cf%84%ce%ac%ce%bd%ce%b9.ly:14:45:46">
<g transform="translate(23.7161, 13.8255)">
<path transform="scale(0.0022, -0.0022)" d="M194 486c15 0 25 15 41 15c13 0 24 -13 24 -31v-341c0 -47 35 -86 81 -86c14 0 21 -10 21 -21s-7 -22 -21 -22c-49 0 -97 14 -146 14s-96 -14 -145 -14c-14 0 -22 11 -22 22s8 21 22 21c46 0 80 39 80 86v137c0 23 -16 35 -30 35c-7 0 -13 -4 -17 -11l-34 -65
c-5 -10 -14 -15 -23 -15c-14 0 -28 12 -28 27c0 4 1 8 3 13l129 250c2 4 7 6 11 6c20 0 35 -20 54 -20z" fill="currentColor"/>
</g>
</a>
<a style="color:inherit;" xlink:href="textedit://C:/Users/har1sf0x/Documents/GitHub/musicSchoolTampouras.github.io/sheets/ly/%ce%88%ce%bd%ce%b1_%ce%bc%ce%b9%ce%ba%cf%81%cf%8c_%cf%86%cf%85%ce%bd%cf%84%ce%ac%ce%bd%ce%b9.ly:15:6:7">
<g transform="translate(34.6397, 15.0123)">
<path transform="scale(0.0022, -0.0022)" d="M194 486c15 0 25 15 41 15c13 0 24 -13 24 -31v-341c0 -47 35 -86 81 -86c14 0 21 -10 21 -21s-7 -22 -21 -22c-49 0 -97 14 -146 14s-96 -14 -145 -14c-14 0 -22 11 -22 22s8 21 22 21c46 0 80 39 80 86v137c0 23 -16 35 -30 35c-7 0 -13 -4 -17 -11l-34 -65
c-5 -10 -14 -15 -23 -15c-14 0 -28 12 -28 27c0 4 1 8 3 13l129 250c2 4 7 6 11 6c20 0 35 -20 54 -20z" fill="currentColor"/>
</g>
</a>
<g transform="translate(34.4623, 18.0623)">
<rect x="-0.0650" y="0.1861" width="0.1300" height="3.3139" ry="0.0400" fill="currentColor"/>
</g>
<a style="color:inherit;" xlink:href="textedit://C:/Users/har1sf0x/Documents/GitHub/musicSchoolTampouras.github.io/sheets/ly/%ce%88%ce%bd%ce%b1_%ce%bc%ce%b9%ce%ba%cf%81%cf%8c_%cf%86%cf%85%ce%bd%cf%84%ce%ac%ce%bd%ce%b9.ly:26:17:18">
<g transform="translate(34.3973, 24.6684)">
<text font-family="serif" font-size="2.4696" text-anchor="start" fill="currentColor">
<tspan>να,</tspan>
</text>
</g>
</a>
<a style="color:inherit;" xlink:href="textedit://C:/Users/har1sf0x/Documents/GitHub/musicSchoolTampouras.github.io/sheets/ly/%ce%88%ce%bd%ce%b1_%ce%bc%ce%b9%ce%ba%cf%81%cf%8c_%cf%86%cf%85%ce%bd%cf%84%ce%ac%ce%bd%ce%b9.ly:14:42:43">
<g transform="translate(23.4737, 18.0623)">
<path transform="scale(0.0040, -0.0040)" d="M218 136c55 0 108 -28 108 -89c0 -71 -55 -121 -102 -149c-35 -21 -75 -34 -116 -34c-55 0 -108 28 -108 89c0 71 55 121 102 149c35 21 75 34 116 34z" fill="currentColor"/>
</g>
</a>
<a style="color:inherit;" xlink:href="textedit://C:/Users/har1sf0x/Documents/GitHub/musicSchoolTampouras.github.io/sheets/ly/%ce%88%ce%bd%ce%b1_%ce%bc%ce%b9%ce%ba%cf%81%cf%8c_%cf%86%cf%85%ce%bd%cf%84%ce%ac%ce%bd%ce%b9.ly:15:2:3">
<g transform="translate(34.3973, 18.0623)">
<path transform="scale(0.0040, -0.0040)" d="M218 136c55 0 108 -28 108 -89c0 -71 -55 -121 -102 -149c-35 -21 -75 -34 -116 -34c-55 0 -108 28 -108 89c0 71 55 121 102 149c35 21 75 34 116 34z" fill="currentColor"/>
</g>
</a>
<g transform="translate(29.7654, 18.0623)">
<rect x="-0.0650" y="-0.8139" width="0.1300" height="2.8171" ry="0.0400" fill="currentColor"/>
</g>
<a style="color:inherit;" xlink:href="textedit://C:/Users/har1sf0x/Documents/GitHub/musicSchoolTampouras.github.io/sheets/ly/%ce%88%ce%bd%ce%b1_%ce%bc%ce%b9%ce%ba%cf%81%cf%8c_%cf%86%cf%85%ce%bd%cf%84%ce%ac%ce%bd%ce%b9.ly:14:2:3">
<g transform="translate(17.5248, 14.1291)">
<path transform="scale(0.0022, -0.0022)" d="M64 500c42 -7 84 -14 127 -14s85 7 127 14c2 0 5 1 7 1c17 0 28 -12 28 -22c0 -4 -1 -6 -4 -9c-61 -61 -145 -91 -231 -91c-17 0 -30 -14 -30 -31v-41c25 25 62 25 97 25h5c115 0 181 -55 181 -166c0 -99 -96 -166 -202 -166c-88 0 -169 52 -169 133c0 32 26 58 58 58
s58 -26 58 -58c0 -22 -36 -26 -36 -48c0 -36 47 -42 89 -42c52 0 73 63 73 123c0 53 -6 112 -52 112c-41 0 -84 -1 -107 -33c-6 -8 -14 -11 -22 -11c-14 0 -27 10 -27 27v209c0 17 11 30 26 30h4z" fill="currentColor"/>
</g>
</a>
<g transform="translate(18.5045, 18.0623)">
<rect x="-0.0650" y="-3.1932" width="0.1300" height="5.5071" ry="0.0400" fill="currentColor"/>
</g>
<g transform="translate(14.6264, 24.6684)">
<text font-family="serif" font-weight="bold" font-size="2.2001" text-anchor="start" fill="currentColor">
<tspan>1.</tspan>
</text>
</g>
<a style="color:inherit;" xlink:href="textedit://C:/Users/har1sf0x/Documents/GitHub/musicSchoolTampouras.github.io/sheets/ly/%ce%88%ce%bd%ce%b1_%ce%bc%ce%b9%ce%ba%cf%81%cf%8c_%cf%86%cf%85%ce%bd%cf%84%ce%ac%ce%bd%ce%b9.ly:26:4:5">
<g transform="translate(17.2653, 24.6684)">
<text font-family="serif" font-size="2.4696" text-anchor="start" fill="currentColor">
<tspan>Έ</tspan>
</text>
</g>
</a>
<a style="color:inherit;" xlink:href="textedit://C:/Users/har1sf0x/Documents/GitHub/musicSchoolTampouras.github.io/sheets/ly/%ce%88%ce%bd%ce%b1_%ce%bc%ce%b9%ce%ba%cf%81%cf%8c_%cf%86%cf%85%ce%bd%cf%84%ce%ac%ce%bd%ce%b9.ly:13:2:3">
<g transform="translate(13.7289, 18.0623)">
<path transform="scale(0.0040, -0.0040)" d="M102 135c9 2 18 3 27 3c33 0 70 -11 105 -36c21 -15 46 -23 66 -23c21 0 39 9 44 29c2 6 6 9 11 9c6 0 12 -5 12 -12c0 -67 -90 -105 -138 -105c-36 0 -71 14 -96 44c-13 16 -31 22 -48 22c-30 0 -59 -20 -62 -55c-1 -7 -6 -11 -11 -11c-6 0 -12 4 -12 11
c0 174 232 166 232 344c0 59 -16 122 -67 122c-25 0 -49 -14 -49 -37c0 -27 35 -41 35 -68c0 -38 -31 -69 -69 -69s-69 31 -69 69c0 76 72 128 152 128c95 0 183 -57 183 -145c0 -151 -150 -159 -246 -220z" fill="currentColor"/>
</g>
<g transform="translate(13.6606, 20.0783)">
<path transform="scale(0.0040, -0.0040)" d="M196 117h117c0 -48 27 -94 72 -94c8 0 12 -5 12 -11s-4 -12 -12 -12c-44 0 -87 13 -131 13s-87 -13 -131 -13c-8 0 -12 6 -12 12s4 11 12 11c45 0 73 46 73 94zM204 307c22 14 44 29 60 50c11 15 19 33 27 50c2 4 5 6 9 6c6 0 13 -5 13 -14v-245h72c10 0 15 -7 15 -14
s-5 -15 -15 -15h-72v-8h-117v8h-167c-23 0 -31 14 -31 23c0 3 1 5 2 6c80 93 138 207 138 330c0 10 7 19 16 16c23 -7 47 -13 71 -13s48 6 71 13c14 4 23 -9 17 -16l-284 -330h167v131c0 8 1 17 8 22z" fill="currentColor"/>
</g>
</a>
<g transform="translate(10.1106, 18.0623)">
<path transform="scale(0.0040, -0.0040)" d="M143 41c-1 33 -22 63 -53 63c-29 0 -43 -34 -43 -67c0 -59 48 -101 93 -139c3 22 4 44 4 66v11zM185 -138c0 -14 -10 -25 -23 -25c-21 0 -30 25 -45 38c-61 52 -147 89 -147 169c0 54 37 102 89 102c33 0 66 -13 91 -34l-7 345c8 5 18 8 27 8s19 -3 27 -8z" fill="currentColor"/>
</g>
<g transform="translate(11.4106, 16.0623)">
<path transform="scale(0.0040, -0.0040)" d="M0 119c0 8 5 15 13 18l46 17v158c0 10 8 19 18 19s19 -9 19 -19v-145l83 31v158c0 10 9 19 19 19s18 -9 18 -19v-145l32 12c2 1 5 1 7 1c11 0 20 -9 20 -20v-60c0 -8 -5 -16 -13 -19l-46 -16v-160l32 11c2 1 5 1 7 1c11 0 20 -9 20 -20v-60c0 -8 -5 -15 -13 -18l-46 -17
v-158c0 -10 -8 -19 -18 -19s-19 9 -19 19v145l-83 -31v-158c0 -10 -9 -19 -19 -19s-18 9 -18 19v145l-32 -12c-2 -1 -5 -1 -7 -1c-11 0 -20 9 -20 20v60c0 8 5 16 13 19l46 16v160l-32 -11c-2 -1 -5 -1 -7 -1c-11 0 -20 9 -20 20v60zM179 95l-83 -30v-160l83 30v160z" fill="currentColor"/>
</g>
<g transform="translate(6.4906, 19.0623)">
<path transform="scale(0.0040, -0.0040)" d="M266 -635h-6c-108 0 -195 88 -195 197c0 58 53 103 112 103c54 0 95 -47 95 -103c0 -52 -43 -95 -95 -95c-11 0 -21 2 -31 6c26 -39 68 -65 117 -65h4zM461 -203c68 24 113 95 113 164c0 90 -66 179 -173 190c24 -116 46 -231 60 -354zM74 28c0 -135 129 -247 264 -247
c28 0 55 2 82 6c-14 127 -37 245 -63 364c-79 -8 -124 -61 -124 -119c0 -44 25 -91 81 -123c5 -5 7 -10 7 -15c0 -11 -10 -22 -22 -22c-3 0 -6 1 -9 2c-80 43 -117 115 -117 185c0 88 58 174 160 197c-14 58 -29 117 -46 175c-107 -121 -213 -243 -213 -403zM335 -262
c-188 0 -333 172 -333 374c0 177 131 306 248 441c-19 62 -37 125 -45 190c-6 52 -7 104 -7 156c0 115 55 224 149 292c6 5 14 5 20 0c71 -84 133 -245 133 -358c0 -143 -86 -255 -180 -364c21 -68 39 -138 56 -207c4 0 9 1 13 1c155 0 256 -128 256 -261
c0 -76 -33 -154 -107 -210c-22 -17 -47 -28 -73 -36c3 -35 5 -70 5 -105c0 -19 -1 -39 -2 -58c-7 -119 -88 -225 -202 -228l1 43c93 2 153 92 159 191c1 18 2 37 2 55c0 31 -1 61 -4 92c-29 -5 -58 -8 -89 -8zM428 916c0 55 -4 79 -20 129c-99 -48 -162 -149 -162 -259
c0 -74 18 -133 36 -194c80 97 146 198 146 324z" fill="currentColor"/>
</g>
<g color="rgb(50.0000%, 50.0000%, 50.0000%)">
<a style="color:inherit;" xlink:href="textedit://C:/Users/har1sf0x/Documents/GitHub/musicSchoolTampouras.github.io/sheets/ly/%ce%88%ce%bd%ce%b1_%ce%bc%ce%b9%ce%ba%cf%81%cf%8c_%cf%86%cf%85%ce%bd%cf%84%ce%ac%ce%bd%ce%b9.ly:14:2:3">
<g transform="translate(18.5045, 18.5623)">
<path transform="scale(0.0040, -0.0040)" d="M218 136c55 0 108 -28 108 -89c0 -71 -55 -121 -102 -149c-35 -21 -75 -34 -116 -34c-55 0 -108 28 -108 89c0 71 55 121 102 149c35 21 75 34 116 34z" fill="currentColor"/>
</g>
</a>
</g>
<g color="rgb(50.0000%, 50.0000%, 50.0000%)">
<a style="color:inherit;" xlink:href="textedit://C:/Users/har1sf0x/Documents/GitHub/musicSchoolTampouras.github.io/sheets/ly/%ce%88%ce%bd%ce%b1_%ce%bc%ce%b9%ce%ba%cf%81%cf%8c_%cf%86%cf%85%ce%bd%cf%84%ce%ac%ce%bd%ce%b9.ly:14:2:3">
<g transform="translate(17.2653, 20.5623)">
<path transform="scale(0.0040, -0.0040)" d="M218 136c55 0 108 -28 108 -89c0 -71 -55 -121 -102 -149c-35 -21 -75 -34 -116 -34c-55 0 -108 28 -108 89c0 71 55 121 102 149c35 21 75 34 116 34z" fill="currentColor"/>
</g>
</a>
</g>
<a style="color:inherit;" xlink:href="textedit://C:/Users/har1sf0x/Documents/GitHub/musicSchoolTampouras.github.io/sheets/ly/%ce%88%ce%bd%ce%b1_%ce%bc%ce%b9%ce%ba%cf%81%cf%8c_%cf%86%cf%85%ce%bd%cf%84%ce%ac%ce%bd%ce%b9.ly:14:2:3">
<g transform="translate(17.2653, 18.5623)">
<path transform="scale(0.0040, -0.0040)" d="M218 136c55 0 108 -28 108 -89c0 -71 -55 -121 -102 -149c-35 -21 -75 -34 -116 -34c-55 0 -108 28 -108 89c0 71 55 121 102 149c35 21 75 34 116 34z" fill="currentColor"/>
</g>
</a>
<a style="color:inherit;" xlink:href="textedit://C:/Users/har1sf0x/Documents/GitHub/musicSchoolTampouras.github.io/sheets/ly/%ce%88%ce%bd%ce%b1_%ce%bc%ce%b9%ce%ba%cf%81%cf%8c_%cf%86%cf%85%ce%bd%cf%84%ce%ac%ce%bd%ce%b9.ly:14:24:25">
<g transform="translate(20.9695, 18.0623)">
<path transform="scale(0.0040, -0.0040)" d="M218 136c55 0 108 -28 108 -89c0 -71 -55 -121 -102 -149c-35 -21 -75 -34 -116 -34c-55 0 -108 28 -108 89c0 71 55 121 102 149c35 21 75 34 116 34z" fill="currentColor"/>
</g>
</a>
<g transform="translate(22.2087, 18.0623)">
<rect x="-0.0650" y="-3.3743" width="0.1300" height="3.1882" ry="0.0400" fill="currentColor"/>
</g>
<a style="color:inherit;" xlink:href="textedit://C:/Users/har1sf0x/Documents/GitHub/musicSchoolTampouras.github.io/sheets/ly/%ce%88%ce%bd%ce%b1_%ce%bc%ce%b9%ce%ba%cf%81%cf%8c_%cf%86%cf%85%ce%bd%cf%84%ce%ac%ce%bd%ce%b9.ly:14:29:30">
<g transform="translate(21.2119, 13.9479)">
<path transform="scale(0.0022, -0.0022)" d="M194 486c15 0 25 15 41 15c13 0 24 -13 24 -31v-341c0 -47 35 -86 81 -86c14 0 21 -10 21 -21s-7 -22 -21 -22c-49 0 -97 14 -146 14s-96 -14 -145 -14c-14 0 -22 11 -22 22s8 21 22 21c46 0 80 39 80 86v137c0 23 -16 35 -30 35c-7 0 -13 -4 -17 -11l-34 -65
c-5 -10 -14 -15 -23 -15c-14 0 -28 12 -28 27c0 4 1 8 3 13l129 250c2 4 7 6 11 6c20 0 35 -20 54 -20z" fill="currentColor"/>
</g>
</a>
<a style="color:inherit;" xlink:href="textedit://C:/Users/har1sf0x/Documents/GitHub/musicSchoolTampouras.github.io/sheets/ly/%ce%88%ce%bd%ce%b1_%ce%bc%ce%b9%ce%ba%cf%81%cf%8c_%cf%86%cf%85%ce%bd%cf%84%ce%ac%ce%bd%ce%b9.ly:15:68:69">
<g transform="translate(46.5641, 19.0623)">
<path transform="scale(0.0040, -0.0040)" d="M218 136c55 0 108 -28 108 -89c0 -71 -55 -121 -102 -149c-35 -21 -75 -34 -116 -34c-55 0 -108 28 -108 89c0 71 55 121 102 149c35 21 75 34 116 34z" fill="currentColor"/>
</g>
</a>
<g transform="translate(47.8033, 18.0623)">
<rect x="-0.0650" y="-2.2012" width="0.1300" height="3.0151" ry="0.0400" fill="currentColor"/>
</g>
<a style="color:inherit;" xlink:href="textedit://C:/Users/har1sf0x/Documents/GitHub/musicSchoolTampouras.github.io/sheets/ly/%ce%88%ce%bd%ce%b1_%ce%bc%ce%b9%ce%ba%cf%81%cf%8c_%cf%86%cf%85%ce%bd%cf%84%ce%ac%ce%bd%ce%b9.ly:26:27:28">
<g transform="translate(46.7041, 24.6684)">
<text font-family="serif" font-size="2.4696" text-anchor="start" fill="currentColor">
<tspan>έ</tspan>
</text>
</g>
</a>
<a style="color:inherit;" xlink:href="textedit://C:/Users/har1sf0x/Documents/GitHub/musicSchoolTampouras.github.io/sheets/ly/%ce%88%ce%bd%ce%b1_%ce%bc%ce%b9%ce%ba%cf%81%cf%8c_%cf%86%cf%85%ce%bd%cf%84%ce%ac%ce%bd%ce%b9.ly:15:69:70">
<g transform="translate(46.7894, 15.0123)">
<path transform="scale(0.0022, -0.0022)" d="M190 446c-56 0 -61 -84 -61 -155v-41v-41c0 -71 5 -155 61 -155s61 84 61 155v41v41c0 71 -5 155 -61 155zM190 500c118 0 190 -122 190 -250s-72 -250 -190 -250s-190 122 -190 250s72 250 190 250z" fill="currentColor"/>
</g>
</a>
<a style="color:inherit;" xlink:href="textedit://C:/Users/har1sf0x/Documents/GitHub/musicSchoolTampouras.github.io/sheets/ly/%ce%88%ce%bd%ce%b1_%ce%bc%ce%b9%ce%ba%cf%81%cf%8c_%cf%86%cf%85%ce%bd%cf%84%ce%ac%ce%bd%ce%b9.ly:16:2:3">
<g transform="translate(51.5593, 18.5623)">
<path transform="scale(0.0040, -0.0040)" d="M218 136c55 0 108 -28 108 -89c0 -71 -55 -121 -102 -149c-35 -21 -75 -34 -116 -34c-55 0 -108 28 -108 89c0 71 55 121 102 149c35 21 75 34 116 34z" fill="currentColor"/>
</g>
</a>
<g transform="translate(44.3491, 18.0623)">
<rect x="-0.0650" y="-2.7988" width="0.1300" height="2.6127" ry="0.0400" fill="currentColor"/>
</g>
<a style="color:inherit;" xlink:href="textedit://C:/Users/har1sf0x/Documents/GitHub/musicSchoolTampouras.github.io/sheets/ly/%ce%88%ce%bd%ce%b1_%ce%bc%ce%b9%ce%ba%cf%81%cf%8c_%cf%86%cf%85%ce%bd%cf%84%ce%ac%ce%bd%ce%b9.ly:15:55:56">
<g transform="translate(43.3523, 14.5235)">
<path transform="scale(0.0022, -0.0022)" d="M194 486c15 0 25 15 41 15c13 0 24 -13 24 -31v-341c0 -47 35 -86 81 -86c14 0 21 -10 21 -21s-7 -22 -21 -22c-49 0 -97 14 -146 14s-96 -14 -145 -14c-14 0 -22 11 -22 22s8 21 22 21c46 0 80 39 80 86v137c0 23 -16 35 -30 35c-7 0 -13 -4 -17 -11l-34 -65
c-5 -10 -14 -15 -23 -15c-14 0 -28 12 -28 27c0 4 1 8 3 13l129 250c2 4 7 6 11 6c20 0 35 -20 54 -20z" fill="currentColor"/>
</g>
</a>
<g transform="translate(52.7985, 18.0623)">
<rect x="-0.0650" y="-2.8100" width="0.1300" height="5.1239" ry="0.0400" fill="currentColor"/>
</g>
<a style="color:inherit;" xlink:href="textedit://C:/Users/har1sf0x/Documents/GitHub/musicSchoolTampouras.github.io/sheets/ly/%ce%88%ce%bd%ce%b1_%ce%bc%ce%b9%ce%ba%cf%81%cf%8c_%cf%86%cf%85%ce%bd%cf%84%ce%ac%ce%bd%ce%b9.ly:26:32:33">
<g transform="translate(50.9994, 24.6684)">
<text font-family="serif" font-size="2.4696" text-anchor="start" fill="currentColor">
<tspan>να</tspan>
</text>
</g>
</a>
<a style="color:inherit;" xlink:href="textedit://C:/Users/har1sf0x/Documents/GitHub/musicSchoolTampouras.github.io/sheets/ly/%ce%88%ce%bd%ce%b1_%ce%bc%ce%b9%ce%ba%cf%81%cf%8c_%cf%86%cf%85%ce%bd%cf%84%ce%ac%ce%bd%ce%b9.ly:16:2:3">
<g transform="translate(51.8188, 14.5123)">
<path transform="scale(0.0022, -0.0022)" d="M64 500c42 -7 84 -14 127 -14s85 7 127 14c2 0 5 1 7 1c17 0 28 -12 28 -22c0 -4 -1 -6 -4 -9c-61 -61 -145 -91 -231 -91c-17 0 -30 -14 -30 -31v-41c25 25 62 25 97 25h5c115 0 181 -55 181 -166c0 -99 -96 -166 -202 -166c-88 0 -169 52 -169 133c0 32 26 58 58 58
s58 -26 58 -58c0 -22 -36 -26 -36 -48c0 -36 47 -42 89 -42c52 0 73 63 73 123c0 53 -6 112 -52 112c-41 0 -84 -1 -107 -33c-6 -8 -14 -11 -22 -11c-14 0 -27 10 -27 27v209c0 17 11 30 26 30h4z" fill="currentColor"/>
</g>
</a>
<g color="rgb(50.0000%, 50.0000%, 50.0000%)">
<a style="color:inherit;" xlink:href="textedit://C:/Users/har1sf0x/Documents/GitHub/musicSchoolTampouras.github.io/sheets/ly/%ce%88%ce%bd%ce%b1_%ce%bc%ce%b9%ce%ba%cf%81%cf%8c_%cf%86%cf%85%ce%bd%cf%84%ce%ac%ce%bd%ce%b9.ly:16:2:3">
<g transform="translate(52.7985, 18.5623)">
<path transform="scale(0.0040, -0.0040)" d="M218 136c55 0 108 -28 108 -89c0 -71 -55 -121 -102 -149c-35 -21 -75 -34 -116 -34c-55 0 -108 28 -108 89c0 71 55 121 102 149c35 21 75 34 116 34z" fill="currentColor"/>
</g>
</a>
</g>
<g color="rgb(50.0000%, 50.0000%, 50.0000%)">
<a style="color:inherit;" xlink:href="textedit://C:/Users/har1sf0x/Documents/GitHub/musicSchoolTampouras.github.io/sheets/ly/%ce%88%ce%bd%ce%b1_%ce%bc%ce%b9%ce%ba%cf%81%cf%8c_%cf%86%cf%85%ce%bd%cf%84%ce%ac%ce%bd%ce%b9.ly:16:2:3">
<g transform="translate(51.5593, 20.5623)">
<path transform="scale(0.0040, -0.0040)" d="M218 136c55 0 108 -28 108 -89c0 -71 -55 -121 -102 -149c-35 -21 -75 -34 -116 -34c-55 0 -108 28 -108 89c0 71 55 121 102 149c35 21 75 34 116 34z" fill="currentColor"/>
</g>
</a>
</g>
<a style="color:inherit;" xlink:href="textedit://C:/Users/har1sf0x/Documents/GitHub/musicSchoolTampouras.github.io/sheets/ly/%ce%88%ce%bd%ce%b1_%ce%bc%ce%b9%ce%ba%cf%81%cf%8c_%cf%86%cf%85%ce%bd%cf%84%ce%ac%ce%bd%ce%b9.ly:15:51:52">
<g transform="translate(43.1099, 18.0623)">
<path transform="scale(0.0040, -0.0040)" d="M218 136c55 0 108 -28 108 -89c0 -71 -55 -121 -102 -149c-35 -21 -75 -34 -116 -34c-55 0 -108 28 -108 89c0 71 55 121 102 149c35 21 75 34 116 34z" fill="currentColor"/>
</g>
</a>
<a style="color:inherit;" xlink:href="textedit://C:/Users/har1sf0x/Documents/GitHub/musicSchoolTampouras.github.io/sheets/ly/%ce%88%ce%bd%ce%b1_%ce%bc%ce%b9%ce%ba%cf%81%cf%8c_%cf%86%cf%85%ce%bd%cf%84%ce%ac%ce%bd%ce%b9.ly:15:40:41">
<g transform="translate(40.8481, 15.0123)">
<path transform="scale(0.0022, -0.0022)" d="M194 486c15 0 25 15 41 15c13 0 24 -13 24 -31v-341c0 -47 35 -86 81 -86c14 0 21 -10 21 -21s-7 -22 -21 -22c-49 0 -97 14 -146 14s-96 -14 -145 -14c-14 0 -22 11 -22 22s8 21 22 21c46 0 80 39 80 86v137c0 23 -16 35 -30 35c-7 0 -13 -4 -17 -11l-34 -65
c-5 -10 -14 -15 -23 -15c-14 0 -28 12 -28 27c0 4 1 8 3 13l129 250c2 4 7 6 11 6c20 0 35 -20 54 -20z" fill="currentColor"/>
</g>
</a>
<a style="color:inherit;" xlink:href="textedit://C:/Users/har1sf0x/Documents/GitHub/musicSchoolTampouras.github.io/sheets/ly/%ce%88%ce%bd%ce%b1_%ce%bc%ce%b9%ce%ba%cf%81%cf%8c_%cf%86%cf%85%ce%bd%cf%84%ce%ac%ce%bd%ce%b9.ly:15:37:38">
<g transform="translate(40.6057, 18.0623)">
<path transform="scale(0.0040, -0.0040)" d="M218 136c55 0 108 -28 108 -89c0 -71 -55 -121 -102 -149c-35 -21 -75 -34 -116 -34c-55 0 -108 28 -108 89c0 71 55 121 102 149c35 21 75 34 116 34z" fill="currentColor"/>
</g>
</a>
<a style="color:inherit;" xlink:href="textedit://C:/Users/har1sf0x/Documents/GitHub/musicSchoolTampouras.github.io/sheets/ly/%ce%88%ce%bd%ce%b1_%ce%bc%ce%b9%ce%ba%cf%81%cf%8c_%cf%86%cf%85%ce%bd%cf%84%ce%ac%ce%bd%ce%b9.ly:15:19:20">
<g transform="translate(38.1015, 18.0623)">
<path transform="scale(0.0040, -0.0040)" d="M218 136c55 0 108 -28 108 -89c0 -71 -55 -121 -102 -149c-35 -21 -75 -34 -116 -34c-55 0 -108 28 -108 89c0 71 55 121 102 149c35 21 75 34 116 34z" fill="currentColor"/>
</g>
</a>
<a style="color:inherit;" xlink:href="textedit://C:/Users/har1sf0x/Documents/GitHub/musicSchoolTampouras.github.io/sheets/ly/%ce%88%ce%bd%ce%b1_%ce%bc%ce%b9%ce%ba%cf%81%cf%8c_%cf%86%cf%85%ce%bd%cf%84%ce%ac%ce%bd%ce%b9.ly:15:24:25">
<g transform="translate(38.3439, 15.0123)">
<path transform="scale(0.0022, -0.0022)" d="M194 486c15 0 25 15 41 15c13 0 24 -13 24 -31v-341c0 -47 35 -86 81 -86c14 0 21 -10 21 -21s-7 -22 -21 -22c-49 0 -97 14 -146 14s-96 -14 -145 -14c-14 0 -22 11 -22 22s8 21 22 21c46 0 80 39 80 86v137c0 23 -16 35 -30 35c-7 0 -13 -4 -17 -11l-34 -65
c-5 -10 -14 -15 -23 -15c-14 0 -28 12 -28 27c0 4 1 8 3 13l129 250c2 4 7 6 11 6c20 0 35 -20 54 -20z" fill="currentColor"/>
</g>
</a>
<g transform="translate(38.1665, 18.0623)">
<rect x="-0.0650" y="0.1861" width="0.1300" height="3.3139" ry="0.0400" fill="currentColor"/>
</g>
<g transform="translate(40.6707, 18.0623)">
<rect x="-0.0650" y="0.1861" width="0.1300" height="3.3139" ry="0.0400" fill="currentColor"/>
</g>
<g transform="translate(44.1546, 30.0623)">
<text font-family="serif" font-weight="bold" font-size="2.2001" text-anchor="start" fill="currentColor">
<tspan>1.</tspan>
</text>
</g>
<g transform="translate(46.3935, 30.0623)">
<text font-family="serif" font-size="2.2001" text-anchor="start" fill="currentColor">
<tspan>Ένα, ένα μικρό φυντάνι,</tspan>
</text>
</g>
<g transform="translate(46.3935, 33.0623)">
<text font-family="serif" font-size="2.2001" text-anchor="start" fill="currentColor">
<tspan>φυντά-, φυντάνι φυντανάκι,</tspan>
</text>
</g>
<g transform="translate(46.3935, 36.0623)">
<text font-family="serif" font-size="2.2001" text-anchor="start" fill="currentColor">
<tspan>αξιώ-, αξιώνει κι αναδίνει</tspan>
</text>
</g>
<g transform="translate(46.3935, 39.0623)">
<text font-family="serif" font-size="2.2001" text-anchor="start" fill="currentColor">
<tspan>καρπό, καρπό και άνθη δίνει.</tspan>
</text>
</g>
<g transform="translate(44.1546, 42.8328)">
<text font-family="serif" font-weight="bold" font-size="2.2001" text-anchor="start" fill="currentColor">
<tspan>2.</tspan>
</text>
</g>
<g transform="translate(46.3935, 42.8328)">
<text font-family="serif" font-size="2.2001" text-anchor="start" fill="currentColor">
<tspan>Λίγο, λίγο νερό σταλάκι</tspan>
</text>
</g>
<g transform="translate(46.3935, 45.8328)">
<text font-family="serif" font-size="2.2001" text-anchor="start" fill="currentColor">
<tspan>να τρέ-, να τρέξει το φαρμάκι,</tspan>
</text>
</g>
<g transform="translate(46.3935, 48.8328)">
<text font-family="serif" font-size="2.2001" text-anchor="start" fill="currentColor">
<tspan>να μη, να μη μαραγκιασθούνε</tspan>
</text>
</g>
<g transform="translate(46.3935, 51.8328)">
<text font-family="serif" font-size="2.2001" text-anchor="start" fill="currentColor">
<tspan>κι όλα, κι όλα να μη χαθούνε.</tspan>
</text>
</g>
<g transform="translate(44.1546, 55.6076)">
<text font-family="serif" font-weight="bold" font-size="2.2001" text-anchor="start" fill="currentColor">
<tspan>3.</tspan>
</text>
</g>
<g transform="translate(46.3935, 55.6076)">
<text font-family="serif" font-size="2.2001" text-anchor="start" fill="currentColor">
<tspan>Μη μα-, μη μαραθούν τα φύλλα</tspan>
</text>
</g>
<g transform="translate(46.3935, 58.6076)">
<text font-family="serif" font-size="2.2001" text-anchor="start" fill="currentColor">
<tspan>και πέ-, και πέσουνε τα μήλα. x2</tspan>
</text>
</g>
<g transform="translate(54.4586, 66.6132)">
<text font-family="serif" font-size="2.2001" text-anchor="start" fill="currentColor">
<tspan>Χ. Κόχυλας</tspan>
</text>
</g>
<g transform="translate(34.5701, 70.0880)">
<a xlink:href="https://lilypond.org/">
<rect x="0.0000" y="-0.4748" width="50.3614" height="2.0024" fill="none" stroke="none" stroke-width="0.0"/>
</a>
</g>
<g transform="translate(34.5701, 70.0880)">
<text font-family="serif" font-size="2.2001" text-anchor="start" fill="currentColor">
<tspan>Music engraving by LilyPond 2.24.4—www.lilypond.org</tspan>
</text>
</g>
</svg>
