<svg xmlns="http://www.w3.org/2000/svg" xmlns:xlink="http://www.w3.org/1999/xlink" version="1.2" width="210.00mm" height="65.00mm" viewBox="0.0000 -0.0000 119.5016 36.9886">
<style type="text/css">
<![CDATA[
tspan { white-space: pre; }
]]>
</style>
<g transform="translate(38.6502, 4.3492)">
<text font-family="serif" font-weight="bold" font-size="3.4927" text-anchor="start" fill="currentColor">
<tspan>Κάλαντα Πελοποννήσου</tspan>
</text>
</g>
<g transform="translate(44.4546, 7.8492)">
<text font-family="serif" font-weight="bold" font-size="2.4696" text-anchor="start" fill="currentColor">
<tspan>Κάλαντα Χριστουγέννων</tspan>
</text>
</g>
<g transform="translate(5.6906, 19.8508)">
<line stroke-linejoin="round" stroke-linecap="round" stroke-width="0.1000" stroke="currentColor" x1="0.0500" y1="0" x2="107.9248" y2="0"/>
</g>
<g transform="translate(5.6906, 18.8508)">
<line stroke-linejoin="round" stroke-linecap="round" stroke-width="0.1000" stroke="currentColor" x1="0.0500" y1="0" x2="107.9248" y2="0"/>
</g>
<g transform="translate(5.6906, 17.8508)">
<line stroke-linejoin="round" stroke-linecap="round" stroke-width="0.1000" stroke="currentColor" x1="0.0500" y1="0" x2="107.9248" y2="0"/>
</g>
<g transform="translate(5.6906, 16.8508)">
<line stroke-linejoin="round" stroke-linecap="round" stroke-width="0.1000" stroke="currentColor" x1="0.0500" y1="0" x2="107.9248" y2="0"/>
</g>
<g transform="translate(5.6906, 15.8508)">
<line stroke-linejoin="round" stroke-linecap="round" stroke-width="0.1000" stroke="currentColor" x1="0.0500" y1="0" x2="107.9248" y2="0"/>
</g>
<g transform="translate(81.3412, 17.8508)">
<rect x="0.0000" y="-2.0000" width="0.1900" height="4.0000" ry="0.0000" fill="currentColor"/>
</g>
<g transform="translate(60.2240, 17.8508)">
<rect x="0.0000" y="-2.0000" width="0.1900" height="4.0000" ry="0.0000" fill="currentColor"/>
</g>
<g transform="translate(99.6307, 17.3508)">
<path transform="scale(0.0040, -0.0040)" d="M0 0c0 31 25 56 56 56s56 -25 56 -56s-25 -56 -56 -56s-56 25 -56 56z" fill="currentColor"/>
</g>
<g transform="translate(99.6307, 18.3508)">
<path transform="scale(0.0040, -0.0040)" d="M0 0c0 31 25 56 56 56s56 -25 56 -56s-25 -56 -56 -56s-56 25 -56 56z" fill="currentColor"/>
</g>
<g transform="translate(100.8707, 17.8508)">
<rect x="0.0000" y="-2.0000" width="0.6000" height="4.0000" ry="0.0000" fill="currentColor"/>
</g>
<g transform="translate(100.3807, 17.8508)">
<rect x="0.0000" y="-2.0000" width="0.1900" height="4.0000" ry="0.0000" fill="currentColor"/>
</g>
<g transform="translate(41.3733, 17.8508)">
<rect x="0.0000" y="-2.0000" width="0.1900" height="4.0000" ry="0.0000" fill="currentColor"/>
</g>
<g transform="translate(22.5738, 17.3508)">
<path transform="scale(0.0040, -0.0040)" d="M0 0c0 31 25 56 56 56s56 -25 56 -56s-25 -56 -56 -56s-56 25 -56 56z" fill="currentColor"/>
</g>
<g transform="translate(22.5738, 18.3508)">
<path transform="scale(0.0040, -0.0040)" d="M0 0c0 31 25 56 56 56s56 -25 56 -56s-25 -56 -56 -56s-56 25 -56 56z" fill="currentColor"/>
</g>
<g transform="translate(22.0838, 17.8508)">
<rect x="0.0000" y="-2.0000" width="0.1900" height="4.0000" ry="0.0000" fill="currentColor"/>
</g>
<g transform="translate(21.1838, 17.8508)">
<rect x="0.0000" y="-2.0000" width="0.6000" height="4.0000" ry="0.0000" fill="currentColor"/>
</g>
<g transform="translate(113.0654, 17.8508)">
<rect x="0.0000" y="-2.0000" width="0.6000" height="4.0000" ry="0.0000" fill="currentColor"/>
</g>
<g transform="translate(112.5754, 17.8508)">
<rect x="0.0000" y="-2.0000" width="0.1900" height="4.0000" ry="0.0000" fill="currentColor"/>
</g>
<g transform="translate(76.3818, 17.8508)">
<path transform="scale(0.0040, -0.0040)" d="M218 136c55 0 108 -28 108 -89c0 -71 -55 -121 -102 -149c-35 -21 -75 -34 -116 -34c-55 0 -108 28 -108 89c0 71 55 121 102 149c35 21 75 34 116 34z" fill="currentColor"/>
</g>
<g transform="translate(77.0318, 14.4609)">
<line stroke-linejoin="round" stroke-linecap="round" stroke-width="0.1380" stroke="currentColor" x1="0" y1="0" x2="0" y2="-1.6000"/>
</g>
<g transform="translate(77.0318, 14.9109)">
<path transform="scale(0.0036, -0.0036)" d="M-103 250c5 0 10 -1 14 -5c40 -35 70 -79 89 -128c19 49 49 93 89 128c4 4 9 5 14 5c11 0 22 -10 22 -22c0 -6 -2 -12 -7 -16c-61 -54 -96 -131 -96 -212c0 -14 -11 -22 -22 -22s-22 8 -22 22c0 81 -35 158 -96 212c-5 4 -7 10 -7 16c0 12 11 22 22 22z" fill="currentColor"/>
</g>
<g transform="translate(77.6210, 17.8508)">
<rect x="-0.0650" y="-2.7931" width="0.1300" height="2.6070" ry="0.0400" fill="currentColor"/>
</g>
<g transform="translate(75.1168, 17.8508)">
<rect x="-0.0650" y="-2.8147" width="0.1300" height="3.1286" ry="0.0400" fill="currentColor"/>
</g>
<g transform="scale(1.0000, -1.0000)">
<g transform="translate(74.5276, -12.6296)">
<line stroke-linejoin="round" stroke-linecap="round" stroke-width="0.1380" stroke="currentColor" x1="0" y1="0" x2="0" y2="-1.6000"/>
</g>
<g transform="translate(74.5276, -12.1796)">
<path transform="scale(0.0036, -0.0036)" d="M-103 250c5 0 10 -1 14 -5c40 -35 70 -79 89 -128c19 49 49 93 89 128c4 4 9 5 14 5c11 0 22 -10 22 -22c0 -6 -2 -12 -7 -16c-61 -54 -96 -131 -96 -212c0 -14 -11 -22 -22 -22s-22 8 -22 22c0 81 -35 158 -96 212c-5 4 -7 10 -7 16c0 12 11 22 22 22z" fill="currentColor"/>
</g>
</g>
<g transform="translate(73.8776, 18.3508)">
<path transform="scale(0.0040, -0.0040)" d="M218 136c55 0 108 -28 108 -89c0 -71 -55 -121 -102 -149c-35 -21 -75 -34 -116 -34c-55 0 -108 28 -108 89c0 71 55 121 102 149c35 21 75 34 116 34z" fill="currentColor"/>
</g>
<g transform="translate(83.0812, 14.5109)">
<line stroke-linejoin="round" stroke-linecap="round" stroke-width="0.1380" stroke="currentColor" x1="0" y1="0" x2="0" y2="-1.6000"/>
</g>
<g transform="translate(83.0812, 14.9609)">
<path transform="scale(0.0036, -0.0036)" d="M-103 250c5 0 10 -1 14 -5c40 -35 70 -79 89 -128c19 49 49 93 89 128c4 4 9 5 14 5c11 0 22 -10 22 -22c0 -6 -2 -12 -7 -16c-61 -54 -96 -131 -96 -212c0 -14 -11 -22 -22 -22s-22 8 -22 22c0 81 -35 158 -96 212c-5 4 -7 10 -7 16c0 12 11 22 22 22z" fill="currentColor"/>
</g>
<g transform="translate(61.5112, 17.8508)">
<rect x="-0.0650" y="-0.3139" width="0.1300" height="3.1286" ry="0.0400" fill="currentColor"/>
</g>
<g transform="translate(83.6704, 17.8508)">
<rect x="-0.0650" y="-3.0000" width="0.1300" height="5.3139" ry="0.0400" fill="currentColor"/>
</g>
<g color="rgb(50.0000%, 50.0000%, 50.0000%)">
<g transform="translate(83.6704, 18.3508)">
<path transform="scale(0.0040, -0.0040)" d="M218 136c55 0 108 -28 108 -89c0 -71 -55 -121 -102 -149c-35 -21 -75 -34 -116 -34c-55 0 -108 28 -108 89c0 71 55 121 102 149c35 21 75 34 116 34z" fill="currentColor"/>
</g>
</g>
<g color="rgb(50.0000%, 50.0000%, 50.0000%)">
<g transform="translate(82.4312, 20.3508)">
<path transform="scale(0.0040, -0.0040)" d="M218 136c55 0 108 -28 108 -89c0 -71 -55 -121 -102 -149c-35 -21 -75 -34 -116 -34c-55 0 -108 28 -108 89c0 71 55 121 102 149c35 21 75 34 116 34z" fill="currentColor"/>
</g>
</g>
<g transform="translate(82.4312, 18.3508)">
<path transform="scale(0.0040, -0.0040)" d="M218 136c55 0 108 -28 108 -89c0 -71 -55 -121 -102 -149c-35 -21 -75 -34 -116 -34c-55 0 -108 28 -108 89c0 71 55 121 102 149c35 21 75 34 116 34z" fill="currentColor"/>
</g>
<g transform="translate(79.8752, 17.8508)">
<rect x="-0.0650" y="-2.2069" width="0.1300" height="3.0208" ry="0.0400" fill="currentColor"/>
</g>
<g transform="translate(78.6360, 18.8508)">
<path transform="scale(0.0040, -0.0040)" d="M218 136c55 0 108 -28 108 -89c0 -71 -55 -121 -102 -149c-35 -21 -75 -34 -116 -34c-55 0 -108 28 -108 89c0 71 55 121 102 149c35 21 75 34 116 34z" fill="currentColor"/>
</g>
<g transform="translate(64.0154, 17.8508)">
<rect x="-0.0650" y="0.1861" width="0.1300" height="2.8092" ry="0.0400" fill="currentColor"/>
</g>
<g transform="scale(1.0000, -1.0000)">
<g transform="translate(64.6004, -13.6718)">
<line stroke-linejoin="round" stroke-linecap="round" stroke-width="0.1380" stroke="currentColor" x1="0" y1="0" x2="0" y2="-1.6000"/>
</g>
<g transform="translate(64.6004, -13.2218)">
<path transform="scale(0.0036, -0.0036)" d="M-103 250c5 0 10 -1 14 -5c40 -35 70 -79 89 -128c19 49 49 93 89 128c4 4 9 5 14 5c11 0 22 -10 22 -22c0 -6 -2 -12 -7 -16c-61 -54 -96 -131 -96 -212c0 -14 -11 -22 -22 -22s-22 8 -22 22c0 81 -35 158 -96 212c-5 4 -7 10 -7 16c0 12 11 22 22 22z" fill="currentColor"/>
</g>
</g>
<g transform="translate(63.9504, 17.8508)">
<path transform="scale(0.0040, -0.0040)" d="M218 136c55 0 108 -28 108 -89c0 -71 -55 -121 -102 -149c-35 -21 -75 -34 -116 -34c-55 0 -108 28 -108 89c0 71 55 121 102 149c35 21 75 34 116 34z" fill="currentColor"/>
</g>
<g transform="translate(66.4546, 17.3508)">
<path transform="scale(0.0040, -0.0040)" d="M218 136c55 0 108 -28 108 -89c0 -71 -55 -121 -102 -149c-35 -21 -75 -34 -116 -34c-55 0 -108 28 -108 89c0 71 55 121 102 149c35 21 75 34 116 34z" fill="currentColor"/>
</g>
<g transform="translate(87.3096, 15.0408)">
<polygon stroke-linejoin="round" stroke-linecap="round" stroke-width="0.0800" fill="currentColor" stroke="currentColor" points="3.1334 -0.2000 3.1334 0.2000 0.0400 0.2000 0.0400 -0.2000"/>
</g>
<g transform="translate(72.6126, 17.8508)">
<rect x="-0.0650" y="-2.9953" width="0.1300" height="2.8092" ry="0.0400" fill="currentColor"/>
</g>
<g transform="translate(72.0233, 14.2709)">
<line stroke-linejoin="round" stroke-linecap="round" stroke-width="0.1380" stroke="currentColor" x1="0" y1="0" x2="0" y2="-1.6000"/>
</g>
<g transform="translate(72.0233, 14.7209)">
<path transform="scale(0.0036, -0.0036)" d="M-103 250c5 0 10 -1 14 -5c40 -35 70 -79 89 -128c19 49 49 93 89 128c4 4 9 5 14 5c11 0 22 -10 22 -22c0 -6 -2 -12 -7 -16c-61 -54 -96 -131 -96 -212c0 -14 -11 -22 -22 -22s-22 8 -22 22c0 81 -35 158 -96 212c-5 4 -7 10 -7 16c0 12 11 22 22 22z" fill="currentColor"/>
</g>
<g transform="translate(71.3733, 17.8508)">
<path transform="scale(0.0040, -0.0040)" d="M218 136c55 0 108 -28 108 -89c0 -71 -55 -121 -102 -149c-35 -21 -75 -34 -116 -34c-55 0 -108 28 -108 89c0 71 55 121 102 149c35 21 75 34 116 34z" fill="currentColor"/>
</g>
<g transform="translate(69.0238, 17.8508)">
<rect x="-0.0650" y="-0.8139" width="0.1300" height="2.8186" ry="0.0400" fill="currentColor"/>
</g>
<g transform="scale(1.0000, -1.0000)">
<g transform="translate(69.6088, -13.6718)">
<line stroke-linejoin="round" stroke-linecap="round" stroke-width="0.1380" stroke="currentColor" x1="0" y1="0" x2="0" y2="-1.6000"/>
</g>
<g transform="translate(69.6088, -13.2218)">
<path transform="scale(0.0036, -0.0036)" d="M-103 250c5 0 10 -1 14 -5c40 -35 70 -79 89 -128c19 49 49 93 89 128c4 4 9 5 14 5c11 0 22 -10 22 -22c0 -6 -2 -12 -7 -16c-61 -54 -96 -131 -96 -212c0 -14 -11 -22 -22 -22s-22 8 -22 22c0 81 -35 158 -96 212c-5 4 -7 10 -7 16c0 12 11 22 22 22z" fill="currentColor"/>
</g>
</g>
<g transform="translate(68.9588, 16.8508)">
<path transform="scale(0.0040, -0.0040)" d="M218 136c55 0 108 -28 108 -89c0 -71 -55 -121 -102 -149c-35 -21 -75 -34 -116 -34c-55 0 -108 28 -108 89c0 71 55 121 102 149c35 21 75 34 116 34z" fill="currentColor"/>
</g>
<g transform="translate(66.5196, 17.8508)">
<rect x="-0.0650" y="-0.3139" width="0.1300" height="2.4992" ry="0.0400" fill="currentColor"/>
</g>
<g transform="translate(67.1046, 14.8124)">
<line stroke-linejoin="round" stroke-linecap="round" stroke-width="0.1380" stroke="currentColor" x1="0" y1="0" x2="0" y2="-1.6000"/>
</g>
<g transform="translate(67.1046, 15.2624)">
<path transform="scale(0.0036, -0.0036)" d="M-103 250c5 0 10 -1 14 -5c40 -35 70 -79 89 -128c19 49 49 93 89 128c4 4 9 5 14 5c11 0 22 -10 22 -22c0 -6 -2 -12 -7 -16c-61 -54 -96 -131 -96 -212c0 -14 -11 -22 -22 -22s-22 8 -22 22c0 81 -35 158 -96 212c-5 4 -7 10 -7 16c0 12 11 22 22 22z" fill="currentColor"/>
</g>
<g transform="translate(107.9980, 14.6597)">
<line stroke-linejoin="round" stroke-linecap="round" stroke-width="0.1380" stroke="currentColor" x1="0" y1="0" x2="0" y2="-1.6000"/>
</g>
<g transform="translate(107.9980, 15.1097)">
<path transform="scale(0.0036, -0.0036)" d="M-103 250c5 0 10 -1 14 -5c40 -35 70 -79 89 -128c19 49 49 93 89 128c4 4 9 5 14 5c11 0 22 -10 22 -22c0 -6 -2 -12 -7 -16c-61 -54 -96 -131 -96 -212c0 -14 -11 -22 -22 -22s-22 8 -22 22c0 81 -35 158 -96 212c-5 4 -7 10 -7 16c0 12 11 22 22 22z" fill="currentColor"/>
</g>
<g color="rgb(50.0000%, 50.0000%, 50.0000%)">
<g transform="translate(108.6604, 18.3508)">
<path transform="scale(0.0040, -0.0040)" d="M314 65c0 24 -21 41 -42 41c-4 0 -8 0 -12 -1c-31 -9 -78 -40 -115 -64s-84 -53 -104 -78c-7 -8 -10 -18 -10 -28c0 -24 21 -41 42 -41c4 0 8 0 12 1c31 9 77 40 114 64s84 53 104 78c7 8 11 18 11 28zM262 136c46 0 82 -21 82 -71c0 -19 -4 -39 -10 -57
c-12 -37 -32 -72 -64 -94c-53 -36 -113 -50 -187 -50c-46 0 -83 21 -83 71c0 19 5 39 11 57c12 37 31 72 63 94c53 36 114 50 188 50z" fill="currentColor"/>
</g>
</g>
<g color="rgb(50.0000%, 50.0000%, 50.0000%)">
<g transform="translate(107.3480, 20.3508)">
<path transform="scale(0.0040, -0.0040)" d="M314 65c0 24 -21 41 -42 41c-4 0 -8 0 -12 -1c-31 -9 -78 -40 -115 -64s-84 -53 -104 -78c-7 -8 -10 -18 -10 -28c0 -24 21 -41 42 -41c4 0 8 0 12 1c31 9 77 40 114 64s84 53 104 78c7 8 11 18 11 28zM262 136c46 0 82 -21 82 -71c0 -19 -4 -39 -10 -57
c-12 -37 -32 -72 -64 -94c-53 -36 -113 -50 -187 -50c-46 0 -83 21 -83 71c0 19 5 39 11 57c12 37 31 72 63 94c53 36 114 50 188 50z" fill="currentColor"/>
</g>
</g>
<g transform="translate(107.3480, 18.3508)">
<path transform="scale(0.0040, -0.0040)" d="M314 65c0 24 -21 41 -42 41c-4 0 -8 0 -12 -1c-31 -9 -78 -40 -115 -64s-84 -53 -104 -78c-7 -8 -10 -18 -10 -28c0 -24 21 -41 42 -41c4 0 8 0 12 1c31 9 77 40 114 64s84 53 104 78c7 8 11 18 11 28zM262 136c46 0 82 -21 82 -71c0 -19 -4 -39 -10 -57
c-12 -37 -32 -72 -64 -94c-53 -36 -113 -50 -187 -50c-46 0 -83 21 -83 71c0 19 5 39 11 57c12 37 31 72 63 94c53 36 114 50 188 50z" fill="currentColor"/>
</g>
<g transform="translate(108.6604, 17.8508)">
<rect x="-0.0650" y="-3.0000" width="0.1300" height="5.2410" ry="0.0400" fill="currentColor"/>
</g>
<g transform="translate(103.6830, 17.8508)">
<rect x="-0.0650" y="-3.0000" width="0.1300" height="5.2410" ry="0.0400" fill="currentColor"/>
</g>
<g transform="translate(103.0207, 14.6597)">
<line stroke-linejoin="round" stroke-linecap="round" stroke-width="0.1380" stroke="currentColor" x1="0" y1="0" x2="0" y2="-1.6000"/>
</g>
<g transform="translate(103.0207, 15.1097)">
<path transform="scale(0.0036, -0.0036)" d="M-103 250c5 0 10 -1 14 -5c40 -35 70 -79 89 -128c19 49 49 93 89 128c4 4 9 5 14 5c11 0 22 -10 22 -22c0 -6 -2 -12 -7 -16c-61 -54 -96 -131 -96 -212c0 -14 -11 -22 -22 -22s-22 8 -22 22c0 81 -35 158 -96 212c-5 4 -7 10 -7 16c0 12 11 22 22 22z" fill="currentColor"/>
</g>
<g color="rgb(50.0000%, 50.0000%, 50.0000%)">
<g transform="translate(103.6830, 18.3508)">
<path transform="scale(0.0040, -0.0040)" d="M314 65c0 24 -21 41 -42 41c-4 0 -8 0 -12 -1c-31 -9 -78 -40 -115 -64s-84 -53 -104 -78c-7 -8 -10 -18 -10 -28c0 -24 21 -41 42 -41c4 0 8 0 12 1c31 9 77 40 114 64s84 53 104 78c7 8 11 18 11 28zM262 136c46 0 82 -21 82 -71c0 -19 -4 -39 -10 -57
c-12 -37 -32 -72 -64 -94c-53 -36 -113 -50 -187 -50c-46 0 -83 21 -83 71c0 19 5 39 11 57c12 37 31 72 63 94c53 36 114 50 188 50z" fill="currentColor"/>
</g>
</g>
<g transform="translate(77.5560, 15.0408)">
<polygon stroke-linejoin="round" stroke-linecap="round" stroke-width="0.0800" fill="currentColor" stroke="currentColor" points="2.3442 0.4200 2.3442 0.8200 0.0400 0.2000 0.0400 -0.2000"/>
</g>
<g transform="translate(82.3712, 10.7971)">
<g>
<path transform="scale(0.0025, -0.0025)" d="M191 487c15 0 26 14 41 14c12 0 23 -14 23 -31v-343c0 -46 35 -85 80 -85c14 0 20 -11 20 -21s-6 -21 -20 -21c-48 0 -96 13 -144 13s-95 -13 -143 -13c-14 0 -21 11 -21 21s7 21 21 21c45 0 79 39 79 85v143c0 22 -15 34 -29 34c-7 0 -13 -3 -17 -10l-34 -68
c-5 -10 -14 -14 -23 -14c-14 0 -27 10 -27 25c0 4 1 9 3 13l127 250c2 4 6 6 10 6c20 0 36 -19 54 -19z" fill="currentColor"/>

<path transform="translate(0.9560, 0.0000) scale(0.0025, -0.0025)" d="M0 53c0 29 24 53 53 53s53 -24 53 -53s-24 -53 -53 -53s-53 24 -53 53z" fill="currentColor"/>
</g>
</g>
<g transform="translate(81.3412, 9.0219)">
<line stroke-linejoin="round" stroke-linecap="round" stroke-width="0.1600" stroke="currentColor" x1="19.1195" y1="-0.0000" x2="19.1195" y2="2.0000"/>
</g>
<g transform="translate(81.3412, 9.0219)">
<line stroke-linejoin="round" stroke-linecap="round" stroke-width="0.1600" stroke="currentColor" x1="0.1100" y1="-0.0000" x2="0.1100" y2="2.0000"/>
</g>
<g transform="translate(81.3412, 9.0219)">
<line stroke-linejoin="round" stroke-linecap="round" stroke-width="0.1600" stroke="currentColor" x1="0.1100" y1="-0.0000" x2="19.1195" y2="-0.0000"/>
</g>
<g transform="translate(72.5476, 14.8508)">
<polygon stroke-linejoin="round" stroke-linecap="round" stroke-width="0.0800" fill="currentColor" stroke="currentColor" points="2.5942 -0.0100 2.5942 0.3900 0.0400 0.2000 0.0400 -0.2000"/>
</g>
<g transform="translate(76.3818, 17.8508)">
<path stroke-width="0.0800" stroke-linejoin="round" stroke-linecap="round" stroke="currentColor" fill="currentColor" d="M0.4758 1.2285C0.8252 2.1390 1.8663 2.6008 2.7300 2.2285L2.7300 2.2285C1.9150 2.4911 0.8739 2.0293 0.4758 1.2285z"/>
</g>
<g transform="translate(66.4546, 20.0408)">
<polygon stroke-linejoin="round" stroke-linecap="round" stroke-width="0.0800" fill="currentColor" stroke="currentColor" points="2.5942 -0.3900 2.5942 0.0100 0.0400 0.2000 0.0400 -0.2000"/>
</g>
<g transform="translate(61.4462, 20.6608)">
<polygon stroke-linejoin="round" stroke-linecap="round" stroke-width="0.0800" fill="currentColor" stroke="currentColor" points="2.5942 -0.0100 2.5942 0.3900 0.0400 0.2000 0.0400 -0.2000"/>
</g>
<g transform="translate(48.7313, 14.8508)">
<polygon stroke-linejoin="round" stroke-linecap="round" stroke-width="0.0800" fill="currentColor" stroke="currentColor" points="2.5942 -0.0100 2.5942 0.3900 0.0400 0.2000 0.0400 -0.2000"/>
</g>
<g transform="translate(42.5669, 20.8508)">
<polygon stroke-linejoin="round" stroke-linecap="round" stroke-width="0.0800" fill="currentColor" stroke="currentColor" points="2.5942 -0.3900 2.5942 0.0100 0.0400 0.2000 0.0400 -0.2000"/>
</g>
<g transform="translate(28.8022, 15.8508)">
<polygon stroke-linejoin="round" stroke-linecap="round" stroke-width="0.0800" fill="currentColor" stroke="currentColor" points="3.1334 -0.2000 3.1334 0.2000 0.0400 0.2000 0.0400 -0.2000"/>
</g>
<g color="rgb(50.0000%, 50.0000%, 50.0000%)">
<g transform="translate(102.3707, 20.3508)">
<path transform="scale(0.0040, -0.0040)" d="M314 65c0 24 -21 41 -42 41c-4 0 -8 0 -12 -1c-31 -9 -78 -40 -115 -64s-84 -53 -104 -78c-7 -8 -10 -18 -10 -28c0 -24 21 -41 42 -41c4 0 8 0 12 1c31 9 77 40 114 64s84 53 104 78c7 8 11 18 11 28zM262 136c46 0 82 -21 82 -71c0 -19 -4 -39 -10 -57
c-12 -37 -32 -72 -64 -94c-53 -36 -113 -50 -187 -50c-46 0 -83 21 -83 71c0 19 5 39 11 57c12 37 31 72 63 94c53 36 114 50 188 50z" fill="currentColor"/>
</g>
</g>
<g transform="translate(90.4180, 17.8508)">
<rect x="-0.0650" y="-2.8100" width="0.1300" height="5.1239" ry="0.0400" fill="currentColor"/>
</g>
<g transform="scale(1.0000, -1.0000)">
<g transform="translate(89.8288, -12.6718)">
<line stroke-linejoin="round" stroke-linecap="round" stroke-width="0.1380" stroke="currentColor" x1="0" y1="0" x2="0" y2="-1.6000"/>
</g>
<g transform="translate(89.8288, -12.2218)">
<path transform="scale(0.0036, -0.0036)" d="M-103 250c5 0 10 -1 14 -5c40 -35 70 -79 89 -128c19 49 49 93 89 128c4 4 9 5 14 5c11 0 22 -10 22 -22c0 -6 -2 -12 -7 -16c-61 -54 -96 -131 -96 -212c0 -14 -11 -22 -22 -22s-22 8 -22 22c0 81 -35 158 -96 212c-5 4 -7 10 -7 16c0 12 11 22 22 22z" fill="currentColor"/>
</g>
</g>
<g color="rgb(50.0000%, 50.0000%, 50.0000%)">
<g transform="translate(90.4180, 18.3508)">
<path transform="scale(0.0040, -0.0040)" d="M218 136c55 0 108 -28 108 -89c0 -71 -55 -121 -102 -149c-35 -21 -75 -34 -116 -34c-55 0 -108 28 -108 89c0 71 55 121 102 149c35 21 75 34 116 34z" fill="currentColor"/>
</g>
</g>
<g color="rgb(50.0000%, 50.0000%, 50.0000%)">
<g transform="translate(89.1788, 20.3508)">
<path transform="scale(0.0040, -0.0040)" d="M218 136c55 0 108 -28 108 -89c0 -71 -55 -121 -102 -149c-35 -21 -75 -34 -116 -34c-55 0 -108 28 -108 89c0 71 55 121 102 149c35 21 75 34 116 34z" fill="currentColor"/>
</g>
</g>
<g transform="translate(89.1788, 18.3508)">
<path transform="scale(0.0040, -0.0040)" d="M218 136c55 0 108 -28 108 -89c0 -71 -55 -121 -102 -149c-35 -21 -75 -34 -116 -34c-55 0 -108 28 -108 89c0 71 55 121 102 149c35 21 75 34 116 34z" fill="currentColor"/>
</g>
<g transform="translate(87.3746, 17.8508)">
<rect x="-0.0650" y="-2.8100" width="0.1300" height="5.1239" ry="0.0400" fill="currentColor"/>
</g>
<g transform="translate(86.7854, 14.4609)">
<line stroke-linejoin="round" stroke-linecap="round" stroke-width="0.1380" stroke="currentColor" x1="0" y1="0" x2="0" y2="-1.6000"/>
</g>
<g transform="translate(86.7854, 14.9109)">
<path transform="scale(0.0036, -0.0036)" d="M-103 250c5 0 10 -1 14 -5c40 -35 70 -79 89 -128c19 49 49 93 89 128c4 4 9 5 14 5c11 0 22 -10 22 -22c0 -6 -2 -12 -7 -16c-61 -54 -96 -131 -96 -212c0 -14 -11 -22 -22 -22s-22 8 -22 22c0 81 -35 158 -96 212c-5 4 -7 10 -7 16c0 12 11 22 22 22z" fill="currentColor"/>
</g>
<g color="rgb(50.0000%, 50.0000%, 50.0000%)">
<g transform="translate(87.3746, 18.3508)">
<path transform="scale(0.0040, -0.0040)" d="M218 136c55 0 108 -28 108 -89c0 -71 -55 -121 -102 -149c-35 -21 -75 -34 -116 -34c-55 0 -108 28 -108 89c0 71 55 121 102 149c35 21 75 34 116 34z" fill="currentColor"/>
</g>
</g>
<g color="rgb(50.0000%, 50.0000%, 50.0000%)">
<g transform="translate(86.1354, 20.3508)">
<path transform="scale(0.0040, -0.0040)" d="M218 136c55 0 108 -28 108 -89c0 -71 -55 -121 -102 -149c-35 -21 -75 -34 -116 -34c-55 0 -108 28 -108 89c0 71 55 121 102 149c35 21 75 34 116 34z" fill="currentColor"/>
</g>
</g>
<g transform="translate(86.1354, 18.3508)">
<path transform="scale(0.0040, -0.0040)" d="M218 136c55 0 108 -28 108 -89c0 -71 -55 -121 -102 -149c-35 -21 -75 -34 -116 -34c-55 0 -108 28 -108 89c0 71 55 121 102 149c35 21 75 34 116 34z" fill="currentColor"/>
</g>
<g transform="translate(102.3707, 18.3508)">
<path transform="scale(0.0040, -0.0040)" d="M314 65c0 24 -21 41 -42 41c-4 0 -8 0 -12 -1c-31 -9 -78 -40 -115 -64s-84 -53 -104 -78c-7 -8 -10 -18 -10 -28c0 -24 21 -41 42 -41c4 0 8 0 12 1c31 9 77 40 114 64s84 53 104 78c7 8 11 18 11 28zM262 136c46 0 82 -21 82 -71c0 -19 -4 -39 -10 -57
c-12 -37 -32 -72 -64 -94c-53 -36 -113 -50 -187 -50c-46 0 -83 21 -83 71c0 19 5 39 11 57c12 37 31 72 63 94c53 36 114 50 188 50z" fill="currentColor"/>
</g>
<g transform="translate(97.1657, 17.8508)">
<rect x="-0.0650" y="-1.0000" width="0.1300" height="3.3139" ry="0.0400" fill="currentColor"/>
</g>
<g transform="translate(96.5765, 14.8124)">
<line stroke-linejoin="round" stroke-linecap="round" stroke-width="0.1380" stroke="currentColor" x1="0" y1="0" x2="0" y2="-1.6000"/>
</g>
<g transform="translate(96.5765, 15.2624)">
<path transform="scale(0.0036, -0.0036)" d="M-103 250c5 0 10 -1 14 -5c40 -35 70 -79 89 -128c19 49 49 93 89 128c4 4 9 5 14 5c11 0 22 -10 22 -22c0 -6 -2 -12 -7 -16c-61 -54 -96 -131 -96 -212c0 -14 -11 -22 -22 -22s-22 8 -22 22c0 81 -35 158 -96 212c-5 4 -7 10 -7 16c0 12 11 22 22 22z" fill="currentColor"/>
</g>
<g transform="translate(95.9265, 20.3508)">
<path transform="scale(0.0040, -0.0040)" d="M218 136c55 0 108 -28 108 -89c0 -71 -55 -121 -102 -149c-35 -21 -75 -34 -116 -34c-55 0 -108 28 -108 89c0 71 55 121 102 149c35 21 75 34 116 34z" fill="currentColor"/>
</g>
<g transform="translate(93.4615, 17.8508)">
<rect x="-0.0650" y="-3.0000" width="0.1300" height="5.3139" ry="0.0400" fill="currentColor"/>
</g>
<g transform="translate(92.8722, 14.5109)">
<line stroke-linejoin="round" stroke-linecap="round" stroke-width="0.1380" stroke="currentColor" x1="0" y1="0" x2="0" y2="-1.6000"/>
</g>
<g transform="translate(92.8722, 14.9609)">
<path transform="scale(0.0036, -0.0036)" d="M-103 250c5 0 10 -1 14 -5c40 -35 70 -79 89 -128c19 49 49 93 89 128c4 4 9 5 14 5c11 0 22 -10 22 -22c0 -6 -2 -12 -7 -16c-61 -54 -96 -131 -96 -212c0 -14 -11 -22 -22 -22s-22 8 -22 22c0 81 -35 158 -96 212c-5 4 -7 10 -7 16c0 12 11 22 22 22z" fill="currentColor"/>
</g>
<g color="rgb(50.0000%, 50.0000%, 50.0000%)">
<g transform="translate(93.4615, 18.3508)">
<path transform="scale(0.0040, -0.0040)" d="M218 136c55 0 108 -28 108 -89c0 -71 -55 -121 -102 -149c-35 -21 -75 -34 -116 -34c-55 0 -108 28 -108 89c0 71 55 121 102 149c35 21 75 34 116 34z" fill="currentColor"/>
</g>
</g>
<g color="rgb(50.0000%, 50.0000%, 50.0000%)">
<g transform="translate(92.2222, 20.3508)">
<path transform="scale(0.0040, -0.0040)" d="M218 136c55 0 108 -28 108 -89c0 -71 -55 -121 -102 -149c-35 -21 -75 -34 -116 -34c-55 0 -108 28 -108 89c0 71 55 121 102 149c35 21 75 34 116 34z" fill="currentColor"/>
</g>
</g>
<g transform="translate(92.2222, 18.3508)">
<path transform="scale(0.0040, -0.0040)" d="M218 136c55 0 108 -28 108 -89c0 -71 -55 -121 -102 -149c-35 -21 -75 -34 -116 -34c-55 0 -108 28 -108 89c0 71 55 121 102 149c35 21 75 34 116 34z" fill="currentColor"/>
</g>
<g transform="translate(31.9107, 17.8508)">
<rect x="-0.0650" y="-2.0000" width="0.1300" height="4.3139" ry="0.0400" fill="currentColor"/>
</g>
<g transform="scale(1.0000, -1.0000)">
<g transform="translate(31.3214, -13.4818)">
<line stroke-linejoin="round" stroke-linecap="round" stroke-width="0.1380" stroke="currentColor" x1="0" y1="0" x2="0" y2="-1.6000"/>
</g>
<g transform="translate(31.3214, -13.0318)">
<path transform="scale(0.0036, -0.0036)" d="M-103 250c5 0 10 -1 14 -5c40 -35 70 -79 89 -128c19 49 49 93 89 128c4 4 9 5 14 5c11 0 22 -10 22 -22c0 -6 -2 -12 -7 -16c-61 -54 -96 -131 -96 -212c0 -14 -11 -22 -22 -22s-22 8 -22 22c0 81 -35 158 -96 212c-5 4 -7 10 -7 16c0 12 11 22 22 22z" fill="currentColor"/>
</g>
</g>
<g color="rgb(50.0000%, 50.0000%, 50.0000%)">
<g transform="translate(31.9107, 18.8508)">
<path transform="scale(0.0040, -0.0040)" d="M218 136c55 0 108 -28 108 -89c0 -71 -55 -121 -102 -149c-35 -21 -75 -34 -116 -34c-55 0 -108 28 -108 89c0 71 55 121 102 149c35 21 75 34 116 34z" fill="currentColor"/>
</g>
</g>
<g color="rgb(50.0000%, 50.0000%, 50.0000%)">
<g transform="translate(30.6714, 20.3508)">
<path transform="scale(0.0040, -0.0040)" d="M218 136c55 0 108 -28 108 -89c0 -71 -55 -121 -102 -149c-35 -21 -75 -34 -116 -34c-55 0 -108 28 -108 89c0 71 55 121 102 149c35 21 75 34 116 34z" fill="currentColor"/>
</g>
</g>
<g transform="translate(30.6714, 18.8508)">
<path transform="scale(0.0040, -0.0040)" d="M218 136c55 0 108 -28 108 -89c0 -71 -55 -121 -102 -149c-35 -21 -75 -34 -116 -34c-55 0 -108 28 -108 89c0 71 55 121 102 149c35 21 75 34 116 34z" fill="currentColor"/>
</g>
<g transform="translate(28.8672, 17.8508)">
<rect x="-0.0650" y="-2.0000" width="0.1300" height="4.3139" ry="0.0400" fill="currentColor"/>
</g>
<g transform="translate(28.2780, 14.8124)">
<line stroke-linejoin="round" stroke-linecap="round" stroke-width="0.1380" stroke="currentColor" x1="0" y1="0" x2="0" y2="-1.6000"/>
</g>
<g transform="translate(28.2780, 15.2624)">
<path transform="scale(0.0036, -0.0036)" d="M-103 250c5 0 10 -1 14 -5c40 -35 70 -79 89 -128c19 49 49 93 89 128c4 4 9 5 14 5c11 0 22 -10 22 -22c0 -6 -2 -12 -7 -16c-61 -54 -96 -131 -96 -212c0 -14 -11 -22 -22 -22s-22 8 -22 22c0 81 -35 158 -96 212c-5 4 -7 10 -7 16c0 12 11 22 22 22z" fill="currentColor"/>
</g>
<g color="rgb(50.0000%, 50.0000%, 50.0000%)">
<g transform="translate(28.8672, 18.8508)">
<path transform="scale(0.0040, -0.0040)" d="M218 136c55 0 108 -28 108 -89c0 -71 -55 -121 -102 -149c-35 -21 -75 -34 -116 -34c-55 0 -108 28 -108 89c0 71 55 121 102 149c35 21 75 34 116 34z" fill="currentColor"/>
</g>
</g>
<g transform="translate(38.6583, 17.8508)">
<rect x="-0.0650" y="-3.0000" width="0.1300" height="5.3139" ry="0.0400" fill="currentColor"/>
</g>
<g color="rgb(50.0000%, 50.0000%, 50.0000%)">
<g transform="translate(38.6583, 18.3508)">
<path transform="scale(0.0040, -0.0040)" d="M218 136c55 0 108 -28 108 -89c0 -71 -55 -121 -102 -149c-35 -21 -75 -34 -116 -34c-55 0 -108 28 -108 89c0 71 55 121 102 149c35 21 75 34 116 34z" fill="currentColor"/>
</g>
</g>
<g color="rgb(50.0000%, 50.0000%, 50.0000%)">
<g transform="translate(37.4191, 20.3508)">
<path transform="scale(0.0040, -0.0040)" d="M218 136c55 0 108 -28 108 -89c0 -71 -55 -121 -102 -149c-35 -21 -75 -34 -116 -34c-55 0 -108 28 -108 89c0 71 55 121 102 149c35 21 75 34 116 34z" fill="currentColor"/>
</g>
</g>
<g transform="translate(37.4191, 18.3508)">
<path transform="scale(0.0040, -0.0040)" d="M218 136c55 0 108 -28 108 -89c0 -71 -55 -121 -102 -149c-35 -21 -75 -34 -116 -34c-55 0 -108 28 -108 89c0 71 55 121 102 149c35 21 75 34 116 34z" fill="currentColor"/>
</g>
<g color="rgb(50.0000%, 50.0000%, 50.0000%)">
<g transform="translate(27.6280, 20.3508)">
<path transform="scale(0.0040, -0.0040)" d="M218 136c55 0 108 -28 108 -89c0 -71 -55 -121 -102 -149c-35 -21 -75 -34 -116 -34c-55 0 -108 28 -108 89c0 71 55 121 102 149c35 21 75 34 116 34z" fill="currentColor"/>
</g>
</g>
<g transform="translate(34.9541, 17.8508)">
<rect x="-0.0650" y="-3.0000" width="0.1300" height="5.3139" ry="0.0400" fill="currentColor"/>
</g>
<g transform="translate(34.3649, 14.5109)">
<line stroke-linejoin="round" stroke-linecap="round" stroke-width="0.1380" stroke="currentColor" x1="0" y1="0" x2="0" y2="-1.6000"/>
</g>
<g transform="translate(34.3649, 14.9609)">
<path transform="scale(0.0036, -0.0036)" d="M-103 250c5 0 10 -1 14 -5c40 -35 70 -79 89 -128c19 49 49 93 89 128c4 4 9 5 14 5c11 0 22 -10 22 -22c0 -6 -2 -12 -7 -16c-61 -54 -96 -131 -96 -212c0 -14 -11 -22 -22 -22s-22 8 -22 22c0 81 -35 158 -96 212c-5 4 -7 10 -7 16c0 12 11 22 22 22z" fill="currentColor"/>
</g>
<g color="rgb(50.0000%, 50.0000%, 50.0000%)">
<g transform="translate(34.9541, 18.3508)">
<path transform="scale(0.0040, -0.0040)" d="M218 136c55 0 108 -28 108 -89c0 -71 -55 -121 -102 -149c-35 -21 -75 -34 -116 -34c-55 0 -108 28 -108 89c0 71 55 121 102 149c35 21 75 34 116 34z" fill="currentColor"/>
</g>
</g>
<g color="rgb(50.0000%, 50.0000%, 50.0000%)">
<g transform="translate(33.7149, 20.3508)">
<path transform="scale(0.0040, -0.0040)" d="M218 136c55 0 108 -28 108 -89c0 -71 -55 -121 -102 -149c-35 -21 -75 -34 -116 -34c-55 0 -108 28 -108 89c0 71 55 121 102 149c35 21 75 34 116 34z" fill="currentColor"/>
</g>
</g>
<g transform="translate(33.7149, 18.3508)">
<path transform="scale(0.0040, -0.0040)" d="M218 136c55 0 108 -28 108 -89c0 -71 -55 -121 -102 -149c-35 -21 -75 -34 -116 -34c-55 0 -108 28 -108 89c0 71 55 121 102 149c35 21 75 34 116 34z" fill="currentColor"/>
</g>
<g transform="translate(13.6606, 17.8508)">
<path transform="scale(0.0040, -0.0040)" d="M196 117h117c0 -48 27 -94 72 -94c8 0 12 -5 12 -11s-4 -12 -12 -12c-44 0 -87 13 -131 13s-87 -13 -131 -13c-8 0 -12 6 -12 12s4 11 12 11c45 0 73 46 73 94zM204 307c22 14 44 29 60 50c11 15 19 33 27 50c2 4 5 6 9 6c6 0 13 -5 13 -14v-245h72c10 0 15 -7 15 -14
s-5 -15 -15 -15h-72v-8h-117v8h-167c-23 0 -31 14 -31 23c0 3 1 5 2 6c80 93 138 207 138 330c0 10 7 19 16 16c23 -7 47 -13 71 -13s48 6 71 13c14 4 23 -9 17 -16l-284 -330h167v131c0 8 1 17 8 22z" fill="currentColor"/>
</g>
<g transform="translate(13.6606, 19.8669)">
<path transform="scale(0.0040, -0.0040)" d="M196 117h117c0 -48 27 -94 72 -94c8 0 12 -5 12 -11s-4 -12 -12 -12c-44 0 -87 13 -131 13s-87 -13 -131 -13c-8 0 -12 6 -12 12s4 11 12 11c45 0 73 46 73 94zM204 307c22 14 44 29 60 50c11 15 19 33 27 50c2 4 5 6 9 6c6 0 13 -5 13 -14v-245h72c10 0 15 -7 15 -14
s-5 -15 -15 -15h-72v-8h-117v8h-167c-23 0 -31 14 -31 23c0 3 1 5 2 6c80 93 138 207 138 330c0 10 7 19 16 16c23 -7 47 -13 71 -13s48 6 71 13c14 4 23 -9 17 -16l-284 -330h167v131c0 8 1 17 8 22z" fill="currentColor"/>
</g>
<g transform="translate(18.5045, 17.8508)">
<rect x="-0.0650" y="-1.0000" width="0.1300" height="3.3139" ry="0.0400" fill="currentColor"/>
</g>
<g transform="translate(10.1106, 17.8508)">
<path transform="scale(0.0040, -0.0040)" d="M143 41c-1 33 -22 63 -53 63c-29 0 -43 -34 -43 -67c0 -59 48 -101 93 -139c3 22 4 44 4 66v11zM185 -138c0 -14 -10 -25 -23 -25c-21 0 -30 25 -45 38c-61 52 -147 89 -147 169c0 54 37 102 89 102c33 0 66 -13 91 -34l-7 345c8 5 18 8 27 8s19 -3 27 -8z" fill="currentColor"/>
</g>
<g transform="translate(11.4106, 15.8508)">
<path transform="scale(0.0040, -0.0040)" d="M0 119c0 8 5 15 13 18l46 17v158c0 10 8 19 18 19s19 -9 19 -19v-145l83 31v158c0 10 9 19 19 19s18 -9 18 -19v-145l32 12c2 1 5 1 7 1c11 0 20 -9 20 -20v-60c0 -8 -5 -16 -13 -19l-46 -16v-160l32 11c2 1 5 1 7 1c11 0 20 -9 20 -20v-60c0 -8 -5 -15 -13 -18l-46 -17
v-158c0 -10 -8 -19 -18 -19s-19 9 -19 19v145l-83 -31v-158c0 -10 -9 -19 -19 -19s-18 9 -18 19v145l-32 -12c-2 -1 -5 -1 -7 -1c-11 0 -20 9 -20 20v60c0 8 5 16 13 19l46 16v160l-32 -11c-2 -1 -5 -1 -7 -1c-11 0 -20 9 -20 20v60zM179 95l-83 -30v-160l83 30v160z" fill="currentColor"/>
</g>
<g transform="translate(6.4906, 18.8508)">
<path transform="scale(0.0040, -0.0040)" d="M266 -635h-6c-108 0 -195 88 -195 197c0 58 53 103 112 103c54 0 95 -47 95 -103c0 -52 -43 -95 -95 -95c-11 0 -21 2 -31 6c26 -39 68 -65 117 -65h4zM461 -203c68 24 113 95 113 164c0 90 -66 179 -173 190c24 -116 46 -231 60 -354zM74 28c0 -135 129 -247 264 -247
c28 0 55 2 82 6c-14 127 -37 245 -63 364c-79 -8 -124 -61 -124 -119c0 -44 25 -91 81 -123c5 -5 7 -10 7 -15c0 -11 -10 -22 -22 -22c-3 0 -6 1 -9 2c-80 43 -117 115 -117 185c0 88 58 174 160 197c-14 58 -29 117 -46 175c-107 -121 -213 -243 -213 -403zM335 -262
c-188 0 -333 172 -333 374c0 177 131 306 248 441c-19 62 -37 125 -45 190c-6 52 -7 104 -7 156c0 115 55 224 149 292c6 5 14 5 20 0c71 -84 133 -245 133 -358c0 -143 -86 -255 -180 -364c21 -68 39 -138 56 -207c4 0 9 1 13 1c155 0 256 -128 256 -261
c0 -76 -33 -154 -107 -210c-22 -17 -47 -28 -73 -36c3 -35 5 -70 5 -105c0 -19 -1 -39 -2 -58c-7 -119 -88 -225 -202 -228l1 43c93 2 153 92 159 191c1 18 2 37 2 55c0 31 -1 61 -4 92c-29 -5 -58 -8 -89 -8zM428 916c0 55 -4 79 -20 129c-99 -48 -162 -149 -162 -259
c0 -74 18 -133 36 -194c80 97 146 198 146 324z" fill="currentColor"/>
</g>
<g transform="translate(17.9153, 14.8124)">
<line stroke-linejoin="round" stroke-linecap="round" stroke-width="0.1380" stroke="currentColor" x1="0" y1="0" x2="0" y2="-1.6000"/>
</g>
<g transform="translate(17.9153, 15.2624)">
<path transform="scale(0.0036, -0.0036)" d="M-103 250c5 0 10 -1 14 -5c40 -35 70 -79 89 -128c19 49 49 93 89 128c4 4 9 5 14 5c11 0 22 -10 22 -22c0 -6 -2 -12 -7 -16c-61 -54 -96 -131 -96 -212c0 -14 -11 -22 -22 -22s-22 8 -22 22c0 81 -35 158 -96 212c-5 4 -7 10 -7 16c0 12 11 22 22 22z" fill="currentColor"/>
</g>
<g transform="translate(17.2653, 20.3508)">
<path transform="scale(0.0040, -0.0040)" d="M218 136c55 0 108 -28 108 -89c0 -71 -55 -121 -102 -149c-35 -21 -75 -34 -116 -34c-55 0 -108 28 -108 89c0 71 55 121 102 149c35 21 75 34 116 34z" fill="currentColor"/>
</g>
<g transform="translate(102.3107, 10.7820)">
<g>
<path transform="scale(0.0025, -0.0025)" d="M132 149c36 0 75 -13 113 -41c18 -13 38 -21 55 -21c18 0 33 8 37 25c3 11 12 16 20 16c11 0 21 -9 21 -21c0 -2 0 -4 -1 -6c-17 -64 -80 -101 -142 -101c-39 0 -76 15 -102 47c-11 13 -26 19 -40 19c-25 0 -48 -18 -51 -47c-1 -13 -11 -19 -21 -19c-11 0 -21 7 -21 20
c0 172 232 160 232 335c0 51 -18 103 -62 103c-31 0 -62 -13 -62 -41c0 -25 33 -39 33 -64c0 -35 -29 -63 -64 -63s-63 28 -63 63c0 83 71 147 156 147c97 0 189 -56 189 -145c0 -141 -133 -154 -227 -206z" fill="currentColor"/>

<path transform="translate(0.9902, 0.0000) scale(0.0025, -0.0025)" d="M0 53c0 29 24 53 53 53s53 -24 53 -53s-24 -53 -53 -53s-53 24 -53 53z" fill="currentColor"/>
</g>
</g>
<g transform="translate(100.3807, 9.0219)">
<line stroke-linejoin="round" stroke-linecap="round" stroke-width="0.1600" stroke="currentColor" x1="13.2047" y1="-0.0000" x2="13.2047" y2="2.0000"/>
</g>
<g transform="translate(100.3807, 9.0219)">
<line stroke-linejoin="round" stroke-linecap="round" stroke-width="0.1600" stroke="currentColor" x1="1.0100" y1="-0.0000" x2="1.0100" y2="2.0000"/>
</g>
<g transform="translate(100.3807, 9.0219)">
<line stroke-linejoin="round" stroke-linecap="round" stroke-width="0.1600" stroke="currentColor" x1="1.0100" y1="-0.0000" x2="13.2047" y2="-0.0000"/>
</g>
<g transform="translate(27.6280, 18.8508)">
<path transform="scale(0.0040, -0.0040)" d="M218 136c55 0 108 -28 108 -89c0 -71 -55 -121 -102 -149c-35 -21 -75 -34 -116 -34c-55 0 -108 28 -108 89c0 71 55 121 102 149c35 21 75 34 116 34z" fill="currentColor"/>
</g>
<g transform="scale(1.0000, -1.0000)">
<g transform="translate(38.0691, -13.6718)">
<line stroke-linejoin="round" stroke-linecap="round" stroke-width="0.1380" stroke="currentColor" x1="0" y1="0" x2="0" y2="-1.6000"/>
</g>
<g transform="translate(38.0691, -13.2218)">
<path transform="scale(0.0036, -0.0036)" d="M-103 250c5 0 10 -1 14 -5c40 -35 70 -79 89 -128c19 49 49 93 89 128c4 4 9 5 14 5c11 0 22 -10 22 -22c0 -6 -2 -12 -7 -16c-61 -54 -96 -131 -96 -212c0 -14 -11 -22 -22 -22s-22 8 -22 22c0 81 -35 158 -96 212c-5 4 -7 10 -7 16c0 12 11 22 22 22z" fill="currentColor"/>
</g>
</g>
<g transform="translate(25.1630, 17.8508)">
<rect x="-0.0650" y="-2.5000" width="0.1300" height="4.8139" ry="0.0400" fill="currentColor"/>
</g>
<g transform="translate(24.5738, 14.8124)">
<line stroke-linejoin="round" stroke-linecap="round" stroke-width="0.1380" stroke="currentColor" x1="0" y1="0" x2="0" y2="-1.6000"/>
</g>
<g transform="translate(24.5738, 15.2624)">
<path transform="scale(0.0036, -0.0036)" d="M-103 250c5 0 10 -1 14 -5c40 -35 70 -79 89 -128c19 49 49 93 89 128c4 4 9 5 14 5c11 0 22 -10 22 -22c0 -6 -2 -12 -7 -16c-61 -54 -96 -131 -96 -212c0 -14 -11 -22 -22 -22s-22 8 -22 22c0 81 -35 158 -96 212c-5 4 -7 10 -7 16c0 12 11 22 22 22z" fill="currentColor"/>
</g>
<g color="rgb(50.0000%, 50.0000%, 50.0000%)">
<g transform="translate(25.1630, 18.8508)">
<path transform="scale(0.0040, -0.0040)" d="M218 136c55 0 108 -28 108 -89c0 -71 -55 -121 -102 -149c-35 -21 -75 -34 -116 -34c-55 0 -108 28 -108 89c0 71 55 121 102 149c35 21 75 34 116 34z" fill="currentColor"/>
</g>
</g>
<g color="rgb(50.0000%, 50.0000%, 50.0000%)">
<g transform="translate(23.9238, 20.3508)">
<path transform="scale(0.0040, -0.0040)" d="M218 136c55 0 108 -28 108 -89c0 -71 -55 -121 -102 -149c-35 -21 -75 -34 -116 -34c-55 0 -108 28 -108 89c0 71 55 121 102 149c35 21 75 34 116 34z" fill="currentColor"/>
</g>
</g>
<g transform="translate(23.9238, 18.8508)">
<path transform="scale(0.0040, -0.0040)" d="M218 136c55 0 108 -28 108 -89c0 -71 -55 -121 -102 -149c-35 -21 -75 -34 -116 -34c-55 0 -108 28 -108 89c0 71 55 121 102 149c35 21 75 34 116 34z" fill="currentColor"/>
</g>
<g transform="translate(53.8047, 17.8508)">
<rect x="-0.0650" y="-2.5000" width="0.1300" height="4.8139" ry="0.0400" fill="currentColor"/>
</g>
<g transform="translate(53.2155, 14.8124)">
<line stroke-linejoin="round" stroke-linecap="round" stroke-width="0.1380" stroke="currentColor" x1="0" y1="0" x2="0" y2="-1.6000"/>
</g>
<g transform="translate(53.2155, 15.2624)">
<path transform="scale(0.0036, -0.0036)" d="M-103 250c5 0 10 -1 14 -5c40 -35 70 -79 89 -128c19 49 49 93 89 128c4 4 9 5 14 5c11 0 22 -10 22 -22c0 -6 -2 -12 -7 -16c-61 -54 -96 -131 -96 -212c0 -14 -11 -22 -22 -22s-22 8 -22 22c0 81 -35 158 -96 212c-5 4 -7 10 -7 16c0 12 11 22 22 22z" fill="currentColor"/>
</g>
<g color="rgb(50.0000%, 50.0000%, 50.0000%)">
<g transform="translate(53.8047, 18.8508)">
<path transform="scale(0.0040, -0.0040)" d="M218 136c55 0 108 -28 108 -89c0 -71 -55 -121 -102 -149c-35 -21 -75 -34 -116 -34c-55 0 -108 28 -108 89c0 71 55 121 102 149c35 21 75 34 116 34z" fill="currentColor"/>
</g>
</g>
<g color="rgb(50.0000%, 50.0000%, 50.0000%)">
<g transform="translate(52.5655, 20.3508)">
<path transform="scale(0.0040, -0.0040)" d="M218 136c55 0 108 -28 108 -89c0 -71 -55 -121 -102 -149c-35 -21 -75 -34 -116 -34c-55 0 -108 28 -108 89c0 71 55 121 102 149c35 21 75 34 116 34z" fill="currentColor"/>
</g>
</g>
<g transform="translate(52.5655, 18.8508)">
<path transform="scale(0.0040, -0.0040)" d="M218 136c55 0 108 -28 108 -89c0 -71 -55 -121 -102 -149c-35 -21 -75 -34 -116 -34c-55 0 -108 28 -108 89c0 71 55 121 102 149c35 21 75 34 116 34z" fill="currentColor"/>
</g>
<g transform="translate(51.3005, 17.8508)">
<rect x="-0.0650" y="-2.8147" width="0.1300" height="3.1286" ry="0.0400" fill="currentColor"/>
</g>
<g transform="translate(50.0613, 18.3508)">
<path transform="scale(0.0040, -0.0040)" d="M218 136c55 0 108 -28 108 -89c0 -71 -55 -121 -102 -149c-35 -21 -75 -34 -116 -34c-55 0 -108 28 -108 89c0 71 55 121 102 149c35 21 75 34 116 34z" fill="currentColor"/>
</g>
<g transform="translate(62.0962, 14.8124)">
<line stroke-linejoin="round" stroke-linecap="round" stroke-width="0.1380" stroke="currentColor" x1="0" y1="0" x2="0" y2="-1.6000"/>
</g>
<g transform="translate(62.0962, 15.2624)">
<path transform="scale(0.0036, -0.0036)" d="M-103 250c5 0 10 -1 14 -5c40 -35 70 -79 89 -128c19 49 49 93 89 128c4 4 9 5 14 5c11 0 22 -10 22 -22c0 -6 -2 -12 -7 -16c-61 -54 -96 -131 -96 -212c0 -14 -11 -22 -22 -22s-22 8 -22 22c0 81 -35 158 -96 212c-5 4 -7 10 -7 16c0 12 11 22 22 22z" fill="currentColor"/>
</g>
<g transform="translate(61.4462, 17.3508)">
<path transform="scale(0.0040, -0.0040)" d="M218 136c55 0 108 -28 108 -89c0 -71 -55 -121 -102 -149c-35 -21 -75 -34 -116 -34c-55 0 -108 28 -108 89c0 71 55 121 102 149c35 21 75 34 116 34z" fill="currentColor"/>
</g>
<g transform="scale(1.0000, -1.0000)">
<g transform="translate(50.7113, -12.6296)">
<line stroke-linejoin="round" stroke-linecap="round" stroke-width="0.1380" stroke="currentColor" x1="0" y1="0" x2="0" y2="-1.6000"/>
</g>
<g transform="translate(50.7113, -12.1796)">
<path transform="scale(0.0036, -0.0036)" d="M-103 250c5 0 10 -1 14 -5c40 -35 70 -79 89 -128c19 49 49 93 89 128c4 4 9 5 14 5c11 0 22 -10 22 -22c0 -6 -2 -12 -7 -16c-61 -54 -96 -131 -96 -212c0 -14 -11 -22 -22 -22s-22 8 -22 22c0 81 -35 158 -96 212c-5 4 -7 10 -7 16c0 12 11 22 22 22z" fill="currentColor"/>
</g>
</g>
<g transform="translate(57.5090, 17.8508)">
<rect x="-0.0650" y="-2.5000" width="0.1300" height="4.8139" ry="0.0400" fill="currentColor"/>
</g>
<g transform="scale(1.0000, -1.0000)">
<g transform="translate(56.9197, -13.6718)">
<line stroke-linejoin="round" stroke-linecap="round" stroke-width="0.1380" stroke="currentColor" x1="0" y1="0" x2="0" y2="-1.6000"/>
</g>
<g transform="translate(56.9197, -13.2218)">
<path transform="scale(0.0036, -0.0036)" d="M-103 250c5 0 10 -1 14 -5c40 -35 70 -79 89 -128c19 49 49 93 89 128c4 4 9 5 14 5c11 0 22 -10 22 -22c0 -6 -2 -12 -7 -16c-61 -54 -96 -131 -96 -212c0 -14 -11 -22 -22 -22s-22 8 -22 22c0 81 -35 158 -96 212c-5 4 -7 10 -7 16c0 12 11 22 22 22z" fill="currentColor"/>
</g>
</g>
<g color="rgb(50.0000%, 50.0000%, 50.0000%)">
<g transform="translate(57.5090, 18.8508)">
<path transform="scale(0.0040, -0.0040)" d="M218 136c55 0 108 -28 108 -89c0 -71 -55 -121 -102 -149c-35 -21 -75 -34 -116 -34c-55 0 -108 28 -108 89c0 71 55 121 102 149c35 21 75 34 116 34z" fill="currentColor"/>
</g>
</g>
<g color="rgb(50.0000%, 50.0000%, 50.0000%)">
<g transform="translate(56.2697, 20.3508)">
<path transform="scale(0.0040, -0.0040)" d="M218 136c55 0 108 -28 108 -89c0 -71 -55 -121 -102 -149c-35 -21 -75 -34 -116 -34c-55 0 -108 28 -108 89c0 71 55 121 102 149c35 21 75 34 116 34z" fill="currentColor"/>
</g>
</g>
<g transform="translate(56.2697, 18.8508)">
<path transform="scale(0.0040, -0.0040)" d="M218 136c55 0 108 -28 108 -89c0 -71 -55 -121 -102 -149c-35 -21 -75 -34 -116 -34c-55 0 -108 28 -108 89c0 71 55 121 102 149c35 21 75 34 116 34z" fill="currentColor"/>
</g>
<g transform="translate(45.1362, 17.8508)">
<rect x="-0.0650" y="-0.3139" width="0.1300" height="3.1286" ry="0.0400" fill="currentColor"/>
</g>
<g transform="scale(1.0000, -1.0000)">
<g transform="translate(45.7212, -13.6718)">
<line stroke-linejoin="round" stroke-linecap="round" stroke-width="0.1380" stroke="currentColor" x1="0" y1="0" x2="0" y2="-1.6000"/>
</g>
<g transform="translate(45.7212, -13.2218)">
<path transform="scale(0.0036, -0.0036)" d="M-103 250c5 0 10 -1 14 -5c40 -35 70 -79 89 -128c19 49 49 93 89 128c4 4 9 5 14 5c11 0 22 -10 22 -22c0 -6 -2 -12 -7 -16c-61 -54 -96 -131 -96 -212c0 -14 -11 -22 -22 -22s-22 8 -22 22c0 81 -35 158 -96 212c-5 4 -7 10 -7 16c0 12 11 22 22 22z" fill="currentColor"/>
</g>
</g>
<g transform="translate(45.0712, 17.3508)">
<path transform="scale(0.0040, -0.0040)" d="M218 136c55 0 108 -28 108 -89c0 -71 -55 -121 -102 -149c-35 -21 -75 -34 -116 -34c-55 0 -108 28 -108 89c0 71 55 121 102 149c35 21 75 34 116 34z" fill="currentColor"/>
</g>
<g transform="translate(48.7963, 17.8508)">
<rect x="-0.0650" y="-2.9953" width="0.1300" height="2.8092" ry="0.0400" fill="currentColor"/>
</g>
<g transform="translate(47.5571, 17.8508)">
<path transform="scale(0.0040, -0.0040)" d="M218 136c55 0 108 -28 108 -89c0 -71 -55 -121 -102 -149c-35 -21 -75 -34 -116 -34c-55 0 -108 28 -108 89c0 71 55 121 102 149c35 21 75 34 116 34z" fill="currentColor"/>
</g>
<g transform="translate(43.2169, 14.8124)">
<line stroke-linejoin="round" stroke-linecap="round" stroke-width="0.1380" stroke="currentColor" x1="0" y1="0" x2="0" y2="-1.6000"/>
</g>
<g transform="translate(43.2169, 15.2624)">
<path transform="scale(0.0036, -0.0036)" d="M-103 250c5 0 10 -1 14 -5c40 -35 70 -79 89 -128c19 49 49 93 89 128c4 4 9 5 14 5c11 0 22 -10 22 -22c0 -6 -2 -12 -7 -16c-61 -54 -96 -131 -96 -212c0 -14 -11 -22 -22 -22s-22 8 -22 22c0 81 -35 158 -96 212c-5 4 -7 10 -7 16c0 12 11 22 22 22z" fill="currentColor"/>
</g>
<g transform="translate(48.2071, 14.2709)">
<line stroke-linejoin="round" stroke-linecap="round" stroke-width="0.1380" stroke="currentColor" x1="0" y1="0" x2="0" y2="-1.6000"/>
</g>
<g transform="translate(48.2071, 14.7209)">
<path transform="scale(0.0036, -0.0036)" d="M-103 250c5 0 10 -1 14 -5c40 -35 70 -79 89 -128c19 49 49 93 89 128c4 4 9 5 14 5c11 0 22 -10 22 -22c0 -6 -2 -12 -7 -16c-61 -54 -96 -131 -96 -212c0 -14 -11 -22 -22 -22s-22 8 -22 22c0 81 -35 158 -96 212c-5 4 -7 10 -7 16c0 12 11 22 22 22z" fill="currentColor"/>
</g>
<g transform="translate(42.5669, 17.8508)">
<path transform="scale(0.0040, -0.0040)" d="M218 136c55 0 108 -28 108 -89c0 -71 -55 -121 -102 -149c-35 -21 -75 -34 -116 -34c-55 0 -108 28 -108 89c0 71 55 121 102 149c35 21 75 34 116 34z" fill="currentColor"/>
</g>
<g transform="translate(42.6319, 17.8508)">
<rect x="-0.0650" y="0.1861" width="0.1300" height="2.8092" ry="0.0400" fill="currentColor"/>
</g>
<g transform="translate(54.0830, 32.3635)">
<text font-family="serif" font-size="2.2001" text-anchor="start" fill="currentColor">
<tspan>Χ. Κόχυλας</tspan>
</text>
</g>
<g transform="translate(30.6607, 35.8915)">
<a xlink:href="https://lilypond.org/">
<rect x="0.0000" y="-0.5280" width="58.1802" height="2.2001" fill="none" stroke="none" stroke-width="0.0"/>
</a>
</g>
<g transform="translate(30.6607, 35.8915)">
<text font-family="serif" font-size="2.2001" text-anchor="start" fill="currentColor">
<tspan>Music engraving by LilyPond 2.24.4—www.lilypond.org</tspan>
</text>
</g>
</svg>
