<svg xmlns="http://www.w3.org/2000/svg" xmlns:xlink="http://www.w3.org/1999/xlink" version="1.2" width="210.00mm" height="65.00mm" viewBox="0.0000 -0.0000 119.5016 36.9886">
<style type="text/css">
<![CDATA[
tspan { white-space: pre; }
]]>
</style>
<g transform="translate(43.1059, 6.6255)">
<text font-family="serif" font-weight="bold" font-size="3.4927" text-anchor="start" fill="currentColor">
<tspan>Κάτω στο γιαλό (α)</tspan>
</text>
</g>
<g transform="translate(51.5393, 10.1255)">
<text font-family="serif" font-weight="bold" font-size="2.4696" text-anchor="start" fill="currentColor">
<tspan>Αιγαίο (Χίος)</tspan>
</text>
</g>
<g transform="translate(5.6906, 21.3129)">
<line stroke-linejoin="round" stroke-linecap="round" stroke-width="0.1000" stroke="currentColor" x1="0.0500" y1="0" x2="108.0705" y2="0"/>
</g>
<g transform="translate(5.6906, 20.3129)">
<line stroke-linejoin="round" stroke-linecap="round" stroke-width="0.1000" stroke="currentColor" x1="0.0500" y1="0" x2="108.0705" y2="0"/>
</g>
<g transform="translate(5.6906, 19.3129)">
<line stroke-linejoin="round" stroke-linecap="round" stroke-width="0.1000" stroke="currentColor" x1="0.0500" y1="0" x2="108.0705" y2="0"/>
</g>
<g transform="translate(5.6906, 18.3129)">
<line stroke-linejoin="round" stroke-linecap="round" stroke-width="0.1000" stroke="currentColor" x1="0.0500" y1="0" x2="108.0705" y2="0"/>
</g>
<g transform="translate(5.6906, 17.3129)">
<line stroke-linejoin="round" stroke-linecap="round" stroke-width="0.1000" stroke="currentColor" x1="0.0500" y1="0" x2="108.0705" y2="0"/>
</g>
<g transform="translate(38.6632, 19.3129)">
<rect x="0.0000" y="-2.0000" width="0.1900" height="4.0000" ry="0.0000" fill="currentColor"/>
</g>
<g transform="translate(88.0261, 19.3129)">
<rect x="0.0000" y="-2.0000" width="0.1900" height="4.0000" ry="0.0000" fill="currentColor"/>
</g>
<g transform="translate(100.3400, 19.3129)">
<rect x="0.0000" y="-2.0000" width="0.1900" height="4.0000" ry="0.0000" fill="currentColor"/>
</g>
<g transform="translate(27.3091, 19.3129)">
<rect x="0.0000" y="-2.0000" width="0.1900" height="4.0000" ry="0.0000" fill="currentColor"/>
</g>
<g transform="translate(50.0174, 19.3129)">
<rect x="0.0000" y="-2.0000" width="0.1900" height="4.0000" ry="0.0000" fill="currentColor"/>
</g>
<g transform="translate(76.1583, 19.3129)">
<rect x="0.0000" y="-2.0000" width="0.1900" height="4.0000" ry="0.0000" fill="currentColor"/>
</g>
<g transform="translate(111.9710, 18.8129)">
<path transform="scale(0.0040, -0.0040)" d="M0 0c0 31 25 56 56 56s56 -25 56 -56s-25 -56 -56 -56s-56 25 -56 56z" fill="currentColor"/>
</g>
<g transform="translate(111.9710, 19.8129)">
<path transform="scale(0.0040, -0.0040)" d="M0 0c0 31 25 56 56 56s56 -25 56 -56s-25 -56 -56 -56s-56 25 -56 56z" fill="currentColor"/>
</g>
<g transform="translate(113.2110, 19.3129)">
<rect x="0.0000" y="-2.0000" width="0.6000" height="4.0000" ry="0.0000" fill="currentColor"/>
</g>
<g transform="translate(112.7210, 19.3129)">
<rect x="0.0000" y="-2.0000" width="0.1900" height="4.0000" ry="0.0000" fill="currentColor"/>
</g>
<g transform="translate(60.9544, 18.8129)">
<path transform="scale(0.0040, -0.0040)" d="M0 0c0 31 25 56 56 56s56 -25 56 -56s-25 -56 -56 -56s-56 25 -56 56z" fill="currentColor"/>
</g>
<g transform="translate(60.9544, 19.8129)">
<path transform="scale(0.0040, -0.0040)" d="M0 0c0 31 25 56 56 56s56 -25 56 -56s-25 -56 -56 -56s-56 25 -56 56z" fill="currentColor"/>
</g>
<g transform="translate(63.5844, 18.8129)">
<path transform="scale(0.0040, -0.0040)" d="M0 0c0 31 25 56 56 56s56 -25 56 -56s-25 -56 -56 -56s-56 25 -56 56z" fill="currentColor"/>
</g>
<g transform="translate(63.5844, 19.8129)">
<path transform="scale(0.0040, -0.0040)" d="M0 0c0 31 25 56 56 56s56 -25 56 -56s-25 -56 -56 -56s-56 25 -56 56z" fill="currentColor"/>
</g>
<g transform="translate(63.0944, 19.3129)">
<rect x="0.0000" y="-2.0000" width="0.1900" height="4.0000" ry="0.0000" fill="currentColor"/>
</g>
<g transform="translate(62.1944, 19.3129)">
<rect x="0.0000" y="-2.0000" width="0.6000" height="4.0000" ry="0.0000" fill="currentColor"/>
</g>
<g transform="translate(61.7044, 19.3129)">
<rect x="0.0000" y="-2.0000" width="0.1900" height="4.0000" ry="0.0000" fill="currentColor"/>
</g>
<g transform="translate(5.6906, 22.3129)">
<rect x="95.1691" y="-0.1000" width="2.9415" height="0.2000" ry="0.1000" fill="currentColor"/>
</g>
<g transform="translate(5.6906, 22.3129)">
<rect x="91.7060" y="-0.1000" width="1.7303" height="0.2000" ry="0.1000" fill="currentColor"/>
</g>
<g transform="translate(5.6906, 23.3129)">
<rect x="91.7060" y="-0.1000" width="1.7303" height="0.2000" ry="0.1000" fill="currentColor"/>
</g>
<g transform="translate(5.6906, 22.3129)">
<rect x="88.6365" y="-0.1000" width="1.9563" height="0.2000" ry="0.1000" fill="currentColor"/>
</g>
<g transform="translate(5.6906, 23.3129)">
<rect x="88.6365" y="-0.1000" width="1.9563" height="0.2000" ry="0.1000" fill="currentColor"/>
</g>
<g transform="translate(5.6906, 22.3129)">
<rect x="70.9874" y="-0.1000" width="2.9415" height="0.2000" ry="0.1000" fill="currentColor"/>
</g>
<g transform="translate(5.6906, 22.3129)">
<rect x="67.5243" y="-0.1000" width="1.7303" height="0.2000" ry="0.1000" fill="currentColor"/>
</g>
<g transform="translate(5.6906, 23.3129)">
<rect x="67.5243" y="-0.1000" width="1.7303" height="0.2000" ry="0.1000" fill="currentColor"/>
</g>
<g transform="translate(5.6906, 22.3129)">
<rect x="64.4549" y="-0.1000" width="1.9563" height="0.2000" ry="0.1000" fill="currentColor"/>
</g>
<g transform="translate(5.6906, 23.3129)">
<rect x="64.4549" y="-0.1000" width="1.9563" height="0.2000" ry="0.1000" fill="currentColor"/>
</g>
<a style="color:inherit;" xlink:href="textedit://C:/Users/har1sf0x/Documents/LilyPond%20-%20Frescobaldi/%ce%9a%ce%ac%cf%84%cf%89_%cf%83%cf%84%ce%bf_%ce%b3%ce%b9%ce%b1%ce%bb%cf%8c_%ce%b1.ly:21:42:43">
<g transform="translate(81.5409, 21.8129)">
<path transform="scale(0.0040, -0.0040)" d="M218 136c55 0 108 -28 108 -89c0 -71 -55 -121 -102 -149c-35 -21 -75 -34 -116 -34c-55 0 -108 28 -108 89c0 71 55 121 102 149c35 21 75 34 116 34z" fill="currentColor"/>
</g>
</a>
<g transform="translate(82.7801, 19.3129)">
<rect x="-0.0650" y="-1.0113" width="0.1300" height="3.3252" ry="0.0400" fill="currentColor"/>
</g>
<a style="color:inherit;" xlink:href="textedit://C:/Users/har1sf0x/Documents/LilyPond%20-%20Frescobaldi/%ce%9a%ce%ac%cf%84%cf%89_%cf%83%cf%84%ce%bf_%ce%b3%ce%b9%ce%b1%ce%bb%cf%8c_%ce%b1.ly:21:54:55">
<g transform="translate(83.3122, 21.3129)">
<path transform="scale(0.0040, -0.0040)" d="M218 136c55 0 108 -28 108 -89c0 -71 -55 -121 -102 -149c-35 -21 -75 -34 -116 -34c-55 0 -108 28 -108 89c0 71 55 121 102 149c35 21 75 34 116 34z" fill="currentColor"/>
</g>
</a>
<g transform="translate(81.0087, 19.3129)">
<rect x="-0.0650" y="-1.3187" width="0.1300" height="3.6326" ry="0.0400" fill="currentColor"/>
</g>
<g transform="translate(108.6681, 18.3129)">
<polygon stroke-linejoin="round" stroke-linecap="round" stroke-width="0.0800" fill="currentColor" stroke="currentColor" points="2.3286 -0.2000 2.3286 0.2000 0.0400 0.2000 0.0400 -0.2000"/>
</g>
<a style="color:inherit;" xlink:href="textedit://C:/Users/har1sf0x/Documents/LilyPond%20-%20Frescobaldi/%ce%9a%ce%ac%cf%84%cf%89_%cf%83%cf%84%ce%bf_%ce%b3%ce%b9%ce%b1%ce%bb%cf%8c_%ce%b1.ly:21:26:27">
<g transform="translate(79.7695, 21.8129)">
<path transform="scale(0.0040, -0.0040)" d="M218 136c55 0 108 -28 108 -89c0 -71 -55 -121 -102 -149c-35 -21 -75 -34 -116 -34c-55 0 -108 28 -108 89c0 71 55 121 102 149c35 21 75 34 116 34z" fill="currentColor"/>
</g>
</a>
<g transform="translate(90.1110, 19.3129)">
<rect x="-0.0650" y="-2.1840" width="0.1300" height="2.9979" ry="0.0400" fill="currentColor"/>
</g>
<a style="color:inherit;" xlink:href="textedit://C:/Users/har1sf0x/Documents/LilyPond%20-%20Frescobaldi/%ce%9a%ce%ac%cf%84%cf%89_%cf%83%cf%84%ce%bf_%ce%b3%ce%b9%ce%b1%ce%bb%cf%8c_%ce%b1.ly:22:2:3">
<g transform="translate(88.8718, 20.3129)">
<path transform="scale(0.0040, -0.0040)" d="M218 136c55 0 108 -28 108 -89c0 -71 -55 -121 -102 -149c-35 -21 -75 -34 -116 -34c-55 0 -108 28 -108 89c0 71 55 121 102 149c35 21 75 34 116 34z" fill="currentColor"/>
</g>
</a>
<g transform="translate(84.5515, 19.3129)">
<rect x="-0.0650" y="-1.0052" width="0.1300" height="2.8191" ry="0.0400" fill="currentColor"/>
</g>
<a style="color:inherit;" xlink:href="textedit://C:/Users/har1sf0x/Documents/LilyPond%20-%20Frescobaldi/%ce%9a%ce%ac%cf%84%cf%89_%cf%83%cf%84%ce%bf_%ce%b3%ce%b9%ce%b1%ce%bb%cf%8c_%ce%b1.ly:21:71:72">
<g transform="translate(85.5508, 20.8129)">
<path transform="scale(0.0040, -0.0040)" d="M218 136c55 0 108 -28 108 -89c0 -71 -55 -121 -102 -149c-35 -21 -75 -34 -116 -34c-55 0 -108 28 -108 89c0 71 55 121 102 149c35 21 75 34 116 34z" fill="currentColor"/>
</g>
</a>
<g transform="translate(86.7900, 19.3129)">
<rect x="-0.0650" y="-1.1848" width="0.1300" height="2.4987" ry="0.0400" fill="currentColor"/>
</g>
<a style="color:inherit;" xlink:href="textedit://C:/Users/har1sf0x/Documents/LilyPond%20-%20Frescobaldi/%ce%9a%ce%ac%cf%84%cf%89_%cf%83%cf%84%ce%bf_%ce%b3%ce%b9%ce%b1%ce%bb%cf%8c_%ce%b1.ly:20:33:34">
<g transform="translate(68.7001, 21.3129)">
<path transform="scale(0.0040, -0.0040)" d="M218 136c55 0 108 -28 108 -89c0 -71 -55 -121 -102 -149c-35 -21 -75 -34 -116 -34c-55 0 -108 28 -108 89c0 71 55 121 102 149c35 21 75 34 116 34z" fill="currentColor"/>
</g>
</a>
<g transform="translate(69.9393, 19.3129)">
<rect x="-0.0650" y="-1.8160" width="0.1300" height="3.6299" ry="0.0400" fill="currentColor"/>
</g>
<a style="color:inherit;" xlink:href="textedit://C:/Users/har1sf0x/Documents/LilyPond%20-%20Frescobaldi/%ce%9a%ce%ac%cf%84%cf%89_%cf%83%cf%84%ce%bf_%ce%b3%ce%b9%ce%b1%ce%bb%cf%8c_%ce%b1.ly:20:47:48">
<g transform="translate(70.4715, 21.8129)">
<path transform="scale(0.0040, -0.0040)" d="M218 136c55 0 108 -28 108 -89c0 -71 -55 -121 -102 -149c-35 -21 -75 -34 -116 -34c-55 0 -108 28 -108 89c0 71 55 121 102 149c35 21 75 34 116 34z" fill="currentColor"/>
</g>
</a>
<g color="rgb(50.0000%, 50.0000%, 50.0000%)">
<a style="color:inherit;" xlink:href="textedit://C:/Users/har1sf0x/Documents/LilyPond%20-%20Frescobaldi/%ce%9a%ce%ac%cf%84%cf%89_%cf%83%cf%84%ce%bf_%ce%b3%ce%b9%ce%b1%ce%bb%cf%8c_%ce%b1.ly:20:47:48">
<g transform="translate(70.4715, 23.8129)">
<path transform="scale(0.0040, -0.0040)" d="M218 136c55 0 108 -28 108 -89c0 -71 -55 -121 -102 -149c-35 -21 -75 -34 -116 -34c-55 0 -108 28 -108 89c0 71 55 121 102 149c35 21 75 34 116 34z" fill="currentColor"/>
</g>
</a>
</g>
<g color="rgb(50.0000%, 50.0000%, 50.0000%)">
<a style="color:inherit;" xlink:href="textedit://C:/Users/har1sf0x/Documents/LilyPond%20-%20Frescobaldi/%ce%9a%ce%ac%cf%84%cf%89_%cf%83%cf%84%ce%bf_%ce%b3%ce%b9%ce%b1%ce%bb%cf%8c_%ce%b1.ly:20:47:48">
<g transform="translate(71.7107, 21.8129)">
<path transform="scale(0.0040, -0.0040)" d="M218 136c55 0 108 -28 108 -89c0 -71 -55 -121 -102 -149c-35 -21 -75 -34 -116 -34c-55 0 -108 28 -108 89c0 71 55 121 102 149c35 21 75 34 116 34z" fill="currentColor"/>
</g>
</a>
</g>
<a style="color:inherit;" xlink:href="textedit://C:/Users/har1sf0x/Documents/LilyPond%20-%20Frescobaldi/%ce%9a%ce%ac%cf%84%cf%89_%cf%83%cf%84%ce%bf_%ce%b3%ce%b9%ce%b1%ce%bb%cf%8c_%ce%b1.ly:20:17:18">
<g transform="translate(66.9287, 20.8129)">
<path transform="scale(0.0040, -0.0040)" d="M218 136c55 0 108 -28 108 -89c0 -71 -55 -121 -102 -149c-35 -21 -75 -34 -116 -34c-55 0 -108 28 -108 89c0 71 55 121 102 149c35 21 75 34 116 34z" fill="currentColor"/>
</g>
</a>
<g transform="translate(68.1679, 19.3129)">
<rect x="-0.0650" y="-1.9786" width="0.1300" height="3.2925" ry="0.0400" fill="currentColor"/>
</g>
<a style="color:inherit;" xlink:href="textedit://C:/Users/har1sf0x/Documents/LilyPond%20-%20Frescobaldi/%ce%9a%ce%ac%cf%84%cf%89_%cf%83%cf%84%ce%bf_%ce%b3%ce%b9%ce%b1%ce%bb%cf%8c_%ce%b1.ly:21:2:3">
<g transform="translate(77.0040, 22.3129)">
<path transform="scale(0.0040, -0.0040)" d="M218 136c55 0 108 -28 108 -89c0 -71 -55 -121 -102 -149c-35 -21 -75 -34 -116 -34c-55 0 -108 28 -108 89c0 71 55 121 102 149c35 21 75 34 116 34z" fill="currentColor"/>
</g>
</a>
<g color="rgb(50.0000%, 50.0000%, 50.0000%)">
<a style="color:inherit;" xlink:href="textedit://C:/Users/har1sf0x/Documents/LilyPond%20-%20Frescobaldi/%ce%9a%ce%ac%cf%84%cf%89_%cf%83%cf%84%ce%bf_%ce%b3%ce%b9%ce%b1%ce%bb%cf%8c_%ce%b1.ly:21:2:3">
<g transform="translate(77.0040, 20.3129)">
<path transform="scale(0.0040, -0.0040)" d="M218 136c55 0 108 -28 108 -89c0 -71 -55 -121 -102 -149c-35 -21 -75 -34 -116 -34c-55 0 -108 28 -108 89c0 71 55 121 102 149c35 21 75 34 116 34z" fill="currentColor"/>
</g>
</a>
</g>
<g color="rgb(50.0000%, 50.0000%, 50.0000%)">
<a style="color:inherit;" xlink:href="textedit://C:/Users/har1sf0x/Documents/LilyPond%20-%20Frescobaldi/%ce%9a%ce%ac%cf%84%cf%89_%cf%83%cf%84%ce%bf_%ce%b3%ce%b9%ce%b1%ce%bb%cf%8c_%ce%b1.ly:21:2:3">
<g transform="translate(78.1653, 22.3129)">
<path transform="scale(0.0040, -0.0040)" d="M218 136c55 0 108 -28 108 -89c0 -71 -55 -121 -102 -149c-35 -21 -75 -34 -116 -34c-55 0 -108 28 -108 89c0 71 55 121 102 149c35 21 75 34 116 34z" fill="currentColor"/>
</g>
</a>
</g>
<g transform="translate(78.2433, 19.3129)">
<rect x="-0.0650" y="-1.7987" width="0.1300" height="4.6126" ry="0.0400" fill="currentColor"/>
</g>
<g color="rgb(50.0000%, 50.0000%, 50.0000%)">
<a style="color:inherit;" xlink:href="textedit://C:/Users/har1sf0x/Documents/LilyPond%20-%20Frescobaldi/%ce%9a%ce%ac%cf%84%cf%89_%cf%83%cf%84%ce%bf_%ce%b3%ce%b9%ce%b1%ce%bb%cf%8c_%ce%b1.ly:20:69:70">
<g transform="translate(73.3149, 23.8129)">
<path transform="scale(0.0040, -0.0040)" d="M218 136c55 0 108 -28 108 -89c0 -71 -55 -121 -102 -149c-35 -21 -75 -34 -116 -34c-55 0 -108 28 -108 89c0 71 55 121 102 149c35 21 75 34 116 34z" fill="currentColor"/>
</g>
</a>
</g>
<g transform="translate(71.7107, 19.3129)">
<rect x="-0.0650" y="-0.8100" width="0.1300" height="5.1239" ry="0.0400" fill="currentColor"/>
</g>
<a style="color:inherit;" xlink:href="textedit://C:/Users/har1sf0x/Documents/LilyPond%20-%20Frescobaldi/%ce%9a%ce%ac%cf%84%cf%89_%cf%83%cf%84%ce%bf_%ce%b3%ce%b9%ce%b1%ce%bb%cf%8c_%ce%b1.ly:20:69:70">
<g transform="translate(73.3149, 21.8129)">
<path transform="scale(0.0040, -0.0040)" d="M218 136c55 0 108 -28 108 -89c0 -71 -55 -121 -102 -149c-35 -21 -75 -34 -116 -34c-55 0 -108 28 -108 89c0 71 55 121 102 149c35 21 75 34 116 34z" fill="currentColor"/>
</g>
</a>
<g color="rgb(50.0000%, 50.0000%, 50.0000%)">
<a style="color:inherit;" xlink:href="textedit://C:/Users/har1sf0x/Documents/LilyPond%20-%20Frescobaldi/%ce%9a%ce%ac%cf%84%cf%89_%cf%83%cf%84%ce%bf_%ce%b3%ce%b9%ce%b1%ce%bb%cf%8c_%ce%b1.ly:20:69:70">
<g transform="translate(74.5541, 21.8129)">
<path transform="scale(0.0040, -0.0040)" d="M218 136c55 0 108 -28 108 -89c0 -71 -55 -121 -102 -149c-35 -21 -75 -34 -116 -34c-55 0 -108 28 -108 89c0 71 55 121 102 149c35 21 75 34 116 34z" fill="currentColor"/>
</g>
</a>
</g>
<g transform="translate(74.5541, 19.3129)">
<rect x="-0.0650" y="-0.8100" width="0.1300" height="5.1239" ry="0.0400" fill="currentColor"/>
</g>
<g transform="translate(106.9617, 19.3129)">
<rect x="-0.0650" y="-1.0113" width="0.1300" height="3.3252" ry="0.0400" fill="currentColor"/>
</g>
<a style="color:inherit;" xlink:href="textedit://C:/Users/har1sf0x/Documents/LilyPond%20-%20Frescobaldi/%ce%9a%ce%ac%cf%84%cf%89_%cf%83%cf%84%ce%bf_%ce%b3%ce%b9%ce%b1%ce%bb%cf%8c_%ce%b1.ly:23:54:55">
<g transform="translate(107.4939, 21.3129)">
<path transform="scale(0.0040, -0.0040)" d="M218 136c55 0 108 -28 108 -89c0 -71 -55 -121 -102 -149c-35 -21 -75 -34 -116 -34c-55 0 -108 28 -108 89c0 71 55 121 102 149c35 21 75 34 116 34z" fill="currentColor"/>
</g>
</a>
<g transform="translate(108.7331, 19.3129)">
<rect x="-0.0650" y="-1.0000" width="0.1300" height="2.8139" ry="0.0400" fill="currentColor"/>
</g>
<g transform="translate(105.1903, 19.3129)">
<rect x="-0.0650" y="-1.3187" width="0.1300" height="3.6326" ry="0.0400" fill="currentColor"/>
</g>
<a style="color:inherit;" xlink:href="textedit://C:/Users/har1sf0x/Documents/LilyPond%20-%20Frescobaldi/%ce%9a%ce%ac%cf%84%cf%89_%cf%83%cf%84%ce%bf_%ce%b3%ce%b9%ce%b1%ce%bb%cf%8c_%ce%b1.ly:23:26:27">
<g transform="translate(103.9511, 21.8129)">
<path transform="scale(0.0040, -0.0040)" d="M218 136c55 0 108 -28 108 -89c0 -71 -55 -121 -102 -149c-35 -21 -75 -34 -116 -34c-55 0 -108 28 -108 89c0 71 55 121 102 149c35 21 75 34 116 34z" fill="currentColor"/>
</g>
</a>
<a style="color:inherit;" xlink:href="textedit://C:/Users/har1sf0x/Documents/LilyPond%20-%20Frescobaldi/%ce%9a%ce%ac%cf%84%cf%89_%cf%83%cf%84%ce%bf_%ce%b3%ce%b9%ce%b1%ce%bb%cf%8c_%ce%b1.ly:23:71:72">
<g transform="translate(109.7325, 21.3129)">
<path transform="scale(0.0040, -0.0040)" d="M218 136c55 0 108 -28 108 -89c0 -71 -55 -121 -102 -149c-35 -21 -75 -34 -116 -34c-55 0 -108 28 -108 89c0 71 55 121 102 149c35 21 75 34 116 34z" fill="currentColor"/>
</g>
</a>
<a style="color:inherit;" xlink:href="textedit://C:/Users/har1sf0x/Documents/LilyPond%20-%20Frescobaldi/%ce%9a%ce%ac%cf%84%cf%89_%cf%83%cf%84%ce%bf_%ce%b3%ce%b9%ce%b1%ce%bb%cf%8c_%ce%b1.ly:23:42:43">
<g transform="translate(105.7225, 21.8129)">
<path transform="scale(0.0040, -0.0040)" d="M218 136c55 0 108 -28 108 -89c0 -71 -55 -121 -102 -149c-35 -21 -75 -34 -116 -34c-55 0 -108 28 -108 89c0 71 55 121 102 149c35 21 75 34 116 34z" fill="currentColor"/>
</g>
</a>
<g transform="translate(52.0374, 17.3129)">
<polygon stroke-linejoin="round" stroke-linecap="round" stroke-width="0.0800" fill="currentColor" stroke="currentColor" points="4.0999 -0.2000 4.0999 0.2000 0.0400 0.2000 0.0400 -0.2000"/>
</g>
<g transform="translate(54.2759, 18.1229)">
<polygon stroke-linejoin="round" stroke-linecap="round" stroke-width="0.0800" fill="currentColor" stroke="currentColor" points="1.8614 -0.2000 1.8614 0.2000 0.0400 0.2000 0.0400 -0.2000"/>
</g>
<g transform="translate(18.0595, 17.5029)">
<polygon stroke-linejoin="round" stroke-linecap="round" stroke-width="0.0800" fill="currentColor" stroke="currentColor" points="4.0999 -0.3900 4.0999 0.0100 0.0400 0.2000 0.0400 -0.2000"/>
</g>
<g transform="translate(20.2981, 18.2102)">
<polygon stroke-linejoin="round" stroke-linecap="round" stroke-width="0.0800" fill="currentColor" stroke="currentColor" points="1.8614 -0.2873 1.8614 0.1127 0.0400 0.2000 0.0400 -0.2000"/>
</g>
<g transform="translate(23.8409, 17.3129)">
<polygon stroke-linejoin="round" stroke-linecap="round" stroke-width="0.0800" fill="currentColor" stroke="currentColor" points="2.3286 -0.3900 2.3286 0.0100 0.0400 0.2000 0.0400 -0.2000"/>
</g>
<g transform="translate(29.3290, 17.3129)">
<polygon stroke-linejoin="round" stroke-linecap="round" stroke-width="0.0800" fill="currentColor" stroke="currentColor" points="4.0999 -0.2000 4.0999 0.2000 0.0400 0.2000 0.0400 -0.2000"/>
</g>
<g transform="translate(31.5675, 18.1229)">
<polygon stroke-linejoin="round" stroke-linecap="round" stroke-width="0.0800" fill="currentColor" stroke="currentColor" points="1.8614 -0.2000 1.8614 0.2000 0.0400 0.2000 0.0400 -0.2000"/>
</g>
<g transform="translate(35.1103, 17.3129)">
<polygon stroke-linejoin="round" stroke-linecap="round" stroke-width="0.0800" fill="currentColor" stroke="currentColor" points="2.3286 -0.2000 2.3286 0.2000 0.0400 0.2000 0.0400 -0.2000"/>
</g>
<g transform="translate(40.6832, 16.3129)">
<polygon stroke-linejoin="round" stroke-linecap="round" stroke-width="0.0800" fill="currentColor" stroke="currentColor" points="4.0999 -0.0100 4.0999 0.3900 0.0400 0.2000 0.0400 -0.2000"/>
</g>
<g transform="translate(42.9217, 17.2257)">
<polygon stroke-linejoin="round" stroke-linecap="round" stroke-width="0.0800" fill="currentColor" stroke="currentColor" points="1.8614 -0.1127 1.8614 0.2873 0.0400 0.2000 0.0400 -0.2000"/>
</g>
<g transform="translate(46.4645, 18.1229)">
<polygon stroke-linejoin="round" stroke-linecap="round" stroke-width="0.0800" fill="currentColor" stroke="currentColor" points="2.3286 -0.0100 2.3286 0.3900 0.0400 0.2000 0.0400 -0.2000"/>
</g>
<g transform="translate(57.6515, 18.3129)">
<polygon stroke-linejoin="round" stroke-linecap="round" stroke-width="0.0800" fill="currentColor" stroke="currentColor" points="2.3286 -0.2000 2.3286 0.2000 0.0400 0.2000 0.0400 -0.2000"/>
</g>
<g transform="translate(65.8644, 17.1229)">
<polygon stroke-linejoin="round" stroke-linecap="round" stroke-width="0.0800" fill="currentColor" stroke="currentColor" points="4.0999 0.1800 4.0999 0.5800 0.0400 0.2000 0.0400 -0.2000"/>
</g>
<g transform="translate(68.1029, 18.1384)">
<polygon stroke-linejoin="round" stroke-linecap="round" stroke-width="0.0800" fill="currentColor" stroke="currentColor" points="1.8614 -0.0255 1.8614 0.3745 0.0400 0.2000 0.0400 -0.2000"/>
</g>
<g transform="translate(71.6457, 18.5029)">
<polygon stroke-linejoin="round" stroke-linecap="round" stroke-width="0.0800" fill="currentColor" stroke="currentColor" points="2.9334 -0.2000 2.9334 0.2000 0.0400 0.2000 0.0400 -0.2000"/>
</g>
<g transform="translate(78.1783, 17.5029)">
<polygon stroke-linejoin="round" stroke-linecap="round" stroke-width="0.0800" fill="currentColor" stroke="currentColor" points="4.6268 0.6100 4.6268 1.0100 0.0400 0.2000 0.0400 -0.2000"/>
</g>
<g transform="translate(80.9437, 18.7929)">
<polygon stroke-linejoin="round" stroke-linecap="round" stroke-width="0.0800" fill="currentColor" stroke="currentColor" points="1.8614 0.1300 1.8614 0.5300 0.0400 0.2000 0.0400 -0.2000"/>
</g>
<g transform="translate(84.4865, 18.3129)">
<polygon stroke-linejoin="round" stroke-linecap="round" stroke-width="0.0800" fill="currentColor" stroke="currentColor" points="2.3286 -0.3900 2.3286 0.0100 0.0400 0.2000 0.0400 -0.2000"/>
</g>
<g transform="translate(90.0460, 17.1229)">
<polygon stroke-linejoin="round" stroke-linecap="round" stroke-width="0.0800" fill="currentColor" stroke="currentColor" points="4.0999 0.1800 4.0999 0.5800 0.0400 0.2000 0.0400 -0.2000"/>
</g>
<g transform="translate(92.2846, 18.1384)">
<polygon stroke-linejoin="round" stroke-linecap="round" stroke-width="0.0800" fill="currentColor" stroke="currentColor" points="1.8614 -0.0255 1.8614 0.3745 0.0400 0.2000 0.0400 -0.2000"/>
</g>
<g transform="translate(95.8273, 18.5029)">
<polygon stroke-linejoin="round" stroke-linecap="round" stroke-width="0.0800" fill="currentColor" stroke="currentColor" points="2.9334 -0.2000 2.9334 0.2000 0.0400 0.2000 0.0400 -0.2000"/>
</g>
<g transform="translate(102.3599, 17.5029)">
<polygon stroke-linejoin="round" stroke-linecap="round" stroke-width="0.0800" fill="currentColor" stroke="currentColor" points="4.6268 0.6100 4.6268 1.0100 0.0400 0.2000 0.0400 -0.2000"/>
</g>
<g transform="translate(105.1253, 18.7929)">
<polygon stroke-linejoin="round" stroke-linecap="round" stroke-width="0.0800" fill="currentColor" stroke="currentColor" points="1.8614 0.1300 1.8614 0.5300 0.0400 0.2000 0.0400 -0.2000"/>
</g>
<g transform="translate(110.9717, 19.3129)">
<rect x="-0.0650" y="-1.0000" width="0.1300" height="2.8139" ry="0.0400" fill="currentColor"/>
</g>
<g transform="translate(94.1210, 19.3129)">
<rect x="-0.0650" y="-1.8160" width="0.1300" height="3.6299" ry="0.0400" fill="currentColor"/>
</g>
<a style="color:inherit;" xlink:href="textedit://C:/Users/har1sf0x/Documents/LilyPond%20-%20Frescobaldi/%ce%9a%ce%ac%cf%84%cf%89_%cf%83%cf%84%ce%bf_%ce%b3%ce%b9%ce%b1%ce%bb%cf%8c_%ce%b1.ly:22:33:34">
<g transform="translate(92.8817, 21.3129)">
<path transform="scale(0.0040, -0.0040)" d="M218 136c55 0 108 -28 108 -89c0 -71 -55 -121 -102 -149c-35 -21 -75 -34 -116 -34c-55 0 -108 28 -108 89c0 71 55 121 102 149c35 21 75 34 116 34z" fill="currentColor"/>
</g>
</a>
<a style="color:inherit;" xlink:href="textedit://C:/Users/har1sf0x/Documents/LilyPond%20-%20Frescobaldi/%ce%9a%ce%ac%cf%84%cf%89_%cf%83%cf%84%ce%bf_%ce%b3%ce%b9%ce%b1%ce%bb%cf%8c_%ce%b1.ly:22:47:48">
<g transform="translate(94.6531, 21.8129)">
<path transform="scale(0.0040, -0.0040)" d="M218 136c55 0 108 -28 108 -89c0 -71 -55 -121 -102 -149c-35 -21 -75 -34 -116 -34c-55 0 -108 28 -108 89c0 71 55 121 102 149c35 21 75 34 116 34z" fill="currentColor"/>
</g>
</a>
<g color="rgb(50.0000%, 50.0000%, 50.0000%)">
<a style="color:inherit;" xlink:href="textedit://C:/Users/har1sf0x/Documents/LilyPond%20-%20Frescobaldi/%ce%9a%ce%ac%cf%84%cf%89_%cf%83%cf%84%ce%bf_%ce%b3%ce%b9%ce%b1%ce%bb%cf%8c_%ce%b1.ly:22:47:48">
<g transform="translate(94.6531, 23.8129)">
<path transform="scale(0.0040, -0.0040)" d="M218 136c55 0 108 -28 108 -89c0 -71 -55 -121 -102 -149c-35 -21 -75 -34 -116 -34c-55 0 -108 28 -108 89c0 71 55 121 102 149c35 21 75 34 116 34z" fill="currentColor"/>
</g>
</a>
</g>
<g color="rgb(50.0000%, 50.0000%, 50.0000%)">
<a style="color:inherit;" xlink:href="textedit://C:/Users/har1sf0x/Documents/LilyPond%20-%20Frescobaldi/%ce%9a%ce%ac%cf%84%cf%89_%cf%83%cf%84%ce%bf_%ce%b3%ce%b9%ce%b1%ce%bb%cf%8c_%ce%b1.ly:22:47:48">
<g transform="translate(95.8923, 21.8129)">
<path transform="scale(0.0040, -0.0040)" d="M218 136c55 0 108 -28 108 -89c0 -71 -55 -121 -102 -149c-35 -21 -75 -34 -116 -34c-55 0 -108 28 -108 89c0 71 55 121 102 149c35 21 75 34 116 34z" fill="currentColor"/>
</g>
</a>
</g>
<g transform="translate(95.8923, 19.3129)">
<rect x="-0.0650" y="-0.8100" width="0.1300" height="5.1239" ry="0.0400" fill="currentColor"/>
</g>
<a style="color:inherit;" xlink:href="textedit://C:/Users/har1sf0x/Documents/LilyPond%20-%20Frescobaldi/%ce%9a%ce%ac%cf%84%cf%89_%cf%83%cf%84%ce%bf_%ce%b3%ce%b9%ce%b1%ce%bb%cf%8c_%ce%b1.ly:22:17:18">
<g transform="translate(91.1104, 20.8129)">
<path transform="scale(0.0040, -0.0040)" d="M218 136c55 0 108 -28 108 -89c0 -71 -55 -121 -102 -149c-35 -21 -75 -34 -116 -34c-55 0 -108 28 -108 89c0 71 55 121 102 149c35 21 75 34 116 34z" fill="currentColor"/>
</g>
</a>
<g transform="translate(92.3496, 19.3129)">
<rect x="-0.0650" y="-1.9786" width="0.1300" height="3.2925" ry="0.0400" fill="currentColor"/>
</g>
<g color="rgb(50.0000%, 50.0000%, 50.0000%)">
<a style="color:inherit;" xlink:href="textedit://C:/Users/har1sf0x/Documents/LilyPond%20-%20Frescobaldi/%ce%9a%ce%ac%cf%84%cf%89_%cf%83%cf%84%ce%bf_%ce%b3%ce%b9%ce%b1%ce%bb%cf%8c_%ce%b1.ly:23:2:3">
<g transform="translate(102.3469, 22.3129)">
<path transform="scale(0.0040, -0.0040)" d="M218 136c55 0 108 -28 108 -89c0 -71 -55 -121 -102 -149c-35 -21 -75 -34 -116 -34c-55 0 -108 28 -108 89c0 71 55 121 102 149c35 21 75 34 116 34z" fill="currentColor"/>
</g>
</a>
</g>
<g transform="translate(102.4249, 19.3129)">
<rect x="-0.0650" y="-1.7987" width="0.1300" height="4.6126" ry="0.0400" fill="currentColor"/>
</g>
<g color="rgb(50.0000%, 50.0000%, 50.0000%)">
<a style="color:inherit;" xlink:href="textedit://C:/Users/har1sf0x/Documents/LilyPond%20-%20Frescobaldi/%ce%9a%ce%ac%cf%84%cf%89_%cf%83%cf%84%ce%bf_%ce%b3%ce%b9%ce%b1%ce%bb%cf%8c_%ce%b1.ly:23:2:3">
<g transform="translate(101.1857, 20.3129)">
<path transform="scale(0.0040, -0.0040)" d="M218 136c55 0 108 -28 108 -89c0 -71 -55 -121 -102 -149c-35 -21 -75 -34 -116 -34c-55 0 -108 28 -108 89c0 71 55 121 102 149c35 21 75 34 116 34z" fill="currentColor"/>
</g>
</a>
</g>
<g transform="translate(98.7358, 19.3129)">
<rect x="-0.0650" y="-0.8100" width="0.1300" height="5.1239" ry="0.0400" fill="currentColor"/>
</g>
<a style="color:inherit;" xlink:href="textedit://C:/Users/har1sf0x/Documents/LilyPond%20-%20Frescobaldi/%ce%9a%ce%ac%cf%84%cf%89_%cf%83%cf%84%ce%bf_%ce%b3%ce%b9%ce%b1%ce%bb%cf%8c_%ce%b1.ly:22:69:70">
<g transform="translate(97.4966, 21.8129)">
<path transform="scale(0.0040, -0.0040)" d="M218 136c55 0 108 -28 108 -89c0 -71 -55 -121 -102 -149c-35 -21 -75 -34 -116 -34c-55 0 -108 28 -108 89c0 71 55 121 102 149c35 21 75 34 116 34z" fill="currentColor"/>
</g>
</a>
<g color="rgb(50.0000%, 50.0000%, 50.0000%)">
<a style="color:inherit;" xlink:href="textedit://C:/Users/har1sf0x/Documents/LilyPond%20-%20Frescobaldi/%ce%9a%ce%ac%cf%84%cf%89_%cf%83%cf%84%ce%bf_%ce%b3%ce%b9%ce%b1%ce%bb%cf%8c_%ce%b1.ly:22:69:70">
<g transform="translate(97.4966, 23.8129)">
<path transform="scale(0.0040, -0.0040)" d="M218 136c55 0 108 -28 108 -89c0 -71 -55 -121 -102 -149c-35 -21 -75 -34 -116 -34c-55 0 -108 28 -108 89c0 71 55 121 102 149c35 21 75 34 116 34z" fill="currentColor"/>
</g>
</a>
</g>
<g color="rgb(50.0000%, 50.0000%, 50.0000%)">
<a style="color:inherit;" xlink:href="textedit://C:/Users/har1sf0x/Documents/LilyPond%20-%20Frescobaldi/%ce%9a%ce%ac%cf%84%cf%89_%cf%83%cf%84%ce%bf_%ce%b3%ce%b9%ce%b1%ce%bb%cf%8c_%ce%b1.ly:22:69:70">
<g transform="translate(98.7358, 21.8129)">
<path transform="scale(0.0040, -0.0040)" d="M218 136c55 0 108 -28 108 -89c0 -71 -55 -121 -102 -149c-35 -21 -75 -34 -116 -34c-55 0 -108 28 -108 89c0 71 55 121 102 149c35 21 75 34 116 34z" fill="currentColor"/>
</g>
</a>
</g>
<a style="color:inherit;" xlink:href="textedit://C:/Users/har1sf0x/Documents/LilyPond%20-%20Frescobaldi/%ce%9a%ce%ac%cf%84%cf%89_%cf%83%cf%84%ce%bf_%ce%b3%ce%b9%ce%b1%ce%bb%cf%8c_%ce%b1.ly:23:2:3">
<g transform="translate(101.1857, 22.3129)">
<path transform="scale(0.0040, -0.0040)" d="M218 136c55 0 108 -28 108 -89c0 -71 -55 -121 -102 -149c-35 -21 -75 -34 -116 -34c-55 0 -108 28 -108 89c0 71 55 121 102 149c35 21 75 34 116 34z" fill="currentColor"/>
</g>
</a>
<a style="color:inherit;" xlink:href="textedit://C:/Users/har1sf0x/Documents/LilyPond%20-%20Frescobaldi/%ce%9a%ce%ac%cf%84%cf%89_%cf%83%cf%84%ce%bf_%ce%b3%ce%b9%ce%b1%ce%bb%cf%8c_%ce%b1.ly:16:31:32">
<g transform="translate(32.1647, 20.3129)">
<path transform="scale(0.0040, -0.0040)" d="M218 136c55 0 108 -28 108 -89c0 -71 -55 -121 -102 -149c-35 -21 -75 -34 -116 -34c-55 0 -108 28 -108 89c0 71 55 121 102 149c35 21 75 34 116 34z" fill="currentColor"/>
</g>
</a>
<g transform="translate(31.6325, 19.3129)">
<rect x="-0.0650" y="-2.0000" width="0.1300" height="2.8139" ry="0.0400" fill="currentColor"/>
</g>
<g transform="translate(33.4039, 19.3129)">
<rect x="-0.0650" y="-2.0000" width="0.1300" height="2.8139" ry="0.0400" fill="currentColor"/>
</g>
<g transform="translate(29.3940, 19.3129)">
<rect x="-0.0650" y="-2.0000" width="0.1300" height="2.8139" ry="0.0400" fill="currentColor"/>
</g>
<a style="color:inherit;" xlink:href="textedit://C:/Users/har1sf0x/Documents/LilyPond%20-%20Frescobaldi/%ce%9a%ce%ac%cf%84%cf%89_%cf%83%cf%84%ce%bf_%ce%b3%ce%b9%ce%b1%ce%bb%cf%8c_%ce%b1.ly:16:15:16">
<g transform="translate(30.3933, 20.3129)">
<path transform="scale(0.0040, -0.0040)" d="M218 136c55 0 108 -28 108 -89c0 -71 -55 -121 -102 -149c-35 -21 -75 -34 -116 -34c-55 0 -108 28 -108 89c0 71 55 121 102 149c35 21 75 34 116 34z" fill="currentColor"/>
</g>
</a>
<g transform="translate(35.9747, 20.8129)">
<path transform="scale(0.0032, -0.0032)" d="M-98 0c0 -85 11 -172 60 -242c2 -3 3 -5 3 -8c0 -8 -7 -15 -15 -15c-4 0 -9 2 -12 7c-54 77 -90 165 -90 258s36 181 90 258c3 5 8 7 12 7c8 0 15 -7 15 -15c0 -3 -1 -5 -3 -8c-49 -70 -60 -157 -60 -242z" fill="currentColor"/>
</g>
<g transform="translate(37.6789, 20.8129)">
<path transform="scale(0.0032, -0.0032)" d="M98 0c0 85 -11 172 -60 242c-2 3 -3 5 -3 8c0 8 7 15 15 15c4 0 9 -2 12 -7c54 -77 90 -165 90 -258s-36 -181 -90 -258c-3 -5 -8 -7 -12 -7c-8 0 -15 7 -15 15c0 3 1 5 3 8c49 70 60 157 60 242z" fill="currentColor"/>
</g>
<a style="color:inherit;" xlink:href="textedit://C:/Users/har1sf0x/Documents/LilyPond%20-%20Frescobaldi/%ce%9a%ce%ac%cf%84%cf%89_%cf%83%cf%84%ce%bf_%ce%b3%ce%b9%ce%b1%ce%bb%cf%8c_%ce%b1.ly:17:2:3">
<g transform="translate(39.5090, 19.8129)">
<path transform="scale(0.0040, -0.0040)" d="M218 136c55 0 108 -28 108 -89c0 -71 -55 -121 -102 -149c-35 -21 -75 -34 -116 -34c-55 0 -108 28 -108 89c0 71 55 121 102 149c35 21 75 34 116 34z" fill="currentColor"/>
</g>
</a>
<g transform="translate(40.7482, 19.3129)">
<rect x="-0.0650" y="-2.9970" width="0.1300" height="3.3109" ry="0.0400" fill="currentColor"/>
</g>
<a style="color:inherit;" xlink:href="textedit://C:/Users/har1sf0x/Documents/LilyPond%20-%20Frescobaldi/%ce%9a%ce%ac%cf%84%cf%89_%cf%83%cf%84%ce%bf_%ce%b3%ce%b9%ce%b1%ce%bb%cf%8c_%ce%b1.ly:16:43:44">
<g transform="translate(33.9361, 20.3129)">
<path transform="scale(0.0040, -0.0040)" d="M218 136c55 0 108 -28 108 -89c0 -71 -55 -121 -102 -149c-35 -21 -75 -34 -116 -34c-55 0 -108 28 -108 89c0 71 55 121 102 149c35 21 75 34 116 34z" fill="currentColor"/>
</g>
</a>
<g transform="translate(35.1753, 19.3129)">
<rect x="-0.0650" y="-2.0000" width="0.1300" height="2.8139" ry="0.0400" fill="currentColor"/>
</g>
<a style="color:inherit;" xlink:href="textedit://C:/Users/har1sf0x/Documents/LilyPond%20-%20Frescobaldi/%ce%9a%ce%ac%cf%84%cf%89_%cf%83%cf%84%ce%bf_%ce%b3%ce%b9%ce%b1%ce%bb%cf%8c_%ce%b1.ly:16:105:106">
<g transform="translate(36.1747, 20.3129)">
<path transform="scale(0.0040, -0.0040)" d="M218 136c55 0 108 -28 108 -89c0 -71 -55 -121 -102 -149c-35 -21 -75 -34 -116 -34c-55 0 -108 28 -108 89c0 71 55 121 102 149c35 21 75 34 116 34z" fill="currentColor"/>
</g>
</a>
<a style="color:inherit;" xlink:href="textedit://C:/Users/har1sf0x/Documents/LilyPond%20-%20Frescobaldi/%ce%9a%ce%ac%cf%84%cf%89_%cf%83%cf%84%ce%bf_%ce%b3%ce%b9%ce%b1%ce%bb%cf%8c_%ce%b1.ly:16:117:118">
<g transform="translate(36.1747, 21.3129)">
<path transform="scale(0.0040, -0.0040)" d="M218 136c55 0 108 -28 108 -89c0 -71 -55 -121 -102 -149c-35 -21 -75 -34 -116 -34c-55 0 -108 28 -108 89c0 71 55 121 102 149c35 21 75 34 116 34z" fill="currentColor"/>
</g>
</a>
<g transform="translate(37.4139, 19.3129)">
<rect x="-0.0650" y="-2.0000" width="0.1300" height="3.8139" ry="0.0400" fill="currentColor"/>
</g>
<a style="color:inherit;" xlink:href="textedit://C:/Users/har1sf0x/Documents/LilyPond%20-%20Frescobaldi/%ce%9a%ce%ac%cf%84%cf%89_%cf%83%cf%84%ce%bf_%ce%b3%ce%b9%ce%b1%ce%bb%cf%8c_%ce%b1.ly:15:19:20">
<g transform="translate(19.1239, 20.8129)">
<path transform="scale(0.0040, -0.0040)" d="M218 136c55 0 108 -28 108 -89c0 -71 -55 -121 -102 -149c-35 -21 -75 -34 -116 -34c-55 0 -108 28 -108 89c0 71 55 121 102 149c35 21 75 34 116 34z" fill="currentColor"/>
</g>
</a>
<g transform="translate(20.3631, 19.3129)">
<rect x="-0.0650" y="-1.9157" width="0.1300" height="3.2296" ry="0.0400" fill="currentColor"/>
</g>
<g transform="translate(10.1106, 17.8129)">
<path transform="scale(0.0040, -0.0040)" d="M143 41c-1 33 -22 63 -53 63c-29 0 -43 -34 -43 -67c0 -59 48 -101 93 -139c3 22 4 44 4 66v11zM185 -138c0 -14 -10 -25 -23 -25c-21 0 -30 25 -45 38c-61 52 -147 89 -147 169c0 54 37 102 89 102c33 0 66 -13 91 -34l-7 345c8 5 18 8 27 8s19 -3 27 -8z" fill="currentColor"/>
</g>
<g transform="translate(11.3306, 19.3129)">
<path transform="scale(0.0040, -0.0040)" d="M143 41c-1 33 -22 63 -53 63c-29 0 -43 -34 -43 -67c0 -59 48 -101 93 -139c3 22 4 44 4 66v11zM185 -138c0 -14 -10 -25 -23 -25c-21 0 -30 25 -45 38c-61 52 -147 89 -147 169c0 54 37 102 89 102c33 0 66 -13 91 -34l-7 345c8 5 18 8 27 8s19 -3 27 -8z" fill="currentColor"/>
</g>
<a style="color:inherit;" xlink:href="textedit://C:/Users/har1sf0x/Documents/LilyPond%20-%20Frescobaldi/%ce%9a%ce%ac%cf%84%cf%89_%cf%83%cf%84%ce%bf_%ce%b3%ce%b9%ce%b1%ce%bb%cf%8c_%ce%b1.ly:15:2:3">
<g transform="translate(16.8853, 21.3129)">
<path transform="scale(0.0040, -0.0040)" d="M218 136c55 0 108 -28 108 -89c0 -71 -55 -121 -102 -149c-35 -21 -75 -34 -116 -34c-55 0 -108 28 -108 89c0 71 55 121 102 149c35 21 75 34 116 34z" fill="currentColor"/>
</g>
</a>
<g transform="translate(6.4906, 20.3129)">
<path transform="scale(0.0040, -0.0040)" d="M266 -635h-6c-108 0 -195 88 -195 197c0 58 53 103 112 103c54 0 95 -47 95 -103c0 -52 -43 -95 -95 -95c-11 0 -21 2 -31 6c26 -39 68 -65 117 -65h4zM461 -203c68 24 113 95 113 164c0 90 -66 179 -173 190c24 -116 46 -231 60 -354zM74 28c0 -135 129 -247 264 -247
c28 0 55 2 82 6c-14 127 -37 245 -63 364c-79 -8 -124 -61 -124 -119c0 -44 25 -91 81 -123c5 -5 7 -10 7 -15c0 -11 -10 -22 -22 -22c-3 0 -6 1 -9 2c-80 43 -117 115 -117 185c0 88 58 174 160 197c-14 58 -29 117 -46 175c-107 -121 -213 -243 -213 -403zM335 -262
c-188 0 -333 172 -333 374c0 177 131 306 248 441c-19 62 -37 125 -45 190c-6 52 -7 104 -7 156c0 115 55 224 149 292c6 5 14 5 20 0c71 -84 133 -245 133 -358c0 -143 -86 -255 -180 -364c21 -68 39 -138 56 -207c4 0 9 1 13 1c155 0 256 -128 256 -261
c0 -76 -33 -154 -107 -210c-22 -17 -47 -28 -73 -36c3 -35 5 -70 5 -105c0 -19 -1 -39 -2 -58c-7 -119 -88 -225 -202 -228l1 43c93 2 153 92 159 191c1 18 2 37 2 55c0 31 -1 61 -4 92c-29 -5 -58 -8 -89 -8zM428 916c0 55 -4 79 -20 129c-99 -48 -162 -149 -162 -259
c0 -74 18 -133 36 -194c80 97 146 198 146 324z" fill="currentColor"/>
</g>
<a style="color:inherit;" xlink:href="textedit://C:/Users/har1sf0x/Documents/LilyPond%20-%20Frescobaldi/%ce%9a%ce%ac%cf%84%cf%89_%cf%83%cf%84%ce%bf_%ce%b3%ce%b9%ce%b1%ce%bb%cf%8c_%ce%b1.ly:13:2:3">
<g transform="translate(13.3489, 19.3129)">
<path transform="scale(0.0040, -0.0040)" d="M102 135c9 2 18 3 27 3c33 0 70 -11 105 -36c21 -15 46 -23 66 -23c21 0 39 9 44 29c2 6 6 9 11 9c6 0 12 -5 12 -12c0 -67 -90 -105 -138 -105c-36 0 -71 14 -96 44c-13 16 -31 22 -48 22c-30 0 -59 -20 -62 -55c-1 -7 -6 -11 -11 -11c-6 0 -12 4 -12 11
c0 174 232 166 232 344c0 59 -16 122 -67 122c-25 0 -49 -14 -49 -37c0 -27 35 -41 35 -68c0 -38 -31 -69 -69 -69s-69 31 -69 69c0 76 72 128 152 128c95 0 183 -57 183 -145c0 -151 -150 -159 -246 -220z" fill="currentColor"/>
</g>
<g transform="translate(13.2806, 21.3289)">
<path transform="scale(0.0040, -0.0040)" d="M196 117h117c0 -48 27 -94 72 -94c8 0 12 -5 12 -11s-4 -12 -12 -12c-44 0 -87 13 -131 13s-87 -13 -131 -13c-8 0 -12 6 -12 12s4 11 12 11c45 0 73 46 73 94zM204 307c22 14 44 29 60 50c11 15 19 33 27 50c2 4 5 6 9 6c6 0 13 -5 13 -14v-245h72c10 0 15 -7 15 -14
s-5 -15 -15 -15h-72v-8h-117v8h-167c-23 0 -31 14 -31 23c0 3 1 5 2 6c80 93 138 207 138 330c0 10 7 19 16 16c23 -7 47 -13 71 -13s48 6 71 13c14 4 23 -9 17 -16l-284 -330h167v131c0 8 1 17 8 22z" fill="currentColor"/>
</g>
</a>
<a style="color:inherit;" xlink:href="textedit://C:/Users/har1sf0x/Documents/LilyPond%20-%20Frescobaldi/%ce%9a%ce%ac%cf%84%cf%89_%cf%83%cf%84%ce%bf_%ce%b3%ce%b9%ce%b1%ce%bb%cf%8c_%ce%b1.ly:14:2:3">
<g transform="translate(5.6906, 15.2113)">
<text font-family="serif" font-size="2.6163" text-anchor="start" fill="currentColor">
<tspan>A</tspan>
</text>
</g>
</a>
<g transform="translate(18.1245, 19.3129)">
<rect x="-0.0650" y="-1.8130" width="0.1300" height="3.6269" ry="0.0400" fill="currentColor"/>
</g>
<a style="color:inherit;" xlink:href="textedit://C:/Users/har1sf0x/Documents/LilyPond%20-%20Frescobaldi/%ce%9a%ce%ac%cf%84%cf%89_%cf%83%cf%84%ce%bf_%ce%b3%ce%b9%ce%b1%ce%bb%cf%8c_%ce%b1.ly:15:62:63">
<g transform="translate(24.9052, 19.8129)">
<path transform="scale(0.0040, -0.0040)" d="M218 136c55 0 108 -28 108 -89c0 -71 -55 -121 -102 -149c-35 -21 -75 -34 -116 -34c-55 0 -108 28 -108 89c0 71 55 121 102 149c35 21 75 34 116 34z" fill="currentColor"/>
</g>
</a>
<g transform="translate(26.1444, 19.3129)">
<rect x="-0.0650" y="-2.1848" width="0.1300" height="2.4987" ry="0.0400" fill="currentColor"/>
</g>
<a style="color:inherit;" xlink:href="textedit://C:/Users/har1sf0x/Documents/LilyPond%20-%20Frescobaldi/%ce%9a%ce%ac%cf%84%cf%89_%cf%83%cf%84%ce%bf_%ce%b3%ce%b9%ce%b1%ce%bb%cf%8c_%ce%b1.ly:16:2:3">
<g transform="translate(28.1548, 20.3129)">
<path transform="scale(0.0040, -0.0040)" d="M218 136c55 0 108 -28 108 -89c0 -71 -55 -121 -102 -149c-35 -21 -75 -34 -116 -34c-55 0 -108 28 -108 89c0 71 55 121 102 149c35 21 75 34 116 34z" fill="currentColor"/>
</g>
</a>
<a style="color:inherit;" xlink:href="textedit://C:/Users/har1sf0x/Documents/LilyPond%20-%20Frescobaldi/%ce%9a%ce%ac%cf%84%cf%89_%cf%83%cf%84%ce%bf_%ce%b3%ce%b9%ce%b1%ce%bb%cf%8c_%ce%b1.ly:15:35:36">
<g transform="translate(20.8953, 20.8129)">
<path transform="scale(0.0040, -0.0040)" d="M218 136c55 0 108 -28 108 -89c0 -71 -55 -121 -102 -149c-35 -21 -75 -34 -116 -34c-55 0 -108 28 -108 89c0 71 55 121 102 149c35 21 75 34 116 34z" fill="currentColor"/>
</g>
</a>
<g transform="translate(22.1345, 19.3129)">
<rect x="-0.0650" y="-1.9970" width="0.1300" height="3.3109" ry="0.0400" fill="currentColor"/>
</g>
<a style="color:inherit;" xlink:href="textedit://C:/Users/har1sf0x/Documents/LilyPond%20-%20Frescobaldi/%ce%9a%ce%ac%cf%84%cf%89_%cf%83%cf%84%ce%bf_%ce%b3%ce%b9%ce%b1%ce%bb%cf%8c_%ce%b1.ly:15:47:48">
<g transform="translate(22.6666, 20.3129)">
<path transform="scale(0.0040, -0.0040)" d="M218 136c55 0 108 -28 108 -89c0 -71 -55 -121 -102 -149c-35 -21 -75 -34 -116 -34c-55 0 -108 28 -108 89c0 71 55 121 102 149c35 21 75 34 116 34z" fill="currentColor"/>
</g>
</a>
<g transform="translate(23.9059, 19.3129)">
<rect x="-0.0650" y="-2.0052" width="0.1300" height="2.8191" ry="0.0400" fill="currentColor"/>
</g>
<a style="color:inherit;" xlink:href="textedit://C:/Users/har1sf0x/Documents/LilyPond%20-%20Frescobaldi/%ce%9a%ce%ac%cf%84%cf%89_%cf%83%cf%84%ce%bf_%ce%b3%ce%b9%ce%b1%ce%bb%cf%8c_%ce%b1.ly:18:17:18">
<g transform="translate(53.1017, 20.3129)">
<path transform="scale(0.0040, -0.0040)" d="M218 136c55 0 108 -28 108 -89c0 -71 -55 -121 -102 -149c-35 -21 -75 -34 -116 -34c-55 0 -108 28 -108 89c0 71 55 121 102 149c35 21 75 34 116 34z" fill="currentColor"/>
</g>
</a>
<g transform="translate(54.3409, 19.3129)">
<rect x="-0.0650" y="-2.0000" width="0.1300" height="2.8139" ry="0.0400" fill="currentColor"/>
</g>
<a style="color:inherit;" xlink:href="textedit://C:/Users/har1sf0x/Documents/LilyPond%20-%20Frescobaldi/%ce%9a%ce%ac%cf%84%cf%89_%cf%83%cf%84%ce%bf_%ce%b3%ce%b9%ce%b1%ce%bb%cf%8c_%ce%b1.ly:18:33:34">
<g transform="translate(54.8731, 20.3129)">
<path transform="scale(0.0040, -0.0040)" d="M218 136c55 0 108 -28 108 -89c0 -71 -55 -121 -102 -149c-35 -21 -75 -34 -116 -34c-55 0 -108 28 -108 89c0 71 55 121 102 149c35 21 75 34 116 34z" fill="currentColor"/>
</g>
</a>
<a style="color:inherit;" xlink:href="textedit://C:/Users/har1sf0x/Documents/LilyPond%20-%20Frescobaldi/%ce%9a%ce%ac%cf%84%cf%89_%cf%83%cf%84%ce%bf_%ce%b3%ce%b9%ce%b1%ce%bb%cf%8c_%ce%b1.ly:18:2:3">
<g transform="translate(50.8631, 20.3129)">
<path transform="scale(0.0040, -0.0040)" d="M218 136c55 0 108 -28 108 -89c0 -71 -55 -121 -102 -149c-35 -21 -75 -34 -116 -34c-55 0 -108 28 -108 89c0 71 55 121 102 149c35 21 75 34 116 34z" fill="currentColor"/>
</g>
</a>
<g transform="translate(52.1024, 19.3129)">
<rect x="-0.0650" y="-2.0000" width="0.1300" height="2.8139" ry="0.0400" fill="currentColor"/>
</g>
<g transform="translate(56.1123, 19.3129)">
<rect x="-0.0650" y="-2.0000" width="0.1300" height="2.8139" ry="0.0400" fill="currentColor"/>
</g>
<g transform="translate(59.9551, 19.3129)">
<rect x="-0.0650" y="-1.0000" width="0.1300" height="2.8139" ry="0.0400" fill="currentColor"/>
</g>
<a style="color:inherit;" xlink:href="textedit://C:/Users/har1sf0x/Documents/LilyPond%20-%20Frescobaldi/%ce%9a%ce%ac%cf%84%cf%89_%cf%83%cf%84%ce%bf_%ce%b3%ce%b9%ce%b1%ce%bb%cf%8c_%ce%b1.ly:18:64:65">
<g transform="translate(58.7159, 21.3129)">
<path transform="scale(0.0040, -0.0040)" d="M218 136c55 0 108 -28 108 -89c0 -71 -55 -121 -102 -149c-35 -21 -75 -34 -116 -34c-55 0 -108 28 -108 89c0 71 55 121 102 149c35 21 75 34 116 34z" fill="currentColor"/>
</g>
</a>
<a style="color:inherit;" xlink:href="textedit://C:/Users/har1sf0x/Documents/LilyPond%20-%20Frescobaldi/%ce%9a%ce%ac%cf%84%cf%89_%cf%83%cf%84%ce%bf_%ce%b3%ce%b9%ce%b1%ce%bb%cf%8c_%ce%b1.ly:20:2:3">
<g transform="translate(64.6901, 20.3129)">
<path transform="scale(0.0040, -0.0040)" d="M218 136c55 0 108 -28 108 -89c0 -71 -55 -121 -102 -149c-35 -21 -75 -34 -116 -34c-55 0 -108 28 -108 89c0 71 55 121 102 149c35 21 75 34 116 34z" fill="currentColor"/>
</g>
</a>
<a style="color:inherit;" xlink:href="textedit://C:/Users/har1sf0x/Documents/LilyPond%20-%20Frescobaldi/%ce%9a%ce%ac%cf%84%cf%89_%cf%83%cf%84%ce%bf_%ce%b3%ce%b9%ce%b1%ce%bb%cf%8c_%ce%b1.ly:19:11:12">
<g transform="translate(62.4944, 16.4629)">
<text font-family="serif" font-size="2.6163" text-anchor="start" fill="currentColor">
<tspan>B</tspan>
</text>
</g>
</a>
<g transform="translate(65.9294, 19.3129)">
<rect x="-0.0650" y="-2.1840" width="0.1300" height="2.9979" ry="0.0400" fill="currentColor"/>
</g>
<a style="color:inherit;" xlink:href="textedit://C:/Users/har1sf0x/Documents/LilyPond%20-%20Frescobaldi/%ce%9a%ce%ac%cf%84%cf%89_%cf%83%cf%84%ce%bf_%ce%b3%ce%b9%ce%b1%ce%bb%cf%8c_%ce%b1.ly:18:47:48">
<g transform="translate(56.4773, 21.3129)">
<path transform="scale(0.0040, -0.0040)" d="M218 136c55 0 108 -28 108 -89c0 -71 -55 -121 -102 -149c-35 -21 -75 -34 -116 -34c-55 0 -108 28 -108 89c0 71 55 121 102 149c35 21 75 34 116 34z" fill="currentColor"/>
</g>
</a>
<g transform="translate(57.7165, 19.3129)">
<rect x="-0.0650" y="-1.0000" width="0.1300" height="2.8139" ry="0.0400" fill="currentColor"/>
</g>
<g transform="translate(46.5295, 19.3129)">
<rect x="-0.0650" y="-1.1848" width="0.1300" height="2.4987" ry="0.0400" fill="currentColor"/>
</g>
<a style="color:inherit;" xlink:href="textedit://C:/Users/har1sf0x/Documents/LilyPond%20-%20Frescobaldi/%ce%9a%ce%ac%cf%84%cf%89_%cf%83%cf%84%ce%bf_%ce%b3%ce%b9%ce%b1%ce%bb%cf%8c_%ce%b1.ly:17:45:46">
<g transform="translate(45.2903, 20.8129)">
<path transform="scale(0.0040, -0.0040)" d="M218 136c55 0 108 -28 108 -89c0 -71 -55 -121 -102 -149c-35 -21 -75 -34 -116 -34c-55 0 -108 28 -108 89c0 71 55 121 102 149c35 21 75 34 116 34z" fill="currentColor"/>
</g>
</a>
<g transform="translate(44.7581, 19.3129)">
<rect x="-0.0650" y="-2.8130" width="0.1300" height="3.6269" ry="0.0400" fill="currentColor"/>
</g>
<a style="color:inherit;" xlink:href="textedit://C:/Users/har1sf0x/Documents/LilyPond%20-%20Frescobaldi/%ce%9a%ce%ac%cf%84%cf%89_%cf%83%cf%84%ce%bf_%ce%b3%ce%b9%ce%b1%ce%bb%cf%8c_%ce%b1.ly:17:33:34">
<g transform="translate(43.5189, 20.3129)">
<path transform="scale(0.0040, -0.0040)" d="M218 136c55 0 108 -28 108 -89c0 -71 -55 -121 -102 -149c-35 -21 -75 -34 -116 -34c-55 0 -108 28 -108 89c0 71 55 121 102 149c35 21 75 34 116 34z" fill="currentColor"/>
</g>
</a>
<g transform="translate(42.9867, 19.3129)">
<rect x="-0.0650" y="-2.8943" width="0.1300" height="3.7082" ry="0.0400" fill="currentColor"/>
</g>
<a style="color:inherit;" xlink:href="textedit://C:/Users/har1sf0x/Documents/LilyPond%20-%20Frescobaldi/%ce%9a%ce%ac%cf%84%cf%89_%cf%83%cf%84%ce%bf_%ce%b3%ce%b9%ce%b1%ce%bb%cf%8c_%ce%b1.ly:17:17:18">
<g transform="translate(41.7475, 20.3129)">
<path transform="scale(0.0040, -0.0040)" d="M218 136c55 0 108 -28 108 -89c0 -71 -55 -121 -102 -149c-35 -21 -75 -34 -116 -34c-55 0 -108 28 -108 89c0 71 55 121 102 149c35 21 75 34 116 34z" fill="currentColor"/>
</g>
</a>
<g transform="translate(48.7681, 19.3129)">
<rect x="-0.0650" y="-1.0052" width="0.1300" height="2.8191" ry="0.0400" fill="currentColor"/>
</g>
<a style="color:inherit;" xlink:href="textedit://C:/Users/har1sf0x/Documents/LilyPond%20-%20Frescobaldi/%ce%9a%ce%ac%cf%84%cf%89_%cf%83%cf%84%ce%bf_%ce%b3%ce%b9%ce%b1%ce%bb%cf%8c_%ce%b1.ly:17:60:61">
<g transform="translate(47.5289, 21.3129)">
<path transform="scale(0.0040, -0.0040)" d="M218 136c55 0 108 -28 108 -89c0 -71 -55 -121 -102 -149c-35 -21 -75 -34 -116 -34c-55 0 -108 28 -108 89c0 71 55 121 102 149c35 21 75 34 116 34z" fill="currentColor"/>
</g>
</a>
<g transform="translate(54.0830, 29.5182)">
<text font-family="serif" font-size="2.2001" text-anchor="start" fill="currentColor">
<tspan>Χ. Κόχυλας</tspan>
</text>
</g>
<g transform="translate(30.6607, 33.0462)">
<a xlink:href="https://lilypond.org/">
<rect x="0.0000" y="-0.5280" width="58.1802" height="2.2001" fill="none" stroke="none" stroke-width="0.0"/>
</a>
</g>
<g transform="translate(30.6607, 33.0462)">
<text font-family="serif" font-size="2.2001" text-anchor="start" fill="currentColor">
<tspan>Music engraving by LilyPond 2.24.4—www.lilypond.org</tspan>
</text>
</g>
</svg>
