<svg xmlns="http://www.w3.org/2000/svg" xmlns:xlink="http://www.w3.org/1999/xlink" version="1.2" width="210.00mm" height="65.00mm" viewBox="0.0000 -0.0000 119.5016 36.9886">
<style type="text/css">
<![CDATA[
tspan { white-space: pre; }
]]>
</style>
<g transform="translate(43.1059, 6.6255)">
<text font-family="serif" font-weight="bold" font-size="3.4927" text-anchor="start" fill="currentColor">
<tspan>Κάτω στο γιαλό (α)</tspan>
</text>
</g>
<g transform="translate(51.5393, 10.1255)">
<text font-family="serif" font-weight="bold" font-size="2.4696" text-anchor="start" fill="currentColor">
<tspan>Αιγαίο (Χίος)</tspan>
</text>
</g>
<g transform="translate(5.6906, 23.3017)">
<line stroke-linejoin="round" stroke-linecap="round" stroke-width="0.1000" stroke="currentColor" x1="0.0500" y1="0" x2="108.0705" y2="0"/>
</g>
<g transform="translate(5.6906, 22.3017)">
<line stroke-linejoin="round" stroke-linecap="round" stroke-width="0.1000" stroke="currentColor" x1="0.0500" y1="0" x2="108.0705" y2="0"/>
</g>
<g transform="translate(5.6906, 21.3017)">
<line stroke-linejoin="round" stroke-linecap="round" stroke-width="0.1000" stroke="currentColor" x1="0.0500" y1="0" x2="108.0705" y2="0"/>
</g>
<g transform="translate(5.6906, 20.3017)">
<line stroke-linejoin="round" stroke-linecap="round" stroke-width="0.1000" stroke="currentColor" x1="0.0500" y1="0" x2="108.0705" y2="0"/>
</g>
<g transform="translate(5.6906, 19.3017)">
<line stroke-linejoin="round" stroke-linecap="round" stroke-width="0.1000" stroke="currentColor" x1="0.0500" y1="0" x2="108.0705" y2="0"/>
</g>
<g transform="translate(38.6393, 21.3017)">
<rect x="0.0000" y="-2.0000" width="0.1900" height="4.0000" ry="0.0000" fill="currentColor"/>
</g>
<g transform="translate(87.8557, 21.3017)">
<rect x="0.0000" y="-2.0000" width="0.1900" height="4.0000" ry="0.0000" fill="currentColor"/>
</g>
<g transform="translate(100.1984, 21.3017)">
<rect x="0.0000" y="-2.0000" width="0.1900" height="4.0000" ry="0.0000" fill="currentColor"/>
</g>
<g transform="translate(27.4428, 21.3017)">
<rect x="0.0000" y="-2.0000" width="0.1900" height="4.0000" ry="0.0000" fill="currentColor"/>
</g>
<g transform="translate(49.9359, 21.3017)">
<rect x="0.0000" y="-2.0000" width="0.1900" height="4.0000" ry="0.0000" fill="currentColor"/>
</g>
<g transform="translate(76.2484, 21.3017)">
<rect x="0.0000" y="-2.0000" width="0.1900" height="4.0000" ry="0.0000" fill="currentColor"/>
</g>
<g transform="translate(111.9710, 20.8017)">
<path transform="scale(0.0040, -0.0040)" d="M0 0c0 31 25 56 56 56s56 -25 56 -56s-25 -56 -56 -56s-56 25 -56 56z" fill="currentColor"/>
</g>
<g transform="translate(111.9710, 21.8017)">
<path transform="scale(0.0040, -0.0040)" d="M0 0c0 31 25 56 56 56s56 -25 56 -56s-25 -56 -56 -56s-56 25 -56 56z" fill="currentColor"/>
</g>
<g transform="translate(113.2110, 21.3017)">
<rect x="0.0000" y="-2.0000" width="0.6000" height="4.0000" ry="0.0000" fill="currentColor"/>
</g>
<g transform="translate(112.7210, 21.3017)">
<rect x="0.0000" y="-2.0000" width="0.1900" height="4.0000" ry="0.0000" fill="currentColor"/>
</g>
<g transform="translate(61.1467, 20.8017)">
<path transform="scale(0.0040, -0.0040)" d="M0 0c0 31 25 56 56 56s56 -25 56 -56s-25 -56 -56 -56s-56 25 -56 56z" fill="currentColor"/>
</g>
<g transform="translate(61.1467, 21.8017)">
<path transform="scale(0.0040, -0.0040)" d="M0 0c0 31 25 56 56 56s56 -25 56 -56s-25 -56 -56 -56s-56 25 -56 56z" fill="currentColor"/>
</g>
<g transform="translate(63.7767, 20.8017)">
<path transform="scale(0.0040, -0.0040)" d="M0 0c0 31 25 56 56 56s56 -25 56 -56s-25 -56 -56 -56s-56 25 -56 56z" fill="currentColor"/>
</g>
<g transform="translate(63.7767, 21.8017)">
<path transform="scale(0.0040, -0.0040)" d="M0 0c0 31 25 56 56 56s56 -25 56 -56s-25 -56 -56 -56s-56 25 -56 56z" fill="currentColor"/>
</g>
<g transform="translate(63.2867, 21.3017)">
<rect x="0.0000" y="-2.0000" width="0.1900" height="4.0000" ry="0.0000" fill="currentColor"/>
</g>
<g transform="translate(62.3867, 21.3017)">
<rect x="0.0000" y="-2.0000" width="0.6000" height="4.0000" ry="0.0000" fill="currentColor"/>
</g>
<g transform="translate(61.8967, 21.3017)">
<rect x="0.0000" y="-2.0000" width="0.1900" height="4.0000" ry="0.0000" fill="currentColor"/>
</g>
<a style="color:inherit;" xlink:href="textedit://C:/Users/har1sf0x/Documents/LilyPond%20-%20Frescobaldi/%ce%9a%ce%ac%cf%84%cf%89_%cf%83%cf%84%ce%bf_%ce%b3%ce%b9%ce%b1%ce%bb%cf%8c_%ce%b1.ly:21:42:43">
<g transform="translate(81.6569, 21.8017)">
<path transform="scale(0.0040, -0.0040)" d="M218 136c55 0 108 -28 108 -89c0 -71 -55 -121 -102 -149c-35 -21 -75 -34 -116 -34c-55 0 -108 28 -108 89c0 71 55 121 102 149c35 21 75 34 116 34z" fill="currentColor"/>
</g>
</a>
<a style="color:inherit;" xlink:href="textedit://C:/Users/har1sf0x/Documents/LilyPond%20-%20Frescobaldi/%ce%9a%ce%ac%cf%84%cf%89_%cf%83%cf%84%ce%bf_%ce%b3%ce%b9%ce%b1%ce%bb%cf%8c_%ce%b1.ly:21:43:44">
<g transform="translate(81.8822, 17.5504)">
<path transform="scale(0.0022, -0.0022)" d="M190 446c-56 0 -61 -84 -61 -155v-41v-41c0 -71 5 -155 61 -155s61 84 61 155v41v41c0 71 -5 155 -61 155zM190 500c118 0 190 -122 190 -250s-72 -250 -190 -250s-190 122 -190 250s72 250 190 250z" fill="currentColor"/>
</g>
</a>
<g transform="translate(82.8961, 21.3017)">
<rect x="-0.0650" y="-3.0112" width="0.1300" height="3.3251" ry="0.0400" fill="currentColor"/>
</g>
<a style="color:inherit;" xlink:href="textedit://C:/Users/har1sf0x/Documents/LilyPond%20-%20Frescobaldi/%ce%9a%ce%ac%cf%84%cf%89_%cf%83%cf%84%ce%bf_%ce%b3%ce%b9%ce%b1%ce%bb%cf%8c_%ce%b1.ly:21:54:55">
<g transform="translate(83.4660, 21.3017)">
<path transform="scale(0.0040, -0.0040)" d="M218 136c55 0 108 -28 108 -89c0 -71 -55 -121 -102 -149c-35 -21 -75 -34 -116 -34c-55 0 -108 28 -108 89c0 71 55 121 102 149c35 21 75 34 116 34z" fill="currentColor"/>
</g>
</a>
<g transform="translate(81.1052, 21.3017)">
<rect x="-0.0650" y="-3.3208" width="0.1300" height="3.6347" ry="0.0400" fill="currentColor"/>
</g>
<g transform="translate(107.4160, 24.3017)">
<polygon stroke-linejoin="round" stroke-linecap="round" stroke-width="0.0800" fill="currentColor" stroke="currentColor" points="2.3675 -0.2000 2.3675 0.2000 0.0400 0.2000 0.0400 -0.2000"/>
</g>
<a style="color:inherit;" xlink:href="textedit://C:/Users/har1sf0x/Documents/LilyPond%20-%20Frescobaldi/%ce%9a%ce%ac%cf%84%cf%89_%cf%83%cf%84%ce%bf_%ce%b3%ce%b9%ce%b1%ce%bb%cf%8c_%ce%b1.ly:21:26:27">
<g transform="translate(79.8660, 21.8017)">
<path transform="scale(0.0040, -0.0040)" d="M218 136c55 0 108 -28 108 -89c0 -71 -55 -121 -102 -149c-35 -21 -75 -34 -116 -34c-55 0 -108 28 -108 89c0 71 55 121 102 149c35 21 75 34 116 34z" fill="currentColor"/>
</g>
</a>
<a style="color:inherit;" xlink:href="textedit://C:/Users/har1sf0x/Documents/LilyPond%20-%20Frescobaldi/%ce%9a%ce%ac%cf%84%cf%89_%cf%83%cf%84%ce%bf_%ce%b3%ce%b9%ce%b1%ce%bb%cf%8c_%ce%b1.ly:21:29:30">
<g transform="translate(80.0913, 17.2409)">
<path transform="scale(0.0022, -0.0022)" d="M190 446c-56 0 -61 -84 -61 -155v-41v-41c0 -71 5 -155 61 -155s61 84 61 155v41v41c0 71 -5 155 -61 155zM190 500c118 0 190 -122 190 -250s-72 -250 -190 -250s-190 122 -190 250s72 250 190 250z" fill="currentColor"/>
</g>
</a>
<g transform="translate(88.9040, 21.3017)">
<rect x="-0.0650" y="-0.8139" width="0.1300" height="3.0135" ry="0.0400" fill="currentColor"/>
</g>
<a style="color:inherit;" xlink:href="textedit://C:/Users/har1sf0x/Documents/LilyPond%20-%20Frescobaldi/%ce%9a%ce%ac%cf%84%cf%89_%cf%83%cf%84%ce%bf_%ce%b3%ce%b9%ce%b1%ce%bb%cf%8c_%ce%b1.ly:22:2:3">
<g transform="translate(88.8390, 20.3017)">
<path transform="scale(0.0040, -0.0040)" d="M218 136c55 0 108 -28 108 -89c0 -71 -55 -121 -102 -149c-35 -21 -75 -34 -116 -34c-55 0 -108 28 -108 89c0 71 55 121 102 149c35 21 75 34 116 34z" fill="currentColor"/>
</g>
</a>
<a style="color:inherit;" xlink:href="textedit://C:/Users/har1sf0x/Documents/LilyPond%20-%20Frescobaldi/%ce%9a%ce%ac%cf%84%cf%89_%cf%83%cf%84%ce%bf_%ce%b3%ce%b9%ce%b1%ce%bb%cf%8c_%ce%b1.ly:22:4:5">
<g transform="translate(89.0984, 18.2517)">
<path transform="scale(0.0022, -0.0022)" d="M155 457c-34 0 -71 -8 -71 -38c0 -19 32 -23 32 -42c0 -28 -23 -51 -51 -51s-51 23 -51 51c0 72 66 123 141 123c93 0 174 -31 174 -113c0 -36 -10 -65 -42 -80c-17 -8 -26 -25 -26 -41s9 -32 26 -40c37 -17 59 -45 59 -85c0 -94 -83 -141 -186 -141
c-84 0 -160 54 -160 133c0 32 26 58 58 58s58 -26 58 -58c0 -22 -36 -26 -36 -48c0 -33 42 -42 80 -42c41 0 56 50 56 98v21c0 44 -2 77 -43 77h-65c-18 0 -27 14 -27 27s9 27 27 27h65c42 0 43 36 43 83v11c0 43 -20 70 -61 70z" fill="currentColor"/>
</g>
</a>
<a style="color:inherit;" xlink:href="textedit://C:/Users/har1sf0x/Documents/LilyPond%20-%20Frescobaldi/%ce%9a%ce%ac%cf%84%cf%89_%cf%83%cf%84%ce%bf_%ce%b3%ce%b9%ce%b1%ce%bb%cf%8c_%ce%b1.ly:21:58:59">
<g transform="translate(83.7084, 18.2517)">
<path transform="scale(0.0022, -0.0022)" d="M194 486c15 0 25 15 41 15c13 0 24 -13 24 -31v-341c0 -47 35 -86 81 -86c14 0 21 -10 21 -21s-7 -22 -21 -22c-49 0 -97 14 -146 14s-96 -14 -145 -14c-14 0 -22 11 -22 22s8 21 22 21c46 0 80 39 80 86v137c0 23 -16 35 -30 35c-7 0 -13 -4 -17 -11l-34 -65
c-5 -10 -14 -15 -23 -15c-14 0 -28 12 -28 27c0 4 1 8 3 13l129 250c2 4 7 6 11 6c20 0 35 -20 54 -20z" fill="currentColor"/>
</g>
</a>
<g transform="translate(83.5310, 21.3017)">
<rect x="-0.0650" y="0.1861" width="0.1300" height="2.8088" ry="0.0400" fill="currentColor"/>
</g>
<a style="color:inherit;" xlink:href="textedit://C:/Users/har1sf0x/Documents/LilyPond%20-%20Frescobaldi/%ce%9a%ce%ac%cf%84%cf%89_%cf%83%cf%84%ce%bf_%ce%b3%ce%b9%ce%b1%ce%bb%cf%8c_%ce%b1.ly:21:71:72">
<g transform="translate(85.7435, 20.8017)">
<path transform="scale(0.0040, -0.0040)" d="M218 136c55 0 108 -28 108 -89c0 -71 -55 -121 -102 -149c-35 -21 -75 -34 -116 -34c-55 0 -108 28 -108 89c0 71 55 121 102 149c35 21 75 34 116 34z" fill="currentColor"/>
</g>
</a>
<a style="color:inherit;" xlink:href="textedit://C:/Users/har1sf0x/Documents/LilyPond%20-%20Frescobaldi/%ce%9a%ce%ac%cf%84%cf%89_%cf%83%cf%84%ce%bf_%ce%b3%ce%b9%ce%b1%ce%bb%cf%8c_%ce%b1.ly:21:72:73">
<g transform="translate(85.9859, 18.2517)">
<path transform="scale(0.0022, -0.0022)" d="M194 486c15 0 25 15 41 15c13 0 24 -13 24 -31v-341c0 -47 35 -86 81 -86c14 0 21 -10 21 -21s-7 -22 -21 -22c-49 0 -97 14 -146 14s-96 -14 -145 -14c-14 0 -22 11 -22 22s8 21 22 21c46 0 80 39 80 86v137c0 23 -16 35 -30 35c-7 0 -13 -4 -17 -11l-34 -65
c-5 -10 -14 -15 -23 -15c-14 0 -28 12 -28 27c0 4 1 8 3 13l129 250c2 4 7 6 11 6c20 0 35 -20 54 -20z" fill="currentColor"/>
</g>
</a>
<g transform="translate(85.8085, 21.3017)">
<rect x="-0.0650" y="-0.3139" width="0.1300" height="3.1290" ry="0.0400" fill="currentColor"/>
</g>
<a style="color:inherit;" xlink:href="textedit://C:/Users/har1sf0x/Documents/LilyPond%20-%20Frescobaldi/%ce%9a%ce%ac%cf%84%cf%89_%cf%83%cf%84%ce%bf_%ce%b3%ce%b9%ce%b1%ce%bb%cf%8c_%ce%b1.ly:20:33:34">
<g transform="translate(68.9573, 21.3017)">
<path transform="scale(0.0040, -0.0040)" d="M218 136c55 0 108 -28 108 -89c0 -71 -55 -121 -102 -149c-35 -21 -75 -34 -116 -34c-55 0 -108 28 -108 89c0 71 55 121 102 149c35 21 75 34 116 34z" fill="currentColor"/>
</g>
</a>
<a style="color:inherit;" xlink:href="textedit://C:/Users/har1sf0x/Documents/LilyPond%20-%20Frescobaldi/%ce%9a%ce%ac%cf%84%cf%89_%cf%83%cf%84%ce%bf_%ce%b3%ce%b9%ce%b1%ce%bb%cf%8c_%ce%b1.ly:20:36:37">
<g transform="translate(69.1997, 18.2517)">
<path transform="scale(0.0022, -0.0022)" d="M194 486c15 0 25 15 41 15c13 0 24 -13 24 -31v-341c0 -47 35 -86 81 -86c14 0 21 -10 21 -21s-7 -22 -21 -22c-49 0 -97 14 -146 14s-96 -14 -145 -14c-14 0 -22 11 -22 22s8 21 22 21c46 0 80 39 80 86v137c0 23 -16 35 -30 35c-7 0 -13 -4 -17 -11l-34 -65
c-5 -10 -14 -15 -23 -15c-14 0 -28 12 -28 27c0 4 1 8 3 13l129 250c2 4 7 6 11 6c20 0 35 -20 54 -20z" fill="currentColor"/>
</g>
</a>
<g transform="translate(69.0223, 21.3017)">
<rect x="-0.0650" y="0.1861" width="0.1300" height="2.6143" ry="0.0400" fill="currentColor"/>
</g>
<a style="color:inherit;" xlink:href="textedit://C:/Users/har1sf0x/Documents/LilyPond%20-%20Frescobaldi/%ce%9a%ce%ac%cf%84%cf%89_%cf%83%cf%84%ce%bf_%ce%b3%ce%b9%ce%b1%ce%bb%cf%8c_%ce%b1.ly:20:47:48">
<g transform="translate(70.5615, 21.8017)">
<path transform="scale(0.0040, -0.0040)" d="M218 136c55 0 108 -28 108 -89c0 -71 -55 -121 -102 -149c-35 -21 -75 -34 -116 -34c-55 0 -108 28 -108 89c0 71 55 121 102 149c35 21 75 34 116 34z" fill="currentColor"/>
</g>
</a>
<g color="rgb(50.0000%, 50.0000%, 50.0000%)">
<a style="color:inherit;" xlink:href="textedit://C:/Users/har1sf0x/Documents/LilyPond%20-%20Frescobaldi/%ce%9a%ce%ac%cf%84%cf%89_%cf%83%cf%84%ce%bf_%ce%b3%ce%b9%ce%b1%ce%bb%cf%8c_%ce%b1.ly:20:47:48">
<g transform="translate(70.5615, 23.8017)">
<path transform="scale(0.0040, -0.0040)" d="M218 136c55 0 108 -28 108 -89c0 -71 -55 -121 -102 -149c-35 -21 -75 -34 -116 -34c-55 0 -108 28 -108 89c0 71 55 121 102 149c35 21 75 34 116 34z" fill="currentColor"/>
</g>
</a>
</g>
<g color="rgb(50.0000%, 50.0000%, 50.0000%)">
<a style="color:inherit;" xlink:href="textedit://C:/Users/har1sf0x/Documents/LilyPond%20-%20Frescobaldi/%ce%9a%ce%ac%cf%84%cf%89_%cf%83%cf%84%ce%bf_%ce%b3%ce%b9%ce%b1%ce%bb%cf%8c_%ce%b1.ly:20:47:48">
<g transform="translate(71.8007, 21.8017)">
<path transform="scale(0.0040, -0.0040)" d="M218 136c55 0 108 -28 108 -89c0 -71 -55 -121 -102 -149c-35 -21 -75 -34 -116 -34c-55 0 -108 28 -108 89c0 71 55 121 102 149c35 21 75 34 116 34z" fill="currentColor"/>
</g>
</a>
</g>
<a style="color:inherit;" xlink:href="textedit://C:/Users/har1sf0x/Documents/LilyPond%20-%20Frescobaldi/%ce%9a%ce%ac%cf%84%cf%89_%cf%83%cf%84%ce%bf_%ce%b3%ce%b9%ce%b1%ce%bb%cf%8c_%ce%b1.ly:20:47:48">
<g transform="translate(70.8210, 17.7517)">
<path transform="scale(0.0022, -0.0022)" d="M64 500c42 -7 84 -14 127 -14s85 7 127 14c2 0 5 1 7 1c17 0 28 -12 28 -22c0 -4 -1 -6 -4 -9c-61 -61 -145 -91 -231 -91c-17 0 -30 -14 -30 -31v-41c25 25 62 25 97 25h5c115 0 181 -55 181 -166c0 -99 -96 -166 -202 -166c-88 0 -169 52 -169 133c0 32 26 58 58 58
s58 -26 58 -58c0 -22 -36 -26 -36 -48c0 -36 47 -42 89 -42c52 0 73 63 73 123c0 53 -6 112 -52 112c-41 0 -84 -1 -107 -33c-6 -8 -14 -11 -22 -11c-14 0 -27 10 -27 27v209c0 17 11 30 26 30h4z" fill="currentColor"/>
</g>
</a>
<a style="color:inherit;" xlink:href="textedit://C:/Users/har1sf0x/Documents/LilyPond%20-%20Frescobaldi/%ce%9a%ce%ac%cf%84%cf%89_%cf%83%cf%84%ce%bf_%ce%b3%ce%b9%ce%b1%ce%bb%cf%8c_%ce%b1.ly:20:17:18">
<g transform="translate(67.1664, 20.8017)">
<path transform="scale(0.0040, -0.0040)" d="M218 136c55 0 108 -28 108 -89c0 -71 -55 -121 -102 -149c-35 -21 -75 -34 -116 -34c-55 0 -108 28 -108 89c0 71 55 121 102 149c35 21 75 34 116 34z" fill="currentColor"/>
</g>
</a>
<a style="color:inherit;" xlink:href="textedit://C:/Users/har1sf0x/Documents/LilyPond%20-%20Frescobaldi/%ce%9a%ce%ac%cf%84%cf%89_%cf%83%cf%84%ce%bf_%ce%b3%ce%b9%ce%b1%ce%bb%cf%8c_%ce%b1.ly:20:20:21">
<g transform="translate(67.4088, 18.2517)">
<path transform="scale(0.0022, -0.0022)" d="M194 486c15 0 25 15 41 15c13 0 24 -13 24 -31v-341c0 -47 35 -86 81 -86c14 0 21 -10 21 -21s-7 -22 -21 -22c-49 0 -97 14 -146 14s-96 -14 -145 -14c-14 0 -22 11 -22 22s8 21 22 21c46 0 80 39 80 86v137c0 23 -16 35 -30 35c-7 0 -13 -4 -17 -11l-34 -65
c-5 -10 -14 -15 -23 -15c-14 0 -28 12 -28 27c0 4 1 8 3 13l129 250c2 4 7 6 11 6c20 0 35 -20 54 -20z" fill="currentColor"/>
</g>
</a>
<g transform="translate(67.2314, 21.3017)">
<rect x="-0.0650" y="-0.3139" width="0.1300" height="2.8498" ry="0.0400" fill="currentColor"/>
</g>
<a style="color:inherit;" xlink:href="textedit://C:/Users/har1sf0x/Documents/LilyPond%20-%20Frescobaldi/%ce%9a%ce%ac%cf%84%cf%89_%cf%83%cf%84%ce%bf_%ce%b3%ce%b9%ce%b1%ce%bb%cf%8c_%ce%b1.ly:21:2:3">
<g transform="translate(77.1006, 22.3017)">
<path transform="scale(0.0040, -0.0040)" d="M218 136c55 0 108 -28 108 -89c0 -71 -55 -121 -102 -149c-35 -21 -75 -34 -116 -34c-55 0 -108 28 -108 89c0 71 55 121 102 149c35 21 75 34 116 34z" fill="currentColor"/>
</g>
</a>
<g color="rgb(50.0000%, 50.0000%, 50.0000%)">
<a style="color:inherit;" xlink:href="textedit://C:/Users/har1sf0x/Documents/LilyPond%20-%20Frescobaldi/%ce%9a%ce%ac%cf%84%cf%89_%cf%83%cf%84%ce%bf_%ce%b3%ce%b9%ce%b1%ce%bb%cf%8c_%ce%b1.ly:21:2:3">
<g transform="translate(77.1006, 20.3017)">
<path transform="scale(0.0040, -0.0040)" d="M218 136c55 0 108 -28 108 -89c0 -71 -55 -121 -102 -149c-35 -21 -75 -34 -116 -34c-55 0 -108 28 -108 89c0 71 55 121 102 149c35 21 75 34 116 34z" fill="currentColor"/>
</g>
</a>
</g>
<g color="rgb(50.0000%, 50.0000%, 50.0000%)">
<a style="color:inherit;" xlink:href="textedit://C:/Users/har1sf0x/Documents/LilyPond%20-%20Frescobaldi/%ce%9a%ce%ac%cf%84%cf%89_%cf%83%cf%84%ce%bf_%ce%b3%ce%b9%ce%b1%ce%bb%cf%8c_%ce%b1.ly:21:2:3">
<g transform="translate(78.2618, 22.3017)">
<path transform="scale(0.0040, -0.0040)" d="M218 136c55 0 108 -28 108 -89c0 -71 -55 -121 -102 -149c-35 -21 -75 -34 -116 -34c-55 0 -108 28 -108 89c0 71 55 121 102 149c35 21 75 34 116 34z" fill="currentColor"/>
</g>
</a>
</g>
<a style="color:inherit;" xlink:href="textedit://C:/Users/har1sf0x/Documents/LilyPond%20-%20Frescobaldi/%ce%9a%ce%ac%cf%84%cf%89_%cf%83%cf%84%ce%bf_%ce%b3%ce%b9%ce%b1%ce%bb%cf%8c_%ce%b1.ly:21:2:3">
<g transform="translate(77.3600, 15.1381)">
<path transform="scale(0.0022, -0.0022)" d="M155 457c-34 0 -71 -8 -71 -38c0 -19 32 -23 32 -42c0 -28 -23 -51 -51 -51s-51 23 -51 51c0 72 66 123 141 123c93 0 174 -31 174 -113c0 -36 -10 -65 -42 -80c-17 -8 -26 -25 -26 -41s9 -32 26 -40c37 -17 59 -45 59 -85c0 -94 -83 -141 -186 -141
c-84 0 -160 54 -160 133c0 32 26 58 58 58s58 -26 58 -58c0 -22 -36 -26 -36 -48c0 -33 42 -42 80 -42c41 0 56 50 56 98v21c0 44 -2 77 -43 77h-65c-18 0 -27 14 -27 27s9 27 27 27h65c42 0 43 36 43 83v11c0 43 -20 70 -61 70z" fill="currentColor"/>
</g>
</a>
<a style="color:inherit;" xlink:href="textedit://C:/Users/har1sf0x/Documents/LilyPond%20-%20Frescobaldi/%ce%9a%ce%ac%cf%84%cf%89_%cf%83%cf%84%ce%bf_%ce%b3%ce%b9%ce%b1%ce%bb%cf%8c_%ce%b1.ly:21:2:3">
<g transform="translate(77.2918, 16.7629)">
<path transform="scale(0.0022, -0.0022)" d="M204 223c21 13 46 23 59 45c8 14 10 46 31 46c11 0 24 -8 24 -25v-110h70c18 0 27 -14 27 -27s-9 -27 -27 -27h-70c2 -45 36 -82 80 -82c14 0 22 -10 22 -21s-8 -22 -22 -22c-49 0 -96 14 -145 14s-97 -14 -146 -14c-14 0 -21 11 -21 22s7 21 21 21c44 0 79 37 81 82
h-134c-43 0 -57 25 -57 42c0 5 1 10 3 12c73 81 123 182 123 291c0 17 11 31 25 31c2 0 4 0 6 -1c22 -6 43 -14 66 -14s45 8 67 14c3 1 6 1 9 1c15 0 26 -11 26 -21c0 -4 -1 -7 -4 -10l-264 -291h134v4c0 16 3 32 16 40z" fill="currentColor"/>
</g>
</a>
<g transform="translate(78.3398, 21.3017)">
<rect x="-0.0650" y="-3.7988" width="0.1300" height="4.6127" ry="0.0400" fill="currentColor"/>
</g>
<g color="rgb(50.0000%, 50.0000%, 50.0000%)">
<a style="color:inherit;" xlink:href="textedit://C:/Users/har1sf0x/Documents/LilyPond%20-%20Frescobaldi/%ce%9a%ce%ac%cf%84%cf%89_%cf%83%cf%84%ce%bf_%ce%b3%ce%b9%ce%b1%ce%bb%cf%8c_%ce%b1.ly:20:69:70">
<g transform="translate(73.4049, 23.8017)">
<path transform="scale(0.0040, -0.0040)" d="M218 136c55 0 108 -28 108 -89c0 -71 -55 -121 -102 -149c-35 -21 -75 -34 -116 -34c-55 0 -108 28 -108 89c0 71 55 121 102 149c35 21 75 34 116 34z" fill="currentColor"/>
</g>
</a>
</g>
<g transform="translate(71.8007, 21.3017)">
<rect x="-0.0650" y="-2.8100" width="0.1300" height="5.1239" ry="0.0400" fill="currentColor"/>
</g>
<a style="color:inherit;" xlink:href="textedit://C:/Users/har1sf0x/Documents/LilyPond%20-%20Frescobaldi/%ce%9a%ce%ac%cf%84%cf%89_%cf%83%cf%84%ce%bf_%ce%b3%ce%b9%ce%b1%ce%bb%cf%8c_%ce%b1.ly:20:69:70">
<g transform="translate(73.4049, 21.8017)">
<path transform="scale(0.0040, -0.0040)" d="M218 136c55 0 108 -28 108 -89c0 -71 -55 -121 -102 -149c-35 -21 -75 -34 -116 -34c-55 0 -108 28 -108 89c0 71 55 121 102 149c35 21 75 34 116 34z" fill="currentColor"/>
</g>
</a>
<g color="rgb(50.0000%, 50.0000%, 50.0000%)">
<a style="color:inherit;" xlink:href="textedit://C:/Users/har1sf0x/Documents/LilyPond%20-%20Frescobaldi/%ce%9a%ce%ac%cf%84%cf%89_%cf%83%cf%84%ce%bf_%ce%b3%ce%b9%ce%b1%ce%bb%cf%8c_%ce%b1.ly:20:69:70">
<g transform="translate(74.6442, 21.8017)">
<path transform="scale(0.0040, -0.0040)" d="M218 136c55 0 108 -28 108 -89c0 -71 -55 -121 -102 -149c-35 -21 -75 -34 -116 -34c-55 0 -108 28 -108 89c0 71 55 121 102 149c35 21 75 34 116 34z" fill="currentColor"/>
</g>
</a>
</g>
<a style="color:inherit;" xlink:href="textedit://C:/Users/har1sf0x/Documents/LilyPond%20-%20Frescobaldi/%ce%9a%ce%ac%cf%84%cf%89_%cf%83%cf%84%ce%bf_%ce%b3%ce%b9%ce%b1%ce%bb%cf%8c_%ce%b1.ly:20:69:70">
<g transform="translate(73.6644, 17.7517)">
<path transform="scale(0.0022, -0.0022)" d="M64 500c42 -7 84 -14 127 -14s85 7 127 14c2 0 5 1 7 1c17 0 28 -12 28 -22c0 -4 -1 -6 -4 -9c-61 -61 -145 -91 -231 -91c-17 0 -30 -14 -30 -31v-41c25 25 62 25 97 25h5c115 0 181 -55 181 -166c0 -99 -96 -166 -202 -166c-88 0 -169 52 -169 133c0 32 26 58 58 58
s58 -26 58 -58c0 -22 -36 -26 -36 -48c0 -36 47 -42 89 -42c52 0 73 63 73 123c0 53 -6 112 -52 112c-41 0 -84 -1 -107 -33c-6 -8 -14 -11 -22 -11c-14 0 -27 10 -27 27v209c0 17 11 30 26 30h4z" fill="currentColor"/>
</g>
</a>
<g transform="translate(74.6442, 21.3017)">
<rect x="-0.0650" y="-2.8100" width="0.1300" height="5.1239" ry="0.0400" fill="currentColor"/>
</g>
<a style="color:inherit;" xlink:href="textedit://C:/Users/har1sf0x/Documents/LilyPond%20-%20Frescobaldi/%ce%9a%ce%ac%cf%84%cf%89_%cf%83%cf%84%ce%bf_%ce%b3%ce%b9%ce%b1%ce%bb%cf%8c_%ce%b1.ly:23:58:59">
<g transform="translate(107.6584, 18.2517)">
<path transform="scale(0.0022, -0.0022)" d="M194 486c15 0 25 15 41 15c13 0 24 -13 24 -31v-341c0 -47 35 -86 81 -86c14 0 21 -10 21 -21s-7 -22 -21 -22c-49 0 -97 14 -146 14s-96 -14 -145 -14c-14 0 -22 11 -22 22s8 21 22 21c46 0 80 39 80 86v137c0 23 -16 35 -30 35c-7 0 -13 -4 -17 -11l-34 -65
c-5 -10 -14 -15 -23 -15c-14 0 -28 12 -28 27c0 4 1 8 3 13l129 250c2 4 7 6 11 6c20 0 35 -20 54 -20z" fill="currentColor"/>
</g>
</a>
<g transform="translate(106.8461, 21.3017)">
<rect x="-0.0650" y="-3.0112" width="0.1300" height="3.3251" ry="0.0400" fill="currentColor"/>
</g>
<a style="color:inherit;" xlink:href="textedit://C:/Users/har1sf0x/Documents/LilyPond%20-%20Frescobaldi/%ce%9a%ce%ac%cf%84%cf%89_%cf%83%cf%84%ce%bf_%ce%b3%ce%b9%ce%b1%ce%bb%cf%8c_%ce%b1.ly:23:54:55">
<g transform="translate(107.4160, 21.3017)">
<path transform="scale(0.0040, -0.0040)" d="M218 136c55 0 108 -28 108 -89c0 -71 -55 -121 -102 -149c-35 -21 -75 -34 -116 -34c-55 0 -108 28 -108 89c0 71 55 121 102 149c35 21 75 34 116 34z" fill="currentColor"/>
</g>
</a>
<g transform="translate(107.4810, 21.3017)">
<rect x="-0.0650" y="0.1861" width="0.1300" height="2.8139" ry="0.0400" fill="currentColor"/>
</g>
<g transform="translate(105.0553, 21.3017)">
<rect x="-0.0650" y="-3.3208" width="0.1300" height="3.6347" ry="0.0400" fill="currentColor"/>
</g>
<a style="color:inherit;" xlink:href="textedit://C:/Users/har1sf0x/Documents/LilyPond%20-%20Frescobaldi/%ce%9a%ce%ac%cf%84%cf%89_%cf%83%cf%84%ce%bf_%ce%b3%ce%b9%ce%b1%ce%bb%cf%8c_%ce%b1.ly:23:26:27">
<g transform="translate(103.8160, 21.8017)">
<path transform="scale(0.0040, -0.0040)" d="M218 136c55 0 108 -28 108 -89c0 -71 -55 -121 -102 -149c-35 -21 -75 -34 -116 -34c-55 0 -108 28 -108 89c0 71 55 121 102 149c35 21 75 34 116 34z" fill="currentColor"/>
</g>
</a>
<a style="color:inherit;" xlink:href="textedit://C:/Users/har1sf0x/Documents/LilyPond%20-%20Frescobaldi/%ce%9a%ce%ac%cf%84%cf%89_%cf%83%cf%84%ce%bf_%ce%b3%ce%b9%ce%b1%ce%bb%cf%8c_%ce%b1.ly:23:29:30">
<g transform="translate(104.0414, 17.2409)">
<path transform="scale(0.0022, -0.0022)" d="M190 446c-56 0 -61 -84 -61 -155v-41v-41c0 -71 5 -155 61 -155s61 84 61 155v41v41c0 71 -5 155 -61 155zM190 500c118 0 190 -122 190 -250s-72 -250 -190 -250s-190 122 -190 250s72 250 190 250z" fill="currentColor"/>
</g>
</a>
<a style="color:inherit;" xlink:href="textedit://C:/Users/har1sf0x/Documents/LilyPond%20-%20Frescobaldi/%ce%9a%ce%ac%cf%84%cf%89_%cf%83%cf%84%ce%bf_%ce%b3%ce%b9%ce%b1%ce%bb%cf%8c_%ce%b1.ly:23:71:72">
<g transform="translate(109.6935, 21.3017)">
<path transform="scale(0.0040, -0.0040)" d="M218 136c55 0 108 -28 108 -89c0 -71 -55 -121 -102 -149c-35 -21 -75 -34 -116 -34c-55 0 -108 28 -108 89c0 71 55 121 102 149c35 21 75 34 116 34z" fill="currentColor"/>
</g>
</a>
<a style="color:inherit;" xlink:href="textedit://C:/Users/har1sf0x/Documents/LilyPond%20-%20Frescobaldi/%ce%9a%ce%ac%cf%84%cf%89_%cf%83%cf%84%ce%bf_%ce%b3%ce%b9%ce%b1%ce%bb%cf%8c_%ce%b1.ly:23:42:43">
<g transform="translate(105.6069, 21.8017)">
<path transform="scale(0.0040, -0.0040)" d="M218 136c55 0 108 -28 108 -89c0 -71 -55 -121 -102 -149c-35 -21 -75 -34 -116 -34c-55 0 -108 28 -108 89c0 71 55 121 102 149c35 21 75 34 116 34z" fill="currentColor"/>
</g>
</a>
<a style="color:inherit;" xlink:href="textedit://C:/Users/har1sf0x/Documents/LilyPond%20-%20Frescobaldi/%ce%9a%ce%ac%cf%84%cf%89_%cf%83%cf%84%ce%bf_%ce%b3%ce%b9%ce%b1%ce%bb%cf%8c_%ce%b1.ly:23:43:44">
<g transform="translate(105.8322, 17.5504)">
<path transform="scale(0.0022, -0.0022)" d="M190 446c-56 0 -61 -84 -61 -155v-41v-41c0 -71 5 -155 61 -155s61 84 61 155v41v41c0 71 -5 155 -61 155zM190 500c118 0 190 -122 190 -250s-72 -250 -190 -250s-190 122 -190 250s72 250 190 250z" fill="currentColor"/>
</g>
</a>
<g transform="translate(53.1967, 22.4917)">
<polygon stroke-linejoin="round" stroke-linecap="round" stroke-width="0.0800" fill="currentColor" stroke="currentColor" points="1.8809 -0.2000 1.8809 0.2000 0.0400 0.2000 0.0400 -0.2000"/>
</g>
<g transform="translate(50.9192, 23.3017)">
<polygon stroke-linejoin="round" stroke-linecap="round" stroke-width="0.0800" fill="currentColor" stroke="currentColor" points="4.1584 -0.2000 4.1584 0.2000 0.0400 0.2000 0.0400 -0.2000"/>
</g>
<g transform="translate(19.5428, 23.4755)">
<polygon stroke-linejoin="round" stroke-linecap="round" stroke-width="0.0800" fill="currentColor" stroke="currentColor" points="1.8809 -0.3739 1.8809 0.0261 0.0400 0.2000 0.0400 -0.2000"/>
</g>
<g transform="translate(17.2653, 24.4917)">
<polygon stroke-linejoin="round" stroke-linecap="round" stroke-width="0.0800" fill="currentColor" stroke="currentColor" points="4.1584 -0.5800 4.1584 -0.1800 0.0400 0.2000 0.0400 -0.2000"/>
</g>
<g transform="translate(23.1245, 23.3017)">
<polygon stroke-linejoin="round" stroke-linecap="round" stroke-width="0.0800" fill="currentColor" stroke="currentColor" points="2.3675 -0.3900 2.3675 0.0100 0.0400 0.2000 0.0400 -0.2000"/>
</g>
<g transform="translate(30.7036, 22.4917)">
<polygon stroke-linejoin="round" stroke-linecap="round" stroke-width="0.0800" fill="currentColor" stroke="currentColor" points="1.8809 -0.2000 1.8809 0.2000 0.0400 0.2000 0.0400 -0.2000"/>
</g>
<g transform="translate(28.4261, 23.3017)">
<polygon stroke-linejoin="round" stroke-linecap="round" stroke-width="0.0800" fill="currentColor" stroke="currentColor" points="4.1584 -0.2000 4.1584 0.2000 0.0400 0.2000 0.0400 -0.2000"/>
</g>
<g transform="translate(34.2853, 23.4917)">
<polygon stroke-linejoin="round" stroke-linecap="round" stroke-width="0.0800" fill="currentColor" stroke="currentColor" points="2.3675 0.4200 2.3675 0.8200 0.0400 0.2000 0.0400 -0.2000"/>
</g>
<g transform="translate(41.9287, 22.4048)">
<polygon stroke-linejoin="round" stroke-linecap="round" stroke-width="0.0800" fill="currentColor" stroke="currentColor" points="1.8809 -0.1131 1.8809 0.2869 0.0400 0.2000 0.0400 -0.2000"/>
</g>
<g transform="translate(39.6512, 23.1117)">
<polygon stroke-linejoin="round" stroke-linecap="round" stroke-width="0.0800" fill="currentColor" stroke="currentColor" points="4.1584 -0.0100 4.1584 0.3900 0.0400 0.2000 0.0400 -0.2000"/>
</g>
<g transform="translate(45.5104, 24.1117)">
<polygon stroke-linejoin="round" stroke-linecap="round" stroke-width="0.0800" fill="currentColor" stroke="currentColor" points="2.3675 -0.0100 2.3675 0.3900 0.0400 0.2000 0.0400 -0.2000"/>
</g>
<g transform="translate(56.5917, 24.3017)">
<polygon stroke-linejoin="round" stroke-linecap="round" stroke-width="0.0800" fill="currentColor" stroke="currentColor" points="2.3675 -0.2000 2.3675 0.2000 0.0400 0.2000 0.0400 -0.2000"/>
</g>
<g transform="translate(67.1664, 23.0180)">
<polygon stroke-linejoin="round" stroke-linecap="round" stroke-width="0.0800" fill="currentColor" stroke="currentColor" points="1.8809 0.0837 1.8809 0.4837 0.0400 0.2000 0.0400 -0.2000"/>
</g>
<g transform="translate(64.8889, 23.4917)">
<polygon stroke-linejoin="round" stroke-linecap="round" stroke-width="0.0800" fill="currentColor" stroke="currentColor" points="4.1584 0.4200 4.1584 0.8200 0.0400 0.2000 0.0400 -0.2000"/>
</g>
<g transform="translate(71.7357, 18.4917)">
<polygon stroke-linejoin="round" stroke-linecap="round" stroke-width="0.0800" fill="currentColor" stroke="currentColor" points="2.9334 -0.2000 2.9334 0.2000 0.0400 0.2000 0.0400 -0.2000"/>
</g>
<g transform="translate(78.2748, 17.4917)">
<polygon stroke-linejoin="round" stroke-linecap="round" stroke-width="0.0800" fill="currentColor" stroke="currentColor" points="4.6463 0.6100 4.6463 1.0100 0.0400 0.2000 0.0400 -0.2000"/>
</g>
<g transform="translate(81.0402, 18.7797)">
<polygon stroke-linejoin="round" stroke-linecap="round" stroke-width="0.0800" fill="currentColor" stroke="currentColor" points="1.8809 0.1320 1.8809 0.5320 0.0400 0.2000 0.0400 -0.2000"/>
</g>
<g transform="translate(83.4660, 24.3017)">
<polygon stroke-linejoin="round" stroke-linecap="round" stroke-width="0.0800" fill="currentColor" stroke="currentColor" points="2.3675 -0.3900 2.3675 0.0100 0.0400 0.2000 0.0400 -0.2000"/>
</g>
<g transform="translate(91.1165, 23.0180)">
<polygon stroke-linejoin="round" stroke-linecap="round" stroke-width="0.0800" fill="currentColor" stroke="currentColor" points="1.8809 0.0837 1.8809 0.4837 0.0400 0.2000 0.0400 -0.2000"/>
</g>
<g transform="translate(88.8390, 23.4917)">
<polygon stroke-linejoin="round" stroke-linecap="round" stroke-width="0.0800" fill="currentColor" stroke="currentColor" points="4.1584 0.4200 4.1584 0.8200 0.0400 0.2000 0.0400 -0.2000"/>
</g>
<g transform="translate(95.6858, 18.4917)">
<polygon stroke-linejoin="round" stroke-linecap="round" stroke-width="0.0800" fill="currentColor" stroke="currentColor" points="2.9334 -0.2000 2.9334 0.2000 0.0400 0.2000 0.0400 -0.2000"/>
</g>
<g transform="translate(102.2248, 17.4917)">
<polygon stroke-linejoin="round" stroke-linecap="round" stroke-width="0.0800" fill="currentColor" stroke="currentColor" points="4.6463 0.6100 4.6463 1.0100 0.0400 0.2000 0.0400 -0.2000"/>
</g>
<g transform="translate(104.9903, 18.7797)">
<polygon stroke-linejoin="round" stroke-linecap="round" stroke-width="0.0800" fill="currentColor" stroke="currentColor" points="1.8809 0.1320 1.8809 0.5320 0.0400 0.2000 0.0400 -0.2000"/>
</g>
<a style="color:inherit;" xlink:href="textedit://C:/Users/har1sf0x/Documents/LilyPond%20-%20Frescobaldi/%ce%9a%ce%ac%cf%84%cf%89_%cf%83%cf%84%ce%bf_%ce%b3%ce%b9%ce%b1%ce%bb%cf%8c_%ce%b1.ly:23:74:75">
<g transform="translate(109.9359, 18.2517)">
<path transform="scale(0.0022, -0.0022)" d="M194 486c15 0 25 15 41 15c13 0 24 -13 24 -31v-341c0 -47 35 -86 81 -86c14 0 21 -10 21 -21s-7 -22 -21 -22c-49 0 -97 14 -146 14s-96 -14 -145 -14c-14 0 -22 11 -22 22s8 21 22 21c46 0 80 39 80 86v137c0 23 -16 35 -30 35c-7 0 -13 -4 -17 -11l-34 -65
c-5 -10 -14 -15 -23 -15c-14 0 -28 12 -28 27c0 4 1 8 3 13l129 250c2 4 7 6 11 6c20 0 35 -20 54 -20z" fill="currentColor"/>
</g>
</a>
<g transform="translate(109.7585, 21.3017)">
<rect x="-0.0650" y="0.1861" width="0.1300" height="2.8139" ry="0.0400" fill="currentColor"/>
</g>
<a style="color:inherit;" xlink:href="textedit://C:/Users/har1sf0x/Documents/LilyPond%20-%20Frescobaldi/%ce%9a%ce%ac%cf%84%cf%89_%cf%83%cf%84%ce%bf_%ce%b3%ce%b9%ce%b1%ce%bb%cf%8c_%ce%b1.ly:22:36:37">
<g transform="translate(93.1497, 18.2517)">
<path transform="scale(0.0022, -0.0022)" d="M194 486c15 0 25 15 41 15c13 0 24 -13 24 -31v-341c0 -47 35 -86 81 -86c14 0 21 -10 21 -21s-7 -22 -21 -22c-49 0 -97 14 -146 14s-96 -14 -145 -14c-14 0 -22 11 -22 22s8 21 22 21c46 0 80 39 80 86v137c0 23 -16 35 -30 35c-7 0 -13 -4 -17 -11l-34 -65
c-5 -10 -14 -15 -23 -15c-14 0 -28 12 -28 27c0 4 1 8 3 13l129 250c2 4 7 6 11 6c20 0 35 -20 54 -20z" fill="currentColor"/>
</g>
</a>
<g transform="translate(92.9724, 21.3017)">
<rect x="-0.0650" y="0.1861" width="0.1300" height="2.6143" ry="0.0400" fill="currentColor"/>
</g>
<a style="color:inherit;" xlink:href="textedit://C:/Users/har1sf0x/Documents/LilyPond%20-%20Frescobaldi/%ce%9a%ce%ac%cf%84%cf%89_%cf%83%cf%84%ce%bf_%ce%b3%ce%b9%ce%b1%ce%bb%cf%8c_%ce%b1.ly:22:33:34">
<g transform="translate(92.9074, 21.3017)">
<path transform="scale(0.0040, -0.0040)" d="M218 136c55 0 108 -28 108 -89c0 -71 -55 -121 -102 -149c-35 -21 -75 -34 -116 -34c-55 0 -108 28 -108 89c0 71 55 121 102 149c35 21 75 34 116 34z" fill="currentColor"/>
</g>
</a>
<a style="color:inherit;" xlink:href="textedit://C:/Users/har1sf0x/Documents/LilyPond%20-%20Frescobaldi/%ce%9a%ce%ac%cf%84%cf%89_%cf%83%cf%84%ce%bf_%ce%b3%ce%b9%ce%b1%ce%bb%cf%8c_%ce%b1.ly:22:47:48">
<g transform="translate(94.5116, 21.8017)">
<path transform="scale(0.0040, -0.0040)" d="M218 136c55 0 108 -28 108 -89c0 -71 -55 -121 -102 -149c-35 -21 -75 -34 -116 -34c-55 0 -108 28 -108 89c0 71 55 121 102 149c35 21 75 34 116 34z" fill="currentColor"/>
</g>
</a>
<g color="rgb(50.0000%, 50.0000%, 50.0000%)">
<a style="color:inherit;" xlink:href="textedit://C:/Users/har1sf0x/Documents/LilyPond%20-%20Frescobaldi/%ce%9a%ce%ac%cf%84%cf%89_%cf%83%cf%84%ce%bf_%ce%b3%ce%b9%ce%b1%ce%bb%cf%8c_%ce%b1.ly:22:47:48">
<g transform="translate(94.5116, 23.8017)">
<path transform="scale(0.0040, -0.0040)" d="M218 136c55 0 108 -28 108 -89c0 -71 -55 -121 -102 -149c-35 -21 -75 -34 -116 -34c-55 0 -108 28 -108 89c0 71 55 121 102 149c35 21 75 34 116 34z" fill="currentColor"/>
</g>
</a>
</g>
<g color="rgb(50.0000%, 50.0000%, 50.0000%)">
<a style="color:inherit;" xlink:href="textedit://C:/Users/har1sf0x/Documents/LilyPond%20-%20Frescobaldi/%ce%9a%ce%ac%cf%84%cf%89_%cf%83%cf%84%ce%bf_%ce%b3%ce%b9%ce%b1%ce%bb%cf%8c_%ce%b1.ly:22:47:48">
<g transform="translate(95.7508, 21.8017)">
<path transform="scale(0.0040, -0.0040)" d="M218 136c55 0 108 -28 108 -89c0 -71 -55 -121 -102 -149c-35 -21 -75 -34 -116 -34c-55 0 -108 28 -108 89c0 71 55 121 102 149c35 21 75 34 116 34z" fill="currentColor"/>
</g>
</a>
</g>
<a style="color:inherit;" xlink:href="textedit://C:/Users/har1sf0x/Documents/LilyPond%20-%20Frescobaldi/%ce%9a%ce%ac%cf%84%cf%89_%cf%83%cf%84%ce%bf_%ce%b3%ce%b9%ce%b1%ce%bb%cf%8c_%ce%b1.ly:22:47:48">
<g transform="translate(94.7710, 17.7517)">
<path transform="scale(0.0022, -0.0022)" d="M64 500c42 -7 84 -14 127 -14s85 7 127 14c2 0 5 1 7 1c17 0 28 -12 28 -22c0 -4 -1 -6 -4 -9c-61 -61 -145 -91 -231 -91c-17 0 -30 -14 -30 -31v-41c25 25 62 25 97 25h5c115 0 181 -55 181 -166c0 -99 -96 -166 -202 -166c-88 0 -169 52 -169 133c0 32 26 58 58 58
s58 -26 58 -58c0 -22 -36 -26 -36 -48c0 -36 47 -42 89 -42c52 0 73 63 73 123c0 53 -6 112 -52 112c-41 0 -84 -1 -107 -33c-6 -8 -14 -11 -22 -11c-14 0 -27 10 -27 27v209c0 17 11 30 26 30h4z" fill="currentColor"/>
</g>
</a>
<g transform="translate(95.7508, 21.3017)">
<rect x="-0.0650" y="-2.8100" width="0.1300" height="5.1239" ry="0.0400" fill="currentColor"/>
</g>
<a style="color:inherit;" xlink:href="textedit://C:/Users/har1sf0x/Documents/LilyPond%20-%20Frescobaldi/%ce%9a%ce%ac%cf%84%cf%89_%cf%83%cf%84%ce%bf_%ce%b3%ce%b9%ce%b1%ce%bb%cf%8c_%ce%b1.ly:22:17:18">
<g transform="translate(91.1165, 20.8017)">
<path transform="scale(0.0040, -0.0040)" d="M218 136c55 0 108 -28 108 -89c0 -71 -55 -121 -102 -149c-35 -21 -75 -34 -116 -34c-55 0 -108 28 -108 89c0 71 55 121 102 149c35 21 75 34 116 34z" fill="currentColor"/>
</g>
</a>
<a style="color:inherit;" xlink:href="textedit://C:/Users/har1sf0x/Documents/LilyPond%20-%20Frescobaldi/%ce%9a%ce%ac%cf%84%cf%89_%cf%83%cf%84%ce%bf_%ce%b3%ce%b9%ce%b1%ce%bb%cf%8c_%ce%b1.ly:22:20:21">
<g transform="translate(91.3589, 18.2517)">
<path transform="scale(0.0022, -0.0022)" d="M194 486c15 0 25 15 41 15c13 0 24 -13 24 -31v-341c0 -47 35 -86 81 -86c14 0 21 -10 21 -21s-7 -22 -21 -22c-49 0 -97 14 -146 14s-96 -14 -145 -14c-14 0 -22 11 -22 22s8 21 22 21c46 0 80 39 80 86v137c0 23 -16 35 -30 35c-7 0 -13 -4 -17 -11l-34 -65
c-5 -10 -14 -15 -23 -15c-14 0 -28 12 -28 27c0 4 1 8 3 13l129 250c2 4 7 6 11 6c20 0 35 -20 54 -20z" fill="currentColor"/>
</g>
</a>
<g transform="translate(91.1815, 21.3017)">
<rect x="-0.0650" y="-0.3139" width="0.1300" height="2.8498" ry="0.0400" fill="currentColor"/>
</g>
<g color="rgb(50.0000%, 50.0000%, 50.0000%)">
<a style="color:inherit;" xlink:href="textedit://C:/Users/har1sf0x/Documents/LilyPond%20-%20Frescobaldi/%ce%9a%ce%ac%cf%84%cf%89_%cf%83%cf%84%ce%bf_%ce%b3%ce%b9%ce%b1%ce%bb%cf%8c_%ce%b1.ly:23:2:3">
<g transform="translate(102.2118, 22.3017)">
<path transform="scale(0.0040, -0.0040)" d="M218 136c55 0 108 -28 108 -89c0 -71 -55 -121 -102 -149c-35 -21 -75 -34 -116 -34c-55 0 -108 28 -108 89c0 71 55 121 102 149c35 21 75 34 116 34z" fill="currentColor"/>
</g>
</a>
</g>
<a style="color:inherit;" xlink:href="textedit://C:/Users/har1sf0x/Documents/LilyPond%20-%20Frescobaldi/%ce%9a%ce%ac%cf%84%cf%89_%cf%83%cf%84%ce%bf_%ce%b3%ce%b9%ce%b1%ce%bb%cf%8c_%ce%b1.ly:23:2:3">
<g transform="translate(101.3101, 15.1381)">
<path transform="scale(0.0022, -0.0022)" d="M155 457c-34 0 -71 -8 -71 -38c0 -19 32 -23 32 -42c0 -28 -23 -51 -51 -51s-51 23 -51 51c0 72 66 123 141 123c93 0 174 -31 174 -113c0 -36 -10 -65 -42 -80c-17 -8 -26 -25 -26 -41s9 -32 26 -40c37 -17 59 -45 59 -85c0 -94 -83 -141 -186 -141
c-84 0 -160 54 -160 133c0 32 26 58 58 58s58 -26 58 -58c0 -22 -36 -26 -36 -48c0 -33 42 -42 80 -42c41 0 56 50 56 98v21c0 44 -2 77 -43 77h-65c-18 0 -27 14 -27 27s9 27 27 27h65c42 0 43 36 43 83v11c0 43 -20 70 -61 70z" fill="currentColor"/>
</g>
</a>
<a style="color:inherit;" xlink:href="textedit://C:/Users/har1sf0x/Documents/LilyPond%20-%20Frescobaldi/%ce%9a%ce%ac%cf%84%cf%89_%cf%83%cf%84%ce%bf_%ce%b3%ce%b9%ce%b1%ce%bb%cf%8c_%ce%b1.ly:23:2:3">
<g transform="translate(101.2418, 16.7629)">
<path transform="scale(0.0022, -0.0022)" d="M204 223c21 13 46 23 59 45c8 14 10 46 31 46c11 0 24 -8 24 -25v-110h70c18 0 27 -14 27 -27s-9 -27 -27 -27h-70c2 -45 36 -82 80 -82c14 0 22 -10 22 -21s-8 -22 -22 -22c-49 0 -96 14 -145 14s-97 -14 -146 -14c-14 0 -21 11 -21 22s7 21 21 21c44 0 79 37 81 82
h-134c-43 0 -57 25 -57 42c0 5 1 10 3 12c73 81 123 182 123 291c0 17 11 31 25 31c2 0 4 0 6 -1c22 -6 43 -14 66 -14s45 8 67 14c3 1 6 1 9 1c15 0 26 -11 26 -21c0 -4 -1 -7 -4 -10l-264 -291h134v4c0 16 3 32 16 40z" fill="currentColor"/>
</g>
</a>
<g transform="translate(102.2898, 21.3017)">
<rect x="-0.0650" y="-3.7988" width="0.1300" height="4.6127" ry="0.0400" fill="currentColor"/>
</g>
<g color="rgb(50.0000%, 50.0000%, 50.0000%)">
<a style="color:inherit;" xlink:href="textedit://C:/Users/har1sf0x/Documents/LilyPond%20-%20Frescobaldi/%ce%9a%ce%ac%cf%84%cf%89_%cf%83%cf%84%ce%bf_%ce%b3%ce%b9%ce%b1%ce%bb%cf%8c_%ce%b1.ly:23:2:3">
<g transform="translate(101.0506, 20.3017)">
<path transform="scale(0.0040, -0.0040)" d="M218 136c55 0 108 -28 108 -89c0 -71 -55 -121 -102 -149c-35 -21 -75 -34 -116 -34c-55 0 -108 28 -108 89c0 71 55 121 102 149c35 21 75 34 116 34z" fill="currentColor"/>
</g>
</a>
</g>
<g transform="translate(98.5942, 21.3017)">
<rect x="-0.0650" y="-2.8100" width="0.1300" height="5.1239" ry="0.0400" fill="currentColor"/>
</g>
<a style="color:inherit;" xlink:href="textedit://C:/Users/har1sf0x/Documents/LilyPond%20-%20Frescobaldi/%ce%9a%ce%ac%cf%84%cf%89_%cf%83%cf%84%ce%bf_%ce%b3%ce%b9%ce%b1%ce%bb%cf%8c_%ce%b1.ly:22:69:70">
<g transform="translate(97.3550, 21.8017)">
<path transform="scale(0.0040, -0.0040)" d="M218 136c55 0 108 -28 108 -89c0 -71 -55 -121 -102 -149c-35 -21 -75 -34 -116 -34c-55 0 -108 28 -108 89c0 71 55 121 102 149c35 21 75 34 116 34z" fill="currentColor"/>
</g>
</a>
<g color="rgb(50.0000%, 50.0000%, 50.0000%)">
<a style="color:inherit;" xlink:href="textedit://C:/Users/har1sf0x/Documents/LilyPond%20-%20Frescobaldi/%ce%9a%ce%ac%cf%84%cf%89_%cf%83%cf%84%ce%bf_%ce%b3%ce%b9%ce%b1%ce%bb%cf%8c_%ce%b1.ly:22:69:70">
<g transform="translate(97.3550, 23.8017)">
<path transform="scale(0.0040, -0.0040)" d="M218 136c55 0 108 -28 108 -89c0 -71 -55 -121 -102 -149c-35 -21 -75 -34 -116 -34c-55 0 -108 28 -108 89c0 71 55 121 102 149c35 21 75 34 116 34z" fill="currentColor"/>
</g>
</a>
</g>
<g color="rgb(50.0000%, 50.0000%, 50.0000%)">
<a style="color:inherit;" xlink:href="textedit://C:/Users/har1sf0x/Documents/LilyPond%20-%20Frescobaldi/%ce%9a%ce%ac%cf%84%cf%89_%cf%83%cf%84%ce%bf_%ce%b3%ce%b9%ce%b1%ce%bb%cf%8c_%ce%b1.ly:22:69:70">
<g transform="translate(98.5942, 21.8017)">
<path transform="scale(0.0040, -0.0040)" d="M218 136c55 0 108 -28 108 -89c0 -71 -55 -121 -102 -149c-35 -21 -75 -34 -116 -34c-55 0 -108 28 -108 89c0 71 55 121 102 149c35 21 75 34 116 34z" fill="currentColor"/>
</g>
</a>
</g>
<a style="color:inherit;" xlink:href="textedit://C:/Users/har1sf0x/Documents/LilyPond%20-%20Frescobaldi/%ce%9a%ce%ac%cf%84%cf%89_%cf%83%cf%84%ce%bf_%ce%b3%ce%b9%ce%b1%ce%bb%cf%8c_%ce%b1.ly:22:69:70">
<g transform="translate(97.6144, 17.7517)">
<path transform="scale(0.0022, -0.0022)" d="M64 500c42 -7 84 -14 127 -14s85 7 127 14c2 0 5 1 7 1c17 0 28 -12 28 -22c0 -4 -1 -6 -4 -9c-61 -61 -145 -91 -231 -91c-17 0 -30 -14 -30 -31v-41c25 25 62 25 97 25h5c115 0 181 -55 181 -166c0 -99 -96 -166 -202 -166c-88 0 -169 52 -169 133c0 32 26 58 58 58
s58 -26 58 -58c0 -22 -36 -26 -36 -48c0 -36 47 -42 89 -42c52 0 73 63 73 123c0 53 -6 112 -52 112c-41 0 -84 -1 -107 -33c-6 -8 -14 -11 -22 -11c-14 0 -27 10 -27 27v209c0 17 11 30 26 30h4z" fill="currentColor"/>
</g>
</a>
<a style="color:inherit;" xlink:href="textedit://C:/Users/har1sf0x/Documents/LilyPond%20-%20Frescobaldi/%ce%9a%ce%ac%cf%84%cf%89_%cf%83%cf%84%ce%bf_%ce%b3%ce%b9%ce%b1%ce%bb%cf%8c_%ce%b1.ly:23:2:3">
<g transform="translate(101.0506, 22.3017)">
<path transform="scale(0.0040, -0.0040)" d="M218 136c55 0 108 -28 108 -89c0 -71 -55 -121 -102 -149c-35 -21 -75 -34 -116 -34c-55 0 -108 28 -108 89c0 71 55 121 102 149c35 21 75 34 116 34z" fill="currentColor"/>
</g>
</a>
<a style="color:inherit;" xlink:href="textedit://C:/Users/har1sf0x/Documents/LilyPond%20-%20Frescobaldi/%ce%9a%ce%ac%cf%84%cf%89_%cf%83%cf%84%ce%bf_%ce%b3%ce%b9%ce%b1%ce%bb%cf%8c_%ce%b1.ly:16:31:32">
<g transform="translate(32.4945, 20.3017)">
<path transform="scale(0.0040, -0.0040)" d="M218 136c55 0 108 -28 108 -89c0 -71 -55 -121 -102 -149c-35 -21 -75 -34 -116 -34c-55 0 -108 28 -108 89c0 71 55 121 102 149c35 21 75 34 116 34z" fill="currentColor"/>
</g>
</a>
<g transform="translate(30.7686, 21.3017)">
<rect x="-0.0650" y="-0.8139" width="0.1300" height="2.8139" ry="0.0400" fill="currentColor"/>
</g>
<a style="color:inherit;" xlink:href="textedit://C:/Users/har1sf0x/Documents/LilyPond%20-%20Frescobaldi/%ce%9a%ce%ac%cf%84%cf%89_%cf%83%cf%84%ce%bf_%ce%b3%ce%b9%ce%b1%ce%bb%cf%8c_%ce%b1.ly:16:18:19">
<g transform="translate(30.9460, 18.2517)">
<path transform="scale(0.0022, -0.0022)" d="M194 486c15 0 25 15 41 15c13 0 24 -13 24 -31v-341c0 -47 35 -86 81 -86c14 0 21 -10 21 -21s-7 -22 -21 -22c-49 0 -97 14 -146 14s-96 -14 -145 -14c-14 0 -22 11 -22 22s8 21 22 21c46 0 80 39 80 86v137c0 23 -16 35 -30 35c-7 0 -13 -4 -17 -11l-34 -65
c-5 -10 -14 -15 -23 -15c-14 0 -28 12 -28 27c0 4 1 8 3 13l129 250c2 4 7 6 11 6c20 0 35 -20 54 -20z" fill="currentColor"/>
</g>
</a>
<a style="color:inherit;" xlink:href="textedit://C:/Users/har1sf0x/Documents/LilyPond%20-%20Frescobaldi/%ce%9a%ce%ac%cf%84%cf%89_%cf%83%cf%84%ce%bf_%ce%b3%ce%b9%ce%b1%ce%bb%cf%8c_%ce%b1.ly:16:32:33">
<g transform="translate(32.7369, 18.2517)">
<path transform="scale(0.0022, -0.0022)" d="M194 486c15 0 25 15 41 15c13 0 24 -13 24 -31v-341c0 -47 35 -86 81 -86c14 0 21 -10 21 -21s-7 -22 -21 -22c-49 0 -97 14 -146 14s-96 -14 -145 -14c-14 0 -22 11 -22 22s8 21 22 21c46 0 80 39 80 86v137c0 23 -16 35 -30 35c-7 0 -13 -4 -17 -11l-34 -65
c-5 -10 -14 -15 -23 -15c-14 0 -28 12 -28 27c0 4 1 8 3 13l129 250c2 4 7 6 11 6c20 0 35 -20 54 -20z" fill="currentColor"/>
</g>
</a>
<g transform="translate(32.5595, 21.3017)">
<rect x="-0.0650" y="-0.8139" width="0.1300" height="2.8139" ry="0.0400" fill="currentColor"/>
</g>
<g transform="translate(28.4911, 21.3017)">
<rect x="-0.0650" y="-0.8139" width="0.1300" height="2.8139" ry="0.0400" fill="currentColor"/>
</g>
<a style="color:inherit;" xlink:href="textedit://C:/Users/har1sf0x/Documents/LilyPond%20-%20Frescobaldi/%ce%9a%ce%ac%cf%84%cf%89_%cf%83%cf%84%ce%bf_%ce%b3%ce%b9%ce%b1%ce%bb%cf%8c_%ce%b1.ly:16:15:16">
<g transform="translate(30.7036, 20.3017)">
<path transform="scale(0.0040, -0.0040)" d="M218 136c55 0 108 -28 108 -89c0 -71 -55 -121 -102 -149c-35 -21 -75 -34 -116 -34c-55 0 -108 28 -108 89c0 71 55 121 102 149c35 21 75 34 116 34z" fill="currentColor"/>
</g>
</a>
<g transform="translate(36.3628, 20.8017)">
<path transform="scale(0.0032, -0.0032)" d="M-98 0c0 -85 11 -172 60 -242c2 -3 3 -5 3 -8c0 -8 -7 -15 -15 -15c-4 0 -9 2 -12 7c-54 77 -90 165 -90 258s36 181 90 258c3 5 8 7 12 7c8 0 15 -7 15 -15c0 -3 -1 -5 -3 -8c-49 -70 -60 -157 -60 -242z" fill="currentColor"/>
</g>
<g transform="translate(38.0671, 20.8017)">
<path transform="scale(0.0032, -0.0032)" d="M98 0c0 85 -11 172 -60 242c-2 3 -3 5 -3 8c0 8 7 15 15 15c4 0 9 -2 12 -7c54 -77 90 -165 90 -258s-36 -181 -90 -258c-3 -5 -8 -7 -12 -7c-8 0 -15 7 -15 15c0 3 1 5 3 8c49 70 60 157 60 242z" fill="currentColor"/>
</g>
<a style="color:inherit;" xlink:href="textedit://C:/Users/har1sf0x/Documents/LilyPond%20-%20Frescobaldi/%ce%9a%ce%ac%cf%84%cf%89_%cf%83%cf%84%ce%bf_%ce%b3%ce%b9%ce%b1%ce%bb%cf%8c_%ce%b1.ly:17:2:3">
<g transform="translate(39.6512, 19.8017)">
<path transform="scale(0.0040, -0.0040)" d="M218 136c55 0 108 -28 108 -89c0 -71 -55 -121 -102 -149c-35 -21 -75 -34 -116 -34c-55 0 -108 28 -108 89c0 71 55 121 102 149c35 21 75 34 116 34z" fill="currentColor"/>
</g>
</a>
<a style="color:inherit;" xlink:href="textedit://C:/Users/har1sf0x/Documents/LilyPond%20-%20Frescobaldi/%ce%9a%ce%ac%cf%84%cf%89_%cf%83%cf%84%ce%bf_%ce%b3%ce%b9%ce%b1%ce%bb%cf%8c_%ce%b1.ly:17:4:5">
<g transform="translate(39.9107, 18.2517)">
<path transform="scale(0.0022, -0.0022)" d="M155 457c-34 0 -71 -8 -71 -38c0 -19 32 -23 32 -42c0 -28 -23 -51 -51 -51s-51 23 -51 51c0 72 66 123 141 123c93 0 174 -31 174 -113c0 -36 -10 -65 -42 -80c-17 -8 -26 -25 -26 -41s9 -32 26 -40c37 -17 59 -45 59 -85c0 -94 -83 -141 -186 -141
c-84 0 -160 54 -160 133c0 32 26 58 58 58s58 -26 58 -58c0 -22 -36 -26 -36 -48c0 -33 42 -42 80 -42c41 0 56 50 56 98v21c0 44 -2 77 -43 77h-65c-18 0 -27 14 -27 27s9 27 27 27h65c42 0 43 36 43 83v11c0 43 -20 70 -61 70z" fill="currentColor"/>
</g>
</a>
<g transform="translate(39.7162, 21.3017)">
<rect x="-0.0650" y="-1.3139" width="0.1300" height="3.1268" ry="0.0400" fill="currentColor"/>
</g>
<a style="color:inherit;" xlink:href="textedit://C:/Users/har1sf0x/Documents/LilyPond%20-%20Frescobaldi/%ce%9a%ce%ac%cf%84%cf%89_%cf%83%cf%84%ce%bf_%ce%b3%ce%b9%ce%b1%ce%bb%cf%8c_%ce%b1.ly:16:43:44">
<g transform="translate(34.2853, 20.3017)">
<path transform="scale(0.0040, -0.0040)" d="M218 136c55 0 108 -28 108 -89c0 -71 -55 -121 -102 -149c-35 -21 -75 -34 -116 -34c-55 0 -108 28 -108 89c0 71 55 121 102 149c35 21 75 34 116 34z" fill="currentColor"/>
</g>
</a>
<a style="color:inherit;" xlink:href="textedit://C:/Users/har1sf0x/Documents/LilyPond%20-%20Frescobaldi/%ce%9a%ce%ac%cf%84%cf%89_%cf%83%cf%84%ce%bf_%ce%b3%ce%b9%ce%b1%ce%bb%cf%8c_%ce%b1.ly:16:45:46">
<g transform="translate(34.5277, 18.2517)">
<path transform="scale(0.0022, -0.0022)" d="M194 486c15 0 25 15 41 15c13 0 24 -13 24 -31v-341c0 -47 35 -86 81 -86c14 0 21 -10 21 -21s-7 -22 -21 -22c-49 0 -97 14 -146 14s-96 -14 -145 -14c-14 0 -22 11 -22 22s8 21 22 21c46 0 80 39 80 86v137c0 23 -16 35 -30 35c-7 0 -13 -4 -17 -11l-34 -65
c-5 -10 -14 -15 -23 -15c-14 0 -28 12 -28 27c0 4 1 8 3 13l129 250c2 4 7 6 11 6c20 0 35 -20 54 -20z" fill="currentColor"/>
</g>
</a>
<g transform="translate(34.3503, 21.3017)">
<rect x="-0.0650" y="-0.8139" width="0.1300" height="3.0206" ry="0.0400" fill="currentColor"/>
</g>
<a style="color:inherit;" xlink:href="textedit://C:/Users/har1sf0x/Documents/LilyPond%20-%20Frescobaldi/%ce%9a%ce%ac%cf%84%cf%89_%cf%83%cf%84%ce%bf_%ce%b3%ce%b9%ce%b1%ce%bb%cf%8c_%ce%b1.ly:16:105:106">
<g transform="translate(36.5628, 20.3017)">
<path transform="scale(0.0040, -0.0040)" d="M218 136c55 0 108 -28 108 -89c0 -71 -55 -121 -102 -149c-35 -21 -75 -34 -116 -34c-55 0 -108 28 -108 89c0 71 55 121 102 149c35 21 75 34 116 34z" fill="currentColor"/>
</g>
</a>
<a style="color:inherit;" xlink:href="textedit://C:/Users/har1sf0x/Documents/LilyPond%20-%20Frescobaldi/%ce%9a%ce%ac%cf%84%cf%89_%cf%83%cf%84%ce%bf_%ce%b3%ce%b9%ce%b1%ce%bb%cf%8c_%ce%b1.ly:16:117:118">
<g transform="translate(36.5628, 21.3017)">
<path transform="scale(0.0040, -0.0040)" d="M218 136c55 0 108 -28 108 -89c0 -71 -55 -121 -102 -149c-35 -21 -75 -34 -116 -34c-55 0 -108 28 -108 89c0 71 55 121 102 149c35 21 75 34 116 34z" fill="currentColor"/>
</g>
</a>
<g transform="translate(36.6278, 21.3017)">
<rect x="-0.0650" y="-0.8139" width="0.1300" height="3.6072" ry="0.0400" fill="currentColor"/>
</g>
<a style="color:inherit;" xlink:href="textedit://C:/Users/har1sf0x/Documents/LilyPond%20-%20Frescobaldi/%ce%9a%ce%ac%cf%84%cf%89_%cf%83%cf%84%ce%bf_%ce%b3%ce%b9%ce%b1%ce%bb%cf%8c_%ce%b1.ly:16:106:107">
<g transform="translate(36.8052, 18.2517)">
<path transform="scale(0.0022, -0.0022)" d="M194 486c15 0 25 15 41 15c13 0 24 -13 24 -31v-341c0 -47 35 -86 81 -86c14 0 21 -10 21 -21s-7 -22 -21 -22c-49 0 -97 14 -146 14s-96 -14 -145 -14c-14 0 -22 11 -22 22s8 21 22 21c46 0 80 39 80 86v137c0 23 -16 35 -30 35c-7 0 -13 -4 -17 -11l-34 -65
c-5 -10 -14 -15 -23 -15c-14 0 -28 12 -28 27c0 4 1 8 3 13l129 250c2 4 7 6 11 6c20 0 35 -20 54 -20z" fill="currentColor"/>
</g>
</a>
<a style="color:inherit;" xlink:href="textedit://C:/Users/har1sf0x/Documents/LilyPond%20-%20Frescobaldi/%ce%9a%ce%ac%cf%84%cf%89_%cf%83%cf%84%ce%bf_%ce%b3%ce%b9%ce%b1%ce%bb%cf%8c_%ce%b1.ly:15:19:20">
<g transform="translate(19.5428, 20.8017)">
<path transform="scale(0.0040, -0.0040)" d="M218 136c55 0 108 -28 108 -89c0 -71 -55 -121 -102 -149c-35 -21 -75 -34 -116 -34c-55 0 -108 28 -108 89c0 71 55 121 102 149c35 21 75 34 116 34z" fill="currentColor"/>
</g>
</a>
<a style="color:inherit;" xlink:href="textedit://C:/Users/har1sf0x/Documents/LilyPond%20-%20Frescobaldi/%ce%9a%ce%ac%cf%84%cf%89_%cf%83%cf%84%ce%bf_%ce%b3%ce%b9%ce%b1%ce%bb%cf%8c_%ce%b1.ly:15:22:23">
<g transform="translate(19.7852, 18.2517)">
<path transform="scale(0.0022, -0.0022)" d="M194 486c15 0 25 15 41 15c13 0 24 -13 24 -31v-341c0 -47 35 -86 81 -86c14 0 21 -10 21 -21s-7 -22 -21 -22c-49 0 -97 14 -146 14s-96 -14 -145 -14c-14 0 -22 11 -22 22s8 21 22 21c46 0 80 39 80 86v137c0 23 -16 35 -30 35c-7 0 -13 -4 -17 -11l-34 -65
c-5 -10 -14 -15 -23 -15c-14 0 -28 12 -28 27c0 4 1 8 3 13l129 250c2 4 7 6 11 6c20 0 35 -20 54 -20z" fill="currentColor"/>
</g>
</a>
<g transform="translate(19.6078, 21.3017)">
<rect x="-0.0650" y="-0.3139" width="0.1300" height="3.2919" ry="0.0400" fill="currentColor"/>
</g>
<g transform="translate(10.1106, 21.3017)">
<path transform="scale(0.0040, -0.0040)" d="M143 41c-1 33 -22 63 -53 63c-29 0 -43 -34 -43 -67c0 -59 48 -101 93 -139c3 22 4 44 4 66v11zM185 -138c0 -14 -10 -25 -23 -25c-21 0 -30 25 -45 38c-61 52 -147 89 -147 169c0 54 37 102 89 102c33 0 66 -13 91 -34l-7 345c8 5 18 8 27 8s19 -3 27 -8z" fill="currentColor"/>
</g>
<g transform="translate(11.4106, 19.3017)">
<path transform="scale(0.0040, -0.0040)" d="M0 119c0 8 5 15 13 18l46 17v158c0 10 8 19 18 19s19 -9 19 -19v-145l83 31v158c0 10 9 19 19 19s18 -9 18 -19v-145l32 12c2 1 5 1 7 1c11 0 20 -9 20 -20v-60c0 -8 -5 -16 -13 -19l-46 -16v-160l32 11c2 1 5 1 7 1c11 0 20 -9 20 -20v-60c0 -8 -5 -15 -13 -18l-46 -17
v-158c0 -10 -8 -19 -18 -19s-19 9 -19 19v145l-83 -31v-158c0 -10 -9 -19 -19 -19s-18 9 -18 19v145l-32 -12c-2 -1 -5 -1 -7 -1c-11 0 -20 9 -20 20v60c0 8 5 16 13 19l46 16v160l-32 -11c-2 -1 -5 -1 -7 -1c-11 0 -20 9 -20 20v60zM179 95l-83 -30v-160l83 30v160z" fill="currentColor"/>
</g>
<a style="color:inherit;" xlink:href="textedit://C:/Users/har1sf0x/Documents/LilyPond%20-%20Frescobaldi/%ce%9a%ce%ac%cf%84%cf%89_%cf%83%cf%84%ce%bf_%ce%b3%ce%b9%ce%b1%ce%bb%cf%8c_%ce%b1.ly:15:2:3">
<g transform="translate(17.2653, 21.3017)">
<path transform="scale(0.0040, -0.0040)" d="M218 136c55 0 108 -28 108 -89c0 -71 -55 -121 -102 -149c-35 -21 -75 -34 -116 -34c-55 0 -108 28 -108 89c0 71 55 121 102 149c35 21 75 34 116 34z" fill="currentColor"/>
</g>
</a>
<a style="color:inherit;" xlink:href="textedit://C:/Users/har1sf0x/Documents/LilyPond%20-%20Frescobaldi/%ce%9a%ce%ac%cf%84%cf%89_%cf%83%cf%84%ce%bf_%ce%b3%ce%b9%ce%b1%ce%bb%cf%8c_%ce%b1.ly:15:6:7">
<g transform="translate(17.5077, 18.2517)">
<path transform="scale(0.0022, -0.0022)" d="M194 486c15 0 25 15 41 15c13 0 24 -13 24 -31v-341c0 -47 35 -86 81 -86c14 0 21 -10 21 -21s-7 -22 -21 -22c-49 0 -97 14 -146 14s-96 -14 -145 -14c-14 0 -22 11 -22 22s8 21 22 21c46 0 80 39 80 86v137c0 23 -16 35 -30 35c-7 0 -13 -4 -17 -11l-34 -65
c-5 -10 -14 -15 -23 -15c-14 0 -28 12 -28 27c0 4 1 8 3 13l129 250c2 4 7 6 11 6c20 0 35 -20 54 -20z" fill="currentColor"/>
</g>
</a>
<g transform="translate(6.4906, 22.3017)">
<path transform="scale(0.0040, -0.0040)" d="M266 -635h-6c-108 0 -195 88 -195 197c0 58 53 103 112 103c54 0 95 -47 95 -103c0 -52 -43 -95 -95 -95c-11 0 -21 2 -31 6c26 -39 68 -65 117 -65h4zM461 -203c68 24 113 95 113 164c0 90 -66 179 -173 190c24 -116 46 -231 60 -354zM74 28c0 -135 129 -247 264 -247
c28 0 55 2 82 6c-14 127 -37 245 -63 364c-79 -8 -124 -61 -124 -119c0 -44 25 -91 81 -123c5 -5 7 -10 7 -15c0 -11 -10 -22 -22 -22c-3 0 -6 1 -9 2c-80 43 -117 115 -117 185c0 88 58 174 160 197c-14 58 -29 117 -46 175c-107 -121 -213 -243 -213 -403zM335 -262
c-188 0 -333 172 -333 374c0 177 131 306 248 441c-19 62 -37 125 -45 190c-6 52 -7 104 -7 156c0 115 55 224 149 292c6 5 14 5 20 0c71 -84 133 -245 133 -358c0 -143 -86 -255 -180 -364c21 -68 39 -138 56 -207c4 0 9 1 13 1c155 0 256 -128 256 -261
c0 -76 -33 -154 -107 -210c-22 -17 -47 -28 -73 -36c3 -35 5 -70 5 -105c0 -19 -1 -39 -2 -58c-7 -119 -88 -225 -202 -228l1 43c93 2 153 92 159 191c1 18 2 37 2 55c0 31 -1 61 -4 92c-29 -5 -58 -8 -89 -8zM428 916c0 55 -4 79 -20 129c-99 -48 -162 -149 -162 -259
c0 -74 18 -133 36 -194c80 97 146 198 146 324z" fill="currentColor"/>
</g>
<a style="color:inherit;" xlink:href="textedit://C:/Users/har1sf0x/Documents/LilyPond%20-%20Frescobaldi/%ce%9a%ce%ac%cf%84%cf%89_%cf%83%cf%84%ce%bf_%ce%b3%ce%b9%ce%b1%ce%bb%cf%8c_%ce%b1.ly:13:2:3">
<g transform="translate(13.7289, 21.3017)">
<path transform="scale(0.0040, -0.0040)" d="M102 135c9 2 18 3 27 3c33 0 70 -11 105 -36c21 -15 46 -23 66 -23c21 0 39 9 44 29c2 6 6 9 11 9c6 0 12 -5 12 -12c0 -67 -90 -105 -138 -105c-36 0 -71 14 -96 44c-13 16 -31 22 -48 22c-30 0 -59 -20 -62 -55c-1 -7 -6 -11 -11 -11c-6 0 -12 4 -12 11
c0 174 232 166 232 344c0 59 -16 122 -67 122c-25 0 -49 -14 -49 -37c0 -27 35 -41 35 -68c0 -38 -31 -69 -69 -69s-69 31 -69 69c0 76 72 128 152 128c95 0 183 -57 183 -145c0 -151 -150 -159 -246 -220z" fill="currentColor"/>
</g>
<g transform="translate(13.6606, 23.3177)">
<path transform="scale(0.0040, -0.0040)" d="M196 117h117c0 -48 27 -94 72 -94c8 0 12 -5 12 -11s-4 -12 -12 -12c-44 0 -87 13 -131 13s-87 -13 -131 -13c-8 0 -12 6 -12 12s4 11 12 11c45 0 73 46 73 94zM204 307c22 14 44 29 60 50c11 15 19 33 27 50c2 4 5 6 9 6c6 0 13 -5 13 -14v-245h72c10 0 15 -7 15 -14
s-5 -15 -15 -15h-72v-8h-117v8h-167c-23 0 -31 14 -31 23c0 3 1 5 2 6c80 93 138 207 138 330c0 10 7 19 16 16c23 -7 47 -13 71 -13s48 6 71 13c14 4 23 -9 17 -16l-284 -330h167v131c0 8 1 17 8 22z" fill="currentColor"/>
</g>
</a>
<a style="color:inherit;" xlink:href="textedit://C:/Users/har1sf0x/Documents/LilyPond%20-%20Frescobaldi/%ce%9a%ce%ac%cf%84%cf%89_%cf%83%cf%84%ce%bf_%ce%b3%ce%b9%ce%b1%ce%bb%cf%8c_%ce%b1.ly:14:2:3">
<g transform="translate(5.6906, 17.2001)">
<text font-family="serif" font-size="2.6163" text-anchor="start" fill="currentColor">
<tspan>A</tspan>
</text>
</g>
</a>
<g transform="translate(17.3303, 21.3017)">
<rect x="-0.0650" y="0.1861" width="0.1300" height="2.9980" ry="0.0400" fill="currentColor"/>
</g>
<a style="color:inherit;" xlink:href="textedit://C:/Users/har1sf0x/Documents/LilyPond%20-%20Frescobaldi/%ce%9a%ce%ac%cf%84%cf%89_%cf%83%cf%84%ce%bf_%ce%b3%ce%b9%ce%b1%ce%bb%cf%8c_%ce%b1.ly:15:62:63">
<g transform="translate(25.4020, 19.8017)">
<path transform="scale(0.0040, -0.0040)" d="M218 136c55 0 108 -28 108 -89c0 -71 -55 -121 -102 -149c-35 -21 -75 -34 -116 -34c-55 0 -108 28 -108 89c0 71 55 121 102 149c35 21 75 34 116 34z" fill="currentColor"/>
</g>
</a>
<a style="color:inherit;" xlink:href="textedit://C:/Users/har1sf0x/Documents/LilyPond%20-%20Frescobaldi/%ce%9a%ce%ac%cf%84%cf%89_%cf%83%cf%84%ce%bf_%ce%b3%ce%b9%ce%b1%ce%bb%cf%8c_%ce%b1.ly:15:63:64">
<g transform="translate(25.6615, 18.2517)">
<path transform="scale(0.0022, -0.0022)" d="M155 457c-34 0 -71 -8 -71 -38c0 -19 32 -23 32 -42c0 -28 -23 -51 -51 -51s-51 23 -51 51c0 72 66 123 141 123c93 0 174 -31 174 -113c0 -36 -10 -65 -42 -80c-17 -8 -26 -25 -26 -41s9 -32 26 -40c37 -17 59 -45 59 -85c0 -94 -83 -141 -186 -141
c-84 0 -160 54 -160 133c0 32 26 58 58 58s58 -26 58 -58c0 -22 -36 -26 -36 -48c0 -33 42 -42 80 -42c41 0 56 50 56 98v21c0 44 -2 77 -43 77h-65c-18 0 -27 14 -27 27s9 27 27 27h65c42 0 43 36 43 83v11c0 43 -20 70 -61 70z" fill="currentColor"/>
</g>
</a>
<g transform="translate(25.4670, 21.3017)">
<rect x="-0.0650" y="-1.3139" width="0.1300" height="3.1290" ry="0.0400" fill="currentColor"/>
</g>
<a style="color:inherit;" xlink:href="textedit://C:/Users/har1sf0x/Documents/LilyPond%20-%20Frescobaldi/%ce%9a%ce%ac%cf%84%cf%89_%cf%83%cf%84%ce%bf_%ce%b3%ce%b9%ce%b1%ce%bb%cf%8c_%ce%b1.ly:16:2:3">
<g transform="translate(28.4261, 20.3017)">
<path transform="scale(0.0040, -0.0040)" d="M218 136c55 0 108 -28 108 -89c0 -71 -55 -121 -102 -149c-35 -21 -75 -34 -116 -34c-55 0 -108 28 -108 89c0 71 55 121 102 149c35 21 75 34 116 34z" fill="currentColor"/>
</g>
</a>
<a style="color:inherit;" xlink:href="textedit://C:/Users/har1sf0x/Documents/LilyPond%20-%20Frescobaldi/%ce%9a%ce%ac%cf%84%cf%89_%cf%83%cf%84%ce%bf_%ce%b3%ce%b9%ce%b1%ce%bb%cf%8c_%ce%b1.ly:16:4:5">
<g transform="translate(28.6685, 18.2517)">
<path transform="scale(0.0022, -0.0022)" d="M194 486c15 0 25 15 41 15c13 0 24 -13 24 -31v-341c0 -47 35 -86 81 -86c14 0 21 -10 21 -21s-7 -22 -21 -22c-49 0 -97 14 -146 14s-96 -14 -145 -14c-14 0 -22 11 -22 22s8 21 22 21c46 0 80 39 80 86v137c0 23 -16 35 -30 35c-7 0 -13 -4 -17 -11l-34 -65
c-5 -10 -14 -15 -23 -15c-14 0 -28 12 -28 27c0 4 1 8 3 13l129 250c2 4 7 6 11 6c20 0 35 -20 54 -20z" fill="currentColor"/>
</g>
</a>
<a style="color:inherit;" xlink:href="textedit://C:/Users/har1sf0x/Documents/LilyPond%20-%20Frescobaldi/%ce%9a%ce%ac%cf%84%cf%89_%cf%83%cf%84%ce%bf_%ce%b3%ce%b9%ce%b1%ce%bb%cf%8c_%ce%b1.ly:15:35:36">
<g transform="translate(21.3337, 20.8017)">
<path transform="scale(0.0040, -0.0040)" d="M218 136c55 0 108 -28 108 -89c0 -71 -55 -121 -102 -149c-35 -21 -75 -34 -116 -34c-55 0 -108 28 -108 89c0 71 55 121 102 149c35 21 75 34 116 34z" fill="currentColor"/>
</g>
</a>
<a style="color:inherit;" xlink:href="textedit://C:/Users/har1sf0x/Documents/LilyPond%20-%20Frescobaldi/%ce%9a%ce%ac%cf%84%cf%89_%cf%83%cf%84%ce%bf_%ce%b3%ce%b9%ce%b1%ce%bb%cf%8c_%ce%b1.ly:15:36:37">
<g transform="translate(21.5761, 18.2517)">
<path transform="scale(0.0022, -0.0022)" d="M194 486c15 0 25 15 41 15c13 0 24 -13 24 -31v-341c0 -47 35 -86 81 -86c14 0 21 -10 21 -21s-7 -22 -21 -22c-49 0 -97 14 -146 14s-96 -14 -145 -14c-14 0 -22 11 -22 22s8 21 22 21c46 0 80 39 80 86v137c0 23 -16 35 -30 35c-7 0 -13 -4 -17 -11l-34 -65
c-5 -10 -14 -15 -23 -15c-14 0 -28 12 -28 27c0 4 1 8 3 13l129 250c2 4 7 6 11 6c20 0 35 -20 54 -20z" fill="currentColor"/>
</g>
</a>
<g transform="translate(21.3987, 21.3017)">
<rect x="-0.0650" y="-0.3139" width="0.1300" height="3.1298" ry="0.0400" fill="currentColor"/>
</g>
<a style="color:inherit;" xlink:href="textedit://C:/Users/har1sf0x/Documents/LilyPond%20-%20Frescobaldi/%ce%9a%ce%ac%cf%84%cf%89_%cf%83%cf%84%ce%bf_%ce%b3%ce%b9%ce%b1%ce%bb%cf%8c_%ce%b1.ly:15:47:48">
<g transform="translate(23.1245, 20.3017)">
<path transform="scale(0.0040, -0.0040)" d="M218 136c55 0 108 -28 108 -89c0 -71 -55 -121 -102 -149c-35 -21 -75 -34 -116 -34c-55 0 -108 28 -108 89c0 71 55 121 102 149c35 21 75 34 116 34z" fill="currentColor"/>
</g>
</a>
<a style="color:inherit;" xlink:href="textedit://C:/Users/har1sf0x/Documents/LilyPond%20-%20Frescobaldi/%ce%9a%ce%ac%cf%84%cf%89_%cf%83%cf%84%ce%bf_%ce%b3%ce%b9%ce%b1%ce%bb%cf%8c_%ce%b1.ly:15:49:50">
<g transform="translate(23.3669, 18.2517)">
<path transform="scale(0.0022, -0.0022)" d="M194 486c15 0 25 15 41 15c13 0 24 -13 24 -31v-341c0 -47 35 -86 81 -86c14 0 21 -10 21 -21s-7 -22 -21 -22c-49 0 -97 14 -146 14s-96 -14 -145 -14c-14 0 -22 11 -22 22s8 21 22 21c46 0 80 39 80 86v137c0 23 -16 35 -30 35c-7 0 -13 -4 -17 -11l-34 -65
c-5 -10 -14 -15 -23 -15c-14 0 -28 12 -28 27c0 4 1 8 3 13l129 250c2 4 7 6 11 6c20 0 35 -20 54 -20z" fill="currentColor"/>
</g>
</a>
<g transform="translate(23.1895, 21.3017)">
<rect x="-0.0650" y="-0.8139" width="0.1300" height="2.8088" ry="0.0400" fill="currentColor"/>
</g>
<a style="color:inherit;" xlink:href="textedit://C:/Users/har1sf0x/Documents/LilyPond%20-%20Frescobaldi/%ce%9a%ce%ac%cf%84%cf%89_%cf%83%cf%84%ce%bf_%ce%b3%ce%b9%ce%b1%ce%bb%cf%8c_%ce%b1.ly:18:17:18">
<g transform="translate(53.1967, 20.3017)">
<path transform="scale(0.0040, -0.0040)" d="M218 136c55 0 108 -28 108 -89c0 -71 -55 -121 -102 -149c-35 -21 -75 -34 -116 -34c-55 0 -108 28 -108 89c0 71 55 121 102 149c35 21 75 34 116 34z" fill="currentColor"/>
</g>
</a>
<a style="color:inherit;" xlink:href="textedit://C:/Users/har1sf0x/Documents/LilyPond%20-%20Frescobaldi/%ce%9a%ce%ac%cf%84%cf%89_%cf%83%cf%84%ce%bf_%ce%b3%ce%b9%ce%b1%ce%bb%cf%8c_%ce%b1.ly:18:20:21">
<g transform="translate(53.4561, 18.2517)">
<path transform="scale(0.0022, -0.0022)" d="M155 457c-34 0 -71 -8 -71 -38c0 -19 32 -23 32 -42c0 -28 -23 -51 -51 -51s-51 23 -51 51c0 72 66 123 141 123c93 0 174 -31 174 -113c0 -36 -10 -65 -42 -80c-17 -8 -26 -25 -26 -41s9 -32 26 -40c37 -17 59 -45 59 -85c0 -94 -83 -141 -186 -141
c-84 0 -160 54 -160 133c0 32 26 58 58 58s58 -26 58 -58c0 -22 -36 -26 -36 -48c0 -33 42 -42 80 -42c41 0 56 50 56 98v21c0 44 -2 77 -43 77h-65c-18 0 -27 14 -27 27s9 27 27 27h65c42 0 43 36 43 83v11c0 43 -20 70 -61 70z" fill="currentColor"/>
</g>
</a>
<g transform="translate(53.2617, 21.3017)">
<rect x="-0.0650" y="-0.8139" width="0.1300" height="2.8139" ry="0.0400" fill="currentColor"/>
</g>
<a style="color:inherit;" xlink:href="textedit://C:/Users/har1sf0x/Documents/LilyPond%20-%20Frescobaldi/%ce%9a%ce%ac%cf%84%cf%89_%cf%83%cf%84%ce%bf_%ce%b3%ce%b9%ce%b1%ce%bb%cf%8c_%ce%b1.ly:18:33:34">
<g transform="translate(54.9875, 20.3017)">
<path transform="scale(0.0040, -0.0040)" d="M218 136c55 0 108 -28 108 -89c0 -71 -55 -121 -102 -149c-35 -21 -75 -34 -116 -34c-55 0 -108 28 -108 89c0 71 55 121 102 149c35 21 75 34 116 34z" fill="currentColor"/>
</g>
</a>
<a style="color:inherit;" xlink:href="textedit://C:/Users/har1sf0x/Documents/LilyPond%20-%20Frescobaldi/%ce%9a%ce%ac%cf%84%cf%89_%cf%83%cf%84%ce%bf_%ce%b3%ce%b9%ce%b1%ce%bb%cf%8c_%ce%b1.ly:18:34:35">
<g transform="translate(55.2470, 18.2517)">
<path transform="scale(0.0022, -0.0022)" d="M155 457c-34 0 -71 -8 -71 -38c0 -19 32 -23 32 -42c0 -28 -23 -51 -51 -51s-51 23 -51 51c0 72 66 123 141 123c93 0 174 -31 174 -113c0 -36 -10 -65 -42 -80c-17 -8 -26 -25 -26 -41s9 -32 26 -40c37 -17 59 -45 59 -85c0 -94 -83 -141 -186 -141
c-84 0 -160 54 -160 133c0 32 26 58 58 58s58 -26 58 -58c0 -22 -36 -26 -36 -48c0 -33 42 -42 80 -42c41 0 56 50 56 98v21c0 44 -2 77 -43 77h-65c-18 0 -27 14 -27 27s9 27 27 27h65c42 0 43 36 43 83v11c0 43 -20 70 -61 70z" fill="currentColor"/>
</g>
</a>
<a style="color:inherit;" xlink:href="textedit://C:/Users/har1sf0x/Documents/LilyPond%20-%20Frescobaldi/%ce%9a%ce%ac%cf%84%cf%89_%cf%83%cf%84%ce%bf_%ce%b3%ce%b9%ce%b1%ce%bb%cf%8c_%ce%b1.ly:18:2:3">
<g transform="translate(50.9192, 20.3017)">
<path transform="scale(0.0040, -0.0040)" d="M218 136c55 0 108 -28 108 -89c0 -71 -55 -121 -102 -149c-35 -21 -75 -34 -116 -34c-55 0 -108 28 -108 89c0 71 55 121 102 149c35 21 75 34 116 34z" fill="currentColor"/>
</g>
</a>
<a style="color:inherit;" xlink:href="textedit://C:/Users/har1sf0x/Documents/LilyPond%20-%20Frescobaldi/%ce%9a%ce%ac%cf%84%cf%89_%cf%83%cf%84%ce%bf_%ce%b3%ce%b9%ce%b1%ce%bb%cf%8c_%ce%b1.ly:18:4:5">
<g transform="translate(51.1786, 18.2517)">
<path transform="scale(0.0022, -0.0022)" d="M155 457c-34 0 -71 -8 -71 -38c0 -19 32 -23 32 -42c0 -28 -23 -51 -51 -51s-51 23 -51 51c0 72 66 123 141 123c93 0 174 -31 174 -113c0 -36 -10 -65 -42 -80c-17 -8 -26 -25 -26 -41s9 -32 26 -40c37 -17 59 -45 59 -85c0 -94 -83 -141 -186 -141
c-84 0 -160 54 -160 133c0 32 26 58 58 58s58 -26 58 -58c0 -22 -36 -26 -36 -48c0 -33 42 -42 80 -42c41 0 56 50 56 98v21c0 44 -2 77 -43 77h-65c-18 0 -27 14 -27 27s9 27 27 27h65c42 0 43 36 43 83v11c0 43 -20 70 -61 70z" fill="currentColor"/>
</g>
</a>
<g transform="translate(50.9842, 21.3017)">
<rect x="-0.0650" y="-0.8139" width="0.1300" height="2.8139" ry="0.0400" fill="currentColor"/>
</g>
<g transform="translate(55.0525, 21.3017)">
<rect x="-0.0650" y="-0.8139" width="0.1300" height="2.8139" ry="0.0400" fill="currentColor"/>
</g>
<a style="color:inherit;" xlink:href="textedit://C:/Users/har1sf0x/Documents/LilyPond%20-%20Frescobaldi/%ce%9a%ce%ac%cf%84%cf%89_%cf%83%cf%84%ce%bf_%ce%b3%ce%b9%ce%b1%ce%bb%cf%8c_%ce%b1.ly:18:67:68">
<g transform="translate(59.1116, 18.2517)">
<path transform="scale(0.0022, -0.0022)" d="M194 486c15 0 25 15 41 15c13 0 24 -13 24 -31v-341c0 -47 35 -86 81 -86c14 0 21 -10 21 -21s-7 -22 -21 -22c-49 0 -97 14 -146 14s-96 -14 -145 -14c-14 0 -22 11 -22 22s8 21 22 21c46 0 80 39 80 86v137c0 23 -16 35 -30 35c-7 0 -13 -4 -17 -11l-34 -65
c-5 -10 -14 -15 -23 -15c-14 0 -28 12 -28 27c0 4 1 8 3 13l129 250c2 4 7 6 11 6c20 0 35 -20 54 -20z" fill="currentColor"/>
</g>
</a>
<g transform="translate(58.9342, 21.3017)">
<rect x="-0.0650" y="0.1861" width="0.1300" height="2.8139" ry="0.0400" fill="currentColor"/>
</g>
<a style="color:inherit;" xlink:href="textedit://C:/Users/har1sf0x/Documents/LilyPond%20-%20Frescobaldi/%ce%9a%ce%ac%cf%84%cf%89_%cf%83%cf%84%ce%bf_%ce%b3%ce%b9%ce%b1%ce%bb%cf%8c_%ce%b1.ly:18:64:65">
<g transform="translate(58.8692, 21.3017)">
<path transform="scale(0.0040, -0.0040)" d="M218 136c55 0 108 -28 108 -89c0 -71 -55 -121 -102 -149c-35 -21 -75 -34 -116 -34c-55 0 -108 28 -108 89c0 71 55 121 102 149c35 21 75 34 116 34z" fill="currentColor"/>
</g>
</a>
<a style="color:inherit;" xlink:href="textedit://C:/Users/har1sf0x/Documents/LilyPond%20-%20Frescobaldi/%ce%9a%ce%ac%cf%84%cf%89_%cf%83%cf%84%ce%bf_%ce%b3%ce%b9%ce%b1%ce%bb%cf%8c_%ce%b1.ly:20:2:3">
<g transform="translate(64.8889, 20.3017)">
<path transform="scale(0.0040, -0.0040)" d="M218 136c55 0 108 -28 108 -89c0 -71 -55 -121 -102 -149c-35 -21 -75 -34 -116 -34c-55 0 -108 28 -108 89c0 71 55 121 102 149c35 21 75 34 116 34z" fill="currentColor"/>
</g>
</a>
<a style="color:inherit;" xlink:href="textedit://C:/Users/har1sf0x/Documents/LilyPond%20-%20Frescobaldi/%ce%9a%ce%ac%cf%84%cf%89_%cf%83%cf%84%ce%bf_%ce%b3%ce%b9%ce%b1%ce%bb%cf%8c_%ce%b1.ly:20:4:5">
<g transform="translate(65.1484, 18.2517)">
<path transform="scale(0.0022, -0.0022)" d="M155 457c-34 0 -71 -8 -71 -38c0 -19 32 -23 32 -42c0 -28 -23 -51 -51 -51s-51 23 -51 51c0 72 66 123 141 123c93 0 174 -31 174 -113c0 -36 -10 -65 -42 -80c-17 -8 -26 -25 -26 -41s9 -32 26 -40c37 -17 59 -45 59 -85c0 -94 -83 -141 -186 -141
c-84 0 -160 54 -160 133c0 32 26 58 58 58s58 -26 58 -58c0 -22 -36 -26 -36 -48c0 -33 42 -42 80 -42c41 0 56 50 56 98v21c0 44 -2 77 -43 77h-65c-18 0 -27 14 -27 27s9 27 27 27h65c42 0 43 36 43 83v11c0 43 -20 70 -61 70z" fill="currentColor"/>
</g>
</a>
<a style="color:inherit;" xlink:href="textedit://C:/Users/har1sf0x/Documents/LilyPond%20-%20Frescobaldi/%ce%9a%ce%ac%cf%84%cf%89_%cf%83%cf%84%ce%bf_%ce%b3%ce%b9%ce%b1%ce%bb%cf%8c_%ce%b1.ly:19:11:12">
<g transform="translate(62.6867, 18.4517)">
<text font-family="serif" font-size="2.6163" text-anchor="start" fill="currentColor">
<tspan>B</tspan>
</text>
</g>
</a>
<g transform="translate(64.9539, 21.3017)">
<rect x="-0.0650" y="-0.8139" width="0.1300" height="3.0135" ry="0.0400" fill="currentColor"/>
</g>
<a style="color:inherit;" xlink:href="textedit://C:/Users/har1sf0x/Documents/LilyPond%20-%20Frescobaldi/%ce%9a%ce%ac%cf%84%cf%89_%cf%83%cf%84%ce%bf_%ce%b3%ce%b9%ce%b1%ce%bb%cf%8c_%ce%b1.ly:18:47:48">
<g transform="translate(56.5917, 21.3017)">
<path transform="scale(0.0040, -0.0040)" d="M218 136c55 0 108 -28 108 -89c0 -71 -55 -121 -102 -149c-35 -21 -75 -34 -116 -34c-55 0 -108 28 -108 89c0 71 55 121 102 149c35 21 75 34 116 34z" fill="currentColor"/>
</g>
</a>
<a style="color:inherit;" xlink:href="textedit://C:/Users/har1sf0x/Documents/LilyPond%20-%20Frescobaldi/%ce%9a%ce%ac%cf%84%cf%89_%cf%83%cf%84%ce%bf_%ce%b3%ce%b9%ce%b1%ce%bb%cf%8c_%ce%b1.ly:18:51:52">
<g transform="translate(56.8341, 18.2517)">
<path transform="scale(0.0022, -0.0022)" d="M194 486c15 0 25 15 41 15c13 0 24 -13 24 -31v-341c0 -47 35 -86 81 -86c14 0 21 -10 21 -21s-7 -22 -21 -22c-49 0 -97 14 -146 14s-96 -14 -145 -14c-14 0 -22 11 -22 22s8 21 22 21c46 0 80 39 80 86v137c0 23 -16 35 -30 35c-7 0 -13 -4 -17 -11l-34 -65
c-5 -10 -14 -15 -23 -15c-14 0 -28 12 -28 27c0 4 1 8 3 13l129 250c2 4 7 6 11 6c20 0 35 -20 54 -20z" fill="currentColor"/>
</g>
</a>
<g transform="translate(56.6567, 21.3017)">
<rect x="-0.0650" y="0.1861" width="0.1300" height="2.8139" ry="0.0400" fill="currentColor"/>
</g>
<g transform="translate(45.5754, 21.3017)">
<rect x="-0.0650" y="-0.3139" width="0.1300" height="3.1290" ry="0.0400" fill="currentColor"/>
</g>
<a style="color:inherit;" xlink:href="textedit://C:/Users/har1sf0x/Documents/LilyPond%20-%20Frescobaldi/%ce%9a%ce%ac%cf%84%cf%89_%cf%83%cf%84%ce%bf_%ce%b3%ce%b9%ce%b1%ce%bb%cf%8c_%ce%b1.ly:17:47:48">
<g transform="translate(45.7528, 18.2517)">
<path transform="scale(0.0022, -0.0022)" d="M194 486c15 0 25 15 41 15c13 0 24 -13 24 -31v-341c0 -47 35 -86 81 -86c14 0 21 -10 21 -21s-7 -22 -21 -22c-49 0 -97 14 -146 14s-96 -14 -145 -14c-14 0 -22 11 -22 22s8 21 22 21c46 0 80 39 80 86v137c0 23 -16 35 -30 35c-7 0 -13 -4 -17 -11l-34 -65
c-5 -10 -14 -15 -23 -15c-14 0 -28 12 -28 27c0 4 1 8 3 13l129 250c2 4 7 6 11 6c20 0 35 -20 54 -20z" fill="currentColor"/>
</g>
</a>
<a style="color:inherit;" xlink:href="textedit://C:/Users/har1sf0x/Documents/LilyPond%20-%20Frescobaldi/%ce%9a%ce%ac%cf%84%cf%89_%cf%83%cf%84%ce%bf_%ce%b3%ce%b9%ce%b1%ce%bb%cf%8c_%ce%b1.ly:17:45:46">
<g transform="translate(45.5104, 20.8017)">
<path transform="scale(0.0040, -0.0040)" d="M218 136c55 0 108 -28 108 -89c0 -71 -55 -121 -102 -149c-35 -21 -75 -34 -116 -34c-55 0 -108 28 -108 89c0 71 55 121 102 149c35 21 75 34 116 34z" fill="currentColor"/>
</g>
</a>
<g transform="translate(43.7846, 21.3017)">
<rect x="-0.0650" y="-0.8139" width="0.1300" height="2.8110" ry="0.0400" fill="currentColor"/>
</g>
<a style="color:inherit;" xlink:href="textedit://C:/Users/har1sf0x/Documents/LilyPond%20-%20Frescobaldi/%ce%9a%ce%ac%cf%84%cf%89_%cf%83%cf%84%ce%bf_%ce%b3%ce%b9%ce%b1%ce%bb%cf%8c_%ce%b1.ly:17:34:35">
<g transform="translate(43.9620, 18.2517)">
<path transform="scale(0.0022, -0.0022)" d="M194 486c15 0 25 15 41 15c13 0 24 -13 24 -31v-341c0 -47 35 -86 81 -86c14 0 21 -10 21 -21s-7 -22 -21 -22c-49 0 -97 14 -146 14s-96 -14 -145 -14c-14 0 -22 11 -22 22s8 21 22 21c46 0 80 39 80 86v137c0 23 -16 35 -30 35c-7 0 -13 -4 -17 -11l-34 -65
c-5 -10 -14 -15 -23 -15c-14 0 -28 12 -28 27c0 4 1 8 3 13l129 250c2 4 7 6 11 6c20 0 35 -20 54 -20z" fill="currentColor"/>
</g>
</a>
<a style="color:inherit;" xlink:href="textedit://C:/Users/har1sf0x/Documents/LilyPond%20-%20Frescobaldi/%ce%9a%ce%ac%cf%84%cf%89_%cf%83%cf%84%ce%bf_%ce%b3%ce%b9%ce%b1%ce%bb%cf%8c_%ce%b1.ly:17:33:34">
<g transform="translate(43.7196, 20.3017)">
<path transform="scale(0.0040, -0.0040)" d="M218 136c55 0 108 -28 108 -89c0 -71 -55 -121 -102 -149c-35 -21 -75 -34 -116 -34c-55 0 -108 28 -108 89c0 71 55 121 102 149c35 21 75 34 116 34z" fill="currentColor"/>
</g>
</a>
<g transform="translate(41.9937, 21.3017)">
<rect x="-0.0650" y="-0.8139" width="0.1300" height="2.7299" ry="0.0400" fill="currentColor"/>
</g>
<a style="color:inherit;" xlink:href="textedit://C:/Users/har1sf0x/Documents/LilyPond%20-%20Frescobaldi/%ce%9a%ce%ac%cf%84%cf%89_%cf%83%cf%84%ce%bf_%ce%b3%ce%b9%ce%b1%ce%bb%cf%8c_%ce%b1.ly:17:20:21">
<g transform="translate(42.1711, 18.2517)">
<path transform="scale(0.0022, -0.0022)" d="M194 486c15 0 25 15 41 15c13 0 24 -13 24 -31v-341c0 -47 35 -86 81 -86c14 0 21 -10 21 -21s-7 -22 -21 -22c-49 0 -97 14 -146 14s-96 -14 -145 -14c-14 0 -22 11 -22 22s8 21 22 21c46 0 80 39 80 86v137c0 23 -16 35 -30 35c-7 0 -13 -4 -17 -11l-34 -65
c-5 -10 -14 -15 -23 -15c-14 0 -28 12 -28 27c0 4 1 8 3 13l129 250c2 4 7 6 11 6c20 0 35 -20 54 -20z" fill="currentColor"/>
</g>
</a>
<a style="color:inherit;" xlink:href="textedit://C:/Users/har1sf0x/Documents/LilyPond%20-%20Frescobaldi/%ce%9a%ce%ac%cf%84%cf%89_%cf%83%cf%84%ce%bf_%ce%b3%ce%b9%ce%b1%ce%bb%cf%8c_%ce%b1.ly:17:17:18">
<g transform="translate(41.9287, 20.3017)">
<path transform="scale(0.0040, -0.0040)" d="M218 136c55 0 108 -28 108 -89c0 -71 -55 -121 -102 -149c-35 -21 -75 -34 -116 -34c-55 0 -108 28 -108 89c0 71 55 121 102 149c35 21 75 34 116 34z" fill="currentColor"/>
</g>
</a>
<g transform="translate(47.8529, 21.3017)">
<rect x="-0.0650" y="0.1861" width="0.1300" height="2.8088" ry="0.0400" fill="currentColor"/>
</g>
<a style="color:inherit;" xlink:href="textedit://C:/Users/har1sf0x/Documents/LilyPond%20-%20Frescobaldi/%ce%9a%ce%ac%cf%84%cf%89_%cf%83%cf%84%ce%bf_%ce%b3%ce%b9%ce%b1%ce%bb%cf%8c_%ce%b1.ly:17:63:64">
<g transform="translate(48.0303, 18.2517)">
<path transform="scale(0.0022, -0.0022)" d="M194 486c15 0 25 15 41 15c13 0 24 -13 24 -31v-341c0 -47 35 -86 81 -86c14 0 21 -10 21 -21s-7 -22 -21 -22c-49 0 -97 14 -146 14s-96 -14 -145 -14c-14 0 -22 11 -22 22s8 21 22 21c46 0 80 39 80 86v137c0 23 -16 35 -30 35c-7 0 -13 -4 -17 -11l-34 -65
c-5 -10 -14 -15 -23 -15c-14 0 -28 12 -28 27c0 4 1 8 3 13l129 250c2 4 7 6 11 6c20 0 35 -20 54 -20z" fill="currentColor"/>
</g>
</a>
<a style="color:inherit;" xlink:href="textedit://C:/Users/har1sf0x/Documents/LilyPond%20-%20Frescobaldi/%ce%9a%ce%ac%cf%84%cf%89_%cf%83%cf%84%ce%bf_%ce%b3%ce%b9%ce%b1%ce%bb%cf%8c_%ce%b1.ly:17:60:61">
<g transform="translate(47.7879, 21.3017)">
<path transform="scale(0.0040, -0.0040)" d="M218 136c55 0 108 -28 108 -89c0 -71 -55 -121 -102 -149c-35 -21 -75 -34 -116 -34c-55 0 -108 28 -108 89c0 71 55 121 102 149c35 21 75 34 116 34z" fill="currentColor"/>
</g>
</a>
<g transform="translate(54.0830, 29.5182)">
<text font-family="serif" font-size="2.2001" text-anchor="start" fill="currentColor">
<tspan>Χ. Κόχυλας</tspan>
</text>
</g>
<g transform="translate(30.6607, 33.0462)">
<a xlink:href="https://lilypond.org/">
<rect x="0.0000" y="-0.5280" width="58.1802" height="2.2001" fill="none" stroke="none" stroke-width="0.0"/>
</a>
</g>
<g transform="translate(30.6607, 33.0462)">
<text font-family="serif" font-size="2.2001" text-anchor="start" fill="currentColor">
<tspan>Music engraving by LilyPond 2.24.4—www.lilypond.org</tspan>
</text>
</g>
</svg>
