<svg xmlns="http://www.w3.org/2000/svg" xmlns:xlink="http://www.w3.org/1999/xlink" version="1.2" width="210.00mm" height="55.00mm" viewBox="0.0000 -0.0000 119.5016 31.2980">
<style type="text/css">
<![CDATA[
tspan { white-space: pre; }
]]>
</style>
<g transform="translate(43.1059, 6.6255)">
<text font-family="serif" font-weight="bold" font-size="3.4927" text-anchor="start" fill="currentColor">
<tspan>Κάτω στο γιαλό (α)</tspan>
</text>
</g>
<g transform="translate(51.5393, 10.1255)">
<text font-family="serif" font-weight="bold" font-size="2.4696" text-anchor="start" fill="currentColor">
<tspan>Αιγαίο (Χίος)</tspan>
</text>
</g>
<g transform="translate(5.6906, 21.4190)">
<line stroke-linejoin="round" stroke-linecap="round" stroke-width="0.1000" stroke="currentColor" x1="0.0500" y1="0" x2="108.0705" y2="0"/>
</g>
<g transform="translate(5.6906, 20.4190)">
<line stroke-linejoin="round" stroke-linecap="round" stroke-width="0.1000" stroke="currentColor" x1="0.0500" y1="0" x2="108.0705" y2="0"/>
</g>
<g transform="translate(5.6906, 19.4190)">
<line stroke-linejoin="round" stroke-linecap="round" stroke-width="0.1000" stroke="currentColor" x1="0.0500" y1="0" x2="108.0705" y2="0"/>
</g>
<g transform="translate(5.6906, 18.4190)">
<line stroke-linejoin="round" stroke-linecap="round" stroke-width="0.1000" stroke="currentColor" x1="0.0500" y1="0" x2="108.0705" y2="0"/>
</g>
<g transform="translate(5.6906, 17.4190)">
<line stroke-linejoin="round" stroke-linecap="round" stroke-width="0.1000" stroke="currentColor" x1="0.0500" y1="0" x2="108.0705" y2="0"/>
</g>
<g transform="translate(38.6393, 19.4190)">
<rect x="0.0000" y="-2.0000" width="0.1900" height="4.0000" ry="0.0000" fill="currentColor"/>
</g>
<g transform="translate(87.8557, 19.4190)">
<rect x="0.0000" y="-2.0000" width="0.1900" height="4.0000" ry="0.0000" fill="currentColor"/>
</g>
<g transform="translate(100.1984, 19.4190)">
<rect x="0.0000" y="-2.0000" width="0.1900" height="4.0000" ry="0.0000" fill="currentColor"/>
</g>
<g transform="translate(27.4428, 19.4190)">
<rect x="0.0000" y="-2.0000" width="0.1900" height="4.0000" ry="0.0000" fill="currentColor"/>
</g>
<g transform="translate(49.9359, 19.4190)">
<rect x="0.0000" y="-2.0000" width="0.1900" height="4.0000" ry="0.0000" fill="currentColor"/>
</g>
<g transform="translate(76.2484, 19.4190)">
<rect x="0.0000" y="-2.0000" width="0.1900" height="4.0000" ry="0.0000" fill="currentColor"/>
</g>
<g transform="translate(111.9710, 18.9190)">
<path transform="scale(0.0040, -0.0040)" d="M0 0c0 31 25 56 56 56s56 -25 56 -56s-25 -56 -56 -56s-56 25 -56 56z" fill="currentColor"/>
</g>
<g transform="translate(111.9710, 19.9190)">
<path transform="scale(0.0040, -0.0040)" d="M0 0c0 31 25 56 56 56s56 -25 56 -56s-25 -56 -56 -56s-56 25 -56 56z" fill="currentColor"/>
</g>
<g transform="translate(113.2110, 19.4190)">
<rect x="0.0000" y="-2.0000" width="0.6000" height="4.0000" ry="0.0000" fill="currentColor"/>
</g>
<g transform="translate(112.7210, 19.4190)">
<rect x="0.0000" y="-2.0000" width="0.1900" height="4.0000" ry="0.0000" fill="currentColor"/>
</g>
<g transform="translate(61.1467, 18.9190)">
<path transform="scale(0.0040, -0.0040)" d="M0 0c0 31 25 56 56 56s56 -25 56 -56s-25 -56 -56 -56s-56 25 -56 56z" fill="currentColor"/>
</g>
<g transform="translate(61.1467, 19.9190)">
<path transform="scale(0.0040, -0.0040)" d="M0 0c0 31 25 56 56 56s56 -25 56 -56s-25 -56 -56 -56s-56 25 -56 56z" fill="currentColor"/>
</g>
<g transform="translate(63.7767, 18.9190)">
<path transform="scale(0.0040, -0.0040)" d="M0 0c0 31 25 56 56 56s56 -25 56 -56s-25 -56 -56 -56s-56 25 -56 56z" fill="currentColor"/>
</g>
<g transform="translate(63.7767, 19.9190)">
<path transform="scale(0.0040, -0.0040)" d="M0 0c0 31 25 56 56 56s56 -25 56 -56s-25 -56 -56 -56s-56 25 -56 56z" fill="currentColor"/>
</g>
<g transform="translate(63.2867, 19.4190)">
<rect x="0.0000" y="-2.0000" width="0.1900" height="4.0000" ry="0.0000" fill="currentColor"/>
</g>
<g transform="translate(62.3867, 19.4190)">
<rect x="0.0000" y="-2.0000" width="0.6000" height="4.0000" ry="0.0000" fill="currentColor"/>
</g>
<g transform="translate(61.8967, 19.4190)">
<rect x="0.0000" y="-2.0000" width="0.1900" height="4.0000" ry="0.0000" fill="currentColor"/>
</g>
<a style="color:inherit;" xlink:href="textedit://C:/Users/har1sf0x/Documents/LilyPond%20-%20Frescobaldi/%ce%9a%ce%ac%cf%84%cf%89_%cf%83%cf%84%ce%bf_%ce%b3%ce%b9%ce%b1%ce%bb%cf%8c_%ce%b1.ly:21:42:43">
<g transform="translate(81.6569, 19.9190)">
<path transform="scale(0.0040, -0.0040)" d="M218 136c55 0 108 -28 108 -89c0 -71 -55 -121 -102 -149c-35 -21 -75 -34 -116 -34c-55 0 -108 28 -108 89c0 71 55 121 102 149c35 21 75 34 116 34z" fill="currentColor"/>
</g>
</a>
<g transform="translate(82.8961, 19.4190)">
<rect x="-0.0650" y="-3.0112" width="0.1300" height="3.3251" ry="0.0400" fill="currentColor"/>
</g>
<a style="color:inherit;" xlink:href="textedit://C:/Users/har1sf0x/Documents/LilyPond%20-%20Frescobaldi/%ce%9a%ce%ac%cf%84%cf%89_%cf%83%cf%84%ce%bf_%ce%b3%ce%b9%ce%b1%ce%bb%cf%8c_%ce%b1.ly:21:54:55">
<g transform="translate(83.4660, 19.4190)">
<path transform="scale(0.0040, -0.0040)" d="M218 136c55 0 108 -28 108 -89c0 -71 -55 -121 -102 -149c-35 -21 -75 -34 -116 -34c-55 0 -108 28 -108 89c0 71 55 121 102 149c35 21 75 34 116 34z" fill="currentColor"/>
</g>
</a>
<g transform="translate(81.1052, 19.4190)">
<rect x="-0.0650" y="-3.3208" width="0.1300" height="3.6347" ry="0.0400" fill="currentColor"/>
</g>
<g transform="translate(107.4160, 22.4190)">
<polygon stroke-linejoin="round" stroke-linecap="round" stroke-width="0.0800" fill="currentColor" stroke="currentColor" points="2.3675 -0.2000 2.3675 0.2000 0.0400 0.2000 0.0400 -0.2000"/>
</g>
<a style="color:inherit;" xlink:href="textedit://C:/Users/har1sf0x/Documents/LilyPond%20-%20Frescobaldi/%ce%9a%ce%ac%cf%84%cf%89_%cf%83%cf%84%ce%bf_%ce%b3%ce%b9%ce%b1%ce%bb%cf%8c_%ce%b1.ly:21:26:27">
<g transform="translate(79.8660, 19.9190)">
<path transform="scale(0.0040, -0.0040)" d="M218 136c55 0 108 -28 108 -89c0 -71 -55 -121 -102 -149c-35 -21 -75 -34 -116 -34c-55 0 -108 28 -108 89c0 71 55 121 102 149c35 21 75 34 116 34z" fill="currentColor"/>
</g>
</a>
<g transform="translate(88.9040, 19.4190)">
<rect x="-0.0650" y="-0.8139" width="0.1300" height="3.0135" ry="0.0400" fill="currentColor"/>
</g>
<a style="color:inherit;" xlink:href="textedit://C:/Users/har1sf0x/Documents/LilyPond%20-%20Frescobaldi/%ce%9a%ce%ac%cf%84%cf%89_%cf%83%cf%84%ce%bf_%ce%b3%ce%b9%ce%b1%ce%bb%cf%8c_%ce%b1.ly:22:2:3">
<g transform="translate(88.8390, 18.4190)">
<path transform="scale(0.0040, -0.0040)" d="M218 136c55 0 108 -28 108 -89c0 -71 -55 -121 -102 -149c-35 -21 -75 -34 -116 -34c-55 0 -108 28 -108 89c0 71 55 121 102 149c35 21 75 34 116 34z" fill="currentColor"/>
</g>
</a>
<g transform="translate(83.5310, 19.4190)">
<rect x="-0.0650" y="0.1861" width="0.1300" height="2.8088" ry="0.0400" fill="currentColor"/>
</g>
<a style="color:inherit;" xlink:href="textedit://C:/Users/har1sf0x/Documents/LilyPond%20-%20Frescobaldi/%ce%9a%ce%ac%cf%84%cf%89_%cf%83%cf%84%ce%bf_%ce%b3%ce%b9%ce%b1%ce%bb%cf%8c_%ce%b1.ly:21:71:72">
<g transform="translate(85.7435, 18.9190)">
<path transform="scale(0.0040, -0.0040)" d="M218 136c55 0 108 -28 108 -89c0 -71 -55 -121 -102 -149c-35 -21 -75 -34 -116 -34c-55 0 -108 28 -108 89c0 71 55 121 102 149c35 21 75 34 116 34z" fill="currentColor"/>
</g>
</a>
<g transform="translate(85.8085, 19.4190)">
<rect x="-0.0650" y="-0.3139" width="0.1300" height="3.1290" ry="0.0400" fill="currentColor"/>
</g>
<a style="color:inherit;" xlink:href="textedit://C:/Users/har1sf0x/Documents/LilyPond%20-%20Frescobaldi/%ce%9a%ce%ac%cf%84%cf%89_%cf%83%cf%84%ce%bf_%ce%b3%ce%b9%ce%b1%ce%bb%cf%8c_%ce%b1.ly:20:33:34">
<g transform="translate(68.9573, 19.4190)">
<path transform="scale(0.0040, -0.0040)" d="M218 136c55 0 108 -28 108 -89c0 -71 -55 -121 -102 -149c-35 -21 -75 -34 -116 -34c-55 0 -108 28 -108 89c0 71 55 121 102 149c35 21 75 34 116 34z" fill="currentColor"/>
</g>
</a>
<g transform="translate(69.0223, 19.4190)">
<rect x="-0.0650" y="0.1861" width="0.1300" height="2.6143" ry="0.0400" fill="currentColor"/>
</g>
<a style="color:inherit;" xlink:href="textedit://C:/Users/har1sf0x/Documents/LilyPond%20-%20Frescobaldi/%ce%9a%ce%ac%cf%84%cf%89_%cf%83%cf%84%ce%bf_%ce%b3%ce%b9%ce%b1%ce%bb%cf%8c_%ce%b1.ly:20:47:48">
<g transform="translate(70.5615, 19.9190)">
<path transform="scale(0.0040, -0.0040)" d="M218 136c55 0 108 -28 108 -89c0 -71 -55 -121 -102 -149c-35 -21 -75 -34 -116 -34c-55 0 -108 28 -108 89c0 71 55 121 102 149c35 21 75 34 116 34z" fill="currentColor"/>
</g>
</a>
<g color="rgb(50.0000%, 50.0000%, 50.0000%)">
<a style="color:inherit;" xlink:href="textedit://C:/Users/har1sf0x/Documents/LilyPond%20-%20Frescobaldi/%ce%9a%ce%ac%cf%84%cf%89_%cf%83%cf%84%ce%bf_%ce%b3%ce%b9%ce%b1%ce%bb%cf%8c_%ce%b1.ly:20:47:48">
<g transform="translate(70.5615, 21.9190)">
<path transform="scale(0.0040, -0.0040)" d="M218 136c55 0 108 -28 108 -89c0 -71 -55 -121 -102 -149c-35 -21 -75 -34 -116 -34c-55 0 -108 28 -108 89c0 71 55 121 102 149c35 21 75 34 116 34z" fill="currentColor"/>
</g>
</a>
</g>
<g color="rgb(50.0000%, 50.0000%, 50.0000%)">
<a style="color:inherit;" xlink:href="textedit://C:/Users/har1sf0x/Documents/LilyPond%20-%20Frescobaldi/%ce%9a%ce%ac%cf%84%cf%89_%cf%83%cf%84%ce%bf_%ce%b3%ce%b9%ce%b1%ce%bb%cf%8c_%ce%b1.ly:20:47:48">
<g transform="translate(71.8007, 19.9190)">
<path transform="scale(0.0040, -0.0040)" d="M218 136c55 0 108 -28 108 -89c0 -71 -55 -121 -102 -149c-35 -21 -75 -34 -116 -34c-55 0 -108 28 -108 89c0 71 55 121 102 149c35 21 75 34 116 34z" fill="currentColor"/>
</g>
</a>
</g>
<a style="color:inherit;" xlink:href="textedit://C:/Users/har1sf0x/Documents/LilyPond%20-%20Frescobaldi/%ce%9a%ce%ac%cf%84%cf%89_%cf%83%cf%84%ce%bf_%ce%b3%ce%b9%ce%b1%ce%bb%cf%8c_%ce%b1.ly:20:17:18">
<g transform="translate(67.1664, 18.9190)">
<path transform="scale(0.0040, -0.0040)" d="M218 136c55 0 108 -28 108 -89c0 -71 -55 -121 -102 -149c-35 -21 -75 -34 -116 -34c-55 0 -108 28 -108 89c0 71 55 121 102 149c35 21 75 34 116 34z" fill="currentColor"/>
</g>
</a>
<g transform="translate(67.2314, 19.4190)">
<rect x="-0.0650" y="-0.3139" width="0.1300" height="2.8498" ry="0.0400" fill="currentColor"/>
</g>
<a style="color:inherit;" xlink:href="textedit://C:/Users/har1sf0x/Documents/LilyPond%20-%20Frescobaldi/%ce%9a%ce%ac%cf%84%cf%89_%cf%83%cf%84%ce%bf_%ce%b3%ce%b9%ce%b1%ce%bb%cf%8c_%ce%b1.ly:21:2:3">
<g transform="translate(77.1006, 20.4190)">
<path transform="scale(0.0040, -0.0040)" d="M218 136c55 0 108 -28 108 -89c0 -71 -55 -121 -102 -149c-35 -21 -75 -34 -116 -34c-55 0 -108 28 -108 89c0 71 55 121 102 149c35 21 75 34 116 34z" fill="currentColor"/>
</g>
</a>
<g color="rgb(50.0000%, 50.0000%, 50.0000%)">
<a style="color:inherit;" xlink:href="textedit://C:/Users/har1sf0x/Documents/LilyPond%20-%20Frescobaldi/%ce%9a%ce%ac%cf%84%cf%89_%cf%83%cf%84%ce%bf_%ce%b3%ce%b9%ce%b1%ce%bb%cf%8c_%ce%b1.ly:21:2:3">
<g transform="translate(77.1006, 18.4190)">
<path transform="scale(0.0040, -0.0040)" d="M218 136c55 0 108 -28 108 -89c0 -71 -55 -121 -102 -149c-35 -21 -75 -34 -116 -34c-55 0 -108 28 -108 89c0 71 55 121 102 149c35 21 75 34 116 34z" fill="currentColor"/>
</g>
</a>
</g>
<g color="rgb(50.0000%, 50.0000%, 50.0000%)">
<a style="color:inherit;" xlink:href="textedit://C:/Users/har1sf0x/Documents/LilyPond%20-%20Frescobaldi/%ce%9a%ce%ac%cf%84%cf%89_%cf%83%cf%84%ce%bf_%ce%b3%ce%b9%ce%b1%ce%bb%cf%8c_%ce%b1.ly:21:2:3">
<g transform="translate(78.2618, 20.4190)">
<path transform="scale(0.0040, -0.0040)" d="M218 136c55 0 108 -28 108 -89c0 -71 -55 -121 -102 -149c-35 -21 -75 -34 -116 -34c-55 0 -108 28 -108 89c0 71 55 121 102 149c35 21 75 34 116 34z" fill="currentColor"/>
</g>
</a>
</g>
<g transform="translate(78.3398, 19.4190)">
<rect x="-0.0650" y="-3.7988" width="0.1300" height="4.6127" ry="0.0400" fill="currentColor"/>
</g>
<g color="rgb(50.0000%, 50.0000%, 50.0000%)">
<a style="color:inherit;" xlink:href="textedit://C:/Users/har1sf0x/Documents/LilyPond%20-%20Frescobaldi/%ce%9a%ce%ac%cf%84%cf%89_%cf%83%cf%84%ce%bf_%ce%b3%ce%b9%ce%b1%ce%bb%cf%8c_%ce%b1.ly:20:69:70">
<g transform="translate(73.4049, 21.9190)">
<path transform="scale(0.0040, -0.0040)" d="M218 136c55 0 108 -28 108 -89c0 -71 -55 -121 -102 -149c-35 -21 -75 -34 -116 -34c-55 0 -108 28 -108 89c0 71 55 121 102 149c35 21 75 34 116 34z" fill="currentColor"/>
</g>
</a>
</g>
<g transform="translate(71.8007, 19.4190)">
<rect x="-0.0650" y="-2.8100" width="0.1300" height="5.1239" ry="0.0400" fill="currentColor"/>
</g>
<a style="color:inherit;" xlink:href="textedit://C:/Users/har1sf0x/Documents/LilyPond%20-%20Frescobaldi/%ce%9a%ce%ac%cf%84%cf%89_%cf%83%cf%84%ce%bf_%ce%b3%ce%b9%ce%b1%ce%bb%cf%8c_%ce%b1.ly:20:69:70">
<g transform="translate(73.4049, 19.9190)">
<path transform="scale(0.0040, -0.0040)" d="M218 136c55 0 108 -28 108 -89c0 -71 -55 -121 -102 -149c-35 -21 -75 -34 -116 -34c-55 0 -108 28 -108 89c0 71 55 121 102 149c35 21 75 34 116 34z" fill="currentColor"/>
</g>
</a>
<g color="rgb(50.0000%, 50.0000%, 50.0000%)">
<a style="color:inherit;" xlink:href="textedit://C:/Users/har1sf0x/Documents/LilyPond%20-%20Frescobaldi/%ce%9a%ce%ac%cf%84%cf%89_%cf%83%cf%84%ce%bf_%ce%b3%ce%b9%ce%b1%ce%bb%cf%8c_%ce%b1.ly:20:69:70">
<g transform="translate(74.6442, 19.9190)">
<path transform="scale(0.0040, -0.0040)" d="M218 136c55 0 108 -28 108 -89c0 -71 -55 -121 -102 -149c-35 -21 -75 -34 -116 -34c-55 0 -108 28 -108 89c0 71 55 121 102 149c35 21 75 34 116 34z" fill="currentColor"/>
</g>
</a>
</g>
<g transform="translate(74.6442, 19.4190)">
<rect x="-0.0650" y="-2.8100" width="0.1300" height="5.1239" ry="0.0400" fill="currentColor"/>
</g>
<g transform="translate(106.8461, 19.4190)">
<rect x="-0.0650" y="-3.0112" width="0.1300" height="3.3251" ry="0.0400" fill="currentColor"/>
</g>
<a style="color:inherit;" xlink:href="textedit://C:/Users/har1sf0x/Documents/LilyPond%20-%20Frescobaldi/%ce%9a%ce%ac%cf%84%cf%89_%cf%83%cf%84%ce%bf_%ce%b3%ce%b9%ce%b1%ce%bb%cf%8c_%ce%b1.ly:23:54:55">
<g transform="translate(107.4160, 19.4190)">
<path transform="scale(0.0040, -0.0040)" d="M218 136c55 0 108 -28 108 -89c0 -71 -55 -121 -102 -149c-35 -21 -75 -34 -116 -34c-55 0 -108 28 -108 89c0 71 55 121 102 149c35 21 75 34 116 34z" fill="currentColor"/>
</g>
</a>
<g transform="translate(107.4810, 19.4190)">
<rect x="-0.0650" y="0.1861" width="0.1300" height="2.8139" ry="0.0400" fill="currentColor"/>
</g>
<g transform="translate(105.0553, 19.4190)">
<rect x="-0.0650" y="-3.3208" width="0.1300" height="3.6347" ry="0.0400" fill="currentColor"/>
</g>
<a style="color:inherit;" xlink:href="textedit://C:/Users/har1sf0x/Documents/LilyPond%20-%20Frescobaldi/%ce%9a%ce%ac%cf%84%cf%89_%cf%83%cf%84%ce%bf_%ce%b3%ce%b9%ce%b1%ce%bb%cf%8c_%ce%b1.ly:23:26:27">
<g transform="translate(103.8160, 19.9190)">
<path transform="scale(0.0040, -0.0040)" d="M218 136c55 0 108 -28 108 -89c0 -71 -55 -121 -102 -149c-35 -21 -75 -34 -116 -34c-55 0 -108 28 -108 89c0 71 55 121 102 149c35 21 75 34 116 34z" fill="currentColor"/>
</g>
</a>
<a style="color:inherit;" xlink:href="textedit://C:/Users/har1sf0x/Documents/LilyPond%20-%20Frescobaldi/%ce%9a%ce%ac%cf%84%cf%89_%cf%83%cf%84%ce%bf_%ce%b3%ce%b9%ce%b1%ce%bb%cf%8c_%ce%b1.ly:23:71:72">
<g transform="translate(109.6935, 19.4190)">
<path transform="scale(0.0040, -0.0040)" d="M218 136c55 0 108 -28 108 -89c0 -71 -55 -121 -102 -149c-35 -21 -75 -34 -116 -34c-55 0 -108 28 -108 89c0 71 55 121 102 149c35 21 75 34 116 34z" fill="currentColor"/>
</g>
</a>
<a style="color:inherit;" xlink:href="textedit://C:/Users/har1sf0x/Documents/LilyPond%20-%20Frescobaldi/%ce%9a%ce%ac%cf%84%cf%89_%cf%83%cf%84%ce%bf_%ce%b3%ce%b9%ce%b1%ce%bb%cf%8c_%ce%b1.ly:23:42:43">
<g transform="translate(105.6069, 19.9190)">
<path transform="scale(0.0040, -0.0040)" d="M218 136c55 0 108 -28 108 -89c0 -71 -55 -121 -102 -149c-35 -21 -75 -34 -116 -34c-55 0 -108 28 -108 89c0 71 55 121 102 149c35 21 75 34 116 34z" fill="currentColor"/>
</g>
</a>
<g transform="translate(53.1967, 20.6090)">
<polygon stroke-linejoin="round" stroke-linecap="round" stroke-width="0.0800" fill="currentColor" stroke="currentColor" points="1.8809 -0.2000 1.8809 0.2000 0.0400 0.2000 0.0400 -0.2000"/>
</g>
<g transform="translate(50.9192, 21.4190)">
<polygon stroke-linejoin="round" stroke-linecap="round" stroke-width="0.0800" fill="currentColor" stroke="currentColor" points="4.1584 -0.2000 4.1584 0.2000 0.0400 0.2000 0.0400 -0.2000"/>
</g>
<g transform="translate(19.5428, 21.5929)">
<polygon stroke-linejoin="round" stroke-linecap="round" stroke-width="0.0800" fill="currentColor" stroke="currentColor" points="1.8809 -0.3739 1.8809 0.0261 0.0400 0.2000 0.0400 -0.2000"/>
</g>
<g transform="translate(17.2653, 22.6090)">
<polygon stroke-linejoin="round" stroke-linecap="round" stroke-width="0.0800" fill="currentColor" stroke="currentColor" points="4.1584 -0.5800 4.1584 -0.1800 0.0400 0.2000 0.0400 -0.2000"/>
</g>
<g transform="translate(23.1245, 21.4190)">
<polygon stroke-linejoin="round" stroke-linecap="round" stroke-width="0.0800" fill="currentColor" stroke="currentColor" points="2.3675 -0.3900 2.3675 0.0100 0.0400 0.2000 0.0400 -0.2000"/>
</g>
<g transform="translate(30.7036, 20.6090)">
<polygon stroke-linejoin="round" stroke-linecap="round" stroke-width="0.0800" fill="currentColor" stroke="currentColor" points="1.8809 -0.2000 1.8809 0.2000 0.0400 0.2000 0.0400 -0.2000"/>
</g>
<g transform="translate(28.4261, 21.4190)">
<polygon stroke-linejoin="round" stroke-linecap="round" stroke-width="0.0800" fill="currentColor" stroke="currentColor" points="4.1584 -0.2000 4.1584 0.2000 0.0400 0.2000 0.0400 -0.2000"/>
</g>
<g transform="translate(34.2853, 21.6090)">
<polygon stroke-linejoin="round" stroke-linecap="round" stroke-width="0.0800" fill="currentColor" stroke="currentColor" points="2.3675 0.4200 2.3675 0.8200 0.0400 0.2000 0.0400 -0.2000"/>
</g>
<g transform="translate(41.9287, 20.5221)">
<polygon stroke-linejoin="round" stroke-linecap="round" stroke-width="0.0800" fill="currentColor" stroke="currentColor" points="1.8809 -0.1131 1.8809 0.2869 0.0400 0.2000 0.0400 -0.2000"/>
</g>
<g transform="translate(39.6512, 21.2290)">
<polygon stroke-linejoin="round" stroke-linecap="round" stroke-width="0.0800" fill="currentColor" stroke="currentColor" points="4.1584 -0.0100 4.1584 0.3900 0.0400 0.2000 0.0400 -0.2000"/>
</g>
<g transform="translate(45.5104, 22.2290)">
<polygon stroke-linejoin="round" stroke-linecap="round" stroke-width="0.0800" fill="currentColor" stroke="currentColor" points="2.3675 -0.0100 2.3675 0.3900 0.0400 0.2000 0.0400 -0.2000"/>
</g>
<g transform="translate(56.5917, 22.4190)">
<polygon stroke-linejoin="round" stroke-linecap="round" stroke-width="0.0800" fill="currentColor" stroke="currentColor" points="2.3675 -0.2000 2.3675 0.2000 0.0400 0.2000 0.0400 -0.2000"/>
</g>
<g transform="translate(67.1664, 21.1354)">
<polygon stroke-linejoin="round" stroke-linecap="round" stroke-width="0.0800" fill="currentColor" stroke="currentColor" points="1.8809 0.0837 1.8809 0.4837 0.0400 0.2000 0.0400 -0.2000"/>
</g>
<g transform="translate(64.8889, 21.6090)">
<polygon stroke-linejoin="round" stroke-linecap="round" stroke-width="0.0800" fill="currentColor" stroke="currentColor" points="4.1584 0.4200 4.1584 0.8200 0.0400 0.2000 0.0400 -0.2000"/>
</g>
<g transform="translate(71.7357, 16.6090)">
<polygon stroke-linejoin="round" stroke-linecap="round" stroke-width="0.0800" fill="currentColor" stroke="currentColor" points="2.9334 -0.2000 2.9334 0.2000 0.0400 0.2000 0.0400 -0.2000"/>
</g>
<g transform="translate(78.2748, 15.6090)">
<polygon stroke-linejoin="round" stroke-linecap="round" stroke-width="0.0800" fill="currentColor" stroke="currentColor" points="4.6463 0.6100 4.6463 1.0100 0.0400 0.2000 0.0400 -0.2000"/>
</g>
<g transform="translate(81.0402, 16.8970)">
<polygon stroke-linejoin="round" stroke-linecap="round" stroke-width="0.0800" fill="currentColor" stroke="currentColor" points="1.8809 0.1320 1.8809 0.5320 0.0400 0.2000 0.0400 -0.2000"/>
</g>
<g transform="translate(83.4660, 22.4190)">
<polygon stroke-linejoin="round" stroke-linecap="round" stroke-width="0.0800" fill="currentColor" stroke="currentColor" points="2.3675 -0.3900 2.3675 0.0100 0.0400 0.2000 0.0400 -0.2000"/>
</g>
<g transform="translate(91.1165, 21.1354)">
<polygon stroke-linejoin="round" stroke-linecap="round" stroke-width="0.0800" fill="currentColor" stroke="currentColor" points="1.8809 0.0837 1.8809 0.4837 0.0400 0.2000 0.0400 -0.2000"/>
</g>
<g transform="translate(88.8390, 21.6090)">
<polygon stroke-linejoin="round" stroke-linecap="round" stroke-width="0.0800" fill="currentColor" stroke="currentColor" points="4.1584 0.4200 4.1584 0.8200 0.0400 0.2000 0.0400 -0.2000"/>
</g>
<g transform="translate(95.6858, 16.6090)">
<polygon stroke-linejoin="round" stroke-linecap="round" stroke-width="0.0800" fill="currentColor" stroke="currentColor" points="2.9334 -0.2000 2.9334 0.2000 0.0400 0.2000 0.0400 -0.2000"/>
</g>
<g transform="translate(102.2248, 15.6090)">
<polygon stroke-linejoin="round" stroke-linecap="round" stroke-width="0.0800" fill="currentColor" stroke="currentColor" points="4.6463 0.6100 4.6463 1.0100 0.0400 0.2000 0.0400 -0.2000"/>
</g>
<g transform="translate(104.9903, 16.8970)">
<polygon stroke-linejoin="round" stroke-linecap="round" stroke-width="0.0800" fill="currentColor" stroke="currentColor" points="1.8809 0.1320 1.8809 0.5320 0.0400 0.2000 0.0400 -0.2000"/>
</g>
<g transform="translate(109.7585, 19.4190)">
<rect x="-0.0650" y="0.1861" width="0.1300" height="2.8139" ry="0.0400" fill="currentColor"/>
</g>
<g transform="translate(92.9724, 19.4190)">
<rect x="-0.0650" y="0.1861" width="0.1300" height="2.6143" ry="0.0400" fill="currentColor"/>
</g>
<a style="color:inherit;" xlink:href="textedit://C:/Users/har1sf0x/Documents/LilyPond%20-%20Frescobaldi/%ce%9a%ce%ac%cf%84%cf%89_%cf%83%cf%84%ce%bf_%ce%b3%ce%b9%ce%b1%ce%bb%cf%8c_%ce%b1.ly:22:33:34">
<g transform="translate(92.9074, 19.4190)">
<path transform="scale(0.0040, -0.0040)" d="M218 136c55 0 108 -28 108 -89c0 -71 -55 -121 -102 -149c-35 -21 -75 -34 -116 -34c-55 0 -108 28 -108 89c0 71 55 121 102 149c35 21 75 34 116 34z" fill="currentColor"/>
</g>
</a>
<a style="color:inherit;" xlink:href="textedit://C:/Users/har1sf0x/Documents/LilyPond%20-%20Frescobaldi/%ce%9a%ce%ac%cf%84%cf%89_%cf%83%cf%84%ce%bf_%ce%b3%ce%b9%ce%b1%ce%bb%cf%8c_%ce%b1.ly:22:47:48">
<g transform="translate(94.5116, 19.9190)">
<path transform="scale(0.0040, -0.0040)" d="M218 136c55 0 108 -28 108 -89c0 -71 -55 -121 -102 -149c-35 -21 -75 -34 -116 -34c-55 0 -108 28 -108 89c0 71 55 121 102 149c35 21 75 34 116 34z" fill="currentColor"/>
</g>
</a>
<g color="rgb(50.0000%, 50.0000%, 50.0000%)">
<a style="color:inherit;" xlink:href="textedit://C:/Users/har1sf0x/Documents/LilyPond%20-%20Frescobaldi/%ce%9a%ce%ac%cf%84%cf%89_%cf%83%cf%84%ce%bf_%ce%b3%ce%b9%ce%b1%ce%bb%cf%8c_%ce%b1.ly:22:47:48">
<g transform="translate(94.5116, 21.9190)">
<path transform="scale(0.0040, -0.0040)" d="M218 136c55 0 108 -28 108 -89c0 -71 -55 -121 -102 -149c-35 -21 -75 -34 -116 -34c-55 0 -108 28 -108 89c0 71 55 121 102 149c35 21 75 34 116 34z" fill="currentColor"/>
</g>
</a>
</g>
<g color="rgb(50.0000%, 50.0000%, 50.0000%)">
<a style="color:inherit;" xlink:href="textedit://C:/Users/har1sf0x/Documents/LilyPond%20-%20Frescobaldi/%ce%9a%ce%ac%cf%84%cf%89_%cf%83%cf%84%ce%bf_%ce%b3%ce%b9%ce%b1%ce%bb%cf%8c_%ce%b1.ly:22:47:48">
<g transform="translate(95.7508, 19.9190)">
<path transform="scale(0.0040, -0.0040)" d="M218 136c55 0 108 -28 108 -89c0 -71 -55 -121 -102 -149c-35 -21 -75 -34 -116 -34c-55 0 -108 28 -108 89c0 71 55 121 102 149c35 21 75 34 116 34z" fill="currentColor"/>
</g>
</a>
</g>
<g transform="translate(95.7508, 19.4190)">
<rect x="-0.0650" y="-2.8100" width="0.1300" height="5.1239" ry="0.0400" fill="currentColor"/>
</g>
<a style="color:inherit;" xlink:href="textedit://C:/Users/har1sf0x/Documents/LilyPond%20-%20Frescobaldi/%ce%9a%ce%ac%cf%84%cf%89_%cf%83%cf%84%ce%bf_%ce%b3%ce%b9%ce%b1%ce%bb%cf%8c_%ce%b1.ly:22:17:18">
<g transform="translate(91.1165, 18.9190)">
<path transform="scale(0.0040, -0.0040)" d="M218 136c55 0 108 -28 108 -89c0 -71 -55 -121 -102 -149c-35 -21 -75 -34 -116 -34c-55 0 -108 28 -108 89c0 71 55 121 102 149c35 21 75 34 116 34z" fill="currentColor"/>
</g>
</a>
<g transform="translate(91.1815, 19.4190)">
<rect x="-0.0650" y="-0.3139" width="0.1300" height="2.8498" ry="0.0400" fill="currentColor"/>
</g>
<g color="rgb(50.0000%, 50.0000%, 50.0000%)">
<a style="color:inherit;" xlink:href="textedit://C:/Users/har1sf0x/Documents/LilyPond%20-%20Frescobaldi/%ce%9a%ce%ac%cf%84%cf%89_%cf%83%cf%84%ce%bf_%ce%b3%ce%b9%ce%b1%ce%bb%cf%8c_%ce%b1.ly:23:2:3">
<g transform="translate(102.2118, 20.4190)">
<path transform="scale(0.0040, -0.0040)" d="M218 136c55 0 108 -28 108 -89c0 -71 -55 -121 -102 -149c-35 -21 -75 -34 -116 -34c-55 0 -108 28 -108 89c0 71 55 121 102 149c35 21 75 34 116 34z" fill="currentColor"/>
</g>
</a>
</g>
<g transform="translate(102.2898, 19.4190)">
<rect x="-0.0650" y="-3.7988" width="0.1300" height="4.6127" ry="0.0400" fill="currentColor"/>
</g>
<g color="rgb(50.0000%, 50.0000%, 50.0000%)">
<a style="color:inherit;" xlink:href="textedit://C:/Users/har1sf0x/Documents/LilyPond%20-%20Frescobaldi/%ce%9a%ce%ac%cf%84%cf%89_%cf%83%cf%84%ce%bf_%ce%b3%ce%b9%ce%b1%ce%bb%cf%8c_%ce%b1.ly:23:2:3">
<g transform="translate(101.0506, 18.4190)">
<path transform="scale(0.0040, -0.0040)" d="M218 136c55 0 108 -28 108 -89c0 -71 -55 -121 -102 -149c-35 -21 -75 -34 -116 -34c-55 0 -108 28 -108 89c0 71 55 121 102 149c35 21 75 34 116 34z" fill="currentColor"/>
</g>
</a>
</g>
<g transform="translate(98.5942, 19.4190)">
<rect x="-0.0650" y="-2.8100" width="0.1300" height="5.1239" ry="0.0400" fill="currentColor"/>
</g>
<a style="color:inherit;" xlink:href="textedit://C:/Users/har1sf0x/Documents/LilyPond%20-%20Frescobaldi/%ce%9a%ce%ac%cf%84%cf%89_%cf%83%cf%84%ce%bf_%ce%b3%ce%b9%ce%b1%ce%bb%cf%8c_%ce%b1.ly:22:69:70">
<g transform="translate(97.3550, 19.9190)">
<path transform="scale(0.0040, -0.0040)" d="M218 136c55 0 108 -28 108 -89c0 -71 -55 -121 -102 -149c-35 -21 -75 -34 -116 -34c-55 0 -108 28 -108 89c0 71 55 121 102 149c35 21 75 34 116 34z" fill="currentColor"/>
</g>
</a>
<g color="rgb(50.0000%, 50.0000%, 50.0000%)">
<a style="color:inherit;" xlink:href="textedit://C:/Users/har1sf0x/Documents/LilyPond%20-%20Frescobaldi/%ce%9a%ce%ac%cf%84%cf%89_%cf%83%cf%84%ce%bf_%ce%b3%ce%b9%ce%b1%ce%bb%cf%8c_%ce%b1.ly:22:69:70">
<g transform="translate(97.3550, 21.9190)">
<path transform="scale(0.0040, -0.0040)" d="M218 136c55 0 108 -28 108 -89c0 -71 -55 -121 -102 -149c-35 -21 -75 -34 -116 -34c-55 0 -108 28 -108 89c0 71 55 121 102 149c35 21 75 34 116 34z" fill="currentColor"/>
</g>
</a>
</g>
<g color="rgb(50.0000%, 50.0000%, 50.0000%)">
<a style="color:inherit;" xlink:href="textedit://C:/Users/har1sf0x/Documents/LilyPond%20-%20Frescobaldi/%ce%9a%ce%ac%cf%84%cf%89_%cf%83%cf%84%ce%bf_%ce%b3%ce%b9%ce%b1%ce%bb%cf%8c_%ce%b1.ly:22:69:70">
<g transform="translate(98.5942, 19.9190)">
<path transform="scale(0.0040, -0.0040)" d="M218 136c55 0 108 -28 108 -89c0 -71 -55 -121 -102 -149c-35 -21 -75 -34 -116 -34c-55 0 -108 28 -108 89c0 71 55 121 102 149c35 21 75 34 116 34z" fill="currentColor"/>
</g>
</a>
</g>
<a style="color:inherit;" xlink:href="textedit://C:/Users/har1sf0x/Documents/LilyPond%20-%20Frescobaldi/%ce%9a%ce%ac%cf%84%cf%89_%cf%83%cf%84%ce%bf_%ce%b3%ce%b9%ce%b1%ce%bb%cf%8c_%ce%b1.ly:23:2:3">
<g transform="translate(101.0506, 20.4190)">
<path transform="scale(0.0040, -0.0040)" d="M218 136c55 0 108 -28 108 -89c0 -71 -55 -121 -102 -149c-35 -21 -75 -34 -116 -34c-55 0 -108 28 -108 89c0 71 55 121 102 149c35 21 75 34 116 34z" fill="currentColor"/>
</g>
</a>
<a style="color:inherit;" xlink:href="textedit://C:/Users/har1sf0x/Documents/LilyPond%20-%20Frescobaldi/%ce%9a%ce%ac%cf%84%cf%89_%cf%83%cf%84%ce%bf_%ce%b3%ce%b9%ce%b1%ce%bb%cf%8c_%ce%b1.ly:16:31:32">
<g transform="translate(32.4945, 18.4190)">
<path transform="scale(0.0040, -0.0040)" d="M218 136c55 0 108 -28 108 -89c0 -71 -55 -121 -102 -149c-35 -21 -75 -34 -116 -34c-55 0 -108 28 -108 89c0 71 55 121 102 149c35 21 75 34 116 34z" fill="currentColor"/>
</g>
</a>
<g transform="translate(30.7686, 19.4190)">
<rect x="-0.0650" y="-0.8139" width="0.1300" height="2.8139" ry="0.0400" fill="currentColor"/>
</g>
<g transform="translate(32.5595, 19.4190)">
<rect x="-0.0650" y="-0.8139" width="0.1300" height="2.8139" ry="0.0400" fill="currentColor"/>
</g>
<g transform="translate(28.4911, 19.4190)">
<rect x="-0.0650" y="-0.8139" width="0.1300" height="2.8139" ry="0.0400" fill="currentColor"/>
</g>
<a style="color:inherit;" xlink:href="textedit://C:/Users/har1sf0x/Documents/LilyPond%20-%20Frescobaldi/%ce%9a%ce%ac%cf%84%cf%89_%cf%83%cf%84%ce%bf_%ce%b3%ce%b9%ce%b1%ce%bb%cf%8c_%ce%b1.ly:16:15:16">
<g transform="translate(30.7036, 18.4190)">
<path transform="scale(0.0040, -0.0040)" d="M218 136c55 0 108 -28 108 -89c0 -71 -55 -121 -102 -149c-35 -21 -75 -34 -116 -34c-55 0 -108 28 -108 89c0 71 55 121 102 149c35 21 75 34 116 34z" fill="currentColor"/>
</g>
</a>
<g transform="translate(36.3628, 18.9190)">
<path transform="scale(0.0032, -0.0032)" d="M-98 0c0 -85 11 -172 60 -242c2 -3 3 -5 3 -8c0 -8 -7 -15 -15 -15c-4 0 -9 2 -12 7c-54 77 -90 165 -90 258s36 181 90 258c3 5 8 7 12 7c8 0 15 -7 15 -15c0 -3 -1 -5 -3 -8c-49 -70 -60 -157 -60 -242z" fill="currentColor"/>
</g>
<g transform="translate(38.0671, 18.9190)">
<path transform="scale(0.0032, -0.0032)" d="M98 0c0 85 -11 172 -60 242c-2 3 -3 5 -3 8c0 8 7 15 15 15c4 0 9 -2 12 -7c54 -77 90 -165 90 -258s-36 -181 -90 -258c-3 -5 -8 -7 -12 -7c-8 0 -15 7 -15 15c0 3 1 5 3 8c49 70 60 157 60 242z" fill="currentColor"/>
</g>
<a style="color:inherit;" xlink:href="textedit://C:/Users/har1sf0x/Documents/LilyPond%20-%20Frescobaldi/%ce%9a%ce%ac%cf%84%cf%89_%cf%83%cf%84%ce%bf_%ce%b3%ce%b9%ce%b1%ce%bb%cf%8c_%ce%b1.ly:17:2:3">
<g transform="translate(39.6512, 17.9190)">
<path transform="scale(0.0040, -0.0040)" d="M218 136c55 0 108 -28 108 -89c0 -71 -55 -121 -102 -149c-35 -21 -75 -34 -116 -34c-55 0 -108 28 -108 89c0 71 55 121 102 149c35 21 75 34 116 34z" fill="currentColor"/>
</g>
</a>
<g transform="translate(39.7162, 19.4190)">
<rect x="-0.0650" y="-1.3139" width="0.1300" height="3.1268" ry="0.0400" fill="currentColor"/>
</g>
<a style="color:inherit;" xlink:href="textedit://C:/Users/har1sf0x/Documents/LilyPond%20-%20Frescobaldi/%ce%9a%ce%ac%cf%84%cf%89_%cf%83%cf%84%ce%bf_%ce%b3%ce%b9%ce%b1%ce%bb%cf%8c_%ce%b1.ly:16:43:44">
<g transform="translate(34.2853, 18.4190)">
<path transform="scale(0.0040, -0.0040)" d="M218 136c55 0 108 -28 108 -89c0 -71 -55 -121 -102 -149c-35 -21 -75 -34 -116 -34c-55 0 -108 28 -108 89c0 71 55 121 102 149c35 21 75 34 116 34z" fill="currentColor"/>
</g>
</a>
<g transform="translate(34.3503, 19.4190)">
<rect x="-0.0650" y="-0.8139" width="0.1300" height="3.0206" ry="0.0400" fill="currentColor"/>
</g>
<a style="color:inherit;" xlink:href="textedit://C:/Users/har1sf0x/Documents/LilyPond%20-%20Frescobaldi/%ce%9a%ce%ac%cf%84%cf%89_%cf%83%cf%84%ce%bf_%ce%b3%ce%b9%ce%b1%ce%bb%cf%8c_%ce%b1.ly:16:105:106">
<g transform="translate(36.5628, 18.4190)">
<path transform="scale(0.0040, -0.0040)" d="M218 136c55 0 108 -28 108 -89c0 -71 -55 -121 -102 -149c-35 -21 -75 -34 -116 -34c-55 0 -108 28 -108 89c0 71 55 121 102 149c35 21 75 34 116 34z" fill="currentColor"/>
</g>
</a>
<a style="color:inherit;" xlink:href="textedit://C:/Users/har1sf0x/Documents/LilyPond%20-%20Frescobaldi/%ce%9a%ce%ac%cf%84%cf%89_%cf%83%cf%84%ce%bf_%ce%b3%ce%b9%ce%b1%ce%bb%cf%8c_%ce%b1.ly:16:117:118">
<g transform="translate(36.5628, 19.4190)">
<path transform="scale(0.0040, -0.0040)" d="M218 136c55 0 108 -28 108 -89c0 -71 -55 -121 -102 -149c-35 -21 -75 -34 -116 -34c-55 0 -108 28 -108 89c0 71 55 121 102 149c35 21 75 34 116 34z" fill="currentColor"/>
</g>
</a>
<g transform="translate(36.6278, 19.4190)">
<rect x="-0.0650" y="-0.8139" width="0.1300" height="3.6072" ry="0.0400" fill="currentColor"/>
</g>
<a style="color:inherit;" xlink:href="textedit://C:/Users/har1sf0x/Documents/LilyPond%20-%20Frescobaldi/%ce%9a%ce%ac%cf%84%cf%89_%cf%83%cf%84%ce%bf_%ce%b3%ce%b9%ce%b1%ce%bb%cf%8c_%ce%b1.ly:15:19:20">
<g transform="translate(19.5428, 18.9190)">
<path transform="scale(0.0040, -0.0040)" d="M218 136c55 0 108 -28 108 -89c0 -71 -55 -121 -102 -149c-35 -21 -75 -34 -116 -34c-55 0 -108 28 -108 89c0 71 55 121 102 149c35 21 75 34 116 34z" fill="currentColor"/>
</g>
</a>
<g transform="translate(19.6078, 19.4190)">
<rect x="-0.0650" y="-0.3139" width="0.1300" height="3.2919" ry="0.0400" fill="currentColor"/>
</g>
<g transform="translate(10.1106, 19.4190)">
<path transform="scale(0.0040, -0.0040)" d="M143 41c-1 33 -22 63 -53 63c-29 0 -43 -34 -43 -67c0 -59 48 -101 93 -139c3 22 4 44 4 66v11zM185 -138c0 -14 -10 -25 -23 -25c-21 0 -30 25 -45 38c-61 52 -147 89 -147 169c0 54 37 102 89 102c33 0 66 -13 91 -34l-7 345c8 5 18 8 27 8s19 -3 27 -8z" fill="currentColor"/>
</g>
<g transform="translate(11.4106, 17.4190)">
<path transform="scale(0.0040, -0.0040)" d="M0 119c0 8 5 15 13 18l46 17v158c0 10 8 19 18 19s19 -9 19 -19v-145l83 31v158c0 10 9 19 19 19s18 -9 18 -19v-145l32 12c2 1 5 1 7 1c11 0 20 -9 20 -20v-60c0 -8 -5 -16 -13 -19l-46 -16v-160l32 11c2 1 5 1 7 1c11 0 20 -9 20 -20v-60c0 -8 -5 -15 -13 -18l-46 -17
v-158c0 -10 -8 -19 -18 -19s-19 9 -19 19v145l-83 -31v-158c0 -10 -9 -19 -19 -19s-18 9 -18 19v145l-32 -12c-2 -1 -5 -1 -7 -1c-11 0 -20 9 -20 20v60c0 8 5 16 13 19l46 16v160l-32 -11c-2 -1 -5 -1 -7 -1c-11 0 -20 9 -20 20v60zM179 95l-83 -30v-160l83 30v160z" fill="currentColor"/>
</g>
<a style="color:inherit;" xlink:href="textedit://C:/Users/har1sf0x/Documents/LilyPond%20-%20Frescobaldi/%ce%9a%ce%ac%cf%84%cf%89_%cf%83%cf%84%ce%bf_%ce%b3%ce%b9%ce%b1%ce%bb%cf%8c_%ce%b1.ly:15:2:3">
<g transform="translate(17.2653, 19.4190)">
<path transform="scale(0.0040, -0.0040)" d="M218 136c55 0 108 -28 108 -89c0 -71 -55 -121 -102 -149c-35 -21 -75 -34 -116 -34c-55 0 -108 28 -108 89c0 71 55 121 102 149c35 21 75 34 116 34z" fill="currentColor"/>
</g>
</a>
<g transform="translate(6.4906, 20.4190)">
<path transform="scale(0.0040, -0.0040)" d="M266 -635h-6c-108 0 -195 88 -195 197c0 58 53 103 112 103c54 0 95 -47 95 -103c0 -52 -43 -95 -95 -95c-11 0 -21 2 -31 6c26 -39 68 -65 117 -65h4zM461 -203c68 24 113 95 113 164c0 90 -66 179 -173 190c24 -116 46 -231 60 -354zM74 28c0 -135 129 -247 264 -247
c28 0 55 2 82 6c-14 127 -37 245 -63 364c-79 -8 -124 -61 -124 -119c0 -44 25 -91 81 -123c5 -5 7 -10 7 -15c0 -11 -10 -22 -22 -22c-3 0 -6 1 -9 2c-80 43 -117 115 -117 185c0 88 58 174 160 197c-14 58 -29 117 -46 175c-107 -121 -213 -243 -213 -403zM335 -262
c-188 0 -333 172 -333 374c0 177 131 306 248 441c-19 62 -37 125 -45 190c-6 52 -7 104 -7 156c0 115 55 224 149 292c6 5 14 5 20 0c71 -84 133 -245 133 -358c0 -143 -86 -255 -180 -364c21 -68 39 -138 56 -207c4 0 9 1 13 1c155 0 256 -128 256 -261
c0 -76 -33 -154 -107 -210c-22 -17 -47 -28 -73 -36c3 -35 5 -70 5 -105c0 -19 -1 -39 -2 -58c-7 -119 -88 -225 -202 -228l1 43c93 2 153 92 159 191c1 18 2 37 2 55c0 31 -1 61 -4 92c-29 -5 -58 -8 -89 -8zM428 916c0 55 -4 79 -20 129c-99 -48 -162 -149 -162 -259
c0 -74 18 -133 36 -194c80 97 146 198 146 324z" fill="currentColor"/>
</g>
<a style="color:inherit;" xlink:href="textedit://C:/Users/har1sf0x/Documents/LilyPond%20-%20Frescobaldi/%ce%9a%ce%ac%cf%84%cf%89_%cf%83%cf%84%ce%bf_%ce%b3%ce%b9%ce%b1%ce%bb%cf%8c_%ce%b1.ly:13:2:3">
<g transform="translate(13.7289, 19.4190)">
<path transform="scale(0.0040, -0.0040)" d="M102 135c9 2 18 3 27 3c33 0 70 -11 105 -36c21 -15 46 -23 66 -23c21 0 39 9 44 29c2 6 6 9 11 9c6 0 12 -5 12 -12c0 -67 -90 -105 -138 -105c-36 0 -71 14 -96 44c-13 16 -31 22 -48 22c-30 0 -59 -20 -62 -55c-1 -7 -6 -11 -11 -11c-6 0 -12 4 -12 11
c0 174 232 166 232 344c0 59 -16 122 -67 122c-25 0 -49 -14 -49 -37c0 -27 35 -41 35 -68c0 -38 -31 -69 -69 -69s-69 31 -69 69c0 76 72 128 152 128c95 0 183 -57 183 -145c0 -151 -150 -159 -246 -220z" fill="currentColor"/>
</g>
<g transform="translate(13.6606, 21.4351)">
<path transform="scale(0.0040, -0.0040)" d="M196 117h117c0 -48 27 -94 72 -94c8 0 12 -5 12 -11s-4 -12 -12 -12c-44 0 -87 13 -131 13s-87 -13 -131 -13c-8 0 -12 6 -12 12s4 11 12 11c45 0 73 46 73 94zM204 307c22 14 44 29 60 50c11 15 19 33 27 50c2 4 5 6 9 6c6 0 13 -5 13 -14v-245h72c10 0 15 -7 15 -14
s-5 -15 -15 -15h-72v-8h-117v8h-167c-23 0 -31 14 -31 23c0 3 1 5 2 6c80 93 138 207 138 330c0 10 7 19 16 16c23 -7 47 -13 71 -13s48 6 71 13c14 4 23 -9 17 -16l-284 -330h167v131c0 8 1 17 8 22z" fill="currentColor"/>
</g>
</a>
<a style="color:inherit;" xlink:href="textedit://C:/Users/har1sf0x/Documents/LilyPond%20-%20Frescobaldi/%ce%9a%ce%ac%cf%84%cf%89_%cf%83%cf%84%ce%bf_%ce%b3%ce%b9%ce%b1%ce%bb%cf%8c_%ce%b1.ly:14:2:3">
<g transform="translate(5.6906, 15.3174)">
<text font-family="serif" font-size="2.6163" text-anchor="start" fill="currentColor">
<tspan>A</tspan>
</text>
</g>
</a>
<g transform="translate(17.3303, 19.4190)">
<rect x="-0.0650" y="0.1861" width="0.1300" height="2.9980" ry="0.0400" fill="currentColor"/>
</g>
<a style="color:inherit;" xlink:href="textedit://C:/Users/har1sf0x/Documents/LilyPond%20-%20Frescobaldi/%ce%9a%ce%ac%cf%84%cf%89_%cf%83%cf%84%ce%bf_%ce%b3%ce%b9%ce%b1%ce%bb%cf%8c_%ce%b1.ly:15:62:63">
<g transform="translate(25.4020, 17.9190)">
<path transform="scale(0.0040, -0.0040)" d="M218 136c55 0 108 -28 108 -89c0 -71 -55 -121 -102 -149c-35 -21 -75 -34 -116 -34c-55 0 -108 28 -108 89c0 71 55 121 102 149c35 21 75 34 116 34z" fill="currentColor"/>
</g>
</a>
<g transform="translate(25.4670, 19.4190)">
<rect x="-0.0650" y="-1.3139" width="0.1300" height="3.1290" ry="0.0400" fill="currentColor"/>
</g>
<a style="color:inherit;" xlink:href="textedit://C:/Users/har1sf0x/Documents/LilyPond%20-%20Frescobaldi/%ce%9a%ce%ac%cf%84%cf%89_%cf%83%cf%84%ce%bf_%ce%b3%ce%b9%ce%b1%ce%bb%cf%8c_%ce%b1.ly:16:2:3">
<g transform="translate(28.4261, 18.4190)">
<path transform="scale(0.0040, -0.0040)" d="M218 136c55 0 108 -28 108 -89c0 -71 -55 -121 -102 -149c-35 -21 -75 -34 -116 -34c-55 0 -108 28 -108 89c0 71 55 121 102 149c35 21 75 34 116 34z" fill="currentColor"/>
</g>
</a>
<a style="color:inherit;" xlink:href="textedit://C:/Users/har1sf0x/Documents/LilyPond%20-%20Frescobaldi/%ce%9a%ce%ac%cf%84%cf%89_%cf%83%cf%84%ce%bf_%ce%b3%ce%b9%ce%b1%ce%bb%cf%8c_%ce%b1.ly:15:35:36">
<g transform="translate(21.3337, 18.9190)">
<path transform="scale(0.0040, -0.0040)" d="M218 136c55 0 108 -28 108 -89c0 -71 -55 -121 -102 -149c-35 -21 -75 -34 -116 -34c-55 0 -108 28 -108 89c0 71 55 121 102 149c35 21 75 34 116 34z" fill="currentColor"/>
</g>
</a>
<g transform="translate(21.3987, 19.4190)">
<rect x="-0.0650" y="-0.3139" width="0.1300" height="3.1298" ry="0.0400" fill="currentColor"/>
</g>
<a style="color:inherit;" xlink:href="textedit://C:/Users/har1sf0x/Documents/LilyPond%20-%20Frescobaldi/%ce%9a%ce%ac%cf%84%cf%89_%cf%83%cf%84%ce%bf_%ce%b3%ce%b9%ce%b1%ce%bb%cf%8c_%ce%b1.ly:15:47:48">
<g transform="translate(23.1245, 18.4190)">
<path transform="scale(0.0040, -0.0040)" d="M218 136c55 0 108 -28 108 -89c0 -71 -55 -121 -102 -149c-35 -21 -75 -34 -116 -34c-55 0 -108 28 -108 89c0 71 55 121 102 149c35 21 75 34 116 34z" fill="currentColor"/>
</g>
</a>
<g transform="translate(23.1895, 19.4190)">
<rect x="-0.0650" y="-0.8139" width="0.1300" height="2.8088" ry="0.0400" fill="currentColor"/>
</g>
<a style="color:inherit;" xlink:href="textedit://C:/Users/har1sf0x/Documents/LilyPond%20-%20Frescobaldi/%ce%9a%ce%ac%cf%84%cf%89_%cf%83%cf%84%ce%bf_%ce%b3%ce%b9%ce%b1%ce%bb%cf%8c_%ce%b1.ly:18:17:18">
<g transform="translate(53.1967, 18.4190)">
<path transform="scale(0.0040, -0.0040)" d="M218 136c55 0 108 -28 108 -89c0 -71 -55 -121 -102 -149c-35 -21 -75 -34 -116 -34c-55 0 -108 28 -108 89c0 71 55 121 102 149c35 21 75 34 116 34z" fill="currentColor"/>
</g>
</a>
<g transform="translate(53.2617, 19.4190)">
<rect x="-0.0650" y="-0.8139" width="0.1300" height="2.8139" ry="0.0400" fill="currentColor"/>
</g>
<a style="color:inherit;" xlink:href="textedit://C:/Users/har1sf0x/Documents/LilyPond%20-%20Frescobaldi/%ce%9a%ce%ac%cf%84%cf%89_%cf%83%cf%84%ce%bf_%ce%b3%ce%b9%ce%b1%ce%bb%cf%8c_%ce%b1.ly:18:33:34">
<g transform="translate(54.9875, 18.4190)">
<path transform="scale(0.0040, -0.0040)" d="M218 136c55 0 108 -28 108 -89c0 -71 -55 -121 -102 -149c-35 -21 -75 -34 -116 -34c-55 0 -108 28 -108 89c0 71 55 121 102 149c35 21 75 34 116 34z" fill="currentColor"/>
</g>
</a>
<a style="color:inherit;" xlink:href="textedit://C:/Users/har1sf0x/Documents/LilyPond%20-%20Frescobaldi/%ce%9a%ce%ac%cf%84%cf%89_%cf%83%cf%84%ce%bf_%ce%b3%ce%b9%ce%b1%ce%bb%cf%8c_%ce%b1.ly:18:2:3">
<g transform="translate(50.9192, 18.4190)">
<path transform="scale(0.0040, -0.0040)" d="M218 136c55 0 108 -28 108 -89c0 -71 -55 -121 -102 -149c-35 -21 -75 -34 -116 -34c-55 0 -108 28 -108 89c0 71 55 121 102 149c35 21 75 34 116 34z" fill="currentColor"/>
</g>
</a>
<g transform="translate(50.9842, 19.4190)">
<rect x="-0.0650" y="-0.8139" width="0.1300" height="2.8139" ry="0.0400" fill="currentColor"/>
</g>
<g transform="translate(55.0525, 19.4190)">
<rect x="-0.0650" y="-0.8139" width="0.1300" height="2.8139" ry="0.0400" fill="currentColor"/>
</g>
<g transform="translate(58.9342, 19.4190)">
<rect x="-0.0650" y="0.1861" width="0.1300" height="2.8139" ry="0.0400" fill="currentColor"/>
</g>
<a style="color:inherit;" xlink:href="textedit://C:/Users/har1sf0x/Documents/LilyPond%20-%20Frescobaldi/%ce%9a%ce%ac%cf%84%cf%89_%cf%83%cf%84%ce%bf_%ce%b3%ce%b9%ce%b1%ce%bb%cf%8c_%ce%b1.ly:18:64:65">
<g transform="translate(58.8692, 19.4190)">
<path transform="scale(0.0040, -0.0040)" d="M218 136c55 0 108 -28 108 -89c0 -71 -55 -121 -102 -149c-35 -21 -75 -34 -116 -34c-55 0 -108 28 -108 89c0 71 55 121 102 149c35 21 75 34 116 34z" fill="currentColor"/>
</g>
</a>
<a style="color:inherit;" xlink:href="textedit://C:/Users/har1sf0x/Documents/LilyPond%20-%20Frescobaldi/%ce%9a%ce%ac%cf%84%cf%89_%cf%83%cf%84%ce%bf_%ce%b3%ce%b9%ce%b1%ce%bb%cf%8c_%ce%b1.ly:20:2:3">
<g transform="translate(64.8889, 18.4190)">
<path transform="scale(0.0040, -0.0040)" d="M218 136c55 0 108 -28 108 -89c0 -71 -55 -121 -102 -149c-35 -21 -75 -34 -116 -34c-55 0 -108 28 -108 89c0 71 55 121 102 149c35 21 75 34 116 34z" fill="currentColor"/>
</g>
</a>
<a style="color:inherit;" xlink:href="textedit://C:/Users/har1sf0x/Documents/LilyPond%20-%20Frescobaldi/%ce%9a%ce%ac%cf%84%cf%89_%cf%83%cf%84%ce%bf_%ce%b3%ce%b9%ce%b1%ce%bb%cf%8c_%ce%b1.ly:19:11:12">
<g transform="translate(62.6867, 16.5690)">
<text font-family="serif" font-size="2.6163" text-anchor="start" fill="currentColor">
<tspan>B</tspan>
</text>
</g>
</a>
<g transform="translate(64.9539, 19.4190)">
<rect x="-0.0650" y="-0.8139" width="0.1300" height="3.0135" ry="0.0400" fill="currentColor"/>
</g>
<a style="color:inherit;" xlink:href="textedit://C:/Users/har1sf0x/Documents/LilyPond%20-%20Frescobaldi/%ce%9a%ce%ac%cf%84%cf%89_%cf%83%cf%84%ce%bf_%ce%b3%ce%b9%ce%b1%ce%bb%cf%8c_%ce%b1.ly:18:47:48">
<g transform="translate(56.5917, 19.4190)">
<path transform="scale(0.0040, -0.0040)" d="M218 136c55 0 108 -28 108 -89c0 -71 -55 -121 -102 -149c-35 -21 -75 -34 -116 -34c-55 0 -108 28 -108 89c0 71 55 121 102 149c35 21 75 34 116 34z" fill="currentColor"/>
</g>
</a>
<g transform="translate(56.6567, 19.4190)">
<rect x="-0.0650" y="0.1861" width="0.1300" height="2.8139" ry="0.0400" fill="currentColor"/>
</g>
<g transform="translate(45.5754, 19.4190)">
<rect x="-0.0650" y="-0.3139" width="0.1300" height="3.1290" ry="0.0400" fill="currentColor"/>
</g>
<a style="color:inherit;" xlink:href="textedit://C:/Users/har1sf0x/Documents/LilyPond%20-%20Frescobaldi/%ce%9a%ce%ac%cf%84%cf%89_%cf%83%cf%84%ce%bf_%ce%b3%ce%b9%ce%b1%ce%bb%cf%8c_%ce%b1.ly:17:45:46">
<g transform="translate(45.5104, 18.9190)">
<path transform="scale(0.0040, -0.0040)" d="M218 136c55 0 108 -28 108 -89c0 -71 -55 -121 -102 -149c-35 -21 -75 -34 -116 -34c-55 0 -108 28 -108 89c0 71 55 121 102 149c35 21 75 34 116 34z" fill="currentColor"/>
</g>
</a>
<g transform="translate(43.7846, 19.4190)">
<rect x="-0.0650" y="-0.8139" width="0.1300" height="2.8110" ry="0.0400" fill="currentColor"/>
</g>
<a style="color:inherit;" xlink:href="textedit://C:/Users/har1sf0x/Documents/LilyPond%20-%20Frescobaldi/%ce%9a%ce%ac%cf%84%cf%89_%cf%83%cf%84%ce%bf_%ce%b3%ce%b9%ce%b1%ce%bb%cf%8c_%ce%b1.ly:17:33:34">
<g transform="translate(43.7196, 18.4190)">
<path transform="scale(0.0040, -0.0040)" d="M218 136c55 0 108 -28 108 -89c0 -71 -55 -121 -102 -149c-35 -21 -75 -34 -116 -34c-55 0 -108 28 -108 89c0 71 55 121 102 149c35 21 75 34 116 34z" fill="currentColor"/>
</g>
</a>
<g transform="translate(41.9937, 19.4190)">
<rect x="-0.0650" y="-0.8139" width="0.1300" height="2.7299" ry="0.0400" fill="currentColor"/>
</g>
<a style="color:inherit;" xlink:href="textedit://C:/Users/har1sf0x/Documents/LilyPond%20-%20Frescobaldi/%ce%9a%ce%ac%cf%84%cf%89_%cf%83%cf%84%ce%bf_%ce%b3%ce%b9%ce%b1%ce%bb%cf%8c_%ce%b1.ly:17:17:18">
<g transform="translate(41.9287, 18.4190)">
<path transform="scale(0.0040, -0.0040)" d="M218 136c55 0 108 -28 108 -89c0 -71 -55 -121 -102 -149c-35 -21 -75 -34 -116 -34c-55 0 -108 28 -108 89c0 71 55 121 102 149c35 21 75 34 116 34z" fill="currentColor"/>
</g>
</a>
<g transform="translate(47.8529, 19.4190)">
<rect x="-0.0650" y="0.1861" width="0.1300" height="2.8088" ry="0.0400" fill="currentColor"/>
</g>
<a style="color:inherit;" xlink:href="textedit://C:/Users/har1sf0x/Documents/LilyPond%20-%20Frescobaldi/%ce%9a%ce%ac%cf%84%cf%89_%cf%83%cf%84%ce%bf_%ce%b3%ce%b9%ce%b1%ce%bb%cf%8c_%ce%b1.ly:17:60:61">
<g transform="translate(47.7879, 19.4190)">
<path transform="scale(0.0040, -0.0040)" d="M218 136c55 0 108 -28 108 -89c0 -71 -55 -121 -102 -149c-35 -21 -75 -34 -116 -34c-55 0 -108 28 -108 89c0 71 55 121 102 149c35 21 75 34 116 34z" fill="currentColor"/>
</g>
</a>
<g transform="translate(54.0830, 23.8277)">
<text font-family="serif" font-size="2.2001" text-anchor="start" fill="currentColor">
<tspan>Χ. Κόχυλας</tspan>
</text>
</g>
<g transform="translate(30.6607, 27.3557)">
<a xlink:href="https://lilypond.org/">
<rect x="0.0000" y="-0.5280" width="58.1802" height="2.2001" fill="none" stroke="none" stroke-width="0.0"/>
</a>
</g>
<g transform="translate(30.6607, 27.3557)">
<text font-family="serif" font-size="2.2001" text-anchor="start" fill="currentColor">
<tspan>Music engraving by LilyPond 2.24.4—www.lilypond.org</tspan>
</text>
</g>
</svg>
