<svg xmlns="http://www.w3.org/2000/svg" xmlns:xlink="http://www.w3.org/1999/xlink" version="1.2" width="210.00mm" height="55.00mm" viewBox="0.0000 -0.0000 119.5016 31.2980">
<style type="text/css">
<![CDATA[
tspan { white-space: pre; }
]]>
</style>
<g transform="translate(43.1059, 6.6255)">
<text font-family="serif" font-weight="bold" font-size="3.4927" text-anchor="start" fill="currentColor">
<tspan>Κάτω στο γιαλό (α)</tspan>
</text>
</g>
<g transform="translate(51.5393, 10.1255)">
<text font-family="serif" font-weight="bold" font-size="2.4696" text-anchor="start" fill="currentColor">
<tspan>Αιγαίο (Χίος)</tspan>
</text>
</g>
<g transform="translate(5.6906, 19.8690)">
<line stroke-linejoin="round" stroke-linecap="round" stroke-width="0.1000" stroke="currentColor" x1="0.0500" y1="0" x2="108.0705" y2="0"/>
</g>
<g transform="translate(5.6906, 18.8690)">
<line stroke-linejoin="round" stroke-linecap="round" stroke-width="0.1000" stroke="currentColor" x1="0.0500" y1="0" x2="108.0705" y2="0"/>
</g>
<g transform="translate(5.6906, 17.8690)">
<line stroke-linejoin="round" stroke-linecap="round" stroke-width="0.1000" stroke="currentColor" x1="0.0500" y1="0" x2="108.0705" y2="0"/>
</g>
<g transform="translate(5.6906, 16.8690)">
<line stroke-linejoin="round" stroke-linecap="round" stroke-width="0.1000" stroke="currentColor" x1="0.0500" y1="0" x2="108.0705" y2="0"/>
</g>
<g transform="translate(5.6906, 15.8690)">
<line stroke-linejoin="round" stroke-linecap="round" stroke-width="0.1000" stroke="currentColor" x1="0.0500" y1="0" x2="108.0705" y2="0"/>
</g>
<g transform="translate(76.8718, 17.8690)">
<rect x="0.0000" y="-2.0000" width="0.1900" height="4.0000" ry="0.0000" fill="currentColor"/>
</g>
<g transform="translate(38.9273, 17.8690)">
<rect x="0.0000" y="-2.0000" width="0.1900" height="4.0000" ry="0.0000" fill="currentColor"/>
</g>
<g transform="translate(61.7116, 17.3690)">
<path transform="scale(0.0040, -0.0040)" d="M0 0c0 31 25 56 56 56s56 -25 56 -56s-25 -56 -56 -56s-56 25 -56 56z" fill="currentColor"/>
</g>
<g transform="translate(61.7116, 18.3690)">
<path transform="scale(0.0040, -0.0040)" d="M0 0c0 31 25 56 56 56s56 -25 56 -56s-25 -56 -56 -56s-56 25 -56 56z" fill="currentColor"/>
</g>
<g transform="translate(64.3416, 17.3690)">
<path transform="scale(0.0040, -0.0040)" d="M0 0c0 31 25 56 56 56s56 -25 56 -56s-25 -56 -56 -56s-56 25 -56 56z" fill="currentColor"/>
</g>
<g transform="translate(64.3416, 18.3690)">
<path transform="scale(0.0040, -0.0040)" d="M0 0c0 31 25 56 56 56s56 -25 56 -56s-25 -56 -56 -56s-56 25 -56 56z" fill="currentColor"/>
</g>
<g transform="translate(63.8516, 17.8690)">
<rect x="0.0000" y="-2.0000" width="0.1900" height="4.0000" ry="0.0000" fill="currentColor"/>
</g>
<g transform="translate(62.9516, 17.8690)">
<rect x="0.0000" y="-2.0000" width="0.6000" height="4.0000" ry="0.0000" fill="currentColor"/>
</g>
<g transform="translate(62.4616, 17.8690)">
<rect x="0.0000" y="-2.0000" width="0.1900" height="4.0000" ry="0.0000" fill="currentColor"/>
</g>
<g transform="translate(111.9710, 17.3690)">
<path transform="scale(0.0040, -0.0040)" d="M0 0c0 31 25 56 56 56s56 -25 56 -56s-25 -56 -56 -56s-56 25 -56 56z" fill="currentColor"/>
</g>
<g transform="translate(111.9710, 18.3690)">
<path transform="scale(0.0040, -0.0040)" d="M0 0c0 31 25 56 56 56s56 -25 56 -56s-25 -56 -56 -56s-56 25 -56 56z" fill="currentColor"/>
</g>
<g transform="translate(113.2110, 17.8690)">
<rect x="0.0000" y="-2.0000" width="0.6000" height="4.0000" ry="0.0000" fill="currentColor"/>
</g>
<g transform="translate(112.7210, 17.8690)">
<rect x="0.0000" y="-2.0000" width="0.1900" height="4.0000" ry="0.0000" fill="currentColor"/>
</g>
<g transform="translate(50.3710, 17.8690)">
<rect x="0.0000" y="-2.0000" width="0.1900" height="4.0000" ry="0.0000" fill="currentColor"/>
</g>
<g transform="translate(27.5835, 17.8690)">
<rect x="0.0000" y="-2.0000" width="0.1900" height="4.0000" ry="0.0000" fill="currentColor"/>
</g>
<g transform="translate(88.1378, 17.8690)">
<rect x="0.0000" y="-2.0000" width="0.1900" height="4.0000" ry="0.0000" fill="currentColor"/>
</g>
<g transform="translate(100.5398, 17.8690)">
<rect x="0.0000" y="-2.0000" width="0.1900" height="4.0000" ry="0.0000" fill="currentColor"/>
</g>
<g transform="translate(75.2676, 17.8690)">
<rect x="-0.0650" y="-2.8100" width="0.1300" height="5.1239" ry="0.0400" fill="currentColor"/>
</g>
<a style="color:inherit;" xlink:href="textedit://C:/Users/har1sf0x/Documents/LilyPond%20-%20Frescobaldi/%ce%9a%ce%ac%cf%84%cf%89_%cf%83%cf%84%ce%bf_%ce%b3%ce%b9%ce%b1%ce%bb%cf%8c_%ce%b1.ly:21:2:3">
<g transform="translate(77.7299, 18.8690)">
<path transform="scale(0.0040, -0.0040)" d="M218 136c55 0 108 -28 108 -89c0 -71 -55 -121 -102 -149c-35 -21 -75 -34 -116 -34c-55 0 -108 28 -108 89c0 71 55 121 102 149c35 21 75 34 116 34z" fill="currentColor"/>
</g>
</a>
<a style="color:inherit;" xlink:href="textedit://C:/Users/har1sf0x/Documents/LilyPond%20-%20Frescobaldi/%ce%9a%ce%ac%cf%84%cf%89_%cf%83%cf%84%ce%bf_%ce%b3%ce%b9%ce%b1%ce%bb%cf%8c_%ce%b1.ly:20:15:16">
<g transform="translate(71.1850, 18.3690)">
<path transform="scale(0.0040, -0.0040)" d="M218 136c55 0 108 -28 108 -89c0 -71 -55 -121 -102 -149c-35 -21 -75 -34 -116 -34c-55 0 -108 28 -108 89c0 71 55 121 102 149c35 21 75 34 116 34z" fill="currentColor"/>
</g>
</a>
<a style="color:inherit;" xlink:href="textedit://C:/Users/har1sf0x/Documents/LilyPond%20-%20Frescobaldi/%ce%9a%ce%ac%cf%84%cf%89_%cf%83%cf%84%ce%bf_%ce%b3%ce%b9%ce%b1%ce%bb%cf%8c_%ce%b1.ly:20:33:34">
<g transform="translate(74.0284, 20.3690)">
<path transform="scale(0.0040, -0.0040)" d="M218 136c55 0 108 -28 108 -89c0 -71 -55 -121 -102 -149c-35 -21 -75 -34 -116 -34c-55 0 -108 28 -108 89c0 71 55 121 102 149c35 21 75 34 116 34z" fill="currentColor"/>
</g>
</a>
<a style="color:inherit;" xlink:href="textedit://C:/Users/har1sf0x/Documents/LilyPond%20-%20Frescobaldi/%ce%9a%ce%ac%cf%84%cf%89_%cf%83%cf%84%ce%bf_%ce%b3%ce%b9%ce%b1%ce%bb%cf%8c_%ce%b1.ly:20:31:32">
<g transform="translate(75.2676, 18.3690)">
<path transform="scale(0.0040, -0.0040)" d="M218 136c55 0 108 -28 108 -89c0 -71 -55 -121 -102 -149c-35 -21 -75 -34 -116 -34c-55 0 -108 28 -108 89c0 71 55 121 102 149c35 21 75 34 116 34z" fill="currentColor"/>
</g>
</a>
<a style="color:inherit;" xlink:href="textedit://C:/Users/har1sf0x/Documents/LilyPond%20-%20Frescobaldi/%ce%9a%ce%ac%cf%84%cf%89_%cf%83%cf%84%ce%bf_%ce%b3%ce%b9%ce%b1%ce%bb%cf%8c_%ce%b1.ly:20:27:28">
<g transform="translate(74.0284, 18.3690)">
<path transform="scale(0.0040, -0.0040)" d="M218 136c55 0 108 -28 108 -89c0 -71 -55 -121 -102 -149c-35 -21 -75 -34 -116 -34c-55 0 -108 28 -108 89c0 71 55 121 102 149c35 21 75 34 116 34z" fill="currentColor"/>
</g>
</a>
<g transform="translate(72.4242, 17.8690)">
<rect x="-0.0650" y="-2.8100" width="0.1300" height="5.1239" ry="0.0400" fill="currentColor"/>
</g>
<a style="color:inherit;" xlink:href="textedit://C:/Users/har1sf0x/Documents/LilyPond%20-%20Frescobaldi/%ce%9a%ce%ac%cf%84%cf%89_%cf%83%cf%84%ce%bf_%ce%b3%ce%b9%ce%b1%ce%bb%cf%8c_%ce%b1.ly:20:20:21">
<g transform="translate(71.1850, 20.3690)">
<path transform="scale(0.0040, -0.0040)" d="M218 136c55 0 108 -28 108 -89c0 -71 -55 -121 -102 -149c-35 -21 -75 -34 -116 -34c-55 0 -108 28 -108 89c0 71 55 121 102 149c35 21 75 34 116 34z" fill="currentColor"/>
</g>
</a>
<a style="color:inherit;" xlink:href="textedit://C:/Users/har1sf0x/Documents/LilyPond%20-%20Frescobaldi/%ce%9a%ce%ac%cf%84%cf%89_%cf%83%cf%84%ce%bf_%ce%b3%ce%b9%ce%b1%ce%bb%cf%8c_%ce%b1.ly:20:18:19">
<g transform="translate(72.4242, 18.3690)">
<path transform="scale(0.0040, -0.0040)" d="M218 136c55 0 108 -28 108 -89c0 -71 -55 -121 -102 -149c-35 -21 -75 -34 -116 -34c-55 0 -108 28 -108 89c0 71 55 121 102 149c35 21 75 34 116 34z" fill="currentColor"/>
</g>
</a>
<g transform="translate(83.7427, 17.8690)">
<rect x="-0.0650" y="0.1861" width="0.1300" height="2.8088" ry="0.0400" fill="currentColor"/>
</g>
<a style="color:inherit;" xlink:href="textedit://C:/Users/har1sf0x/Documents/LilyPond%20-%20Frescobaldi/%ce%9a%ce%ac%cf%84%cf%89_%cf%83%cf%84%ce%bf_%ce%b3%ce%b9%ce%b1%ce%bb%cf%8c_%ce%b1.ly:21:11:12">
<g transform="translate(83.6777, 17.8690)">
<path transform="scale(0.0040, -0.0040)" d="M218 136c55 0 108 -28 108 -89c0 -71 -55 -121 -102 -149c-35 -21 -75 -34 -116 -34c-55 0 -108 28 -108 89c0 71 55 121 102 149c35 21 75 34 116 34z" fill="currentColor"/>
</g>
</a>
<g transform="translate(83.0902, 17.8690)">
<rect x="-0.0650" y="-2.9971" width="0.1300" height="3.3110" ry="0.0400" fill="currentColor"/>
</g>
<a style="color:inherit;" xlink:href="textedit://C:/Users/har1sf0x/Documents/LilyPond%20-%20Frescobaldi/%ce%9a%ce%ac%cf%84%cf%89_%cf%83%cf%84%ce%bf_%ce%b3%ce%b9%ce%b1%ce%bb%cf%8c_%ce%b1.ly:21:9:10">
<g transform="translate(81.8510, 18.3690)">
<path transform="scale(0.0040, -0.0040)" d="M218 136c55 0 108 -28 108 -89c0 -71 -55 -121 -102 -149c-35 -21 -75 -34 -116 -34c-55 0 -108 28 -108 89c0 71 55 121 102 149c35 21 75 34 116 34z" fill="currentColor"/>
</g>
</a>
<g transform="translate(78.9691, 17.8690)">
<rect x="-0.0650" y="-2.8129" width="0.1300" height="3.6268" ry="0.0400" fill="currentColor"/>
</g>
<g transform="translate(81.2818, 17.8690)">
<rect x="-0.0650" y="-2.9163" width="0.1300" height="3.2302" ry="0.0400" fill="currentColor"/>
</g>
<a style="color:inherit;" xlink:href="textedit://C:/Users/har1sf0x/Documents/LilyPond%20-%20Frescobaldi/%ce%9a%ce%ac%cf%84%cf%89_%cf%83%cf%84%ce%bf_%ce%b3%ce%b9%ce%b1%ce%bb%cf%8c_%ce%b1.ly:21:5:6">
<g transform="translate(80.0426, 18.3690)">
<path transform="scale(0.0040, -0.0040)" d="M218 136c55 0 108 -28 108 -89c0 -71 -55 -121 -102 -149c-35 -21 -75 -34 -116 -34c-55 0 -108 28 -108 89c0 71 55 121 102 149c35 21 75 34 116 34z" fill="currentColor"/>
</g>
</a>
<a style="color:inherit;" xlink:href="textedit://C:/Users/har1sf0x/Documents/LilyPond%20-%20Frescobaldi/%ce%9a%ce%ac%cf%84%cf%89_%cf%83%cf%84%ce%bf_%ce%b3%ce%b9%ce%b1%ce%bb%cf%8c_%ce%b1.ly:18:47:48">
<g transform="translate(57.0862, 17.8690)">
<path transform="scale(0.0040, -0.0040)" d="M218 136c55 0 108 -28 108 -89c0 -71 -55 -121 -102 -149c-35 -21 -75 -34 -116 -34c-55 0 -108 28 -108 89c0 71 55 121 102 149c35 21 75 34 116 34z" fill="currentColor"/>
</g>
</a>
<g transform="translate(59.4639, 17.8690)">
<rect x="-0.0650" y="0.1861" width="0.1300" height="2.8139" ry="0.0400" fill="currentColor"/>
</g>
<a style="color:inherit;" xlink:href="textedit://C:/Users/har1sf0x/Documents/LilyPond%20-%20Frescobaldi/%ce%9a%ce%ac%cf%84%cf%89_%cf%83%cf%84%ce%bf_%ce%b3%ce%b9%ce%b1%ce%bb%cf%8c_%ce%b1.ly:18:67:68">
<g transform="translate(59.6413, 14.8190)">
<path transform="scale(0.0022, -0.0022)" d="M194 486c15 0 25 15 41 15c13 0 24 -13 24 -31v-341c0 -47 35 -86 81 -86c14 0 21 -10 21 -21s-7 -22 -21 -22c-49 0 -97 14 -146 14s-96 -14 -145 -14c-14 0 -22 11 -22 22s8 21 22 21c46 0 80 39 80 86v137c0 23 -16 35 -30 35c-7 0 -13 -4 -17 -11l-34 -65
c-5 -10 -14 -15 -23 -15c-14 0 -28 12 -28 27c0 4 1 8 3 13l129 250c2 4 7 6 11 6c20 0 35 -20 54 -20z" fill="currentColor"/>
</g>
</a>
<a style="color:inherit;" xlink:href="textedit://C:/Users/har1sf0x/Documents/LilyPond%20-%20Frescobaldi/%ce%9a%ce%ac%cf%84%cf%89_%cf%83%cf%84%ce%bf_%ce%b3%ce%b9%ce%b1%ce%bb%cf%8c_%ce%b1.ly:18:64:65">
<g transform="translate(59.3989, 17.8690)">
<path transform="scale(0.0040, -0.0040)" d="M218 136c55 0 108 -28 108 -89c0 -71 -55 -121 -102 -149c-35 -21 -75 -34 -116 -34c-55 0 -108 28 -108 89c0 71 55 121 102 149c35 21 75 34 116 34z" fill="currentColor"/>
</g>
</a>
<g transform="translate(57.1512, 17.8690)">
<rect x="-0.0650" y="0.1861" width="0.1300" height="2.8139" ry="0.0400" fill="currentColor"/>
</g>
<a style="color:inherit;" xlink:href="textedit://C:/Users/har1sf0x/Documents/LilyPond%20-%20Frescobaldi/%ce%9a%ce%ac%cf%84%cf%89_%cf%83%cf%84%ce%bf_%ce%b3%ce%b9%ce%b1%ce%bb%cf%8c_%ce%b1.ly:18:51:52">
<g transform="translate(57.3286, 14.8190)">
<path transform="scale(0.0022, -0.0022)" d="M194 486c15 0 25 15 41 15c13 0 24 -13 24 -31v-341c0 -47 35 -86 81 -86c14 0 21 -10 21 -21s-7 -22 -21 -22c-49 0 -97 14 -146 14s-96 -14 -145 -14c-14 0 -22 11 -22 22s8 21 22 21c46 0 80 39 80 86v137c0 23 -16 35 -30 35c-7 0 -13 -4 -17 -11l-34 -65
c-5 -10 -14 -15 -23 -15c-14 0 -28 12 -28 27c0 4 1 8 3 13l129 250c2 4 7 6 11 6c20 0 35 -20 54 -20z" fill="currentColor"/>
</g>
</a>
<g transform="translate(55.5470, 17.8690)">
<rect x="-0.0650" y="-0.8139" width="0.1300" height="2.8139" ry="0.0400" fill="currentColor"/>
</g>
<a style="color:inherit;" xlink:href="textedit://C:/Users/har1sf0x/Documents/LilyPond%20-%20Frescobaldi/%ce%9a%ce%ac%cf%84%cf%89_%cf%83%cf%84%ce%bf_%ce%b3%ce%b9%ce%b1%ce%bb%cf%8c_%ce%b1.ly:18:34:35">
<g transform="translate(55.7415, 14.8190)">
<path transform="scale(0.0022, -0.0022)" d="M155 457c-34 0 -71 -8 -71 -38c0 -19 32 -23 32 -42c0 -28 -23 -51 -51 -51s-51 23 -51 51c0 72 66 123 141 123c93 0 174 -31 174 -113c0 -36 -10 -65 -42 -80c-17 -8 -26 -25 -26 -41s9 -32 26 -40c37 -17 59 -45 59 -85c0 -94 -83 -141 -186 -141
c-84 0 -160 54 -160 133c0 32 26 58 58 58s58 -26 58 -58c0 -22 -36 -26 -36 -48c0 -33 42 -42 80 -42c41 0 56 50 56 98v21c0 44 -2 77 -43 77h-65c-18 0 -27 14 -27 27s9 27 27 27h65c42 0 43 36 43 83v11c0 43 -20 70 -61 70z" fill="currentColor"/>
</g>
</a>
<a style="color:inherit;" xlink:href="textedit://C:/Users/har1sf0x/Documents/LilyPond%20-%20Frescobaldi/%ce%9a%ce%ac%cf%84%cf%89_%cf%83%cf%84%ce%bf_%ce%b3%ce%b9%ce%b1%ce%bb%cf%8c_%ce%b1.ly:18:33:34">
<g transform="translate(55.4820, 16.8690)">
<path transform="scale(0.0040, -0.0040)" d="M218 136c55 0 108 -28 108 -89c0 -71 -55 -121 -102 -149c-35 -21 -75 -34 -116 -34c-55 0 -108 28 -108 89c0 71 55 121 102 149c35 21 75 34 116 34z" fill="currentColor"/>
</g>
</a>
<g transform="translate(107.3457, 20.8690)">
<polygon stroke-linejoin="round" stroke-linecap="round" stroke-width="0.0800" fill="currentColor" stroke="currentColor" points="2.4027 -0.2000 2.4027 0.2000 0.0400 0.2000 0.0400 -0.2000"/>
</g>
<a style="color:inherit;" xlink:href="textedit://C:/Users/har1sf0x/Documents/LilyPond%20-%20Frescobaldi/%ce%9a%ce%ac%cf%84%cf%89_%cf%83%cf%84%ce%bf_%ce%b3%ce%b9%ce%b1%ce%bb%cf%8c_%ce%b1.ly:20:9:10">
<g transform="translate(69.5808, 17.8690)">
<path transform="scale(0.0040, -0.0040)" d="M218 136c55 0 108 -28 108 -89c0 -71 -55 -121 -102 -149c-35 -21 -75 -34 -116 -34c-55 0 -108 28 -108 89c0 71 55 121 102 149c35 21 75 34 116 34z" fill="currentColor"/>
</g>
</a>
<g transform="translate(67.8373, 17.8690)">
<rect x="-0.0650" y="-0.3139" width="0.1300" height="2.8507" ry="0.0400" fill="currentColor"/>
</g>
<a style="color:inherit;" xlink:href="textedit://C:/Users/har1sf0x/Documents/LilyPond%20-%20Frescobaldi/%ce%9a%ce%ac%cf%84%cf%89_%cf%83%cf%84%ce%bf_%ce%b3%ce%b9%ce%b1%ce%bb%cf%8c_%ce%b1.ly:20:5:6">
<g transform="translate(67.7723, 17.3690)">
<path transform="scale(0.0040, -0.0040)" d="M218 136c55 0 108 -28 108 -89c0 -71 -55 -121 -102 -149c-35 -21 -75 -34 -116 -34c-55 0 -108 28 -108 89c0 71 55 121 102 149c35 21 75 34 116 34z" fill="currentColor"/>
</g>
</a>
<g transform="translate(69.6458, 17.8690)">
<rect x="-0.0650" y="0.1861" width="0.1300" height="2.6144" ry="0.0400" fill="currentColor"/>
</g>
<g transform="translate(65.5246, 17.8690)">
<rect x="-0.0650" y="-0.8139" width="0.1300" height="3.0134" ry="0.0400" fill="currentColor"/>
</g>
<a style="color:inherit;" xlink:href="textedit://C:/Users/har1sf0x/Documents/LilyPond%20-%20Frescobaldi/%ce%9a%ce%ac%cf%84%cf%89_%cf%83%cf%84%ce%bf_%ce%b3%ce%b9%ce%b1%ce%bb%cf%8c_%ce%b1.ly:19:11:12">
<g transform="translate(63.2516, 15.0190)">
<text font-family="serif" font-size="2.6163" text-anchor="start" fill="currentColor">
<tspan>B</tspan>
</text>
</g>
</a>
<a style="color:inherit;" xlink:href="textedit://C:/Users/har1sf0x/Documents/LilyPond%20-%20Frescobaldi/%ce%9a%ce%ac%cf%84%cf%89_%cf%83%cf%84%ce%bf_%ce%b3%ce%b9%ce%b1%ce%bb%cf%8c_%ce%b1.ly:20:2:3">
<g transform="translate(65.4596, 16.8690)">
<path transform="scale(0.0040, -0.0040)" d="M218 136c55 0 108 -28 108 -89c0 -71 -55 -121 -102 -149c-35 -21 -75 -34 -116 -34c-55 0 -108 28 -108 89c0 71 55 121 102 149c35 21 75 34 116 34z" fill="currentColor"/>
</g>
</a>
<g transform="translate(109.7234, 17.8690)">
<rect x="-0.0650" y="0.1861" width="0.1300" height="2.8139" ry="0.0400" fill="currentColor"/>
</g>
<a style="color:inherit;" xlink:href="textedit://C:/Users/har1sf0x/Documents/LilyPond%20-%20Frescobaldi/%ce%9a%ce%ac%cf%84%cf%89_%cf%83%cf%84%ce%bf_%ce%b3%ce%b9%ce%b1%ce%bb%cf%8c_%ce%b1.ly:23:16:17">
<g transform="translate(109.6584, 17.8690)">
<path transform="scale(0.0040, -0.0040)" d="M218 136c55 0 108 -28 108 -89c0 -71 -55 -121 -102 -149c-35 -21 -75 -34 -116 -34c-55 0 -108 28 -108 89c0 71 55 121 102 149c35 21 75 34 116 34z" fill="currentColor"/>
</g>
</a>
<g transform="translate(107.4107, 17.8690)">
<rect x="-0.0650" y="0.1861" width="0.1300" height="2.8139" ry="0.0400" fill="currentColor"/>
</g>
<a style="color:inherit;" xlink:href="textedit://C:/Users/har1sf0x/Documents/LilyPond%20-%20Frescobaldi/%ce%9a%ce%ac%cf%84%cf%89_%cf%83%cf%84%ce%bf_%ce%b3%ce%b9%ce%b1%ce%bb%cf%8c_%ce%b1.ly:23:11:12">
<g transform="translate(107.3457, 17.8690)">
<path transform="scale(0.0040, -0.0040)" d="M218 136c55 0 108 -28 108 -89c0 -71 -55 -121 -102 -149c-35 -21 -75 -34 -116 -34c-55 0 -108 28 -108 89c0 71 55 121 102 149c35 21 75 34 116 34z" fill="currentColor"/>
</g>
</a>
<g transform="translate(106.7582, 17.8690)">
<rect x="-0.0650" y="-2.9971" width="0.1300" height="3.3110" ry="0.0400" fill="currentColor"/>
</g>
<a style="color:inherit;" xlink:href="textedit://C:/Users/har1sf0x/Documents/LilyPond%20-%20Frescobaldi/%ce%9a%ce%ac%cf%84%cf%89_%cf%83%cf%84%ce%bf_%ce%b3%ce%b9%ce%b1%ce%bb%cf%8c_%ce%b1.ly:23:9:10">
<g transform="translate(105.5190, 18.3690)">
<path transform="scale(0.0040, -0.0040)" d="M218 136c55 0 108 -28 108 -89c0 -71 -55 -121 -102 -149c-35 -21 -75 -34 -116 -34c-55 0 -108 28 -108 89c0 71 55 121 102 149c35 21 75 34 116 34z" fill="currentColor"/>
</g>
</a>
<g transform="translate(104.9498, 17.8690)">
<rect x="-0.0650" y="-2.9163" width="0.1300" height="3.2302" ry="0.0400" fill="currentColor"/>
</g>
<a style="color:inherit;" xlink:href="textedit://C:/Users/har1sf0x/Documents/LilyPond%20-%20Frescobaldi/%ce%9a%ce%ac%cf%84%cf%89_%cf%83%cf%84%ce%bf_%ce%b3%ce%b9%ce%b1%ce%bb%cf%8c_%ce%b1.ly:23:5:6">
<g transform="translate(103.7106, 18.3690)">
<path transform="scale(0.0040, -0.0040)" d="M218 136c55 0 108 -28 108 -89c0 -71 -55 -121 -102 -149c-35 -21 -75 -34 -116 -34c-55 0 -108 28 -108 89c0 71 55 121 102 149c35 21 75 34 116 34z" fill="currentColor"/>
</g>
</a>
<g transform="translate(19.5780, 20.0423)">
<polygon stroke-linejoin="round" stroke-linecap="round" stroke-width="0.0800" fill="currentColor" stroke="currentColor" points="1.8984 -0.3733 1.8984 0.0267 0.0400 0.2000 0.0400 -0.2000"/>
</g>
<g transform="translate(17.2653, 21.0590)">
<polygon stroke-linejoin="round" stroke-linecap="round" stroke-width="0.0800" fill="currentColor" stroke="currentColor" points="4.2111 -0.5800 4.2111 -0.1800 0.0400 0.2000 0.0400 -0.2000"/>
</g>
<g transform="translate(102.5721, 15.0590)">
<polygon stroke-linejoin="round" stroke-linecap="round" stroke-width="0.0800" fill="currentColor" stroke="currentColor" points="4.2111 -0.3900 4.2111 0.0100 0.0400 0.2000 0.0400 -0.2000"/>
</g>
<g transform="translate(104.8848, 15.7656)">
<polygon stroke-linejoin="round" stroke-linecap="round" stroke-width="0.0800" fill="currentColor" stroke="currentColor" points="1.8984 -0.2866 1.8984 0.1134 0.0400 0.2000 0.0400 -0.2000"/>
</g>
<g transform="translate(96.0272, 15.0590)">
<polygon stroke-linejoin="round" stroke-linecap="round" stroke-width="0.0800" fill="currentColor" stroke="currentColor" points="2.9334 -0.2000 2.9334 0.2000 0.0400 0.2000 0.0400 -0.2000"/>
</g>
<g transform="translate(91.4403, 19.5863)">
<polygon stroke-linejoin="round" stroke-linecap="round" stroke-width="0.0800" fill="currentColor" stroke="currentColor" points="1.8984 0.0827 1.8984 0.4827 0.0400 0.2000 0.0400 -0.2000"/>
</g>
<g transform="translate(89.1276, 20.0590)">
<polygon stroke-linejoin="round" stroke-linecap="round" stroke-width="0.0800" fill="currentColor" stroke="currentColor" points="4.2111 0.4200 4.2111 0.8200 0.0400 0.2000 0.0400 -0.2000"/>
</g>
<g transform="translate(83.6777, 20.8690)">
<polygon stroke-linejoin="round" stroke-linecap="round" stroke-width="0.0800" fill="currentColor" stroke="currentColor" points="2.4027 -0.3900 2.4027 0.0100 0.0400 0.2000 0.0400 -0.2000"/>
</g>
<g transform="translate(78.9041, 15.0590)">
<polygon stroke-linejoin="round" stroke-linecap="round" stroke-width="0.0800" fill="currentColor" stroke="currentColor" points="4.2111 -0.3900 4.2111 0.0100 0.0400 0.2000 0.0400 -0.2000"/>
</g>
<g transform="translate(81.2168, 15.7656)">
<polygon stroke-linejoin="round" stroke-linecap="round" stroke-width="0.0800" fill="currentColor" stroke="currentColor" points="1.8984 -0.2866 1.8984 0.1134 0.0400 0.2000 0.0400 -0.2000"/>
</g>
<g transform="translate(72.3592, 15.0590)">
<polygon stroke-linejoin="round" stroke-linecap="round" stroke-width="0.0800" fill="currentColor" stroke="currentColor" points="2.9334 -0.2000 2.9334 0.2000 0.0400 0.2000 0.0400 -0.2000"/>
</g>
<g transform="translate(67.7723, 19.5863)">
<polygon stroke-linejoin="round" stroke-linecap="round" stroke-width="0.0800" fill="currentColor" stroke="currentColor" points="1.8984 0.0827 1.8984 0.4827 0.0400 0.2000 0.0400 -0.2000"/>
</g>
<g transform="translate(65.4596, 20.0590)">
<polygon stroke-linejoin="round" stroke-linecap="round" stroke-width="0.0800" fill="currentColor" stroke="currentColor" points="4.2111 0.4200 4.2111 0.8200 0.0400 0.2000 0.0400 -0.2000"/>
</g>
<g transform="translate(57.0862, 20.8690)">
<polygon stroke-linejoin="round" stroke-linecap="round" stroke-width="0.0800" fill="currentColor" stroke="currentColor" points="2.4027 -0.2000 2.4027 0.2000 0.0400 0.2000 0.0400 -0.2000"/>
</g>
<g transform="translate(53.6736, 19.0590)">
<polygon stroke-linejoin="round" stroke-linecap="round" stroke-width="0.0800" fill="currentColor" stroke="currentColor" points="1.8984 -0.2000 1.8984 0.2000 0.0400 0.2000 0.0400 -0.2000"/>
</g>
<g transform="translate(51.3609, 19.8690)">
<polygon stroke-linejoin="round" stroke-linecap="round" stroke-width="0.0800" fill="currentColor" stroke="currentColor" points="4.2111 -0.2000 4.2111 0.2000 0.0400 0.2000 0.0400 -0.2000"/>
</g>
<g transform="translate(45.8753, 20.6790)">
<polygon stroke-linejoin="round" stroke-linecap="round" stroke-width="0.0800" fill="currentColor" stroke="currentColor" points="2.4027 -0.0100 2.4027 0.3900 0.0400 0.2000 0.0400 -0.2000"/>
</g>
<g transform="translate(42.2584, 18.9724)">
<polygon stroke-linejoin="round" stroke-linecap="round" stroke-width="0.0800" fill="currentColor" stroke="currentColor" points="1.8984 -0.1134 1.8984 0.2866 0.0400 0.2000 0.0400 -0.2000"/>
</g>
<g transform="translate(39.9457, 19.6790)">
<polygon stroke-linejoin="round" stroke-linecap="round" stroke-width="0.0800" fill="currentColor" stroke="currentColor" points="4.2111 -0.0100 4.2111 0.3900 0.0400 0.2000 0.0400 -0.2000"/>
</g>
<g transform="translate(34.5029, 20.0590)">
<polygon stroke-linejoin="round" stroke-linecap="round" stroke-width="0.0800" fill="currentColor" stroke="currentColor" points="2.4027 0.4200 2.4027 0.8200 0.0400 0.2000 0.0400 -0.2000"/>
</g>
<g transform="translate(30.8860, 19.0590)">
<polygon stroke-linejoin="round" stroke-linecap="round" stroke-width="0.0800" fill="currentColor" stroke="currentColor" points="1.8984 -0.2000 1.8984 0.2000 0.0400 0.2000 0.0400 -0.2000"/>
</g>
<g transform="translate(28.5734, 19.8690)">
<polygon stroke-linejoin="round" stroke-linecap="round" stroke-width="0.0800" fill="currentColor" stroke="currentColor" points="4.2111 -0.2000 4.2111 0.2000 0.0400 0.2000 0.0400 -0.2000"/>
</g>
<g transform="translate(23.1949, 19.8690)">
<polygon stroke-linejoin="round" stroke-linecap="round" stroke-width="0.0800" fill="currentColor" stroke="currentColor" points="2.4027 -0.3900 2.4027 0.0100 0.0400 0.2000 0.0400 -0.2000"/>
</g>
<g transform="translate(91.5053, 17.8690)">
<rect x="-0.0650" y="-0.3139" width="0.1300" height="2.8507" ry="0.0400" fill="currentColor"/>
</g>
<a style="color:inherit;" xlink:href="textedit://C:/Users/har1sf0x/Documents/LilyPond%20-%20Frescobaldi/%ce%9a%ce%ac%cf%84%cf%89_%cf%83%cf%84%ce%bf_%ce%b3%ce%b9%ce%b1%ce%bb%cf%8c_%ce%b1.ly:22:5:6">
<g transform="translate(91.4403, 17.3690)">
<path transform="scale(0.0040, -0.0040)" d="M218 136c55 0 108 -28 108 -89c0 -71 -55 -121 -102 -149c-35 -21 -75 -34 -116 -34c-55 0 -108 28 -108 89c0 71 55 121 102 149c35 21 75 34 116 34z" fill="currentColor"/>
</g>
</a>
<a style="color:inherit;" xlink:href="textedit://C:/Users/har1sf0x/Documents/LilyPond%20-%20Frescobaldi/%ce%9a%ce%ac%cf%84%cf%89_%cf%83%cf%84%ce%bf_%ce%b3%ce%b9%ce%b1%ce%bb%cf%8c_%ce%b1.ly:22:9:10">
<g transform="translate(93.2487, 17.8690)">
<path transform="scale(0.0040, -0.0040)" d="M218 136c55 0 108 -28 108 -89c0 -71 -55 -121 -102 -149c-35 -21 -75 -34 -116 -34c-55 0 -108 28 -108 89c0 71 55 121 102 149c35 21 75 34 116 34z" fill="currentColor"/>
</g>
</a>
<g transform="translate(89.1926, 17.8690)">
<rect x="-0.0650" y="-0.8139" width="0.1300" height="3.0134" ry="0.0400" fill="currentColor"/>
</g>
<a style="color:inherit;" xlink:href="textedit://C:/Users/har1sf0x/Documents/LilyPond%20-%20Frescobaldi/%ce%9a%ce%ac%cf%84%cf%89_%cf%83%cf%84%ce%bf_%ce%b3%ce%b9%ce%b1%ce%bb%cf%8c_%ce%b1.ly:22:2:3">
<g transform="translate(89.1276, 16.8690)">
<path transform="scale(0.0040, -0.0040)" d="M218 136c55 0 108 -28 108 -89c0 -71 -55 -121 -102 -149c-35 -21 -75 -34 -116 -34c-55 0 -108 28 -108 89c0 71 55 121 102 149c35 21 75 34 116 34z" fill="currentColor"/>
</g>
</a>
<g transform="translate(86.0554, 17.8690)">
<rect x="-0.0650" y="-0.3139" width="0.1300" height="3.1289" ry="0.0400" fill="currentColor"/>
</g>
<a style="color:inherit;" xlink:href="textedit://C:/Users/har1sf0x/Documents/LilyPond%20-%20Frescobaldi/%ce%9a%ce%ac%cf%84%cf%89_%cf%83%cf%84%ce%bf_%ce%b3%ce%b9%ce%b1%ce%bb%cf%8c_%ce%b1.ly:21:16:17">
<g transform="translate(85.9904, 17.3690)">
<path transform="scale(0.0040, -0.0040)" d="M218 136c55 0 108 -28 108 -89c0 -71 -55 -121 -102 -149c-35 -21 -75 -34 -116 -34c-55 0 -108 28 -108 89c0 71 55 121 102 149c35 21 75 34 116 34z" fill="currentColor"/>
</g>
</a>
<a style="color:inherit;" xlink:href="textedit://C:/Users/har1sf0x/Documents/LilyPond%20-%20Frescobaldi/%ce%9a%ce%ac%cf%84%cf%89_%cf%83%cf%84%ce%bf_%ce%b3%ce%b9%ce%b1%ce%bb%cf%8c_%ce%b1.ly:22:27:28">
<g transform="translate(97.6964, 18.3690)">
<path transform="scale(0.0040, -0.0040)" d="M218 136c55 0 108 -28 108 -89c0 -71 -55 -121 -102 -149c-35 -21 -75 -34 -116 -34c-55 0 -108 28 -108 89c0 71 55 121 102 149c35 21 75 34 116 34z" fill="currentColor"/>
</g>
</a>
<g transform="translate(102.6371, 17.8690)">
<rect x="-0.0650" y="-2.8129" width="0.1300" height="3.6268" ry="0.0400" fill="currentColor"/>
</g>
<a style="color:inherit;" xlink:href="textedit://C:/Users/har1sf0x/Documents/LilyPond%20-%20Frescobaldi/%ce%9a%ce%ac%cf%84%cf%89_%cf%83%cf%84%ce%bf_%ce%b3%ce%b9%ce%b1%ce%bb%cf%8c_%ce%b1.ly:23:2:3">
<g transform="translate(101.3979, 18.8690)">
<path transform="scale(0.0040, -0.0040)" d="M218 136c55 0 108 -28 108 -89c0 -71 -55 -121 -102 -149c-35 -21 -75 -34 -116 -34c-55 0 -108 28 -108 89c0 71 55 121 102 149c35 21 75 34 116 34z" fill="currentColor"/>
</g>
</a>
<g transform="translate(98.9356, 17.8690)">
<rect x="-0.0650" y="-2.8100" width="0.1300" height="5.1239" ry="0.0400" fill="currentColor"/>
</g>
<a style="color:inherit;" xlink:href="textedit://C:/Users/har1sf0x/Documents/LilyPond%20-%20Frescobaldi/%ce%9a%ce%ac%cf%84%cf%89_%cf%83%cf%84%ce%bf_%ce%b3%ce%b9%ce%b1%ce%bb%cf%8c_%ce%b1.ly:22:33:34">
<g transform="translate(97.6964, 20.3690)">
<path transform="scale(0.0040, -0.0040)" d="M218 136c55 0 108 -28 108 -89c0 -71 -55 -121 -102 -149c-35 -21 -75 -34 -116 -34c-55 0 -108 28 -108 89c0 71 55 121 102 149c35 21 75 34 116 34z" fill="currentColor"/>
</g>
</a>
<a style="color:inherit;" xlink:href="textedit://C:/Users/har1sf0x/Documents/LilyPond%20-%20Frescobaldi/%ce%9a%ce%ac%cf%84%cf%89_%cf%83%cf%84%ce%bf_%ce%b3%ce%b9%ce%b1%ce%bb%cf%8c_%ce%b1.ly:22:31:32">
<g transform="translate(98.9356, 18.3690)">
<path transform="scale(0.0040, -0.0040)" d="M218 136c55 0 108 -28 108 -89c0 -71 -55 -121 -102 -149c-35 -21 -75 -34 -116 -34c-55 0 -108 28 -108 89c0 71 55 121 102 149c35 21 75 34 116 34z" fill="currentColor"/>
</g>
</a>
<g transform="translate(96.0922, 17.8690)">
<rect x="-0.0650" y="-2.8100" width="0.1300" height="5.1239" ry="0.0400" fill="currentColor"/>
</g>
<a style="color:inherit;" xlink:href="textedit://C:/Users/har1sf0x/Documents/LilyPond%20-%20Frescobaldi/%ce%9a%ce%ac%cf%84%cf%89_%cf%83%cf%84%ce%bf_%ce%b3%ce%b9%ce%b1%ce%bb%cf%8c_%ce%b1.ly:22:20:21">
<g transform="translate(94.8530, 20.3690)">
<path transform="scale(0.0040, -0.0040)" d="M218 136c55 0 108 -28 108 -89c0 -71 -55 -121 -102 -149c-35 -21 -75 -34 -116 -34c-55 0 -108 28 -108 89c0 71 55 121 102 149c35 21 75 34 116 34z" fill="currentColor"/>
</g>
</a>
<a style="color:inherit;" xlink:href="textedit://C:/Users/har1sf0x/Documents/LilyPond%20-%20Frescobaldi/%ce%9a%ce%ac%cf%84%cf%89_%cf%83%cf%84%ce%bf_%ce%b3%ce%b9%ce%b1%ce%bb%cf%8c_%ce%b1.ly:22:18:19">
<g transform="translate(96.0922, 18.3690)">
<path transform="scale(0.0040, -0.0040)" d="M218 136c55 0 108 -28 108 -89c0 -71 -55 -121 -102 -149c-35 -21 -75 -34 -116 -34c-55 0 -108 28 -108 89c0 71 55 121 102 149c35 21 75 34 116 34z" fill="currentColor"/>
</g>
</a>
<a style="color:inherit;" xlink:href="textedit://C:/Users/har1sf0x/Documents/LilyPond%20-%20Frescobaldi/%ce%9a%ce%ac%cf%84%cf%89_%cf%83%cf%84%ce%bf_%ce%b3%ce%b9%ce%b1%ce%bb%cf%8c_%ce%b1.ly:22:15:16">
<g transform="translate(94.8530, 18.3690)">
<path transform="scale(0.0040, -0.0040)" d="M218 136c55 0 108 -28 108 -89c0 -71 -55 -121 -102 -149c-35 -21 -75 -34 -116 -34c-55 0 -108 28 -108 89c0 71 55 121 102 149c35 21 75 34 116 34z" fill="currentColor"/>
</g>
</a>
<g transform="translate(93.3137, 17.8690)">
<rect x="-0.0650" y="0.1861" width="0.1300" height="2.6144" ry="0.0400" fill="currentColor"/>
</g>
<a style="color:inherit;" xlink:href="textedit://C:/Users/har1sf0x/Documents/LilyPond%20-%20Frescobaldi/%ce%9a%ce%ac%cf%84%cf%89_%cf%83%cf%84%ce%bf_%ce%b3%ce%b9%ce%b1%ce%bb%cf%8c_%ce%b1.ly:16:18:19">
<g transform="translate(31.1284, 14.8190)">
<path transform="scale(0.0022, -0.0022)" d="M194 486c15 0 25 15 41 15c13 0 24 -13 24 -31v-341c0 -47 35 -86 81 -86c14 0 21 -10 21 -21s-7 -22 -21 -22c-49 0 -97 14 -146 14s-96 -14 -145 -14c-14 0 -22 11 -22 22s8 21 22 21c46 0 80 39 80 86v137c0 23 -16 35 -30 35c-7 0 -13 -4 -17 -11l-34 -65
c-5 -10 -14 -15 -23 -15c-14 0 -28 12 -28 27c0 4 1 8 3 13l129 250c2 4 7 6 11 6c20 0 35 -20 54 -20z" fill="currentColor"/>
</g>
</a>
<a style="color:inherit;" xlink:href="textedit://C:/Users/har1sf0x/Documents/LilyPond%20-%20Frescobaldi/%ce%9a%ce%ac%cf%84%cf%89_%cf%83%cf%84%ce%bf_%ce%b3%ce%b9%ce%b1%ce%bb%cf%8c_%ce%b1.ly:16:15:16">
<g transform="translate(30.8860, 16.8690)">
<path transform="scale(0.0040, -0.0040)" d="M218 136c55 0 108 -28 108 -89c0 -71 -55 -121 -102 -149c-35 -21 -75 -34 -116 -34c-55 0 -108 28 -108 89c0 71 55 121 102 149c35 21 75 34 116 34z" fill="currentColor"/>
</g>
</a>
<g transform="translate(30.9510, 17.8690)">
<rect x="-0.0650" y="-0.8139" width="0.1300" height="2.8139" ry="0.0400" fill="currentColor"/>
</g>
<g transform="translate(28.6384, 17.8690)">
<rect x="-0.0650" y="-0.8139" width="0.1300" height="2.8139" ry="0.0400" fill="currentColor"/>
</g>
<a style="color:inherit;" xlink:href="textedit://C:/Users/har1sf0x/Documents/LilyPond%20-%20Frescobaldi/%ce%9a%ce%ac%cf%84%cf%89_%cf%83%cf%84%ce%bf_%ce%b3%ce%b9%ce%b1%ce%bb%cf%8c_%ce%b1.ly:16:4:5">
<g transform="translate(28.8158, 14.8190)">
<path transform="scale(0.0022, -0.0022)" d="M194 486c15 0 25 15 41 15c13 0 24 -13 24 -31v-341c0 -47 35 -86 81 -86c14 0 21 -10 21 -21s-7 -22 -21 -22c-49 0 -97 14 -146 14s-96 -14 -145 -14c-14 0 -22 11 -22 22s8 21 22 21c46 0 80 39 80 86v137c0 23 -16 35 -30 35c-7 0 -13 -4 -17 -11l-34 -65
c-5 -10 -14 -15 -23 -15c-14 0 -28 12 -28 27c0 4 1 8 3 13l129 250c2 4 7 6 11 6c20 0 35 -20 54 -20z" fill="currentColor"/>
</g>
</a>
<a style="color:inherit;" xlink:href="textedit://C:/Users/har1sf0x/Documents/LilyPond%20-%20Frescobaldi/%ce%9a%ce%ac%cf%84%cf%89_%cf%83%cf%84%ce%bf_%ce%b3%ce%b9%ce%b1%ce%bb%cf%8c_%ce%b1.ly:16:2:3">
<g transform="translate(28.5734, 16.8690)">
<path transform="scale(0.0040, -0.0040)" d="M218 136c55 0 108 -28 108 -89c0 -71 -55 -121 -102 -149c-35 -21 -75 -34 -116 -34c-55 0 -108 28 -108 89c0 71 55 121 102 149c35 21 75 34 116 34z" fill="currentColor"/>
</g>
</a>
<a style="color:inherit;" xlink:href="textedit://C:/Users/har1sf0x/Documents/LilyPond%20-%20Frescobaldi/%ce%9a%ce%ac%cf%84%cf%89_%cf%83%cf%84%ce%bf_%ce%b3%ce%b9%ce%b1%ce%bb%cf%8c_%ce%b1.ly:16:117:118">
<g transform="translate(36.8156, 17.8690)">
<path transform="scale(0.0040, -0.0040)" d="M218 136c55 0 108 -28 108 -89c0 -71 -55 -121 -102 -149c-35 -21 -75 -34 -116 -34c-55 0 -108 28 -108 89c0 71 55 121 102 149c35 21 75 34 116 34z" fill="currentColor"/>
</g>
</a>
<a style="color:inherit;" xlink:href="textedit://C:/Users/har1sf0x/Documents/LilyPond%20-%20Frescobaldi/%ce%9a%ce%ac%cf%84%cf%89_%cf%83%cf%84%ce%bf_%ce%b3%ce%b9%ce%b1%ce%bb%cf%8c_%ce%b1.ly:16:105:106">
<g transform="translate(36.8156, 16.8690)">
<path transform="scale(0.0040, -0.0040)" d="M218 136c55 0 108 -28 108 -89c0 -71 -55 -121 -102 -149c-35 -21 -75 -34 -116 -34c-55 0 -108 28 -108 89c0 71 55 121 102 149c35 21 75 34 116 34z" fill="currentColor"/>
</g>
</a>
<g transform="translate(34.5679, 17.8690)">
<rect x="-0.0650" y="-0.8139" width="0.1300" height="3.0204" ry="0.0400" fill="currentColor"/>
</g>
<a style="color:inherit;" xlink:href="textedit://C:/Users/har1sf0x/Documents/LilyPond%20-%20Frescobaldi/%ce%9a%ce%ac%cf%84%cf%89_%cf%83%cf%84%ce%bf_%ce%b3%ce%b9%ce%b1%ce%bb%cf%8c_%ce%b1.ly:16:43:44">
<g transform="translate(34.5029, 16.8690)">
<path transform="scale(0.0040, -0.0040)" d="M218 136c55 0 108 -28 108 -89c0 -71 -55 -121 -102 -149c-35 -21 -75 -34 -116 -34c-55 0 -108 28 -108 89c0 71 55 121 102 149c35 21 75 34 116 34z" fill="currentColor"/>
</g>
</a>
<g transform="translate(25.5725, 17.8690)">
<rect x="-0.0650" y="-1.3139" width="0.1300" height="3.1289" ry="0.0400" fill="currentColor"/>
</g>
<g transform="translate(32.7595, 17.8690)">
<rect x="-0.0650" y="-0.8139" width="0.1300" height="2.8139" ry="0.0400" fill="currentColor"/>
</g>
<a style="color:inherit;" xlink:href="textedit://C:/Users/har1sf0x/Documents/LilyPond%20-%20Frescobaldi/%ce%9a%ce%ac%cf%84%cf%89_%cf%83%cf%84%ce%bf_%ce%b3%ce%b9%ce%b1%ce%bb%cf%8c_%ce%b1.ly:16:32:33">
<g transform="translate(32.9369, 14.8190)">
<path transform="scale(0.0022, -0.0022)" d="M194 486c15 0 25 15 41 15c13 0 24 -13 24 -31v-341c0 -47 35 -86 81 -86c14 0 21 -10 21 -21s-7 -22 -21 -22c-49 0 -97 14 -146 14s-96 -14 -145 -14c-14 0 -22 11 -22 22s8 21 22 21c46 0 80 39 80 86v137c0 23 -16 35 -30 35c-7 0 -13 -4 -17 -11l-34 -65
c-5 -10 -14 -15 -23 -15c-14 0 -28 12 -28 27c0 4 1 8 3 13l129 250c2 4 7 6 11 6c20 0 35 -20 54 -20z" fill="currentColor"/>
</g>
</a>
<a style="color:inherit;" xlink:href="textedit://C:/Users/har1sf0x/Documents/LilyPond%20-%20Frescobaldi/%ce%9a%ce%ac%cf%84%cf%89_%cf%83%cf%84%ce%bf_%ce%b3%ce%b9%ce%b1%ce%bb%cf%8c_%ce%b1.ly:16:31:32">
<g transform="translate(32.6945, 16.8690)">
<path transform="scale(0.0040, -0.0040)" d="M218 136c55 0 108 -28 108 -89c0 -71 -55 -121 -102 -149c-35 -21 -75 -34 -116 -34c-55 0 -108 28 -108 89c0 71 55 121 102 149c35 21 75 34 116 34z" fill="currentColor"/>
</g>
</a>
<g transform="translate(19.6430, 17.8690)">
<rect x="-0.0650" y="-0.3139" width="0.1300" height="3.2914" ry="0.0400" fill="currentColor"/>
</g>
<a style="color:inherit;" xlink:href="textedit://C:/Users/har1sf0x/Documents/LilyPond%20-%20Frescobaldi/%ce%9a%ce%ac%cf%84%cf%89_%cf%83%cf%84%ce%bf_%ce%b3%ce%b9%ce%b1%ce%bb%cf%8c_%ce%b1.ly:15:22:23">
<g transform="translate(19.8204, 14.8190)">
<path transform="scale(0.0022, -0.0022)" d="M194 486c15 0 25 15 41 15c13 0 24 -13 24 -31v-341c0 -47 35 -86 81 -86c14 0 21 -10 21 -21s-7 -22 -21 -22c-49 0 -97 14 -146 14s-96 -14 -145 -14c-14 0 -22 11 -22 22s8 21 22 21c46 0 80 39 80 86v137c0 23 -16 35 -30 35c-7 0 -13 -4 -17 -11l-34 -65
c-5 -10 -14 -15 -23 -15c-14 0 -28 12 -28 27c0 4 1 8 3 13l129 250c2 4 7 6 11 6c20 0 35 -20 54 -20z" fill="currentColor"/>
</g>
</a>
<a style="color:inherit;" xlink:href="textedit://C:/Users/har1sf0x/Documents/LilyPond%20-%20Frescobaldi/%ce%9a%ce%ac%cf%84%cf%89_%cf%83%cf%84%ce%bf_%ce%b3%ce%b9%ce%b1%ce%bb%cf%8c_%ce%b1.ly:15:19:20">
<g transform="translate(19.5780, 17.3690)">
<path transform="scale(0.0040, -0.0040)" d="M218 136c55 0 108 -28 108 -89c0 -71 -55 -121 -102 -149c-35 -21 -75 -34 -116 -34c-55 0 -108 28 -108 89c0 71 55 121 102 149c35 21 75 34 116 34z" fill="currentColor"/>
</g>
</a>
<g transform="translate(17.3303, 17.8690)">
<rect x="-0.0650" y="0.1861" width="0.1300" height="2.9981" ry="0.0400" fill="currentColor"/>
</g>
<a style="color:inherit;" xlink:href="textedit://C:/Users/har1sf0x/Documents/LilyPond%20-%20Frescobaldi/%ce%9a%ce%ac%cf%84%cf%89_%cf%83%cf%84%ce%bf_%ce%b3%ce%b9%ce%b1%ce%bb%cf%8c_%ce%b1.ly:14:2:3">
<g transform="translate(5.6906, 13.7674)">
<text font-family="serif" font-size="2.6163" text-anchor="start" fill="currentColor">
<tspan>A</tspan>
</text>
</g>
</a>
<a style="color:inherit;" xlink:href="textedit://C:/Users/har1sf0x/Documents/LilyPond%20-%20Frescobaldi/%ce%9a%ce%ac%cf%84%cf%89_%cf%83%cf%84%ce%bf_%ce%b3%ce%b9%ce%b1%ce%bb%cf%8c_%ce%b1.ly:13:2:3">
<g transform="translate(13.7289, 17.8690)">
<path transform="scale(0.0040, -0.0040)" d="M102 135c9 2 18 3 27 3c33 0 70 -11 105 -36c21 -15 46 -23 66 -23c21 0 39 9 44 29c2 6 6 9 11 9c6 0 12 -5 12 -12c0 -67 -90 -105 -138 -105c-36 0 -71 14 -96 44c-13 16 -31 22 -48 22c-30 0 -59 -20 -62 -55c-1 -7 -6 -11 -11 -11c-6 0 -12 4 -12 11
c0 174 232 166 232 344c0 59 -16 122 -67 122c-25 0 -49 -14 -49 -37c0 -27 35 -41 35 -68c0 -38 -31 -69 -69 -69s-69 31 -69 69c0 76 72 128 152 128c95 0 183 -57 183 -145c0 -151 -150 -159 -246 -220z" fill="currentColor"/>
</g>
<g transform="translate(13.6606, 19.8850)">
<path transform="scale(0.0040, -0.0040)" d="M196 117h117c0 -48 27 -94 72 -94c8 0 12 -5 12 -11s-4 -12 -12 -12c-44 0 -87 13 -131 13s-87 -13 -131 -13c-8 0 -12 6 -12 12s4 11 12 11c45 0 73 46 73 94zM204 307c22 14 44 29 60 50c11 15 19 33 27 50c2 4 5 6 9 6c6 0 13 -5 13 -14v-245h72c10 0 15 -7 15 -14
s-5 -15 -15 -15h-72v-8h-117v8h-167c-23 0 -31 14 -31 23c0 3 1 5 2 6c80 93 138 207 138 330c0 10 7 19 16 16c23 -7 47 -13 71 -13s48 6 71 13c14 4 23 -9 17 -16l-284 -330h167v131c0 8 1 17 8 22z" fill="currentColor"/>
</g>
</a>
<g transform="translate(10.1106, 17.8690)">
<path transform="scale(0.0040, -0.0040)" d="M143 41c-1 33 -22 63 -53 63c-29 0 -43 -34 -43 -67c0 -59 48 -101 93 -139c3 22 4 44 4 66v11zM185 -138c0 -14 -10 -25 -23 -25c-21 0 -30 25 -45 38c-61 52 -147 89 -147 169c0 54 37 102 89 102c33 0 66 -13 91 -34l-7 345c8 5 18 8 27 8s19 -3 27 -8z" fill="currentColor"/>
</g>
<g transform="translate(11.4106, 15.8690)">
<path transform="scale(0.0040, -0.0040)" d="M0 119c0 8 5 15 13 18l46 17v158c0 10 8 19 18 19s19 -9 19 -19v-145l83 31v158c0 10 9 19 19 19s18 -9 18 -19v-145l32 12c2 1 5 1 7 1c11 0 20 -9 20 -20v-60c0 -8 -5 -16 -13 -19l-46 -16v-160l32 11c2 1 5 1 7 1c11 0 20 -9 20 -20v-60c0 -8 -5 -15 -13 -18l-46 -17
v-158c0 -10 -8 -19 -18 -19s-19 9 -19 19v145l-83 -31v-158c0 -10 -9 -19 -19 -19s-18 9 -18 19v145l-32 -12c-2 -1 -5 -1 -7 -1c-11 0 -20 9 -20 20v60c0 8 5 16 13 19l46 16v160l-32 -11c-2 -1 -5 -1 -7 -1c-11 0 -20 9 -20 20v60zM179 95l-83 -30v-160l83 30v160z" fill="currentColor"/>
</g>
<g transform="translate(6.4906, 18.8690)">
<path transform="scale(0.0040, -0.0040)" d="M266 -635h-6c-108 0 -195 88 -195 197c0 58 53 103 112 103c54 0 95 -47 95 -103c0 -52 -43 -95 -95 -95c-11 0 -21 2 -31 6c26 -39 68 -65 117 -65h4zM461 -203c68 24 113 95 113 164c0 90 -66 179 -173 190c24 -116 46 -231 60 -354zM74 28c0 -135 129 -247 264 -247
c28 0 55 2 82 6c-14 127 -37 245 -63 364c-79 -8 -124 -61 -124 -119c0 -44 25 -91 81 -123c5 -5 7 -10 7 -15c0 -11 -10 -22 -22 -22c-3 0 -6 1 -9 2c-80 43 -117 115 -117 185c0 88 58 174 160 197c-14 58 -29 117 -46 175c-107 -121 -213 -243 -213 -403zM335 -262
c-188 0 -333 172 -333 374c0 177 131 306 248 441c-19 62 -37 125 -45 190c-6 52 -7 104 -7 156c0 115 55 224 149 292c6 5 14 5 20 0c71 -84 133 -245 133 -358c0 -143 -86 -255 -180 -364c21 -68 39 -138 56 -207c4 0 9 1 13 1c155 0 256 -128 256 -261
c0 -76 -33 -154 -107 -210c-22 -17 -47 -28 -73 -36c3 -35 5 -70 5 -105c0 -19 -1 -39 -2 -58c-7 -119 -88 -225 -202 -228l1 43c93 2 153 92 159 191c1 18 2 37 2 55c0 31 -1 61 -4 92c-29 -5 -58 -8 -89 -8zM428 916c0 55 -4 79 -20 129c-99 -48 -162 -149 -162 -259
c0 -74 18 -133 36 -194c80 97 146 198 146 324z" fill="currentColor"/>
</g>
<a style="color:inherit;" xlink:href="textedit://C:/Users/har1sf0x/Documents/LilyPond%20-%20Frescobaldi/%ce%9a%ce%ac%cf%84%cf%89_%cf%83%cf%84%ce%bf_%ce%b3%ce%b9%ce%b1%ce%bb%cf%8c_%ce%b1.ly:15:6:7">
<g transform="translate(17.5077, 14.8190)">
<path transform="scale(0.0022, -0.0022)" d="M194 486c15 0 25 15 41 15c13 0 24 -13 24 -31v-341c0 -47 35 -86 81 -86c14 0 21 -10 21 -21s-7 -22 -21 -22c-49 0 -97 14 -146 14s-96 -14 -145 -14c-14 0 -22 11 -22 22s8 21 22 21c46 0 80 39 80 86v137c0 23 -16 35 -30 35c-7 0 -13 -4 -17 -11l-34 -65
c-5 -10 -14 -15 -23 -15c-14 0 -28 12 -28 27c0 4 1 8 3 13l129 250c2 4 7 6 11 6c20 0 35 -20 54 -20z" fill="currentColor"/>
</g>
</a>
<a style="color:inherit;" xlink:href="textedit://C:/Users/har1sf0x/Documents/LilyPond%20-%20Frescobaldi/%ce%9a%ce%ac%cf%84%cf%89_%cf%83%cf%84%ce%bf_%ce%b3%ce%b9%ce%b1%ce%bb%cf%8c_%ce%b1.ly:15:2:3">
<g transform="translate(17.2653, 17.8690)">
<path transform="scale(0.0040, -0.0040)" d="M218 136c55 0 108 -28 108 -89c0 -71 -55 -121 -102 -149c-35 -21 -75 -34 -116 -34c-55 0 -108 28 -108 89c0 71 55 121 102 149c35 21 75 34 116 34z" fill="currentColor"/>
</g>
</a>
<a style="color:inherit;" xlink:href="textedit://C:/Users/har1sf0x/Documents/LilyPond%20-%20Frescobaldi/%ce%9a%ce%ac%cf%84%cf%89_%cf%83%cf%84%ce%bf_%ce%b3%ce%b9%ce%b1%ce%bb%cf%8c_%ce%b1.ly:15:63:64">
<g transform="translate(25.7670, 14.8190)">
<path transform="scale(0.0022, -0.0022)" d="M155 457c-34 0 -71 -8 -71 -38c0 -19 32 -23 32 -42c0 -28 -23 -51 -51 -51s-51 23 -51 51c0 72 66 123 141 123c93 0 174 -31 174 -113c0 -36 -10 -65 -42 -80c-17 -8 -26 -25 -26 -41s9 -32 26 -40c37 -17 59 -45 59 -85c0 -94 -83 -141 -186 -141
c-84 0 -160 54 -160 133c0 32 26 58 58 58s58 -26 58 -58c0 -22 -36 -26 -36 -48c0 -33 42 -42 80 -42c41 0 56 50 56 98v21c0 44 -2 77 -43 77h-65c-18 0 -27 14 -27 27s9 27 27 27h65c42 0 43 36 43 83v11c0 43 -20 70 -61 70z" fill="currentColor"/>
</g>
</a>
<a style="color:inherit;" xlink:href="textedit://C:/Users/har1sf0x/Documents/LilyPond%20-%20Frescobaldi/%ce%9a%ce%ac%cf%84%cf%89_%cf%83%cf%84%ce%bf_%ce%b3%ce%b9%ce%b1%ce%bb%cf%8c_%ce%b1.ly:15:62:63">
<g transform="translate(25.5075, 16.3690)">
<path transform="scale(0.0040, -0.0040)" d="M218 136c55 0 108 -28 108 -89c0 -71 -55 -121 -102 -149c-35 -21 -75 -34 -116 -34c-55 0 -108 28 -108 89c0 71 55 121 102 149c35 21 75 34 116 34z" fill="currentColor"/>
</g>
</a>
<g transform="translate(23.2599, 17.8690)">
<rect x="-0.0650" y="-0.8139" width="0.1300" height="2.8088" ry="0.0400" fill="currentColor"/>
</g>
<a style="color:inherit;" xlink:href="textedit://C:/Users/har1sf0x/Documents/LilyPond%20-%20Frescobaldi/%ce%9a%ce%ac%cf%84%cf%89_%cf%83%cf%84%ce%bf_%ce%b3%ce%b9%ce%b1%ce%bb%cf%8c_%ce%b1.ly:15:49:50">
<g transform="translate(23.4372, 14.8190)">
<path transform="scale(0.0022, -0.0022)" d="M194 486c15 0 25 15 41 15c13 0 24 -13 24 -31v-341c0 -47 35 -86 81 -86c14 0 21 -10 21 -21s-7 -22 -21 -22c-49 0 -97 14 -146 14s-96 -14 -145 -14c-14 0 -22 11 -22 22s8 21 22 21c46 0 80 39 80 86v137c0 23 -16 35 -30 35c-7 0 -13 -4 -17 -11l-34 -65
c-5 -10 -14 -15 -23 -15c-14 0 -28 12 -28 27c0 4 1 8 3 13l129 250c2 4 7 6 11 6c20 0 35 -20 54 -20z" fill="currentColor"/>
</g>
</a>
<a style="color:inherit;" xlink:href="textedit://C:/Users/har1sf0x/Documents/LilyPond%20-%20Frescobaldi/%ce%9a%ce%ac%cf%84%cf%89_%cf%83%cf%84%ce%bf_%ce%b3%ce%b9%ce%b1%ce%bb%cf%8c_%ce%b1.ly:15:47:48">
<g transform="translate(23.1949, 16.8690)">
<path transform="scale(0.0040, -0.0040)" d="M218 136c55 0 108 -28 108 -89c0 -71 -55 -121 -102 -149c-35 -21 -75 -34 -116 -34c-55 0 -108 28 -108 89c0 71 55 121 102 149c35 21 75 34 116 34z" fill="currentColor"/>
</g>
</a>
<a style="color:inherit;" xlink:href="textedit://C:/Users/har1sf0x/Documents/LilyPond%20-%20Frescobaldi/%ce%9a%ce%ac%cf%84%cf%89_%cf%83%cf%84%ce%bf_%ce%b3%ce%b9%ce%b1%ce%bb%cf%8c_%ce%b1.ly:16:45:46">
<g transform="translate(34.7453, 14.8190)">
<path transform="scale(0.0022, -0.0022)" d="M194 486c15 0 25 15 41 15c13 0 24 -13 24 -31v-341c0 -47 35 -86 81 -86c14 0 21 -10 21 -21s-7 -22 -21 -22c-49 0 -97 14 -146 14s-96 -14 -145 -14c-14 0 -22 11 -22 22s8 21 22 21c46 0 80 39 80 86v137c0 23 -16 35 -30 35c-7 0 -13 -4 -17 -11l-34 -65
c-5 -10 -14 -15 -23 -15c-14 0 -28 12 -28 27c0 4 1 8 3 13l129 250c2 4 7 6 11 6c20 0 35 -20 54 -20z" fill="currentColor"/>
</g>
</a>
<g transform="translate(21.4514, 17.8690)">
<rect x="-0.0650" y="-0.3139" width="0.1300" height="3.1297" ry="0.0400" fill="currentColor"/>
</g>
<a style="color:inherit;" xlink:href="textedit://C:/Users/har1sf0x/Documents/LilyPond%20-%20Frescobaldi/%ce%9a%ce%ac%cf%84%cf%89_%cf%83%cf%84%ce%bf_%ce%b3%ce%b9%ce%b1%ce%bb%cf%8c_%ce%b1.ly:15:36:37">
<g transform="translate(21.6288, 14.8190)">
<path transform="scale(0.0022, -0.0022)" d="M194 486c15 0 25 15 41 15c13 0 24 -13 24 -31v-341c0 -47 35 -86 81 -86c14 0 21 -10 21 -21s-7 -22 -21 -22c-49 0 -97 14 -146 14s-96 -14 -145 -14c-14 0 -22 11 -22 22s8 21 22 21c46 0 80 39 80 86v137c0 23 -16 35 -30 35c-7 0 -13 -4 -17 -11l-34 -65
c-5 -10 -14 -15 -23 -15c-14 0 -28 12 -28 27c0 4 1 8 3 13l129 250c2 4 7 6 11 6c20 0 35 -20 54 -20z" fill="currentColor"/>
</g>
</a>
<a style="color:inherit;" xlink:href="textedit://C:/Users/har1sf0x/Documents/LilyPond%20-%20Frescobaldi/%ce%9a%ce%ac%cf%84%cf%89_%cf%83%cf%84%ce%bf_%ce%b3%ce%b9%ce%b1%ce%bb%cf%8c_%ce%b1.ly:15:35:36">
<g transform="translate(21.3864, 17.3690)">
<path transform="scale(0.0040, -0.0040)" d="M218 136c55 0 108 -28 108 -89c0 -71 -55 -121 -102 -149c-35 -21 -75 -34 -116 -34c-55 0 -108 28 -108 89c0 71 55 121 102 149c35 21 75 34 116 34z" fill="currentColor"/>
</g>
</a>
<a style="color:inherit;" xlink:href="textedit://C:/Users/har1sf0x/Documents/LilyPond%20-%20Frescobaldi/%ce%9a%ce%ac%cf%84%cf%89_%cf%83%cf%84%ce%bf_%ce%b3%ce%b9%ce%b1%ce%bb%cf%8c_%ce%b1.ly:17:47:48">
<g transform="translate(46.1177, 14.8190)">
<path transform="scale(0.0022, -0.0022)" d="M194 486c15 0 25 15 41 15c13 0 24 -13 24 -31v-341c0 -47 35 -86 81 -86c14 0 21 -10 21 -21s-7 -22 -21 -22c-49 0 -97 14 -146 14s-96 -14 -145 -14c-14 0 -22 11 -22 22s8 21 22 21c46 0 80 39 80 86v137c0 23 -16 35 -30 35c-7 0 -13 -4 -17 -11l-34 -65
c-5 -10 -14 -15 -23 -15c-14 0 -28 12 -28 27c0 4 1 8 3 13l129 250c2 4 7 6 11 6c20 0 35 -20 54 -20z" fill="currentColor"/>
</g>
</a>
<g transform="translate(48.2529, 17.8690)">
<rect x="-0.0650" y="0.1861" width="0.1300" height="2.8088" ry="0.0400" fill="currentColor"/>
</g>
<a style="color:inherit;" xlink:href="textedit://C:/Users/har1sf0x/Documents/LilyPond%20-%20Frescobaldi/%ce%9a%ce%ac%cf%84%cf%89_%cf%83%cf%84%ce%bf_%ce%b3%ce%b9%ce%b1%ce%bb%cf%8c_%ce%b1.ly:17:63:64">
<g transform="translate(48.4303, 14.8190)">
<path transform="scale(0.0022, -0.0022)" d="M194 486c15 0 25 15 41 15c13 0 24 -13 24 -31v-341c0 -47 35 -86 81 -86c14 0 21 -10 21 -21s-7 -22 -21 -22c-49 0 -97 14 -146 14s-96 -14 -145 -14c-14 0 -22 11 -22 22s8 21 22 21c46 0 80 39 80 86v137c0 23 -16 35 -30 35c-7 0 -13 -4 -17 -11l-34 -65
c-5 -10 -14 -15 -23 -15c-14 0 -28 12 -28 27c0 4 1 8 3 13l129 250c2 4 7 6 11 6c20 0 35 -20 54 -20z" fill="currentColor"/>
</g>
</a>
<a style="color:inherit;" xlink:href="textedit://C:/Users/har1sf0x/Documents/LilyPond%20-%20Frescobaldi/%ce%9a%ce%ac%cf%84%cf%89_%cf%83%cf%84%ce%bf_%ce%b3%ce%b9%ce%b1%ce%bb%cf%8c_%ce%b1.ly:17:60:61">
<g transform="translate(48.1879, 17.8690)">
<path transform="scale(0.0040, -0.0040)" d="M218 136c55 0 108 -28 108 -89c0 -71 -55 -121 -102 -149c-35 -21 -75 -34 -116 -34c-55 0 -108 28 -108 89c0 71 55 121 102 149c35 21 75 34 116 34z" fill="currentColor"/>
</g>
</a>
<g transform="translate(45.9403, 17.8690)">
<rect x="-0.0650" y="-0.3139" width="0.1300" height="3.1289" ry="0.0400" fill="currentColor"/>
</g>
<a style="color:inherit;" xlink:href="textedit://C:/Users/har1sf0x/Documents/LilyPond%20-%20Frescobaldi/%ce%9a%ce%ac%cf%84%cf%89_%cf%83%cf%84%ce%bf_%ce%b3%ce%b9%ce%b1%ce%bb%cf%8c_%ce%b1.ly:17:45:46">
<g transform="translate(45.8753, 17.3690)">
<path transform="scale(0.0040, -0.0040)" d="M218 136c55 0 108 -28 108 -89c0 -71 -55 -121 -102 -149c-35 -21 -75 -34 -116 -34c-55 0 -108 28 -108 89c0 71 55 121 102 149c35 21 75 34 116 34z" fill="currentColor"/>
</g>
</a>
<g transform="translate(36.8806, 17.8690)">
<rect x="-0.0650" y="-0.8139" width="0.1300" height="3.6074" ry="0.0400" fill="currentColor"/>
</g>
<g transform="translate(44.1318, 17.8690)">
<rect x="-0.0650" y="-0.8139" width="0.1300" height="2.8110" ry="0.0400" fill="currentColor"/>
</g>
<a style="color:inherit;" xlink:href="textedit://C:/Users/har1sf0x/Documents/LilyPond%20-%20Frescobaldi/%ce%9a%ce%ac%cf%84%cf%89_%cf%83%cf%84%ce%bf_%ce%b3%ce%b9%ce%b1%ce%bb%cf%8c_%ce%b1.ly:17:34:35">
<g transform="translate(44.3092, 14.8190)">
<path transform="scale(0.0022, -0.0022)" d="M194 486c15 0 25 15 41 15c13 0 24 -13 24 -31v-341c0 -47 35 -86 81 -86c14 0 21 -10 21 -21s-7 -22 -21 -22c-49 0 -97 14 -146 14s-96 -14 -145 -14c-14 0 -22 11 -22 22s8 21 22 21c46 0 80 39 80 86v137c0 23 -16 35 -30 35c-7 0 -13 -4 -17 -11l-34 -65
c-5 -10 -14 -15 -23 -15c-14 0 -28 12 -28 27c0 4 1 8 3 13l129 250c2 4 7 6 11 6c20 0 35 -20 54 -20z" fill="currentColor"/>
</g>
</a>
<a style="color:inherit;" xlink:href="textedit://C:/Users/har1sf0x/Documents/LilyPond%20-%20Frescobaldi/%ce%9a%ce%ac%cf%84%cf%89_%cf%83%cf%84%ce%bf_%ce%b3%ce%b9%ce%b1%ce%bb%cf%8c_%ce%b1.ly:17:33:34">
<g transform="translate(44.0668, 16.8690)">
<path transform="scale(0.0040, -0.0040)" d="M218 136c55 0 108 -28 108 -89c0 -71 -55 -121 -102 -149c-35 -21 -75 -34 -116 -34c-55 0 -108 28 -108 89c0 71 55 121 102 149c35 21 75 34 116 34z" fill="currentColor"/>
</g>
</a>
<g transform="translate(53.7386, 17.8690)">
<rect x="-0.0650" y="-0.8139" width="0.1300" height="2.8139" ry="0.0400" fill="currentColor"/>
</g>
<a style="color:inherit;" xlink:href="textedit://C:/Users/har1sf0x/Documents/LilyPond%20-%20Frescobaldi/%ce%9a%ce%ac%cf%84%cf%89_%cf%83%cf%84%ce%bf_%ce%b3%ce%b9%ce%b1%ce%bb%cf%8c_%ce%b1.ly:18:20:21">
<g transform="translate(53.9330, 14.8190)">
<path transform="scale(0.0022, -0.0022)" d="M155 457c-34 0 -71 -8 -71 -38c0 -19 32 -23 32 -42c0 -28 -23 -51 -51 -51s-51 23 -51 51c0 72 66 123 141 123c93 0 174 -31 174 -113c0 -36 -10 -65 -42 -80c-17 -8 -26 -25 -26 -41s9 -32 26 -40c37 -17 59 -45 59 -85c0 -94 -83 -141 -186 -141
c-84 0 -160 54 -160 133c0 32 26 58 58 58s58 -26 58 -58c0 -22 -36 -26 -36 -48c0 -33 42 -42 80 -42c41 0 56 50 56 98v21c0 44 -2 77 -43 77h-65c-18 0 -27 14 -27 27s9 27 27 27h65c42 0 43 36 43 83v11c0 43 -20 70 -61 70z" fill="currentColor"/>
</g>
</a>
<a style="color:inherit;" xlink:href="textedit://C:/Users/har1sf0x/Documents/LilyPond%20-%20Frescobaldi/%ce%9a%ce%ac%cf%84%cf%89_%cf%83%cf%84%ce%bf_%ce%b3%ce%b9%ce%b1%ce%bb%cf%8c_%ce%b1.ly:18:17:18">
<g transform="translate(53.6736, 16.8690)">
<path transform="scale(0.0040, -0.0040)" d="M218 136c55 0 108 -28 108 -89c0 -71 -55 -121 -102 -149c-35 -21 -75 -34 -116 -34c-55 0 -108 28 -108 89c0 71 55 121 102 149c35 21 75 34 116 34z" fill="currentColor"/>
</g>
</a>
<g transform="translate(51.4259, 17.8690)">
<rect x="-0.0650" y="-0.8139" width="0.1300" height="2.8139" ry="0.0400" fill="currentColor"/>
</g>
<a style="color:inherit;" xlink:href="textedit://C:/Users/har1sf0x/Documents/LilyPond%20-%20Frescobaldi/%ce%9a%ce%ac%cf%84%cf%89_%cf%83%cf%84%ce%bf_%ce%b3%ce%b9%ce%b1%ce%bb%cf%8c_%ce%b1.ly:18:4:5">
<g transform="translate(51.6204, 14.8190)">
<path transform="scale(0.0022, -0.0022)" d="M155 457c-34 0 -71 -8 -71 -38c0 -19 32 -23 32 -42c0 -28 -23 -51 -51 -51s-51 23 -51 51c0 72 66 123 141 123c93 0 174 -31 174 -113c0 -36 -10 -65 -42 -80c-17 -8 -26 -25 -26 -41s9 -32 26 -40c37 -17 59 -45 59 -85c0 -94 -83 -141 -186 -141
c-84 0 -160 54 -160 133c0 32 26 58 58 58s58 -26 58 -58c0 -22 -36 -26 -36 -48c0 -33 42 -42 80 -42c41 0 56 50 56 98v21c0 44 -2 77 -43 77h-65c-18 0 -27 14 -27 27s9 27 27 27h65c42 0 43 36 43 83v11c0 43 -20 70 -61 70z" fill="currentColor"/>
</g>
</a>
<a style="color:inherit;" xlink:href="textedit://C:/Users/har1sf0x/Documents/LilyPond%20-%20Frescobaldi/%ce%9a%ce%ac%cf%84%cf%89_%cf%83%cf%84%ce%bf_%ce%b3%ce%b9%ce%b1%ce%bb%cf%8c_%ce%b1.ly:18:2:3">
<g transform="translate(51.3609, 16.8690)">
<path transform="scale(0.0040, -0.0040)" d="M218 136c55 0 108 -28 108 -89c0 -71 -55 -121 -102 -149c-35 -21 -75 -34 -116 -34c-55 0 -108 28 -108 89c0 71 55 121 102 149c35 21 75 34 116 34z" fill="currentColor"/>
</g>
</a>
<g transform="translate(40.0107, 17.8690)">
<rect x="-0.0650" y="-1.3139" width="0.1300" height="3.1268" ry="0.0400" fill="currentColor"/>
</g>
<a style="color:inherit;" xlink:href="textedit://C:/Users/har1sf0x/Documents/LilyPond%20-%20Frescobaldi/%ce%9a%ce%ac%cf%84%cf%89_%cf%83%cf%84%ce%bf_%ce%b3%ce%b9%ce%b1%ce%bb%cf%8c_%ce%b1.ly:17:4:5">
<g transform="translate(40.2052, 14.8190)">
<path transform="scale(0.0022, -0.0022)" d="M155 457c-34 0 -71 -8 -71 -38c0 -19 32 -23 32 -42c0 -28 -23 -51 -51 -51s-51 23 -51 51c0 72 66 123 141 123c93 0 174 -31 174 -113c0 -36 -10 -65 -42 -80c-17 -8 -26 -25 -26 -41s9 -32 26 -40c37 -17 59 -45 59 -85c0 -94 -83 -141 -186 -141
c-84 0 -160 54 -160 133c0 32 26 58 58 58s58 -26 58 -58c0 -22 -36 -26 -36 -48c0 -33 42 -42 80 -42c41 0 56 50 56 98v21c0 44 -2 77 -43 77h-65c-18 0 -27 14 -27 27s9 27 27 27h65c42 0 43 36 43 83v11c0 43 -20 70 -61 70z" fill="currentColor"/>
</g>
</a>
<a style="color:inherit;" xlink:href="textedit://C:/Users/har1sf0x/Documents/LilyPond%20-%20Frescobaldi/%ce%9a%ce%ac%cf%84%cf%89_%cf%83%cf%84%ce%bf_%ce%b3%ce%b9%ce%b1%ce%bb%cf%8c_%ce%b1.ly:17:2:3">
<g transform="translate(39.9457, 16.3690)">
<path transform="scale(0.0040, -0.0040)" d="M218 136c55 0 108 -28 108 -89c0 -71 -55 -121 -102 -149c-35 -21 -75 -34 -116 -34c-55 0 -108 28 -108 89c0 71 55 121 102 149c35 21 75 34 116 34z" fill="currentColor"/>
</g>
</a>
<g transform="translate(36.6156, 17.3690)">
<path transform="scale(0.0032, -0.0032)" d="M-98 0c0 -85 11 -172 60 -242c2 -3 3 -5 3 -8c0 -8 -7 -15 -15 -15c-4 0 -9 2 -12 7c-54 77 -90 165 -90 258s36 181 90 258c3 5 8 7 12 7c8 0 15 -7 15 -15c0 -3 -1 -5 -3 -8c-49 -70 -60 -157 -60 -242z" fill="currentColor"/>
</g>
<g transform="translate(38.3198, 17.3690)">
<path transform="scale(0.0032, -0.0032)" d="M98 0c0 85 -11 172 -60 242c-2 3 -3 5 -3 8c0 8 7 15 15 15c4 0 9 -2 12 -7c54 -77 90 -165 90 -258s-36 -181 -90 -258c-3 -5 -8 -7 -12 -7c-8 0 -15 7 -15 15c0 3 1 5 3 8c49 70 60 157 60 242z" fill="currentColor"/>
</g>
<a style="color:inherit;" xlink:href="textedit://C:/Users/har1sf0x/Documents/LilyPond%20-%20Frescobaldi/%ce%9a%ce%ac%cf%84%cf%89_%cf%83%cf%84%ce%bf_%ce%b3%ce%b9%ce%b1%ce%bb%cf%8c_%ce%b1.ly:16:106:107">
<g transform="translate(37.0580, 14.8190)">
<path transform="scale(0.0022, -0.0022)" d="M194 486c15 0 25 15 41 15c13 0 24 -13 24 -31v-341c0 -47 35 -86 81 -86c14 0 21 -10 21 -21s-7 -22 -21 -22c-49 0 -97 14 -146 14s-96 -14 -145 -14c-14 0 -22 11 -22 22s8 21 22 21c46 0 80 39 80 86v137c0 23 -16 35 -30 35c-7 0 -13 -4 -17 -11l-34 -65
c-5 -10 -14 -15 -23 -15c-14 0 -28 12 -28 27c0 4 1 8 3 13l129 250c2 4 7 6 11 6c20 0 35 -20 54 -20z" fill="currentColor"/>
</g>
</a>
<a style="color:inherit;" xlink:href="textedit://C:/Users/har1sf0x/Documents/LilyPond%20-%20Frescobaldi/%ce%9a%ce%ac%cf%84%cf%89_%cf%83%cf%84%ce%bf_%ce%b3%ce%b9%ce%b1%ce%bb%cf%8c_%ce%b1.ly:17:20:21">
<g transform="translate(42.5008, 14.8190)">
<path transform="scale(0.0022, -0.0022)" d="M194 486c15 0 25 15 41 15c13 0 24 -13 24 -31v-341c0 -47 35 -86 81 -86c14 0 21 -10 21 -21s-7 -22 -21 -22c-49 0 -97 14 -146 14s-96 -14 -145 -14c-14 0 -22 11 -22 22s8 21 22 21c46 0 80 39 80 86v137c0 23 -16 35 -30 35c-7 0 -13 -4 -17 -11l-34 -65
c-5 -10 -14 -15 -23 -15c-14 0 -28 12 -28 27c0 4 1 8 3 13l129 250c2 4 7 6 11 6c20 0 35 -20 54 -20z" fill="currentColor"/>
</g>
</a>
<a style="color:inherit;" xlink:href="textedit://C:/Users/har1sf0x/Documents/LilyPond%20-%20Frescobaldi/%ce%9a%ce%ac%cf%84%cf%89_%cf%83%cf%84%ce%bf_%ce%b3%ce%b9%ce%b1%ce%bb%cf%8c_%ce%b1.ly:17:17:18">
<g transform="translate(42.2584, 16.8690)">
<path transform="scale(0.0040, -0.0040)" d="M218 136c55 0 108 -28 108 -89c0 -71 -55 -121 -102 -149c-35 -21 -75 -34 -116 -34c-55 0 -108 28 -108 89c0 71 55 121 102 149c35 21 75 34 116 34z" fill="currentColor"/>
</g>
</a>
<g transform="translate(42.3234, 17.8690)">
<rect x="-0.0650" y="-0.8139" width="0.1300" height="2.7302" ry="0.0400" fill="currentColor"/>
</g>
<g transform="translate(54.0830, 23.8277)">
<text font-family="serif" font-size="2.2001" text-anchor="start" fill="currentColor">
<tspan>Χ. Κόχυλας</tspan>
</text>
</g>
<g transform="translate(30.6607, 27.3557)">
<a xlink:href="https://lilypond.org/">
<rect x="0.0000" y="-0.5280" width="58.1802" height="2.2001" fill="none" stroke="none" stroke-width="0.0"/>
</a>
</g>
<g transform="translate(30.6607, 27.3557)">
<text font-family="serif" font-size="2.2001" text-anchor="start" fill="currentColor">
<tspan>Music engraving by LilyPond 2.24.4—www.lilypond.org</tspan>
</text>
</g>
</svg>
