<svg xmlns="http://www.w3.org/2000/svg" xmlns:xlink="http://www.w3.org/1999/xlink" version="1.2" width="210.00mm" height="55.00mm" viewBox="0.0000 -0.0000 119.5016 31.2980">
<style type="text/css">
<![CDATA[
tspan { white-space: pre; }
]]>
</style>
<g transform="translate(43.1059, 6.6255)">
<text font-family="serif" font-weight="bold" font-size="3.4927" text-anchor="start" fill="currentColor">
<tspan>Κάτω στο γιαλό (α)</tspan>
</text>
</g>
<g transform="translate(51.5393, 10.1255)">
<text font-family="serif" font-weight="bold" font-size="2.4696" text-anchor="start" fill="currentColor">
<tspan>Αιγαίο (Χίος)</tspan>
</text>
</g>
<g transform="translate(5.6906, 19.4533)">
<line stroke-linejoin="round" stroke-linecap="round" stroke-width="0.1000" stroke="currentColor" x1="0.0500" y1="0" x2="108.0705" y2="0"/>
</g>
<g transform="translate(5.6906, 18.4533)">
<line stroke-linejoin="round" stroke-linecap="round" stroke-width="0.1000" stroke="currentColor" x1="0.0500" y1="0" x2="108.0705" y2="0"/>
</g>
<g transform="translate(5.6906, 17.4533)">
<line stroke-linejoin="round" stroke-linecap="round" stroke-width="0.1000" stroke="currentColor" x1="0.0500" y1="0" x2="108.0705" y2="0"/>
</g>
<g transform="translate(5.6906, 16.4533)">
<line stroke-linejoin="round" stroke-linecap="round" stroke-width="0.1000" stroke="currentColor" x1="0.0500" y1="0" x2="108.0705" y2="0"/>
</g>
<g transform="translate(5.6906, 15.4533)">
<line stroke-linejoin="round" stroke-linecap="round" stroke-width="0.1000" stroke="currentColor" x1="0.0500" y1="0" x2="108.0705" y2="0"/>
</g>
<g transform="translate(76.8261, 17.4533)">
<rect x="0.0000" y="-2.0000" width="0.1900" height="4.0000" ry="0.0000" fill="currentColor"/>
</g>
<g transform="translate(38.9634, 17.4533)">
<rect x="0.0000" y="-2.0000" width="0.1900" height="4.0000" ry="0.0000" fill="currentColor"/>
</g>
<g transform="translate(61.5425, 16.9533)">
<path transform="scale(0.0040, -0.0040)" d="M0 0c0 31 25 56 56 56s56 -25 56 -56s-25 -56 -56 -56s-56 25 -56 56z" fill="currentColor"/>
</g>
<g transform="translate(61.5425, 17.9533)">
<path transform="scale(0.0040, -0.0040)" d="M0 0c0 31 25 56 56 56s56 -25 56 -56s-25 -56 -56 -56s-56 25 -56 56z" fill="currentColor"/>
</g>
<g transform="translate(64.1725, 16.9533)">
<path transform="scale(0.0040, -0.0040)" d="M0 0c0 31 25 56 56 56s56 -25 56 -56s-25 -56 -56 -56s-56 25 -56 56z" fill="currentColor"/>
</g>
<g transform="translate(64.1725, 17.9533)">
<path transform="scale(0.0040, -0.0040)" d="M0 0c0 31 25 56 56 56s56 -25 56 -56s-25 -56 -56 -56s-56 25 -56 56z" fill="currentColor"/>
</g>
<g transform="translate(63.6825, 17.4533)">
<rect x="0.0000" y="-2.0000" width="0.1900" height="4.0000" ry="0.0000" fill="currentColor"/>
</g>
<g transform="translate(62.7825, 17.4533)">
<rect x="0.0000" y="-2.0000" width="0.6000" height="4.0000" ry="0.0000" fill="currentColor"/>
</g>
<g transform="translate(62.2925, 17.4533)">
<rect x="0.0000" y="-2.0000" width="0.1900" height="4.0000" ry="0.0000" fill="currentColor"/>
</g>
<g transform="translate(111.9710, 16.9533)">
<path transform="scale(0.0040, -0.0040)" d="M0 0c0 31 25 56 56 56s56 -25 56 -56s-25 -56 -56 -56s-56 25 -56 56z" fill="currentColor"/>
</g>
<g transform="translate(111.9710, 17.9533)">
<path transform="scale(0.0040, -0.0040)" d="M0 0c0 31 25 56 56 56s56 -25 56 -56s-25 -56 -56 -56s-56 25 -56 56z" fill="currentColor"/>
</g>
<g transform="translate(113.2110, 17.4533)">
<rect x="0.0000" y="-2.0000" width="0.6000" height="4.0000" ry="0.0000" fill="currentColor"/>
</g>
<g transform="translate(112.7210, 17.4533)">
<rect x="0.0000" y="-2.0000" width="0.1900" height="4.0000" ry="0.0000" fill="currentColor"/>
</g>
<g transform="translate(50.4708, 17.4533)">
<rect x="0.0000" y="-2.0000" width="0.1900" height="4.0000" ry="0.0000" fill="currentColor"/>
</g>
<g transform="translate(27.4561, 17.4533)">
<rect x="0.0000" y="-2.0000" width="0.1900" height="4.0000" ry="0.0000" fill="currentColor"/>
</g>
<g transform="translate(88.3201, 17.4533)">
<rect x="0.0000" y="-2.0000" width="0.1900" height="4.0000" ry="0.0000" fill="currentColor"/>
</g>
<g transform="translate(5.6906, 20.4533)">
<rect x="95.5489" y="-0.1000" width="1.9563" height="0.2000" ry="0.1000" fill="currentColor"/>
</g>
<g transform="translate(5.6906, 20.4533)">
<rect x="92.0797" y="-0.1000" width="1.7303" height="0.2000" ry="0.1000" fill="currentColor"/>
</g>
<g transform="translate(5.6906, 21.4533)">
<rect x="92.0797" y="-0.1000" width="1.7303" height="0.2000" ry="0.1000" fill="currentColor"/>
</g>
<g transform="translate(5.6906, 20.4533)">
<rect x="89.0102" y="-0.1000" width="1.9563" height="0.2000" ry="0.1000" fill="currentColor"/>
</g>
<g transform="translate(5.6906, 21.4533)">
<rect x="89.0102" y="-0.1000" width="1.9563" height="0.2000" ry="0.1000" fill="currentColor"/>
</g>
<g transform="translate(5.6906, 20.4533)">
<rect x="71.6613" y="-0.1000" width="1.9563" height="0.2000" ry="0.1000" fill="currentColor"/>
</g>
<g transform="translate(5.6906, 20.4533)">
<rect x="68.1921" y="-0.1000" width="1.7303" height="0.2000" ry="0.1000" fill="currentColor"/>
</g>
<g transform="translate(5.6906, 21.4533)">
<rect x="68.1921" y="-0.1000" width="1.7303" height="0.2000" ry="0.1000" fill="currentColor"/>
</g>
<g transform="translate(5.6906, 20.4533)">
<rect x="65.1226" y="-0.1000" width="1.9563" height="0.2000" ry="0.1000" fill="currentColor"/>
</g>
<g transform="translate(5.6906, 21.4533)">
<rect x="65.1226" y="-0.1000" width="1.9563" height="0.2000" ry="0.1000" fill="currentColor"/>
</g>
<g transform="translate(100.7137, 17.4533)">
<rect x="0.0000" y="-2.0000" width="0.1900" height="4.0000" ry="0.0000" fill="currentColor"/>
</g>
<g transform="translate(75.2219, 17.4533)">
<rect x="-0.0650" y="-0.8100" width="0.1300" height="5.1239" ry="0.0400" fill="currentColor"/>
</g>
<a style="color:inherit;" xlink:href="textedit://C:/Users/har1sf0x/Documents/LilyPond%20-%20Frescobaldi/%ce%9a%ce%ac%cf%84%cf%89_%cf%83%cf%84%ce%bf_%ce%b3%ce%b9%ce%b1%ce%bb%cf%8c_%ce%b1.ly:21:2:3">
<g transform="translate(77.6779, 20.4533)">
<path transform="scale(0.0040, -0.0040)" d="M218 136c55 0 108 -28 108 -89c0 -71 -55 -121 -102 -149c-35 -21 -75 -34 -116 -34c-55 0 -108 28 -108 89c0 71 55 121 102 149c35 21 75 34 116 34z" fill="currentColor"/>
</g>
</a>
<a style="color:inherit;" xlink:href="textedit://C:/Users/har1sf0x/Documents/LilyPond%20-%20Frescobaldi/%ce%9a%ce%ac%cf%84%cf%89_%cf%83%cf%84%ce%bf_%ce%b3%ce%b9%ce%b1%ce%bb%cf%8c_%ce%b1.ly:20:15:16">
<g transform="translate(71.1392, 19.9533)">
<path transform="scale(0.0040, -0.0040)" d="M218 136c55 0 108 -28 108 -89c0 -71 -55 -121 -102 -149c-35 -21 -75 -34 -116 -34c-55 0 -108 28 -108 89c0 71 55 121 102 149c35 21 75 34 116 34z" fill="currentColor"/>
</g>
</a>
<a style="color:inherit;" xlink:href="textedit://C:/Users/har1sf0x/Documents/LilyPond%20-%20Frescobaldi/%ce%9a%ce%ac%cf%84%cf%89_%cf%83%cf%84%ce%bf_%ce%b3%ce%b9%ce%b1%ce%bb%cf%8c_%ce%b1.ly:20:33:34">
<g transform="translate(73.9827, 21.9533)">
<path transform="scale(0.0040, -0.0040)" d="M218 136c55 0 108 -28 108 -89c0 -71 -55 -121 -102 -149c-35 -21 -75 -34 -116 -34c-55 0 -108 28 -108 89c0 71 55 121 102 149c35 21 75 34 116 34z" fill="currentColor"/>
</g>
</a>
<a style="color:inherit;" xlink:href="textedit://C:/Users/har1sf0x/Documents/LilyPond%20-%20Frescobaldi/%ce%9a%ce%ac%cf%84%cf%89_%cf%83%cf%84%ce%bf_%ce%b3%ce%b9%ce%b1%ce%bb%cf%8c_%ce%b1.ly:20:31:32">
<g transform="translate(75.2219, 19.9533)">
<path transform="scale(0.0040, -0.0040)" d="M218 136c55 0 108 -28 108 -89c0 -71 -55 -121 -102 -149c-35 -21 -75 -34 -116 -34c-55 0 -108 28 -108 89c0 71 55 121 102 149c35 21 75 34 116 34z" fill="currentColor"/>
</g>
</a>
<a style="color:inherit;" xlink:href="textedit://C:/Users/har1sf0x/Documents/LilyPond%20-%20Frescobaldi/%ce%9a%ce%ac%cf%84%cf%89_%cf%83%cf%84%ce%bf_%ce%b3%ce%b9%ce%b1%ce%bb%cf%8c_%ce%b1.ly:20:27:28">
<g transform="translate(73.9827, 19.9533)">
<path transform="scale(0.0040, -0.0040)" d="M218 136c55 0 108 -28 108 -89c0 -71 -55 -121 -102 -149c-35 -21 -75 -34 -116 -34c-55 0 -108 28 -108 89c0 71 55 121 102 149c35 21 75 34 116 34z" fill="currentColor"/>
</g>
</a>
<g transform="translate(72.3785, 17.4533)">
<rect x="-0.0650" y="-0.8100" width="0.1300" height="5.1239" ry="0.0400" fill="currentColor"/>
</g>
<a style="color:inherit;" xlink:href="textedit://C:/Users/har1sf0x/Documents/LilyPond%20-%20Frescobaldi/%ce%9a%ce%ac%cf%84%cf%89_%cf%83%cf%84%ce%bf_%ce%b3%ce%b9%ce%b1%ce%bb%cf%8c_%ce%b1.ly:20:20:21">
<g transform="translate(71.1392, 21.9533)">
<path transform="scale(0.0040, -0.0040)" d="M218 136c55 0 108 -28 108 -89c0 -71 -55 -121 -102 -149c-35 -21 -75 -34 -116 -34c-55 0 -108 28 -108 89c0 71 55 121 102 149c35 21 75 34 116 34z" fill="currentColor"/>
</g>
</a>
<a style="color:inherit;" xlink:href="textedit://C:/Users/har1sf0x/Documents/LilyPond%20-%20Frescobaldi/%ce%9a%ce%ac%cf%84%cf%89_%cf%83%cf%84%ce%bf_%ce%b3%ce%b9%ce%b1%ce%bb%cf%8c_%ce%b1.ly:20:18:19">
<g transform="translate(72.3785, 19.9533)">
<path transform="scale(0.0040, -0.0040)" d="M218 136c55 0 108 -28 108 -89c0 -71 -55 -121 -102 -149c-35 -21 -75 -34 -116 -34c-55 0 -108 28 -108 89c0 71 55 121 102 149c35 21 75 34 116 34z" fill="currentColor"/>
</g>
</a>
<g transform="translate(84.7720, 17.4533)">
<rect x="-0.0650" y="-1.0051" width="0.1300" height="2.8190" ry="0.0400" fill="currentColor"/>
</g>
<a style="color:inherit;" xlink:href="textedit://C:/Users/har1sf0x/Documents/LilyPond%20-%20Frescobaldi/%ce%9a%ce%ac%cf%84%cf%89_%cf%83%cf%84%ce%bf_%ce%b3%ce%b9%ce%b1%ce%bb%cf%8c_%ce%b1.ly:21:11:12">
<g transform="translate(83.5328, 19.4533)">
<path transform="scale(0.0040, -0.0040)" d="M218 136c55 0 108 -28 108 -89c0 -71 -55 -121 -102 -149c-35 -21 -75 -34 -116 -34c-55 0 -108 28 -108 89c0 71 55 121 102 149c35 21 75 34 116 34z" fill="currentColor"/>
</g>
</a>
<g transform="translate(82.9822, 17.4533)">
<rect x="-0.0650" y="-0.9971" width="0.1300" height="3.3110" ry="0.0400" fill="currentColor"/>
</g>
<a style="color:inherit;" xlink:href="textedit://C:/Users/har1sf0x/Documents/LilyPond%20-%20Frescobaldi/%ce%9a%ce%ac%cf%84%cf%89_%cf%83%cf%84%ce%bf_%ce%b3%ce%b9%ce%b1%ce%bb%cf%8c_%ce%b1.ly:21:9:10">
<g transform="translate(81.7430, 19.9533)">
<path transform="scale(0.0040, -0.0040)" d="M218 136c55 0 108 -28 108 -89c0 -71 -55 -121 -102 -149c-35 -21 -75 -34 -116 -34c-55 0 -108 28 -108 89c0 71 55 121 102 149c35 21 75 34 116 34z" fill="currentColor"/>
</g>
</a>
<g transform="translate(78.9172, 17.4533)">
<rect x="-0.0650" y="-0.8129" width="0.1300" height="3.6268" ry="0.0400" fill="currentColor"/>
</g>
<g transform="translate(81.1925, 17.4533)">
<rect x="-0.0650" y="-0.9160" width="0.1300" height="3.2299" ry="0.0400" fill="currentColor"/>
</g>
<a style="color:inherit;" xlink:href="textedit://C:/Users/har1sf0x/Documents/LilyPond%20-%20Frescobaldi/%ce%9a%ce%ac%cf%84%cf%89_%cf%83%cf%84%ce%bf_%ce%b3%ce%b9%ce%b1%ce%bb%cf%8c_%ce%b1.ly:21:5:6">
<g transform="translate(79.9533, 19.9533)">
<path transform="scale(0.0040, -0.0040)" d="M218 136c55 0 108 -28 108 -89c0 -71 -55 -121 -102 -149c-35 -21 -75 -34 -116 -34c-55 0 -108 28 -108 89c0 71 55 121 102 149c35 21 75 34 116 34z" fill="currentColor"/>
</g>
</a>
<a style="color:inherit;" xlink:href="textedit://C:/Users/har1sf0x/Documents/LilyPond%20-%20Frescobaldi/%ce%9a%ce%ac%cf%84%cf%89_%cf%83%cf%84%ce%bf_%ce%b3%ce%b9%ce%b1%ce%bb%cf%8c_%ce%b1.ly:18:47:48">
<g transform="translate(56.9919, 19.4533)">
<path transform="scale(0.0040, -0.0040)" d="M218 136c55 0 108 -28 108 -89c0 -71 -55 -121 -102 -149c-35 -21 -75 -34 -116 -34c-55 0 -108 28 -108 89c0 71 55 121 102 149c35 21 75 34 116 34z" fill="currentColor"/>
</g>
</a>
<g transform="translate(60.5064, 17.4533)">
<rect x="-0.0650" y="-1.0000" width="0.1300" height="2.8139" ry="0.0400" fill="currentColor"/>
</g>
<a style="color:inherit;" xlink:href="textedit://C:/Users/har1sf0x/Documents/LilyPond%20-%20Frescobaldi/%ce%9a%ce%ac%cf%84%cf%89_%cf%83%cf%84%ce%bf_%ce%b3%ce%b9%ce%b1%ce%bb%cf%8c_%ce%b1.ly:18:69:70">
<g transform="scale(1.0000, -1.0000)">
<g transform="translate(59.9193, -10.9983)">
<line stroke-linejoin="round" stroke-linecap="round" stroke-width="0.1380" stroke="currentColor" x1="0" y1="0" x2="0" y2="-1.6000"/>
</g>
<g transform="translate(59.9193, -10.5483)">
<path transform="scale(0.0036, -0.0036)" d="M-103 250c5 0 10 -1 14 -5c40 -35 70 -79 89 -128c19 49 49 93 89 128c4 4 9 5 14 5c11 0 22 -10 22 -22c0 -6 -2 -12 -7 -16c-61 -54 -96 -131 -96 -212c0 -14 -11 -22 -22 -22s-22 8 -22 22c0 81 -35 158 -96 212c-5 4 -7 10 -7 16c0 12 11 22 22 22z" fill="currentColor"/>
</g>
</g>
</a>
<a style="color:inherit;" xlink:href="textedit://C:/Users/har1sf0x/Documents/LilyPond%20-%20Frescobaldi/%ce%9a%ce%ac%cf%84%cf%89_%cf%83%cf%84%ce%bf_%ce%b3%ce%b9%ce%b1%ce%bb%cf%8c_%ce%b1.ly:18:67:68">
<g transform="translate(59.5096, 14.4033)">
<path transform="scale(0.0022, -0.0022)" d="M194 486c15 0 25 15 41 15c13 0 24 -13 24 -31v-341c0 -47 35 -86 81 -86c14 0 21 -10 21 -21s-7 -22 -21 -22c-49 0 -97 14 -146 14s-96 -14 -145 -14c-14 0 -22 11 -22 22s8 21 22 21c46 0 80 39 80 86v137c0 23 -16 35 -30 35c-7 0 -13 -4 -17 -11l-34 -65
c-5 -10 -14 -15 -23 -15c-14 0 -28 12 -28 27c0 4 1 8 3 13l129 250c2 4 7 6 11 6c20 0 35 -20 54 -20z" fill="currentColor"/>
</g>
</a>
<a style="color:inherit;" xlink:href="textedit://C:/Users/har1sf0x/Documents/LilyPond%20-%20Frescobaldi/%ce%9a%ce%ac%cf%84%cf%89_%cf%83%cf%84%ce%bf_%ce%b3%ce%b9%ce%b1%ce%bb%cf%8c_%ce%b1.ly:18:64:65">
<g transform="translate(59.2672, 19.4533)">
<path transform="scale(0.0040, -0.0040)" d="M218 136c55 0 108 -28 108 -89c0 -71 -55 -121 -102 -149c-35 -21 -75 -34 -116 -34c-55 0 -108 28 -108 89c0 71 55 121 102 149c35 21 75 34 116 34z" fill="currentColor"/>
</g>
</a>
<g transform="translate(58.2311, 17.4533)">
<rect x="-0.0650" y="-1.0000" width="0.1300" height="2.8139" ry="0.0400" fill="currentColor"/>
</g>
<a style="color:inherit;" xlink:href="textedit://C:/Users/har1sf0x/Documents/LilyPond%20-%20Frescobaldi/%ce%9a%ce%ac%cf%84%cf%89_%cf%83%cf%84%ce%bf_%ce%b3%ce%b9%ce%b1%ce%bb%cf%8c_%ce%b1.ly:18:53:54">
<g transform="translate(57.6440, 12.1389)">
<line stroke-linejoin="round" stroke-linecap="round" stroke-width="0.1380" stroke="currentColor" x1="0" y1="0" x2="0" y2="-1.6000"/>
</g>
<g transform="translate(57.6440, 12.5889)">
<path transform="scale(0.0036, -0.0036)" d="M-103 250c5 0 10 -1 14 -5c40 -35 70 -79 89 -128c19 49 49 93 89 128c4 4 9 5 14 5c11 0 22 -10 22 -22c0 -6 -2 -12 -7 -16c-61 -54 -96 -131 -96 -212c0 -14 -11 -22 -22 -22s-22 8 -22 22c0 81 -35 158 -96 212c-5 4 -7 10 -7 16c0 12 11 22 22 22z" fill="currentColor"/>
</g>
</a>
<a style="color:inherit;" xlink:href="textedit://C:/Users/har1sf0x/Documents/LilyPond%20-%20Frescobaldi/%ce%9a%ce%ac%cf%84%cf%89_%cf%83%cf%84%ce%bf_%ce%b3%ce%b9%ce%b1%ce%bb%cf%8c_%ce%b1.ly:18:51:52">
<g transform="translate(57.2343, 14.4033)">
<path transform="scale(0.0022, -0.0022)" d="M194 486c15 0 25 15 41 15c13 0 24 -13 24 -31v-341c0 -47 35 -86 81 -86c14 0 21 -10 21 -21s-7 -22 -21 -22c-49 0 -97 14 -146 14s-96 -14 -145 -14c-14 0 -22 11 -22 22s8 21 22 21c46 0 80 39 80 86v137c0 23 -16 35 -30 35c-7 0 -13 -4 -17 -11l-34 -65
c-5 -10 -14 -15 -23 -15c-14 0 -28 12 -28 27c0 4 1 8 3 13l129 250c2 4 7 6 11 6c20 0 35 -20 54 -20z" fill="currentColor"/>
</g>
</a>
<g transform="translate(56.6269, 17.4533)">
<rect x="-0.0650" y="-2.0000" width="0.1300" height="2.8139" ry="0.0400" fill="currentColor"/>
</g>
<a style="color:inherit;" xlink:href="textedit://C:/Users/har1sf0x/Documents/LilyPond%20-%20Frescobaldi/%ce%9a%ce%ac%cf%84%cf%89_%cf%83%cf%84%ce%bf_%ce%b3%ce%b9%ce%b1%ce%bb%cf%8c_%ce%b1.ly:18:36:37">
<g transform="translate(56.0398, 12.1523)">
<line stroke-linejoin="round" stroke-linecap="round" stroke-width="0.1380" stroke="currentColor" x1="0" y1="0" x2="0" y2="-1.6000"/>
</g>
<g transform="translate(56.0398, 12.6023)">
<path transform="scale(0.0036, -0.0036)" d="M-103 250c5 0 10 -1 14 -5c40 -35 70 -79 89 -128c19 49 49 93 89 128c4 4 9 5 14 5c11 0 22 -10 22 -22c0 -6 -2 -12 -7 -16c-61 -54 -96 -131 -96 -212c0 -14 -11 -22 -22 -22s-22 8 -22 22c0 81 -35 158 -96 212c-5 4 -7 10 -7 16c0 12 11 22 22 22z" fill="currentColor"/>
</g>
</a>
<a style="color:inherit;" xlink:href="textedit://C:/Users/har1sf0x/Documents/LilyPond%20-%20Frescobaldi/%ce%9a%ce%ac%cf%84%cf%89_%cf%83%cf%84%ce%bf_%ce%b3%ce%b9%ce%b1%ce%bb%cf%8c_%ce%b1.ly:18:34:35">
<g transform="translate(55.6472, 14.4033)">
<path transform="scale(0.0022, -0.0022)" d="M155 457c-34 0 -71 -8 -71 -38c0 -19 32 -23 32 -42c0 -28 -23 -51 -51 -51s-51 23 -51 51c0 72 66 123 141 123c93 0 174 -31 174 -113c0 -36 -10 -65 -42 -80c-17 -8 -26 -25 -26 -41s9 -32 26 -40c37 -17 59 -45 59 -85c0 -94 -83 -141 -186 -141
c-84 0 -160 54 -160 133c0 32 26 58 58 58s58 -26 58 -58c0 -22 -36 -26 -36 -48c0 -33 42 -42 80 -42c41 0 56 50 56 98v21c0 44 -2 77 -43 77h-65c-18 0 -27 14 -27 27s9 27 27 27h65c42 0 43 36 43 83v11c0 43 -20 70 -61 70z" fill="currentColor"/>
</g>
</a>
<a style="color:inherit;" xlink:href="textedit://C:/Users/har1sf0x/Documents/LilyPond%20-%20Frescobaldi/%ce%9a%ce%ac%cf%84%cf%89_%cf%83%cf%84%ce%bf_%ce%b3%ce%b9%ce%b1%ce%bb%cf%8c_%ce%b1.ly:18:33:34">
<g transform="translate(55.3877, 18.4533)">
<path transform="scale(0.0040, -0.0040)" d="M218 136c55 0 108 -28 108 -89c0 -71 -55 -121 -102 -149c-35 -21 -75 -34 -116 -34c-55 0 -108 28 -108 89c0 71 55 121 102 149c35 21 75 34 116 34z" fill="currentColor"/>
</g>
</a>
<g transform="translate(108.5946, 16.4533)">
<polygon stroke-linejoin="round" stroke-linecap="round" stroke-width="0.0800" fill="currentColor" stroke="currentColor" points="2.3653 -0.2000 2.3653 0.2000 0.0400 0.2000 0.0400 -0.2000"/>
</g>
<a style="color:inherit;" xlink:href="textedit://C:/Users/har1sf0x/Documents/LilyPond%20-%20Frescobaldi/%ce%9a%ce%ac%cf%84%cf%89_%cf%83%cf%84%ce%bf_%ce%b3%ce%b9%ce%b1%ce%bb%cf%8c_%ce%b1.ly:20:9:10">
<g transform="translate(69.3495, 19.4533)">
<path transform="scale(0.0040, -0.0040)" d="M218 136c55 0 108 -28 108 -89c0 -71 -55 -121 -102 -149c-35 -21 -75 -34 -116 -34c-55 0 -108 28 -108 89c0 71 55 121 102 149c35 21 75 34 116 34z" fill="currentColor"/>
</g>
</a>
<g transform="translate(68.7989, 17.4533)">
<rect x="-0.0650" y="-1.9780" width="0.1300" height="3.2919" ry="0.0400" fill="currentColor"/>
</g>
<a style="color:inherit;" xlink:href="textedit://C:/Users/har1sf0x/Documents/LilyPond%20-%20Frescobaldi/%ce%9a%ce%ac%cf%84%cf%89_%cf%83%cf%84%ce%bf_%ce%b3%ce%b9%ce%b1%ce%bb%cf%8c_%ce%b1.ly:20:5:6">
<g transform="translate(67.5597, 18.9533)">
<path transform="scale(0.0040, -0.0040)" d="M218 136c55 0 108 -28 108 -89c0 -71 -55 -121 -102 -149c-35 -21 -75 -34 -116 -34c-55 0 -108 28 -108 89c0 71 55 121 102 149c35 21 75 34 116 34z" fill="currentColor"/>
</g>
</a>
<g transform="translate(70.5887, 17.4533)">
<rect x="-0.0650" y="-1.8159" width="0.1300" height="3.6298" ry="0.0400" fill="currentColor"/>
</g>
<g transform="translate(66.5236, 17.4533)">
<rect x="-0.0650" y="-2.1841" width="0.1300" height="2.9980" ry="0.0400" fill="currentColor"/>
</g>
<a style="color:inherit;" xlink:href="textedit://C:/Users/har1sf0x/Documents/LilyPond%20-%20Frescobaldi/%ce%9a%ce%ac%cf%84%cf%89_%cf%83%cf%84%ce%bf_%ce%b3%ce%b9%ce%b1%ce%bb%cf%8c_%ce%b1.ly:19:11:12">
<g transform="translate(63.0825, 14.6033)">
<text font-family="serif" font-size="2.6163" text-anchor="start" fill="currentColor">
<tspan>B</tspan>
</text>
</g>
</a>
<a style="color:inherit;" xlink:href="textedit://C:/Users/har1sf0x/Documents/LilyPond%20-%20Frescobaldi/%ce%9a%ce%ac%cf%84%cf%89_%cf%83%cf%84%ce%bf_%ce%b3%ce%b9%ce%b1%ce%bb%cf%8c_%ce%b1.ly:20:2:3">
<g transform="translate(65.2844, 18.4533)">
<path transform="scale(0.0040, -0.0040)" d="M218 136c55 0 108 -28 108 -89c0 -71 -55 -121 -102 -149c-35 -21 -75 -34 -116 -34c-55 0 -108 28 -108 89c0 71 55 121 102 149c35 21 75 34 116 34z" fill="currentColor"/>
</g>
</a>
<g transform="translate(110.9349, 17.4533)">
<rect x="-0.0650" y="-1.0000" width="0.1300" height="2.8139" ry="0.0400" fill="currentColor"/>
</g>
<a style="color:inherit;" xlink:href="textedit://C:/Users/har1sf0x/Documents/LilyPond%20-%20Frescobaldi/%ce%9a%ce%ac%cf%84%cf%89_%cf%83%cf%84%ce%bf_%ce%b3%ce%b9%ce%b1%ce%bb%cf%8c_%ce%b1.ly:23:16:17">
<g transform="translate(109.6957, 19.4533)">
<path transform="scale(0.0040, -0.0040)" d="M218 136c55 0 108 -28 108 -89c0 -71 -55 -121 -102 -149c-35 -21 -75 -34 -116 -34c-55 0 -108 28 -108 89c0 71 55 121 102 149c35 21 75 34 116 34z" fill="currentColor"/>
</g>
</a>
<g transform="translate(108.6596, 17.4533)">
<rect x="-0.0650" y="-1.0000" width="0.1300" height="2.8139" ry="0.0400" fill="currentColor"/>
</g>
<a style="color:inherit;" xlink:href="textedit://C:/Users/har1sf0x/Documents/LilyPond%20-%20Frescobaldi/%ce%9a%ce%ac%cf%84%cf%89_%cf%83%cf%84%ce%bf_%ce%b3%ce%b9%ce%b1%ce%bb%cf%8c_%ce%b1.ly:23:11:12">
<g transform="translate(107.4204, 19.4533)">
<path transform="scale(0.0040, -0.0040)" d="M218 136c55 0 108 -28 108 -89c0 -71 -55 -121 -102 -149c-35 -21 -75 -34 -116 -34c-55 0 -108 28 -108 89c0 71 55 121 102 149c35 21 75 34 116 34z" fill="currentColor"/>
</g>
</a>
<g transform="translate(106.8698, 17.4533)">
<rect x="-0.0650" y="-0.9971" width="0.1300" height="3.3110" ry="0.0400" fill="currentColor"/>
</g>
<a style="color:inherit;" xlink:href="textedit://C:/Users/har1sf0x/Documents/LilyPond%20-%20Frescobaldi/%ce%9a%ce%ac%cf%84%cf%89_%cf%83%cf%84%ce%bf_%ce%b3%ce%b9%ce%b1%ce%bb%cf%8c_%ce%b1.ly:23:9:10">
<g transform="translate(105.6306, 19.9533)">
<path transform="scale(0.0040, -0.0040)" d="M218 136c55 0 108 -28 108 -89c0 -71 -55 -121 -102 -149c-35 -21 -75 -34 -116 -34c-55 0 -108 28 -108 89c0 71 55 121 102 149c35 21 75 34 116 34z" fill="currentColor"/>
</g>
</a>
<g transform="translate(105.0801, 17.4533)">
<rect x="-0.0650" y="-0.9160" width="0.1300" height="3.2299" ry="0.0400" fill="currentColor"/>
</g>
<a style="color:inherit;" xlink:href="textedit://C:/Users/har1sf0x/Documents/LilyPond%20-%20Frescobaldi/%ce%9a%ce%ac%cf%84%cf%89_%cf%83%cf%84%ce%bf_%ce%b3%ce%b9%ce%b1%ce%bb%cf%8c_%ce%b1.ly:23:5:6">
<g transform="translate(103.8409, 19.9533)">
<path transform="scale(0.0040, -0.0040)" d="M218 136c55 0 108 -28 108 -89c0 -71 -55 -121 -102 -149c-35 -21 -75 -34 -116 -34c-55 0 -108 28 -108 89c0 71 55 121 102 149c35 21 75 34 116 34z" fill="currentColor"/>
</g>
</a>
<g transform="translate(18.0595, 15.6433)">
<polygon stroke-linejoin="round" stroke-linecap="round" stroke-width="0.0800" fill="currentColor" stroke="currentColor" points="4.1551 -0.3900 4.1551 0.0100 0.0400 0.2000 0.0400 -0.2000"/>
</g>
<g transform="translate(20.3348, 16.3502)">
<polygon stroke-linejoin="round" stroke-linecap="round" stroke-width="0.0800" fill="currentColor" stroke="currentColor" points="1.8798 -0.2869 1.8798 0.1131 0.0400 0.2000 0.0400 -0.2000"/>
</g>
<g transform="translate(102.7398, 16.6433)">
<polygon stroke-linejoin="round" stroke-linecap="round" stroke-width="0.0800" fill="currentColor" stroke="currentColor" points="4.1551 -0.3900 4.1551 0.0100 0.0400 0.2000 0.0400 -0.2000"/>
</g>
<g transform="translate(105.0151, 17.3502)">
<polygon stroke-linejoin="round" stroke-linecap="round" stroke-width="0.0800" fill="currentColor" stroke="currentColor" points="1.8798 -0.2869 1.8798 0.1131 0.0400 0.2000 0.0400 -0.2000"/>
</g>
<g transform="translate(96.2011, 16.6433)">
<polygon stroke-linejoin="round" stroke-linecap="round" stroke-width="0.0800" fill="currentColor" stroke="currentColor" points="2.9334 -0.2000 2.9334 0.2000 0.0400 0.2000 0.0400 -0.2000"/>
</g>
<g transform="translate(90.3462, 15.2633)">
<polygon stroke-linejoin="round" stroke-linecap="round" stroke-width="0.0800" fill="currentColor" stroke="currentColor" points="4.1551 0.1800 4.1551 0.5800 0.0400 0.2000 0.0400 -0.2000"/>
</g>
<g transform="translate(92.6215, 16.2794)">
<polygon stroke-linejoin="round" stroke-linecap="round" stroke-width="0.0800" fill="currentColor" stroke="currentColor" points="1.8798 -0.0261 1.8798 0.3739 0.0400 0.2000 0.0400 -0.2000"/>
</g>
<g transform="translate(84.7070, 16.4533)">
<polygon stroke-linejoin="round" stroke-linecap="round" stroke-width="0.0800" fill="currentColor" stroke="currentColor" points="2.3653 -0.3900 2.3653 0.0100 0.0400 0.2000 0.0400 -0.2000"/>
</g>
<g transform="translate(78.8522, 16.6433)">
<polygon stroke-linejoin="round" stroke-linecap="round" stroke-width="0.0800" fill="currentColor" stroke="currentColor" points="4.1551 -0.3900 4.1551 0.0100 0.0400 0.2000 0.0400 -0.2000"/>
</g>
<g transform="translate(81.1275, 17.3502)">
<polygon stroke-linejoin="round" stroke-linecap="round" stroke-width="0.0800" fill="currentColor" stroke="currentColor" points="1.8798 -0.2869 1.8798 0.1131 0.0400 0.2000 0.0400 -0.2000"/>
</g>
<g transform="translate(72.3135, 16.6433)">
<polygon stroke-linejoin="round" stroke-linecap="round" stroke-width="0.0800" fill="currentColor" stroke="currentColor" points="2.9334 -0.2000 2.9334 0.2000 0.0400 0.2000 0.0400 -0.2000"/>
</g>
<g transform="translate(66.4586, 15.2633)">
<polygon stroke-linejoin="round" stroke-linecap="round" stroke-width="0.0800" fill="currentColor" stroke="currentColor" points="4.1551 0.1800 4.1551 0.5800 0.0400 0.2000 0.0400 -0.2000"/>
</g>
<g transform="translate(68.7339, 16.2794)">
<polygon stroke-linejoin="round" stroke-linecap="round" stroke-width="0.0800" fill="currentColor" stroke="currentColor" points="1.8798 -0.0261 1.8798 0.3739 0.0400 0.2000 0.0400 -0.2000"/>
</g>
<g transform="translate(58.1661, 16.4533)">
<polygon stroke-linejoin="round" stroke-linecap="round" stroke-width="0.0800" fill="currentColor" stroke="currentColor" points="2.3653 -0.2000 2.3653 0.2000 0.0400 0.2000 0.0400 -0.2000"/>
</g>
<g transform="translate(52.4968, 15.4533)">
<polygon stroke-linejoin="round" stroke-linecap="round" stroke-width="0.0800" fill="currentColor" stroke="currentColor" points="4.1551 -0.2000 4.1551 0.2000 0.0400 0.2000 0.0400 -0.2000"/>
</g>
<g transform="translate(54.7721, 16.2633)">
<polygon stroke-linejoin="round" stroke-linecap="round" stroke-width="0.0800" fill="currentColor" stroke="currentColor" points="1.8798 -0.2000 1.8798 0.2000 0.0400 0.2000 0.0400 -0.2000"/>
</g>
<g transform="translate(46.8443, 16.2633)">
<polygon stroke-linejoin="round" stroke-linecap="round" stroke-width="0.0800" fill="currentColor" stroke="currentColor" points="2.3653 -0.0100 2.3653 0.3900 0.0400 0.2000 0.0400 -0.2000"/>
</g>
<g transform="translate(40.9895, 14.4533)">
<polygon stroke-linejoin="round" stroke-linecap="round" stroke-width="0.0800" fill="currentColor" stroke="currentColor" points="4.1551 -0.0100 4.1551 0.3900 0.0400 0.2000 0.0400 -0.2000"/>
</g>
<g transform="translate(43.2648, 15.3663)">
<polygon stroke-linejoin="round" stroke-linecap="round" stroke-width="0.0800" fill="currentColor" stroke="currentColor" points="1.8798 -0.1131 1.8798 0.2869 0.0400 0.2000 0.0400 -0.2000"/>
</g>
<g transform="translate(35.3370, 15.4533)">
<polygon stroke-linejoin="round" stroke-linecap="round" stroke-width="0.0800" fill="currentColor" stroke="currentColor" points="2.3653 -0.2000 2.3653 0.2000 0.0400 0.2000 0.0400 -0.2000"/>
</g>
<g transform="translate(29.4821, 15.4533)">
<polygon stroke-linejoin="round" stroke-linecap="round" stroke-width="0.0800" fill="currentColor" stroke="currentColor" points="4.1551 -0.2000 4.1551 0.2000 0.0400 0.2000 0.0400 -0.2000"/>
</g>
<g transform="translate(31.7575, 16.2633)">
<polygon stroke-linejoin="round" stroke-linecap="round" stroke-width="0.0800" fill="currentColor" stroke="currentColor" points="1.8798 -0.2000 1.8798 0.2000 0.0400 0.2000 0.0400 -0.2000"/>
</g>
<g transform="translate(23.9144, 15.4533)">
<polygon stroke-linejoin="round" stroke-linecap="round" stroke-width="0.0800" fill="currentColor" stroke="currentColor" points="2.3653 -0.3900 2.3653 0.0100 0.0400 0.2000 0.0400 -0.2000"/>
</g>
<g transform="translate(92.6865, 17.4533)">
<rect x="-0.0650" y="-1.9780" width="0.1300" height="3.2919" ry="0.0400" fill="currentColor"/>
</g>
<a style="color:inherit;" xlink:href="textedit://C:/Users/har1sf0x/Documents/LilyPond%20-%20Frescobaldi/%ce%9a%ce%ac%cf%84%cf%89_%cf%83%cf%84%ce%bf_%ce%b3%ce%b9%ce%b1%ce%bb%cf%8c_%ce%b1.ly:22:5:6">
<g transform="translate(91.4473, 18.9533)">
<path transform="scale(0.0040, -0.0040)" d="M218 136c55 0 108 -28 108 -89c0 -71 -55 -121 -102 -149c-35 -21 -75 -34 -116 -34c-55 0 -108 28 -108 89c0 71 55 121 102 149c35 21 75 34 116 34z" fill="currentColor"/>
</g>
</a>
<a style="color:inherit;" xlink:href="textedit://C:/Users/har1sf0x/Documents/LilyPond%20-%20Frescobaldi/%ce%9a%ce%ac%cf%84%cf%89_%cf%83%cf%84%ce%bf_%ce%b3%ce%b9%ce%b1%ce%bb%cf%8c_%ce%b1.ly:22:9:10">
<g transform="translate(93.2371, 19.4533)">
<path transform="scale(0.0040, -0.0040)" d="M218 136c55 0 108 -28 108 -89c0 -71 -55 -121 -102 -149c-35 -21 -75 -34 -116 -34c-55 0 -108 28 -108 89c0 71 55 121 102 149c35 21 75 34 116 34z" fill="currentColor"/>
</g>
</a>
<g transform="translate(90.4112, 17.4533)">
<rect x="-0.0650" y="-2.1841" width="0.1300" height="2.9980" ry="0.0400" fill="currentColor"/>
</g>
<a style="color:inherit;" xlink:href="textedit://C:/Users/har1sf0x/Documents/LilyPond%20-%20Frescobaldi/%ce%9a%ce%ac%cf%84%cf%89_%cf%83%cf%84%ce%bf_%ce%b3%ce%b9%ce%b1%ce%bb%cf%8c_%ce%b1.ly:22:2:3">
<g transform="translate(89.1720, 18.4533)">
<path transform="scale(0.0040, -0.0040)" d="M218 136c55 0 108 -28 108 -89c0 -71 -55 -121 -102 -149c-35 -21 -75 -34 -116 -34c-55 0 -108 28 -108 89c0 71 55 121 102 149c35 21 75 34 116 34z" fill="currentColor"/>
</g>
</a>
<g transform="translate(87.0473, 17.4533)">
<rect x="-0.0650" y="-1.1849" width="0.1300" height="2.4988" ry="0.0400" fill="currentColor"/>
</g>
<a style="color:inherit;" xlink:href="textedit://C:/Users/har1sf0x/Documents/LilyPond%20-%20Frescobaldi/%ce%9a%ce%ac%cf%84%cf%89_%cf%83%cf%84%ce%bf_%ce%b3%ce%b9%ce%b1%ce%bb%cf%8c_%ce%b1.ly:21:16:17">
<g transform="translate(85.8081, 18.9533)">
<path transform="scale(0.0040, -0.0040)" d="M218 136c55 0 108 -28 108 -89c0 -71 -55 -121 -102 -149c-35 -21 -75 -34 -116 -34c-55 0 -108 28 -108 89c0 71 55 121 102 149c35 21 75 34 116 34z" fill="currentColor"/>
</g>
</a>
<a style="color:inherit;" xlink:href="textedit://C:/Users/har1sf0x/Documents/LilyPond%20-%20Frescobaldi/%ce%9a%ce%ac%cf%84%cf%89_%cf%83%cf%84%ce%bf_%ce%b3%ce%b9%ce%b1%ce%bb%cf%8c_%ce%b1.ly:22:27:28">
<g transform="translate(97.8703, 19.9533)">
<path transform="scale(0.0040, -0.0040)" d="M218 136c55 0 108 -28 108 -89c0 -71 -55 -121 -102 -149c-35 -21 -75 -34 -116 -34c-55 0 -108 28 -108 89c0 71 55 121 102 149c35 21 75 34 116 34z" fill="currentColor"/>
</g>
</a>
<g transform="translate(102.8048, 17.4533)">
<rect x="-0.0650" y="-0.8129" width="0.1300" height="3.6268" ry="0.0400" fill="currentColor"/>
</g>
<a style="color:inherit;" xlink:href="textedit://C:/Users/har1sf0x/Documents/LilyPond%20-%20Frescobaldi/%ce%9a%ce%ac%cf%84%cf%89_%cf%83%cf%84%ce%bf_%ce%b3%ce%b9%ce%b1%ce%bb%cf%8c_%ce%b1.ly:23:2:3">
<g transform="translate(101.5655, 20.4533)">
<path transform="scale(0.0040, -0.0040)" d="M218 136c55 0 108 -28 108 -89c0 -71 -55 -121 -102 -149c-35 -21 -75 -34 -116 -34c-55 0 -108 28 -108 89c0 71 55 121 102 149c35 21 75 34 116 34z" fill="currentColor"/>
</g>
</a>
<g transform="translate(99.1095, 17.4533)">
<rect x="-0.0650" y="-0.8100" width="0.1300" height="5.1239" ry="0.0400" fill="currentColor"/>
</g>
<a style="color:inherit;" xlink:href="textedit://C:/Users/har1sf0x/Documents/LilyPond%20-%20Frescobaldi/%ce%9a%ce%ac%cf%84%cf%89_%cf%83%cf%84%ce%bf_%ce%b3%ce%b9%ce%b1%ce%bb%cf%8c_%ce%b1.ly:22:33:34">
<g transform="translate(97.8703, 21.9533)">
<path transform="scale(0.0040, -0.0040)" d="M218 136c55 0 108 -28 108 -89c0 -71 -55 -121 -102 -149c-35 -21 -75 -34 -116 -34c-55 0 -108 28 -108 89c0 71 55 121 102 149c35 21 75 34 116 34z" fill="currentColor"/>
</g>
</a>
<a style="color:inherit;" xlink:href="textedit://C:/Users/har1sf0x/Documents/LilyPond%20-%20Frescobaldi/%ce%9a%ce%ac%cf%84%cf%89_%cf%83%cf%84%ce%bf_%ce%b3%ce%b9%ce%b1%ce%bb%cf%8c_%ce%b1.ly:22:31:32">
<g transform="translate(99.1095, 19.9533)">
<path transform="scale(0.0040, -0.0040)" d="M218 136c55 0 108 -28 108 -89c0 -71 -55 -121 -102 -149c-35 -21 -75 -34 -116 -34c-55 0 -108 28 -108 89c0 71 55 121 102 149c35 21 75 34 116 34z" fill="currentColor"/>
</g>
</a>
<g transform="translate(96.2661, 17.4533)">
<rect x="-0.0650" y="-0.8100" width="0.1300" height="5.1239" ry="0.0400" fill="currentColor"/>
</g>
<a style="color:inherit;" xlink:href="textedit://C:/Users/har1sf0x/Documents/LilyPond%20-%20Frescobaldi/%ce%9a%ce%ac%cf%84%cf%89_%cf%83%cf%84%ce%bf_%ce%b3%ce%b9%ce%b1%ce%bb%cf%8c_%ce%b1.ly:22:20:21">
<g transform="translate(95.0268, 21.9533)">
<path transform="scale(0.0040, -0.0040)" d="M218 136c55 0 108 -28 108 -89c0 -71 -55 -121 -102 -149c-35 -21 -75 -34 -116 -34c-55 0 -108 28 -108 89c0 71 55 121 102 149c35 21 75 34 116 34z" fill="currentColor"/>
</g>
</a>
<a style="color:inherit;" xlink:href="textedit://C:/Users/har1sf0x/Documents/LilyPond%20-%20Frescobaldi/%ce%9a%ce%ac%cf%84%cf%89_%cf%83%cf%84%ce%bf_%ce%b3%ce%b9%ce%b1%ce%bb%cf%8c_%ce%b1.ly:22:18:19">
<g transform="translate(96.2661, 19.9533)">
<path transform="scale(0.0040, -0.0040)" d="M218 136c55 0 108 -28 108 -89c0 -71 -55 -121 -102 -149c-35 -21 -75 -34 -116 -34c-55 0 -108 28 -108 89c0 71 55 121 102 149c35 21 75 34 116 34z" fill="currentColor"/>
</g>
</a>
<a style="color:inherit;" xlink:href="textedit://C:/Users/har1sf0x/Documents/LilyPond%20-%20Frescobaldi/%ce%9a%ce%ac%cf%84%cf%89_%cf%83%cf%84%ce%bf_%ce%b3%ce%b9%ce%b1%ce%bb%cf%8c_%ce%b1.ly:22:15:16">
<g transform="translate(95.0268, 19.9533)">
<path transform="scale(0.0040, -0.0040)" d="M218 136c55 0 108 -28 108 -89c0 -71 -55 -121 -102 -149c-35 -21 -75 -34 -116 -34c-55 0 -108 28 -108 89c0 71 55 121 102 149c35 21 75 34 116 34z" fill="currentColor"/>
</g>
</a>
<g transform="translate(94.4763, 17.4533)">
<rect x="-0.0650" y="-1.8159" width="0.1300" height="3.6298" ry="0.0400" fill="currentColor"/>
</g>
<a style="color:inherit;" xlink:href="textedit://C:/Users/har1sf0x/Documents/LilyPond%20-%20Frescobaldi/%ce%9a%ce%ac%cf%84%cf%89_%cf%83%cf%84%ce%bf_%ce%b3%ce%b9%ce%b1%ce%bb%cf%8c_%ce%b1.ly:16:20:21">
<g transform="translate(31.2354, 12.1389)">
<line stroke-linejoin="round" stroke-linecap="round" stroke-width="0.1380" stroke="currentColor" x1="0" y1="0" x2="0" y2="-1.6000"/>
</g>
<g transform="translate(31.2354, 12.5889)">
<path transform="scale(0.0036, -0.0036)" d="M-103 250c5 0 10 -1 14 -5c40 -35 70 -79 89 -128c19 49 49 93 89 128c4 4 9 5 14 5c11 0 22 -10 22 -22c0 -6 -2 -12 -7 -16c-61 -54 -96 -131 -96 -212c0 -14 -11 -22 -22 -22s-22 8 -22 22c0 81 -35 158 -96 212c-5 4 -7 10 -7 16c0 12 11 22 22 22z" fill="currentColor"/>
</g>
</a>
<a style="color:inherit;" xlink:href="textedit://C:/Users/har1sf0x/Documents/LilyPond%20-%20Frescobaldi/%ce%9a%ce%ac%cf%84%cf%89_%cf%83%cf%84%ce%bf_%ce%b3%ce%b9%ce%b1%ce%bb%cf%8c_%ce%b1.ly:16:18:19">
<g transform="translate(30.8256, 14.4033)">
<path transform="scale(0.0022, -0.0022)" d="M194 486c15 0 25 15 41 15c13 0 24 -13 24 -31v-341c0 -47 35 -86 81 -86c14 0 21 -10 21 -21s-7 -22 -21 -22c-49 0 -97 14 -146 14s-96 -14 -145 -14c-14 0 -22 11 -22 22s8 21 22 21c46 0 80 39 80 86v137c0 23 -16 35 -30 35c-7 0 -13 -4 -17 -11l-34 -65
c-5 -10 -14 -15 -23 -15c-14 0 -28 12 -28 27c0 4 1 8 3 13l129 250c2 4 7 6 11 6c20 0 35 -20 54 -20z" fill="currentColor"/>
</g>
</a>
<a style="color:inherit;" xlink:href="textedit://C:/Users/har1sf0x/Documents/LilyPond%20-%20Frescobaldi/%ce%9a%ce%ac%cf%84%cf%89_%cf%83%cf%84%ce%bf_%ce%b3%ce%b9%ce%b1%ce%bb%cf%8c_%ce%b1.ly:16:15:16">
<g transform="translate(30.5833, 18.4533)">
<path transform="scale(0.0040, -0.0040)" d="M218 136c55 0 108 -28 108 -89c0 -71 -55 -121 -102 -149c-35 -21 -75 -34 -116 -34c-55 0 -108 28 -108 89c0 71 55 121 102 149c35 21 75 34 116 34z" fill="currentColor"/>
</g>
</a>
<g transform="translate(31.8225, 17.4533)">
<rect x="-0.0650" y="-2.0000" width="0.1300" height="2.8139" ry="0.0400" fill="currentColor"/>
</g>
<g transform="translate(29.5471, 17.4533)">
<rect x="-0.0650" y="-2.0000" width="0.1300" height="2.8139" ry="0.0400" fill="currentColor"/>
</g>
<a style="color:inherit;" xlink:href="textedit://C:/Users/har1sf0x/Documents/LilyPond%20-%20Frescobaldi/%ce%9a%ce%ac%cf%84%cf%89_%cf%83%cf%84%ce%bf_%ce%b3%ce%b9%ce%b1%ce%bb%cf%8c_%ce%b1.ly:16:6:7">
<g transform="scale(1.0000, -1.0000)">
<g transform="translate(28.9600, -10.9983)">
<line stroke-linejoin="round" stroke-linecap="round" stroke-width="0.1380" stroke="currentColor" x1="0" y1="0" x2="0" y2="-1.6000"/>
</g>
<g transform="translate(28.9600, -10.5483)">
<path transform="scale(0.0036, -0.0036)" d="M-103 250c5 0 10 -1 14 -5c40 -35 70 -79 89 -128c19 49 49 93 89 128c4 4 9 5 14 5c11 0 22 -10 22 -22c0 -6 -2 -12 -7 -16c-61 -54 -96 -131 -96 -212c0 -14 -11 -22 -22 -22s-22 8 -22 22c0 81 -35 158 -96 212c-5 4 -7 10 -7 16c0 12 11 22 22 22z" fill="currentColor"/>
</g>
</g>
</a>
<a style="color:inherit;" xlink:href="textedit://C:/Users/har1sf0x/Documents/LilyPond%20-%20Frescobaldi/%ce%9a%ce%ac%cf%84%cf%89_%cf%83%cf%84%ce%bf_%ce%b3%ce%b9%ce%b1%ce%bb%cf%8c_%ce%b1.ly:16:4:5">
<g transform="translate(28.5503, 14.4033)">
<path transform="scale(0.0022, -0.0022)" d="M194 486c15 0 25 15 41 15c13 0 24 -13 24 -31v-341c0 -47 35 -86 81 -86c14 0 21 -10 21 -21s-7 -22 -21 -22c-49 0 -97 14 -146 14s-96 -14 -145 -14c-14 0 -22 11 -22 22s8 21 22 21c46 0 80 39 80 86v137c0 23 -16 35 -30 35c-7 0 -13 -4 -17 -11l-34 -65
c-5 -10 -14 -15 -23 -15c-14 0 -28 12 -28 27c0 4 1 8 3 13l129 250c2 4 7 6 11 6c20 0 35 -20 54 -20z" fill="currentColor"/>
</g>
</a>
<a style="color:inherit;" xlink:href="textedit://C:/Users/har1sf0x/Documents/LilyPond%20-%20Frescobaldi/%ce%9a%ce%ac%cf%84%cf%89_%cf%83%cf%84%ce%bf_%ce%b3%ce%b9%ce%b1%ce%bb%cf%8c_%ce%b1.ly:16:2:3">
<g transform="translate(28.3079, 18.4533)">
<path transform="scale(0.0040, -0.0040)" d="M218 136c55 0 108 -28 108 -89c0 -71 -55 -121 -102 -149c-35 -21 -75 -34 -116 -34c-55 0 -108 28 -108 89c0 71 55 121 102 149c35 21 75 34 116 34z" fill="currentColor"/>
</g>
</a>
<a style="color:inherit;" xlink:href="textedit://C:/Users/har1sf0x/Documents/LilyPond%20-%20Frescobaldi/%ce%9a%ce%ac%cf%84%cf%89_%cf%83%cf%84%ce%bf_%ce%b3%ce%b9%ce%b1%ce%bb%cf%8c_%ce%b1.ly:16:117:118">
<g transform="translate(36.4381, 19.4533)">
<path transform="scale(0.0040, -0.0040)" d="M218 136c55 0 108 -28 108 -89c0 -71 -55 -121 -102 -149c-35 -21 -75 -34 -116 -34c-55 0 -108 28 -108 89c0 71 55 121 102 149c35 21 75 34 116 34z" fill="currentColor"/>
</g>
</a>
<a style="color:inherit;" xlink:href="textedit://C:/Users/har1sf0x/Documents/LilyPond%20-%20Frescobaldi/%ce%9a%ce%ac%cf%84%cf%89_%cf%83%cf%84%ce%bf_%ce%b3%ce%b9%ce%b1%ce%bb%cf%8c_%ce%b1.ly:16:105:106">
<g transform="translate(36.4381, 18.4533)">
<path transform="scale(0.0040, -0.0040)" d="M218 136c55 0 108 -28 108 -89c0 -71 -55 -121 -102 -149c-35 -21 -75 -34 -116 -34c-55 0 -108 28 -108 89c0 71 55 121 102 149c35 21 75 34 116 34z" fill="currentColor"/>
</g>
</a>
<g transform="translate(35.4020, 17.4533)">
<rect x="-0.0650" y="-2.0000" width="0.1300" height="2.8139" ry="0.0400" fill="currentColor"/>
</g>
<a style="color:inherit;" xlink:href="textedit://C:/Users/har1sf0x/Documents/LilyPond%20-%20Frescobaldi/%ce%9a%ce%ac%cf%84%cf%89_%cf%83%cf%84%ce%bf_%ce%b3%ce%b9%ce%b1%ce%bb%cf%8c_%ce%b1.ly:16:47:48">
<g transform="translate(34.8149, 12.1389)">
<line stroke-linejoin="round" stroke-linecap="round" stroke-width="0.1380" stroke="currentColor" x1="0" y1="0" x2="0" y2="-1.6000"/>
</g>
<g transform="translate(34.8149, 12.5889)">
<path transform="scale(0.0036, -0.0036)" d="M-103 250c5 0 10 -1 14 -5c40 -35 70 -79 89 -128c19 49 49 93 89 128c4 4 9 5 14 5c11 0 22 -10 22 -22c0 -6 -2 -12 -7 -16c-61 -54 -96 -131 -96 -212c0 -14 -11 -22 -22 -22s-22 8 -22 22c0 81 -35 158 -96 212c-5 4 -7 10 -7 16c0 12 11 22 22 22z" fill="currentColor"/>
</g>
</a>
<a style="color:inherit;" xlink:href="textedit://C:/Users/har1sf0x/Documents/LilyPond%20-%20Frescobaldi/%ce%9a%ce%ac%cf%84%cf%89_%cf%83%cf%84%ce%bf_%ce%b3%ce%b9%ce%b1%ce%bb%cf%8c_%ce%b1.ly:16:43:44">
<g transform="translate(34.1628, 18.4533)">
<path transform="scale(0.0040, -0.0040)" d="M218 136c55 0 108 -28 108 -89c0 -71 -55 -121 -102 -149c-35 -21 -75 -34 -116 -34c-55 0 -108 28 -108 89c0 71 55 121 102 149c35 21 75 34 116 34z" fill="currentColor"/>
</g>
</a>
<g transform="translate(26.2547, 17.4533)">
<rect x="-0.0650" y="-2.1849" width="0.1300" height="2.4988" ry="0.0400" fill="currentColor"/>
</g>
<g transform="translate(33.6122, 17.4533)">
<rect x="-0.0650" y="-2.0000" width="0.1300" height="2.8139" ry="0.0400" fill="currentColor"/>
</g>
<a style="color:inherit;" xlink:href="textedit://C:/Users/har1sf0x/Documents/LilyPond%20-%20Frescobaldi/%ce%9a%ce%ac%cf%84%cf%89_%cf%83%cf%84%ce%bf_%ce%b3%ce%b9%ce%b1%ce%bb%cf%8c_%ce%b1.ly:16:34:35">
<g transform="scale(1.0000, -1.0000)">
<g transform="translate(33.0251, -10.9983)">
<line stroke-linejoin="round" stroke-linecap="round" stroke-width="0.1380" stroke="currentColor" x1="0" y1="0" x2="0" y2="-1.6000"/>
</g>
<g transform="translate(33.0251, -10.5483)">
<path transform="scale(0.0036, -0.0036)" d="M-103 250c5 0 10 -1 14 -5c40 -35 70 -79 89 -128c19 49 49 93 89 128c4 4 9 5 14 5c11 0 22 -10 22 -22c0 -6 -2 -12 -7 -16c-61 -54 -96 -131 -96 -212c0 -14 -11 -22 -22 -22s-22 8 -22 22c0 81 -35 158 -96 212c-5 4 -7 10 -7 16c0 12 11 22 22 22z" fill="currentColor"/>
</g>
</g>
</a>
<a style="color:inherit;" xlink:href="textedit://C:/Users/har1sf0x/Documents/LilyPond%20-%20Frescobaldi/%ce%9a%ce%ac%cf%84%cf%89_%cf%83%cf%84%ce%bf_%ce%b3%ce%b9%ce%b1%ce%bb%cf%8c_%ce%b1.ly:16:32:33">
<g transform="translate(32.6154, 14.4033)">
<path transform="scale(0.0022, -0.0022)" d="M194 486c15 0 25 15 41 15c13 0 24 -13 24 -31v-341c0 -47 35 -86 81 -86c14 0 21 -10 21 -21s-7 -22 -21 -22c-49 0 -97 14 -146 14s-96 -14 -145 -14c-14 0 -22 11 -22 22s8 21 22 21c46 0 80 39 80 86v137c0 23 -16 35 -30 35c-7 0 -13 -4 -17 -11l-34 -65
c-5 -10 -14 -15 -23 -15c-14 0 -28 12 -28 27c0 4 1 8 3 13l129 250c2 4 7 6 11 6c20 0 35 -20 54 -20z" fill="currentColor"/>
</g>
</a>
<a style="color:inherit;" xlink:href="textedit://C:/Users/har1sf0x/Documents/LilyPond%20-%20Frescobaldi/%ce%9a%ce%ac%cf%84%cf%89_%cf%83%cf%84%ce%bf_%ce%b3%ce%b9%ce%b1%ce%bb%cf%8c_%ce%b1.ly:16:31:32">
<g transform="translate(32.3730, 18.4533)">
<path transform="scale(0.0040, -0.0040)" d="M218 136c55 0 108 -28 108 -89c0 -71 -55 -121 -102 -149c-35 -21 -75 -34 -116 -34c-55 0 -108 28 -108 89c0 71 55 121 102 149c35 21 75 34 116 34z" fill="currentColor"/>
</g>
</a>
<g transform="translate(20.3998, 17.4533)">
<rect x="-0.0650" y="-1.9160" width="0.1300" height="3.2299" ry="0.0400" fill="currentColor"/>
</g>
<a style="color:inherit;" xlink:href="textedit://C:/Users/har1sf0x/Documents/LilyPond%20-%20Frescobaldi/%ce%9a%ce%ac%cf%84%cf%89_%cf%83%cf%84%ce%bf_%ce%b3%ce%b9%ce%b1%ce%bb%cf%8c_%ce%b1.ly:15:24:25">
<g transform="translate(19.8127, 12.1389)">
<line stroke-linejoin="round" stroke-linecap="round" stroke-width="0.1380" stroke="currentColor" x1="0" y1="0" x2="0" y2="-1.6000"/>
</g>
<g transform="translate(19.8127, 12.5889)">
<path transform="scale(0.0036, -0.0036)" d="M-103 250c5 0 10 -1 14 -5c40 -35 70 -79 89 -128c19 49 49 93 89 128c4 4 9 5 14 5c11 0 22 -10 22 -22c0 -6 -2 -12 -7 -16c-61 -54 -96 -131 -96 -212c0 -14 -11 -22 -22 -22s-22 8 -22 22c0 81 -35 158 -96 212c-5 4 -7 10 -7 16c0 12 11 22 22 22z" fill="currentColor"/>
</g>
</a>
<a style="color:inherit;" xlink:href="textedit://C:/Users/har1sf0x/Documents/LilyPond%20-%20Frescobaldi/%ce%9a%ce%ac%cf%84%cf%89_%cf%83%cf%84%ce%bf_%ce%b3%ce%b9%ce%b1%ce%bb%cf%8c_%ce%b1.ly:15:22:23">
<g transform="translate(19.4030, 14.4033)">
<path transform="scale(0.0022, -0.0022)" d="M194 486c15 0 25 15 41 15c13 0 24 -13 24 -31v-341c0 -47 35 -86 81 -86c14 0 21 -10 21 -21s-7 -22 -21 -22c-49 0 -97 14 -146 14s-96 -14 -145 -14c-14 0 -22 11 -22 22s8 21 22 21c46 0 80 39 80 86v137c0 23 -16 35 -30 35c-7 0 -13 -4 -17 -11l-34 -65
c-5 -10 -14 -15 -23 -15c-14 0 -28 12 -28 27c0 4 1 8 3 13l129 250c2 4 7 6 11 6c20 0 35 -20 54 -20z" fill="currentColor"/>
</g>
</a>
<a style="color:inherit;" xlink:href="textedit://C:/Users/har1sf0x/Documents/LilyPond%20-%20Frescobaldi/%ce%9a%ce%ac%cf%84%cf%89_%cf%83%cf%84%ce%bf_%ce%b3%ce%b9%ce%b1%ce%bb%cf%8c_%ce%b1.ly:15:19:20">
<g transform="translate(19.1606, 18.9533)">
<path transform="scale(0.0040, -0.0040)" d="M218 136c55 0 108 -28 108 -89c0 -71 -55 -121 -102 -149c-35 -21 -75 -34 -116 -34c-55 0 -108 28 -108 89c0 71 55 121 102 149c35 21 75 34 116 34z" fill="currentColor"/>
</g>
</a>
<g transform="translate(18.1245, 17.4533)">
<rect x="-0.0650" y="-1.8129" width="0.1300" height="3.6268" ry="0.0400" fill="currentColor"/>
</g>
<a style="color:inherit;" xlink:href="textedit://C:/Users/har1sf0x/Documents/LilyPond%20-%20Frescobaldi/%ce%9a%ce%ac%cf%84%cf%89_%cf%83%cf%84%ce%bf_%ce%b3%ce%b9%ce%b1%ce%bb%cf%8c_%ce%b1.ly:14:2:3">
<g transform="translate(5.6906, 13.3517)">
<text font-family="serif" font-size="2.6163" text-anchor="start" fill="currentColor">
<tspan>A</tspan>
</text>
</g>
</a>
<a style="color:inherit;" xlink:href="textedit://C:/Users/har1sf0x/Documents/LilyPond%20-%20Frescobaldi/%ce%9a%ce%ac%cf%84%cf%89_%cf%83%cf%84%ce%bf_%ce%b3%ce%b9%ce%b1%ce%bb%cf%8c_%ce%b1.ly:13:2:3">
<g transform="translate(13.3489, 17.4533)">
<path transform="scale(0.0040, -0.0040)" d="M102 135c9 2 18 3 27 3c33 0 70 -11 105 -36c21 -15 46 -23 66 -23c21 0 39 9 44 29c2 6 6 9 11 9c6 0 12 -5 12 -12c0 -67 -90 -105 -138 -105c-36 0 -71 14 -96 44c-13 16 -31 22 -48 22c-30 0 -59 -20 -62 -55c-1 -7 -6 -11 -11 -11c-6 0 -12 4 -12 11
c0 174 232 166 232 344c0 59 -16 122 -67 122c-25 0 -49 -14 -49 -37c0 -27 35 -41 35 -68c0 -38 -31 -69 -69 -69s-69 31 -69 69c0 76 72 128 152 128c95 0 183 -57 183 -145c0 -151 -150 -159 -246 -220z" fill="currentColor"/>
</g>
<g transform="translate(13.2806, 19.4693)">
<path transform="scale(0.0040, -0.0040)" d="M196 117h117c0 -48 27 -94 72 -94c8 0 12 -5 12 -11s-4 -12 -12 -12c-44 0 -87 13 -131 13s-87 -13 -131 -13c-8 0 -12 6 -12 12s4 11 12 11c45 0 73 46 73 94zM204 307c22 14 44 29 60 50c11 15 19 33 27 50c2 4 5 6 9 6c6 0 13 -5 13 -14v-245h72c10 0 15 -7 15 -14
s-5 -15 -15 -15h-72v-8h-117v8h-167c-23 0 -31 14 -31 23c0 3 1 5 2 6c80 93 138 207 138 330c0 10 7 19 16 16c23 -7 47 -13 71 -13s48 6 71 13c14 4 23 -9 17 -16l-284 -330h167v131c0 8 1 17 8 22z" fill="currentColor"/>
</g>
</a>
<g transform="translate(10.1106, 15.9533)">
<path transform="scale(0.0040, -0.0040)" d="M143 41c-1 33 -22 63 -53 63c-29 0 -43 -34 -43 -67c0 -59 48 -101 93 -139c3 22 4 44 4 66v11zM185 -138c0 -14 -10 -25 -23 -25c-21 0 -30 25 -45 38c-61 52 -147 89 -147 169c0 54 37 102 89 102c33 0 66 -13 91 -34l-7 345c8 5 18 8 27 8s19 -3 27 -8z" fill="currentColor"/>
</g>
<g transform="translate(11.3306, 17.4533)">
<path transform="scale(0.0040, -0.0040)" d="M143 41c-1 33 -22 63 -53 63c-29 0 -43 -34 -43 -67c0 -59 48 -101 93 -139c3 22 4 44 4 66v11zM185 -138c0 -14 -10 -25 -23 -25c-21 0 -30 25 -45 38c-61 52 -147 89 -147 169c0 54 37 102 89 102c33 0 66 -13 91 -34l-7 345c8 5 18 8 27 8s19 -3 27 -8z" fill="currentColor"/>
</g>
<g transform="translate(6.4906, 18.4533)">
<path transform="scale(0.0040, -0.0040)" d="M266 -635h-6c-108 0 -195 88 -195 197c0 58 53 103 112 103c54 0 95 -47 95 -103c0 -52 -43 -95 -95 -95c-11 0 -21 2 -31 6c26 -39 68 -65 117 -65h4zM461 -203c68 24 113 95 113 164c0 90 -66 179 -173 190c24 -116 46 -231 60 -354zM74 28c0 -135 129 -247 264 -247
c28 0 55 2 82 6c-14 127 -37 245 -63 364c-79 -8 -124 -61 -124 -119c0 -44 25 -91 81 -123c5 -5 7 -10 7 -15c0 -11 -10 -22 -22 -22c-3 0 -6 1 -9 2c-80 43 -117 115 -117 185c0 88 58 174 160 197c-14 58 -29 117 -46 175c-107 -121 -213 -243 -213 -403zM335 -262
c-188 0 -333 172 -333 374c0 177 131 306 248 441c-19 62 -37 125 -45 190c-6 52 -7 104 -7 156c0 115 55 224 149 292c6 5 14 5 20 0c71 -84 133 -245 133 -358c0 -143 -86 -255 -180 -364c21 -68 39 -138 56 -207c4 0 9 1 13 1c155 0 256 -128 256 -261
c0 -76 -33 -154 -107 -210c-22 -17 -47 -28 -73 -36c3 -35 5 -70 5 -105c0 -19 -1 -39 -2 -58c-7 -119 -88 -225 -202 -228l1 43c93 2 153 92 159 191c1 18 2 37 2 55c0 31 -1 61 -4 92c-29 -5 -58 -8 -89 -8zM428 916c0 55 -4 79 -20 129c-99 -48 -162 -149 -162 -259
c0 -74 18 -133 36 -194c80 97 146 198 146 324z" fill="currentColor"/>
</g>
<a style="color:inherit;" xlink:href="textedit://C:/Users/har1sf0x/Documents/LilyPond%20-%20Frescobaldi/%ce%9a%ce%ac%cf%84%cf%89_%cf%83%cf%84%ce%bf_%ce%b3%ce%b9%ce%b1%ce%bb%cf%8c_%ce%b1.ly:15:8:9">
<g transform="translate(17.5374, 12.1389)">
<line stroke-linejoin="round" stroke-linecap="round" stroke-width="0.1380" stroke="currentColor" x1="0" y1="0" x2="0" y2="-1.6000"/>
</g>
<g transform="translate(17.5374, 12.5889)">
<path transform="scale(0.0036, -0.0036)" d="M-103 250c5 0 10 -1 14 -5c40 -35 70 -79 89 -128c19 49 49 93 89 128c4 4 9 5 14 5c11 0 22 -10 22 -22c0 -6 -2 -12 -7 -16c-61 -54 -96 -131 -96 -212c0 -14 -11 -22 -22 -22s-22 8 -22 22c0 81 -35 158 -96 212c-5 4 -7 10 -7 16c0 12 11 22 22 22z" fill="currentColor"/>
</g>
</a>
<a style="color:inherit;" xlink:href="textedit://C:/Users/har1sf0x/Documents/LilyPond%20-%20Frescobaldi/%ce%9a%ce%ac%cf%84%cf%89_%cf%83%cf%84%ce%bf_%ce%b3%ce%b9%ce%b1%ce%bb%cf%8c_%ce%b1.ly:15:6:7">
<g transform="translate(17.1277, 14.4033)">
<path transform="scale(0.0022, -0.0022)" d="M194 486c15 0 25 15 41 15c13 0 24 -13 24 -31v-341c0 -47 35 -86 81 -86c14 0 21 -10 21 -21s-7 -22 -21 -22c-49 0 -97 14 -146 14s-96 -14 -145 -14c-14 0 -22 11 -22 22s8 21 22 21c46 0 80 39 80 86v137c0 23 -16 35 -30 35c-7 0 -13 -4 -17 -11l-34 -65
c-5 -10 -14 -15 -23 -15c-14 0 -28 12 -28 27c0 4 1 8 3 13l129 250c2 4 7 6 11 6c20 0 35 -20 54 -20z" fill="currentColor"/>
</g>
</a>
<a style="color:inherit;" xlink:href="textedit://C:/Users/har1sf0x/Documents/LilyPond%20-%20Frescobaldi/%ce%9a%ce%ac%cf%84%cf%89_%cf%83%cf%84%ce%bf_%ce%b3%ce%b9%ce%b1%ce%bb%cf%8c_%ce%b1.ly:15:2:3">
<g transform="translate(16.8853, 19.4533)">
<path transform="scale(0.0040, -0.0040)" d="M218 136c55 0 108 -28 108 -89c0 -71 -55 -121 -102 -149c-35 -21 -75 -34 -116 -34c-55 0 -108 28 -108 89c0 71 55 121 102 149c35 21 75 34 116 34z" fill="currentColor"/>
</g>
</a>
<a style="color:inherit;" xlink:href="textedit://C:/Users/har1sf0x/Documents/LilyPond%20-%20Frescobaldi/%ce%9a%ce%ac%cf%84%cf%89_%cf%83%cf%84%ce%bf_%ce%b3%ce%b9%ce%b1%ce%bb%cf%8c_%ce%b1.ly:15:65:66">
<g transform="scale(1.0000, -1.0000)">
<g transform="translate(25.6676, -11.0117)">
<line stroke-linejoin="round" stroke-linecap="round" stroke-width="0.1380" stroke="currentColor" x1="0" y1="0" x2="0" y2="-1.6000"/>
</g>
<g transform="translate(25.6676, -10.5617)">
<path transform="scale(0.0036, -0.0036)" d="M-103 250c5 0 10 -1 14 -5c40 -35 70 -79 89 -128c19 49 49 93 89 128c4 4 9 5 14 5c11 0 22 -10 22 -22c0 -6 -2 -12 -7 -16c-61 -54 -96 -131 -96 -212c0 -14 -11 -22 -22 -22s-22 8 -22 22c0 81 -35 158 -96 212c-5 4 -7 10 -7 16c0 12 11 22 22 22z" fill="currentColor"/>
</g>
</g>
</a>
<a style="color:inherit;" xlink:href="textedit://C:/Users/har1sf0x/Documents/LilyPond%20-%20Frescobaldi/%ce%9a%ce%ac%cf%84%cf%89_%cf%83%cf%84%ce%bf_%ce%b3%ce%b9%ce%b1%ce%bb%cf%8c_%ce%b1.ly:15:63:64">
<g transform="translate(25.2749, 14.4033)">
<path transform="scale(0.0022, -0.0022)" d="M155 457c-34 0 -71 -8 -71 -38c0 -19 32 -23 32 -42c0 -28 -23 -51 -51 -51s-51 23 -51 51c0 72 66 123 141 123c93 0 174 -31 174 -113c0 -36 -10 -65 -42 -80c-17 -8 -26 -25 -26 -41s9 -32 26 -40c37 -17 59 -45 59 -85c0 -94 -83 -141 -186 -141
c-84 0 -160 54 -160 133c0 32 26 58 58 58s58 -26 58 -58c0 -22 -36 -26 -36 -48c0 -33 42 -42 80 -42c41 0 56 50 56 98v21c0 44 -2 77 -43 77h-65c-18 0 -27 14 -27 27s9 27 27 27h65c42 0 43 36 43 83v11c0 43 -20 70 -61 70z" fill="currentColor"/>
</g>
</a>
<a style="color:inherit;" xlink:href="textedit://C:/Users/har1sf0x/Documents/LilyPond%20-%20Frescobaldi/%ce%9a%ce%ac%cf%84%cf%89_%cf%83%cf%84%ce%bf_%ce%b3%ce%b9%ce%b1%ce%bb%cf%8c_%ce%b1.ly:15:62:63">
<g transform="translate(25.0155, 17.9533)">
<path transform="scale(0.0040, -0.0040)" d="M218 136c55 0 108 -28 108 -89c0 -71 -55 -121 -102 -149c-35 -21 -75 -34 -116 -34c-55 0 -108 28 -108 89c0 71 55 121 102 149c35 21 75 34 116 34z" fill="currentColor"/>
</g>
</a>
<g transform="translate(23.9794, 17.4533)">
<rect x="-0.0650" y="-2.0051" width="0.1300" height="2.8190" ry="0.0400" fill="currentColor"/>
</g>
<a style="color:inherit;" xlink:href="textedit://C:/Users/har1sf0x/Documents/LilyPond%20-%20Frescobaldi/%ce%9a%ce%ac%cf%84%cf%89_%cf%83%cf%84%ce%bf_%ce%b3%ce%b9%ce%b1%ce%bb%cf%8c_%ce%b1.ly:15:51:52">
<g transform="translate(23.3923, 12.1389)">
<line stroke-linejoin="round" stroke-linecap="round" stroke-width="0.1380" stroke="currentColor" x1="0" y1="0" x2="0" y2="-1.6000"/>
</g>
<g transform="translate(23.3923, 12.5889)">
<path transform="scale(0.0036, -0.0036)" d="M-103 250c5 0 10 -1 14 -5c40 -35 70 -79 89 -128c19 49 49 93 89 128c4 4 9 5 14 5c11 0 22 -10 22 -22c0 -6 -2 -12 -7 -16c-61 -54 -96 -131 -96 -212c0 -14 -11 -22 -22 -22s-22 8 -22 22c0 81 -35 158 -96 212c-5 4 -7 10 -7 16c0 12 11 22 22 22z" fill="currentColor"/>
</g>
</a>
<a style="color:inherit;" xlink:href="textedit://C:/Users/har1sf0x/Documents/LilyPond%20-%20Frescobaldi/%ce%9a%ce%ac%cf%84%cf%89_%cf%83%cf%84%ce%bf_%ce%b3%ce%b9%ce%b1%ce%bb%cf%8c_%ce%b1.ly:15:49:50">
<g transform="translate(22.9826, 14.4033)">
<path transform="scale(0.0022, -0.0022)" d="M194 486c15 0 25 15 41 15c13 0 24 -13 24 -31v-341c0 -47 35 -86 81 -86c14 0 21 -10 21 -21s-7 -22 -21 -22c-49 0 -97 14 -146 14s-96 -14 -145 -14c-14 0 -22 11 -22 22s8 21 22 21c46 0 80 39 80 86v137c0 23 -16 35 -30 35c-7 0 -13 -4 -17 -11l-34 -65
c-5 -10 -14 -15 -23 -15c-14 0 -28 12 -28 27c0 4 1 8 3 13l129 250c2 4 7 6 11 6c20 0 35 -20 54 -20z" fill="currentColor"/>
</g>
</a>
<a style="color:inherit;" xlink:href="textedit://C:/Users/har1sf0x/Documents/LilyPond%20-%20Frescobaldi/%ce%9a%ce%ac%cf%84%cf%89_%cf%83%cf%84%ce%bf_%ce%b3%ce%b9%ce%b1%ce%bb%cf%8c_%ce%b1.ly:15:47:48">
<g transform="translate(22.7402, 18.4533)">
<path transform="scale(0.0040, -0.0040)" d="M218 136c55 0 108 -28 108 -89c0 -71 -55 -121 -102 -149c-35 -21 -75 -34 -116 -34c-55 0 -108 28 -108 89c0 71 55 121 102 149c35 21 75 34 116 34z" fill="currentColor"/>
</g>
</a>
<a style="color:inherit;" xlink:href="textedit://C:/Users/har1sf0x/Documents/LilyPond%20-%20Frescobaldi/%ce%9a%ce%ac%cf%84%cf%89_%cf%83%cf%84%ce%bf_%ce%b3%ce%b9%ce%b1%ce%bb%cf%8c_%ce%b1.ly:16:45:46">
<g transform="translate(34.4052, 14.4033)">
<path transform="scale(0.0022, -0.0022)" d="M194 486c15 0 25 15 41 15c13 0 24 -13 24 -31v-341c0 -47 35 -86 81 -86c14 0 21 -10 21 -21s-7 -22 -21 -22c-49 0 -97 14 -146 14s-96 -14 -145 -14c-14 0 -22 11 -22 22s8 21 22 21c46 0 80 39 80 86v137c0 23 -16 35 -30 35c-7 0 -13 -4 -17 -11l-34 -65
c-5 -10 -14 -15 -23 -15c-14 0 -28 12 -28 27c0 4 1 8 3 13l129 250c2 4 7 6 11 6c20 0 35 -20 54 -20z" fill="currentColor"/>
</g>
</a>
<g transform="translate(22.1896, 17.4533)">
<rect x="-0.0650" y="-1.9971" width="0.1300" height="3.3110" ry="0.0400" fill="currentColor"/>
</g>
<a style="color:inherit;" xlink:href="textedit://C:/Users/har1sf0x/Documents/LilyPond%20-%20Frescobaldi/%ce%9a%ce%ac%cf%84%cf%89_%cf%83%cf%84%ce%bf_%ce%b3%ce%b9%ce%b1%ce%bb%cf%8c_%ce%b1.ly:15:38:39">
<g transform="scale(1.0000, -1.0000)">
<g transform="translate(21.6025, -10.9983)">
<line stroke-linejoin="round" stroke-linecap="round" stroke-width="0.1380" stroke="currentColor" x1="0" y1="0" x2="0" y2="-1.6000"/>
</g>
<g transform="translate(21.6025, -10.5483)">
<path transform="scale(0.0036, -0.0036)" d="M-103 250c5 0 10 -1 14 -5c40 -35 70 -79 89 -128c19 49 49 93 89 128c4 4 9 5 14 5c11 0 22 -10 22 -22c0 -6 -2 -12 -7 -16c-61 -54 -96 -131 -96 -212c0 -14 -11 -22 -22 -22s-22 8 -22 22c0 81 -35 158 -96 212c-5 4 -7 10 -7 16c0 12 11 22 22 22z" fill="currentColor"/>
</g>
</g>
</a>
<a style="color:inherit;" xlink:href="textedit://C:/Users/har1sf0x/Documents/LilyPond%20-%20Frescobaldi/%ce%9a%ce%ac%cf%84%cf%89_%cf%83%cf%84%ce%bf_%ce%b3%ce%b9%ce%b1%ce%bb%cf%8c_%ce%b1.ly:15:36:37">
<g transform="translate(21.1928, 14.4033)">
<path transform="scale(0.0022, -0.0022)" d="M194 486c15 0 25 15 41 15c13 0 24 -13 24 -31v-341c0 -47 35 -86 81 -86c14 0 21 -10 21 -21s-7 -22 -21 -22c-49 0 -97 14 -146 14s-96 -14 -145 -14c-14 0 -22 11 -22 22s8 21 22 21c46 0 80 39 80 86v137c0 23 -16 35 -30 35c-7 0 -13 -4 -17 -11l-34 -65
c-5 -10 -14 -15 -23 -15c-14 0 -28 12 -28 27c0 4 1 8 3 13l129 250c2 4 7 6 11 6c20 0 35 -20 54 -20z" fill="currentColor"/>
</g>
</a>
<a style="color:inherit;" xlink:href="textedit://C:/Users/har1sf0x/Documents/LilyPond%20-%20Frescobaldi/%ce%9a%ce%ac%cf%84%cf%89_%cf%83%cf%84%ce%bf_%ce%b3%ce%b9%ce%b1%ce%bb%cf%8c_%ce%b1.ly:15:35:36">
<g transform="translate(20.9504, 18.9533)">
<path transform="scale(0.0040, -0.0040)" d="M218 136c55 0 108 -28 108 -89c0 -71 -55 -121 -102 -149c-35 -21 -75 -34 -116 -34c-55 0 -108 28 -108 89c0 71 55 121 102 149c35 21 75 34 116 34z" fill="currentColor"/>
</g>
</a>
<a style="color:inherit;" xlink:href="textedit://C:/Users/har1sf0x/Documents/LilyPond%20-%20Frescobaldi/%ce%9a%ce%ac%cf%84%cf%89_%cf%83%cf%84%ce%bf_%ce%b3%ce%b9%ce%b1%ce%bb%cf%8c_%ce%b1.ly:17:47:48">
<g transform="translate(45.9125, 14.4033)">
<path transform="scale(0.0022, -0.0022)" d="M194 486c15 0 25 15 41 15c13 0 24 -13 24 -31v-341c0 -47 35 -86 81 -86c14 0 21 -10 21 -21s-7 -22 -21 -22c-49 0 -97 14 -146 14s-96 -14 -145 -14c-14 0 -22 11 -22 22s8 21 22 21c46 0 80 39 80 86v137c0 23 -16 35 -30 35c-7 0 -13 -4 -17 -11l-34 -65
c-5 -10 -14 -15 -23 -15c-14 0 -28 12 -28 27c0 4 1 8 3 13l129 250c2 4 7 6 11 6c20 0 35 -20 54 -20z" fill="currentColor"/>
</g>
</a>
<g transform="translate(49.1847, 17.4533)">
<rect x="-0.0650" y="-1.0051" width="0.1300" height="2.8190" ry="0.0400" fill="currentColor"/>
</g>
<a style="color:inherit;" xlink:href="textedit://C:/Users/har1sf0x/Documents/LilyPond%20-%20Frescobaldi/%ce%9a%ce%ac%cf%84%cf%89_%cf%83%cf%84%ce%bf_%ce%b3%ce%b9%ce%b1%ce%bb%cf%8c_%ce%b1.ly:17:65:66">
<g transform="scale(1.0000, -1.0000)">
<g transform="translate(48.5975, -10.9983)">
<line stroke-linejoin="round" stroke-linecap="round" stroke-width="0.1380" stroke="currentColor" x1="0" y1="0" x2="0" y2="-1.6000"/>
</g>
<g transform="translate(48.5975, -10.5483)">
<path transform="scale(0.0036, -0.0036)" d="M-103 250c5 0 10 -1 14 -5c40 -35 70 -79 89 -128c19 49 49 93 89 128c4 4 9 5 14 5c11 0 22 -10 22 -22c0 -6 -2 -12 -7 -16c-61 -54 -96 -131 -96 -212c0 -14 -11 -22 -22 -22s-22 8 -22 22c0 81 -35 158 -96 212c-5 4 -7 10 -7 16c0 12 11 22 22 22z" fill="currentColor"/>
</g>
</g>
</a>
<a style="color:inherit;" xlink:href="textedit://C:/Users/har1sf0x/Documents/LilyPond%20-%20Frescobaldi/%ce%9a%ce%ac%cf%84%cf%89_%cf%83%cf%84%ce%bf_%ce%b3%ce%b9%ce%b1%ce%bb%cf%8c_%ce%b1.ly:17:63:64">
<g transform="translate(48.1878, 14.4033)">
<path transform="scale(0.0022, -0.0022)" d="M194 486c15 0 25 15 41 15c13 0 24 -13 24 -31v-341c0 -47 35 -86 81 -86c14 0 21 -10 21 -21s-7 -22 -21 -22c-49 0 -97 14 -146 14s-96 -14 -145 -14c-14 0 -22 11 -22 22s8 21 22 21c46 0 80 39 80 86v137c0 23 -16 35 -30 35c-7 0 -13 -4 -17 -11l-34 -65
c-5 -10 -14 -15 -23 -15c-14 0 -28 12 -28 27c0 4 1 8 3 13l129 250c2 4 7 6 11 6c20 0 35 -20 54 -20z" fill="currentColor"/>
</g>
</a>
<a style="color:inherit;" xlink:href="textedit://C:/Users/har1sf0x/Documents/LilyPond%20-%20Frescobaldi/%ce%9a%ce%ac%cf%84%cf%89_%cf%83%cf%84%ce%bf_%ce%b3%ce%b9%ce%b1%ce%bb%cf%8c_%ce%b1.ly:17:60:61">
<g transform="translate(47.9454, 19.4533)">
<path transform="scale(0.0040, -0.0040)" d="M218 136c55 0 108 -28 108 -89c0 -71 -55 -121 -102 -149c-35 -21 -75 -34 -116 -34c-55 0 -108 28 -108 89c0 71 55 121 102 149c35 21 75 34 116 34z" fill="currentColor"/>
</g>
</a>
<g transform="translate(46.9093, 17.4533)">
<rect x="-0.0650" y="-1.1849" width="0.1300" height="2.4988" ry="0.0400" fill="currentColor"/>
</g>
<a style="color:inherit;" xlink:href="textedit://C:/Users/har1sf0x/Documents/LilyPond%20-%20Frescobaldi/%ce%9a%ce%ac%cf%84%cf%89_%cf%83%cf%84%ce%bf_%ce%b3%ce%b9%ce%b1%ce%bb%cf%8c_%ce%b1.ly:17:49:50">
<g transform="translate(46.3222, 12.1389)">
<line stroke-linejoin="round" stroke-linecap="round" stroke-width="0.1380" stroke="currentColor" x1="0" y1="0" x2="0" y2="-1.6000"/>
</g>
<g transform="translate(46.3222, 12.5889)">
<path transform="scale(0.0036, -0.0036)" d="M-103 250c5 0 10 -1 14 -5c40 -35 70 -79 89 -128c19 49 49 93 89 128c4 4 9 5 14 5c11 0 22 -10 22 -22c0 -6 -2 -12 -7 -16c-61 -54 -96 -131 -96 -212c0 -14 -11 -22 -22 -22s-22 8 -22 22c0 81 -35 158 -96 212c-5 4 -7 10 -7 16c0 12 11 22 22 22z" fill="currentColor"/>
</g>
</a>
<a style="color:inherit;" xlink:href="textedit://C:/Users/har1sf0x/Documents/LilyPond%20-%20Frescobaldi/%ce%9a%ce%ac%cf%84%cf%89_%cf%83%cf%84%ce%bf_%ce%b3%ce%b9%ce%b1%ce%bb%cf%8c_%ce%b1.ly:17:45:46">
<g transform="translate(45.6701, 18.9533)">
<path transform="scale(0.0040, -0.0040)" d="M218 136c55 0 108 -28 108 -89c0 -71 -55 -121 -102 -149c-35 -21 -75 -34 -116 -34c-55 0 -108 28 -108 89c0 71 55 121 102 149c35 21 75 34 116 34z" fill="currentColor"/>
</g>
</a>
<g transform="translate(37.6773, 17.4533)">
<rect x="-0.0650" y="-2.0000" width="0.1300" height="3.8139" ry="0.0400" fill="currentColor"/>
</g>
<g transform="translate(45.1196, 17.4533)">
<rect x="-0.0650" y="-2.8129" width="0.1300" height="3.6268" ry="0.0400" fill="currentColor"/>
</g>
<a style="color:inherit;" xlink:href="textedit://C:/Users/har1sf0x/Documents/LilyPond%20-%20Frescobaldi/%ce%9a%ce%ac%cf%84%cf%89_%cf%83%cf%84%ce%bf_%ce%b3%ce%b9%ce%b1%ce%bb%cf%8c_%ce%b1.ly:17:36:37">
<g transform="scale(1.0000, -1.0000)">
<g transform="translate(44.5325, -10.4953)">
<line stroke-linejoin="round" stroke-linecap="round" stroke-width="0.1380" stroke="currentColor" x1="0" y1="0" x2="0" y2="-1.6000"/>
</g>
<g transform="translate(44.5325, -10.0453)">
<path transform="scale(0.0036, -0.0036)" d="M-103 250c5 0 10 -1 14 -5c40 -35 70 -79 89 -128c19 49 49 93 89 128c4 4 9 5 14 5c11 0 22 -10 22 -22c0 -6 -2 -12 -7 -16c-61 -54 -96 -131 -96 -212c0 -14 -11 -22 -22 -22s-22 8 -22 22c0 81 -35 158 -96 212c-5 4 -7 10 -7 16c0 12 11 22 22 22z" fill="currentColor"/>
</g>
</g>
</a>
<a style="color:inherit;" xlink:href="textedit://C:/Users/har1sf0x/Documents/LilyPond%20-%20Frescobaldi/%ce%9a%ce%ac%cf%84%cf%89_%cf%83%cf%84%ce%bf_%ce%b3%ce%b9%ce%b1%ce%bb%cf%8c_%ce%b1.ly:17:34:35">
<g transform="translate(44.1227, 13.9003)">
<path transform="scale(0.0022, -0.0022)" d="M194 486c15 0 25 15 41 15c13 0 24 -13 24 -31v-341c0 -47 35 -86 81 -86c14 0 21 -10 21 -21s-7 -22 -21 -22c-49 0 -97 14 -146 14s-96 -14 -145 -14c-14 0 -22 11 -22 22s8 21 22 21c46 0 80 39 80 86v137c0 23 -16 35 -30 35c-7 0 -13 -4 -17 -11l-34 -65
c-5 -10 -14 -15 -23 -15c-14 0 -28 12 -28 27c0 4 1 8 3 13l129 250c2 4 7 6 11 6c20 0 35 -20 54 -20z" fill="currentColor"/>
</g>
</a>
<a style="color:inherit;" xlink:href="textedit://C:/Users/har1sf0x/Documents/LilyPond%20-%20Frescobaldi/%ce%9a%ce%ac%cf%84%cf%89_%cf%83%cf%84%ce%bf_%ce%b3%ce%b9%ce%b1%ce%bb%cf%8c_%ce%b1.ly:17:33:34">
<g transform="translate(43.8804, 18.4533)">
<path transform="scale(0.0040, -0.0040)" d="M218 136c55 0 108 -28 108 -89c0 -71 -55 -121 -102 -149c-35 -21 -75 -34 -116 -34c-55 0 -108 28 -108 89c0 71 55 121 102 149c35 21 75 34 116 34z" fill="currentColor"/>
</g>
</a>
<g transform="translate(54.8371, 17.4533)">
<rect x="-0.0650" y="-2.0000" width="0.1300" height="2.8139" ry="0.0400" fill="currentColor"/>
</g>
<a style="color:inherit;" xlink:href="textedit://C:/Users/har1sf0x/Documents/LilyPond%20-%20Frescobaldi/%ce%9a%ce%ac%cf%84%cf%89_%cf%83%cf%84%ce%bf_%ce%b3%ce%b9%ce%b1%ce%bb%cf%8c_%ce%b1.ly:18:22:23">
<g transform="translate(54.2500, 12.1523)">
<line stroke-linejoin="round" stroke-linecap="round" stroke-width="0.1380" stroke="currentColor" x1="0" y1="0" x2="0" y2="-1.6000"/>
</g>
<g transform="translate(54.2500, 12.6023)">
<path transform="scale(0.0036, -0.0036)" d="M-103 250c5 0 10 -1 14 -5c40 -35 70 -79 89 -128c19 49 49 93 89 128c4 4 9 5 14 5c11 0 22 -10 22 -22c0 -6 -2 -12 -7 -16c-61 -54 -96 -131 -96 -212c0 -14 -11 -22 -22 -22s-22 8 -22 22c0 81 -35 158 -96 212c-5 4 -7 10 -7 16c0 12 11 22 22 22z" fill="currentColor"/>
</g>
</a>
<a style="color:inherit;" xlink:href="textedit://C:/Users/har1sf0x/Documents/LilyPond%20-%20Frescobaldi/%ce%9a%ce%ac%cf%84%cf%89_%cf%83%cf%84%ce%bf_%ce%b3%ce%b9%ce%b1%ce%bb%cf%8c_%ce%b1.ly:18:20:21">
<g transform="translate(53.8574, 14.4033)">
<path transform="scale(0.0022, -0.0022)" d="M155 457c-34 0 -71 -8 -71 -38c0 -19 32 -23 32 -42c0 -28 -23 -51 -51 -51s-51 23 -51 51c0 72 66 123 141 123c93 0 174 -31 174 -113c0 -36 -10 -65 -42 -80c-17 -8 -26 -25 -26 -41s9 -32 26 -40c37 -17 59 -45 59 -85c0 -94 -83 -141 -186 -141
c-84 0 -160 54 -160 133c0 32 26 58 58 58s58 -26 58 -58c0 -22 -36 -26 -36 -48c0 -33 42 -42 80 -42c41 0 56 50 56 98v21c0 44 -2 77 -43 77h-65c-18 0 -27 14 -27 27s9 27 27 27h65c42 0 43 36 43 83v11c0 43 -20 70 -61 70z" fill="currentColor"/>
</g>
</a>
<a style="color:inherit;" xlink:href="textedit://C:/Users/har1sf0x/Documents/LilyPond%20-%20Frescobaldi/%ce%9a%ce%ac%cf%84%cf%89_%cf%83%cf%84%ce%bf_%ce%b3%ce%b9%ce%b1%ce%bb%cf%8c_%ce%b1.ly:18:17:18">
<g transform="translate(53.5979, 18.4533)">
<path transform="scale(0.0040, -0.0040)" d="M218 136c55 0 108 -28 108 -89c0 -71 -55 -121 -102 -149c-35 -21 -75 -34 -116 -34c-55 0 -108 28 -108 89c0 71 55 121 102 149c35 21 75 34 116 34z" fill="currentColor"/>
</g>
</a>
<g transform="translate(52.5618, 17.4533)">
<rect x="-0.0650" y="-2.0000" width="0.1300" height="2.8139" ry="0.0400" fill="currentColor"/>
</g>
<a style="color:inherit;" xlink:href="textedit://C:/Users/har1sf0x/Documents/LilyPond%20-%20Frescobaldi/%ce%9a%ce%ac%cf%84%cf%89_%cf%83%cf%84%ce%bf_%ce%b3%ce%b9%ce%b1%ce%bb%cf%8c_%ce%b1.ly:18:6:7">
<g transform="translate(51.9747, 12.1523)">
<line stroke-linejoin="round" stroke-linecap="round" stroke-width="0.1380" stroke="currentColor" x1="0" y1="0" x2="0" y2="-1.6000"/>
</g>
<g transform="translate(51.9747, 12.6023)">
<path transform="scale(0.0036, -0.0036)" d="M-103 250c5 0 10 -1 14 -5c40 -35 70 -79 89 -128c19 49 49 93 89 128c4 4 9 5 14 5c11 0 22 -10 22 -22c0 -6 -2 -12 -7 -16c-61 -54 -96 -131 -96 -212c0 -14 -11 -22 -22 -22s-22 8 -22 22c0 81 -35 158 -96 212c-5 4 -7 10 -7 16c0 12 11 22 22 22z" fill="currentColor"/>
</g>
</a>
<a style="color:inherit;" xlink:href="textedit://C:/Users/har1sf0x/Documents/LilyPond%20-%20Frescobaldi/%ce%9a%ce%ac%cf%84%cf%89_%cf%83%cf%84%ce%bf_%ce%b3%ce%b9%ce%b1%ce%bb%cf%8c_%ce%b1.ly:18:4:5">
<g transform="translate(51.5821, 14.4033)">
<path transform="scale(0.0022, -0.0022)" d="M155 457c-34 0 -71 -8 -71 -38c0 -19 32 -23 32 -42c0 -28 -23 -51 -51 -51s-51 23 -51 51c0 72 66 123 141 123c93 0 174 -31 174 -113c0 -36 -10 -65 -42 -80c-17 -8 -26 -25 -26 -41s9 -32 26 -40c37 -17 59 -45 59 -85c0 -94 -83 -141 -186 -141
c-84 0 -160 54 -160 133c0 32 26 58 58 58s58 -26 58 -58c0 -22 -36 -26 -36 -48c0 -33 42 -42 80 -42c41 0 56 50 56 98v21c0 44 -2 77 -43 77h-65c-18 0 -27 14 -27 27s9 27 27 27h65c42 0 43 36 43 83v11c0 43 -20 70 -61 70z" fill="currentColor"/>
</g>
</a>
<a style="color:inherit;" xlink:href="textedit://C:/Users/har1sf0x/Documents/LilyPond%20-%20Frescobaldi/%ce%9a%ce%ac%cf%84%cf%89_%cf%83%cf%84%ce%bf_%ce%b3%ce%b9%ce%b1%ce%bb%cf%8c_%ce%b1.ly:18:2:3">
<g transform="translate(51.3226, 18.4533)">
<path transform="scale(0.0040, -0.0040)" d="M218 136c55 0 108 -28 108 -89c0 -71 -55 -121 -102 -149c-35 -21 -75 -34 -116 -34c-55 0 -108 28 -108 89c0 71 55 121 102 149c35 21 75 34 116 34z" fill="currentColor"/>
</g>
</a>
<g transform="translate(41.0545, 17.4533)">
<rect x="-0.0650" y="-2.9971" width="0.1300" height="3.3110" ry="0.0400" fill="currentColor"/>
</g>
<a style="color:inherit;" xlink:href="textedit://C:/Users/har1sf0x/Documents/LilyPond%20-%20Frescobaldi/%ce%9a%ce%ac%cf%84%cf%89_%cf%83%cf%84%ce%bf_%ce%b3%ce%b9%ce%b1%ce%bb%cf%8c_%ce%b1.ly:17:6:7">
<g transform="translate(40.4674, 11.4653)">
<line stroke-linejoin="round" stroke-linecap="round" stroke-width="0.1380" stroke="currentColor" x1="0" y1="0" x2="0" y2="-1.6000"/>
</g>
<g transform="translate(40.4674, 11.9153)">
<path transform="scale(0.0036, -0.0036)" d="M-103 250c5 0 10 -1 14 -5c40 -35 70 -79 89 -128c19 49 49 93 89 128c4 4 9 5 14 5c11 0 22 -10 22 -22c0 -6 -2 -12 -7 -16c-61 -54 -96 -131 -96 -212c0 -14 -11 -22 -22 -22s-22 8 -22 22c0 81 -35 158 -96 212c-5 4 -7 10 -7 16c0 12 11 22 22 22z" fill="currentColor"/>
</g>
</a>
<a style="color:inherit;" xlink:href="textedit://C:/Users/har1sf0x/Documents/LilyPond%20-%20Frescobaldi/%ce%9a%ce%ac%cf%84%cf%89_%cf%83%cf%84%ce%bf_%ce%b3%ce%b9%ce%b1%ce%bb%cf%8c_%ce%b1.ly:17:4:5">
<g transform="translate(40.0747, 13.7162)">
<path transform="scale(0.0022, -0.0022)" d="M155 457c-34 0 -71 -8 -71 -38c0 -19 32 -23 32 -42c0 -28 -23 -51 -51 -51s-51 23 -51 51c0 72 66 123 141 123c93 0 174 -31 174 -113c0 -36 -10 -65 -42 -80c-17 -8 -26 -25 -26 -41s9 -32 26 -40c37 -17 59 -45 59 -85c0 -94 -83 -141 -186 -141
c-84 0 -160 54 -160 133c0 32 26 58 58 58s58 -26 58 -58c0 -22 -36 -26 -36 -48c0 -33 42 -42 80 -42c41 0 56 50 56 98v21c0 44 -2 77 -43 77h-65c-18 0 -27 14 -27 27s9 27 27 27h65c42 0 43 36 43 83v11c0 43 -20 70 -61 70z" fill="currentColor"/>
</g>
</a>
<a style="color:inherit;" xlink:href="textedit://C:/Users/har1sf0x/Documents/LilyPond%20-%20Frescobaldi/%ce%9a%ce%ac%cf%84%cf%89_%cf%83%cf%84%ce%bf_%ce%b3%ce%b9%ce%b1%ce%bb%cf%8c_%ce%b1.ly:17:2:3">
<g transform="translate(39.8153, 17.9533)">
<path transform="scale(0.0040, -0.0040)" d="M218 136c55 0 108 -28 108 -89c0 -71 -55 -121 -102 -149c-35 -21 -75 -34 -116 -34c-55 0 -108 28 -108 89c0 71 55 121 102 149c35 21 75 34 116 34z" fill="currentColor"/>
</g>
</a>
<g transform="translate(36.2381, 18.9533)">
<path transform="scale(0.0032, -0.0032)" d="M-98 0c0 -85 11 -172 60 -242c2 -3 3 -5 3 -8c0 -8 -7 -15 -15 -15c-4 0 -9 2 -12 7c-54 77 -90 165 -90 258s36 181 90 258c3 5 8 7 12 7c8 0 15 -7 15 -15c0 -3 -1 -5 -3 -8c-49 -70 -60 -157 -60 -242z" fill="currentColor"/>
</g>
<g transform="translate(37.9423, 18.9533)">
<path transform="scale(0.0032, -0.0032)" d="M98 0c0 85 -11 172 -60 242c-2 3 -3 5 -3 8c0 8 7 15 15 15c4 0 9 -2 12 -7c54 -77 90 -165 90 -258s-36 -181 -90 -258c-3 -5 -8 -7 -12 -7c-8 0 -15 7 -15 15c0 3 1 5 3 8c49 70 60 157 60 242z" fill="currentColor"/>
</g>
<a style="color:inherit;" xlink:href="textedit://C:/Users/har1sf0x/Documents/LilyPond%20-%20Frescobaldi/%ce%9a%ce%ac%cf%84%cf%89_%cf%83%cf%84%ce%bf_%ce%b3%ce%b9%ce%b1%ce%bb%cf%8c_%ce%b1.ly:16:108:109">
<g transform="scale(1.0000, -1.0000)">
<g transform="translate(37.0902, -10.9983)">
<line stroke-linejoin="round" stroke-linecap="round" stroke-width="0.1380" stroke="currentColor" x1="0" y1="0" x2="0" y2="-1.6000"/>
</g>
<g transform="translate(37.0902, -10.5483)">
<path transform="scale(0.0036, -0.0036)" d="M-103 250c5 0 10 -1 14 -5c40 -35 70 -79 89 -128c19 49 49 93 89 128c4 4 9 5 14 5c11 0 22 -10 22 -22c0 -6 -2 -12 -7 -16c-61 -54 -96 -131 -96 -212c0 -14 -11 -22 -22 -22s-22 8 -22 22c0 81 -35 158 -96 212c-5 4 -7 10 -7 16c0 12 11 22 22 22z" fill="currentColor"/>
</g>
</g>
</a>
<a style="color:inherit;" xlink:href="textedit://C:/Users/har1sf0x/Documents/LilyPond%20-%20Frescobaldi/%ce%9a%ce%ac%cf%84%cf%89_%cf%83%cf%84%ce%bf_%ce%b3%ce%b9%ce%b1%ce%bb%cf%8c_%ce%b1.ly:16:106:107">
<g transform="translate(36.6805, 14.4033)">
<path transform="scale(0.0022, -0.0022)" d="M194 486c15 0 25 15 41 15c13 0 24 -13 24 -31v-341c0 -47 35 -86 81 -86c14 0 21 -10 21 -21s-7 -22 -21 -22c-49 0 -97 14 -146 14s-96 -14 -145 -14c-14 0 -22 11 -22 22s8 21 22 21c46 0 80 39 80 86v137c0 23 -16 35 -30 35c-7 0 -13 -4 -17 -11l-34 -65
c-5 -10 -14 -15 -23 -15c-14 0 -28 12 -28 27c0 4 1 8 3 13l129 250c2 4 7 6 11 6c20 0 35 -20 54 -20z" fill="currentColor"/>
</g>
</a>
<a style="color:inherit;" xlink:href="textedit://C:/Users/har1sf0x/Documents/LilyPond%20-%20Frescobaldi/%ce%9a%ce%ac%cf%84%cf%89_%cf%83%cf%84%ce%bf_%ce%b3%ce%b9%ce%b1%ce%bb%cf%8c_%ce%b1.ly:17:20:21">
<g transform="translate(42.3330, 13.8193)">
<path transform="scale(0.0022, -0.0022)" d="M194 486c15 0 25 15 41 15c13 0 24 -13 24 -31v-341c0 -47 35 -86 81 -86c14 0 21 -10 21 -21s-7 -22 -21 -22c-49 0 -97 14 -146 14s-96 -14 -145 -14c-14 0 -22 11 -22 22s8 21 22 21c46 0 80 39 80 86v137c0 23 -16 35 -30 35c-7 0 -13 -4 -17 -11l-34 -65
c-5 -10 -14 -15 -23 -15c-14 0 -28 12 -28 27c0 4 1 8 3 13l129 250c2 4 7 6 11 6c20 0 35 -20 54 -20z" fill="currentColor"/>
</g>
</a>
<a style="color:inherit;" xlink:href="textedit://C:/Users/har1sf0x/Documents/LilyPond%20-%20Frescobaldi/%ce%9a%ce%ac%cf%84%cf%89_%cf%83%cf%84%ce%bf_%ce%b3%ce%b9%ce%b1%ce%bb%cf%8c_%ce%b1.ly:17:17:18">
<g transform="translate(42.0906, 18.4533)">
<path transform="scale(0.0040, -0.0040)" d="M218 136c55 0 108 -28 108 -89c0 -71 -55 -121 -102 -149c-35 -21 -75 -34 -116 -34c-55 0 -108 28 -108 89c0 71 55 121 102 149c35 21 75 34 116 34z" fill="currentColor"/>
</g>
</a>
<a style="color:inherit;" xlink:href="textedit://C:/Users/har1sf0x/Documents/LilyPond%20-%20Frescobaldi/%ce%9a%ce%ac%cf%84%cf%89_%cf%83%cf%84%ce%bf_%ce%b3%ce%b9%ce%b1%ce%bb%cf%8c_%ce%b1.ly:17:22:23">
<g transform="translate(42.7427, 11.5549)">
<line stroke-linejoin="round" stroke-linecap="round" stroke-width="0.1380" stroke="currentColor" x1="0" y1="0" x2="0" y2="-1.6000"/>
</g>
<g transform="translate(42.7427, 12.0049)">
<path transform="scale(0.0036, -0.0036)" d="M-103 250c5 0 10 -1 14 -5c40 -35 70 -79 89 -128c19 49 49 93 89 128c4 4 9 5 14 5c11 0 22 -10 22 -22c0 -6 -2 -12 -7 -16c-61 -54 -96 -131 -96 -212c0 -14 -11 -22 -22 -22s-22 8 -22 22c0 81 -35 158 -96 212c-5 4 -7 10 -7 16c0 12 11 22 22 22z" fill="currentColor"/>
</g>
</a>
<g transform="translate(43.3298, 17.4533)">
<rect x="-0.0650" y="-2.8940" width="0.1300" height="3.7079" ry="0.0400" fill="currentColor"/>
</g>
<g transform="translate(54.0830, 23.8277)">
<text font-family="serif" font-size="2.2001" text-anchor="start" fill="currentColor">
<tspan>Χ. Κόχυλας</tspan>
</text>
</g>
<g transform="translate(30.6607, 27.3557)">
<a xlink:href="https://lilypond.org/">
<rect x="0.0000" y="-0.5280" width="58.1802" height="2.2001" fill="none" stroke="none" stroke-width="0.0"/>
</a>
</g>
<g transform="translate(30.6607, 27.3557)">
<text font-family="serif" font-size="2.2001" text-anchor="start" fill="currentColor">
<tspan>Music engraving by LilyPond 2.24.4—www.lilypond.org</tspan>
</text>
</g>
</svg>
