<svg xmlns="http://www.w3.org/2000/svg" xmlns:xlink="http://www.w3.org/1999/xlink" version="1.2" width="210.00mm" height="95.00mm" viewBox="0.0000 -0.0000 119.5016 54.0602">
<style type="text/css">
<![CDATA[
tspan { white-space: pre; }
]]>
</style>
<g transform="translate(49.9175, 4.9183)">
<text font-family="serif" font-weight="bold" font-size="3.4927" text-anchor="start" fill="currentColor">
<tspan>Νταρσά (β)</tspan>
</text>
</g>
<g transform="translate(52.5807, 8.4183)">
<text font-family="serif" font-weight="bold" font-size="2.4696" text-anchor="start" fill="currentColor">
<tspan>Αρβανίτικο</tspan>
</text>
</g>
<g transform="translate(21.8948, 16.0185)">
<path transform="scale(0.0040, -0.0040)" d="M0 0c0 31 25 56 56 56s56 -25 56 -56s-25 -56 -56 -56s-56 25 -56 56z" fill="currentColor"/>
</g>
<g transform="translate(21.8948, 17.0185)">
<path transform="scale(0.0040, -0.0040)" d="M0 0c0 31 25 56 56 56s56 -25 56 -56s-25 -56 -56 -56s-56 25 -56 56z" fill="currentColor"/>
</g>
<g transform="translate(21.4048, 16.5185)">
<rect x="0.0000" y="-2.0000" width="0.1900" height="4.0000" ry="0.0000" fill="currentColor"/>
</g>
<g transform="translate(20.5048, 16.5185)">
<rect x="0.0000" y="-2.0000" width="0.6000" height="4.0000" ry="0.0000" fill="currentColor"/>
</g>
<g transform="translate(72.2229, 16.5185)">
<rect x="0.0000" y="-2.0000" width="0.1900" height="4.0000" ry="0.0000" fill="currentColor"/>
</g>
<g transform="translate(56.2354, 16.5185)">
<rect x="0.0000" y="-2.0000" width="0.1900" height="4.0000" ry="0.0000" fill="currentColor"/>
</g>
<g transform="translate(38.1423, 16.5185)">
<rect x="0.0000" y="-2.0000" width="0.1900" height="4.0000" ry="0.0000" fill="currentColor"/>
</g>
<g transform="translate(90.1150, 16.0185)">
<path transform="scale(0.0040, -0.0040)" d="M0 0c0 31 25 56 56 56s56 -25 56 -56s-25 -56 -56 -56s-56 25 -56 56z" fill="currentColor"/>
</g>
<g transform="translate(90.1150, 17.0185)">
<path transform="scale(0.0040, -0.0040)" d="M0 0c0 31 25 56 56 56s56 -25 56 -56s-25 -56 -56 -56s-56 25 -56 56z" fill="currentColor"/>
</g>
<g transform="translate(91.3550, 16.5185)">
<rect x="0.0000" y="-2.0000" width="0.6000" height="4.0000" ry="0.0000" fill="currentColor"/>
</g>
<g transform="translate(90.8650, 16.5185)">
<rect x="0.0000" y="-2.0000" width="0.1900" height="4.0000" ry="0.0000" fill="currentColor"/>
</g>
<g transform="translate(113.6210, 16.5185)">
<rect x="0.0000" y="-2.0000" width="0.1900" height="4.0000" ry="0.0000" fill="currentColor"/>
</g>
<g transform="translate(5.6906, 19.5185)">
<rect x="103.0891" y="-0.1000" width="1.3682" height="0.2000" ry="0.1000" fill="currentColor"/>
</g>
<g transform="translate(5.6906, 19.5185)">
<rect x="101.6296" y="-0.1000" width="1.3596" height="0.2000" ry="0.1000" fill="currentColor"/>
</g>
<g transform="translate(5.6906, 19.5185)">
<rect x="100.1614" y="-0.1000" width="1.3682" height="0.2000" ry="0.1000" fill="currentColor"/>
</g>
<g transform="translate(5.6906, 19.5185)">
<rect x="94.3318" y="-0.1000" width="1.3682" height="0.2000" ry="0.1000" fill="currentColor"/>
</g>
<g transform="translate(5.6906, 19.5185)">
<rect x="92.9383" y="-0.1000" width="1.2935" height="0.2000" ry="0.1000" fill="currentColor"/>
</g>
<g transform="translate(5.6906, 19.5185)">
<rect x="90.5626" y="-0.1000" width="1.3768" height="0.2000" ry="0.1000" fill="currentColor"/>
</g>
<g transform="translate(5.6906, 19.5185)">
<rect x="74.7897" y="-0.1000" width="1.3682" height="0.2000" ry="0.1000" fill="currentColor"/>
</g>
<g transform="translate(5.6906, 19.5185)">
<rect x="73.3963" y="-0.1000" width="1.2935" height="0.2000" ry="0.1000" fill="currentColor"/>
</g>
<g transform="translate(5.6906, 19.5185)">
<rect x="71.0205" y="-0.1000" width="1.3768" height="0.2000" ry="0.1000" fill="currentColor"/>
</g>
<g transform="translate(5.6906, 19.5185)">
<rect x="40.7092" y="-0.1000" width="1.3682" height="0.2000" ry="0.1000" fill="currentColor"/>
</g>
<g transform="translate(5.6906, 19.5185)">
<rect x="39.3157" y="-0.1000" width="1.2935" height="0.2000" ry="0.1000" fill="currentColor"/>
</g>
<g transform="translate(5.6906, 19.5185)">
<rect x="36.9399" y="-0.1000" width="1.3768" height="0.2000" ry="0.1000" fill="currentColor"/>
</g>
<g transform="translate(5.6906, 18.5185)">
<line stroke-linejoin="round" stroke-linecap="round" stroke-width="0.1000" stroke="currentColor" x1="0.0500" y1="0" x2="108.0705" y2="0"/>
</g>
<g transform="translate(5.6906, 17.5185)">
<line stroke-linejoin="round" stroke-linecap="round" stroke-width="0.1000" stroke="currentColor" x1="0.0500" y1="0" x2="108.0705" y2="0"/>
</g>
<g transform="translate(5.6906, 16.5185)">
<line stroke-linejoin="round" stroke-linecap="round" stroke-width="0.1000" stroke="currentColor" x1="0.0500" y1="0" x2="108.0705" y2="0"/>
</g>
<g transform="translate(5.6906, 15.5185)">
<line stroke-linejoin="round" stroke-linecap="round" stroke-width="0.1000" stroke="currentColor" x1="0.0500" y1="0" x2="108.0705" y2="0"/>
</g>
<g transform="translate(5.6906, 14.5185)">
<line stroke-linejoin="round" stroke-linecap="round" stroke-width="0.1000" stroke="currentColor" x1="0.0500" y1="0" x2="108.0705" y2="0"/>
</g>
<g transform="translate(87.7274, 17.5185)">
<path transform="scale(0.0040, -0.0040)" d="M218 136c55 0 108 -28 108 -89c0 -71 -55 -121 -102 -149c-35 -21 -75 -34 -116 -34c-55 0 -108 28 -108 89c0 71 55 121 102 149c35 21 75 34 116 34z" fill="currentColor"/>
</g>
<g transform="translate(86.5791, 16.5185)">
<rect x="-0.0650" y="-2.1851" width="0.1300" height="2.4990" ry="0.0400" fill="currentColor"/>
</g>
<g transform="translate(85.3399, 17.0185)">
<path transform="scale(0.0040, -0.0040)" d="M218 136c55 0 108 -28 108 -89c0 -71 -55 -121 -102 -149c-35 -21 -75 -34 -116 -34c-55 0 -108 28 -108 89c0 71 55 121 102 149c35 21 75 34 116 34z" fill="currentColor"/>
</g>
<g transform="translate(83.3999, 16.5185)">
<rect x="-0.0650" y="-1.0000" width="0.1300" height="3.3139" ry="0.0400" fill="currentColor"/>
</g>
<g transform="translate(82.1607, 19.0185)">
<path transform="scale(0.0040, -0.0040)" d="M218 136c55 0 108 -28 108 -89c0 -71 -55 -121 -102 -149c-35 -21 -75 -34 -116 -34c-55 0 -108 28 -108 89c0 71 55 121 102 149c35 21 75 34 116 34z" fill="currentColor"/>
</g>
<g transform="translate(81.5540, 16.5185)">
<rect x="-0.0650" y="-0.8134" width="0.1300" height="3.6989" ry="0.0400" fill="currentColor"/>
</g>
<g transform="translate(80.7011, 19.5185)">
<path transform="scale(0.0028, -0.0028)" d="M208 139c61 0 117 -33 117 -99c0 -71 -52 -119 -99 -147c-34 -20 -71 -32 -110 -32c-61 0 -116 33 -116 99c0 71 51 119 98 147c34 20 71 32 110 32z" fill="currentColor"/>
</g>
<g transform="translate(95.8759, 16.5185)">
<rect x="-0.0650" y="-1.0832" width="0.1300" height="3.4688" ry="0.0400" fill="currentColor"/>
</g>
<g transform="translate(95.0231, 19.0185)">
<path transform="scale(0.0028, -0.0028)" d="M208 139c61 0 117 -33 117 -99c0 -71 -52 -119 -99 -147c-34 -20 -71 -32 -110 -32c-61 0 -116 33 -116 99c0 71 51 119 98 147c34 20 71 32 110 32z" fill="currentColor"/>
</g>
<g transform="translate(88.9666, 16.5185)">
<rect x="-0.0650" y="-2.0049" width="0.1300" height="2.8188" ry="0.0400" fill="currentColor"/>
</g>
<g transform="translate(93.8747, 16.5185)">
<rect x="-0.0650" y="-1.1866" width="0.1300" height="3.5005" ry="0.0400" fill="currentColor"/>
</g>
<g transform="translate(92.6355, 19.0185)">
<path transform="scale(0.0040, -0.0040)" d="M218 136c55 0 108 -28 108 -89c0 -71 -55 -121 -102 -149c-35 -21 -75 -34 -116 -34c-55 0 -108 28 -108 89c0 71 55 121 102 149c35 21 75 34 116 34z" fill="currentColor"/>
</g>
<g transform="translate(74.3326, 16.5185)">
<rect x="-0.0650" y="-1.1866" width="0.1300" height="3.5005" ry="0.0400" fill="currentColor"/>
</g>
<g transform="translate(73.0934, 19.0185)">
<path transform="scale(0.0040, -0.0040)" d="M218 136c55 0 108 -28 108 -89c0 -71 -55 -121 -102 -149c-35 -21 -75 -34 -116 -34c-55 0 -108 28 -108 89c0 71 55 121 102 149c35 21 75 34 116 34z" fill="currentColor"/>
</g>
<g transform="translate(70.8245, 16.5185)">
<rect x="-0.0650" y="-0.8149" width="0.1300" height="3.1288" ry="0.0400" fill="currentColor"/>
</g>
<g transform="translate(69.5853, 19.0185)">
<path transform="scale(0.0040, -0.0040)" d="M218 136c55 0 108 -28 108 -89c0 -71 -55 -121 -102 -149c-35 -21 -75 -34 -116 -34c-55 0 -108 28 -108 89c0 71 55 121 102 149c35 21 75 34 116 34z" fill="currentColor"/>
</g>
<g transform="translate(68.4370, 16.5185)">
<rect x="-0.0650" y="-0.9951" width="0.1300" height="2.8090" ry="0.0400" fill="currentColor"/>
</g>
<g transform="translate(108.3289, 16.5185)">
<polygon stroke-linejoin="round" stroke-linecap="round" stroke-width="0.0800" fill="currentColor" stroke="currentColor" points="4.4687 -1.0100 4.4687 -0.6100 0.0400 0.2000 0.0400 -0.2000"/>
</g>
<g transform="translate(108.3289, 17.3285)">
<polygon stroke-linejoin="round" stroke-linecap="round" stroke-width="0.0800" fill="currentColor" stroke="currentColor" points="4.4687 -1.0100 4.4687 -0.6100 0.0400 0.2000 0.0400 -0.2000"/>
</g>
<g transform="translate(80.0944, 16.5185)">
<rect x="-0.0650" y="-0.8888" width="0.1300" height="4.2744" ry="0.0400" fill="currentColor"/>
</g>
<g transform="translate(79.2416, 20.0185)">
<path transform="scale(0.0028, -0.0028)" d="M208 139c61 0 117 -33 117 -99c0 -71 -52 -119 -99 -147c-34 -20 -71 -32 -110 -32c-61 0 -116 33 -116 99c0 71 51 119 98 147c34 20 71 32 110 32z" fill="currentColor"/>
</g>
<g transform="translate(77.7934, 16.5185)">
<rect x="-0.0650" y="-1.0077" width="0.1300" height="3.8933" ry="0.0400" fill="currentColor"/>
</g>
<g transform="translate(78.3664, 20.0185)">
<path transform="scale(0.0028, -0.0028)" d="M129 35c-1 34 -18 66 -49 66c-28 0 -41 -31 -41 -63c0 -57 45 -100 87 -138c3 21 5 43 5 64v11zM130 446c10 6 21 8 32 8s21 -2 31 -8l-14 -587c0 -17 -12 -32 -28 -32c-26 0 -34 31 -52 48c-57 52 -137 92 -137 169c0 54 31 105 81 105c36 0 71 -14 96 -40z" fill="currentColor"/>
</g>
<g transform="translate(76.9405, 19.5185)">
<path transform="scale(0.0028, -0.0028)" d="M208 139c61 0 117 -33 117 -99c0 -71 -52 -119 -99 -147c-34 -20 -71 -32 -110 -32c-61 0 -116 33 -116 99c0 71 51 119 98 147c34 20 71 32 110 32z" fill="currentColor"/>
</g>
<g transform="translate(76.3338, 16.5185)">
<rect x="-0.0650" y="-1.0832" width="0.1300" height="3.4688" ry="0.0400" fill="currentColor"/>
</g>
<g transform="translate(75.4810, 19.0185)">
<path transform="scale(0.0028, -0.0028)" d="M208 139c61 0 117 -33 117 -99c0 -71 -52 -119 -99 -147c-34 -20 -71 -32 -110 -32c-61 0 -116 33 -116 99c0 71 51 119 98 147c34 20 71 32 110 32z" fill="currentColor"/>
</g>
<g transform="translate(112.7725, 16.5185)">
<rect x="-0.0650" y="-0.7983" width="0.1300" height="2.6839" ry="0.0400" fill="currentColor"/>
</g>
<g transform="translate(111.9196, 18.5185)">
<path transform="scale(0.0028, -0.0028)" d="M208 139c61 0 117 -33 117 -99c0 -71 -52 -119 -99 -147c-34 -20 -71 -32 -110 -32c-61 0 -116 33 -116 99c0 71 51 119 98 147c34 20 71 32 110 32z" fill="currentColor"/>
</g>
<g transform="translate(111.3130, 16.5185)">
<rect x="-0.0650" y="-0.5361" width="0.1300" height="2.9217" ry="0.0400" fill="currentColor"/>
</g>
<g transform="translate(110.4601, 19.0185)">
<path transform="scale(0.0028, -0.0028)" d="M208 139c61 0 117 -33 117 -99c0 -71 -52 -119 -99 -147c-34 -20 -71 -32 -110 -32c-61 0 -116 33 -116 99c0 71 51 119 98 147c34 20 71 32 110 32z" fill="currentColor"/>
</g>
<g transform="translate(109.8534, 16.5185)">
<rect x="-0.0650" y="-0.2739" width="0.1300" height="3.1595" ry="0.0400" fill="currentColor"/>
</g>
<g transform="translate(109.0005, 19.5185)">
<path transform="scale(0.0028, -0.0028)" d="M208 139c61 0 117 -33 117 -99c0 -71 -52 -119 -99 -147c-34 -20 -71 -32 -110 -32c-61 0 -116 33 -116 99c0 71 51 119 98 147c34 20 71 32 110 32z" fill="currentColor"/>
</g>
<g transform="translate(108.3939, 16.5185)">
<rect x="-0.0650" y="-0.0117" width="0.1300" height="3.3973" ry="0.0400" fill="currentColor"/>
</g>
<g transform="translate(107.5410, 20.0185)">
<path transform="scale(0.0028, -0.0028)" d="M208 139c61 0 117 -33 117 -99c0 -71 -52 -119 -99 -147c-34 -20 -71 -32 -110 -32c-61 0 -116 33 -116 99c0 71 51 119 98 147c34 20 71 32 110 32z" fill="currentColor"/>
</g>
<g transform="translate(102.4907, 15.5185)">
<polygon stroke-linejoin="round" stroke-linecap="round" stroke-width="0.0800" fill="currentColor" stroke="currentColor" points="4.4687 -0.0100 4.4687 0.3900 0.0400 0.2000 0.0400 -0.2000"/>
</g>
<g transform="translate(102.4907, 16.3285)">
<polygon stroke-linejoin="round" stroke-linecap="round" stroke-width="0.0800" fill="currentColor" stroke="currentColor" points="4.4687 -0.0100 4.4687 0.3900 0.0400 0.2000 0.0400 -0.2000"/>
</g>
<g transform="translate(93.8097, 15.3285)">
<polygon stroke-linejoin="round" stroke-linecap="round" stroke-width="0.0800" fill="currentColor" stroke="currentColor" points="7.3114 0.1800 7.3114 0.5800 0.0400 0.2000 0.0400 -0.2000"/>
</g>
<g transform="translate(95.8109, 16.2419)">
<polygon stroke-linejoin="round" stroke-linecap="round" stroke-width="0.0800" fill="currentColor" stroke="currentColor" points="5.3102 0.0766 5.3102 0.4766 0.0400 0.2000 0.0400 -0.2000"/>
</g>
<g transform="translate(86.5141, 14.3285)">
<polygon stroke-linejoin="round" stroke-linecap="round" stroke-width="0.0800" fill="currentColor" stroke="currentColor" points="2.4775 -0.0100 2.4775 0.3900 0.0400 0.2000 0.0400 -0.2000"/>
</g>
<g transform="translate(74.2676, 15.3285)">
<polygon stroke-linejoin="round" stroke-linecap="round" stroke-width="0.0800" fill="currentColor" stroke="currentColor" points="7.3114 0.1800 7.3114 0.5800 0.0400 0.2000 0.0400 -0.2000"/>
</g>
<g transform="translate(76.2688, 16.2419)">
<polygon stroke-linejoin="round" stroke-linecap="round" stroke-width="0.0800" fill="currentColor" stroke="currentColor" points="5.3102 0.0766 5.3102 0.4766 0.0400 0.2000 0.0400 -0.2000"/>
</g>
<g transform="translate(68.3720, 15.5185)">
<polygon stroke-linejoin="round" stroke-linecap="round" stroke-width="0.0800" fill="currentColor" stroke="currentColor" points="2.4775 -0.0100 2.4775 0.3900 0.0400 0.2000 0.0400 -0.2000"/>
</g>
<g transform="translate(73.2529, 11.3662)">
<g>
<path transform="scale(0.0025, -0.0025)" d="M191 487c15 0 26 14 41 14c12 0 23 -14 23 -31v-343c0 -46 35 -85 80 -85c14 0 20 -11 20 -21s-6 -21 -20 -21c-48 0 -96 13 -144 13s-95 -13 -143 -13c-14 0 -21 11 -21 21s7 21 21 21c45 0 79 39 79 85v143c0 22 -15 34 -29 34c-7 0 -13 -3 -17 -10l-34 -68
c-5 -10 -14 -14 -23 -14c-14 0 -27 10 -27 25c0 4 1 9 3 13l127 250c2 4 6 6 10 6c20 0 36 -19 54 -19z" fill="currentColor"/>

<path transform="translate(0.9560, 0.0000) scale(0.0025, -0.0025)" d="M0 53c0 29 24 53 53 53s53 -24 53 -53s-24 -53 -53 -53s-53 24 -53 53z" fill="currentColor"/>
</g>
</g>
<g transform="translate(72.2229, 9.5910)">
<line stroke-linejoin="round" stroke-linecap="round" stroke-width="0.1600" stroke="currentColor" x1="18.7221" y1="-0.0000" x2="18.7221" y2="2.0000"/>
</g>
<g transform="translate(72.2229, 9.5910)">
<line stroke-linejoin="round" stroke-linecap="round" stroke-width="0.1600" stroke="currentColor" x1="0.1100" y1="-0.0000" x2="0.1100" y2="2.0000"/>
</g>
<g transform="translate(72.2229, 9.5910)">
<line stroke-linejoin="round" stroke-linecap="round" stroke-width="0.1600" stroke="currentColor" x1="0.1100" y1="-0.0000" x2="18.7221" y2="-0.0000"/>
</g>
<g transform="translate(63.5969, 15.3285)">
<polygon stroke-linejoin="round" stroke-linecap="round" stroke-width="0.0800" fill="currentColor" stroke="currentColor" points="2.4775 -0.0100 2.4775 0.3900 0.0400 0.2000 0.0400 -0.2000"/>
</g>
<g transform="translate(52.4335, 14.3285)">
<polygon stroke-linejoin="round" stroke-linecap="round" stroke-width="0.0800" fill="currentColor" stroke="currentColor" points="2.4775 -0.0100 2.4775 0.3900 0.0400 0.2000 0.0400 -0.2000"/>
</g>
<g transform="translate(40.1870, 15.3285)">
<polygon stroke-linejoin="round" stroke-linecap="round" stroke-width="0.0800" fill="currentColor" stroke="currentColor" points="7.3114 0.1800 7.3114 0.5800 0.0400 0.2000 0.0400 -0.2000"/>
</g>
<g transform="translate(42.1883, 16.2419)">
<polygon stroke-linejoin="round" stroke-linecap="round" stroke-width="0.0800" fill="currentColor" stroke="currentColor" points="5.3102 0.0766 5.3102 0.4766 0.0400 0.2000 0.0400 -0.2000"/>
</g>
<g transform="translate(34.2914, 15.5185)">
<polygon stroke-linejoin="round" stroke-linecap="round" stroke-width="0.0800" fill="currentColor" stroke="currentColor" points="2.4775 -0.0100 2.4775 0.3900 0.0400 0.2000 0.0400 -0.2000"/>
</g>
<g transform="translate(29.5163, 15.3285)">
<polygon stroke-linejoin="round" stroke-linecap="round" stroke-width="0.0800" fill="currentColor" stroke="currentColor" points="2.4775 -0.0100 2.4775 0.3900 0.0400 0.2000 0.0400 -0.2000"/>
</g>
<g transform="translate(16.7029, 14.3285)">
<polygon stroke-linejoin="round" stroke-linecap="round" stroke-width="0.0800" fill="currentColor" stroke="currentColor" points="2.4775 -0.0100 2.4775 0.3900 0.0400 0.2000 0.0400 -0.2000"/>
</g>
<g transform="translate(101.0961, 16.5185)">
<rect x="-0.0650" y="-0.8134" width="0.1300" height="3.6989" ry="0.0400" fill="currentColor"/>
</g>
<g transform="translate(100.2432, 19.5185)">
<path transform="scale(0.0028, -0.0028)" d="M208 139c61 0 117 -33 117 -99c0 -71 -52 -119 -99 -147c-34 -20 -71 -32 -110 -32c-61 0 -116 33 -116 99c0 71 51 119 98 147c34 20 71 32 110 32z" fill="currentColor"/>
</g>
<g transform="translate(97.9085, 20.0185)">
<path transform="scale(0.0028, -0.0028)" d="M129 35c-1 34 -18 66 -49 66c-28 0 -41 -31 -41 -63c0 -57 45 -100 87 -138c3 21 5 43 5 64v11zM130 446c10 6 21 8 32 8s21 -2 31 -8l-14 -587c0 -17 -12 -32 -28 -32c-26 0 -34 31 -52 48c-57 52 -137 92 -137 169c0 54 31 105 81 105c36 0 71 -14 96 -40z" fill="currentColor"/>
</g>
<g transform="translate(99.6365, 16.5185)">
<rect x="-0.0650" y="-0.8888" width="0.1300" height="4.2744" ry="0.0400" fill="currentColor"/>
</g>
<g transform="translate(98.7837, 20.0185)">
<path transform="scale(0.0028, -0.0028)" d="M208 139c61 0 117 -33 117 -99c0 -71 -52 -119 -99 -147c-34 -20 -71 -32 -110 -32c-61 0 -116 33 -116 99c0 71 51 119 98 147c34 20 71 32 110 32z" fill="currentColor"/>
</g>
<g transform="translate(97.3355, 16.5185)">
<rect x="-0.0650" y="-1.0077" width="0.1300" height="3.8933" ry="0.0400" fill="currentColor"/>
</g>
<g transform="translate(96.4826, 19.5185)">
<path transform="scale(0.0028, -0.0028)" d="M208 139c61 0 117 -33 117 -99c0 -71 -52 -119 -99 -147c-34 -20 -71 -32 -110 -32c-61 0 -116 33 -116 99c0 71 51 119 98 147c34 20 71 32 110 32z" fill="currentColor"/>
</g>
<g transform="translate(106.9343, 16.5185)">
<rect x="-0.0650" y="-0.8127" width="0.1300" height="3.6983" ry="0.0400" fill="currentColor"/>
</g>
<g transform="translate(106.0814, 19.5185)">
<path transform="scale(0.0028, -0.0028)" d="M208 139c61 0 117 -33 117 -99c0 -71 -52 -119 -99 -147c-34 -20 -71 -32 -110 -32c-61 0 -116 33 -116 99c0 71 51 119 98 147c34 20 71 32 110 32z" fill="currentColor"/>
</g>
<g transform="translate(105.4748, 16.5185)">
<rect x="-0.0650" y="-0.8742" width="0.1300" height="3.2598" ry="0.0400" fill="currentColor"/>
</g>
<g transform="translate(104.6219, 19.0185)">
<path transform="scale(0.0028, -0.0028)" d="M208 139c61 0 117 -33 117 -99c0 -71 -52 -119 -99 -147c-34 -20 -71 -32 -110 -32c-61 0 -116 33 -116 99c0 71 51 119 98 147c34 20 71 32 110 32z" fill="currentColor"/>
</g>
<g transform="translate(104.0152, 16.5185)">
<rect x="-0.0650" y="-0.9358" width="0.1300" height="2.8213" ry="0.0400" fill="currentColor"/>
</g>
<g transform="translate(103.1623, 18.5185)">
<path transform="scale(0.0028, -0.0028)" d="M208 139c61 0 117 -33 117 -99c0 -71 -52 -119 -99 -147c-34 -20 -71 -32 -110 -32c-61 0 -116 33 -116 99c0 71 51 119 98 147c34 20 71 32 110 32z" fill="currentColor"/>
</g>
<g transform="translate(102.5557, 16.5185)">
<rect x="-0.0650" y="-0.9973" width="0.1300" height="3.3828" ry="0.0400" fill="currentColor"/>
</g>
<g transform="translate(101.7028, 19.0185)">
<path transform="scale(0.0028, -0.0028)" d="M208 139c61 0 117 -33 117 -99c0 -71 -52 -119 -99 -147c-34 -20 -71 -32 -110 -32c-61 0 -116 33 -116 99c0 71 51 119 98 147c34 20 71 32 110 32z" fill="currentColor"/>
</g>
<g transform="translate(36.7440, 16.5185)">
<rect x="-0.0650" y="-0.8149" width="0.1300" height="3.1288" ry="0.0400" fill="currentColor"/>
</g>
<g transform="translate(35.5047, 19.0185)">
<path transform="scale(0.0040, -0.0040)" d="M218 136c55 0 108 -28 108 -89c0 -71 -55 -121 -102 -149c-35 -21 -75 -34 -116 -34c-55 0 -108 28 -108 89c0 71 55 121 102 149c35 21 75 34 116 34z" fill="currentColor"/>
</g>
<g transform="translate(34.3564, 16.5185)">
<rect x="-0.0650" y="-0.9951" width="0.1300" height="2.8090" ry="0.0400" fill="currentColor"/>
</g>
<g transform="translate(33.1172, 18.5185)">
<path transform="scale(0.0040, -0.0040)" d="M218 136c55 0 108 -28 108 -89c0 -71 -55 -121 -102 -149c-35 -21 -75 -34 -116 -34c-55 0 -108 28 -108 89c0 71 55 121 102 149c35 21 75 34 116 34z" fill="currentColor"/>
</g>
<g transform="translate(31.9689, 16.5185)">
<rect x="-0.0650" y="-1.0049" width="0.1300" height="2.8188" ry="0.0400" fill="currentColor"/>
</g>
<g transform="translate(30.7297, 18.5185)">
<path transform="scale(0.0040, -0.0040)" d="M218 136c55 0 108 -28 108 -89c0 -71 -55 -121 -102 -149c-35 -21 -75 -34 -116 -34c-55 0 -108 28 -108 89c0 71 55 121 102 149c35 21 75 34 116 34z" fill="currentColor"/>
</g>
<g transform="translate(29.5813, 16.5185)">
<rect x="-0.0650" y="-1.1851" width="0.1300" height="2.4990" ry="0.0400" fill="currentColor"/>
</g>
<g transform="translate(28.3421, 18.0185)">
<path transform="scale(0.0040, -0.0040)" d="M218 136c55 0 108 -28 108 -89c0 -71 -55 -121 -102 -149c-35 -21 -75 -34 -116 -34c-55 0 -108 28 -108 89c0 71 55 121 102 149c35 21 75 34 116 34z" fill="currentColor"/>
</g>
<g transform="translate(42.2533, 16.5185)">
<rect x="-0.0650" y="-1.0832" width="0.1300" height="3.4688" ry="0.0400" fill="currentColor"/>
</g>
<g transform="translate(41.4004, 19.0185)">
<path transform="scale(0.0028, -0.0028)" d="M208 139c61 0 117 -33 117 -99c0 -71 -52 -119 -99 -147c-34 -20 -71 -32 -110 -32c-61 0 -116 33 -116 99c0 71 51 119 98 147c34 20 71 32 110 32z" fill="currentColor"/>
</g>
<g transform="translate(67.1978, 18.5185)">
<path transform="scale(0.0040, -0.0040)" d="M218 136c55 0 108 -28 108 -89c0 -71 -55 -121 -102 -149c-35 -21 -75 -34 -116 -34c-55 0 -108 28 -108 89c0 71 55 121 102 149c35 21 75 34 116 34z" fill="currentColor"/>
</g>
<g transform="translate(40.2520, 16.5185)">
<rect x="-0.0650" y="-1.1866" width="0.1300" height="3.5005" ry="0.0400" fill="currentColor"/>
</g>
<g transform="translate(39.0128, 19.0185)">
<path transform="scale(0.0040, -0.0040)" d="M218 136c55 0 108 -28 108 -89c0 -71 -55 -121 -102 -149c-35 -21 -75 -34 -116 -34c-55 0 -108 28 -108 89c0 71 55 121 102 149c35 21 75 34 116 34z" fill="currentColor"/>
</g>
<g transform="translate(19.1555, 16.5185)">
<rect x="-0.0650" y="-2.0049" width="0.1300" height="2.8188" ry="0.0400" fill="currentColor"/>
</g>
<g transform="translate(17.9163, 17.5185)">
<path transform="scale(0.0040, -0.0040)" d="M218 136c55 0 108 -28 108 -89c0 -71 -55 -121 -102 -149c-35 -21 -75 -34 -116 -34c-55 0 -108 28 -108 89c0 71 55 121 102 149c35 21 75 34 116 34z" fill="currentColor"/>
</g>
<g transform="translate(16.7679, 16.5185)">
<rect x="-0.0650" y="-2.1851" width="0.1300" height="2.4990" ry="0.0400" fill="currentColor"/>
</g>
<g transform="translate(12.1289, 16.5185)">
<path transform="scale(0.0040, -0.0040)" d="M71 412c-34 0 -42 -42 -42 -72v-75c0 -10 -7 -15 -14 -15s-15 5 -15 15v220c0 10 8 15 15 15s14 -5 14 -15v-14c0 -9 12 -19 15 -15c20 29 52 44 85 44c28 0 56 -11 77 -32c13 -13 31 -19 48 -19c29 0 59 17 79 45c3 5 7 6 11 6c8 0 16 -6 16 -14c0 -3 -1 -6 -3 -9
c-83 -118 -161 -248 -161 -386c0 -24 3 -50 8 -75c2 -10 -6 -19 -16 -16c-23 7 -47 13 -71 13s-48 -6 -71 -13c-11 -3 -21 6 -17 16c55 130 136 246 219 360c-21 -11 -41 -17 -61 -17c-23 0 -44 8 -63 27c-16 16 -36 26 -53 26z" fill="currentColor"/>
</g>
<g transform="translate(12.0606, 18.5306)">
<path transform="scale(0.0040, -0.0040)" d="M261 287c25 30 44 64 44 103c0 54 -55 87 -114 87c-46 0 -73 -36 -73 -71c0 -21 10 -42 31 -54zM292 269c54 -31 80 -79 80 -125c0 -73 -66 -144 -189 -144c-94 0 -183 54 -183 140c0 50 36 87 72 123c-37 28 -55 66 -55 103c0 68 60 134 174 134c80 0 157 -39 157 -110
c0 -46 -25 -86 -56 -121zM103 244c-31 -30 -59 -61 -59 -104c0 -69 66 -117 139 -117c54 0 86 42 86 83c0 24 -10 48 -35 62z" fill="currentColor"/>
</g>
<g transform="translate(10.1106, 15.0185)">
<path transform="scale(0.0040, -0.0040)" d="M143 41c-1 33 -22 63 -53 63c-29 0 -43 -34 -43 -67c0 -59 48 -101 93 -139c3 22 4 44 4 66v11zM185 -138c0 -14 -10 -25 -23 -25c-21 0 -30 25 -45 38c-61 52 -147 89 -147 169c0 54 37 102 89 102c33 0 66 -13 91 -34l-7 345c8 5 18 8 27 8s19 -3 27 -8z" fill="currentColor"/>
</g>
<g transform="translate(6.4906, 17.5185)">
<path transform="scale(0.0040, -0.0040)" d="M266 -635h-6c-108 0 -195 88 -195 197c0 58 53 103 112 103c54 0 95 -47 95 -103c0 -52 -43 -95 -95 -95c-11 0 -21 2 -31 6c26 -39 68 -65 117 -65h4zM461 -203c68 24 113 95 113 164c0 90 -66 179 -173 190c24 -116 46 -231 60 -354zM74 28c0 -135 129 -247 264 -247
c28 0 55 2 82 6c-14 127 -37 245 -63 364c-79 -8 -124 -61 -124 -119c0 -44 25 -91 81 -123c5 -5 7 -10 7 -15c0 -11 -10 -22 -22 -22c-3 0 -6 1 -9 2c-80 43 -117 115 -117 185c0 88 58 174 160 197c-14 58 -29 117 -46 175c-107 -121 -213 -243 -213 -403zM335 -262
c-188 0 -333 172 -333 374c0 177 131 306 248 441c-19 62 -37 125 -45 190c-6 52 -7 104 -7 156c0 115 55 224 149 292c6 5 14 5 20 0c71 -84 133 -245 133 -358c0 -143 -86 -255 -180 -364c21 -68 39 -138 56 -207c4 0 9 1 13 1c155 0 256 -128 256 -261
c0 -76 -33 -154 -107 -210c-22 -17 -47 -28 -73 -36c3 -35 5 -70 5 -105c0 -19 -1 -39 -2 -58c-7 -119 -88 -225 -202 -228l1 43c93 2 153 92 159 191c1 18 2 37 2 55c0 31 -1 61 -4 92c-29 -5 -58 -8 -89 -8zM428 916c0 55 -4 79 -20 129c-99 -48 -162 -149 -162 -259
c0 -74 18 -133 36 -194c80 97 146 198 146 324z" fill="currentColor"/>
</g>
<g transform="translate(15.5287, 17.0185)">
<path transform="scale(0.0040, -0.0040)" d="M218 136c55 0 108 -28 108 -89c0 -71 -55 -121 -102 -149c-35 -21 -75 -34 -116 -34c-55 0 -108 28 -108 89c0 71 55 121 102 149c35 21 75 34 116 34z" fill="currentColor"/>
</g>
<g transform="translate(92.7950, 11.3511)">
<g>
<path transform="scale(0.0025, -0.0025)" d="M132 149c36 0 75 -13 113 -41c18 -13 38 -21 55 -21c18 0 33 8 37 25c3 11 12 16 20 16c11 0 21 -9 21 -21c0 -2 0 -4 -1 -6c-17 -64 -80 -101 -142 -101c-39 0 -76 15 -102 47c-11 13 -26 19 -40 19c-25 0 -48 -18 -51 -47c-1 -13 -11 -19 -21 -19c-11 0 -21 7 -21 20
c0 172 232 160 232 335c0 51 -18 103 -62 103c-31 0 -62 -13 -62 -41c0 -25 33 -39 33 -64c0 -35 -29 -63 -64 -63s-63 28 -63 63c0 83 71 147 156 147c97 0 189 -56 189 -145c0 -141 -133 -154 -227 -206z" fill="currentColor"/>

<path transform="translate(0.9902, 0.0000) scale(0.0025, -0.0025)" d="M0 53c0 29 24 53 53 53s53 -24 53 -53s-24 -53 -53 -53s-53 24 -53 53z" fill="currentColor"/>
</g>
</g>
<g transform="translate(90.8650, 9.5910)">
<line stroke-linejoin="round" stroke-linecap="round" stroke-width="0.1600" stroke="currentColor" x1="22.8661" y1="-0.0000" x2="22.8661" y2="-0.0000"/>
</g>
<g transform="translate(90.8650, 9.5910)">
<line stroke-linejoin="round" stroke-linecap="round" stroke-width="0.1600" stroke="currentColor" x1="1.0100" y1="-0.0000" x2="1.0100" y2="2.0000"/>
</g>
<g transform="translate(90.8650, 9.5910)">
<line stroke-linejoin="round" stroke-linecap="round" stroke-width="0.1600" stroke="currentColor" x1="1.0100" y1="-0.0000" x2="22.8661" y2="-0.0000"/>
</g>
<g transform="translate(27.2588, 14.5585)">
<path transform="scale(0.0040, -0.0040)" d="M0 0v-250h-16v250h16zM0 0c0 -197 207 -336 207 -533c0 -71 -15 -141 -41 -207c-5 -8 -13 -12 -20 -12c-13 0 -26 11 -23 27c26 61 42 126 42 192c0 103 -94 208 -165 283v250z" fill="currentColor"/>
</g>
<g transform="translate(27.1938, 16.5185)">
<rect x="-0.0650" y="-2.0000" width="0.1300" height="3.3139" ry="0.0400" fill="currentColor"/>
</g>
<g transform="translate(25.9546, 18.0185)">
<path transform="scale(0.0040, -0.0040)" d="M218 136c55 0 108 -28 108 -89c0 -71 -55 -121 -102 -149c-35 -21 -75 -34 -116 -34c-55 0 -108 28 -108 89c0 71 55 121 102 149c35 21 75 34 116 34z" fill="currentColor"/>
</g>
<g transform="translate(24.2646, 16.5185)">
<rect x="-0.0650" y="-2.5000" width="0.1300" height="3.3139" ry="0.0400" fill="currentColor"/>
</g>
<g transform="scale(0.6000, 0.6000)">
<g transform="translate(35.0830, 20.8909)">
<path transform="scale(0.0050, -0.0050)" d="M-204 -43c0 16 12 28 28 28s29 -12 29 -28s-13 -29 -29 -29s-28 13 -28 29zM147 43c0 16 13 29 29 29s28 -13 28 -29s-12 -28 -28 -28s-29 12 -29 28zM-33 -227c0 33 16 57 52 57c38 0 55 -30 55 -60c0 -27 -14 -54 -39 -62c8 -31 37 -54 71 -54c40 0 70 36 70 78
c0 100 -88 166 -177 219l-192 -326h-57l207 350c-108 63 -207 128 -207 250c0 82 64 150 144 150c79 0 139 -68 139 -148c0 -33 -16 -57 -52 -57c-38 0 -55 30 -55 60c0 27 14 54 39 62c-8 31 -37 54 -71 54c-40 0 -70 -36 -70 -78c0 -100 88 -166 177 -219l192 326h57
l-207 -350c108 -63 207 -128 207 -250c0 -82 -64 -150 -144 -150c-79 0 -139 68 -139 148z" fill="currentColor"/>
</g>
</g>
<g transform="translate(23.0254, 17.5185)">
<path transform="scale(0.0040, -0.0040)" d="M218 136c55 0 108 -28 108 -89c0 -71 -55 -121 -102 -149c-35 -21 -75 -34 -116 -34c-55 0 -108 28 -108 89c0 71 55 121 102 149c35 21 75 34 116 34z" fill="currentColor"/>
</g>
<g transform="translate(51.2593, 17.0185)">
<path transform="scale(0.0040, -0.0040)" d="M218 136c55 0 108 -28 108 -89c0 -71 -55 -121 -102 -149c-35 -21 -75 -34 -116 -34c-55 0 -108 28 -108 89c0 71 55 121 102 149c35 21 75 34 116 34z" fill="currentColor"/>
</g>
<g transform="translate(62.4227, 18.0185)">
<path transform="scale(0.0040, -0.0040)" d="M218 136c55 0 108 -28 108 -89c0 -71 -55 -121 -102 -149c-35 -21 -75 -34 -116 -34c-55 0 -108 28 -108 89c0 71 55 121 102 149c35 21 75 34 116 34z" fill="currentColor"/>
</g>
<g transform="translate(52.4985, 16.5185)">
<rect x="-0.0650" y="-2.1851" width="0.1300" height="2.4990" ry="0.0400" fill="currentColor"/>
</g>
<g transform="translate(53.6468, 17.5185)">
<path transform="scale(0.0040, -0.0040)" d="M218 136c55 0 108 -28 108 -89c0 -71 -55 -121 -102 -149c-35 -21 -75 -34 -116 -34c-55 0 -108 28 -108 89c0 71 55 121 102 149c35 21 75 34 116 34z" fill="currentColor"/>
</g>
<g transform="translate(63.6619, 16.5185)">
<rect x="-0.0650" y="-1.1851" width="0.1300" height="2.4990" ry="0.0400" fill="currentColor"/>
</g>
<g transform="translate(49.3193, 16.5185)">
<rect x="-0.0650" y="-1.0000" width="0.1300" height="3.3139" ry="0.0400" fill="currentColor"/>
</g>
<g transform="translate(58.3451, 16.5185)">
<rect x="-0.0650" y="-2.5000" width="0.1300" height="3.3139" ry="0.0400" fill="currentColor"/>
</g>
<g transform="translate(57.1059, 17.5185)">
<path transform="scale(0.0040, -0.0040)" d="M218 136c55 0 108 -28 108 -89c0 -71 -55 -121 -102 -149c-35 -21 -75 -34 -116 -34c-55 0 -108 28 -108 89c0 71 55 121 102 149c35 21 75 34 116 34z" fill="currentColor"/>
</g>
<g transform="translate(60.0351, 18.0185)">
<path transform="scale(0.0040, -0.0040)" d="M218 136c55 0 108 -28 108 -89c0 -71 -55 -121 -102 -149c-35 -21 -75 -34 -116 -34c-55 0 -108 28 -108 89c0 71 55 121 102 149c35 21 75 34 116 34z" fill="currentColor"/>
</g>
<g transform="translate(61.2744, 16.5185)">
<rect x="-0.0650" y="-2.0000" width="0.1300" height="3.3139" ry="0.0400" fill="currentColor"/>
</g>
<g transform="translate(61.3394, 14.5585)">
<path transform="scale(0.0040, -0.0040)" d="M0 0v-250h-16v250h16zM0 0c0 -197 207 -336 207 -533c0 -71 -15 -141 -41 -207c-5 -8 -13 -12 -20 -12c-13 0 -26 11 -23 27c26 61 42 126 42 192c0 103 -94 208 -165 283v250z" fill="currentColor"/>
</g>
<g transform="translate(54.8861, 16.5185)">
<rect x="-0.0650" y="-2.0049" width="0.1300" height="2.8188" ry="0.0400" fill="currentColor"/>
</g>
<g transform="translate(45.1610, 20.0185)">
<path transform="scale(0.0028, -0.0028)" d="M208 139c61 0 117 -33 117 -99c0 -71 -52 -119 -99 -147c-34 -20 -71 -32 -110 -32c-61 0 -116 33 -116 99c0 71 51 119 98 147c34 20 71 32 110 32z" fill="currentColor"/>
</g>
<g transform="translate(46.0139, 16.5185)">
<rect x="-0.0650" y="-0.8888" width="0.1300" height="4.2744" ry="0.0400" fill="currentColor"/>
</g>
<g transform="translate(66.0494, 16.5185)">
<rect x="-0.0650" y="-1.0049" width="0.1300" height="2.8188" ry="0.0400" fill="currentColor"/>
</g>
<g transform="translate(44.2858, 20.0185)">
<path transform="scale(0.0028, -0.0028)" d="M129 35c-1 34 -18 66 -49 66c-28 0 -41 -31 -41 -63c0 -57 45 -100 87 -138c3 21 5 43 5 64v11zM130 446c10 6 21 8 32 8s21 -2 31 -8l-14 -587c0 -17 -12 -32 -28 -32c-26 0 -34 31 -52 48c-57 52 -137 92 -137 169c0 54 31 105 81 105c36 0 71 -14 96 -40z" fill="currentColor"/>
</g>
<g transform="translate(43.7128, 16.5185)">
<rect x="-0.0650" y="-1.0077" width="0.1300" height="3.8933" ry="0.0400" fill="currentColor"/>
</g>
<g transform="translate(42.8599, 19.5185)">
<path transform="scale(0.0028, -0.0028)" d="M208 139c61 0 117 -33 117 -99c0 -71 -52 -119 -99 -147c-34 -20 -71 -32 -110 -32c-61 0 -116 33 -116 99c0 71 51 119 98 147c34 20 71 32 110 32z" fill="currentColor"/>
</g>
<g transform="translate(47.4734, 16.5185)">
<rect x="-0.0650" y="-0.8134" width="0.1300" height="3.6989" ry="0.0400" fill="currentColor"/>
</g>
<g transform="translate(48.0801, 19.0185)">
<path transform="scale(0.0040, -0.0040)" d="M218 136c55 0 108 -28 108 -89c0 -71 -55 -121 -102 -149c-35 -21 -75 -34 -116 -34c-55 0 -108 28 -108 89c0 71 55 121 102 149c35 21 75 34 116 34z" fill="currentColor"/>
</g>
<g transform="translate(64.8102, 18.5185)">
<path transform="scale(0.0040, -0.0040)" d="M218 136c55 0 108 -28 108 -89c0 -71 -55 -121 -102 -149c-35 -21 -75 -34 -116 -34c-55 0 -108 28 -108 89c0 71 55 121 102 149c35 21 75 34 116 34z" fill="currentColor"/>
</g>
<g transform="translate(46.6205, 19.5185)">
<path transform="scale(0.0028, -0.0028)" d="M208 139c61 0 117 -33 117 -99c0 -71 -52 -119 -99 -147c-34 -20 -71 -32 -110 -32c-61 0 -116 33 -116 99c0 71 51 119 98 147c34 20 71 32 110 32z" fill="currentColor"/>
</g>
<g transform="translate(5.6906, 30.5185)">
<line stroke-linejoin="round" stroke-linecap="round" stroke-width="0.1000" stroke="currentColor" x1="0.0500" y1="0" x2="108.0705" y2="0"/>
</g>
<g transform="translate(5.6906, 29.5185)">
<line stroke-linejoin="round" stroke-linecap="round" stroke-width="0.1000" stroke="currentColor" x1="0.0500" y1="0" x2="108.0705" y2="0"/>
</g>
<g transform="translate(5.6906, 28.5185)">
<line stroke-linejoin="round" stroke-linecap="round" stroke-width="0.1000" stroke="currentColor" x1="0.0500" y1="0" x2="108.0705" y2="0"/>
</g>
<g transform="translate(5.6906, 27.5185)">
<line stroke-linejoin="round" stroke-linecap="round" stroke-width="0.1000" stroke="currentColor" x1="0.0500" y1="0" x2="108.0705" y2="0"/>
</g>
<g transform="translate(5.6906, 26.5185)">
<line stroke-linejoin="round" stroke-linecap="round" stroke-width="0.1000" stroke="currentColor" x1="0.0500" y1="0" x2="108.0705" y2="0"/>
</g>
<g transform="translate(51.8873, 28.5185)">
<rect x="0.0000" y="-2.0000" width="0.1900" height="4.0000" ry="0.0000" fill="currentColor"/>
</g>
<g transform="translate(32.7867, 28.5185)">
<rect x="0.0000" y="-2.0000" width="0.1900" height="4.0000" ry="0.0000" fill="currentColor"/>
</g>
<g transform="translate(113.6210, 28.5185)">
<rect x="0.0000" y="-2.0000" width="0.1900" height="4.0000" ry="0.0000" fill="currentColor"/>
</g>
<g transform="translate(95.0479, 28.5185)">
<rect x="0.0000" y="-2.0000" width="0.1900" height="4.0000" ry="0.0000" fill="currentColor"/>
</g>
<g transform="translate(70.5333, 28.5185)">
<rect x="0.0000" y="-2.0000" width="0.1900" height="4.0000" ry="0.0000" fill="currentColor"/>
</g>
<g transform="translate(13.4006, 28.0185)">
<path transform="scale(0.0040, -0.0040)" d="M0 0c0 31 25 56 56 56s56 -25 56 -56s-25 -56 -56 -56s-56 25 -56 56z" fill="currentColor"/>
</g>
<g transform="translate(13.4006, 29.0185)">
<path transform="scale(0.0040, -0.0040)" d="M0 0c0 31 25 56 56 56s56 -25 56 -56s-25 -56 -56 -56s-56 25 -56 56z" fill="currentColor"/>
</g>
<g transform="translate(12.9106, 28.5185)">
<rect x="0.0000" y="-2.0000" width="0.1900" height="4.0000" ry="0.0000" fill="currentColor"/>
</g>
<g transform="translate(12.0106, 28.5185)">
<rect x="0.0000" y="-2.0000" width="0.6000" height="4.0000" ry="0.0000" fill="currentColor"/>
</g>
<g transform="translate(5.6906, 31.5185)">
<rect x="83.9092" y="-0.1000" width="1.3768" height="0.2000" ry="0.1000" fill="currentColor"/>
</g>
<g transform="translate(5.6906, 31.5185)">
<rect x="82.2502" y="-0.1000" width="1.3768" height="0.2000" ry="0.1000" fill="currentColor"/>
</g>
<g transform="translate(5.6906, 31.5185)">
<rect x="80.5913" y="-0.1000" width="1.3768" height="0.2000" ry="0.1000" fill="currentColor"/>
</g>
<g transform="translate(5.6906, 31.5185)">
<rect x="73.9555" y="-0.1000" width="1.3768" height="0.2000" ry="0.1000" fill="currentColor"/>
</g>
<g transform="translate(5.6906, 31.5185)">
<rect x="72.3713" y="-0.1000" width="1.3021" height="0.2000" ry="0.1000" fill="currentColor"/>
</g>
<g transform="translate(5.6906, 31.5185)">
<rect x="69.9955" y="-0.1000" width="1.3768" height="0.2000" ry="0.1000" fill="currentColor"/>
</g>
<g transform="translate(5.6906, 31.5185)">
<rect x="36.6292" y="-0.1000" width="1.9563" height="0.2000" ry="0.1000" fill="currentColor"/>
</g>
<g transform="translate(82.3874, 28.5185)">
<rect x="-0.0650" y="-0.9976" width="0.1300" height="3.3832" ry="0.0400" fill="currentColor"/>
</g>
<g transform="translate(84.0463, 28.5185)">
<rect x="-0.0650" y="-0.9359" width="0.1300" height="2.8214" ry="0.0400" fill="currentColor"/>
</g>
<g transform="translate(83.1934, 30.5185)">
<path transform="scale(0.0028, -0.0028)" d="M208 139c61 0 117 -33 117 -99c0 -71 -52 -119 -99 -147c-34 -20 -71 -32 -110 -32c-61 0 -116 33 -116 99c0 71 51 119 98 147c34 20 71 32 110 32z" fill="currentColor"/>
</g>
<g transform="translate(81.5345, 31.0185)">
<path transform="scale(0.0028, -0.0028)" d="M208 139c61 0 117 -33 117 -99c0 -71 -52 -119 -99 -147c-34 -20 -71 -32 -110 -32c-61 0 -116 33 -116 99c0 71 51 119 98 147c34 20 71 32 110 32z" fill="currentColor"/>
</g>
<g transform="translate(80.7284, 28.5185)">
<rect x="-0.0650" y="-0.8130" width="0.1300" height="3.6986" ry="0.0400" fill="currentColor"/>
</g>
<g transform="translate(79.8755, 31.5185)">
<path transform="scale(0.0028, -0.0028)" d="M208 139c61 0 117 -33 117 -99c0 -71 -52 -119 -99 -147c-34 -20 -71 -32 -110 -32c-61 0 -116 33 -116 99c0 71 51 119 98 147c34 20 71 32 110 32z" fill="currentColor"/>
</g>
<g transform="translate(89.0232, 28.5185)">
<rect x="-0.0650" y="-0.0103" width="0.1300" height="3.3959" ry="0.0400" fill="currentColor"/>
</g>
<g transform="translate(88.1703, 32.0185)">
<path transform="scale(0.0028, -0.0028)" d="M208 139c61 0 117 -33 117 -99c0 -71 -52 -119 -99 -147c-34 -20 -71 -32 -110 -32c-61 0 -116 33 -116 99c0 71 51 119 98 147c34 20 71 32 110 32z" fill="currentColor"/>
</g>
<g transform="translate(87.3642, 28.5185)">
<rect x="-0.0650" y="-0.8124" width="0.1300" height="3.6980" ry="0.0400" fill="currentColor"/>
</g>
<g transform="translate(86.5113, 31.5185)">
<path transform="scale(0.0028, -0.0028)" d="M208 139c61 0 117 -33 117 -99c0 -71 -52 -119 -99 -147c-34 -20 -71 -32 -110 -32c-61 0 -116 33 -116 99c0 71 51 119 98 147c34 20 71 32 110 32z" fill="currentColor"/>
</g>
<g transform="translate(85.7053, 28.5185)">
<rect x="-0.0650" y="-0.8741" width="0.1300" height="3.2597" ry="0.0400" fill="currentColor"/>
</g>
<g transform="translate(89.8292, 31.5185)">
<path transform="scale(0.0028, -0.0028)" d="M208 139c61 0 117 -33 117 -99c0 -71 -52 -119 -99 -147c-34 -20 -71 -32 -110 -32c-61 0 -116 33 -116 99c0 71 51 119 98 147c34 20 71 32 110 32z" fill="currentColor"/>
</g>
<g transform="translate(67.4969, 31.0185)">
<path transform="scale(0.0040, -0.0040)" d="M218 136c55 0 108 -28 108 -89c0 -71 -55 -121 -102 -149c-35 -21 -75 -34 -116 -34c-55 0 -108 28 -108 89c0 71 55 121 102 149c35 21 75 34 116 34z" fill="currentColor"/>
</g>
<g transform="translate(84.8524, 31.0185)">
<path transform="scale(0.0028, -0.0028)" d="M208 139c61 0 117 -33 117 -99c0 -71 -52 -119 -99 -147c-34 -20 -71 -32 -110 -32c-61 0 -116 33 -116 99c0 71 51 119 98 147c34 20 71 32 110 32z" fill="currentColor"/>
</g>
<g transform="translate(72.7095, 28.5185)">
<rect x="-0.0650" y="-1.1870" width="0.1300" height="3.5009" ry="0.0400" fill="currentColor"/>
</g>
<g transform="translate(71.4703, 31.0185)">
<path transform="scale(0.0040, -0.0040)" d="M218 136c55 0 108 -28 108 -89c0 -71 -55 -121 -102 -149c-35 -21 -75 -34 -116 -34c-55 0 -108 28 -108 89c0 71 55 121 102 149c35 21 75 34 116 34z" fill="currentColor"/>
</g>
<g transform="translate(68.7362, 28.5185)">
<rect x="-0.0650" y="-0.8142" width="0.1300" height="3.1281" ry="0.0400" fill="currentColor"/>
</g>
<g transform="translate(108.9859, 26.7085)">
<polygon stroke-linejoin="round" stroke-linecap="round" stroke-width="0.0800" fill="currentColor" stroke="currentColor" points="2.8763 -0.2000 2.8763 0.2000 0.0400 0.2000 0.0400 -0.2000"/>
</g>
<g transform="translate(77.3414, 32.0185)">
<path transform="scale(0.0028, -0.0028)" d="M129 35c-1 34 -18 66 -49 66c-28 0 -41 -31 -41 -63c0 -57 45 -100 87 -138c3 21 5 43 5 64v11zM130 446c10 6 21 8 32 8s21 -2 31 -8l-14 -587c0 -17 -12 -32 -28 -32c-26 0 -34 31 -52 48c-57 52 -137 92 -137 169c0 54 31 105 81 105c36 0 71 -14 96 -40z" fill="currentColor"/>
</g>
<g transform="translate(79.0695, 28.5185)">
<rect x="-0.0650" y="-0.8904" width="0.1300" height="4.2760" ry="0.0400" fill="currentColor"/>
</g>
<g transform="translate(78.2166, 32.0185)">
<path transform="scale(0.0028, -0.0028)" d="M208 139c61 0 117 -33 117 -99c0 -71 -52 -119 -99 -147c-34 -20 -71 -32 -110 -32c-61 0 -116 33 -116 99c0 71 51 119 98 147c34 20 71 32 110 32z" fill="currentColor"/>
</g>
<g transform="translate(76.7684, 28.5185)">
<rect x="-0.0650" y="-0.9977" width="0.1300" height="3.8833" ry="0.0400" fill="currentColor"/>
</g>
<g transform="translate(75.9156, 31.5185)">
<path transform="scale(0.0028, -0.0028)" d="M208 139c61 0 117 -33 117 -99c0 -71 -52 -119 -99 -147c-34 -20 -71 -32 -110 -32c-61 0 -116 33 -116 99c0 71 51 119 98 147c34 20 71 32 110 32z" fill="currentColor"/>
</g>
<g transform="translate(75.1095, 28.5185)">
<rect x="-0.0650" y="-1.0751" width="0.1300" height="3.4606" ry="0.0400" fill="currentColor"/>
</g>
<g transform="translate(74.2566, 31.0185)">
<path transform="scale(0.0028, -0.0028)" d="M208 139c61 0 117 -33 117 -99c0 -71 -52 -119 -99 -147c-34 -20 -71 -32 -110 -32c-61 0 -116 33 -116 99c0 71 51 119 98 147c34 20 71 32 110 32z" fill="currentColor"/>
</g>
<g transform="translate(109.0509, 28.5185)">
<rect x="-0.0650" y="-1.8100" width="0.1300" height="3.1239" ry="0.0400" fill="currentColor"/>
</g>
<g transform="translate(111.8372, 28.5185)">
<rect x="-0.0650" y="-1.8100" width="0.1300" height="3.1239" ry="0.0400" fill="currentColor"/>
</g>
<g transform="translate(110.5980, 30.0185)">
<path transform="scale(0.0040, -0.0040)" d="M218 136c55 0 108 -28 108 -89c0 -71 -55 -121 -102 -149c-35 -21 -75 -34 -116 -34c-55 0 -108 28 -108 89c0 71 55 121 102 149c35 21 75 34 116 34z" fill="currentColor"/>
</g>
<g transform="translate(107.8117, 30.0185)">
<path transform="scale(0.0040, -0.0040)" d="M218 136c55 0 108 -28 108 -89c0 -71 -55 -121 -102 -149c-35 -21 -75 -34 -116 -34c-55 0 -108 28 -108 89c0 71 55 121 102 149c35 21 75 34 116 34z" fill="currentColor"/>
</g>
<g transform="translate(105.5831, 28.5185)">
<rect x="-0.0650" y="-2.0000" width="0.1300" height="3.3139" ry="0.0400" fill="currentColor"/>
</g>
<g transform="translate(104.3439, 30.0185)">
<path transform="scale(0.0040, -0.0040)" d="M218 136c55 0 108 -28 108 -89c0 -71 -55 -121 -102 -149c-35 -21 -75 -34 -116 -34c-55 0 -108 28 -108 89c0 71 55 121 102 149c35 21 75 34 116 34z" fill="currentColor"/>
</g>
<g transform="translate(97.1591, 26.7085)">
<polygon stroke-linejoin="round" stroke-linecap="round" stroke-width="0.0800" fill="currentColor" stroke="currentColor" points="5.6626 -0.2000 5.6626 0.2000 0.0400 0.2000 0.0400 -0.2000"/>
</g>
<g transform="translate(88.9582, 28.5185)">
<polygon stroke-linejoin="round" stroke-linecap="round" stroke-width="0.0800" fill="currentColor" stroke="currentColor" points="5.0668 -1.0100 5.0668 -0.6100 0.0400 0.2000 0.0400 -0.2000"/>
</g>
<g transform="translate(88.9582, 29.3285)">
<polygon stroke-linejoin="round" stroke-linecap="round" stroke-width="0.0800" fill="currentColor" stroke="currentColor" points="5.0668 -1.0100 5.0668 -0.6100 0.0400 0.2000 0.0400 -0.2000"/>
</g>
<g transform="translate(82.3224, 27.5185)">
<polygon stroke-linejoin="round" stroke-linecap="round" stroke-width="0.0800" fill="currentColor" stroke="currentColor" points="5.0668 -0.0100 5.0668 0.3900 0.0400 0.2000 0.0400 -0.2000"/>
</g>
<g transform="translate(82.3224, 28.3285)">
<polygon stroke-linejoin="round" stroke-linecap="round" stroke-width="0.0800" fill="currentColor" stroke="currentColor" points="5.0668 -0.0100 5.0668 0.3900 0.0400 0.2000 0.0400 -0.2000"/>
</g>
<g transform="translate(72.6445, 27.3285)">
<polygon stroke-linejoin="round" stroke-linecap="round" stroke-width="0.0800" fill="currentColor" stroke="currentColor" points="8.1089 0.1800 8.1089 0.5800 0.0400 0.2000 0.0400 -0.2000"/>
</g>
<g transform="translate(75.0445, 28.2504)">
<polygon stroke-linejoin="round" stroke-linecap="round" stroke-width="0.0800" fill="currentColor" stroke="currentColor" points="5.7089 0.0681 5.7089 0.4681 0.0400 0.2000 0.0400 -0.2000"/>
</g>
<g transform="translate(65.8848, 27.5185)">
<polygon stroke-linejoin="round" stroke-linecap="round" stroke-width="0.0800" fill="currentColor" stroke="currentColor" points="2.8763 -0.0100 2.8763 0.3900 0.0400 0.2000 0.0400 -0.2000"/>
</g>
<g transform="translate(60.3122, 27.3285)">
<polygon stroke-linejoin="round" stroke-linecap="round" stroke-width="0.0800" fill="currentColor" stroke="currentColor" points="2.8763 -0.0100 2.8763 0.3900 0.0400 0.2000 0.0400 -0.2000"/>
</g>
<g transform="translate(47.2878, 26.3285)">
<polygon stroke-linejoin="round" stroke-linecap="round" stroke-width="0.0800" fill="currentColor" stroke="currentColor" points="2.8763 -0.0100 2.8763 0.3900 0.0400 0.2000 0.0400 -0.2000"/>
</g>
<g transform="translate(34.8979, 27.5185)">
<polygon stroke-linejoin="round" stroke-linecap="round" stroke-width="0.0800" fill="currentColor" stroke="currentColor" points="7.2168 -0.2000 7.2168 0.2000 0.0400 0.2000 0.0400 -0.2000"/>
</g>
<g transform="translate(37.2979, 28.3285)">
<polygon stroke-linejoin="round" stroke-linecap="round" stroke-width="0.0800" fill="currentColor" stroke="currentColor" points="4.8168 -0.2000 4.8168 0.2000 0.0400 0.2000 0.0400 -0.2000"/>
</g>
<g transform="translate(28.1515, 26.7085)">
<polygon stroke-linejoin="round" stroke-linecap="round" stroke-width="0.0800" fill="currentColor" stroke="currentColor" points="2.8763 -0.2000 2.8763 0.2000 0.0400 0.2000 0.0400 -0.2000"/>
</g>
<g transform="translate(16.3248, 26.7085)">
<polygon stroke-linejoin="round" stroke-linecap="round" stroke-width="0.0800" fill="currentColor" stroke="currentColor" points="5.6626 -0.2000 5.6626 0.2000 0.0400 0.2000 0.0400 -0.2000"/>
</g>
<g transform="translate(93.1471, 30.5185)">
<path transform="scale(0.0028, -0.0028)" d="M208 139c61 0 117 -33 117 -99c0 -71 -52 -119 -99 -147c-34 -20 -71 -32 -110 -32c-61 0 -116 33 -116 99c0 71 51 119 98 147c34 20 71 32 110 32z" fill="currentColor"/>
</g>
<g transform="translate(95.9849, 30.0185)">
<path transform="scale(0.0040, -0.0040)" d="M218 136c55 0 108 -28 108 -89c0 -71 -55 -121 -102 -149c-35 -21 -75 -34 -116 -34c-55 0 -108 28 -108 89c0 71 55 121 102 149c35 21 75 34 116 34z" fill="currentColor"/>
</g>
<g transform="translate(94.0000, 28.5185)">
<rect x="-0.0650" y="-0.7997" width="0.1300" height="2.6853" ry="0.0400" fill="currentColor"/>
</g>
<g transform="translate(97.2241, 28.5185)">
<rect x="-0.0650" y="-1.8100" width="0.1300" height="3.1239" ry="0.0400" fill="currentColor"/>
</g>
<g transform="translate(92.3410, 28.5185)">
<rect x="-0.0650" y="-0.5366" width="0.1300" height="2.9221" ry="0.0400" fill="currentColor"/>
</g>
<g transform="translate(91.4882, 31.0185)">
<path transform="scale(0.0028, -0.0028)" d="M208 139c61 0 117 -33 117 -99c0 -71 -52 -119 -99 -147c-34 -20 -71 -32 -110 -32c-61 0 -116 33 -116 99c0 71 51 119 98 147c34 20 71 32 110 32z" fill="currentColor"/>
</g>
<g transform="translate(102.7968, 28.5185)">
<rect x="-0.0650" y="-1.8100" width="0.1300" height="3.1239" ry="0.0400" fill="currentColor"/>
</g>
<g transform="translate(101.5575, 30.0185)">
<path transform="scale(0.0040, -0.0040)" d="M218 136c55 0 108 -28 108 -89c0 -71 -55 -121 -102 -149c-35 -21 -75 -34 -116 -34c-55 0 -108 28 -108 89c0 71 55 121 102 149c35 21 75 34 116 34z" fill="currentColor"/>
</g>
<g transform="translate(100.0104, 28.5185)">
<rect x="-0.0650" y="-1.8100" width="0.1300" height="3.1239" ry="0.0400" fill="currentColor"/>
</g>
<g transform="translate(98.7712, 30.0185)">
<path transform="scale(0.0040, -0.0040)" d="M218 136c55 0 108 -28 108 -89c0 -71 -55 -121 -102 -149c-35 -21 -75 -34 -116 -34c-55 0 -108 28 -108 89c0 71 55 121 102 149c35 21 75 34 116 34z" fill="currentColor"/>
</g>
<g transform="translate(90.6821, 28.5185)">
<rect x="-0.0650" y="-0.2734" width="0.1300" height="3.1590" ry="0.0400" fill="currentColor"/>
</g>
<g transform="translate(34.9629, 28.5185)">
<rect x="-0.0650" y="-1.0000" width="0.1300" height="2.8139" ry="0.0400" fill="currentColor"/>
</g>
<g transform="translate(33.7237, 30.5185)">
<path transform="scale(0.0040, -0.0040)" d="M218 136c55 0 108 -28 108 -89c0 -71 -55 -121 -102 -149c-35 -21 -75 -34 -116 -34c-55 0 -108 28 -108 89c0 71 55 121 102 149c35 21 75 34 116 34z" fill="currentColor"/>
</g>
<g transform="translate(31.0029, 28.5185)">
<rect x="-0.0650" y="-1.8100" width="0.1300" height="3.1239" ry="0.0400" fill="currentColor"/>
</g>
<g transform="translate(29.7637, 30.0185)">
<path transform="scale(0.0040, -0.0040)" d="M218 136c55 0 108 -28 108 -89c0 -71 -55 -121 -102 -149c-35 -21 -75 -34 -116 -34c-55 0 -108 28 -108 89c0 71 55 121 102 149c35 21 75 34 116 34z" fill="currentColor"/>
</g>
<g transform="translate(40.4308, 28.5185)">
<rect x="-0.0650" y="-1.0000" width="0.1300" height="3.3856" ry="0.0400" fill="currentColor"/>
</g>
<g transform="translate(39.5779, 31.0185)">
<path transform="scale(0.0028, -0.0028)" d="M208 139c61 0 117 -33 117 -99c0 -71 -52 -119 -99 -147c-34 -20 -71 -32 -110 -32c-61 0 -116 33 -116 99c0 71 51 119 98 147c34 20 71 32 110 32z" fill="currentColor"/>
</g>
<g transform="translate(39.0219, 28.5185)">
<rect x="-0.0650" y="-1.0000" width="0.1300" height="2.3856" ry="0.0400" fill="currentColor"/>
</g>
<g transform="translate(38.1690, 30.0185)">
<path transform="scale(0.0028, -0.0028)" d="M208 139c61 0 117 -33 117 -99c0 -71 -52 -119 -99 -147c-34 -20 -71 -32 -110 -32c-61 0 -116 33 -116 99c0 71 51 119 98 147c34 20 71 32 110 32z" fill="currentColor"/>
</g>
<g transform="translate(37.3629, 28.5185)">
<rect x="-0.0650" y="-1.0000" width="0.1300" height="2.8856" ry="0.0400" fill="currentColor"/>
</g>
<g transform="translate(36.5100, 30.5185)">
<path transform="scale(0.0028, -0.0028)" d="M208 139c61 0 117 -33 117 -99c0 -71 -52 -119 -99 -147c-34 -20 -71 -32 -110 -32c-61 0 -116 33 -116 99c0 71 51 119 98 147c34 20 71 32 110 32z" fill="currentColor"/>
</g>
<g transform="translate(17.9369, 30.0185)">
<path transform="scale(0.0040, -0.0040)" d="M218 136c55 0 108 -28 108 -89c0 -71 -55 -121 -102 -149c-35 -21 -75 -34 -116 -34c-55 0 -108 28 -108 89c0 71 55 121 102 149c35 21 75 34 116 34z" fill="currentColor"/>
</g>
<g transform="translate(16.3898, 28.5185)">
<rect x="-0.0650" y="-1.8100" width="0.1300" height="3.1239" ry="0.0400" fill="currentColor"/>
</g>
<g transform="translate(15.1506, 30.0185)">
<path transform="scale(0.0040, -0.0040)" d="M218 136c55 0 108 -28 108 -89c0 -71 -55 -121 -102 -149c-35 -21 -75 -34 -116 -34c-55 0 -108 28 -108 89c0 71 55 121 102 149c35 21 75 34 116 34z" fill="currentColor"/>
</g>
<g transform="translate(19.1761, 28.5185)">
<rect x="-0.0650" y="-1.8100" width="0.1300" height="3.1239" ry="0.0400" fill="currentColor"/>
</g>
<g transform="translate(4.7004, 25.4510)">
<text font-family="serif" font-size="1.7461" text-anchor="start" fill="currentColor">
<tspan>5</tspan>
</text>
</g>
<g transform="translate(10.1106, 27.0185)">
<path transform="scale(0.0040, -0.0040)" d="M143 41c-1 33 -22 63 -53 63c-29 0 -43 -34 -43 -67c0 -59 48 -101 93 -139c3 22 4 44 4 66v11zM185 -138c0 -14 -10 -25 -23 -25c-21 0 -30 25 -45 38c-61 52 -147 89 -147 169c0 54 37 102 89 102c33 0 66 -13 91 -34l-7 345c8 5 18 8 27 8s19 -3 27 -8z" fill="currentColor"/>
</g>
<g transform="translate(6.4906, 29.5185)">
<path transform="scale(0.0040, -0.0040)" d="M266 -635h-6c-108 0 -195 88 -195 197c0 58 53 103 112 103c54 0 95 -47 95 -103c0 -52 -43 -95 -95 -95c-11 0 -21 2 -31 6c26 -39 68 -65 117 -65h4zM461 -203c68 24 113 95 113 164c0 90 -66 179 -173 190c24 -116 46 -231 60 -354zM74 28c0 -135 129 -247 264 -247
c28 0 55 2 82 6c-14 127 -37 245 -63 364c-79 -8 -124 -61 -124 -119c0 -44 25 -91 81 -123c5 -5 7 -10 7 -15c0 -11 -10 -22 -22 -22c-3 0 -6 1 -9 2c-80 43 -117 115 -117 185c0 88 58 174 160 197c-14 58 -29 117 -46 175c-107 -121 -213 -243 -213 -403zM335 -262
c-188 0 -333 172 -333 374c0 177 131 306 248 441c-19 62 -37 125 -45 190c-6 52 -7 104 -7 156c0 115 55 224 149 292c6 5 14 5 20 0c71 -84 133 -245 133 -358c0 -143 -86 -255 -180 -364c21 -68 39 -138 56 -207c4 0 9 1 13 1c155 0 256 -128 256 -261
c0 -76 -33 -154 -107 -210c-22 -17 -47 -28 -73 -36c3 -35 5 -70 5 -105c0 -19 -1 -39 -2 -58c-7 -119 -88 -225 -202 -228l1 43c93 2 153 92 159 191c1 18 2 37 2 55c0 31 -1 61 -4 92c-29 -5 -58 -8 -89 -8zM428 916c0 55 -4 79 -20 129c-99 -48 -162 -149 -162 -259
c0 -74 18 -133 36 -194c80 97 146 198 146 324z" fill="currentColor"/>
</g>
<g transform="translate(28.2165, 28.5185)">
<rect x="-0.0650" y="-1.8100" width="0.1300" height="3.1239" ry="0.0400" fill="currentColor"/>
</g>
<g transform="translate(26.9773, 30.0185)">
<path transform="scale(0.0040, -0.0040)" d="M218 136c55 0 108 -28 108 -89c0 -71 -55 -121 -102 -149c-35 -21 -75 -34 -116 -34c-55 0 -108 28 -108 89c0 71 55 121 102 149c35 21 75 34 116 34z" fill="currentColor"/>
</g>
<g transform="translate(24.7487, 28.5185)">
<rect x="-0.0650" y="-2.0000" width="0.1300" height="3.3139" ry="0.0400" fill="currentColor"/>
</g>
<g transform="translate(23.5095, 30.0185)">
<path transform="scale(0.0040, -0.0040)" d="M218 136c55 0 108 -28 108 -89c0 -71 -55 -121 -102 -149c-35 -21 -75 -34 -116 -34c-55 0 -108 28 -108 89c0 71 55 121 102 149c35 21 75 34 116 34z" fill="currentColor"/>
</g>
<g transform="translate(21.9624, 28.5185)">
<rect x="-0.0650" y="-1.8100" width="0.1300" height="3.1239" ry="0.0400" fill="currentColor"/>
</g>
<g transform="translate(20.7232, 30.0185)">
<path transform="scale(0.0040, -0.0040)" d="M218 136c55 0 108 -28 108 -89c0 -71 -55 -121 -102 -149c-35 -21 -75 -34 -116 -34c-55 0 -108 28 -108 89c0 71 55 121 102 149c35 21 75 34 116 34z" fill="currentColor"/>
</g>
<g transform="translate(57.6559, 26.5585)">
<path transform="scale(0.0040, -0.0040)" d="M0 0v-250h-16v250h16zM0 0c0 -197 207 -336 207 -533c0 -71 -15 -141 -41 -207c-5 -8 -13 -12 -20 -12c-13 0 -26 11 -23 27c26 61 42 126 42 192c0 103 -94 208 -165 283v250z" fill="currentColor"/>
</g>
<g transform="translate(57.5909, 28.5185)">
<rect x="-0.0650" y="-2.0000" width="0.1300" height="3.3139" ry="0.0400" fill="currentColor"/>
</g>
<g transform="translate(56.3517, 30.0185)">
<path transform="scale(0.0040, -0.0040)" d="M218 136c55 0 108 -28 108 -89c0 -71 -55 -121 -102 -149c-35 -21 -75 -34 -116 -34c-55 0 -108 28 -108 89c0 71 55 121 102 149c35 21 75 34 116 34z" fill="currentColor"/>
</g>
<g transform="translate(54.0635, 28.5185)">
<rect x="-0.0650" y="-2.5000" width="0.1300" height="3.3139" ry="0.0400" fill="currentColor"/>
</g>
<g transform="translate(52.8243, 29.5185)">
<path transform="scale(0.0040, -0.0040)" d="M218 136c55 0 108 -28 108 -89c0 -71 -55 -121 -102 -149c-35 -21 -75 -34 -116 -34c-55 0 -108 28 -108 89c0 71 55 121 102 149c35 21 75 34 116 34z" fill="currentColor"/>
</g>
<g transform="translate(65.9498, 28.5185)">
<rect x="-0.0650" y="-0.9958" width="0.1300" height="2.8097" ry="0.0400" fill="currentColor"/>
</g>
<g transform="translate(64.7106, 30.5185)">
<path transform="scale(0.0040, -0.0040)" d="M218 136c55 0 108 -28 108 -89c0 -71 -55 -121 -102 -149c-35 -21 -75 -34 -116 -34c-55 0 -108 28 -108 89c0 71 55 121 102 149c35 21 75 34 116 34z" fill="currentColor"/>
</g>
<g transform="translate(63.1635, 28.5185)">
<rect x="-0.0650" y="-1.0042" width="0.1300" height="2.8181" ry="0.0400" fill="currentColor"/>
</g>
<g transform="translate(61.9243, 30.5185)">
<path transform="scale(0.0040, -0.0040)" d="M218 136c55 0 108 -28 108 -89c0 -71 -55 -121 -102 -149c-35 -21 -75 -34 -116 -34c-55 0 -108 28 -108 89c0 71 55 121 102 149c35 21 75 34 116 34z" fill="currentColor"/>
</g>
<g transform="translate(60.3772, 28.5185)">
<rect x="-0.0650" y="-1.1858" width="0.1300" height="2.4997" ry="0.0400" fill="currentColor"/>
</g>
<g transform="translate(59.1380, 30.0185)">
<path transform="scale(0.0040, -0.0040)" d="M218 136c55 0 108 -28 108 -89c0 -71 -55 -121 -102 -149c-35 -21 -75 -34 -116 -34c-55 0 -108 28 -108 89c0 71 55 121 102 149c35 21 75 34 116 34z" fill="currentColor"/>
</g>
<g transform="translate(46.1136, 29.0185)">
<path transform="scale(0.0040, -0.0040)" d="M218 136c55 0 108 -28 108 -89c0 -71 -55 -121 -102 -149c-35 -21 -75 -34 -116 -34c-55 0 -108 28 -108 89c0 71 55 121 102 149c35 21 75 34 116 34z" fill="currentColor"/>
</g>
<g transform="translate(43.8850, 28.5185)">
<rect x="-0.0650" y="-0.5000" width="0.1300" height="3.3139" ry="0.0400" fill="currentColor"/>
</g>
<g transform="translate(42.6458, 31.5185)">
<path transform="scale(0.0040, -0.0040)" d="M218 136c55 0 108 -28 108 -89c0 -71 -55 -121 -102 -149c-35 -21 -75 -34 -116 -34c-55 0 -108 28 -108 89c0 71 55 121 102 149c35 21 75 34 116 34z" fill="currentColor"/>
</g>
<g transform="translate(47.3528, 28.5185)">
<rect x="-0.0650" y="-2.1858" width="0.1300" height="2.4997" ry="0.0400" fill="currentColor"/>
</g>
<g transform="translate(41.2369, 30.5185)">
<path transform="scale(0.0028, -0.0028)" d="M208 139c61 0 117 -33 117 -99c0 -71 -52 -119 -99 -147c-34 -20 -71 -32 -110 -32c-61 0 -116 33 -116 99c0 71 51 119 98 147c34 20 71 32 110 32z" fill="currentColor"/>
</g>
<g transform="translate(42.0898, 28.5185)">
<rect x="-0.0650" y="-1.0000" width="0.1300" height="2.8856" ry="0.0400" fill="currentColor"/>
</g>
<g transform="translate(50.1391, 28.5185)">
<rect x="-0.0650" y="-2.0042" width="0.1300" height="2.8181" ry="0.0400" fill="currentColor"/>
</g>
<g transform="translate(48.8999, 29.5185)">
<path transform="scale(0.0040, -0.0040)" d="M218 136c55 0 108 -28 108 -89c0 -71 -55 -121 -102 -149c-35 -21 -75 -34 -116 -34c-55 0 -108 28 -108 89c0 71 55 121 102 149c35 21 75 34 116 34z" fill="currentColor"/>
</g>
<g transform="translate(5.6906, 42.8565)">
<line stroke-linejoin="round" stroke-linecap="round" stroke-width="0.1000" stroke="currentColor" x1="0.0500" y1="0" x2="108.0705" y2="0"/>
</g>
<g transform="translate(5.6906, 41.8565)">
<line stroke-linejoin="round" stroke-linecap="round" stroke-width="0.1000" stroke="currentColor" x1="0.0500" y1="0" x2="108.0705" y2="0"/>
</g>
<g transform="translate(5.6906, 40.8565)">
<line stroke-linejoin="round" stroke-linecap="round" stroke-width="0.1000" stroke="currentColor" x1="0.0500" y1="0" x2="108.0705" y2="0"/>
</g>
<g transform="translate(5.6906, 39.8565)">
<line stroke-linejoin="round" stroke-linecap="round" stroke-width="0.1000" stroke="currentColor" x1="0.0500" y1="0" x2="108.0705" y2="0"/>
</g>
<g transform="translate(5.6906, 38.8565)">
<line stroke-linejoin="round" stroke-linecap="round" stroke-width="0.1000" stroke="currentColor" x1="0.0500" y1="0" x2="108.0705" y2="0"/>
</g>
<g transform="translate(32.0265, 40.8565)">
<rect x="0.0000" y="-2.0000" width="0.1900" height="4.0000" ry="0.0000" fill="currentColor"/>
</g>
<g transform="translate(75.8324, 40.3565)">
<path transform="scale(0.0040, -0.0040)" d="M0 0c0 31 25 56 56 56s56 -25 56 -56s-25 -56 -56 -56s-56 25 -56 56z" fill="currentColor"/>
</g>
<g transform="translate(75.8324, 41.3565)">
<path transform="scale(0.0040, -0.0040)" d="M0 0c0 31 25 56 56 56s56 -25 56 -56s-25 -56 -56 -56s-56 25 -56 56z" fill="currentColor"/>
</g>
<g transform="translate(77.0724, 40.8565)">
<rect x="0.0000" y="-2.0000" width="0.6000" height="4.0000" ry="0.0000" fill="currentColor"/>
</g>
<g transform="translate(76.5824, 40.8565)">
<rect x="0.0000" y="-2.0000" width="0.1900" height="4.0000" ry="0.0000" fill="currentColor"/>
</g>
<g transform="translate(101.0414, 40.8565)">
<rect x="0.0000" y="-2.0000" width="0.6000" height="4.0000" ry="0.0000" fill="currentColor"/>
</g>
<g transform="translate(100.5514, 40.8565)">
<rect x="0.0000" y="-2.0000" width="0.1900" height="4.0000" ry="0.0000" fill="currentColor"/>
</g>
<g transform="translate(51.1161, 40.8565)">
<rect x="0.0000" y="-2.0000" width="0.1900" height="4.0000" ry="0.0000" fill="currentColor"/>
</g>
<g transform="translate(113.2110, 40.8565)">
<rect x="0.0000" y="-2.0000" width="0.6000" height="4.0000" ry="0.0000" fill="currentColor"/>
</g>
<g transform="translate(112.7210, 40.8565)">
<rect x="0.0000" y="-2.0000" width="0.1900" height="4.0000" ry="0.0000" fill="currentColor"/>
</g>
<g transform="translate(5.6906, 43.8565)">
<rect x="83.1553" y="-0.1000" width="1.3768" height="0.2000" ry="0.1000" fill="currentColor"/>
</g>
<g transform="translate(5.6906, 43.8565)">
<rect x="81.5378" y="-0.1000" width="1.3021" height="0.2000" ry="0.1000" fill="currentColor"/>
</g>
<g transform="translate(5.6906, 43.8565)">
<rect x="79.1620" y="-0.1000" width="1.3768" height="0.2000" ry="0.1000" fill="currentColor"/>
</g>
<g transform="translate(5.6906, 43.8565)">
<rect x="64.8358" y="-0.1000" width="1.3768" height="0.2000" ry="0.1000" fill="currentColor"/>
</g>
<g transform="translate(5.6906, 43.8565)">
<rect x="63.1436" y="-0.1000" width="1.3768" height="0.2000" ry="0.1000" fill="currentColor"/>
</g>
<g transform="translate(5.6906, 43.8565)">
<rect x="61.4514" y="-0.1000" width="1.3768" height="0.2000" ry="0.1000" fill="currentColor"/>
</g>
<g transform="translate(5.6906, 43.8565)">
<rect x="54.6825" y="-0.1000" width="1.3768" height="0.2000" ry="0.1000" fill="currentColor"/>
</g>
<g transform="translate(5.6906, 43.8565)">
<rect x="53.0650" y="-0.1000" width="1.3021" height="0.2000" ry="0.1000" fill="currentColor"/>
</g>
<g transform="translate(5.6906, 43.8565)">
<rect x="50.6893" y="-0.1000" width="1.3768" height="0.2000" ry="0.1000" fill="currentColor"/>
</g>
<g transform="translate(5.6906, 43.8565)">
<rect x="16.5157" y="-0.1000" width="1.9563" height="0.2000" ry="0.1000" fill="currentColor"/>
</g>
<g transform="translate(81.7762, 40.8565)">
<rect x="-0.0650" y="-1.1870" width="0.1300" height="3.5009" ry="0.0400" fill="currentColor"/>
</g>
<g transform="translate(79.1891, 37.1945)">
<path transform="scale(0.0040, -0.0040)" d="M15 -338c0 -8 -7 -15 -15 -15s-15 7 -15 15v89c-97 10 -147 120 -151 234h-88c-8 0 -15 7 -15 15s7 15 15 15h88c4 114 54 224 151 234v89c0 8 7 15 15 15s15 -7 15 -15v-89c97 -10 147 -120 151 -234h88c8 0 15 -7 15 -15s-7 -15 -15 -15h-88
c-4 -114 -54 -224 -151 -234v-89zM15 -15v-204c70 12 77 111 78 204h-78zM15 15h78c-1 93 -8 192 -78 204v-204zM-15 -15h-78c1 -93 8 -192 78 -204v204zM-15 15v204c-70 -12 -77 -111 -78 -204h78z" fill="currentColor"/>
</g>
<g transform="translate(80.5370, 43.3565)">
<path transform="scale(0.0040, -0.0040)" d="M218 136c55 0 108 -28 108 -89c0 -71 -55 -121 -102 -149c-35 -21 -75 -34 -116 -34c-55 0 -108 28 -108 89c0 71 55 121 102 149c35 21 75 34 116 34z" fill="currentColor"/>
</g>
<g transform="translate(74.9931, 40.8565)">
<rect x="-0.0650" y="-0.7999" width="0.1300" height="2.6855" ry="0.0400" fill="currentColor"/>
</g>
<g transform="translate(74.1402, 42.8565)">
<path transform="scale(0.0028, -0.0028)" d="M208 139c61 0 117 -33 117 -99c0 -71 -52 -119 -99 -147c-34 -20 -71 -32 -110 -32c-61 0 -116 33 -116 99c0 71 51 119 98 147c34 20 71 32 110 32z" fill="currentColor"/>
</g>
<g transform="translate(95.8189, 38.6665)">
<polygon stroke-linejoin="round" stroke-linecap="round" stroke-width="0.0800" fill="currentColor" stroke="currentColor" points="2.9429 -0.0100 2.9429 0.3900 0.0400 0.2000 0.0400 -0.2000"/>
</g>
<g transform="translate(73.3009, 40.8565)">
<rect x="-0.0650" y="-0.5366" width="0.1300" height="2.9222" ry="0.0400" fill="currentColor"/>
</g>
<g transform="translate(61.4554, 40.8565)">
<rect x="-0.0650" y="-0.8130" width="0.1300" height="3.6986" ry="0.0400" fill="currentColor"/>
</g>
<g transform="translate(85.9350, 40.8565)">
<rect x="-0.0650" y="-0.9962" width="0.1300" height="3.8818" ry="0.0400" fill="currentColor"/>
</g>
<g transform="translate(85.0821, 43.8565)">
<path transform="scale(0.0028, -0.0028)" d="M208 139c61 0 117 -33 117 -99c0 -71 -52 -119 -99 -147c-34 -20 -71 -32 -110 -32c-61 0 -116 33 -116 99c0 71 51 119 98 147c34 20 71 32 110 32z" fill="currentColor"/>
</g>
<g transform="translate(84.2427, 40.8565)">
<rect x="-0.0650" y="-1.0738" width="0.1300" height="3.4594" ry="0.0400" fill="currentColor"/>
</g>
<g transform="translate(83.3899, 43.3565)">
<path transform="scale(0.0028, -0.0028)" d="M208 139c61 0 117 -33 117 -99c0 -71 -52 -119 -99 -147c-34 -20 -71 -32 -110 -32c-61 0 -116 33 -116 99c0 71 51 119 98 147c34 20 71 32 110 32z" fill="currentColor"/>
</g>
<g transform="translate(72.4480, 43.3565)">
<path transform="scale(0.0028, -0.0028)" d="M208 139c61 0 117 -33 117 -99c0 -71 -52 -119 -99 -147c-34 -20 -71 -32 -110 -32c-61 0 -116 33 -116 99c0 71 51 119 98 147c34 20 71 32 110 32z" fill="currentColor"/>
</g>
<g transform="translate(64.8398, 40.8565)">
<rect x="-0.0650" y="-0.9359" width="0.1300" height="2.8215" ry="0.0400" fill="currentColor"/>
</g>
<g transform="translate(66.5321, 40.8565)">
<rect x="-0.0650" y="-0.8741" width="0.1300" height="3.2597" ry="0.0400" fill="currentColor"/>
</g>
<g transform="translate(65.6792, 43.3565)">
<path transform="scale(0.0028, -0.0028)" d="M208 139c61 0 117 -33 117 -99c0 -71 -52 -119 -99 -147c-34 -20 -71 -32 -110 -32c-61 0 -116 33 -116 99c0 71 51 119 98 147c34 20 71 32 110 32z" fill="currentColor"/>
</g>
<g transform="translate(63.9870, 42.8565)">
<path transform="scale(0.0028, -0.0028)" d="M208 139c61 0 117 -33 117 -99c0 -71 -52 -119 -99 -147c-34 -20 -71 -32 -110 -32c-61 0 -116 33 -116 99c0 71 51 119 98 147c34 20 71 32 110 32z" fill="currentColor"/>
</g>
<g transform="translate(63.1476, 40.8565)">
<rect x="-0.0650" y="-0.9976" width="0.1300" height="3.3832" ry="0.0400" fill="currentColor"/>
</g>
<g transform="translate(62.2947, 43.3565)">
<path transform="scale(0.0028, -0.0028)" d="M208 139c61 0 117 -33 117 -99c0 -71 -52 -119 -99 -147c-34 -20 -71 -32 -110 -32c-61 0 -116 33 -116 99c0 71 51 119 98 147c34 20 71 32 110 32z" fill="currentColor"/>
</g>
<g transform="translate(71.6087, 40.8565)">
<rect x="-0.0650" y="-0.2734" width="0.1300" height="3.1590" ry="0.0400" fill="currentColor"/>
</g>
<g transform="translate(70.7558, 43.8565)">
<path transform="scale(0.0028, -0.0028)" d="M208 139c61 0 117 -33 117 -99c0 -71 -52 -119 -99 -147c-34 -20 -71 -32 -110 -32c-61 0 -116 33 -116 99c0 71 51 119 98 147c34 20 71 32 110 32z" fill="currentColor"/>
</g>
<g transform="translate(69.9165, 40.8565)">
<rect x="-0.0650" y="-0.0101" width="0.1300" height="3.3957" ry="0.0400" fill="currentColor"/>
</g>
<g transform="translate(69.0636, 44.3565)">
<path transform="scale(0.0028, -0.0028)" d="M208 139c61 0 117 -33 117 -99c0 -71 -52 -119 -99 -147c-34 -20 -71 -32 -110 -32c-61 0 -116 33 -116 99c0 71 51 119 98 147c34 20 71 32 110 32z" fill="currentColor"/>
</g>
<g transform="translate(68.2243, 40.8565)">
<rect x="-0.0650" y="-0.8124" width="0.1300" height="3.6980" ry="0.0400" fill="currentColor"/>
</g>
<g transform="translate(67.3714, 43.8565)">
<path transform="scale(0.0028, -0.0028)" d="M208 139c61 0 117 -33 117 -99c0 -71 -52 -119 -99 -147c-34 -20 -71 -32 -110 -32c-61 0 -116 33 -116 99c0 71 51 119 98 147c34 20 71 32 110 32z" fill="currentColor"/>
</g>
<g transform="translate(106.0267, 43.3565)">
<path transform="scale(0.0040, -0.0040)" d="M218 136c55 0 108 -28 108 -89c0 -71 -55 -121 -102 -149c-35 -21 -75 -34 -116 -34c-55 0 -108 28 -108 89c0 71 55 121 102 149c35 21 75 34 116 34z" fill="currentColor"/>
</g>
<g transform="translate(110.1188, 40.8565)">
<rect x="-0.0650" y="-1.0000" width="0.1300" height="3.3139" ry="0.0400" fill="currentColor"/>
</g>
<g transform="translate(108.8796, 43.3565)">
<path transform="scale(0.0040, -0.0040)" d="M218 136c55 0 108 -28 108 -89c0 -71 -55 -121 -102 -149c-35 -21 -75 -34 -116 -34c-55 0 -108 28 -108 89c0 71 55 121 102 149c35 21 75 34 116 34z" fill="currentColor"/>
</g>
<g transform="translate(107.3309, 39.8965)">
<path transform="scale(0.0040, -0.0040)" d="M0 0v-250h-16v250h16zM0 0c0 -197 207 -336 207 -533c0 -71 -15 -141 -41 -207c-5 -8 -13 -12 -20 -12c-13 0 -26 11 -23 27c26 61 42 126 42 192c0 103 -94 208 -165 283v250z" fill="currentColor"/>
</g>
<g transform="translate(107.2659, 40.8565)">
<rect x="-0.0650" y="-1.0000" width="0.1300" height="3.3139" ry="0.0400" fill="currentColor"/>
</g>
<g transform="translate(103.6387, 40.8565)">
<rect x="-0.0650" y="-1.0000" width="0.1300" height="3.3139" ry="0.0400" fill="currentColor"/>
</g>
<g transform="translate(14.5848, 39.8565)">
<polygon stroke-linejoin="round" stroke-linecap="round" stroke-width="0.0800" fill="currentColor" stroke="currentColor" points="7.3832 -0.2000 7.3832 0.2000 0.0400 0.2000 0.0400 -0.2000"/>
</g>
<g transform="translate(17.0513, 40.6665)">
<polygon stroke-linejoin="round" stroke-linecap="round" stroke-width="0.0800" fill="currentColor" stroke="currentColor" points="4.9166 -0.2000 4.9166 0.2000 0.0400 0.2000 0.0400 -0.2000"/>
</g>
<g transform="translate(81.7112, 39.6665)">
<polygon stroke-linejoin="round" stroke-linecap="round" stroke-width="0.0800" fill="currentColor" stroke="currentColor" points="8.2420 0.1800 8.2420 0.5800 0.0400 0.2000 0.0400 -0.2000"/>
</g>
<g transform="translate(84.1777, 40.5896)">
<polygon stroke-linejoin="round" stroke-linecap="round" stroke-width="0.0800" fill="currentColor" stroke="currentColor" points="5.7755 0.0668 5.7755 0.4668 0.0400 0.2000 0.0400 -0.2000"/>
</g>
<g transform="translate(69.8515, 40.8565)">
<polygon stroke-linejoin="round" stroke-linecap="round" stroke-width="0.0800" fill="currentColor" stroke="currentColor" points="5.1666 -1.0100 5.1666 -0.6100 0.0400 0.2000 0.0400 -0.2000"/>
</g>
<g transform="translate(69.8515, 41.6665)">
<polygon stroke-linejoin="round" stroke-linecap="round" stroke-width="0.0800" fill="currentColor" stroke="currentColor" points="5.1666 -1.0100 5.1666 -0.6100 0.0400 0.2000 0.0400 -0.2000"/>
</g>
<g transform="translate(78.5124, 35.3479)">
<g>
<path transform="scale(0.0025, -0.0025)" d="M132 149c36 0 75 -13 113 -41c18 -13 38 -21 55 -21c18 0 33 8 37 25c3 11 12 16 20 16c11 0 21 -9 21 -21c0 -2 0 -4 -1 -6c-17 -64 -80 -101 -142 -101c-39 0 -76 15 -102 47c-11 13 -26 19 -40 19c-25 0 -48 -18 -51 -47c-1 -13 -11 -19 -21 -19c-11 0 -21 7 -21 20
c0 172 232 160 232 335c0 51 -18 103 -62 103c-31 0 -62 -13 -62 -41c0 -25 33 -39 33 -64c0 -35 -29 -63 -64 -63s-63 28 -63 63c0 83 71 147 156 147c97 0 189 -56 189 -145c0 -141 -133 -154 -227 -206z" fill="currentColor"/>

<path transform="translate(0.9902, 0.0000) scale(0.0025, -0.0025)" d="M0 53c0 29 24 53 53 53s53 -24 53 -53s-24 -53 -53 -53s-53 24 -53 53z" fill="currentColor"/>
</g>
</g>
<g transform="translate(76.5824, 33.5878)">
<line stroke-linejoin="round" stroke-linecap="round" stroke-width="0.1600" stroke="currentColor" x1="24.0490" y1="-0.0000" x2="24.0490" y2="2.0000"/>
</g>
<g transform="translate(76.5824, 33.5878)">
<line stroke-linejoin="round" stroke-linecap="round" stroke-width="0.1600" stroke="currentColor" x1="1.0100" y1="-0.0000" x2="1.0100" y2="2.0000"/>
</g>
<g transform="translate(76.5824, 33.5878)">
<line stroke-linejoin="round" stroke-linecap="round" stroke-width="0.1600" stroke="currentColor" x1="1.0100" y1="-0.0000" x2="24.0490" y2="-0.0000"/>
</g>
<g transform="translate(63.0826, 39.8565)">
<polygon stroke-linejoin="round" stroke-linecap="round" stroke-width="0.0800" fill="currentColor" stroke="currentColor" points="5.1666 -0.0100 5.1666 0.3900 0.0400 0.2000 0.0400 -0.2000"/>
</g>
<g transform="translate(63.0826, 40.6665)">
<polygon stroke-linejoin="round" stroke-linecap="round" stroke-width="0.0800" fill="currentColor" stroke="currentColor" points="5.1666 -0.0100 5.1666 0.3900 0.0400 0.2000 0.0400 -0.2000"/>
</g>
<g transform="translate(53.2384, 39.6665)">
<polygon stroke-linejoin="round" stroke-linecap="round" stroke-width="0.0800" fill="currentColor" stroke="currentColor" points="8.2420 0.1800 8.2420 0.5800 0.0400 0.2000 0.0400 -0.2000"/>
</g>
<g transform="translate(55.7050, 40.5896)">
<polygon stroke-linejoin="round" stroke-linecap="round" stroke-width="0.0800" fill="currentColor" stroke="currentColor" points="5.7755 0.0668 5.7755 0.4668 0.0400 0.2000 0.0400 -0.2000"/>
</g>
<g transform="translate(46.3346, 39.8565)">
<polygon stroke-linejoin="round" stroke-linecap="round" stroke-width="0.0800" fill="currentColor" stroke="currentColor" points="2.9429 -0.0100 2.9429 0.3900 0.0400 0.2000 0.0400 -0.2000"/>
</g>
<g transform="translate(52.1461, 35.3630)">
<g>
<path transform="scale(0.0025, -0.0025)" d="M191 487c15 0 26 14 41 14c12 0 23 -14 23 -31v-343c0 -46 35 -85 80 -85c14 0 20 -11 20 -21s-6 -21 -20 -21c-48 0 -96 13 -144 13s-95 -13 -143 -13c-14 0 -21 11 -21 21s7 21 21 21c45 0 79 39 79 85v143c0 22 -15 34 -29 34c-7 0 -13 -3 -17 -10l-34 -68
c-5 -10 -14 -14 -23 -14c-14 0 -27 10 -27 25c0 4 1 9 3 13l127 250c2 4 6 6 10 6c20 0 36 -19 54 -19z" fill="currentColor"/>

<path transform="translate(0.9560, 0.0000) scale(0.0025, -0.0025)" d="M0 53c0 29 24 53 53 53s53 -24 53 -53s-24 -53 -53 -53s-53 24 -53 53z" fill="currentColor"/>
</g>
</g>
<g transform="translate(51.1161, 33.5878)">
<line stroke-linejoin="round" stroke-linecap="round" stroke-width="0.1600" stroke="currentColor" x1="25.5463" y1="-0.0000" x2="25.5463" y2="2.0000"/>
</g>
<g transform="translate(51.1161, 33.5878)">
<line stroke-linejoin="round" stroke-linecap="round" stroke-width="0.1600" stroke="currentColor" x1="0.1100" y1="-0.0000" x2="0.1100" y2="2.0000"/>
</g>
<g transform="translate(51.1161, 33.5878)">
<line stroke-linejoin="round" stroke-linecap="round" stroke-width="0.1600" stroke="currentColor" x1="0.1100" y1="-0.0000" x2="25.5463" y2="-0.0000"/>
</g>
<g transform="translate(40.6289, 39.6665)">
<polygon stroke-linejoin="round" stroke-linecap="round" stroke-width="0.0800" fill="currentColor" stroke="currentColor" points="2.9429 -0.0100 2.9429 0.3900 0.0400 0.2000 0.0400 -0.2000"/>
</g>
<g transform="translate(27.2940, 38.6665)">
<polygon stroke-linejoin="round" stroke-linecap="round" stroke-width="0.0800" fill="currentColor" stroke="currentColor" points="2.9429 -0.0100 2.9429 0.3900 0.0400 0.2000 0.0400 -0.2000"/>
</g>
<g transform="translate(92.0067, 40.8565)">
<rect x="-0.0650" y="-1.0000" width="0.1300" height="3.3139" ry="0.0400" fill="currentColor"/>
</g>
<g transform="translate(90.7675, 43.3565)">
<path transform="scale(0.0040, -0.0040)" d="M218 136c55 0 108 -28 108 -89c0 -71 -55 -121 -102 -149c-35 -21 -75 -34 -116 -34c-55 0 -108 28 -108 89c0 71 55 121 102 149c35 21 75 34 116 34z" fill="currentColor"/>
</g>
<g transform="translate(89.9282, 40.8565)">
<rect x="-0.0650" y="-0.8130" width="0.1300" height="3.6986" ry="0.0400" fill="currentColor"/>
</g>
<g transform="translate(89.0753, 43.8565)">
<path transform="scale(0.0028, -0.0028)" d="M208 139c61 0 117 -33 117 -99c0 -71 -52 -119 -99 -147c-34 -20 -71 -32 -110 -32c-61 0 -116 33 -116 99c0 71 51 119 98 147c34 20 71 32 110 32z" fill="currentColor"/>
</g>
<g transform="translate(86.5079, 44.3565)">
<path transform="scale(0.0028, -0.0028)" d="M129 35c-1 34 -18 66 -49 66c-28 0 -41 -31 -41 -63c0 -57 45 -100 87 -138c3 21 5 43 5 64v11zM130 446c10 6 21 8 32 8s21 -2 31 -8l-14 -587c0 -17 -12 -32 -28 -32c-26 0 -34 31 -52 48c-57 52 -137 92 -137 169c0 54 31 105 81 105c36 0 71 -14 96 -40z" fill="currentColor"/>
</g>
<g transform="translate(88.2360, 40.8565)">
<rect x="-0.0650" y="-0.8906" width="0.1300" height="4.2762" ry="0.0400" fill="currentColor"/>
</g>
<g transform="translate(87.3831, 44.3565)">
<path transform="scale(0.0028, -0.0028)" d="M208 139c61 0 117 -33 117 -99c0 -71 -52 -119 -99 -147c-34 -20 -71 -32 -110 -32c-61 0 -116 33 -116 99c0 71 51 119 98 147c34 20 71 32 110 32z" fill="currentColor"/>
</g>
<g transform="translate(95.4724, 45.4065)">
<text font-family="serif" font-style="italic" font-size="2.2001" text-anchor="start" fill="currentColor">
<tspan>D.S.</tspan>
</text>
</g>
<g transform="scale(0.6000, 0.6000)">
<g transform="translate(167.4940, 74.3441)">
<path transform="scale(0.0040, -0.0040)" d="M-202 -50c0 17 13 30 30 30s30 -13 30 -30s-13 -30 -30 -30s-30 13 -30 30zM142 50c0 17 13 30 30 30s30 -13 30 -30s-13 -30 -30 -30s-30 13 -30 30zM-35 -227c0 34 17 59 54 59c39 0 58 -31 58 -62c0 -27 -15 -55 -40 -64c8 -29 36 -51 69 -51c38 0 66 35 66 75
c0 99 -84 165 -172 218l-190 -323h-60l205 349c-107 63 -205 129 -205 251c0 82 63 150 144 150c79 0 141 -68 141 -148c0 -34 -17 -59 -54 -59c-39 0 -58 31 -58 62c0 27 15 55 40 64c-8 29 -36 51 -69 51c-38 0 -66 -35 -66 -75c0 -99 84 -165 172 -218l190 323h60
l-205 -349c107 -63 205 -129 205 -251c0 -82 -63 -150 -144 -150c-79 0 -141 68 -141 148z" fill="currentColor"/>
</g>
</g>
<g transform="translate(101.0964, 35.6890)">
<text font-family="serif" font-size="2.6163" text-anchor="start" fill="currentColor">
<tspan>Coda</tspan>
</text>
</g>
<g transform="translate(102.3995, 43.3565)">
<path transform="scale(0.0040, -0.0040)" d="M218 136c55 0 108 -28 108 -89c0 -71 -55 -121 -102 -149c-35 -21 -75 -34 -116 -34c-55 0 -108 28 -108 89c0 71 55 121 102 149c35 21 75 34 116 34z" fill="currentColor"/>
</g>
<g transform="translate(98.7368, 40.8565)">
<rect x="-0.0650" y="-2.0041" width="0.1300" height="2.8180" ry="0.0400" fill="currentColor"/>
</g>
<g transform="translate(97.4976, 41.8565)">
<path transform="scale(0.0040, -0.0040)" d="M218 136c55 0 108 -28 108 -89c0 -71 -55 -121 -102 -149c-35 -21 -75 -34 -116 -34c-55 0 -108 28 -108 89c0 71 55 121 102 149c35 21 75 34 116 34z" fill="currentColor"/>
</g>
<g transform="translate(95.8839, 40.8565)">
<rect x="-0.0650" y="-2.1859" width="0.1300" height="2.4998" ry="0.0400" fill="currentColor"/>
</g>
<g transform="translate(94.6447, 41.3565)">
<path transform="scale(0.0040, -0.0040)" d="M218 136c55 0 108 -28 108 -89c0 -71 -55 -121 -102 -149c-35 -21 -75 -34 -116 -34c-55 0 -108 28 -108 89c0 71 55 121 102 149c35 21 75 34 116 34z" fill="currentColor"/>
</g>
<g transform="translate(26.1198, 41.3565)">
<path transform="scale(0.0040, -0.0040)" d="M218 136c55 0 108 -28 108 -89c0 -71 -55 -121 -102 -149c-35 -21 -75 -34 -116 -34c-55 0 -108 28 -108 89c0 71 55 121 102 149c35 21 75 34 116 34z" fill="currentColor"/>
</g>
<g transform="translate(30.2119, 40.8565)">
<rect x="-0.0650" y="-2.0041" width="0.1300" height="2.8180" ry="0.0400" fill="currentColor"/>
</g>
<g transform="translate(28.9727, 41.8565)">
<path transform="scale(0.0040, -0.0040)" d="M218 136c55 0 108 -28 108 -89c0 -71 -55 -121 -102 -149c-35 -21 -75 -34 -116 -34c-55 0 -108 28 -108 89c0 71 55 121 102 149c35 21 75 34 116 34z" fill="currentColor"/>
</g>
<g transform="translate(27.3590, 40.8565)">
<rect x="-0.0650" y="-2.1859" width="0.1300" height="2.4998" ry="0.0400" fill="currentColor"/>
</g>
<g transform="translate(23.7715, 40.8565)">
<rect x="-0.0650" y="-0.5000" width="0.1300" height="3.3139" ry="0.0400" fill="currentColor"/>
</g>
<g transform="translate(22.5323, 43.8565)">
<path transform="scale(0.0040, -0.0040)" d="M218 136c55 0 108 -28 108 -89c0 -71 -55 -121 -102 -149c-35 -21 -75 -34 -116 -34c-55 0 -108 28 -108 89c0 71 55 121 102 149c35 21 75 34 116 34z" fill="currentColor"/>
</g>
<g transform="translate(37.9060, 38.8965)">
<path transform="scale(0.0040, -0.0040)" d="M0 0v-250h-16v250h16zM0 0c0 -197 207 -336 207 -533c0 -71 -15 -141 -41 -207c-5 -8 -13 -12 -20 -12c-13 0 -26 11 -23 27c26 61 42 126 42 192c0 103 -94 208 -165 283v250z" fill="currentColor"/>
</g>
<g transform="translate(37.8410, 40.8565)">
<rect x="-0.0650" y="-2.0000" width="0.1300" height="3.3139" ry="0.0400" fill="currentColor"/>
</g>
<g transform="translate(36.6018, 42.3565)">
<path transform="scale(0.0040, -0.0040)" d="M218 136c55 0 108 -28 108 -89c0 -71 -55 -121 -102 -149c-35 -21 -75 -34 -116 -34c-55 0 -108 28 -108 89c0 71 55 121 102 149c35 21 75 34 116 34z" fill="currentColor"/>
</g>
<g transform="translate(21.9429, 40.8565)">
<rect x="-0.0650" y="-1.0000" width="0.1300" height="2.8856" ry="0.0400" fill="currentColor"/>
</g>
<g transform="translate(34.2139, 40.8565)">
<rect x="-0.0650" y="-2.5000" width="0.1300" height="3.3139" ry="0.0400" fill="currentColor"/>
</g>
<g transform="translate(32.9746, 41.8565)">
<path transform="scale(0.0040, -0.0040)" d="M218 136c55 0 108 -28 108 -89c0 -71 -55 -121 -102 -149c-35 -21 -75 -34 -116 -34c-55 0 -108 28 -108 89c0 71 55 121 102 149c35 21 75 34 116 34z" fill="currentColor"/>
</g>
<g transform="translate(14.6498, 40.8565)">
<rect x="-0.0650" y="-1.0000" width="0.1300" height="2.8139" ry="0.0400" fill="currentColor"/>
</g>
<g transform="translate(13.4106, 42.8565)">
<path transform="scale(0.0040, -0.0040)" d="M218 136c55 0 108 -28 108 -89c0 -71 -55 -121 -102 -149c-35 -21 -75 -34 -116 -34c-55 0 -108 28 -108 89c0 71 55 121 102 149c35 21 75 34 116 34z" fill="currentColor"/>
</g>
<g transform="translate(16.2634, 42.8565)">
<path transform="scale(0.0028, -0.0028)" d="M208 139c61 0 117 -33 117 -99c0 -71 -52 -119 -99 -147c-34 -20 -71 -32 -110 -32c-61 0 -116 33 -116 99c0 71 51 119 98 147c34 20 71 32 110 32z" fill="currentColor"/>
</g>
<g transform="translate(3.7102, 37.7890)">
<text font-family="serif" font-size="1.7461" text-anchor="start" fill="currentColor">
<tspan>10</tspan>
</text>
</g>
<g transform="translate(10.1106, 39.3565)">
<path transform="scale(0.0040, -0.0040)" d="M143 41c-1 33 -22 63 -53 63c-29 0 -43 -34 -43 -67c0 -59 48 -101 93 -139c3 22 4 44 4 66v11zM185 -138c0 -14 -10 -25 -23 -25c-21 0 -30 25 -45 38c-61 52 -147 89 -147 169c0 54 37 102 89 102c33 0 66 -13 91 -34l-7 345c8 5 18 8 27 8s19 -3 27 -8z" fill="currentColor"/>
</g>
<g transform="translate(6.4906, 41.8565)">
<path transform="scale(0.0040, -0.0040)" d="M266 -635h-6c-108 0 -195 88 -195 197c0 58 53 103 112 103c54 0 95 -47 95 -103c0 -52 -43 -95 -95 -95c-11 0 -21 2 -31 6c26 -39 68 -65 117 -65h4zM461 -203c68 24 113 95 113 164c0 90 -66 179 -173 190c24 -116 46 -231 60 -354zM74 28c0 -135 129 -247 264 -247
c28 0 55 2 82 6c-14 127 -37 245 -63 364c-79 -8 -124 -61 -124 -119c0 -44 25 -91 81 -123c5 -5 7 -10 7 -15c0 -11 -10 -22 -22 -22c-3 0 -6 1 -9 2c-80 43 -117 115 -117 185c0 88 58 174 160 197c-14 58 -29 117 -46 175c-107 -121 -213 -243 -213 -403zM335 -262
c-188 0 -333 172 -333 374c0 177 131 306 248 441c-19 62 -37 125 -45 190c-6 52 -7 104 -7 156c0 115 55 224 149 292c6 5 14 5 20 0c71 -84 133 -245 133 -358c0 -143 -86 -255 -180 -364c21 -68 39 -138 56 -207c4 0 9 1 13 1c155 0 256 -128 256 -261
c0 -76 -33 -154 -107 -210c-22 -17 -47 -28 -73 -36c3 -35 5 -70 5 -105c0 -19 -1 -39 -2 -58c-7 -119 -88 -225 -202 -228l1 43c93 2 153 92 159 191c1 18 2 37 2 55c0 31 -1 61 -4 92c-29 -5 -58 -8 -89 -8zM428 916c0 55 -4 79 -20 129c-99 -48 -162 -149 -162 -259
c0 -74 18 -133 36 -194c80 97 146 198 146 324z" fill="currentColor"/>
</g>
<g transform="translate(21.0901, 42.8565)">
<path transform="scale(0.0028, -0.0028)" d="M208 139c61 0 117 -33 117 -99c0 -71 -52 -119 -99 -147c-34 -20 -71 -32 -110 -32c-61 0 -116 33 -116 99c0 71 51 119 98 147c34 20 71 32 110 32z" fill="currentColor"/>
</g>
<g transform="translate(20.2507, 40.8565)">
<rect x="-0.0650" y="-1.0000" width="0.1300" height="3.3856" ry="0.0400" fill="currentColor"/>
</g>
<g transform="translate(19.3978, 43.3565)">
<path transform="scale(0.0028, -0.0028)" d="M208 139c61 0 117 -33 117 -99c0 -71 -52 -119 -99 -147c-34 -20 -71 -32 -110 -32c-61 0 -116 33 -116 99c0 71 51 119 98 147c34 20 71 32 110 32z" fill="currentColor"/>
</g>
<g transform="translate(18.8085, 40.8565)">
<rect x="-0.0650" y="-1.0000" width="0.1300" height="2.3856" ry="0.0400" fill="currentColor"/>
</g>
<g transform="translate(17.9556, 42.3565)">
<path transform="scale(0.0028, -0.0028)" d="M208 139c61 0 117 -33 117 -99c0 -71 -52 -119 -99 -147c-34 -20 -71 -32 -110 -32c-61 0 -116 33 -116 99c0 71 51 119 98 147c34 20 71 32 110 32z" fill="currentColor"/>
</g>
<g transform="translate(17.1163, 40.8565)">
<rect x="-0.0650" y="-1.0000" width="0.1300" height="2.8856" ry="0.0400" fill="currentColor"/>
</g>
<g transform="translate(55.7700, 40.8565)">
<rect x="-0.0650" y="-1.0738" width="0.1300" height="3.4594" ry="0.0400" fill="currentColor"/>
</g>
<g transform="translate(54.9171, 43.3565)">
<path transform="scale(0.0028, -0.0028)" d="M208 139c61 0 117 -33 117 -99c0 -71 -52 -119 -99 -147c-34 -20 -71 -32 -110 -32c-61 0 -116 33 -116 99c0 71 51 119 98 147c34 20 71 32 110 32z" fill="currentColor"/>
</g>
<g transform="translate(53.3034, 40.8565)">
<rect x="-0.0650" y="-1.1870" width="0.1300" height="3.5009" ry="0.0400" fill="currentColor"/>
</g>
<g transform="translate(52.0642, 43.3565)">
<path transform="scale(0.0040, -0.0040)" d="M218 136c55 0 108 -28 108 -89c0 -71 -55 -121 -102 -149c-35 -21 -75 -34 -116 -34c-55 0 -108 28 -108 89c0 71 55 121 102 149c35 21 75 34 116 34z" fill="currentColor"/>
</g>
<g transform="translate(58.9103, 44.3565)">
<path transform="scale(0.0028, -0.0028)" d="M208 139c61 0 117 -33 117 -99c0 -71 -52 -119 -99 -147c-34 -20 -71 -32 -110 -32c-61 0 -116 33 -116 99c0 71 51 119 98 147c34 20 71 32 110 32z" fill="currentColor"/>
</g>
<g transform="translate(60.6025, 43.8565)">
<path transform="scale(0.0028, -0.0028)" d="M208 139c61 0 117 -33 117 -99c0 -71 -52 -119 -99 -147c-34 -20 -71 -32 -110 -32c-61 0 -116 33 -116 99c0 71 51 119 98 147c34 20 71 32 110 32z" fill="currentColor"/>
</g>
<g transform="translate(58.0351, 44.3565)">
<path transform="scale(0.0028, -0.0028)" d="M129 35c-1 34 -18 66 -49 66c-28 0 -41 -31 -41 -63c0 -57 45 -100 87 -138c3 21 5 43 5 64v11zM130 446c10 6 21 8 32 8s21 -2 31 -8l-14 -587c0 -17 -12 -32 -28 -32c-26 0 -34 31 -52 48c-57 52 -137 92 -137 169c0 54 31 105 81 105c36 0 71 -14 96 -40z" fill="currentColor"/>
</g>
<g transform="translate(59.7632, 40.8565)">
<rect x="-0.0650" y="-0.8906" width="0.1300" height="4.2762" ry="0.0400" fill="currentColor"/>
</g>
<g transform="translate(57.4622, 40.8565)">
<rect x="-0.0650" y="-0.9962" width="0.1300" height="3.8818" ry="0.0400" fill="currentColor"/>
</g>
<g transform="translate(56.6093, 43.8565)">
<path transform="scale(0.0028, -0.0028)" d="M208 139c61 0 117 -33 117 -99c0 -71 -52 -119 -99 -147c-34 -20 -71 -32 -110 -32c-61 0 -116 33 -116 99c0 71 51 119 98 147c34 20 71 32 110 32z" fill="currentColor"/>
</g>
<g transform="translate(46.3996, 40.8565)">
<rect x="-0.0650" y="-0.9959" width="0.1300" height="2.8098" ry="0.0400" fill="currentColor"/>
</g>
<g transform="translate(43.5467, 40.8565)">
<rect x="-0.0650" y="-1.0041" width="0.1300" height="2.8180" ry="0.0400" fill="currentColor"/>
</g>
<g transform="translate(45.1604, 42.8565)">
<path transform="scale(0.0040, -0.0040)" d="M218 136c55 0 108 -28 108 -89c0 -71 -55 -121 -102 -149c-35 -21 -75 -34 -116 -34c-55 0 -108 28 -108 89c0 71 55 121 102 149c35 21 75 34 116 34z" fill="currentColor"/>
</g>
<g transform="translate(42.3075, 42.8565)">
<path transform="scale(0.0040, -0.0040)" d="M218 136c55 0 108 -28 108 -89c0 -71 -55 -121 -102 -149c-35 -21 -75 -34 -116 -34c-55 0 -108 28 -108 89c0 71 55 121 102 149c35 21 75 34 116 34z" fill="currentColor"/>
</g>
<g transform="translate(40.6939, 40.8565)">
<rect x="-0.0650" y="-1.1859" width="0.1300" height="2.4998" ry="0.0400" fill="currentColor"/>
</g>
<g transform="translate(39.4547, 42.3565)">
<path transform="scale(0.0040, -0.0040)" d="M218 136c55 0 108 -28 108 -89c0 -71 -55 -121 -102 -149c-35 -21 -75 -34 -116 -34c-55 0 -108 28 -108 89c0 71 55 121 102 149c35 21 75 34 116 34z" fill="currentColor"/>
</g>
<g transform="translate(48.0132, 43.3565)">
<path transform="scale(0.0040, -0.0040)" d="M218 136c55 0 108 -28 108 -89c0 -71 -55 -121 -102 -149c-35 -21 -75 -34 -116 -34c-55 0 -108 28 -108 89c0 71 55 121 102 149c35 21 75 34 116 34z" fill="currentColor"/>
</g>
<g transform="translate(49.2525, 40.8565)">
<rect x="-0.0650" y="-0.8141" width="0.1300" height="3.1280" ry="0.0400" fill="currentColor"/>
</g>
<g transform="translate(54.0830, 48.8661)">
<text font-family="serif" font-size="2.2001" text-anchor="start" fill="currentColor">
<tspan>Χ. Κόχυλας</tspan>
</text>
</g>
<g transform="translate(30.6607, 52.3941)">
<a xlink:href="https://lilypond.org/">
<rect x="0.0000" y="-0.5280" width="58.1802" height="2.2001" fill="none" stroke="none" stroke-width="0.0"/>
</a>
</g>
<g transform="translate(30.6607, 52.3941)">
<text font-family="serif" font-size="2.2001" text-anchor="start" fill="currentColor">
<tspan>Music engraving by LilyPond 2.24.4—www.lilypond.org</tspan>
</text>
</g>
</svg>
