<svg xmlns="http://www.w3.org/2000/svg" xmlns:xlink="http://www.w3.org/1999/xlink" version="1.2" width="210.00mm" height="90.00mm" viewBox="0.0000 -0.0000 119.5016 51.2150">
<style type="text/css">
<![CDATA[
tspan { white-space: pre; }
]]>
</style>
<g transform="translate(47.9713, 6.6255)">
<text font-family="serif" font-weight="bold" font-size="3.4927" text-anchor="start" fill="currentColor">
<tspan>Ποδαράκι (β)</tspan>
</text>
</g>
<g transform="translate(55.5682, 10.1255)">
<text font-family="serif" font-weight="bold" font-size="2.4696" text-anchor="start" fill="currentColor">
<tspan>Θράκη</tspan>
</text>
</g>
<g transform="translate(5.6906, 22.2607)">
<line stroke-linejoin="round" stroke-linecap="round" stroke-width="0.1000" stroke="currentColor" x1="0.0500" y1="0" x2="108.0705" y2="0"/>
</g>
<g transform="translate(5.6906, 21.2607)">
<line stroke-linejoin="round" stroke-linecap="round" stroke-width="0.1000" stroke="currentColor" x1="0.0500" y1="0" x2="108.0705" y2="0"/>
</g>
<g transform="translate(5.6906, 20.2607)">
<line stroke-linejoin="round" stroke-linecap="round" stroke-width="0.1000" stroke="currentColor" x1="0.0500" y1="0" x2="108.0705" y2="0"/>
</g>
<g transform="translate(5.6906, 19.2607)">
<line stroke-linejoin="round" stroke-linecap="round" stroke-width="0.1000" stroke="currentColor" x1="0.0500" y1="0" x2="108.0705" y2="0"/>
</g>
<g transform="translate(5.6906, 18.2607)">
<line stroke-linejoin="round" stroke-linecap="round" stroke-width="0.1000" stroke="currentColor" x1="0.0500" y1="0" x2="108.0705" y2="0"/>
</g>
<g transform="translate(90.3062, 20.2607)">
<rect x="0.0000" y="-2.0000" width="0.1900" height="4.0000" ry="0.0000" fill="currentColor"/>
</g>
<g transform="translate(41.5475, 20.2607)">
<rect x="0.0000" y="-2.0000" width="0.1900" height="4.0000" ry="0.0000" fill="currentColor"/>
</g>
<g transform="translate(28.8167, 20.2607)">
<rect x="0.0000" y="-2.0000" width="0.1900" height="4.0000" ry="0.0000" fill="currentColor"/>
</g>
<g transform="translate(101.2636, 20.2607)">
<rect x="0.0000" y="-2.0000" width="0.1900" height="4.0000" ry="0.0000" fill="currentColor"/>
</g>
<g transform="translate(77.5755, 20.2607)">
<rect x="0.0000" y="-2.0000" width="0.1900" height="4.0000" ry="0.0000" fill="currentColor"/>
</g>
<g transform="translate(52.2864, 20.2607)">
<rect x="0.0000" y="-2.0000" width="0.1900" height="4.0000" ry="0.0000" fill="currentColor"/>
</g>
<g transform="translate(111.9710, 19.7607)">
<path transform="scale(0.0040, -0.0040)" d="M0 0c0 31 25 56 56 56s56 -25 56 -56s-25 -56 -56 -56s-56 25 -56 56z" fill="currentColor"/>
</g>
<g transform="translate(111.9710, 20.7607)">
<path transform="scale(0.0040, -0.0040)" d="M0 0c0 31 25 56 56 56s56 -25 56 -56s-25 -56 -56 -56s-56 25 -56 56z" fill="currentColor"/>
</g>
<g transform="translate(113.2110, 20.2607)">
<rect x="0.0000" y="-2.0000" width="0.6000" height="4.0000" ry="0.0000" fill="currentColor"/>
</g>
<g transform="translate(112.7210, 20.2607)">
<rect x="0.0000" y="-2.0000" width="0.1900" height="4.0000" ry="0.0000" fill="currentColor"/>
</g>
<g transform="translate(62.9536, 20.2607)">
<rect x="0.0000" y="-2.0000" width="0.1900" height="4.0000" ry="0.0000" fill="currentColor"/>
</g>
<a style="color:inherit;" xlink:href="textedit://C:/Users/har1sf0x/Documents/GitHub/musicSchoolTampouras.github.io/sheets/ly/%ce%a0%ce%bf%ce%b4%ce%b1%cf%81%ce%ac%ce%ba%ce%b9_%ce%b2.ly:17:74:75">
<g transform="translate(83.6622, 19.7607)">
<path transform="scale(0.0040, -0.0040)" d="M218 136c55 0 108 -28 108 -89c0 -71 -55 -121 -102 -149c-35 -21 -75 -34 -116 -34c-55 0 -108 28 -108 89c0 71 55 121 102 149c35 21 75 34 116 34z" fill="currentColor"/>
</g>
</a>
<a style="color:inherit;" xlink:href="textedit://C:/Users/har1sf0x/Documents/GitHub/musicSchoolTampouras.github.io/sheets/ly/%ce%a0%ce%bf%ce%b4%ce%b1%cf%81%ce%ac%ce%ba%ce%b9_%ce%b2.ly:17:78:79">
<g transform="translate(84.3143, 17.0823)">
<line stroke-linejoin="round" stroke-linecap="round" stroke-width="0.1380" stroke="currentColor" x1="0" y1="0" x2="0" y2="-1.6000"/>
</g>
<g transform="translate(84.3143, 17.5323)">
<path transform="scale(0.0036, -0.0036)" d="M-103 250c5 0 10 -1 14 -5c40 -35 70 -79 89 -128c19 49 49 93 89 128c4 4 9 5 14 5c11 0 22 -10 22 -22c0 -6 -2 -12 -7 -16c-61 -54 -96 -131 -96 -212c0 -14 -11 -22 -22 -22s-22 8 -22 22c0 81 -35 158 -96 212c-5 4 -7 10 -7 16c0 12 11 22 22 22z" fill="currentColor"/>
</g>
</a>
<g transform="translate(78.9457, 20.2607)">
<rect x="-0.0650" y="-0.8139" width="0.1300" height="3.3139" ry="0.0400" fill="currentColor"/>
</g>
<g transform="translate(80.6349, 18.7607)">
<path transform="scale(0.0040, -0.0040)" d="M0 0c0 31 25 56 56 56s56 -25 56 -56s-25 -56 -56 -56s-56 25 -56 56z" fill="currentColor"/>
</g>
<g transform="translate(87.7218, 20.2607)">
<rect x="-0.0650" y="0.1861" width="0.1300" height="3.1889" ry="0.0400" fill="currentColor"/>
</g>
<g transform="translate(64.3525, 20.2607)">
<rect x="-0.0650" y="-1.3139" width="0.1300" height="3.3139" ry="0.0400" fill="currentColor"/>
</g>
<a style="color:inherit;" xlink:href="textedit://C:/Users/har1sf0x/Documents/GitHub/musicSchoolTampouras.github.io/sheets/ly/%ce%a0%ce%bf%ce%b4%ce%b1%cf%81%ce%ac%ce%ba%ce%b9_%ce%b2.ly:18:7:8">
<g transform="translate(92.1027, 16.6323)">
<line stroke-linejoin="round" stroke-linecap="round" stroke-width="0.1380" stroke="currentColor" x1="0" y1="0" x2="0" y2="-1.6000"/>
</g>
<g transform="translate(92.1027, 17.0823)">
<path transform="scale(0.0036, -0.0036)" d="M-103 250c5 0 10 -1 14 -5c40 -35 70 -79 89 -128c19 49 49 93 89 128c4 4 9 5 14 5c11 0 22 -10 22 -22c0 -6 -2 -12 -7 -16c-61 -54 -96 -131 -96 -212c0 -14 -11 -22 -22 -22s-22 8 -22 22c0 81 -35 158 -96 212c-5 4 -7 10 -7 16c0 12 11 22 22 22z" fill="currentColor"/>
</g>
</a>
<a style="color:inherit;" xlink:href="textedit://C:/Users/har1sf0x/Documents/GitHub/musicSchoolTampouras.github.io/sheets/ly/%ce%a0%ce%bf%ce%b4%ce%b1%cf%81%ce%ac%ce%ba%ce%b9_%ce%b2.ly:18:2:3">
<g transform="translate(91.4506, 21.2607)">
<path transform="scale(0.0040, -0.0040)" d="M218 136c55 0 108 -28 108 -89c0 -71 -55 -121 -102 -149c-35 -21 -75 -34 -116 -34c-55 0 -108 28 -108 89c0 71 55 121 102 149c35 21 75 34 116 34z" fill="currentColor"/>
</g>
</a>
<g transform="translate(87.7868, 23.5957)">
<path transform="scale(0.0040, -0.0040)" d="M0 0h-16v250h16v-250zM0 0v250c97 59 224 148 224 259c0 57 -15 112 -40 163c-3 16 10 27 23 27c7 0 15 -3 20 -11c25 -56 40 -117 40 -179c0 -203 -267 -306 -267 -509z" fill="currentColor"/>
</g>
<a style="color:inherit;" xlink:href="textedit://C:/Users/har1sf0x/Documents/GitHub/musicSchoolTampouras.github.io/sheets/ly/%ce%a0%ce%bf%ce%b4%ce%b1%cf%81%ce%ac%ce%ba%ce%b9_%ce%b2.ly:17:95:96">
<g transform="scale(1.0000, -1.0000)">
<g transform="translate(88.3089, -15.9417)">
<line stroke-linejoin="round" stroke-linecap="round" stroke-width="0.1380" stroke="currentColor" x1="0" y1="0" x2="0" y2="-1.6000"/>
</g>
<g transform="translate(88.3089, -15.4917)">
<path transform="scale(0.0036, -0.0036)" d="M-103 250c5 0 10 -1 14 -5c40 -35 70 -79 89 -128c19 49 49 93 89 128c4 4 9 5 14 5c11 0 22 -10 22 -22c0 -6 -2 -12 -7 -16c-61 -54 -96 -131 -96 -212c0 -14 -11 -22 -22 -22s-22 8 -22 22c0 81 -35 158 -96 212c-5 4 -7 10 -7 16c0 12 11 22 22 22z" fill="currentColor"/>
</g>
</g>
</a>
<a style="color:inherit;" xlink:href="textedit://C:/Users/har1sf0x/Documents/GitHub/musicSchoolTampouras.github.io/sheets/ly/%ce%a0%ce%bf%ce%b4%ce%b1%cf%81%ce%ac%ce%ba%ce%b9_%ce%b2.ly:17:89:90">
<g transform="translate(87.6568, 20.2607)">
<path transform="scale(0.0040, -0.0040)" d="M218 136c55 0 108 -28 108 -89c0 -71 -55 -121 -102 -149c-35 -21 -75 -34 -116 -34c-55 0 -108 28 -108 89c0 71 55 121 102 149c35 21 75 34 116 34z" fill="currentColor"/>
</g>
</a>
<g transform="translate(83.7272, 20.2607)">
<rect x="-0.0650" y="-0.3139" width="0.1300" height="3.3139" ry="0.0400" fill="currentColor"/>
</g>
<a style="color:inherit;" xlink:href="textedit://C:/Users/har1sf0x/Documents/GitHub/musicSchoolTampouras.github.io/sheets/ly/%ce%a0%ce%bf%ce%b4%ce%b1%cf%81%ce%ac%ce%ba%ce%b9_%ce%b2.ly:17:30:31">
<g transform="translate(70.9315, 19.2607)">
<path transform="scale(0.0040, -0.0040)" d="M218 136c55 0 108 -28 108 -89c0 -71 -55 -121 -102 -149c-35 -21 -75 -34 -116 -34c-55 0 -108 28 -108 89c0 71 55 121 102 149c35 21 75 34 116 34z" fill="currentColor"/>
</g>
</a>
<g transform="translate(68.4121, 22.7207)">
<path transform="scale(0.0040, -0.0040)" d="M0 0h-16v250h16v-250zM0 0v250c97 59 224 148 224 259c0 57 -15 112 -40 163c-3 16 10 27 23 27c7 0 15 -3 20 -11c25 -56 40 -117 40 -179c0 -203 -267 -306 -267 -509z" fill="currentColor"/>
</g>
<g transform="translate(68.3471, 20.2607)">
<rect x="-0.0650" y="-0.8139" width="0.1300" height="3.3139" ry="0.0400" fill="currentColor"/>
</g>
<a style="color:inherit;" xlink:href="textedit://C:/Users/har1sf0x/Documents/GitHub/musicSchoolTampouras.github.io/sheets/ly/%ce%a0%ce%bf%ce%b4%ce%b1%cf%81%ce%ac%ce%ba%ce%b9_%ce%b2.ly:17:21:22">
<g transform="scale(1.0000, -1.0000)">
<g transform="translate(68.9342, -15.9417)">
<line stroke-linejoin="round" stroke-linecap="round" stroke-width="0.1380" stroke="currentColor" x1="0" y1="0" x2="0" y2="-1.6000"/>
</g>
<g transform="translate(68.9342, -15.4917)">
<path transform="scale(0.0036, -0.0036)" d="M-103 250c5 0 10 -1 14 -5c40 -35 70 -79 89 -128c19 49 49 93 89 128c4 4 9 5 14 5c11 0 22 -10 22 -22c0 -6 -2 -12 -7 -16c-61 -54 -96 -131 -96 -212c0 -14 -11 -22 -22 -22s-22 8 -22 22c0 81 -35 158 -96 212c-5 4 -7 10 -7 16c0 12 11 22 22 22z" fill="currentColor"/>
</g>
</g>
</a>
<a style="color:inherit;" xlink:href="textedit://C:/Users/har1sf0x/Documents/GitHub/musicSchoolTampouras.github.io/sheets/ly/%ce%a0%ce%bf%ce%b4%ce%b1%cf%81%ce%ac%ce%ba%ce%b9_%ce%b2.ly:17:34:35">
<g transform="translate(71.5836, 17.0823)">
<line stroke-linejoin="round" stroke-linecap="round" stroke-width="0.1380" stroke="currentColor" x1="0" y1="0" x2="0" y2="-1.6000"/>
</g>
<g transform="translate(71.5836, 17.5323)">
<path transform="scale(0.0036, -0.0036)" d="M-103 250c5 0 10 -1 14 -5c40 -35 70 -79 89 -128c19 49 49 93 89 128c4 4 9 5 14 5c11 0 22 -10 22 -22c0 -6 -2 -12 -7 -16c-61 -54 -96 -131 -96 -212c0 -14 -11 -22 -22 -22s-22 8 -22 22c0 81 -35 158 -96 212c-5 4 -7 10 -7 16c0 12 11 22 22 22z" fill="currentColor"/>
</g>
</a>
<a style="color:inherit;" xlink:href="textedit://C:/Users/har1sf0x/Documents/GitHub/musicSchoolTampouras.github.io/sheets/ly/%ce%a0%ce%bf%ce%b4%ce%b1%cf%81%ce%ac%ce%ba%ce%b9_%ce%b2.ly:17:17:18">
<g transform="translate(68.2821, 19.2607)">
<path transform="scale(0.0040, -0.0040)" d="M218 136c55 0 108 -28 108 -89c0 -71 -55 -121 -102 -149c-35 -21 -75 -34 -116 -34c-55 0 -108 28 -108 89c0 71 55 121 102 149c35 21 75 34 116 34z" fill="currentColor"/>
</g>
</a>
<g transform="translate(74.9911, 20.2607)">
<rect x="-0.0650" y="-1.3139" width="0.1300" height="3.3139" ry="0.0400" fill="currentColor"/>
</g>
<a style="color:inherit;" xlink:href="textedit://C:/Users/har1sf0x/Documents/GitHub/musicSchoolTampouras.github.io/sheets/ly/%ce%a0%ce%bf%ce%b4%ce%b1%cf%81%ce%ac%ce%ba%ce%b9_%ce%b2.ly:17:63:64">
<g transform="translate(79.5328, 17.0823)">
<line stroke-linejoin="round" stroke-linecap="round" stroke-width="0.1380" stroke="currentColor" x1="0" y1="0" x2="0" y2="-1.6000"/>
</g>
<g transform="translate(79.5328, 17.5323)">
<path transform="scale(0.0036, -0.0036)" d="M-103 250c5 0 10 -1 14 -5c40 -35 70 -79 89 -128c19 49 49 93 89 128c4 4 9 5 14 5c11 0 22 -10 22 -22c0 -6 -2 -12 -7 -16c-61 -54 -96 -131 -96 -212c0 -14 -11 -22 -22 -22s-22 8 -22 22c0 81 -35 158 -96 212c-5 4 -7 10 -7 16c0 12 11 22 22 22z" fill="currentColor"/>
</g>
</a>
<a style="color:inherit;" xlink:href="textedit://C:/Users/har1sf0x/Documents/GitHub/musicSchoolTampouras.github.io/sheets/ly/%ce%a0%ce%bf%ce%b4%ce%b1%cf%81%ce%ac%ce%ba%ce%b9_%ce%b2.ly:17:58:59">
<g transform="translate(78.8807, 19.2607)">
<path transform="scale(0.0040, -0.0040)" d="M218 136c55 0 108 -28 108 -89c0 -71 -55 -121 -102 -149c-35 -21 -75 -34 -116 -34c-55 0 -108 28 -108 89c0 71 55 121 102 149c35 21 75 34 116 34z" fill="currentColor"/>
</g>
</a>
<g transform="translate(75.0561, 22.2207)">
<path transform="scale(0.0040, -0.0040)" d="M0 0h-16v250h16v-250zM0 0v250c97 59 224 148 224 259c0 57 -15 112 -40 163c-3 16 10 27 23 27c7 0 15 -3 20 -11c25 -56 40 -117 40 -179c0 -203 -267 -306 -267 -509z" fill="currentColor"/>
</g>
<a style="color:inherit;" xlink:href="textedit://C:/Users/har1sf0x/Documents/GitHub/musicSchoolTampouras.github.io/sheets/ly/%ce%a0%ce%bf%ce%b4%ce%b1%cf%81%ce%ac%ce%ba%ce%b9_%ce%b2.ly:17:49:50">
<g transform="scale(1.0000, -1.0000)">
<g transform="translate(75.5782, -15.9417)">
<line stroke-linejoin="round" stroke-linecap="round" stroke-width="0.1380" stroke="currentColor" x1="0" y1="0" x2="0" y2="-1.6000"/>
</g>
<g transform="translate(75.5782, -15.4917)">
<path transform="scale(0.0036, -0.0036)" d="M-103 250c5 0 10 -1 14 -5c40 -35 70 -79 89 -128c19 49 49 93 89 128c4 4 9 5 14 5c11 0 22 -10 22 -22c0 -6 -2 -12 -7 -16c-61 -54 -96 -131 -96 -212c0 -14 -11 -22 -22 -22s-22 8 -22 22c0 81 -35 158 -96 212c-5 4 -7 10 -7 16c0 12 11 22 22 22z" fill="currentColor"/>
</g>
</g>
</a>
<a style="color:inherit;" xlink:href="textedit://C:/Users/har1sf0x/Documents/GitHub/musicSchoolTampouras.github.io/sheets/ly/%ce%a0%ce%bf%ce%b4%ce%b1%cf%81%ce%ac%ce%ba%ce%b9_%ce%b2.ly:17:45:46">
<g transform="translate(74.9261, 18.7607)">
<path transform="scale(0.0040, -0.0040)" d="M218 136c55 0 108 -28 108 -89c0 -71 -55 -121 -102 -149c-35 -21 -75 -34 -116 -34c-55 0 -108 28 -108 89c0 71 55 121 102 149c35 21 75 34 116 34z" fill="currentColor"/>
</g>
</a>
<g transform="translate(70.9965, 20.2607)">
<rect x="-0.0650" y="-0.8139" width="0.1300" height="3.3139" ry="0.0400" fill="currentColor"/>
</g>
<g color="rgb(50.0000%, 50.0000%, 50.0000%)">
<a style="color:inherit;" xlink:href="textedit://C:/Users/har1sf0x/Documents/GitHub/musicSchoolTampouras.github.io/sheets/ly/%ce%a0%ce%bf%ce%b4%ce%b1%cf%81%ce%ac%ce%ba%ce%b9_%ce%b2.ly:18:65:66">
<g transform="translate(108.4288, 20.7607)">
<path transform="scale(0.0040, -0.0040)" d="M218 136c55 0 108 -28 108 -89c0 -71 -55 -121 -102 -149c-35 -21 -75 -34 -116 -34c-55 0 -108 28 -108 89c0 71 55 121 102 149c35 21 75 34 116 34z" fill="currentColor"/>
</g>
</a>
</g>
<g color="rgb(50.0000%, 50.0000%, 50.0000%)">
<a style="color:inherit;" xlink:href="textedit://C:/Users/har1sf0x/Documents/GitHub/musicSchoolTampouras.github.io/sheets/ly/%ce%a0%ce%bf%ce%b4%ce%b1%cf%81%ce%ac%ce%ba%ce%b9_%ce%b2.ly:18:65:66">
<g transform="translate(107.1895, 22.2607)">
<path transform="scale(0.0040, -0.0040)" d="M218 136c55 0 108 -28 108 -89c0 -71 -55 -121 -102 -149c-35 -21 -75 -34 -116 -34c-55 0 -108 28 -108 89c0 71 55 121 102 149c35 21 75 34 116 34z" fill="currentColor"/>
</g>
</a>
</g>
<a style="color:inherit;" xlink:href="textedit://C:/Users/har1sf0x/Documents/GitHub/musicSchoolTampouras.github.io/sheets/ly/%ce%a0%ce%bf%ce%b4%ce%b1%cf%81%ce%ac%ce%ba%ce%b9_%ce%b2.ly:18:65:66">
<g transform="translate(107.1895, 20.7607)">
<path transform="scale(0.0040, -0.0040)" d="M218 136c55 0 108 -28 108 -89c0 -71 -55 -121 -102 -149c-35 -21 -75 -34 -116 -34c-55 0 -108 28 -108 89c0 71 55 121 102 149c35 21 75 34 116 34z" fill="currentColor"/>
</g>
</a>
<g transform="translate(105.4015, 20.7607)">
<path transform="scale(0.0040, -0.0040)" d="M0 0c0 31 25 56 56 56s56 -25 56 -56s-25 -56 -56 -56s-56 25 -56 56z" fill="currentColor"/>
</g>
<g transform="translate(105.4015, 21.7607)">
<path transform="scale(0.0040, -0.0040)" d="M0 0c0 31 25 56 56 56s56 -25 56 -56s-25 -56 -56 -56s-56 25 -56 56z" fill="currentColor"/>
</g>
<g transform="translate(103.6473, 20.2607)">
<rect x="-0.0650" y="-3.0000" width="0.1300" height="4.8139" ry="0.0400" fill="currentColor"/>
</g>
<g transform="translate(105.4015, 19.7607)">
<path transform="scale(0.0040, -0.0040)" d="M0 0c0 31 25 56 56 56s56 -25 56 -56s-25 -56 -56 -56s-56 25 -56 56z" fill="currentColor"/>
</g>
<g transform="translate(110.1830, 20.7607)">
<path transform="scale(0.0040, -0.0040)" d="M0 0c0 31 25 56 56 56s56 -25 56 -56s-25 -56 -56 -56s-56 25 -56 56z" fill="currentColor"/>
</g>
<g transform="translate(110.1830, 21.7607)">
<path transform="scale(0.0040, -0.0040)" d="M0 0c0 31 25 56 56 56s56 -25 56 -56s-25 -56 -56 -56s-56 25 -56 56z" fill="currentColor"/>
</g>
<g transform="translate(108.4288, 20.2607)">
<rect x="-0.0650" y="-3.0000" width="0.1300" height="4.8139" ry="0.0400" fill="currentColor"/>
</g>
<g transform="translate(110.1830, 19.7607)">
<path transform="scale(0.0040, -0.0040)" d="M0 0c0 31 25 56 56 56s56 -25 56 -56s-25 -56 -56 -56s-56 25 -56 56z" fill="currentColor"/>
</g>
<a style="color:inherit;" xlink:href="textedit://C:/Users/har1sf0x/Documents/GitHub/musicSchoolTampouras.github.io/sheets/ly/%ce%a0%ce%bf%ce%b4%ce%b1%cf%81%ce%ac%ce%ba%ce%b9_%ce%b2.ly:18:77:78">
<g transform="scale(1.0000, -1.0000)">
<g transform="translate(107.8416, -14.9917)">
<line stroke-linejoin="round" stroke-linecap="round" stroke-width="0.1380" stroke="currentColor" x1="0" y1="0" x2="0" y2="-1.6000"/>
</g>
<g transform="translate(107.8416, -14.5417)">
<path transform="scale(0.0036, -0.0036)" d="M-103 250c5 0 10 -1 14 -5c40 -35 70 -79 89 -128c19 49 49 93 89 128c4 4 9 5 14 5c11 0 22 -10 22 -22c0 -6 -2 -12 -7 -16c-61 -54 -96 -131 -96 -212c0 -14 -11 -22 -22 -22s-22 8 -22 22c0 81 -35 158 -96 212c-5 4 -7 10 -7 16c0 12 11 22 22 22z" fill="currentColor"/>
</g>
</g>
</a>
<g color="rgb(50.0000%, 50.0000%, 50.0000%)">
<a style="color:inherit;" xlink:href="textedit://C:/Users/har1sf0x/Documents/GitHub/musicSchoolTampouras.github.io/sheets/ly/%ce%a0%ce%bf%ce%b4%ce%b1%cf%81%ce%ac%ce%ba%ce%b9_%ce%b2.ly:18:18:19">
<g transform="translate(97.4713, 20.7607)">
<path transform="scale(0.0040, -0.0040)" d="M218 136c55 0 108 -28 108 -89c0 -71 -55 -121 -102 -149c-35 -21 -75 -34 -116 -34c-55 0 -108 28 -108 89c0 71 55 121 102 149c35 21 75 34 116 34z" fill="currentColor"/>
</g>
</a>
</g>
<g color="rgb(50.0000%, 50.0000%, 50.0000%)">
<a style="color:inherit;" xlink:href="textedit://C:/Users/har1sf0x/Documents/GitHub/musicSchoolTampouras.github.io/sheets/ly/%ce%a0%ce%bf%ce%b4%ce%b1%cf%81%ce%ac%ce%ba%ce%b9_%ce%b2.ly:18:18:19">
<g transform="translate(96.2321, 22.2607)">
<path transform="scale(0.0040, -0.0040)" d="M218 136c55 0 108 -28 108 -89c0 -71 -55 -121 -102 -149c-35 -21 -75 -34 -116 -34c-55 0 -108 28 -108 89c0 71 55 121 102 149c35 21 75 34 116 34z" fill="currentColor"/>
</g>
</a>
</g>
<a style="color:inherit;" xlink:href="textedit://C:/Users/har1sf0x/Documents/GitHub/musicSchoolTampouras.github.io/sheets/ly/%ce%a0%ce%bf%ce%b4%ce%b1%cf%81%ce%ac%ce%ba%ce%b9_%ce%b2.ly:18:18:19">
<g transform="translate(96.2321, 20.7607)">
<path transform="scale(0.0040, -0.0040)" d="M218 136c55 0 108 -28 108 -89c0 -71 -55 -121 -102 -149c-35 -21 -75 -34 -116 -34c-55 0 -108 28 -108 89c0 71 55 121 102 149c35 21 75 34 116 34z" fill="currentColor"/>
</g>
</a>
<a style="color:inherit;" xlink:href="textedit://C:/Users/har1sf0x/Documents/GitHub/musicSchoolTampouras.github.io/sheets/ly/%ce%a0%ce%bf%ce%b4%ce%b1%cf%81%ce%ac%ce%ba%ce%b9_%ce%b2.ly:18:30:31">
<g transform="scale(1.0000, -1.0000)">
<g transform="translate(96.8842, -14.9917)">
<line stroke-linejoin="round" stroke-linecap="round" stroke-width="0.1380" stroke="currentColor" x1="0" y1="0" x2="0" y2="-1.6000"/>
</g>
<g transform="translate(96.8842, -14.5417)">
<path transform="scale(0.0036, -0.0036)" d="M-103 250c5 0 10 -1 14 -5c40 -35 70 -79 89 -128c19 49 49 93 89 128c4 4 9 5 14 5c11 0 22 -10 22 -22c0 -6 -2 -12 -7 -16c-61 -54 -96 -131 -96 -212c0 -14 -11 -22 -22 -22s-22 8 -22 22c0 81 -35 158 -96 212c-5 4 -7 10 -7 16c0 12 11 22 22 22z" fill="currentColor"/>
</g>
</g>
<g transform="translate(96.8842, 15.0417)">
<path transform="scale(0.0040, -0.0040)" d="M-105 -250c-11 0 -20 9 -20 20c0 6 2 11 7 15c62 54 98 133 98 215c0 13 10 20 20 20s20 -7 20 -20c0 -82 36 -161 98 -215c5 -4 7 -9 7 -15c0 -11 -9 -20 -20 -20c-5 0 -9 2 -13 5c-41 36 -73 82 -92 133c-19 -51 -51 -97 -92 -133c-4 -3 -8 -5 -13 -5z" fill="currentColor"/>
</g>
<g transform="translate(96.8842, 15.5417)">
<path transform="scale(0.0040, -0.0040)" d="M-105 -250c-11 0 -20 9 -20 20c0 6 2 11 7 15c62 54 98 133 98 215c0 13 10 20 20 20s20 -7 20 -20c0 -82 36 -161 98 -215c5 -4 7 -9 7 -15c0 -11 -9 -20 -20 -20c-5 0 -9 2 -13 5c-41 36 -73 82 -92 133c-19 -51 -51 -97 -92 -133c-4 -3 -8 -5 -13 -5z" fill="currentColor"/>
</g>
</a>
<g transform="translate(92.6899, 20.2607)">
<rect x="-0.0650" y="-2.5000" width="0.1300" height="3.3139" ry="0.0400" fill="currentColor"/>
</g>
<g transform="translate(93.2048, 20.7607)">
<path transform="scale(0.0040, -0.0040)" d="M0 0c0 31 25 56 56 56s56 -25 56 -56s-25 -56 -56 -56s-56 25 -56 56z" fill="currentColor"/>
</g>
<a style="color:inherit;" xlink:href="textedit://C:/Users/har1sf0x/Documents/GitHub/musicSchoolTampouras.github.io/sheets/ly/%ce%a0%ce%bf%ce%b4%ce%b1%cf%81%ce%ac%ce%ba%ce%b9_%ce%b2.ly:18:54:55">
<g transform="translate(103.0602, 16.1323)">
<line stroke-linejoin="round" stroke-linecap="round" stroke-width="0.1380" stroke="currentColor" x1="0" y1="0" x2="0" y2="-1.6000"/>
</g>
<g transform="translate(103.0602, 16.5823)">
<path transform="scale(0.0036, -0.0036)" d="M-103 250c5 0 10 -1 14 -5c40 -35 70 -79 89 -128c19 49 49 93 89 128c4 4 9 5 14 5c11 0 22 -10 22 -22c0 -6 -2 -12 -7 -16c-61 -54 -96 -131 -96 -212c0 -14 -11 -22 -22 -22s-22 8 -22 22c0 81 -35 158 -96 212c-5 4 -7 10 -7 16c0 12 11 22 22 22z" fill="currentColor"/>
</g>
</a>
<g color="rgb(50.0000%, 50.0000%, 50.0000%)">
<a style="color:inherit;" xlink:href="textedit://C:/Users/har1sf0x/Documents/GitHub/musicSchoolTampouras.github.io/sheets/ly/%ce%a0%ce%bf%ce%b4%ce%b1%cf%81%ce%ac%ce%ba%ce%b9_%ce%b2.ly:18:42:43">
<g transform="translate(103.6473, 20.7607)">
<path transform="scale(0.0040, -0.0040)" d="M218 136c55 0 108 -28 108 -89c0 -71 -55 -121 -102 -149c-35 -21 -75 -34 -116 -34c-55 0 -108 28 -108 89c0 71 55 121 102 149c35 21 75 34 116 34z" fill="currentColor"/>
</g>
</a>
</g>
<g color="rgb(50.0000%, 50.0000%, 50.0000%)">
<a style="color:inherit;" xlink:href="textedit://C:/Users/har1sf0x/Documents/GitHub/musicSchoolTampouras.github.io/sheets/ly/%ce%a0%ce%bf%ce%b4%ce%b1%cf%81%ce%ac%ce%ba%ce%b9_%ce%b2.ly:18:42:43">
<g transform="translate(102.4081, 22.2607)">
<path transform="scale(0.0040, -0.0040)" d="M218 136c55 0 108 -28 108 -89c0 -71 -55 -121 -102 -149c-35 -21 -75 -34 -116 -34c-55 0 -108 28 -108 89c0 71 55 121 102 149c35 21 75 34 116 34z" fill="currentColor"/>
</g>
</a>
</g>
<a style="color:inherit;" xlink:href="textedit://C:/Users/har1sf0x/Documents/GitHub/musicSchoolTampouras.github.io/sheets/ly/%ce%a0%ce%bf%ce%b4%ce%b1%cf%81%ce%ac%ce%ba%ce%b9_%ce%b2.ly:18:42:43">
<g transform="translate(102.4081, 20.7607)">
<path transform="scale(0.0040, -0.0040)" d="M218 136c55 0 108 -28 108 -89c0 -71 -55 -121 -102 -149c-35 -21 -75 -34 -116 -34c-55 0 -108 28 -108 89c0 71 55 121 102 149c35 21 75 34 116 34z" fill="currentColor"/>
</g>
</a>
<g transform="translate(99.2255, 20.7607)">
<path transform="scale(0.0040, -0.0040)" d="M0 0c0 31 25 56 56 56s56 -25 56 -56s-25 -56 -56 -56s-56 25 -56 56z" fill="currentColor"/>
</g>
<g transform="translate(99.2255, 21.7607)">
<path transform="scale(0.0040, -0.0040)" d="M0 0c0 31 25 56 56 56s56 -25 56 -56s-25 -56 -56 -56s-56 25 -56 56z" fill="currentColor"/>
</g>
<g transform="translate(97.4713, 20.2607)">
<rect x="-0.0650" y="-3.0000" width="0.1300" height="4.8139" ry="0.0400" fill="currentColor"/>
</g>
<g transform="translate(99.2255, 19.7607)">
<path transform="scale(0.0040, -0.0040)" d="M0 0c0 31 25 56 56 56s56 -25 56 -56s-25 -56 -56 -56s-56 25 -56 56z" fill="currentColor"/>
</g>
<g transform="translate(30.1870, 20.2607)">
<rect x="-0.0650" y="-0.8139" width="0.1300" height="3.3139" ry="0.0400" fill="currentColor"/>
</g>
<g transform="translate(31.8762, 18.7607)">
<path transform="scale(0.0040, -0.0040)" d="M0 0c0 31 25 56 56 56s56 -25 56 -56s-25 -56 -56 -56s-56 25 -56 56z" fill="currentColor"/>
</g>
<a style="color:inherit;" xlink:href="textedit://C:/Users/har1sf0x/Documents/GitHub/musicSchoolTampouras.github.io/sheets/ly/%ce%a0%ce%bf%ce%b4%ce%b1%cf%81%ce%ac%ce%ba%ce%b9_%ce%b2.ly:15:63:64">
<g transform="translate(30.7741, 17.0823)">
<line stroke-linejoin="round" stroke-linecap="round" stroke-width="0.1380" stroke="currentColor" x1="0" y1="0" x2="0" y2="-1.6000"/>
</g>
<g transform="translate(30.7741, 17.5323)">
<path transform="scale(0.0036, -0.0036)" d="M-103 250c5 0 10 -1 14 -5c40 -35 70 -79 89 -128c19 49 49 93 89 128c4 4 9 5 14 5c11 0 22 -10 22 -22c0 -6 -2 -12 -7 -16c-61 -54 -96 -131 -96 -212c0 -14 -11 -22 -22 -22s-22 8 -22 22c0 81 -35 158 -96 212c-5 4 -7 10 -7 16c0 12 11 22 22 22z" fill="currentColor"/>
</g>
</a>
<a style="color:inherit;" xlink:href="textedit://C:/Users/har1sf0x/Documents/GitHub/musicSchoolTampouras.github.io/sheets/ly/%ce%a0%ce%bf%ce%b4%ce%b1%cf%81%ce%ac%ce%ba%ce%b9_%ce%b2.ly:15:58:59">
<g transform="translate(30.1220, 19.2607)">
<path transform="scale(0.0040, -0.0040)" d="M218 136c55 0 108 -28 108 -89c0 -71 -55 -121 -102 -149c-35 -21 -75 -34 -116 -34c-55 0 -108 28 -108 89c0 71 55 121 102 149c35 21 75 34 116 34z" fill="currentColor"/>
</g>
</a>
<g transform="translate(26.2973, 22.2207)">
<path transform="scale(0.0040, -0.0040)" d="M0 0h-16v250h16v-250zM0 0v250c97 59 224 148 224 259c0 57 -15 112 -40 163c-3 16 10 27 23 27c7 0 15 -3 20 -11c25 -56 40 -117 40 -179c0 -203 -267 -306 -267 -509z" fill="currentColor"/>
</g>
<g transform="translate(26.2323, 20.2607)">
<rect x="-0.0650" y="-1.3139" width="0.1300" height="3.3139" ry="0.0400" fill="currentColor"/>
</g>
<a style="color:inherit;" xlink:href="textedit://C:/Users/har1sf0x/Documents/GitHub/musicSchoolTampouras.github.io/sheets/ly/%ce%a0%ce%bf%ce%b4%ce%b1%cf%81%ce%ac%ce%ba%ce%b9_%ce%b2.ly:15:49:50">
<g transform="scale(1.0000, -1.0000)">
<g transform="translate(26.8194, -15.9417)">
<line stroke-linejoin="round" stroke-linecap="round" stroke-width="0.1380" stroke="currentColor" x1="0" y1="0" x2="0" y2="-1.6000"/>
</g>
<g transform="translate(26.8194, -15.4917)">
<path transform="scale(0.0036, -0.0036)" d="M-103 250c5 0 10 -1 14 -5c40 -35 70 -79 89 -128c19 49 49 93 89 128c4 4 9 5 14 5c11 0 22 -10 22 -22c0 -6 -2 -12 -7 -16c-61 -54 -96 -131 -96 -212c0 -14 -11 -22 -22 -22s-22 8 -22 22c0 81 -35 158 -96 212c-5 4 -7 10 -7 16c0 12 11 22 22 22z" fill="currentColor"/>
</g>
</g>
</a>
<g transform="translate(34.9685, 20.2607)">
<rect x="-0.0650" y="-0.3139" width="0.1300" height="3.3139" ry="0.0400" fill="currentColor"/>
</g>
<g transform="translate(38.9631, 20.2607)">
<rect x="-0.0650" y="0.1861" width="0.1300" height="3.1889" ry="0.0400" fill="currentColor"/>
</g>
<a style="color:inherit;" xlink:href="textedit://C:/Users/har1sf0x/Documents/GitHub/musicSchoolTampouras.github.io/sheets/ly/%ce%a0%ce%bf%ce%b4%ce%b1%cf%81%ce%ac%ce%ba%ce%b9_%ce%b2.ly:15:95:96">
<g transform="scale(1.0000, -1.0000)">
<g transform="translate(39.5502, -15.9417)">
<line stroke-linejoin="round" stroke-linecap="round" stroke-width="0.1380" stroke="currentColor" x1="0" y1="0" x2="0" y2="-1.6000"/>
</g>
<g transform="translate(39.5502, -15.4917)">
<path transform="scale(0.0036, -0.0036)" d="M-103 250c5 0 10 -1 14 -5c40 -35 70 -79 89 -128c19 49 49 93 89 128c4 4 9 5 14 5c11 0 22 -10 22 -22c0 -6 -2 -12 -7 -16c-61 -54 -96 -131 -96 -212c0 -14 -11 -22 -22 -22s-22 8 -22 22c0 81 -35 158 -96 212c-5 4 -7 10 -7 16c0 12 11 22 22 22z" fill="currentColor"/>
</g>
</g>
</a>
<a style="color:inherit;" xlink:href="textedit://C:/Users/har1sf0x/Documents/GitHub/musicSchoolTampouras.github.io/sheets/ly/%ce%a0%ce%bf%ce%b4%ce%b1%cf%81%ce%ac%ce%ba%ce%b9_%ce%b2.ly:15:89:90">
<g transform="translate(38.8981, 20.2607)">
<path transform="scale(0.0040, -0.0040)" d="M218 136c55 0 108 -28 108 -89c0 -71 -55 -121 -102 -149c-35 -21 -75 -34 -116 -34c-55 0 -108 28 -108 89c0 71 55 121 102 149c35 21 75 34 116 34z" fill="currentColor"/>
</g>
</a>
<a style="color:inherit;" xlink:href="textedit://C:/Users/har1sf0x/Documents/GitHub/musicSchoolTampouras.github.io/sheets/ly/%ce%a0%ce%bf%ce%b4%ce%b1%cf%81%ce%ac%ce%ba%ce%b9_%ce%b2.ly:15:45:46">
<g transform="translate(26.1673, 18.7607)">
<path transform="scale(0.0040, -0.0040)" d="M218 136c55 0 108 -28 108 -89c0 -71 -55 -121 -102 -149c-35 -21 -75 -34 -116 -34c-55 0 -108 28 -108 89c0 71 55 121 102 149c35 21 75 34 116 34z" fill="currentColor"/>
</g>
</a>
<a style="color:inherit;" xlink:href="textedit://C:/Users/har1sf0x/Documents/GitHub/musicSchoolTampouras.github.io/sheets/ly/%ce%a0%ce%bf%ce%b4%ce%b1%cf%81%ce%ac%ce%ba%ce%b9_%ce%b2.ly:15:78:79">
<g transform="translate(35.5556, 17.0823)">
<line stroke-linejoin="round" stroke-linecap="round" stroke-width="0.1380" stroke="currentColor" x1="0" y1="0" x2="0" y2="-1.6000"/>
</g>
<g transform="translate(35.5556, 17.5323)">
<path transform="scale(0.0036, -0.0036)" d="M-103 250c5 0 10 -1 14 -5c40 -35 70 -79 89 -128c19 49 49 93 89 128c4 4 9 5 14 5c11 0 22 -10 22 -22c0 -6 -2 -12 -7 -16c-61 -54 -96 -131 -96 -212c0 -14 -11 -22 -22 -22s-22 8 -22 22c0 81 -35 158 -96 212c-5 4 -7 10 -7 16c0 12 11 22 22 22z" fill="currentColor"/>
</g>
</a>
<a style="color:inherit;" xlink:href="textedit://C:/Users/har1sf0x/Documents/GitHub/musicSchoolTampouras.github.io/sheets/ly/%ce%a0%ce%bf%ce%b4%ce%b1%cf%81%ce%ac%ce%ba%ce%b9_%ce%b2.ly:15:74:75">
<g transform="translate(34.9035, 19.7607)">
<path transform="scale(0.0040, -0.0040)" d="M218 136c55 0 108 -28 108 -89c0 -71 -55 -121 -102 -149c-35 -21 -75 -34 -116 -34c-55 0 -108 28 -108 89c0 71 55 121 102 149c35 21 75 34 116 34z" fill="currentColor"/>
</g>
</a>
<a style="color:inherit;" xlink:href="textedit://C:/Users/har1sf0x/Documents/GitHub/musicSchoolTampouras.github.io/sheets/ly/utilities_01.ly:94:2:3">
<g transform="translate(12.1118, 20.2607)">
<path transform="scale(0.0040, -0.0040)" d="M170 259c-51 0 -53 -43 -53 -100v-18v-18c0 -57 2 -100 53 -100c57 0 61 51 61 118s-4 118 -61 118zM117 266c15 10 33 16 53 16c101 0 170 -46 170 -141s-69 -141 -170 -141c-112 0 -170 124 -170 250c0 128 72 250 190 250c70 0 136 -39 136 -103
c0 -36 -29 -66 -65 -66s-66 30 -66 66c0 24 40 25 40 49c0 20 -23 31 -45 31c-66 0 -75 -65 -75 -139c0 -24 2 -48 2 -72z" fill="currentColor"/>
</g>
<g transform="translate(12.0606, 22.2607)">
<path transform="scale(0.0040, -0.0040)" d="M261 287c25 30 44 64 44 103c0 54 -55 87 -114 87c-46 0 -73 -36 -73 -71c0 -21 10 -42 31 -54zM292 269c54 -31 80 -79 80 -125c0 -73 -66 -144 -189 -144c-94 0 -183 54 -183 140c0 50 36 87 72 123c-37 28 -55 66 -55 103c0 68 60 134 174 134c80 0 157 -39 157 -110
c0 -46 -25 -86 -56 -121zM103 244c-31 -30 -59 -61 -59 -104c0 -69 66 -117 139 -117c54 0 86 42 86 83c0 24 -10 48 -35 62z" fill="currentColor"/>
</g>
</a>
<g transform="translate(15.5937, 20.2607)">
<rect x="-0.0650" y="-1.3139" width="0.1300" height="3.3139" ry="0.0400" fill="currentColor"/>
</g>
<a style="color:inherit;" xlink:href="textedit://C:/Users/har1sf0x/Documents/GitHub/musicSchoolTampouras.github.io/sheets/ly/%ce%a0%ce%bf%ce%b4%ce%b1%cf%81%ce%ac%ce%ba%ce%b9_%ce%b2.ly:14:2:3">
<g transform="translate(5.6906, 16.1591)">
<text font-family="serif" font-size="2.6163" text-anchor="start" fill="currentColor">
<tspan>A</tspan>
</text>
</g>
</a>
<g transform="translate(10.1106, 20.2607)">
<path transform="scale(0.0040, -0.0040)" d="M143 41c-1 33 -22 63 -53 63c-29 0 -43 -34 -43 -67c0 -59 48 -101 93 -139c3 22 4 44 4 66v11zM185 -138c0 -14 -10 -25 -23 -25c-21 0 -30 25 -45 38c-61 52 -147 89 -147 169c0 54 37 102 89 102c33 0 66 -13 91 -34l-7 345c8 5 18 8 27 8s19 -3 27 -8z" fill="currentColor"/>
</g>
<g transform="translate(6.4906, 21.2607)">
<path transform="scale(0.0040, -0.0040)" d="M266 -635h-6c-108 0 -195 88 -195 197c0 58 53 103 112 103c54 0 95 -47 95 -103c0 -52 -43 -95 -95 -95c-11 0 -21 2 -31 6c26 -39 68 -65 117 -65h4zM461 -203c68 24 113 95 113 164c0 90 -66 179 -173 190c24 -116 46 -231 60 -354zM74 28c0 -135 129 -247 264 -247
c28 0 55 2 82 6c-14 127 -37 245 -63 364c-79 -8 -124 -61 -124 -119c0 -44 25 -91 81 -123c5 -5 7 -10 7 -15c0 -11 -10 -22 -22 -22c-3 0 -6 1 -9 2c-80 43 -117 115 -117 185c0 88 58 174 160 197c-14 58 -29 117 -46 175c-107 -121 -213 -243 -213 -403zM335 -262
c-188 0 -333 172 -333 374c0 177 131 306 248 441c-19 62 -37 125 -45 190c-6 52 -7 104 -7 156c0 115 55 224 149 292c6 5 14 5 20 0c71 -84 133 -245 133 -358c0 -143 -86 -255 -180 -364c21 -68 39 -138 56 -207c4 0 9 1 13 1c155 0 256 -128 256 -261
c0 -76 -33 -154 -107 -210c-22 -17 -47 -28 -73 -36c3 -35 5 -70 5 -105c0 -19 -1 -39 -2 -58c-7 -119 -88 -225 -202 -228l1 43c93 2 153 92 159 191c1 18 2 37 2 55c0 31 -1 61 -4 92c-29 -5 -58 -8 -89 -8zM428 916c0 55 -4 79 -20 129c-99 -48 -162 -149 -162 -259
c0 -74 18 -133 36 -194c80 97 146 198 146 324z" fill="currentColor"/>
</g>
<a style="color:inherit;" xlink:href="textedit://C:/Users/har1sf0x/Documents/GitHub/musicSchoolTampouras.github.io/sheets/ly/%ce%a0%ce%bf%ce%b4%ce%b1%cf%81%ce%ac%ce%ba%ce%b9_%ce%b2.ly:15:6:7">
<g transform="translate(16.1808, 17.0823)">
<line stroke-linejoin="round" stroke-linecap="round" stroke-width="0.1380" stroke="currentColor" x1="0" y1="0" x2="0" y2="-1.6000"/>
</g>
<g transform="translate(16.1808, 17.5323)">
<path transform="scale(0.0036, -0.0036)" d="M-103 250c5 0 10 -1 14 -5c40 -35 70 -79 89 -128c19 49 49 93 89 128c4 4 9 5 14 5c11 0 22 -10 22 -22c0 -6 -2 -12 -7 -16c-61 -54 -96 -131 -96 -212c0 -14 -11 -22 -22 -22s-22 8 -22 22c0 81 -35 158 -96 212c-5 4 -7 10 -7 16c0 12 11 22 22 22z" fill="currentColor"/>
</g>
</a>
<a style="color:inherit;" xlink:href="textedit://C:/Users/har1sf0x/Documents/GitHub/musicSchoolTampouras.github.io/sheets/ly/%ce%a0%ce%bf%ce%b4%ce%b1%cf%81%ce%ac%ce%ba%ce%b9_%ce%b2.ly:15:2:3">
<g transform="translate(15.5287, 18.7607)">
<path transform="scale(0.0040, -0.0040)" d="M218 136c55 0 108 -28 108 -89c0 -71 -55 -121 -102 -149c-35 -21 -75 -34 -116 -34c-55 0 -108 28 -108 89c0 71 55 121 102 149c35 21 75 34 116 34z" fill="currentColor"/>
</g>
</a>
<g transform="translate(22.2377, 20.2607)">
<rect x="-0.0650" y="-0.8139" width="0.1300" height="3.3139" ry="0.0400" fill="currentColor"/>
</g>
<a style="color:inherit;" xlink:href="textedit://C:/Users/har1sf0x/Documents/GitHub/musicSchoolTampouras.github.io/sheets/ly/%ce%a0%ce%bf%ce%b4%ce%b1%cf%81%ce%ac%ce%ba%ce%b9_%ce%b2.ly:15:34:35">
<g transform="translate(22.8248, 17.0823)">
<line stroke-linejoin="round" stroke-linecap="round" stroke-width="0.1380" stroke="currentColor" x1="0" y1="0" x2="0" y2="-1.6000"/>
</g>
<g transform="translate(22.8248, 17.5323)">
<path transform="scale(0.0036, -0.0036)" d="M-103 250c5 0 10 -1 14 -5c40 -35 70 -79 89 -128c19 49 49 93 89 128c4 4 9 5 14 5c11 0 22 -10 22 -22c0 -6 -2 -12 -7 -16c-61 -54 -96 -131 -96 -212c0 -14 -11 -22 -22 -22s-22 8 -22 22c0 81 -35 158 -96 212c-5 4 -7 10 -7 16c0 12 11 22 22 22z" fill="currentColor"/>
</g>
</a>
<a style="color:inherit;" xlink:href="textedit://C:/Users/har1sf0x/Documents/GitHub/musicSchoolTampouras.github.io/sheets/ly/%ce%a0%ce%bf%ce%b4%ce%b1%cf%81%ce%ac%ce%ba%ce%b9_%ce%b2.ly:15:30:31">
<g transform="translate(22.1727, 19.2607)">
<path transform="scale(0.0040, -0.0040)" d="M218 136c55 0 108 -28 108 -89c0 -71 -55 -121 -102 -149c-35 -21 -75 -34 -116 -34c-55 0 -108 28 -108 89c0 71 55 121 102 149c35 21 75 34 116 34z" fill="currentColor"/>
</g>
</a>
<g transform="translate(19.6533, 22.7207)">
<path transform="scale(0.0040, -0.0040)" d="M0 0h-16v250h16v-250zM0 0v250c97 59 224 148 224 259c0 57 -15 112 -40 163c-3 16 10 27 23 27c7 0 15 -3 20 -11c25 -56 40 -117 40 -179c0 -203 -267 -306 -267 -509z" fill="currentColor"/>
</g>
<g transform="translate(19.5883, 20.2607)">
<rect x="-0.0650" y="-0.8139" width="0.1300" height="3.3139" ry="0.0400" fill="currentColor"/>
</g>
<a style="color:inherit;" xlink:href="textedit://C:/Users/har1sf0x/Documents/GitHub/musicSchoolTampouras.github.io/sheets/ly/%ce%a0%ce%bf%ce%b4%ce%b1%cf%81%ce%ac%ce%ba%ce%b9_%ce%b2.ly:15:21:22">
<g transform="scale(1.0000, -1.0000)">
<g transform="translate(20.1754, -15.9417)">
<line stroke-linejoin="round" stroke-linecap="round" stroke-width="0.1380" stroke="currentColor" x1="0" y1="0" x2="0" y2="-1.6000"/>
</g>
<g transform="translate(20.1754, -15.4917)">
<path transform="scale(0.0036, -0.0036)" d="M-103 250c5 0 10 -1 14 -5c40 -35 70 -79 89 -128c19 49 49 93 89 128c4 4 9 5 14 5c11 0 22 -10 22 -22c0 -6 -2 -12 -7 -16c-61 -54 -96 -131 -96 -212c0 -14 -11 -22 -22 -22s-22 8 -22 22c0 81 -35 158 -96 212c-5 4 -7 10 -7 16c0 12 11 22 22 22z" fill="currentColor"/>
</g>
</g>
</a>
<a style="color:inherit;" xlink:href="textedit://C:/Users/har1sf0x/Documents/GitHub/musicSchoolTampouras.github.io/sheets/ly/%ce%a0%ce%bf%ce%b4%ce%b1%cf%81%ce%ac%ce%ba%ce%b9_%ce%b2.ly:15:17:18">
<g transform="translate(19.5233, 19.2607)">
<path transform="scale(0.0040, -0.0040)" d="M218 136c55 0 108 -28 108 -89c0 -71 -55 -121 -102 -149c-35 -21 -75 -34 -116 -34c-55 0 -108 28 -108 89c0 71 55 121 102 149c35 21 75 34 116 34z" fill="currentColor"/>
</g>
</a>
<a style="color:inherit;" xlink:href="textedit://C:/Users/har1sf0x/Documents/GitHub/musicSchoolTampouras.github.io/sheets/ly/%ce%a0%ce%bf%ce%b4%ce%b1%cf%81%ce%ac%ce%ba%ce%b9_%ce%b2.ly:16:37:38">
<g transform="translate(54.2438, 17.0823)">
<line stroke-linejoin="round" stroke-linecap="round" stroke-width="0.1380" stroke="currentColor" x1="0" y1="0" x2="0" y2="-1.6000"/>
</g>
<g transform="translate(54.2438, 17.5323)">
<path transform="scale(0.0036, -0.0036)" d="M-103 250c5 0 10 -1 14 -5c40 -35 70 -79 89 -128c19 49 49 93 89 128c4 4 9 5 14 5c11 0 22 -10 22 -22c0 -6 -2 -12 -7 -16c-61 -54 -96 -131 -96 -212c0 -14 -11 -22 -22 -22s-22 8 -22 22c0 81 -35 158 -96 212c-5 4 -7 10 -7 16c0 12 11 22 22 22z" fill="currentColor"/>
</g>
</a>
<a style="color:inherit;" xlink:href="textedit://C:/Users/har1sf0x/Documents/GitHub/musicSchoolTampouras.github.io/sheets/ly/%ce%a0%ce%bf%ce%b4%ce%b1%cf%81%ce%ac%ce%ba%ce%b9_%ce%b2.ly:16:34:35">
<g transform="translate(53.5917, 19.2607)">
<path transform="scale(0.0040, -0.0040)" d="M218 136c55 0 108 -28 108 -89c0 -71 -55 -121 -102 -149c-35 -21 -75 -34 -116 -34c-55 0 -108 28 -108 89c0 71 55 121 102 149c35 21 75 34 116 34z" fill="currentColor"/>
</g>
</a>
<g transform="translate(58.4382, 20.2607)">
<rect x="-0.0650" y="-0.8139" width="0.1300" height="3.3139" ry="0.0400" fill="currentColor"/>
</g>
<g transform="translate(55.3459, 18.7607)">
<path transform="scale(0.0040, -0.0040)" d="M0 0c0 31 25 56 56 56s56 -25 56 -56s-25 -56 -56 -56s-56 25 -56 56z" fill="currentColor"/>
</g>
<g transform="translate(47.7709, 20.2607)">
<rect x="-0.0650" y="-0.8139" width="0.1300" height="3.3139" ry="0.0400" fill="currentColor"/>
</g>
<a style="color:inherit;" xlink:href="textedit://C:/Users/har1sf0x/Documents/GitHub/musicSchoolTampouras.github.io/sheets/ly/%ce%a0%ce%bf%ce%b4%ce%b1%cf%81%ce%ac%ce%ba%ce%b9_%ce%b2.ly:16:48:49">
<g transform="translate(58.3732, 19.2607)">
<path transform="scale(0.0040, -0.0040)" d="M218 136c55 0 108 -28 108 -89c0 -71 -55 -121 -102 -149c-35 -21 -75 -34 -116 -34c-55 0 -108 28 -108 89c0 71 55 121 102 149c35 21 75 34 116 34z" fill="currentColor"/>
</g>
</a>
<a style="color:inherit;" xlink:href="textedit://C:/Users/har1sf0x/Documents/GitHub/musicSchoolTampouras.github.io/sheets/ly/%ce%a0%ce%bf%ce%b4%ce%b1%cf%81%ce%ac%ce%ba%ce%b9_%ce%b2.ly:16:51:52">
<g transform="scale(1.0000, -1.0000)">
<g transform="translate(59.0253, -15.9417)">
<line stroke-linejoin="round" stroke-linecap="round" stroke-width="0.1380" stroke="currentColor" x1="0" y1="0" x2="0" y2="-1.6000"/>
</g>
<g transform="translate(59.0253, -15.4917)">
<path transform="scale(0.0036, -0.0036)" d="M-103 250c5 0 10 -1 14 -5c40 -35 70 -79 89 -128c19 49 49 93 89 128c4 4 9 5 14 5c11 0 22 -10 22 -22c0 -6 -2 -12 -7 -16c-61 -54 -96 -131 -96 -212c0 -14 -11 -22 -22 -22s-22 8 -22 22c0 81 -35 158 -96 212c-5 4 -7 10 -7 16c0 12 11 22 22 22z" fill="currentColor"/>
</g>
</g>
</a>
<g transform="translate(60.1274, 18.7607)">
<path transform="scale(0.0040, -0.0040)" d="M0 0c0 31 25 56 56 56s56 -25 56 -56s-25 -56 -56 -56s-56 25 -56 56z" fill="currentColor"/>
</g>
<g transform="translate(53.6567, 20.2607)">
<rect x="-0.0650" y="-0.8139" width="0.1300" height="3.3139" ry="0.0400" fill="currentColor"/>
</g>
<a style="color:inherit;" xlink:href="textedit://C:/Users/har1sf0x/Documents/GitHub/musicSchoolTampouras.github.io/sheets/ly/%ce%a0%ce%bf%ce%b4%ce%b1%cf%81%ce%ac%ce%ba%ce%b9_%ce%b2.ly:16:2:3">
<g transform="translate(42.6919, 21.2607)">
<path transform="scale(0.0040, -0.0040)" d="M218 136c55 0 108 -28 108 -89c0 -71 -55 -121 -102 -149c-35 -21 -75 -34 -116 -34c-55 0 -108 28 -108 89c0 71 55 121 102 149c35 21 75 34 116 34z" fill="currentColor"/>
</g>
</a>
<g transform="translate(49.4601, 18.7607)">
<path transform="scale(0.0040, -0.0040)" d="M0 0c0 31 25 56 56 56s56 -25 56 -56s-25 -56 -56 -56s-56 25 -56 56z" fill="currentColor"/>
</g>
<g transform="translate(43.9311, 20.2607)">
<rect x="-0.0650" y="-2.5000" width="0.1300" height="3.3139" ry="0.0400" fill="currentColor"/>
</g>
<g transform="translate(44.4461, 20.7607)">
<path transform="scale(0.0040, -0.0040)" d="M0 0c0 31 25 56 56 56s56 -25 56 -56s-25 -56 -56 -56s-56 25 -56 56z" fill="currentColor"/>
</g>
<a style="color:inherit;" xlink:href="textedit://C:/Users/har1sf0x/Documents/GitHub/musicSchoolTampouras.github.io/sheets/ly/%ce%a0%ce%bf%ce%b4%ce%b1%cf%81%ce%ac%ce%ba%ce%b9_%ce%b2.ly:17:2:3">
<g transform="translate(64.2875, 18.7607)">
<path transform="scale(0.0040, -0.0040)" d="M218 136c55 0 108 -28 108 -89c0 -71 -55 -121 -102 -149c-35 -21 -75 -34 -116 -34c-55 0 -108 28 -108 89c0 71 55 121 102 149c35 21 75 34 116 34z" fill="currentColor"/>
</g>
</a>
<a style="color:inherit;" xlink:href="textedit://C:/Users/har1sf0x/Documents/GitHub/musicSchoolTampouras.github.io/sheets/ly/%ce%a0%ce%bf%ce%b4%ce%b1%cf%81%ce%ac%ce%ba%ce%b9_%ce%b2.ly:16:7:8">
<g transform="translate(43.3440, 16.6323)">
<line stroke-linejoin="round" stroke-linecap="round" stroke-width="0.1380" stroke="currentColor" x1="0" y1="0" x2="0" y2="-1.6000"/>
</g>
<g transform="translate(43.3440, 17.0823)">
<path transform="scale(0.0036, -0.0036)" d="M-103 250c5 0 10 -1 14 -5c40 -35 70 -79 89 -128c19 49 49 93 89 128c4 4 9 5 14 5c11 0 22 -10 22 -22c0 -6 -2 -12 -7 -16c-61 -54 -96 -131 -96 -212c0 -14 -11 -22 -22 -22s-22 8 -22 22c0 81 -35 158 -96 212c-5 4 -7 10 -7 16c0 12 11 22 22 22z" fill="currentColor"/>
</g>
</a>
<a style="color:inherit;" xlink:href="textedit://C:/Users/har1sf0x/Documents/GitHub/musicSchoolTampouras.github.io/sheets/ly/%ce%a0%ce%bf%ce%b4%ce%b1%cf%81%ce%ac%ce%ba%ce%b9_%ce%b2.ly:17:6:7">
<g transform="translate(64.9396, 17.0823)">
<line stroke-linejoin="round" stroke-linecap="round" stroke-width="0.1380" stroke="currentColor" x1="0" y1="0" x2="0" y2="-1.6000"/>
</g>
<g transform="translate(64.9396, 17.5323)">
<path transform="scale(0.0036, -0.0036)" d="M-103 250c5 0 10 -1 14 -5c40 -35 70 -79 89 -128c19 49 49 93 89 128c4 4 9 5 14 5c11 0 22 -10 22 -22c0 -6 -2 -12 -7 -16c-61 -54 -96 -131 -96 -212c0 -14 -11 -22 -22 -22s-22 8 -22 22c0 81 -35 158 -96 212c-5 4 -7 10 -7 16c0 12 11 22 22 22z" fill="currentColor"/>
</g>
</a>
<g transform="translate(39.0281, 23.5957)">
<path transform="scale(0.0040, -0.0040)" d="M0 0h-16v250h16v-250zM0 0v250c97 59 224 148 224 259c0 57 -15 112 -40 163c-3 16 10 27 23 27c7 0 15 -3 20 -11c25 -56 40 -117 40 -179c0 -203 -267 -306 -267 -509z" fill="currentColor"/>
</g>
<a style="color:inherit;" xlink:href="textedit://C:/Users/har1sf0x/Documents/GitHub/musicSchoolTampouras.github.io/sheets/ly/%ce%a0%ce%bf%ce%b4%ce%b1%cf%81%ce%ac%ce%ba%ce%b9_%ce%b2.ly:16:22:23">
<g transform="scale(1.0000, -1.0000)">
<g transform="translate(48.3580, -15.9417)">
<line stroke-linejoin="round" stroke-linecap="round" stroke-width="0.1380" stroke="currentColor" x1="0" y1="0" x2="0" y2="-1.6000"/>
</g>
<g transform="translate(48.3580, -15.4917)">
<path transform="scale(0.0036, -0.0036)" d="M-103 250c5 0 10 -1 14 -5c40 -35 70 -79 89 -128c19 49 49 93 89 128c4 4 9 5 14 5c11 0 22 -10 22 -22c0 -6 -2 -12 -7 -16c-61 -54 -96 -131 -96 -212c0 -14 -11 -22 -22 -22s-22 8 -22 22c0 81 -35 158 -96 212c-5 4 -7 10 -7 16c0 12 11 22 22 22z" fill="currentColor"/>
</g>
</g>
<g transform="translate(48.3580, 15.9917)">
<path transform="scale(0.0040, -0.0040)" d="M-105 -250c-11 0 -20 9 -20 20c0 6 2 11 7 15c62 54 98 133 98 215c0 13 10 20 20 20s20 -7 20 -20c0 -82 36 -161 98 -215c5 -4 7 -9 7 -15c0 -11 -9 -20 -20 -20c-5 0 -9 2 -13 5c-41 36 -73 82 -92 133c-19 -51 -51 -97 -92 -133c-4 -3 -8 -5 -13 -5z" fill="currentColor"/>
</g>
<g transform="translate(48.3580, 16.4917)">
<path transform="scale(0.0040, -0.0040)" d="M-105 -250c-11 0 -20 9 -20 20c0 6 2 11 7 15c62 54 98 133 98 215c0 13 10 20 20 20s20 -7 20 -20c0 -82 36 -161 98 -215c5 -4 7 -9 7 -15c0 -11 -9 -20 -20 -20c-5 0 -9 2 -13 5c-41 36 -73 82 -92 133c-19 -51 -51 -97 -92 -133c-4 -3 -8 -5 -13 -5z" fill="currentColor"/>
</g>
</a>
<a style="color:inherit;" xlink:href="textedit://C:/Users/har1sf0x/Documents/GitHub/musicSchoolTampouras.github.io/sheets/ly/%ce%a0%ce%bf%ce%b4%ce%b1%cf%81%ce%ac%ce%ba%ce%b9_%ce%b2.ly:16:18:19">
<g transform="translate(47.7059, 19.2607)">
<path transform="scale(0.0040, -0.0040)" d="M218 136c55 0 108 -28 108 -89c0 -71 -55 -121 -102 -149c-35 -21 -75 -34 -116 -34c-55 0 -108 28 -108 89c0 71 55 121 102 149c35 21 75 34 116 34z" fill="currentColor"/>
</g>
</a>
<g transform="translate(5.6906, 34.8482)">
<line stroke-linejoin="round" stroke-linecap="round" stroke-width="0.1000" stroke="currentColor" x1="0.0500" y1="0" x2="108.0705" y2="0"/>
</g>
<g transform="translate(5.6906, 33.8482)">
<line stroke-linejoin="round" stroke-linecap="round" stroke-width="0.1000" stroke="currentColor" x1="0.0500" y1="0" x2="108.0705" y2="0"/>
</g>
<g transform="translate(5.6906, 32.8482)">
<line stroke-linejoin="round" stroke-linecap="round" stroke-width="0.1000" stroke="currentColor" x1="0.0500" y1="0" x2="108.0705" y2="0"/>
</g>
<g transform="translate(5.6906, 31.8482)">
<line stroke-linejoin="round" stroke-linecap="round" stroke-width="0.1000" stroke="currentColor" x1="0.0500" y1="0" x2="108.0705" y2="0"/>
</g>
<g transform="translate(5.6906, 30.8482)">
<line stroke-linejoin="round" stroke-linecap="round" stroke-width="0.1000" stroke="currentColor" x1="0.0500" y1="0" x2="108.0705" y2="0"/>
</g>
<g transform="translate(50.0569, 32.8482)">
<rect x="0.0000" y="-2.0000" width="0.1900" height="4.0000" ry="0.0000" fill="currentColor"/>
</g>
<g transform="translate(25.4672, 32.8482)">
<rect x="0.0000" y="-2.0000" width="0.1900" height="4.0000" ry="0.0000" fill="currentColor"/>
</g>
<g transform="translate(101.1551, 32.8482)">
<rect x="0.0000" y="-2.0000" width="0.1900" height="4.0000" ry="0.0000" fill="currentColor"/>
</g>
<g transform="translate(74.5749, 32.8482)">
<rect x="0.0000" y="-2.0000" width="0.1900" height="4.0000" ry="0.0000" fill="currentColor"/>
</g>
<g transform="translate(113.2110, 32.8482)">
<rect x="0.0000" y="-2.0000" width="0.6000" height="4.0000" ry="0.0000" fill="currentColor"/>
</g>
<g transform="translate(112.7210, 32.8482)">
<rect x="0.0000" y="-2.0000" width="0.1900" height="4.0000" ry="0.0000" fill="currentColor"/>
</g>
<g transform="translate(89.5892, 32.8482)">
<rect x="0.0000" y="-2.0000" width="0.1900" height="4.0000" ry="0.0000" fill="currentColor"/>
</g>
<g transform="translate(61.3327, 32.8482)">
<rect x="0.0000" y="-2.0000" width="0.1900" height="4.0000" ry="0.0000" fill="currentColor"/>
</g>
<g transform="translate(38.7095, 32.8482)">
<rect x="0.0000" y="-2.0000" width="0.1900" height="4.0000" ry="0.0000" fill="currentColor"/>
</g>
<g transform="translate(82.9309, 32.8482)">
<rect x="-0.0650" y="-0.8139" width="0.1300" height="3.3139" ry="0.0400" fill="currentColor"/>
</g>
<a style="color:inherit;" xlink:href="textedit://C:/Users/har1sf0x/Documents/GitHub/musicSchoolTampouras.github.io/sheets/ly/%ce%a0%ce%bf%ce%b4%ce%b1%cf%81%ce%ac%ce%ba%ce%b9_%ce%b2.ly:23:74:75">
<g transform="scale(1.0000, -1.0000)">
<g transform="translate(83.5181, -28.5292)">
<line stroke-linejoin="round" stroke-linecap="round" stroke-width="0.1380" stroke="currentColor" x1="0" y1="0" x2="0" y2="-1.6000"/>
</g>
<g transform="translate(83.5181, -28.0792)">
<path transform="scale(0.0036, -0.0036)" d="M-103 250c5 0 10 -1 14 -5c40 -35 70 -79 89 -128c19 49 49 93 89 128c4 4 9 5 14 5c11 0 22 -10 22 -22c0 -6 -2 -12 -7 -16c-61 -54 -96 -131 -96 -212c0 -14 -11 -22 -22 -22s-22 8 -22 22c0 81 -35 158 -96 212c-5 4 -7 10 -7 16c0 12 11 22 22 22z" fill="currentColor"/>
</g>
</g>
<g transform="translate(83.5181, 28.5792)">
<path transform="scale(0.0040, -0.0040)" d="M-105 -250c-11 0 -20 9 -20 20c0 6 2 11 7 15c62 54 98 133 98 215c0 13 10 20 20 20s20 -7 20 -20c0 -82 36 -161 98 -215c5 -4 7 -9 7 -15c0 -11 -9 -20 -20 -20c-5 0 -9 2 -13 5c-41 36 -73 82 -92 133c-19 -51 -51 -97 -92 -133c-4 -3 -8 -5 -13 -5z" fill="currentColor"/>
</g>
<g transform="translate(83.5181, 29.0792)">
<path transform="scale(0.0040, -0.0040)" d="M-105 -250c-11 0 -20 9 -20 20c0 6 2 11 7 15c62 54 98 133 98 215c0 13 10 20 20 20s20 -7 20 -20c0 -82 36 -161 98 -215c5 -4 7 -9 7 -15c0 -11 -9 -20 -20 -20c-5 0 -9 2 -13 5c-41 36 -73 82 -92 133c-19 -51 -51 -97 -92 -133c-4 -3 -8 -5 -13 -5z" fill="currentColor"/>
</g>
</a>
<a style="color:inherit;" xlink:href="textedit://C:/Users/har1sf0x/Documents/GitHub/musicSchoolTampouras.github.io/sheets/ly/%ce%a0%ce%bf%ce%b4%ce%b1%cf%81%ce%ac%ce%ba%ce%b9_%ce%b2.ly:23:70:71">
<g transform="translate(82.8659, 31.8482)">
<path transform="scale(0.0040, -0.0040)" d="M218 136c55 0 108 -28 108 -89c0 -71 -55 -121 -102 -149c-35 -21 -75 -34 -116 -34c-55 0 -108 28 -108 89c0 71 55 121 102 149c35 21 75 34 116 34z" fill="currentColor"/>
</g>
</a>
<g transform="translate(80.2368, 36.1832)">
<path transform="scale(0.0040, -0.0040)" d="M0 0h-16v250h16v-250zM0 0v250c97 59 224 148 224 259c0 57 -15 112 -40 163c-3 16 10 27 23 27c7 0 15 -3 20 -11c25 -56 40 -117 40 -179c0 -203 -267 -306 -267 -509z" fill="currentColor"/>
</g>
<g transform="translate(80.1718, 32.8482)">
<rect x="-0.0650" y="0.1861" width="0.1300" height="3.1889" ry="0.0400" fill="currentColor"/>
</g>
<a style="color:inherit;" xlink:href="textedit://C:/Users/har1sf0x/Documents/GitHub/musicSchoolTampouras.github.io/sheets/ly/%ce%a0%ce%bf%ce%b4%ce%b1%cf%81%ce%ac%ce%ba%ce%b9_%ce%b2.ly:23:62:63">
<g transform="translate(80.1068, 32.8482)">
<path transform="scale(0.0040, -0.0040)" d="M218 136c55 0 108 -28 108 -89c0 -71 -55 -121 -102 -149c-35 -21 -75 -34 -116 -34c-55 0 -108 28 -108 89c0 71 55 121 102 149c35 21 75 34 116 34z" fill="currentColor"/>
</g>
</a>
<a style="color:inherit;" xlink:href="textedit://C:/Users/har1sf0x/Documents/GitHub/musicSchoolTampouras.github.io/sheets/ly/%ce%a0%ce%bf%ce%b4%ce%b1%cf%81%ce%ac%ce%ba%ce%b9_%ce%b2.ly:24:2:3">
<g transform="translate(90.7748, 33.8482)">
<path transform="scale(0.0040, -0.0040)" d="M218 136c55 0 108 -28 108 -89c0 -71 -55 -121 -102 -149c-35 -21 -75 -34 -116 -34c-55 0 -108 28 -108 89c0 71 55 121 102 149c35 21 75 34 116 34z" fill="currentColor"/>
</g>
</a>
<g transform="translate(92.0140, 32.8482)">
<rect x="-0.0650" y="-2.5000" width="0.1300" height="3.3139" ry="0.0400" fill="currentColor"/>
</g>
<g transform="translate(92.5290, 33.3482)">
<path transform="scale(0.0040, -0.0040)" d="M0 0c0 31 25 56 56 56s56 -25 56 -56s-25 -56 -56 -56s-56 25 -56 56z" fill="currentColor"/>
</g>
<a style="color:inherit;" xlink:href="textedit://C:/Users/har1sf0x/Documents/GitHub/musicSchoolTampouras.github.io/sheets/ly/%ce%a0%ce%bf%ce%b4%ce%b1%cf%81%ce%ac%ce%ba%ce%b9_%ce%b2.ly:24:7:8">
<g transform="translate(91.4269, 29.2198)">
<line stroke-linejoin="round" stroke-linecap="round" stroke-width="0.1380" stroke="currentColor" x1="0" y1="0" x2="0" y2="-1.6000"/>
</g>
<g transform="translate(91.4269, 29.6698)">
<path transform="scale(0.0036, -0.0036)" d="M-103 250c5 0 10 -1 14 -5c40 -35 70 -79 89 -128c19 49 49 93 89 128c4 4 9 5 14 5c11 0 22 -10 22 -22c0 -6 -2 -12 -7 -16c-61 -54 -96 -131 -96 -212c0 -14 -11 -22 -22 -22s-22 8 -22 22c0 81 -35 158 -96 212c-5 4 -7 10 -7 16c0 12 11 22 22 22z" fill="currentColor"/>
</g>
</a>
<g transform="translate(86.9600, 36.1832)">
<path transform="scale(0.0040, -0.0040)" d="M0 0h-16v250h16v-250zM0 0v250c97 59 224 148 224 259c0 57 -15 112 -40 163c-3 16 10 27 23 27c7 0 15 -3 20 -11c25 -56 40 -117 40 -179c0 -203 -267 -306 -267 -509z" fill="currentColor"/>
</g>
<g transform="translate(86.8950, 32.8482)">
<rect x="-0.0650" y="0.1861" width="0.1300" height="3.1889" ry="0.0400" fill="currentColor"/>
</g>
<a style="color:inherit;" xlink:href="textedit://C:/Users/har1sf0x/Documents/GitHub/musicSchoolTampouras.github.io/sheets/ly/%ce%a0%ce%bf%ce%b4%ce%b1%cf%81%ce%ac%ce%ba%ce%b9_%ce%b2.ly:23:87:88">
<g transform="translate(86.8300, 32.8482)">
<path transform="scale(0.0040, -0.0040)" d="M218 136c55 0 108 -28 108 -89c0 -71 -55 -121 -102 -149c-35 -21 -75 -34 -116 -34c-55 0 -108 28 -108 89c0 71 55 121 102 149c35 21 75 34 116 34z" fill="currentColor"/>
</g>
</a>
<a style="color:inherit;" xlink:href="textedit://C:/Users/har1sf0x/Documents/GitHub/musicSchoolTampouras.github.io/sheets/ly/%ce%a0%ce%bf%ce%b4%ce%b1%cf%81%ce%ac%ce%ba%ce%b9_%ce%b2.ly:23:23:24">
<g transform="scale(1.0000, -1.0000)">
<g transform="translate(68.2355, -27.5792)">
<line stroke-linejoin="round" stroke-linecap="round" stroke-width="0.1380" stroke="currentColor" x1="0" y1="0" x2="0" y2="-1.6000"/>
</g>
<g transform="translate(68.2355, -27.1292)">
<path transform="scale(0.0036, -0.0036)" d="M-103 250c5 0 10 -1 14 -5c40 -35 70 -79 89 -128c19 49 49 93 89 128c4 4 9 5 14 5c11 0 22 -10 22 -22c0 -6 -2 -12 -7 -16c-61 -54 -96 -131 -96 -212c0 -14 -11 -22 -22 -22s-22 8 -22 22c0 81 -35 158 -96 212c-5 4 -7 10 -7 16c0 12 11 22 22 22z" fill="currentColor"/>
</g>
</g>
<g transform="translate(68.2355, 27.6292)">
<path transform="scale(0.0040, -0.0040)" d="M-105 -250c-11 0 -20 9 -20 20c0 6 2 11 7 15c62 54 98 133 98 215c0 13 10 20 20 20s20 -7 20 -20c0 -82 36 -161 98 -215c5 -4 7 -9 7 -15c0 -11 -9 -20 -20 -20c-5 0 -9 2 -13 5c-41 36 -73 82 -92 133c-19 -51 -51 -97 -92 -133c-4 -3 -8 -5 -13 -5z" fill="currentColor"/>
</g>
<g transform="translate(68.2355, 28.1292)">
<path transform="scale(0.0040, -0.0040)" d="M-105 -250c-11 0 -20 9 -20 20c0 6 2 11 7 15c62 54 98 133 98 215c0 13 10 20 20 20s20 -7 20 -20c0 -82 36 -161 98 -215c5 -4 7 -9 7 -15c0 -11 -9 -20 -20 -20c-5 0 -9 2 -13 5c-41 36 -73 82 -92 133c-19 -51 -51 -97 -92 -133c-4 -3 -8 -5 -13 -5z" fill="currentColor"/>
</g>
</a>
<g transform="translate(71.8808, 32.8482)">
<rect x="-0.0650" y="0.1861" width="0.1300" height="3.1889" ry="0.0400" fill="currentColor"/>
</g>
<a style="color:inherit;" xlink:href="textedit://C:/Users/har1sf0x/Documents/GitHub/musicSchoolTampouras.github.io/sheets/ly/%ce%a0%ce%bf%ce%b4%ce%b1%cf%81%ce%ac%ce%ba%ce%b9_%ce%b2.ly:23:36:37">
<g transform="translate(71.8158, 32.8482)">
<path transform="scale(0.0040, -0.0040)" d="M218 136c55 0 108 -28 108 -89c0 -71 -55 -121 -102 -149c-35 -21 -75 -34 -116 -34c-55 0 -108 28 -108 89c0 71 55 121 102 149c35 21 75 34 116 34z" fill="currentColor"/>
</g>
</a>
<g transform="translate(68.8226, 32.8482)">
<rect x="-0.0650" y="-3.0000" width="0.1300" height="3.3139" ry="0.0400" fill="currentColor"/>
</g>
<g transform="translate(71.9458, 36.1832)">
<path transform="scale(0.0040, -0.0040)" d="M0 0h-16v250h16v-250zM0 0v250c97 59 224 148 224 259c0 57 -15 112 -40 163c-3 16 10 27 23 27c7 0 15 -3 20 -11c25 -56 40 -117 40 -179c0 -203 -267 -306 -267 -509z" fill="currentColor"/>
</g>
<a style="color:inherit;" xlink:href="textedit://C:/Users/har1sf0x/Documents/GitHub/musicSchoolTampouras.github.io/sheets/ly/%ce%a0%ce%bf%ce%b4%ce%b1%cf%81%ce%ac%ce%ba%ce%b9_%ce%b2.ly:23:19:20">
<g transform="translate(67.5834, 33.3482)">
<path transform="scale(0.0040, -0.0040)" d="M218 136c55 0 108 -28 108 -89c0 -71 -55 -121 -102 -149c-35 -21 -75 -34 -116 -34c-55 0 -108 28 -108 89c0 71 55 121 102 149c35 21 75 34 116 34z" fill="currentColor"/>
</g>
</a>
<a style="color:inherit;" xlink:href="textedit://C:/Users/har1sf0x/Documents/GitHub/musicSchoolTampouras.github.io/sheets/ly/%ce%a0%ce%bf%ce%b4%ce%b1%cf%81%ce%ac%ce%ba%ce%b9_%ce%b2.ly:23:86:87">
<g transform="translate(82.8659, 32.8482)">
<path stroke-width="0.0800" stroke-linejoin="round" stroke-linecap="round" stroke="currentColor" fill="currentColor" d="M0.7584 -2.1950C1.9455 -2.8456 3.9862 -2.3308 4.7225 -1.1950L4.7225 -1.1950C3.9568 -2.2145 1.9161 -2.7293 0.7584 -2.1950z"/>
</g>
</a>
<a style="color:inherit;" xlink:href="textedit://C:/Users/har1sf0x/Documents/GitHub/musicSchoolTampouras.github.io/sheets/ly/%ce%a0%ce%bf%ce%b4%ce%b1%cf%81%ce%ac%ce%ba%ce%b9_%ce%b2.ly:23:48:49">
<g transform="translate(76.1522, 37.7330)">
<path transform="scale(0.0022, -0.0022)" d="M155 471c-34 0 -71 -8 -71 -38c0 -19 32 -23 32 -42c0 -28 -23 -51 -51 -51s-51 23 -51 51c0 67 68 109 141 109c93 0 174 -31 174 -113c0 -41 -6 -77 -42 -94c-11 -5 -17 -16 -17 -27s6 -22 17 -27c40 -19 59 -53 59 -98c0 -94 -83 -141 -186 -141
c-82 0 -160 45 -160 119c0 32 26 58 58 58s58 -26 58 -58c0 -22 -36 -26 -36 -48c0 -33 42 -42 80 -42c46 0 56 58 56 112v38c0 40 -4 69 -43 69h-74c-12 0 -18 9 -18 18s6 18 18 18h74c40 0 43 31 43 73v30c0 50 -16 84 -61 84z" fill="currentColor"/>
</g>
<g transform="translate(76.5448, 37.1717)">
<circle stroke-linejoin="round" stroke-linecap="round" fill="none" stroke="currentColor" stroke-width="0.1000" r="0.7735"/>
</g>
</a>
<g transform="translate(75.9577, 32.8482)">
<rect x="-0.0650" y="-0.3139" width="0.1300" height="3.3139" ry="0.0400" fill="currentColor"/>
</g>
<a style="color:inherit;" xlink:href="textedit://C:/Users/har1sf0x/Documents/GitHub/musicSchoolTampouras.github.io/sheets/ly/%ce%a0%ce%bf%ce%b4%ce%b1%cf%81%ce%ac%ce%ba%ce%b9_%ce%b2.ly:23:50:51">
<g transform="translate(76.5448, 29.6698)">
<line stroke-linejoin="round" stroke-linecap="round" stroke-width="0.1380" stroke="currentColor" x1="0" y1="0" x2="0" y2="-1.6000"/>
</g>
<g transform="translate(76.5448, 30.1198)">
<path transform="scale(0.0036, -0.0036)" d="M-103 250c5 0 10 -1 14 -5c40 -35 70 -79 89 -128c19 49 49 93 89 128c4 4 9 5 14 5c11 0 22 -10 22 -22c0 -6 -2 -12 -7 -16c-61 -54 -96 -131 -96 -212c0 -14 -11 -22 -22 -22s-22 8 -22 22c0 81 -35 158 -96 212c-5 4 -7 10 -7 16c0 12 11 22 22 22z" fill="currentColor"/>
</g>
</a>
<a style="color:inherit;" xlink:href="textedit://C:/Users/har1sf0x/Documents/GitHub/musicSchoolTampouras.github.io/sheets/ly/%ce%a0%ce%bf%ce%b4%ce%b1%cf%81%ce%ac%ce%ba%ce%b9_%ce%b2.ly:23:44:45">
<g transform="translate(75.8927, 32.3482)">
<path transform="scale(0.0040, -0.0040)" d="M218 136c55 0 108 -28 108 -89c0 -71 -55 -121 -102 -149c-35 -21 -75 -34 -116 -34c-55 0 -108 28 -108 89c0 71 55 121 102 149c35 21 75 34 116 34z" fill="currentColor"/>
</g>
</a>
<a style="color:inherit;" xlink:href="textedit://C:/Users/har1sf0x/Documents/GitHub/musicSchoolTampouras.github.io/sheets/ly/%ce%a0%ce%bf%ce%b4%ce%b1%cf%81%ce%ac%ce%ba%ce%b9_%ce%b2.ly:24:65:66">
<g transform="translate(107.4059, 33.3482)">
<path transform="scale(0.0040, -0.0040)" d="M218 136c55 0 108 -28 108 -89c0 -71 -55 -121 -102 -149c-35 -21 -75 -34 -116 -34c-55 0 -108 28 -108 89c0 71 55 121 102 149c35 21 75 34 116 34z" fill="currentColor"/>
</g>
</a>
<g transform="translate(110.3993, 34.3482)">
<path transform="scale(0.0040, -0.0040)" d="M0 0c0 31 25 56 56 56s56 -25 56 -56s-25 -56 -56 -56s-56 25 -56 56z" fill="currentColor"/>
</g>
<g transform="translate(108.6451, 32.8482)">
<rect x="-0.0650" y="-3.0000" width="0.1300" height="4.8139" ry="0.0400" fill="currentColor"/>
</g>
<g transform="translate(110.3993, 32.3482)">
<path transform="scale(0.0040, -0.0040)" d="M0 0c0 31 25 56 56 56s56 -25 56 -56s-25 -56 -56 -56s-56 25 -56 56z" fill="currentColor"/>
</g>
<a style="color:inherit;" xlink:href="textedit://C:/Users/har1sf0x/Documents/GitHub/musicSchoolTampouras.github.io/sheets/ly/%ce%a0%ce%bf%ce%b4%ce%b1%cf%81%ce%ac%ce%ba%ce%b9_%ce%b2.ly:24:77:78">
<g transform="scale(1.0000, -1.0000)">
<g transform="translate(108.0580, -27.5792)">
<line stroke-linejoin="round" stroke-linecap="round" stroke-width="0.1380" stroke="currentColor" x1="0" y1="0" x2="0" y2="-1.6000"/>
</g>
<g transform="translate(108.0580, -27.1292)">
<path transform="scale(0.0036, -0.0036)" d="M-103 250c5 0 10 -1 14 -5c40 -35 70 -79 89 -128c19 49 49 93 89 128c4 4 9 5 14 5c11 0 22 -10 22 -22c0 -6 -2 -12 -7 -16c-61 -54 -96 -131 -96 -212c0 -14 -11 -22 -22 -22s-22 8 -22 22c0 81 -35 158 -96 212c-5 4 -7 10 -7 16c0 12 11 22 22 22z" fill="currentColor"/>
</g>
</g>
</a>
<g color="rgb(50.0000%, 50.0000%, 50.0000%)">
<a style="color:inherit;" xlink:href="textedit://C:/Users/har1sf0x/Documents/GitHub/musicSchoolTampouras.github.io/sheets/ly/%ce%a0%ce%bf%ce%b4%ce%b1%cf%81%ce%ac%ce%ba%ce%b9_%ce%b2.ly:24:65:66">
<g transform="translate(108.6451, 33.3482)">
<path transform="scale(0.0040, -0.0040)" d="M218 136c55 0 108 -28 108 -89c0 -71 -55 -121 -102 -149c-35 -21 -75 -34 -116 -34c-55 0 -108 28 -108 89c0 71 55 121 102 149c35 21 75 34 116 34z" fill="currentColor"/>
</g>
</a>
</g>
<g color="rgb(50.0000%, 50.0000%, 50.0000%)">
<a style="color:inherit;" xlink:href="textedit://C:/Users/har1sf0x/Documents/GitHub/musicSchoolTampouras.github.io/sheets/ly/%ce%a0%ce%bf%ce%b4%ce%b1%cf%81%ce%ac%ce%ba%ce%b9_%ce%b2.ly:24:65:66">
<g transform="translate(107.4059, 34.8482)">
<path transform="scale(0.0040, -0.0040)" d="M218 136c55 0 108 -28 108 -89c0 -71 -55 -121 -102 -149c-35 -21 -75 -34 -116 -34c-55 0 -108 28 -108 89c0 71 55 121 102 149c35 21 75 34 116 34z" fill="currentColor"/>
</g>
</a>
</g>
<g transform="translate(110.3993, 33.3482)">
<path transform="scale(0.0040, -0.0040)" d="M0 0c0 31 25 56 56 56s56 -25 56 -56s-25 -56 -56 -56s-56 25 -56 56z" fill="currentColor"/>
</g>
<a style="color:inherit;" xlink:href="textedit://C:/Users/har1sf0x/Documents/GitHub/musicSchoolTampouras.github.io/sheets/ly/%ce%a0%ce%bf%ce%b4%ce%b1%cf%81%ce%ac%ce%ba%ce%b9_%ce%b2.ly:23:61:62">
<g transform="translate(75.8927, 32.8482)">
<path stroke-width="0.0800" stroke-linejoin="round" stroke-linecap="round" stroke="currentColor" fill="currentColor" d="M0.6881 -1.6249C1.7798 -2.7794 3.9665 -2.5977 4.9022 -1.2749L4.9022 -1.2749C3.9565 -2.4782 1.7698 -2.6598 0.6881 -1.6249z"/>
</g>
</a>
<a style="color:inherit;" xlink:href="textedit://C:/Users/har1sf0x/Documents/GitHub/musicSchoolTampouras.github.io/sheets/ly/%ce%a0%ce%bf%ce%b4%ce%b1%cf%81%ce%ac%ce%ba%ce%b9_%ce%b2.ly:23:35:36">
<g transform="translate(67.5834, 32.8482)">
<path stroke-width="0.0800" stroke-linejoin="round" stroke-linecap="round" stroke="currentColor" fill="currentColor" d="M1.6042 -0.5450C2.2639 -1.4804 3.8272 -1.7984 4.7999 -1.1950L4.7999 -1.1950C3.8511 -1.6808 2.2879 -1.3628 1.6042 -0.5450z"/>
</g>
</a>
<a style="color:inherit;" xlink:href="textedit://C:/Users/har1sf0x/Documents/GitHub/musicSchoolTampouras.github.io/sheets/ly/%ce%a0%ce%bf%ce%b4%ce%b1%cf%81%ce%ac%ce%ba%ce%b9_%ce%b2.ly:21:75:76">
<g transform="translate(31.7180, 32.8482)">
<path stroke-width="0.0800" stroke-linejoin="round" stroke-linecap="round" stroke="currentColor" fill="currentColor" d="M1.6042 -0.5450C2.2639 -1.4804 3.8272 -1.7984 4.7999 -1.1950L4.7999 -1.1950C3.8511 -1.6808 2.2879 -1.3628 1.6042 -0.5450z"/>
</g>
</a>
<a style="color:inherit;" xlink:href="textedit://C:/Users/har1sf0x/Documents/GitHub/musicSchoolTampouras.github.io/sheets/ly/%ce%a0%ce%bf%ce%b4%ce%b1%cf%81%ce%ac%ce%ba%ce%b9_%ce%b2.ly:21:34:35">
<g transform="translate(18.4757, 32.8482)">
<path stroke-width="0.0800" stroke-linejoin="round" stroke-linecap="round" stroke="currentColor" fill="currentColor" d="M1.6042 -0.5450C2.2639 -1.4804 3.8272 -1.7984 4.7999 -1.1950L4.7999 -1.1950C3.8511 -1.6808 2.2879 -1.3628 1.6042 -0.5450z"/>
</g>
</a>
<g transform="translate(98.8334, 33.3482)">
<path transform="scale(0.0040, -0.0040)" d="M0 0c0 31 25 56 56 56s56 -25 56 -56s-25 -56 -56 -56s-56 25 -56 56z" fill="currentColor"/>
</g>
<g transform="translate(98.8334, 34.3482)">
<path transform="scale(0.0040, -0.0040)" d="M0 0c0 31 25 56 56 56s56 -25 56 -56s-25 -56 -56 -56s-56 25 -56 56z" fill="currentColor"/>
</g>
<g transform="translate(97.0791, 32.8482)">
<rect x="-0.0650" y="-3.0000" width="0.1300" height="4.8139" ry="0.0400" fill="currentColor"/>
</g>
<g transform="translate(98.8334, 32.3482)">
<path transform="scale(0.0040, -0.0040)" d="M0 0c0 31 25 56 56 56s56 -25 56 -56s-25 -56 -56 -56s-56 25 -56 56z" fill="currentColor"/>
</g>
<a style="color:inherit;" xlink:href="textedit://C:/Users/har1sf0x/Documents/GitHub/musicSchoolTampouras.github.io/sheets/ly/%ce%a0%ce%bf%ce%b4%ce%b1%cf%81%ce%ac%ce%ba%ce%b9_%ce%b2.ly:24:30:31">
<g transform="scale(1.0000, -1.0000)">
<g transform="translate(96.4920, -27.5792)">
<line stroke-linejoin="round" stroke-linecap="round" stroke-width="0.1380" stroke="currentColor" x1="0" y1="0" x2="0" y2="-1.6000"/>
</g>
<g transform="translate(96.4920, -27.1292)">
<path transform="scale(0.0036, -0.0036)" d="M-103 250c5 0 10 -1 14 -5c40 -35 70 -79 89 -128c19 49 49 93 89 128c4 4 9 5 14 5c11 0 22 -10 22 -22c0 -6 -2 -12 -7 -16c-61 -54 -96 -131 -96 -212c0 -14 -11 -22 -22 -22s-22 8 -22 22c0 81 -35 158 -96 212c-5 4 -7 10 -7 16c0 12 11 22 22 22z" fill="currentColor"/>
</g>
</g>
<g transform="translate(96.4920, 27.6292)">
<path transform="scale(0.0040, -0.0040)" d="M-105 -250c-11 0 -20 9 -20 20c0 6 2 11 7 15c62 54 98 133 98 215c0 13 10 20 20 20s20 -7 20 -20c0 -82 36 -161 98 -215c5 -4 7 -9 7 -15c0 -11 -9 -20 -20 -20c-5 0 -9 2 -13 5c-41 36 -73 82 -92 133c-19 -51 -51 -97 -92 -133c-4 -3 -8 -5 -13 -5z" fill="currentColor"/>
</g>
<g transform="translate(96.4920, 28.1292)">
<path transform="scale(0.0040, -0.0040)" d="M-105 -250c-11 0 -20 9 -20 20c0 6 2 11 7 15c62 54 98 133 98 215c0 13 10 20 20 20s20 -7 20 -20c0 -82 36 -161 98 -215c5 -4 7 -9 7 -15c0 -11 -9 -20 -20 -20c-5 0 -9 2 -13 5c-41 36 -73 82 -92 133c-19 -51 -51 -97 -92 -133c-4 -3 -8 -5 -13 -5z" fill="currentColor"/>
</g>
</a>
<g color="rgb(50.0000%, 50.0000%, 50.0000%)">
<a style="color:inherit;" xlink:href="textedit://C:/Users/har1sf0x/Documents/GitHub/musicSchoolTampouras.github.io/sheets/ly/%ce%a0%ce%bf%ce%b4%ce%b1%cf%81%ce%ac%ce%ba%ce%b9_%ce%b2.ly:24:18:19">
<g transform="translate(97.0791, 33.3482)">
<path transform="scale(0.0040, -0.0040)" d="M218 136c55 0 108 -28 108 -89c0 -71 -55 -121 -102 -149c-35 -21 -75 -34 -116 -34c-55 0 -108 28 -108 89c0 71 55 121 102 149c35 21 75 34 116 34z" fill="currentColor"/>
</g>
</a>
</g>
<g color="rgb(50.0000%, 50.0000%, 50.0000%)">
<a style="color:inherit;" xlink:href="textedit://C:/Users/har1sf0x/Documents/GitHub/musicSchoolTampouras.github.io/sheets/ly/%ce%a0%ce%bf%ce%b4%ce%b1%cf%81%ce%ac%ce%ba%ce%b9_%ce%b2.ly:24:18:19">
<g transform="translate(95.8399, 34.8482)">
<path transform="scale(0.0040, -0.0040)" d="M218 136c55 0 108 -28 108 -89c0 -71 -55 -121 -102 -149c-35 -21 -75 -34 -116 -34c-55 0 -108 28 -108 89c0 71 55 121 102 149c35 21 75 34 116 34z" fill="currentColor"/>
</g>
</a>
</g>
<a style="color:inherit;" xlink:href="textedit://C:/Users/har1sf0x/Documents/GitHub/musicSchoolTampouras.github.io/sheets/ly/%ce%a0%ce%bf%ce%b4%ce%b1%cf%81%ce%ac%ce%ba%ce%b9_%ce%b2.ly:24:18:19">
<g transform="translate(95.8399, 33.3482)">
<path transform="scale(0.0040, -0.0040)" d="M218 136c55 0 108 -28 108 -89c0 -71 -55 -121 -102 -149c-35 -21 -75 -34 -116 -34c-55 0 -108 28 -108 89c0 71 55 121 102 149c35 21 75 34 116 34z" fill="currentColor"/>
</g>
</a>
<g transform="translate(105.3341, 33.3482)">
<path transform="scale(0.0040, -0.0040)" d="M0 0c0 31 25 56 56 56s56 -25 56 -56s-25 -56 -56 -56s-56 25 -56 56z" fill="currentColor"/>
</g>
<g transform="translate(105.3341, 34.3482)">
<path transform="scale(0.0040, -0.0040)" d="M0 0c0 31 25 56 56 56s56 -25 56 -56s-25 -56 -56 -56s-56 25 -56 56z" fill="currentColor"/>
</g>
<g transform="translate(103.5799, 32.8482)">
<rect x="-0.0650" y="-3.0000" width="0.1300" height="4.8139" ry="0.0400" fill="currentColor"/>
</g>
<g transform="translate(105.3341, 32.3482)">
<path transform="scale(0.0040, -0.0040)" d="M0 0c0 31 25 56 56 56s56 -25 56 -56s-25 -56 -56 -56s-56 25 -56 56z" fill="currentColor"/>
</g>
<a style="color:inherit;" xlink:href="textedit://C:/Users/har1sf0x/Documents/GitHub/musicSchoolTampouras.github.io/sheets/ly/%ce%a0%ce%bf%ce%b4%ce%b1%cf%81%ce%ac%ce%ba%ce%b9_%ce%b2.ly:24:54:55">
<g transform="translate(102.9928, 28.7198)">
<line stroke-linejoin="round" stroke-linecap="round" stroke-width="0.1380" stroke="currentColor" x1="0" y1="0" x2="0" y2="-1.6000"/>
</g>
<g transform="translate(102.9928, 29.1698)">
<path transform="scale(0.0036, -0.0036)" d="M-103 250c5 0 10 -1 14 -5c40 -35 70 -79 89 -128c19 49 49 93 89 128c4 4 9 5 14 5c11 0 22 -10 22 -22c0 -6 -2 -12 -7 -16c-61 -54 -96 -131 -96 -212c0 -14 -11 -22 -22 -22s-22 8 -22 22c0 81 -35 158 -96 212c-5 4 -7 10 -7 16c0 12 11 22 22 22z" fill="currentColor"/>
</g>
</a>
<g color="rgb(50.0000%, 50.0000%, 50.0000%)">
<a style="color:inherit;" xlink:href="textedit://C:/Users/har1sf0x/Documents/GitHub/musicSchoolTampouras.github.io/sheets/ly/%ce%a0%ce%bf%ce%b4%ce%b1%cf%81%ce%ac%ce%ba%ce%b9_%ce%b2.ly:24:42:43">
<g transform="translate(103.5799, 33.3482)">
<path transform="scale(0.0040, -0.0040)" d="M218 136c55 0 108 -28 108 -89c0 -71 -55 -121 -102 -149c-35 -21 -75 -34 -116 -34c-55 0 -108 28 -108 89c0 71 55 121 102 149c35 21 75 34 116 34z" fill="currentColor"/>
</g>
</a>
</g>
<g color="rgb(50.0000%, 50.0000%, 50.0000%)">
<a style="color:inherit;" xlink:href="textedit://C:/Users/har1sf0x/Documents/GitHub/musicSchoolTampouras.github.io/sheets/ly/%ce%a0%ce%bf%ce%b4%ce%b1%cf%81%ce%ac%ce%ba%ce%b9_%ce%b2.ly:24:42:43">
<g transform="translate(102.3407, 34.8482)">
<path transform="scale(0.0040, -0.0040)" d="M218 136c55 0 108 -28 108 -89c0 -71 -55 -121 -102 -149c-35 -21 -75 -34 -116 -34c-55 0 -108 28 -108 89c0 71 55 121 102 149c35 21 75 34 116 34z" fill="currentColor"/>
</g>
</a>
</g>
<a style="color:inherit;" xlink:href="textedit://C:/Users/har1sf0x/Documents/GitHub/musicSchoolTampouras.github.io/sheets/ly/%ce%a0%ce%bf%ce%b4%ce%b1%cf%81%ce%ac%ce%ba%ce%b9_%ce%b2.ly:24:42:43">
<g transform="translate(102.3407, 33.3482)">
<path transform="scale(0.0040, -0.0040)" d="M218 136c55 0 108 -28 108 -89c0 -71 -55 -121 -102 -149c-35 -21 -75 -34 -116 -34c-55 0 -108 28 -108 89c0 71 55 121 102 149c35 21 75 34 116 34z" fill="currentColor"/>
</g>
</a>
<a style="color:inherit;" xlink:href="textedit://C:/Users/har1sf0x/Documents/GitHub/musicSchoolTampouras.github.io/sheets/ly/%ce%a0%ce%bf%ce%b4%ce%b1%cf%81%ce%ac%ce%ba%ce%b9_%ce%b2.ly:21:59:60">
<g transform="translate(31.7180, 33.3482)">
<path transform="scale(0.0040, -0.0040)" d="M218 136c55 0 108 -28 108 -89c0 -71 -55 -121 -102 -149c-35 -21 -75 -34 -116 -34c-55 0 -108 28 -108 89c0 71 55 121 102 149c35 21 75 34 116 34z" fill="currentColor"/>
</g>
</a>
<g transform="translate(27.8920, 32.8482)">
<rect x="-0.0650" y="-2.5000" width="0.1300" height="3.3139" ry="0.0400" fill="currentColor"/>
</g>
<g transform="translate(28.4070, 33.3482)">
<path transform="scale(0.0040, -0.0040)" d="M0 0c0 31 25 56 56 56s56 -25 56 -56s-25 -56 -56 -56s-56 25 -56 56z" fill="currentColor"/>
</g>
<a style="color:inherit;" xlink:href="textedit://C:/Users/har1sf0x/Documents/GitHub/musicSchoolTampouras.github.io/sheets/ly/%ce%a0%ce%bf%ce%b4%ce%b1%cf%81%ce%ac%ce%ba%ce%b9_%ce%b2.ly:21:48:49">
<g transform="translate(27.3049, 29.2198)">
<line stroke-linejoin="round" stroke-linecap="round" stroke-width="0.1380" stroke="currentColor" x1="0" y1="0" x2="0" y2="-1.6000"/>
</g>
<g transform="translate(27.3049, 29.6698)">
<path transform="scale(0.0036, -0.0036)" d="M-103 250c5 0 10 -1 14 -5c40 -35 70 -79 89 -128c19 49 49 93 89 128c4 4 9 5 14 5c11 0 22 -10 22 -22c0 -6 -2 -12 -7 -16c-61 -54 -96 -131 -96 -212c0 -14 -11 -22 -22 -22s-22 8 -22 22c0 81 -35 158 -96 212c-5 4 -7 10 -7 16c0 12 11 22 22 22z" fill="currentColor"/>
</g>
</a>
<g transform="translate(36.0153, 32.8482)">
<rect x="-0.0650" y="0.1861" width="0.1300" height="3.1889" ry="0.0400" fill="currentColor"/>
</g>
<a style="color:inherit;" xlink:href="textedit://C:/Users/har1sf0x/Documents/GitHub/musicSchoolTampouras.github.io/sheets/ly/%ce%a0%ce%bf%ce%b4%ce%b1%cf%81%ce%ac%ce%ba%ce%b9_%ce%b2.ly:22:7:8">
<g transform="translate(40.5472, 29.2198)">
<line stroke-linejoin="round" stroke-linecap="round" stroke-width="0.1380" stroke="currentColor" x1="0" y1="0" x2="0" y2="-1.6000"/>
</g>
<g transform="translate(40.5472, 29.6698)">
<path transform="scale(0.0036, -0.0036)" d="M-103 250c5 0 10 -1 14 -5c40 -35 70 -79 89 -128c19 49 49 93 89 128c4 4 9 5 14 5c11 0 22 -10 22 -22c0 -6 -2 -12 -7 -16c-61 -54 -96 -131 -96 -212c0 -14 -11 -22 -22 -22s-22 8 -22 22c0 81 -35 158 -96 212c-5 4 -7 10 -7 16c0 12 11 22 22 22z" fill="currentColor"/>
</g>
</a>
<a style="color:inherit;" xlink:href="textedit://C:/Users/har1sf0x/Documents/GitHub/musicSchoolTampouras.github.io/sheets/ly/%ce%a0%ce%bf%ce%b4%ce%b1%cf%81%ce%ac%ce%ba%ce%b9_%ce%b2.ly:22:2:3">
<g transform="translate(39.8951, 33.8482)">
<path transform="scale(0.0040, -0.0040)" d="M218 136c55 0 108 -28 108 -89c0 -71 -55 -121 -102 -149c-35 -21 -75 -34 -116 -34c-55 0 -108 28 -108 89c0 71 55 121 102 149c35 21 75 34 116 34z" fill="currentColor"/>
</g>
</a>
<g transform="translate(36.0803, 36.1832)">
<path transform="scale(0.0040, -0.0040)" d="M0 0h-16v250h16v-250zM0 0v250c97 59 224 148 224 259c0 57 -15 112 -40 163c-3 16 10 27 23 27c7 0 15 -3 20 -11c25 -56 40 -117 40 -179c0 -203 -267 -306 -267 -509z" fill="currentColor"/>
</g>
<a style="color:inherit;" xlink:href="textedit://C:/Users/har1sf0x/Documents/GitHub/musicSchoolTampouras.github.io/sheets/ly/%ce%a0%ce%bf%ce%b4%ce%b1%cf%81%ce%ac%ce%ba%ce%b9_%ce%b2.ly:21:43:44">
<g transform="translate(26.6528, 33.8482)">
<path transform="scale(0.0040, -0.0040)" d="M218 136c55 0 108 -28 108 -89c0 -71 -55 -121 -102 -149c-35 -21 -75 -34 -116 -34c-55 0 -108 28 -108 89c0 71 55 121 102 149c35 21 75 34 116 34z" fill="currentColor"/>
</g>
</a>
<a style="color:inherit;" xlink:href="textedit://C:/Users/har1sf0x/Documents/GitHub/musicSchoolTampouras.github.io/sheets/ly/%ce%a0%ce%bf%ce%b4%ce%b1%cf%81%ce%ac%ce%ba%ce%b9_%ce%b2.ly:21:76:77">
<g transform="translate(35.9503, 32.8482)">
<path transform="scale(0.0040, -0.0040)" d="M218 136c55 0 108 -28 108 -89c0 -71 -55 -121 -102 -149c-35 -21 -75 -34 -116 -34c-55 0 -108 28 -108 89c0 71 55 121 102 149c35 21 75 34 116 34z" fill="currentColor"/>
</g>
</a>
<g transform="translate(32.9572, 32.8482)">
<rect x="-0.0650" y="-3.0000" width="0.1300" height="3.3139" ry="0.0400" fill="currentColor"/>
</g>
<a style="color:inherit;" xlink:href="textedit://C:/Users/har1sf0x/Documents/GitHub/musicSchoolTampouras.github.io/sheets/ly/%ce%a0%ce%bf%ce%b4%ce%b1%cf%81%ce%ac%ce%ba%ce%b9_%ce%b2.ly:21:63:64">
<g transform="scale(1.0000, -1.0000)">
<g transform="translate(32.3701, -27.5792)">
<line stroke-linejoin="round" stroke-linecap="round" stroke-width="0.1380" stroke="currentColor" x1="0" y1="0" x2="0" y2="-1.6000"/>
</g>
<g transform="translate(32.3701, -27.1292)">
<path transform="scale(0.0036, -0.0036)" d="M-103 250c5 0 10 -1 14 -5c40 -35 70 -79 89 -128c19 49 49 93 89 128c4 4 9 5 14 5c11 0 22 -10 22 -22c0 -6 -2 -12 -7 -16c-61 -54 -96 -131 -96 -212c0 -14 -11 -22 -22 -22s-22 8 -22 22c0 81 -35 158 -96 212c-5 4 -7 10 -7 16c0 12 11 22 22 22z" fill="currentColor"/>
</g>
</g>
<g transform="translate(32.3701, 27.6292)">
<path transform="scale(0.0040, -0.0040)" d="M-105 -250c-11 0 -20 9 -20 20c0 6 2 11 7 15c62 54 98 133 98 215c0 13 10 20 20 20s20 -7 20 -20c0 -82 36 -161 98 -215c5 -4 7 -9 7 -15c0 -11 -9 -20 -20 -20c-5 0 -9 2 -13 5c-41 36 -73 82 -92 133c-19 -51 -51 -97 -92 -133c-4 -3 -8 -5 -13 -5z" fill="currentColor"/>
</g>
<g transform="translate(32.3701, 28.1292)">
<path transform="scale(0.0040, -0.0040)" d="M-105 -250c-11 0 -20 9 -20 20c0 6 2 11 7 15c62 54 98 133 98 215c0 13 10 20 20 20s20 -7 20 -20c0 -82 36 -161 98 -215c5 -4 7 -9 7 -15c0 -11 -9 -20 -20 -20c-5 0 -9 2 -13 5c-41 36 -73 82 -92 133c-19 -51 -51 -97 -92 -133c-4 -3 -8 -5 -13 -5z" fill="currentColor"/>
</g>
</a>
<g transform="translate(14.6498, 32.8482)">
<rect x="-0.0650" y="-2.5000" width="0.1300" height="3.3139" ry="0.0400" fill="currentColor"/>
</g>
<g transform="translate(15.1648, 33.3482)">
<path transform="scale(0.0040, -0.0040)" d="M0 0c0 31 25 56 56 56s56 -25 56 -56s-25 -56 -56 -56s-56 25 -56 56z" fill="currentColor"/>
</g>
<a style="color:inherit;" xlink:href="textedit://C:/Users/har1sf0x/Documents/GitHub/musicSchoolTampouras.github.io/sheets/ly/%ce%a0%ce%bf%ce%b4%ce%b1%cf%81%ce%ac%ce%ba%ce%b9_%ce%b2.ly:21:7:8">
<g transform="translate(14.0627, 29.2198)">
<line stroke-linejoin="round" stroke-linecap="round" stroke-width="0.1380" stroke="currentColor" x1="0" y1="0" x2="0" y2="-1.6000"/>
</g>
<g transform="translate(14.0627, 29.6698)">
<path transform="scale(0.0036, -0.0036)" d="M-103 250c5 0 10 -1 14 -5c40 -35 70 -79 89 -128c19 49 49 93 89 128c4 4 9 5 14 5c11 0 22 -10 22 -22c0 -6 -2 -12 -7 -16c-61 -54 -96 -131 -96 -212c0 -14 -11 -22 -22 -22s-22 8 -22 22c0 81 -35 158 -96 212c-5 4 -7 10 -7 16c0 12 11 22 22 22z" fill="currentColor"/>
</g>
</a>
<a style="color:inherit;" xlink:href="textedit://C:/Users/har1sf0x/Documents/GitHub/musicSchoolTampouras.github.io/sheets/ly/%ce%a0%ce%bf%ce%b4%ce%b1%cf%81%ce%ac%ce%ba%ce%b9_%ce%b2.ly:21:2:3">
<g transform="translate(13.4106, 33.8482)">
<path transform="scale(0.0040, -0.0040)" d="M218 136c55 0 108 -28 108 -89c0 -71 -55 -121 -102 -149c-35 -21 -75 -34 -116 -34c-55 0 -108 28 -108 89c0 71 55 121 102 149c35 21 75 34 116 34z" fill="currentColor"/>
</g>
</a>
<a style="color:inherit;" xlink:href="textedit://C:/Users/har1sf0x/Documents/GitHub/musicSchoolTampouras.github.io/sheets/ly/%ce%a0%ce%bf%ce%b4%ce%b1%cf%81%ce%ac%ce%ba%ce%b9_%ce%b2.ly:20:18:19">
<g transform="translate(5.6906, 29.5507)">
<text font-family="serif" font-size="2.6163" text-anchor="start" fill="currentColor">
<tspan>B</tspan>
</text>
</g>
</a>
<g transform="translate(10.1106, 32.8482)">
<path transform="scale(0.0040, -0.0040)" d="M143 41c-1 33 -22 63 -53 63c-29 0 -43 -34 -43 -67c0 -59 48 -101 93 -139c3 22 4 44 4 66v11zM185 -138c0 -14 -10 -25 -23 -25c-21 0 -30 25 -45 38c-61 52 -147 89 -147 169c0 54 37 102 89 102c33 0 66 -13 91 -34l-7 345c8 5 18 8 27 8s19 -3 27 -8z" fill="currentColor"/>
</g>
<g transform="translate(6.4906, 33.8482)">
<path transform="scale(0.0040, -0.0040)" d="M266 -635h-6c-108 0 -195 88 -195 197c0 58 53 103 112 103c54 0 95 -47 95 -103c0 -52 -43 -95 -95 -95c-11 0 -21 2 -31 6c26 -39 68 -65 117 -65h4zM461 -203c68 24 113 95 113 164c0 90 -66 179 -173 190c24 -116 46 -231 60 -354zM74 28c0 -135 129 -247 264 -247
c28 0 55 2 82 6c-14 127 -37 245 -63 364c-79 -8 -124 -61 -124 -119c0 -44 25 -91 81 -123c5 -5 7 -10 7 -15c0 -11 -10 -22 -22 -22c-3 0 -6 1 -9 2c-80 43 -117 115 -117 185c0 88 58 174 160 197c-14 58 -29 117 -46 175c-107 -121 -213 -243 -213 -403zM335 -262
c-188 0 -333 172 -333 374c0 177 131 306 248 441c-19 62 -37 125 -45 190c-6 52 -7 104 -7 156c0 115 55 224 149 292c6 5 14 5 20 0c71 -84 133 -245 133 -358c0 -143 -86 -255 -180 -364c21 -68 39 -138 56 -207c4 0 9 1 13 1c155 0 256 -128 256 -261
c0 -76 -33 -154 -107 -210c-22 -17 -47 -28 -73 -36c3 -35 5 -70 5 -105c0 -19 -1 -39 -2 -58c-7 -119 -88 -225 -202 -228l1 43c93 2 153 92 159 191c1 18 2 37 2 55c0 31 -1 61 -4 92c-29 -5 -58 -8 -89 -8zM428 916c0 55 -4 79 -20 129c-99 -48 -162 -149 -162 -259
c0 -74 18 -133 36 -194c80 97 146 198 146 324z" fill="currentColor"/>
</g>
<g transform="translate(22.8381, 36.1832)">
<path transform="scale(0.0040, -0.0040)" d="M0 0h-16v250h16v-250zM0 0v250c97 59 224 148 224 259c0 57 -15 112 -40 163c-3 16 10 27 23 27c7 0 15 -3 20 -11c25 -56 40 -117 40 -179c0 -203 -267 -306 -267 -509z" fill="currentColor"/>
</g>
<g transform="translate(22.7731, 32.8482)">
<rect x="-0.0650" y="0.1861" width="0.1300" height="3.1889" ry="0.0400" fill="currentColor"/>
</g>
<a style="color:inherit;" xlink:href="textedit://C:/Users/har1sf0x/Documents/GitHub/musicSchoolTampouras.github.io/sheets/ly/%ce%a0%ce%bf%ce%b4%ce%b1%cf%81%ce%ac%ce%ba%ce%b9_%ce%b2.ly:21:35:36">
<g transform="translate(22.7081, 32.8482)">
<path transform="scale(0.0040, -0.0040)" d="M218 136c55 0 108 -28 108 -89c0 -71 -55 -121 -102 -149c-35 -21 -75 -34 -116 -34c-55 0 -108 28 -108 89c0 71 55 121 102 149c35 21 75 34 116 34z" fill="currentColor"/>
</g>
</a>
<g transform="translate(19.7149, 32.8482)">
<rect x="-0.0650" y="-3.0000" width="0.1300" height="3.3139" ry="0.0400" fill="currentColor"/>
</g>
<a style="color:inherit;" xlink:href="textedit://C:/Users/har1sf0x/Documents/GitHub/musicSchoolTampouras.github.io/sheets/ly/%ce%a0%ce%bf%ce%b4%ce%b1%cf%81%ce%ac%ce%ba%ce%b9_%ce%b2.ly:21:22:23">
<g transform="scale(1.0000, -1.0000)">
<g transform="translate(19.1278, -27.5792)">
<line stroke-linejoin="round" stroke-linecap="round" stroke-width="0.1380" stroke="currentColor" x1="0" y1="0" x2="0" y2="-1.6000"/>
</g>
<g transform="translate(19.1278, -27.1292)">
<path transform="scale(0.0036, -0.0036)" d="M-103 250c5 0 10 -1 14 -5c40 -35 70 -79 89 -128c19 49 49 93 89 128c4 4 9 5 14 5c11 0 22 -10 22 -22c0 -6 -2 -12 -7 -16c-61 -54 -96 -131 -96 -212c0 -14 -11 -22 -22 -22s-22 8 -22 22c0 81 -35 158 -96 212c-5 4 -7 10 -7 16c0 12 11 22 22 22z" fill="currentColor"/>
</g>
</g>
<g transform="translate(19.1278, 27.6292)">
<path transform="scale(0.0040, -0.0040)" d="M-105 -250c-11 0 -20 9 -20 20c0 6 2 11 7 15c62 54 98 133 98 215c0 13 10 20 20 20s20 -7 20 -20c0 -82 36 -161 98 -215c5 -4 7 -9 7 -15c0 -11 -9 -20 -20 -20c-5 0 -9 2 -13 5c-41 36 -73 82 -92 133c-19 -51 -51 -97 -92 -133c-4 -3 -8 -5 -13 -5z" fill="currentColor"/>
</g>
<g transform="translate(19.1278, 28.1292)">
<path transform="scale(0.0040, -0.0040)" d="M-105 -250c-11 0 -20 9 -20 20c0 6 2 11 7 15c62 54 98 133 98 215c0 13 10 20 20 20s20 -7 20 -20c0 -82 36 -161 98 -215c5 -4 7 -9 7 -15c0 -11 -9 -20 -20 -20c-5 0 -9 2 -13 5c-41 36 -73 82 -92 133c-19 -51 -51 -97 -92 -133c-4 -3 -8 -5 -13 -5z" fill="currentColor"/>
</g>
</a>
<a style="color:inherit;" xlink:href="textedit://C:/Users/har1sf0x/Documents/GitHub/musicSchoolTampouras.github.io/sheets/ly/%ce%a0%ce%bf%ce%b4%ce%b1%cf%81%ce%ac%ce%ba%ce%b9_%ce%b2.ly:21:18:19">
<g transform="translate(18.4757, 33.3482)">
<path transform="scale(0.0040, -0.0040)" d="M218 136c55 0 108 -28 108 -89c0 -71 -55 -121 -102 -149c-35 -21 -75 -34 -116 -34c-55 0 -108 28 -108 89c0 71 55 121 102 149c35 21 75 34 116 34z" fill="currentColor"/>
</g>
</a>
<a style="color:inherit;" xlink:href="textedit://C:/Users/har1sf0x/Documents/GitHub/musicSchoolTampouras.github.io/sheets/ly/%ce%a0%ce%bf%ce%b4%ce%b1%cf%81%ce%ac%ce%ba%ce%b9_%ce%b2.ly:22:48:49">
<g transform="translate(56.4685, 31.8482)">
<path transform="scale(0.0040, -0.0040)" d="M218 136c55 0 108 -28 108 -89c0 -71 -55 -121 -102 -149c-35 -21 -75 -34 -116 -34c-55 0 -108 28 -108 89c0 71 55 121 102 149c35 21 75 34 116 34z" fill="currentColor"/>
</g>
</a>
<a style="color:inherit;" xlink:href="textedit://C:/Users/har1sf0x/Documents/GitHub/musicSchoolTampouras.github.io/sheets/ly/%ce%a0%ce%bf%ce%b4%ce%b1%cf%81%ce%ac%ce%ba%ce%b9_%ce%b2.ly:22:51:52">
<g transform="scale(1.0000, -1.0000)">
<g transform="translate(57.1206, -28.5292)">
<line stroke-linejoin="round" stroke-linecap="round" stroke-width="0.1380" stroke="currentColor" x1="0" y1="0" x2="0" y2="-1.6000"/>
</g>
<g transform="translate(57.1206, -28.0792)">
<path transform="scale(0.0036, -0.0036)" d="M-103 250c5 0 10 -1 14 -5c40 -35 70 -79 89 -128c19 49 49 93 89 128c4 4 9 5 14 5c11 0 22 -10 22 -22c0 -6 -2 -12 -7 -16c-61 -54 -96 -131 -96 -212c0 -14 -11 -22 -22 -22s-22 8 -22 22c0 81 -35 158 -96 212c-5 4 -7 10 -7 16c0 12 11 22 22 22z" fill="currentColor"/>
</g>
</g>
</a>
<g transform="translate(51.4683, 32.8482)">
<rect x="-0.0650" y="-0.8139" width="0.1300" height="3.3139" ry="0.0400" fill="currentColor"/>
</g>
<g transform="translate(53.1575, 31.3482)">
<path transform="scale(0.0040, -0.0040)" d="M0 0c0 31 25 56 56 56s56 -25 56 -56s-25 -56 -56 -56s-56 25 -56 56z" fill="currentColor"/>
</g>
<a style="color:inherit;" xlink:href="textedit://C:/Users/har1sf0x/Documents/GitHub/musicSchoolTampouras.github.io/sheets/ly/%ce%a0%ce%bf%ce%b4%ce%b1%cf%81%ce%ac%ce%ba%ce%b9_%ce%b2.ly:22:37:38">
<g transform="translate(52.0554, 29.6698)">
<line stroke-linejoin="round" stroke-linecap="round" stroke-width="0.1380" stroke="currentColor" x1="0" y1="0" x2="0" y2="-1.6000"/>
</g>
<g transform="translate(52.0554, 30.1198)">
<path transform="scale(0.0036, -0.0036)" d="M-103 250c5 0 10 -1 14 -5c40 -35 70 -79 89 -128c19 49 49 93 89 128c4 4 9 5 14 5c11 0 22 -10 22 -22c0 -6 -2 -12 -7 -16c-61 -54 -96 -131 -96 -212c0 -14 -11 -22 -22 -22s-22 8 -22 22c0 81 -35 158 -96 212c-5 4 -7 10 -7 16c0 12 11 22 22 22z" fill="currentColor"/>
</g>
</a>
<g transform="translate(63.7575, 32.8482)">
<rect x="-0.0650" y="-2.5000" width="0.1300" height="3.3139" ry="0.0400" fill="currentColor"/>
</g>
<g transform="translate(64.2725, 33.3482)">
<path transform="scale(0.0040, -0.0040)" d="M0 0c0 31 25 56 56 56s56 -25 56 -56s-25 -56 -56 -56s-56 25 -56 56z" fill="currentColor"/>
</g>
<a style="color:inherit;" xlink:href="textedit://C:/Users/har1sf0x/Documents/GitHub/musicSchoolTampouras.github.io/sheets/ly/%ce%a0%ce%bf%ce%b4%ce%b1%cf%81%ce%ac%ce%ba%ce%b9_%ce%b2.ly:23:8:9">
<g transform="translate(63.1704, 29.2198)">
<line stroke-linejoin="round" stroke-linecap="round" stroke-width="0.1380" stroke="currentColor" x1="0" y1="0" x2="0" y2="-1.6000"/>
</g>
<g transform="translate(63.1704, 29.6698)">
<path transform="scale(0.0036, -0.0036)" d="M-103 250c5 0 10 -1 14 -5c40 -35 70 -79 89 -128c19 49 49 93 89 128c4 4 9 5 14 5c11 0 22 -10 22 -22c0 -6 -2 -12 -7 -16c-61 -54 -96 -131 -96 -212c0 -14 -11 -22 -22 -22s-22 8 -22 22c0 81 -35 158 -96 212c-5 4 -7 10 -7 16c0 12 11 22 22 22z" fill="currentColor"/>
</g>
</a>
<g transform="translate(41.1343, 32.8482)">
<rect x="-0.0650" y="-2.5000" width="0.1300" height="3.3139" ry="0.0400" fill="currentColor"/>
</g>
<a style="color:inherit;" xlink:href="textedit://C:/Users/har1sf0x/Documents/GitHub/musicSchoolTampouras.github.io/sheets/ly/%ce%a0%ce%bf%ce%b4%ce%b1%cf%81%ce%ac%ce%ba%ce%b9_%ce%b2.ly:23:2:3">
<g transform="translate(62.5183, 33.8482)">
<path transform="scale(0.0040, -0.0040)" d="M218 136c55 0 108 -28 108 -89c0 -71 -55 -121 -102 -149c-35 -21 -75 -34 -116 -34c-55 0 -108 28 -108 89c0 71 55 121 102 149c35 21 75 34 116 34z" fill="currentColor"/>
</g>
</a>
<g transform="translate(56.5335, 32.8482)">
<rect x="-0.0650" y="-0.8139" width="0.1300" height="3.3139" ry="0.0400" fill="currentColor"/>
</g>
<g transform="translate(58.2227, 31.3482)">
<path transform="scale(0.0040, -0.0040)" d="M0 0c0 31 25 56 56 56s56 -25 56 -56s-25 -56 -56 -56s-56 25 -56 56z" fill="currentColor"/>
</g>
<a style="color:inherit;" xlink:href="textedit://C:/Users/har1sf0x/Documents/GitHub/musicSchoolTampouras.github.io/sheets/ly/%ce%a0%ce%bf%ce%b4%ce%b1%cf%81%ce%ac%ce%ba%ce%b9_%ce%b2.ly:22:22:23">
<g transform="scale(1.0000, -1.0000)">
<g transform="translate(45.8449, -28.5292)">
<line stroke-linejoin="round" stroke-linecap="round" stroke-width="0.1380" stroke="currentColor" x1="0" y1="0" x2="0" y2="-1.6000"/>
</g>
<g transform="translate(45.8449, -28.0792)">
<path transform="scale(0.0036, -0.0036)" d="M-103 250c5 0 10 -1 14 -5c40 -35 70 -79 89 -128c19 49 49 93 89 128c4 4 9 5 14 5c11 0 22 -10 22 -22c0 -6 -2 -12 -7 -16c-61 -54 -96 -131 -96 -212c0 -14 -11 -22 -22 -22s-22 8 -22 22c0 81 -35 158 -96 212c-5 4 -7 10 -7 16c0 12 11 22 22 22z" fill="currentColor"/>
</g>
</g>
<g transform="translate(45.8449, 28.5792)">
<path transform="scale(0.0040, -0.0040)" d="M-105 -250c-11 0 -20 9 -20 20c0 6 2 11 7 15c62 54 98 133 98 215c0 13 10 20 20 20s20 -7 20 -20c0 -82 36 -161 98 -215c5 -4 7 -9 7 -15c0 -11 -9 -20 -20 -20c-5 0 -9 2 -13 5c-41 36 -73 82 -92 133c-19 -51 -51 -97 -92 -133c-4 -3 -8 -5 -13 -5z" fill="currentColor"/>
</g>
<g transform="translate(45.8449, 29.0792)">
<path transform="scale(0.0040, -0.0040)" d="M-105 -250c-11 0 -20 9 -20 20c0 6 2 11 7 15c62 54 98 133 98 215c0 13 10 20 20 20s20 -7 20 -20c0 -82 36 -161 98 -215c5 -4 7 -9 7 -15c0 -11 -9 -20 -20 -20c-5 0 -9 2 -13 5c-41 36 -73 82 -92 133c-19 -51 -51 -97 -92 -133c-4 -3 -8 -5 -13 -5z" fill="currentColor"/>
</g>
</a>
<a style="color:inherit;" xlink:href="textedit://C:/Users/har1sf0x/Documents/GitHub/musicSchoolTampouras.github.io/sheets/ly/%ce%a0%ce%bf%ce%b4%ce%b1%cf%81%ce%ac%ce%ba%ce%b9_%ce%b2.ly:22:18:19">
<g transform="translate(45.1928, 31.8482)">
<path transform="scale(0.0040, -0.0040)" d="M218 136c55 0 108 -28 108 -89c0 -71 -55 -121 -102 -149c-35 -21 -75 -34 -116 -34c-55 0 -108 28 -108 89c0 71 55 121 102 149c35 21 75 34 116 34z" fill="currentColor"/>
</g>
</a>
<g transform="translate(41.6493, 33.3482)">
<path transform="scale(0.0040, -0.0040)" d="M0 0c0 31 25 56 56 56s56 -25 56 -56s-25 -56 -56 -56s-56 25 -56 56z" fill="currentColor"/>
</g>
<g transform="translate(45.2578, 32.8482)">
<rect x="-0.0650" y="-0.8139" width="0.1300" height="3.3139" ry="0.0400" fill="currentColor"/>
</g>
<a style="color:inherit;" xlink:href="textedit://C:/Users/har1sf0x/Documents/GitHub/musicSchoolTampouras.github.io/sheets/ly/%ce%a0%ce%bf%ce%b4%ce%b1%cf%81%ce%ac%ce%ba%ce%b9_%ce%b2.ly:22:34:35">
<g transform="translate(51.4033, 31.8482)">
<path transform="scale(0.0040, -0.0040)" d="M218 136c55 0 108 -28 108 -89c0 -71 -55 -121 -102 -149c-35 -21 -75 -34 -116 -34c-55 0 -108 28 -108 89c0 71 55 121 102 149c35 21 75 34 116 34z" fill="currentColor"/>
</g>
</a>
<g transform="translate(46.9470, 31.3482)">
<path transform="scale(0.0040, -0.0040)" d="M0 0c0 31 25 56 56 56s56 -25 56 -56s-25 -56 -56 -56s-56 25 -56 56z" fill="currentColor"/>
</g>
<g transform="translate(54.0830, 43.7446)">
<text font-family="serif" font-size="2.2001" text-anchor="start" fill="currentColor">
<tspan>Χ. Κόχυλας</tspan>
</text>
</g>
<g transform="translate(30.6607, 47.2726)">
<a xlink:href="https://lilypond.org/">
<rect x="0.0000" y="-0.5280" width="58.1802" height="2.2001" fill="none" stroke="none" stroke-width="0.0"/>
</a>
</g>
<g transform="translate(30.6607, 47.2726)">
<text font-family="serif" font-size="2.2001" text-anchor="start" fill="currentColor">
<tspan>Music engraving by LilyPond 2.24.4—www.lilypond.org</tspan>
</text>
</g>
</svg>
