<svg xmlns="http://www.w3.org/2000/svg" xmlns:xlink="http://www.w3.org/1999/xlink" version="1.2" width="210.00mm" height="90.00mm" viewBox="0.0000 -0.0000 119.5016 51.2150">
<style type="text/css">
<![CDATA[
tspan { white-space: pre; }
]]>
</style>
<g transform="translate(47.9713, 6.6255)">
<text font-family="serif" font-weight="bold" font-size="3.4927" text-anchor="start" fill="currentColor">
<tspan>Ποδαράκι (β)</tspan>
</text>
</g>
<g transform="translate(55.5682, 10.1255)">
<text font-family="serif" font-weight="bold" font-size="2.4696" text-anchor="start" fill="currentColor">
<tspan>Θράκη</tspan>
</text>
</g>
<g transform="translate(5.6906, 21.3107)">
<line stroke-linejoin="round" stroke-linecap="round" stroke-width="0.1000" stroke="currentColor" x1="0.0500" y1="0" x2="108.0705" y2="0"/>
</g>
<g transform="translate(5.6906, 20.3107)">
<line stroke-linejoin="round" stroke-linecap="round" stroke-width="0.1000" stroke="currentColor" x1="0.0500" y1="0" x2="108.0705" y2="0"/>
</g>
<g transform="translate(5.6906, 19.3107)">
<line stroke-linejoin="round" stroke-linecap="round" stroke-width="0.1000" stroke="currentColor" x1="0.0500" y1="0" x2="108.0705" y2="0"/>
</g>
<g transform="translate(5.6906, 18.3107)">
<line stroke-linejoin="round" stroke-linecap="round" stroke-width="0.1000" stroke="currentColor" x1="0.0500" y1="0" x2="108.0705" y2="0"/>
</g>
<g transform="translate(5.6906, 17.3107)">
<line stroke-linejoin="round" stroke-linecap="round" stroke-width="0.1000" stroke="currentColor" x1="0.0500" y1="0" x2="108.0705" y2="0"/>
</g>
<g transform="translate(90.4596, 19.3107)">
<rect x="0.0000" y="-2.0000" width="0.1900" height="4.0000" ry="0.0000" fill="currentColor"/>
</g>
<g transform="translate(41.4494, 19.3107)">
<rect x="0.0000" y="-2.0000" width="0.1900" height="4.0000" ry="0.0000" fill="currentColor"/>
</g>
<g transform="translate(28.8795, 19.3107)">
<rect x="0.0000" y="-2.0000" width="0.1900" height="4.0000" ry="0.0000" fill="currentColor"/>
</g>
<g transform="translate(101.3225, 19.3107)">
<rect x="0.0000" y="-2.0000" width="0.1900" height="4.0000" ry="0.0000" fill="currentColor"/>
</g>
<g transform="translate(77.8897, 19.3107)">
<rect x="0.0000" y="-2.0000" width="0.1900" height="4.0000" ry="0.0000" fill="currentColor"/>
</g>
<g transform="translate(52.5489, 19.3107)">
<rect x="0.0000" y="-2.0000" width="0.1900" height="4.0000" ry="0.0000" fill="currentColor"/>
</g>
<g transform="translate(111.9710, 18.8107)">
<path transform="scale(0.0040, -0.0040)" d="M0 0c0 31 25 56 56 56s56 -25 56 -56s-25 -56 -56 -56s-56 25 -56 56z" fill="currentColor"/>
</g>
<g transform="translate(111.9710, 19.8107)">
<path transform="scale(0.0040, -0.0040)" d="M0 0c0 31 25 56 56 56s56 -25 56 -56s-25 -56 -56 -56s-56 25 -56 56z" fill="currentColor"/>
</g>
<g transform="translate(113.2110, 19.3107)">
<rect x="0.0000" y="-2.0000" width="0.6000" height="4.0000" ry="0.0000" fill="currentColor"/>
</g>
<g transform="translate(112.7210, 19.3107)">
<rect x="0.0000" y="-2.0000" width="0.1900" height="4.0000" ry="0.0000" fill="currentColor"/>
</g>
<g transform="translate(5.6906, 22.3107)">
<rect x="101.2004" y="-0.1000" width="1.9563" height="0.2000" ry="0.1000" fill="currentColor"/>
</g>
<g transform="translate(5.6906, 23.3107)">
<rect x="101.2004" y="-0.1000" width="1.9563" height="0.2000" ry="0.1000" fill="currentColor"/>
</g>
<g transform="translate(5.6906, 22.3107)">
<rect x="96.4463" y="-0.1000" width="1.9563" height="0.2000" ry="0.1000" fill="currentColor"/>
</g>
<g transform="translate(5.6906, 23.3107)">
<rect x="96.4463" y="-0.1000" width="1.9563" height="0.2000" ry="0.1000" fill="currentColor"/>
</g>
<g transform="translate(5.6906, 22.3107)">
<rect x="90.3375" y="-0.1000" width="1.9563" height="0.2000" ry="0.1000" fill="currentColor"/>
</g>
<g transform="translate(5.6906, 23.3107)">
<rect x="90.3375" y="-0.1000" width="1.9563" height="0.2000" ry="0.1000" fill="currentColor"/>
</g>
<g transform="translate(5.6906, 22.3107)">
<rect x="85.5835" y="-0.1000" width="1.9563" height="0.2000" ry="0.1000" fill="currentColor"/>
</g>
<g transform="translate(5.6906, 22.3107)">
<rect x="36.5733" y="-0.1000" width="1.9563" height="0.2000" ry="0.1000" fill="currentColor"/>
</g>
<g transform="translate(63.3985, 19.3107)">
<rect x="0.0000" y="-2.0000" width="0.1900" height="4.0000" ry="0.0000" fill="currentColor"/>
</g>
<a style="color:inherit;" xlink:href="textedit://C:/Users/har1sf0x/Documents/GitHub/musicSchoolTampouras.github.io/sheets/ly/%ce%a0%ce%bf%ce%b4%ce%b1%cf%81%ce%ac%ce%ba%ce%b9_%ce%b2.ly:17:74:75">
<g transform="translate(83.7842, 20.8107)">
<path transform="scale(0.0040, -0.0040)" d="M218 136c55 0 108 -28 108 -89c0 -71 -55 -121 -102 -149c-35 -21 -75 -34 -116 -34c-55 0 -108 28 -108 89c0 71 55 121 102 149c35 21 75 34 116 34z" fill="currentColor"/>
</g>
</a>
<a style="color:inherit;" xlink:href="textedit://C:/Users/har1sf0x/Documents/GitHub/musicSchoolTampouras.github.io/sheets/ly/%ce%a0%ce%bf%ce%b4%ce%b1%cf%81%ce%ac%ce%ba%ce%b9_%ce%b2.ly:17:78:79">
<g transform="translate(84.4363, 16.1323)">
<line stroke-linejoin="round" stroke-linecap="round" stroke-width="0.1380" stroke="currentColor" x1="0" y1="0" x2="0" y2="-1.6000"/>
</g>
<g transform="translate(84.4363, 16.5823)">
<path transform="scale(0.0036, -0.0036)" d="M-103 250c5 0 10 -1 14 -5c40 -35 70 -79 89 -128c19 49 49 93 89 128c4 4 9 5 14 5c11 0 22 -10 22 -22c0 -6 -2 -12 -7 -16c-61 -54 -96 -131 -96 -212c0 -14 -11 -22 -22 -22s-22 8 -22 22c0 81 -35 158 -96 212c-5 4 -7 10 -7 16c0 12 11 22 22 22z" fill="currentColor"/>
</g>
</a>
<g transform="translate(80.2694, 19.3107)">
<rect x="-0.0650" y="-2.5000" width="0.1300" height="3.3139" ry="0.0400" fill="currentColor"/>
</g>
<g transform="translate(80.7844, 19.8107)">
<path transform="scale(0.0040, -0.0040)" d="M0 0c0 31 25 56 56 56s56 -25 56 -56s-25 -56 -56 -56s-56 25 -56 56z" fill="currentColor"/>
</g>
<g transform="translate(88.9968, 19.3107)">
<rect x="-0.0650" y="-1.5000" width="0.1300" height="3.3139" ry="0.0400" fill="currentColor"/>
</g>
<g transform="translate(65.7782, 19.3107)">
<rect x="-0.0650" y="-3.0000" width="0.1300" height="3.3139" ry="0.0400" fill="currentColor"/>
</g>
<a style="color:inherit;" xlink:href="textedit://C:/Users/har1sf0x/Documents/GitHub/musicSchoolTampouras.github.io/sheets/ly/%ce%a0%ce%bf%ce%b4%ce%b1%cf%81%ce%ac%ce%ba%ce%b9_%ce%b2.ly:18:7:8">
<g transform="translate(92.2522, 16.1323)">
<line stroke-linejoin="round" stroke-linecap="round" stroke-width="0.1380" stroke="currentColor" x1="0" y1="0" x2="0" y2="-1.6000"/>
</g>
<g transform="translate(92.2522, 16.5823)">
<path transform="scale(0.0036, -0.0036)" d="M-103 250c5 0 10 -1 14 -5c40 -35 70 -79 89 -128c19 49 49 93 89 128c4 4 9 5 14 5c11 0 22 -10 22 -22c0 -6 -2 -12 -7 -16c-61 -54 -96 -131 -96 -212c0 -14 -11 -22 -22 -22s-22 8 -22 22c0 81 -35 158 -96 212c-5 4 -7 10 -7 16c0 12 11 22 22 22z" fill="currentColor"/>
</g>
</a>
<a style="color:inherit;" xlink:href="textedit://C:/Users/har1sf0x/Documents/GitHub/musicSchoolTampouras.github.io/sheets/ly/%ce%a0%ce%bf%ce%b4%ce%b1%cf%81%ce%ac%ce%ba%ce%b9_%ce%b2.ly:18:2:3">
<g transform="translate(91.6001, 22.3107)">
<path transform="scale(0.0040, -0.0040)" d="M218 136c55 0 108 -28 108 -89c0 -71 -55 -121 -102 -149c-35 -21 -75 -34 -116 -34c-55 0 -108 28 -108 89c0 71 55 121 102 149c35 21 75 34 116 34z" fill="currentColor"/>
</g>
</a>
<g transform="translate(89.0618, 17.8507)">
<path transform="scale(0.0040, -0.0040)" d="M0 0v-250h-16v250h16zM0 0c0 -197 207 -336 207 -533c0 -71 -15 -141 -41 -207c-5 -8 -13 -12 -20 -12c-13 0 -26 11 -23 27c26 61 42 126 42 192c0 103 -94 208 -165 283v250z" fill="currentColor"/>
</g>
<a style="color:inherit;" xlink:href="textedit://C:/Users/har1sf0x/Documents/GitHub/musicSchoolTampouras.github.io/sheets/ly/%ce%a0%ce%bf%ce%b4%ce%b1%cf%81%ce%ac%ce%ba%ce%b9_%ce%b2.ly:17:95:96">
<g transform="scale(1.0000, -1.0000)">
<g transform="translate(88.4097, -14.9917)">
<line stroke-linejoin="round" stroke-linecap="round" stroke-width="0.1380" stroke="currentColor" x1="0" y1="0" x2="0" y2="-1.6000"/>
</g>
<g transform="translate(88.4097, -14.5417)">
<path transform="scale(0.0036, -0.0036)" d="M-103 250c5 0 10 -1 14 -5c40 -35 70 -79 89 -128c19 49 49 93 89 128c4 4 9 5 14 5c11 0 22 -10 22 -22c0 -6 -2 -12 -7 -16c-61 -54 -96 -131 -96 -212c0 -14 -11 -22 -22 -22s-22 8 -22 22c0 81 -35 158 -96 212c-5 4 -7 10 -7 16c0 12 11 22 22 22z" fill="currentColor"/>
</g>
</g>
</a>
<a style="color:inherit;" xlink:href="textedit://C:/Users/har1sf0x/Documents/GitHub/musicSchoolTampouras.github.io/sheets/ly/%ce%a0%ce%bf%ce%b4%ce%b1%cf%81%ce%ac%ce%ba%ce%b9_%ce%b2.ly:17:89:90">
<g transform="translate(87.7576, 21.3107)">
<path transform="scale(0.0040, -0.0040)" d="M218 136c55 0 108 -28 108 -89c0 -71 -55 -121 -102 -149c-35 -21 -75 -34 -116 -34c-55 0 -108 28 -108 89c0 71 55 121 102 149c35 21 75 34 116 34z" fill="currentColor"/>
</g>
</a>
<g transform="translate(85.0235, 19.3107)">
<rect x="-0.0650" y="-2.0000" width="0.1300" height="3.3139" ry="0.0400" fill="currentColor"/>
</g>
<a style="color:inherit;" xlink:href="textedit://C:/Users/har1sf0x/Documents/GitHub/musicSchoolTampouras.github.io/sheets/ly/%ce%a0%ce%bf%ce%b4%ce%b1%cf%81%ce%ac%ce%ba%ce%b9_%ce%b2.ly:17:30:31">
<g transform="translate(71.2143, 20.3107)">
<path transform="scale(0.0040, -0.0040)" d="M218 136c55 0 108 -28 108 -89c0 -71 -55 -121 -102 -149c-35 -21 -75 -34 -116 -34c-55 0 -108 28 -108 89c0 71 55 121 102 149c35 21 75 34 116 34z" fill="currentColor"/>
</g>
</a>
<g transform="translate(69.8165, 16.8507)">
<path transform="scale(0.0040, -0.0040)" d="M0 0v-250h-16v250h16zM0 0c0 -197 207 -336 207 -533c0 -71 -15 -141 -41 -207c-5 -8 -13 -12 -20 -12c-13 0 -26 11 -23 27c26 61 42 126 42 192c0 103 -94 208 -165 283v250z" fill="currentColor"/>
</g>
<g transform="translate(69.7515, 19.3107)">
<rect x="-0.0650" y="-2.5000" width="0.1300" height="3.3139" ry="0.0400" fill="currentColor"/>
</g>
<a style="color:inherit;" xlink:href="textedit://C:/Users/har1sf0x/Documents/GitHub/musicSchoolTampouras.github.io/sheets/ly/%ce%a0%ce%bf%ce%b4%ce%b1%cf%81%ce%ac%ce%ba%ce%b9_%ce%b2.ly:17:21:22">
<g transform="scale(1.0000, -1.0000)">
<g transform="translate(69.1644, -14.5417)">
<line stroke-linejoin="round" stroke-linecap="round" stroke-width="0.1380" stroke="currentColor" x1="0" y1="0" x2="0" y2="-1.6000"/>
</g>
<g transform="translate(69.1644, -14.0917)">
<path transform="scale(0.0036, -0.0036)" d="M-103 250c5 0 10 -1 14 -5c40 -35 70 -79 89 -128c19 49 49 93 89 128c4 4 9 5 14 5c11 0 22 -10 22 -22c0 -6 -2 -12 -7 -16c-61 -54 -96 -131 -96 -212c0 -14 -11 -22 -22 -22s-22 8 -22 22c0 81 -35 158 -96 212c-5 4 -7 10 -7 16c0 12 11 22 22 22z" fill="currentColor"/>
</g>
</g>
</a>
<a style="color:inherit;" xlink:href="textedit://C:/Users/har1sf0x/Documents/GitHub/musicSchoolTampouras.github.io/sheets/ly/%ce%a0%ce%bf%ce%b4%ce%b1%cf%81%ce%ac%ce%ba%ce%b9_%ce%b2.ly:17:34:35">
<g transform="translate(71.8665, 15.6823)">
<line stroke-linejoin="round" stroke-linecap="round" stroke-width="0.1380" stroke="currentColor" x1="0" y1="0" x2="0" y2="-1.6000"/>
</g>
<g transform="translate(71.8665, 16.1323)">
<path transform="scale(0.0036, -0.0036)" d="M-103 250c5 0 10 -1 14 -5c40 -35 70 -79 89 -128c19 49 49 93 89 128c4 4 9 5 14 5c11 0 22 -10 22 -22c0 -6 -2 -12 -7 -16c-61 -54 -96 -131 -96 -212c0 -14 -11 -22 -22 -22s-22 8 -22 22c0 81 -35 158 -96 212c-5 4 -7 10 -7 16c0 12 11 22 22 22z" fill="currentColor"/>
</g>
</a>
<a style="color:inherit;" xlink:href="textedit://C:/Users/har1sf0x/Documents/GitHub/musicSchoolTampouras.github.io/sheets/ly/%ce%a0%ce%bf%ce%b4%ce%b1%cf%81%ce%ac%ce%ba%ce%b9_%ce%b2.ly:17:17:18">
<g transform="translate(68.5123, 20.3107)">
<path transform="scale(0.0040, -0.0040)" d="M218 136c55 0 108 -28 108 -89c0 -71 -55 -121 -102 -149c-35 -21 -75 -34 -116 -34c-55 0 -108 28 -108 89c0 71 55 121 102 149c35 21 75 34 116 34z" fill="currentColor"/>
</g>
</a>
<g transform="translate(76.4269, 19.3107)">
<rect x="-0.0650" y="-3.0000" width="0.1300" height="3.3139" ry="0.0400" fill="currentColor"/>
</g>
<a style="color:inherit;" xlink:href="textedit://C:/Users/har1sf0x/Documents/GitHub/musicSchoolTampouras.github.io/sheets/ly/%ce%a0%ce%bf%ce%b4%ce%b1%cf%81%ce%ac%ce%ba%ce%b9_%ce%b2.ly:17:63:64">
<g transform="translate(79.6823, 15.6823)">
<line stroke-linejoin="round" stroke-linecap="round" stroke-width="0.1380" stroke="currentColor" x1="0" y1="0" x2="0" y2="-1.6000"/>
</g>
<g transform="translate(79.6823, 16.1323)">
<path transform="scale(0.0036, -0.0036)" d="M-103 250c5 0 10 -1 14 -5c40 -35 70 -79 89 -128c19 49 49 93 89 128c4 4 9 5 14 5c11 0 22 -10 22 -22c0 -6 -2 -12 -7 -16c-61 -54 -96 -131 -96 -212c0 -14 -11 -22 -22 -22s-22 8 -22 22c0 81 -35 158 -96 212c-5 4 -7 10 -7 16c0 12 11 22 22 22z" fill="currentColor"/>
</g>
</a>
<a style="color:inherit;" xlink:href="textedit://C:/Users/har1sf0x/Documents/GitHub/musicSchoolTampouras.github.io/sheets/ly/%ce%a0%ce%bf%ce%b4%ce%b1%cf%81%ce%ac%ce%ba%ce%b9_%ce%b2.ly:17:58:59">
<g transform="translate(79.0302, 20.3107)">
<path transform="scale(0.0040, -0.0040)" d="M218 136c55 0 108 -28 108 -89c0 -71 -55 -121 -102 -149c-35 -21 -75 -34 -116 -34c-55 0 -108 28 -108 89c0 71 55 121 102 149c35 21 75 34 116 34z" fill="currentColor"/>
</g>
</a>
<g transform="translate(76.4919, 16.3507)">
<path transform="scale(0.0040, -0.0040)" d="M0 0v-250h-16v250h16zM0 0c0 -197 207 -336 207 -533c0 -71 -15 -141 -41 -207c-5 -8 -13 -12 -20 -12c-13 0 -26 11 -23 27c26 61 42 126 42 192c0 103 -94 208 -165 283v250z" fill="currentColor"/>
</g>
<a style="color:inherit;" xlink:href="textedit://C:/Users/har1sf0x/Documents/GitHub/musicSchoolTampouras.github.io/sheets/ly/%ce%a0%ce%bf%ce%b4%ce%b1%cf%81%ce%ac%ce%ba%ce%b9_%ce%b2.ly:17:49:50">
<g transform="scale(1.0000, -1.0000)">
<g transform="translate(75.8398, -14.0417)">
<line stroke-linejoin="round" stroke-linecap="round" stroke-width="0.1380" stroke="currentColor" x1="0" y1="0" x2="0" y2="-1.6000"/>
</g>
<g transform="translate(75.8398, -13.5917)">
<path transform="scale(0.0036, -0.0036)" d="M-103 250c5 0 10 -1 14 -5c40 -35 70 -79 89 -128c19 49 49 93 89 128c4 4 9 5 14 5c11 0 22 -10 22 -22c0 -6 -2 -12 -7 -16c-61 -54 -96 -131 -96 -212c0 -14 -11 -22 -22 -22s-22 8 -22 22c0 81 -35 158 -96 212c-5 4 -7 10 -7 16c0 12 11 22 22 22z" fill="currentColor"/>
</g>
</g>
</a>
<a style="color:inherit;" xlink:href="textedit://C:/Users/har1sf0x/Documents/GitHub/musicSchoolTampouras.github.io/sheets/ly/%ce%a0%ce%bf%ce%b4%ce%b1%cf%81%ce%ac%ce%ba%ce%b9_%ce%b2.ly:17:45:46">
<g transform="translate(75.1877, 19.8107)">
<path transform="scale(0.0040, -0.0040)" d="M218 136c55 0 108 -28 108 -89c0 -71 -55 -121 -102 -149c-35 -21 -75 -34 -116 -34c-55 0 -108 28 -108 89c0 71 55 121 102 149c35 21 75 34 116 34z" fill="currentColor"/>
</g>
</a>
<g transform="translate(72.4536, 19.3107)">
<rect x="-0.0650" y="-2.5000" width="0.1300" height="3.3139" ry="0.0400" fill="currentColor"/>
</g>
<g color="rgb(50.0000%, 50.0000%, 50.0000%)">
<a style="color:inherit;" xlink:href="textedit://C:/Users/har1sf0x/Documents/GitHub/musicSchoolTampouras.github.io/sheets/ly/%ce%a0%ce%bf%ce%b4%ce%b1%cf%81%ce%ac%ce%ba%ce%b9_%ce%b2.ly:18:65:66">
<g transform="translate(108.4562, 21.8107)">
<path transform="scale(0.0040, -0.0040)" d="M218 136c55 0 108 -28 108 -89c0 -71 -55 -121 -102 -149c-35 -21 -75 -34 -116 -34c-55 0 -108 28 -108 89c0 71 55 121 102 149c35 21 75 34 116 34z" fill="currentColor"/>
</g>
</a>
</g>
<g color="rgb(50.0000%, 50.0000%, 50.0000%)">
<a style="color:inherit;" xlink:href="textedit://C:/Users/har1sf0x/Documents/GitHub/musicSchoolTampouras.github.io/sheets/ly/%ce%a0%ce%bf%ce%b4%ce%b1%cf%81%ce%ac%ce%ba%ce%b9_%ce%b2.ly:18:65:66">
<g transform="translate(107.2170, 23.3107)">
<path transform="scale(0.0040, -0.0040)" d="M218 136c55 0 108 -28 108 -89c0 -71 -55 -121 -102 -149c-35 -21 -75 -34 -116 -34c-55 0 -108 28 -108 89c0 71 55 121 102 149c35 21 75 34 116 34z" fill="currentColor"/>
</g>
</a>
</g>
<a style="color:inherit;" xlink:href="textedit://C:/Users/har1sf0x/Documents/GitHub/musicSchoolTampouras.github.io/sheets/ly/%ce%a0%ce%bf%ce%b4%ce%b1%cf%81%ce%ac%ce%ba%ce%b9_%ce%b2.ly:18:65:66">
<g transform="translate(107.2170, 21.8107)">
<path transform="scale(0.0040, -0.0040)" d="M218 136c55 0 108 -28 108 -89c0 -71 -55 -121 -102 -149c-35 -21 -75 -34 -116 -34c-55 0 -108 28 -108 89c0 71 55 121 102 149c35 21 75 34 116 34z" fill="currentColor"/>
</g>
</a>
<g transform="translate(105.4564, 21.8107)">
<path transform="scale(0.0040, -0.0040)" d="M0 0c0 31 25 56 56 56s56 -25 56 -56s-25 -56 -56 -56s-56 25 -56 56z" fill="currentColor"/>
</g>
<g transform="translate(105.4564, 22.8107)">
<path transform="scale(0.0040, -0.0040)" d="M0 0c0 31 25 56 56 56s56 -25 56 -56s-25 -56 -56 -56s-56 25 -56 56z" fill="currentColor"/>
</g>
<g transform="translate(103.7021, 19.3107)">
<rect x="-0.0650" y="-1.0000" width="0.1300" height="4.8139" ry="0.0400" fill="currentColor"/>
</g>
<g transform="translate(105.4564, 20.8107)">
<path transform="scale(0.0040, -0.0040)" d="M0 0c0 31 25 56 56 56s56 -25 56 -56s-25 -56 -56 -56s-56 25 -56 56z" fill="currentColor"/>
</g>
<g transform="translate(110.2104, 21.8107)">
<path transform="scale(0.0040, -0.0040)" d="M0 0c0 31 25 56 56 56s56 -25 56 -56s-25 -56 -56 -56s-56 25 -56 56z" fill="currentColor"/>
</g>
<g transform="translate(110.2104, 22.8107)">
<path transform="scale(0.0040, -0.0040)" d="M0 0c0 31 25 56 56 56s56 -25 56 -56s-25 -56 -56 -56s-56 25 -56 56z" fill="currentColor"/>
</g>
<g transform="translate(108.4562, 19.3107)">
<rect x="-0.0650" y="-1.0000" width="0.1300" height="4.8139" ry="0.0400" fill="currentColor"/>
</g>
<g transform="translate(110.2104, 20.8107)">
<path transform="scale(0.0040, -0.0040)" d="M0 0c0 31 25 56 56 56s56 -25 56 -56s-25 -56 -56 -56s-56 25 -56 56z" fill="currentColor"/>
</g>
<a style="color:inherit;" xlink:href="textedit://C:/Users/har1sf0x/Documents/GitHub/musicSchoolTampouras.github.io/sheets/ly/%ce%a0%ce%bf%ce%b4%ce%b1%cf%81%ce%ac%ce%ba%ce%b9_%ce%b2.ly:18:77:78">
<g transform="scale(1.0000, -1.0000)">
<g transform="translate(107.8691, -14.9917)">
<line stroke-linejoin="round" stroke-linecap="round" stroke-width="0.1380" stroke="currentColor" x1="0" y1="0" x2="0" y2="-1.6000"/>
</g>
<g transform="translate(107.8691, -14.5417)">
<path transform="scale(0.0036, -0.0036)" d="M-103 250c5 0 10 -1 14 -5c40 -35 70 -79 89 -128c19 49 49 93 89 128c4 4 9 5 14 5c11 0 22 -10 22 -22c0 -6 -2 -12 -7 -16c-61 -54 -96 -131 -96 -212c0 -14 -11 -22 -22 -22s-22 8 -22 22c0 81 -35 158 -96 212c-5 4 -7 10 -7 16c0 12 11 22 22 22z" fill="currentColor"/>
</g>
</g>
</a>
<g color="rgb(50.0000%, 50.0000%, 50.0000%)">
<a style="color:inherit;" xlink:href="textedit://C:/Users/har1sf0x/Documents/GitHub/musicSchoolTampouras.github.io/sheets/ly/%ce%a0%ce%bf%ce%b4%ce%b1%cf%81%ce%ac%ce%ba%ce%b9_%ce%b2.ly:18:18:19">
<g transform="translate(97.5934, 21.8107)">
<path transform="scale(0.0040, -0.0040)" d="M218 136c55 0 108 -28 108 -89c0 -71 -55 -121 -102 -149c-35 -21 -75 -34 -116 -34c-55 0 -108 28 -108 89c0 71 55 121 102 149c35 21 75 34 116 34z" fill="currentColor"/>
</g>
</a>
</g>
<g color="rgb(50.0000%, 50.0000%, 50.0000%)">
<a style="color:inherit;" xlink:href="textedit://C:/Users/har1sf0x/Documents/GitHub/musicSchoolTampouras.github.io/sheets/ly/%ce%a0%ce%bf%ce%b4%ce%b1%cf%81%ce%ac%ce%ba%ce%b9_%ce%b2.ly:18:18:19">
<g transform="translate(96.3541, 23.3107)">
<path transform="scale(0.0040, -0.0040)" d="M218 136c55 0 108 -28 108 -89c0 -71 -55 -121 -102 -149c-35 -21 -75 -34 -116 -34c-55 0 -108 28 -108 89c0 71 55 121 102 149c35 21 75 34 116 34z" fill="currentColor"/>
</g>
</a>
</g>
<a style="color:inherit;" xlink:href="textedit://C:/Users/har1sf0x/Documents/GitHub/musicSchoolTampouras.github.io/sheets/ly/%ce%a0%ce%bf%ce%b4%ce%b1%cf%81%ce%ac%ce%ba%ce%b9_%ce%b2.ly:18:18:19">
<g transform="translate(96.3541, 21.8107)">
<path transform="scale(0.0040, -0.0040)" d="M218 136c55 0 108 -28 108 -89c0 -71 -55 -121 -102 -149c-35 -21 -75 -34 -116 -34c-55 0 -108 28 -108 89c0 71 55 121 102 149c35 21 75 34 116 34z" fill="currentColor"/>
</g>
</a>
<a style="color:inherit;" xlink:href="textedit://C:/Users/har1sf0x/Documents/GitHub/musicSchoolTampouras.github.io/sheets/ly/%ce%a0%ce%bf%ce%b4%ce%b1%cf%81%ce%ac%ce%ba%ce%b9_%ce%b2.ly:18:30:31">
<g transform="scale(1.0000, -1.0000)">
<g transform="translate(97.0062, -14.9917)">
<line stroke-linejoin="round" stroke-linecap="round" stroke-width="0.1380" stroke="currentColor" x1="0" y1="0" x2="0" y2="-1.6000"/>
</g>
<g transform="translate(97.0062, -14.5417)">
<path transform="scale(0.0036, -0.0036)" d="M-103 250c5 0 10 -1 14 -5c40 -35 70 -79 89 -128c19 49 49 93 89 128c4 4 9 5 14 5c11 0 22 -10 22 -22c0 -6 -2 -12 -7 -16c-61 -54 -96 -131 -96 -212c0 -14 -11 -22 -22 -22s-22 8 -22 22c0 81 -35 158 -96 212c-5 4 -7 10 -7 16c0 12 11 22 22 22z" fill="currentColor"/>
</g>
</g>
<g transform="translate(97.0062, 15.0417)">
<path transform="scale(0.0040, -0.0040)" d="M-105 -250c-11 0 -20 9 -20 20c0 6 2 11 7 15c62 54 98 133 98 215c0 13 10 20 20 20s20 -7 20 -20c0 -82 36 -161 98 -215c5 -4 7 -9 7 -15c0 -11 -9 -20 -20 -20c-5 0 -9 2 -13 5c-41 36 -73 82 -92 133c-19 -51 -51 -97 -92 -133c-4 -3 -8 -5 -13 -5z" fill="currentColor"/>
</g>
<g transform="translate(97.0062, 15.5417)">
<path transform="scale(0.0040, -0.0040)" d="M-105 -250c-11 0 -20 9 -20 20c0 6 2 11 7 15c62 54 98 133 98 215c0 13 10 20 20 20s20 -7 20 -20c0 -82 36 -161 98 -215c5 -4 7 -9 7 -15c0 -11 -9 -20 -20 -20c-5 0 -9 2 -13 5c-41 36 -73 82 -92 133c-19 -51 -51 -97 -92 -133c-4 -3 -8 -5 -13 -5z" fill="currentColor"/>
</g>
</a>
<g transform="translate(92.8393, 19.3107)">
<rect x="-0.0650" y="-0.5000" width="0.1300" height="3.3139" ry="0.0400" fill="currentColor"/>
</g>
<g transform="translate(93.3543, 21.8107)">
<path transform="scale(0.0040, -0.0040)" d="M0 0c0 31 25 56 56 56s56 -25 56 -56s-25 -56 -56 -56s-56 25 -56 56z" fill="currentColor"/>
</g>
<a style="color:inherit;" xlink:href="textedit://C:/Users/har1sf0x/Documents/GitHub/musicSchoolTampouras.github.io/sheets/ly/%ce%a0%ce%bf%ce%b4%ce%b1%cf%81%ce%ac%ce%ba%ce%b9_%ce%b2.ly:18:54:55">
<g transform="translate(103.1150, 16.1323)">
<line stroke-linejoin="round" stroke-linecap="round" stroke-width="0.1380" stroke="currentColor" x1="0" y1="0" x2="0" y2="-1.6000"/>
</g>
<g transform="translate(103.1150, 16.5823)">
<path transform="scale(0.0036, -0.0036)" d="M-103 250c5 0 10 -1 14 -5c40 -35 70 -79 89 -128c19 49 49 93 89 128c4 4 9 5 14 5c11 0 22 -10 22 -22c0 -6 -2 -12 -7 -16c-61 -54 -96 -131 -96 -212c0 -14 -11 -22 -22 -22s-22 8 -22 22c0 81 -35 158 -96 212c-5 4 -7 10 -7 16c0 12 11 22 22 22z" fill="currentColor"/>
</g>
</a>
<g color="rgb(50.0000%, 50.0000%, 50.0000%)">
<a style="color:inherit;" xlink:href="textedit://C:/Users/har1sf0x/Documents/GitHub/musicSchoolTampouras.github.io/sheets/ly/%ce%a0%ce%bf%ce%b4%ce%b1%cf%81%ce%ac%ce%ba%ce%b9_%ce%b2.ly:18:42:43">
<g transform="translate(103.7021, 21.8107)">
<path transform="scale(0.0040, -0.0040)" d="M218 136c55 0 108 -28 108 -89c0 -71 -55 -121 -102 -149c-35 -21 -75 -34 -116 -34c-55 0 -108 28 -108 89c0 71 55 121 102 149c35 21 75 34 116 34z" fill="currentColor"/>
</g>
</a>
</g>
<g color="rgb(50.0000%, 50.0000%, 50.0000%)">
<a style="color:inherit;" xlink:href="textedit://C:/Users/har1sf0x/Documents/GitHub/musicSchoolTampouras.github.io/sheets/ly/%ce%a0%ce%bf%ce%b4%ce%b1%cf%81%ce%ac%ce%ba%ce%b9_%ce%b2.ly:18:42:43">
<g transform="translate(102.4629, 23.3107)">
<path transform="scale(0.0040, -0.0040)" d="M218 136c55 0 108 -28 108 -89c0 -71 -55 -121 -102 -149c-35 -21 -75 -34 -116 -34c-55 0 -108 28 -108 89c0 71 55 121 102 149c35 21 75 34 116 34z" fill="currentColor"/>
</g>
</a>
</g>
<a style="color:inherit;" xlink:href="textedit://C:/Users/har1sf0x/Documents/GitHub/musicSchoolTampouras.github.io/sheets/ly/%ce%a0%ce%bf%ce%b4%ce%b1%cf%81%ce%ac%ce%ba%ce%b9_%ce%b2.ly:18:42:43">
<g transform="translate(102.4629, 21.8107)">
<path transform="scale(0.0040, -0.0040)" d="M218 136c55 0 108 -28 108 -89c0 -71 -55 -121 -102 -149c-35 -21 -75 -34 -116 -34c-55 0 -108 28 -108 89c0 71 55 121 102 149c35 21 75 34 116 34z" fill="currentColor"/>
</g>
</a>
<g transform="translate(99.3476, 21.8107)">
<path transform="scale(0.0040, -0.0040)" d="M0 0c0 31 25 56 56 56s56 -25 56 -56s-25 -56 -56 -56s-56 25 -56 56z" fill="currentColor"/>
</g>
<g transform="translate(99.3476, 22.8107)">
<path transform="scale(0.0040, -0.0040)" d="M0 0c0 31 25 56 56 56s56 -25 56 -56s-25 -56 -56 -56s-56 25 -56 56z" fill="currentColor"/>
</g>
<g transform="translate(97.5934, 19.3107)">
<rect x="-0.0650" y="-1.0000" width="0.1300" height="4.8139" ry="0.0400" fill="currentColor"/>
</g>
<g transform="translate(99.3476, 20.8107)">
<path transform="scale(0.0040, -0.0040)" d="M0 0c0 31 25 56 56 56s56 -25 56 -56s-25 -56 -56 -56s-56 25 -56 56z" fill="currentColor"/>
</g>
<g transform="translate(31.2592, 19.3107)">
<rect x="-0.0650" y="-2.5000" width="0.1300" height="3.3139" ry="0.0400" fill="currentColor"/>
</g>
<g transform="translate(31.7742, 19.8107)">
<path transform="scale(0.0040, -0.0040)" d="M0 0c0 31 25 56 56 56s56 -25 56 -56s-25 -56 -56 -56s-56 25 -56 56z" fill="currentColor"/>
</g>
<a style="color:inherit;" xlink:href="textedit://C:/Users/har1sf0x/Documents/GitHub/musicSchoolTampouras.github.io/sheets/ly/%ce%a0%ce%bf%ce%b4%ce%b1%cf%81%ce%ac%ce%ba%ce%b9_%ce%b2.ly:15:63:64">
<g transform="translate(30.6721, 15.6823)">
<line stroke-linejoin="round" stroke-linecap="round" stroke-width="0.1380" stroke="currentColor" x1="0" y1="0" x2="0" y2="-1.6000"/>
</g>
<g transform="translate(30.6721, 16.1323)">
<path transform="scale(0.0036, -0.0036)" d="M-103 250c5 0 10 -1 14 -5c40 -35 70 -79 89 -128c19 49 49 93 89 128c4 4 9 5 14 5c11 0 22 -10 22 -22c0 -6 -2 -12 -7 -16c-61 -54 -96 -131 -96 -212c0 -14 -11 -22 -22 -22s-22 8 -22 22c0 81 -35 158 -96 212c-5 4 -7 10 -7 16c0 12 11 22 22 22z" fill="currentColor"/>
</g>
</a>
<a style="color:inherit;" xlink:href="textedit://C:/Users/har1sf0x/Documents/GitHub/musicSchoolTampouras.github.io/sheets/ly/%ce%a0%ce%bf%ce%b4%ce%b1%cf%81%ce%ac%ce%ba%ce%b9_%ce%b2.ly:15:58:59">
<g transform="translate(30.0200, 20.3107)">
<path transform="scale(0.0040, -0.0040)" d="M218 136c55 0 108 -28 108 -89c0 -71 -55 -121 -102 -149c-35 -21 -75 -34 -116 -34c-55 0 -108 28 -108 89c0 71 55 121 102 149c35 21 75 34 116 34z" fill="currentColor"/>
</g>
</a>
<g transform="translate(27.4817, 16.3507)">
<path transform="scale(0.0040, -0.0040)" d="M0 0v-250h-16v250h16zM0 0c0 -197 207 -336 207 -533c0 -71 -15 -141 -41 -207c-5 -8 -13 -12 -20 -12c-13 0 -26 11 -23 27c26 61 42 126 42 192c0 103 -94 208 -165 283v250z" fill="currentColor"/>
</g>
<g transform="translate(27.4167, 19.3107)">
<rect x="-0.0650" y="-3.0000" width="0.1300" height="3.3139" ry="0.0400" fill="currentColor"/>
</g>
<a style="color:inherit;" xlink:href="textedit://C:/Users/har1sf0x/Documents/GitHub/musicSchoolTampouras.github.io/sheets/ly/%ce%a0%ce%bf%ce%b4%ce%b1%cf%81%ce%ac%ce%ba%ce%b9_%ce%b2.ly:15:49:50">
<g transform="scale(1.0000, -1.0000)">
<g transform="translate(26.8296, -14.0417)">
<line stroke-linejoin="round" stroke-linecap="round" stroke-width="0.1380" stroke="currentColor" x1="0" y1="0" x2="0" y2="-1.6000"/>
</g>
<g transform="translate(26.8296, -13.5917)">
<path transform="scale(0.0036, -0.0036)" d="M-103 250c5 0 10 -1 14 -5c40 -35 70 -79 89 -128c19 49 49 93 89 128c4 4 9 5 14 5c11 0 22 -10 22 -22c0 -6 -2 -12 -7 -16c-61 -54 -96 -131 -96 -212c0 -14 -11 -22 -22 -22s-22 8 -22 22c0 81 -35 158 -96 212c-5 4 -7 10 -7 16c0 12 11 22 22 22z" fill="currentColor"/>
</g>
</g>
</a>
<g transform="translate(36.0132, 19.3107)">
<rect x="-0.0650" y="-2.0000" width="0.1300" height="3.3139" ry="0.0400" fill="currentColor"/>
</g>
<g transform="translate(39.9866, 19.3107)">
<rect x="-0.0650" y="-1.5000" width="0.1300" height="3.3139" ry="0.0400" fill="currentColor"/>
</g>
<a style="color:inherit;" xlink:href="textedit://C:/Users/har1sf0x/Documents/GitHub/musicSchoolTampouras.github.io/sheets/ly/%ce%a0%ce%bf%ce%b4%ce%b1%cf%81%ce%ac%ce%ba%ce%b9_%ce%b2.ly:15:95:96">
<g transform="scale(1.0000, -1.0000)">
<g transform="translate(39.3995, -14.9917)">
<line stroke-linejoin="round" stroke-linecap="round" stroke-width="0.1380" stroke="currentColor" x1="0" y1="0" x2="0" y2="-1.6000"/>
</g>
<g transform="translate(39.3995, -14.5417)">
<path transform="scale(0.0036, -0.0036)" d="M-103 250c5 0 10 -1 14 -5c40 -35 70 -79 89 -128c19 49 49 93 89 128c4 4 9 5 14 5c11 0 22 -10 22 -22c0 -6 -2 -12 -7 -16c-61 -54 -96 -131 -96 -212c0 -14 -11 -22 -22 -22s-22 8 -22 22c0 81 -35 158 -96 212c-5 4 -7 10 -7 16c0 12 11 22 22 22z" fill="currentColor"/>
</g>
</g>
</a>
<a style="color:inherit;" xlink:href="textedit://C:/Users/har1sf0x/Documents/GitHub/musicSchoolTampouras.github.io/sheets/ly/%ce%a0%ce%bf%ce%b4%ce%b1%cf%81%ce%ac%ce%ba%ce%b9_%ce%b2.ly:15:89:90">
<g transform="translate(38.7474, 21.3107)">
<path transform="scale(0.0040, -0.0040)" d="M218 136c55 0 108 -28 108 -89c0 -71 -55 -121 -102 -149c-35 -21 -75 -34 -116 -34c-55 0 -108 28 -108 89c0 71 55 121 102 149c35 21 75 34 116 34z" fill="currentColor"/>
</g>
</a>
<a style="color:inherit;" xlink:href="textedit://C:/Users/har1sf0x/Documents/GitHub/musicSchoolTampouras.github.io/sheets/ly/%ce%a0%ce%bf%ce%b4%ce%b1%cf%81%ce%ac%ce%ba%ce%b9_%ce%b2.ly:15:45:46">
<g transform="translate(26.1775, 19.8107)">
<path transform="scale(0.0040, -0.0040)" d="M218 136c55 0 108 -28 108 -89c0 -71 -55 -121 -102 -149c-35 -21 -75 -34 -116 -34c-55 0 -108 28 -108 89c0 71 55 121 102 149c35 21 75 34 116 34z" fill="currentColor"/>
</g>
</a>
<a style="color:inherit;" xlink:href="textedit://C:/Users/har1sf0x/Documents/GitHub/musicSchoolTampouras.github.io/sheets/ly/%ce%a0%ce%bf%ce%b4%ce%b1%cf%81%ce%ac%ce%ba%ce%b9_%ce%b2.ly:15:78:79">
<g transform="translate(35.4261, 16.1323)">
<line stroke-linejoin="round" stroke-linecap="round" stroke-width="0.1380" stroke="currentColor" x1="0" y1="0" x2="0" y2="-1.6000"/>
</g>
<g transform="translate(35.4261, 16.5823)">
<path transform="scale(0.0036, -0.0036)" d="M-103 250c5 0 10 -1 14 -5c40 -35 70 -79 89 -128c19 49 49 93 89 128c4 4 9 5 14 5c11 0 22 -10 22 -22c0 -6 -2 -12 -7 -16c-61 -54 -96 -131 -96 -212c0 -14 -11 -22 -22 -22s-22 8 -22 22c0 81 -35 158 -96 212c-5 4 -7 10 -7 16c0 12 11 22 22 22z" fill="currentColor"/>
</g>
</a>
<a style="color:inherit;" xlink:href="textedit://C:/Users/har1sf0x/Documents/GitHub/musicSchoolTampouras.github.io/sheets/ly/%ce%a0%ce%bf%ce%b4%ce%b1%cf%81%ce%ac%ce%ba%ce%b9_%ce%b2.ly:15:74:75">
<g transform="translate(34.7740, 20.8107)">
<path transform="scale(0.0040, -0.0040)" d="M218 136c55 0 108 -28 108 -89c0 -71 -55 -121 -102 -149c-35 -21 -75 -34 -116 -34c-55 0 -108 28 -108 89c0 71 55 121 102 149c35 21 75 34 116 34z" fill="currentColor"/>
</g>
</a>
<a style="color:inherit;" xlink:href="textedit://C:/Users/har1sf0x/Documents/GitHub/musicSchoolTampouras.github.io/sheets/ly/utilities_01.ly:94:2:3">
<g transform="translate(12.1118, 19.3107)">
<path transform="scale(0.0040, -0.0040)" d="M170 259c-51 0 -53 -43 -53 -100v-18v-18c0 -57 2 -100 53 -100c57 0 61 51 61 118s-4 118 -61 118zM117 266c15 10 33 16 53 16c101 0 170 -46 170 -141s-69 -141 -170 -141c-112 0 -170 124 -170 250c0 128 72 250 190 250c70 0 136 -39 136 -103
c0 -36 -29 -66 -65 -66s-66 30 -66 66c0 24 40 25 40 49c0 20 -23 31 -45 31c-66 0 -75 -65 -75 -139c0 -24 2 -48 2 -72z" fill="currentColor"/>
</g>
<g transform="translate(12.0606, 21.3107)">
<path transform="scale(0.0040, -0.0040)" d="M261 287c25 30 44 64 44 103c0 54 -55 87 -114 87c-46 0 -73 -36 -73 -71c0 -21 10 -42 31 -54zM292 269c54 -31 80 -79 80 -125c0 -73 -66 -144 -189 -144c-94 0 -183 54 -183 140c0 50 36 87 72 123c-37 28 -55 66 -55 103c0 68 60 134 174 134c80 0 157 -39 157 -110
c0 -46 -25 -86 -56 -121zM103 244c-31 -30 -59 -61 -59 -104c0 -69 66 -117 139 -117c54 0 86 42 86 83c0 24 -10 48 -35 62z" fill="currentColor"/>
</g>
</a>
<g transform="translate(16.7679, 19.3107)">
<rect x="-0.0650" y="-3.0000" width="0.1300" height="3.3139" ry="0.0400" fill="currentColor"/>
</g>
<a style="color:inherit;" xlink:href="textedit://C:/Users/har1sf0x/Documents/GitHub/musicSchoolTampouras.github.io/sheets/ly/%ce%a0%ce%bf%ce%b4%ce%b1%cf%81%ce%ac%ce%ba%ce%b9_%ce%b2.ly:14:2:3">
<g transform="translate(5.6906, 15.2091)">
<text font-family="serif" font-size="2.6163" text-anchor="start" fill="currentColor">
<tspan>A</tspan>
</text>
</g>
</a>
<g transform="translate(10.1106, 17.8107)">
<path transform="scale(0.0040, -0.0040)" d="M143 41c-1 33 -22 63 -53 63c-29 0 -43 -34 -43 -67c0 -59 48 -101 93 -139c3 22 4 44 4 66v11zM185 -138c0 -14 -10 -25 -23 -25c-21 0 -30 25 -45 38c-61 52 -147 89 -147 169c0 54 37 102 89 102c33 0 66 -13 91 -34l-7 345c8 5 18 8 27 8s19 -3 27 -8z" fill="currentColor"/>
</g>
<g transform="translate(6.4906, 20.3107)">
<path transform="scale(0.0040, -0.0040)" d="M266 -635h-6c-108 0 -195 88 -195 197c0 58 53 103 112 103c54 0 95 -47 95 -103c0 -52 -43 -95 -95 -95c-11 0 -21 2 -31 6c26 -39 68 -65 117 -65h4zM461 -203c68 24 113 95 113 164c0 90 -66 179 -173 190c24 -116 46 -231 60 -354zM74 28c0 -135 129 -247 264 -247
c28 0 55 2 82 6c-14 127 -37 245 -63 364c-79 -8 -124 -61 -124 -119c0 -44 25 -91 81 -123c5 -5 7 -10 7 -15c0 -11 -10 -22 -22 -22c-3 0 -6 1 -9 2c-80 43 -117 115 -117 185c0 88 58 174 160 197c-14 58 -29 117 -46 175c-107 -121 -213 -243 -213 -403zM335 -262
c-188 0 -333 172 -333 374c0 177 131 306 248 441c-19 62 -37 125 -45 190c-6 52 -7 104 -7 156c0 115 55 224 149 292c6 5 14 5 20 0c71 -84 133 -245 133 -358c0 -143 -86 -255 -180 -364c21 -68 39 -138 56 -207c4 0 9 1 13 1c155 0 256 -128 256 -261
c0 -76 -33 -154 -107 -210c-22 -17 -47 -28 -73 -36c3 -35 5 -70 5 -105c0 -19 -1 -39 -2 -58c-7 -119 -88 -225 -202 -228l1 43c93 2 153 92 159 191c1 18 2 37 2 55c0 31 -1 61 -4 92c-29 -5 -58 -8 -89 -8zM428 916c0 55 -4 79 -20 129c-99 -48 -162 -149 -162 -259
c0 -74 18 -133 36 -194c80 97 146 198 146 324z" fill="currentColor"/>
</g>
<a style="color:inherit;" xlink:href="textedit://C:/Users/har1sf0x/Documents/GitHub/musicSchoolTampouras.github.io/sheets/ly/%ce%a0%ce%bf%ce%b4%ce%b1%cf%81%ce%ac%ce%ba%ce%b9_%ce%b2.ly:15:6:7">
<g transform="translate(16.1808, 15.1823)">
<line stroke-linejoin="round" stroke-linecap="round" stroke-width="0.1380" stroke="currentColor" x1="0" y1="0" x2="0" y2="-1.6000"/>
</g>
<g transform="translate(16.1808, 15.6323)">
<path transform="scale(0.0036, -0.0036)" d="M-103 250c5 0 10 -1 14 -5c40 -35 70 -79 89 -128c19 49 49 93 89 128c4 4 9 5 14 5c11 0 22 -10 22 -22c0 -6 -2 -12 -7 -16c-61 -54 -96 -131 -96 -212c0 -14 -11 -22 -22 -22s-22 8 -22 22c0 81 -35 158 -96 212c-5 4 -7 10 -7 16c0 12 11 22 22 22z" fill="currentColor"/>
</g>
</a>
<a style="color:inherit;" xlink:href="textedit://C:/Users/har1sf0x/Documents/GitHub/musicSchoolTampouras.github.io/sheets/ly/%ce%a0%ce%bf%ce%b4%ce%b1%cf%81%ce%ac%ce%ba%ce%b9_%ce%b2.ly:15:2:3">
<g transform="translate(15.5287, 19.8107)">
<path transform="scale(0.0040, -0.0040)" d="M218 136c55 0 108 -28 108 -89c0 -71 -55 -121 -102 -149c-35 -21 -75 -34 -116 -34c-55 0 -108 28 -108 89c0 71 55 121 102 149c35 21 75 34 116 34z" fill="currentColor"/>
</g>
</a>
<g transform="translate(23.4433, 19.3107)">
<rect x="-0.0650" y="-2.5000" width="0.1300" height="3.3139" ry="0.0400" fill="currentColor"/>
</g>
<a style="color:inherit;" xlink:href="textedit://C:/Users/har1sf0x/Documents/GitHub/musicSchoolTampouras.github.io/sheets/ly/%ce%a0%ce%bf%ce%b4%ce%b1%cf%81%ce%ac%ce%ba%ce%b9_%ce%b2.ly:15:34:35">
<g transform="translate(22.8562, 15.6823)">
<line stroke-linejoin="round" stroke-linecap="round" stroke-width="0.1380" stroke="currentColor" x1="0" y1="0" x2="0" y2="-1.6000"/>
</g>
<g transform="translate(22.8562, 16.1323)">
<path transform="scale(0.0036, -0.0036)" d="M-103 250c5 0 10 -1 14 -5c40 -35 70 -79 89 -128c19 49 49 93 89 128c4 4 9 5 14 5c11 0 22 -10 22 -22c0 -6 -2 -12 -7 -16c-61 -54 -96 -131 -96 -212c0 -14 -11 -22 -22 -22s-22 8 -22 22c0 81 -35 158 -96 212c-5 4 -7 10 -7 16c0 12 11 22 22 22z" fill="currentColor"/>
</g>
</a>
<a style="color:inherit;" xlink:href="textedit://C:/Users/har1sf0x/Documents/GitHub/musicSchoolTampouras.github.io/sheets/ly/%ce%a0%ce%bf%ce%b4%ce%b1%cf%81%ce%ac%ce%ba%ce%b9_%ce%b2.ly:15:30:31">
<g transform="translate(22.2041, 20.3107)">
<path transform="scale(0.0040, -0.0040)" d="M218 136c55 0 108 -28 108 -89c0 -71 -55 -121 -102 -149c-35 -21 -75 -34 -116 -34c-55 0 -108 28 -108 89c0 71 55 121 102 149c35 21 75 34 116 34z" fill="currentColor"/>
</g>
</a>
<g transform="translate(20.8063, 16.8507)">
<path transform="scale(0.0040, -0.0040)" d="M0 0v-250h-16v250h16zM0 0c0 -197 207 -336 207 -533c0 -71 -15 -141 -41 -207c-5 -8 -13 -12 -20 -12c-13 0 -26 11 -23 27c26 61 42 126 42 192c0 103 -94 208 -165 283v250z" fill="currentColor"/>
</g>
<g transform="translate(20.7413, 19.3107)">
<rect x="-0.0650" y="-2.5000" width="0.1300" height="3.3139" ry="0.0400" fill="currentColor"/>
</g>
<a style="color:inherit;" xlink:href="textedit://C:/Users/har1sf0x/Documents/GitHub/musicSchoolTampouras.github.io/sheets/ly/%ce%a0%ce%bf%ce%b4%ce%b1%cf%81%ce%ac%ce%ba%ce%b9_%ce%b2.ly:15:21:22">
<g transform="scale(1.0000, -1.0000)">
<g transform="translate(20.1542, -14.5417)">
<line stroke-linejoin="round" stroke-linecap="round" stroke-width="0.1380" stroke="currentColor" x1="0" y1="0" x2="0" y2="-1.6000"/>
</g>
<g transform="translate(20.1542, -14.0917)">
<path transform="scale(0.0036, -0.0036)" d="M-103 250c5 0 10 -1 14 -5c40 -35 70 -79 89 -128c19 49 49 93 89 128c4 4 9 5 14 5c11 0 22 -10 22 -22c0 -6 -2 -12 -7 -16c-61 -54 -96 -131 -96 -212c0 -14 -11 -22 -22 -22s-22 8 -22 22c0 81 -35 158 -96 212c-5 4 -7 10 -7 16c0 12 11 22 22 22z" fill="currentColor"/>
</g>
</g>
</a>
<a style="color:inherit;" xlink:href="textedit://C:/Users/har1sf0x/Documents/GitHub/musicSchoolTampouras.github.io/sheets/ly/%ce%a0%ce%bf%ce%b4%ce%b1%cf%81%ce%ac%ce%ba%ce%b9_%ce%b2.ly:15:17:18">
<g transform="translate(19.5021, 20.3107)">
<path transform="scale(0.0040, -0.0040)" d="M218 136c55 0 108 -28 108 -89c0 -71 -55 -121 -102 -149c-35 -21 -75 -34 -116 -34c-55 0 -108 28 -108 89c0 71 55 121 102 149c35 21 75 34 116 34z" fill="currentColor"/>
</g>
</a>
<a style="color:inherit;" xlink:href="textedit://C:/Users/har1sf0x/Documents/GitHub/musicSchoolTampouras.github.io/sheets/ly/%ce%a0%ce%bf%ce%b4%ce%b1%cf%81%ce%ac%ce%ba%ce%b9_%ce%b2.ly:16:37:38">
<g transform="translate(54.3415, 15.6823)">
<line stroke-linejoin="round" stroke-linecap="round" stroke-width="0.1380" stroke="currentColor" x1="0" y1="0" x2="0" y2="-1.6000"/>
</g>
<g transform="translate(54.3415, 16.1323)">
<path transform="scale(0.0036, -0.0036)" d="M-103 250c5 0 10 -1 14 -5c40 -35 70 -79 89 -128c19 49 49 93 89 128c4 4 9 5 14 5c11 0 22 -10 22 -22c0 -6 -2 -12 -7 -16c-61 -54 -96 -131 -96 -212c0 -14 -11 -22 -22 -22s-22 8 -22 22c0 81 -35 158 -96 212c-5 4 -7 10 -7 16c0 12 11 22 22 22z" fill="currentColor"/>
</g>
</a>
<a style="color:inherit;" xlink:href="textedit://C:/Users/har1sf0x/Documents/GitHub/musicSchoolTampouras.github.io/sheets/ly/%ce%a0%ce%bf%ce%b4%ce%b1%cf%81%ce%ac%ce%ba%ce%b9_%ce%b2.ly:16:34:35">
<g transform="translate(53.6894, 20.3107)">
<path transform="scale(0.0040, -0.0040)" d="M218 136c55 0 108 -28 108 -89c0 -71 -55 -121 -102 -149c-35 -21 -75 -34 -116 -34c-55 0 -108 28 -108 89c0 71 55 121 102 149c35 21 75 34 116 34z" fill="currentColor"/>
</g>
</a>
<g transform="translate(59.6827, 19.3107)">
<rect x="-0.0650" y="-2.5000" width="0.1300" height="3.3139" ry="0.0400" fill="currentColor"/>
</g>
<g transform="translate(55.4436, 19.8107)">
<path transform="scale(0.0040, -0.0040)" d="M0 0c0 31 25 56 56 56s56 -25 56 -56s-25 -56 -56 -56s-56 25 -56 56z" fill="currentColor"/>
</g>
<g transform="translate(48.8331, 19.3107)">
<rect x="-0.0650" y="-2.5000" width="0.1300" height="3.3139" ry="0.0400" fill="currentColor"/>
</g>
<a style="color:inherit;" xlink:href="textedit://C:/Users/har1sf0x/Documents/GitHub/musicSchoolTampouras.github.io/sheets/ly/%ce%a0%ce%bf%ce%b4%ce%b1%cf%81%ce%ac%ce%ba%ce%b9_%ce%b2.ly:16:48:49">
<g transform="translate(58.4435, 20.3107)">
<path transform="scale(0.0040, -0.0040)" d="M218 136c55 0 108 -28 108 -89c0 -71 -55 -121 -102 -149c-35 -21 -75 -34 -116 -34c-55 0 -108 28 -108 89c0 71 55 121 102 149c35 21 75 34 116 34z" fill="currentColor"/>
</g>
</a>
<a style="color:inherit;" xlink:href="textedit://C:/Users/har1sf0x/Documents/GitHub/musicSchoolTampouras.github.io/sheets/ly/%ce%a0%ce%bf%ce%b4%ce%b1%cf%81%ce%ac%ce%ba%ce%b9_%ce%b2.ly:16:51:52">
<g transform="scale(1.0000, -1.0000)">
<g transform="translate(59.0956, -14.5417)">
<line stroke-linejoin="round" stroke-linecap="round" stroke-width="0.1380" stroke="currentColor" x1="0" y1="0" x2="0" y2="-1.6000"/>
</g>
<g transform="translate(59.0956, -14.0917)">
<path transform="scale(0.0036, -0.0036)" d="M-103 250c5 0 10 -1 14 -5c40 -35 70 -79 89 -128c19 49 49 93 89 128c4 4 9 5 14 5c11 0 22 -10 22 -22c0 -6 -2 -12 -7 -16c-61 -54 -96 -131 -96 -212c0 -14 -11 -22 -22 -22s-22 8 -22 22c0 81 -35 158 -96 212c-5 4 -7 10 -7 16c0 12 11 22 22 22z" fill="currentColor"/>
</g>
</g>
</a>
<g transform="translate(60.1977, 19.8107)">
<path transform="scale(0.0040, -0.0040)" d="M0 0c0 31 25 56 56 56s56 -25 56 -56s-25 -56 -56 -56s-56 25 -56 56z" fill="currentColor"/>
</g>
<g transform="translate(54.9286, 19.3107)">
<rect x="-0.0650" y="-2.5000" width="0.1300" height="3.3139" ry="0.0400" fill="currentColor"/>
</g>
<a style="color:inherit;" xlink:href="textedit://C:/Users/har1sf0x/Documents/GitHub/musicSchoolTampouras.github.io/sheets/ly/%ce%a0%ce%bf%ce%b4%ce%b1%cf%81%ce%ac%ce%ba%ce%b9_%ce%b2.ly:16:2:3">
<g transform="translate(42.5899, 22.3107)">
<path transform="scale(0.0040, -0.0040)" d="M218 136c55 0 108 -28 108 -89c0 -71 -55 -121 -102 -149c-35 -21 -75 -34 -116 -34c-55 0 -108 28 -108 89c0 71 55 121 102 149c35 21 75 34 116 34z" fill="currentColor"/>
</g>
</a>
<g transform="translate(49.3481, 19.8107)">
<path transform="scale(0.0040, -0.0040)" d="M0 0c0 31 25 56 56 56s56 -25 56 -56s-25 -56 -56 -56s-56 25 -56 56z" fill="currentColor"/>
</g>
<g transform="translate(43.8291, 19.3107)">
<rect x="-0.0650" y="-0.5000" width="0.1300" height="3.3139" ry="0.0400" fill="currentColor"/>
</g>
<g transform="translate(44.3441, 21.8107)">
<path transform="scale(0.0040, -0.0040)" d="M0 0c0 31 25 56 56 56s56 -25 56 -56s-25 -56 -56 -56s-56 25 -56 56z" fill="currentColor"/>
</g>
<a style="color:inherit;" xlink:href="textedit://C:/Users/har1sf0x/Documents/GitHub/musicSchoolTampouras.github.io/sheets/ly/%ce%a0%ce%bf%ce%b4%ce%b1%cf%81%ce%ac%ce%ba%ce%b9_%ce%b2.ly:17:2:3">
<g transform="translate(64.5390, 19.8107)">
<path transform="scale(0.0040, -0.0040)" d="M218 136c55 0 108 -28 108 -89c0 -71 -55 -121 -102 -149c-35 -21 -75 -34 -116 -34c-55 0 -108 28 -108 89c0 71 55 121 102 149c35 21 75 34 116 34z" fill="currentColor"/>
</g>
</a>
<a style="color:inherit;" xlink:href="textedit://C:/Users/har1sf0x/Documents/GitHub/musicSchoolTampouras.github.io/sheets/ly/%ce%a0%ce%bf%ce%b4%ce%b1%cf%81%ce%ac%ce%ba%ce%b9_%ce%b2.ly:16:7:8">
<g transform="translate(43.2420, 16.1323)">
<line stroke-linejoin="round" stroke-linecap="round" stroke-width="0.1380" stroke="currentColor" x1="0" y1="0" x2="0" y2="-1.6000"/>
</g>
<g transform="translate(43.2420, 16.5823)">
<path transform="scale(0.0036, -0.0036)" d="M-103 250c5 0 10 -1 14 -5c40 -35 70 -79 89 -128c19 49 49 93 89 128c4 4 9 5 14 5c11 0 22 -10 22 -22c0 -6 -2 -12 -7 -16c-61 -54 -96 -131 -96 -212c0 -14 -11 -22 -22 -22s-22 8 -22 22c0 81 -35 158 -96 212c-5 4 -7 10 -7 16c0 12 11 22 22 22z" fill="currentColor"/>
</g>
</a>
<a style="color:inherit;" xlink:href="textedit://C:/Users/har1sf0x/Documents/GitHub/musicSchoolTampouras.github.io/sheets/ly/%ce%a0%ce%bf%ce%b4%ce%b1%cf%81%ce%ac%ce%ba%ce%b9_%ce%b2.ly:17:6:7">
<g transform="translate(65.1911, 15.1823)">
<line stroke-linejoin="round" stroke-linecap="round" stroke-width="0.1380" stroke="currentColor" x1="0" y1="0" x2="0" y2="-1.6000"/>
</g>
<g transform="translate(65.1911, 15.6323)">
<path transform="scale(0.0036, -0.0036)" d="M-103 250c5 0 10 -1 14 -5c40 -35 70 -79 89 -128c19 49 49 93 89 128c4 4 9 5 14 5c11 0 22 -10 22 -22c0 -6 -2 -12 -7 -16c-61 -54 -96 -131 -96 -212c0 -14 -11 -22 -22 -22s-22 8 -22 22c0 81 -35 158 -96 212c-5 4 -7 10 -7 16c0 12 11 22 22 22z" fill="currentColor"/>
</g>
</a>
<g transform="translate(40.0516, 17.8507)">
<path transform="scale(0.0040, -0.0040)" d="M0 0v-250h-16v250h16zM0 0c0 -197 207 -336 207 -533c0 -71 -15 -141 -41 -207c-5 -8 -13 -12 -20 -12c-13 0 -26 11 -23 27c26 61 42 126 42 192c0 103 -94 208 -165 283v250z" fill="currentColor"/>
</g>
<a style="color:inherit;" xlink:href="textedit://C:/Users/har1sf0x/Documents/GitHub/musicSchoolTampouras.github.io/sheets/ly/%ce%a0%ce%bf%ce%b4%ce%b1%cf%81%ce%ac%ce%ba%ce%b9_%ce%b2.ly:16:22:23">
<g transform="scale(1.0000, -1.0000)">
<g transform="translate(48.2460, -14.5417)">
<line stroke-linejoin="round" stroke-linecap="round" stroke-width="0.1380" stroke="currentColor" x1="0" y1="0" x2="0" y2="-1.6000"/>
</g>
<g transform="translate(48.2460, -14.0917)">
<path transform="scale(0.0036, -0.0036)" d="M-103 250c5 0 10 -1 14 -5c40 -35 70 -79 89 -128c19 49 49 93 89 128c4 4 9 5 14 5c11 0 22 -10 22 -22c0 -6 -2 -12 -7 -16c-61 -54 -96 -131 -96 -212c0 -14 -11 -22 -22 -22s-22 8 -22 22c0 81 -35 158 -96 212c-5 4 -7 10 -7 16c0 12 11 22 22 22z" fill="currentColor"/>
</g>
</g>
<g transform="translate(48.2460, 14.5917)">
<path transform="scale(0.0040, -0.0040)" d="M-105 -250c-11 0 -20 9 -20 20c0 6 2 11 7 15c62 54 98 133 98 215c0 13 10 20 20 20s20 -7 20 -20c0 -82 36 -161 98 -215c5 -4 7 -9 7 -15c0 -11 -9 -20 -20 -20c-5 0 -9 2 -13 5c-41 36 -73 82 -92 133c-19 -51 -51 -97 -92 -133c-4 -3 -8 -5 -13 -5z" fill="currentColor"/>
</g>
<g transform="translate(48.2460, 15.0917)">
<path transform="scale(0.0040, -0.0040)" d="M-105 -250c-11 0 -20 9 -20 20c0 6 2 11 7 15c62 54 98 133 98 215c0 13 10 20 20 20s20 -7 20 -20c0 -82 36 -161 98 -215c5 -4 7 -9 7 -15c0 -11 -9 -20 -20 -20c-5 0 -9 2 -13 5c-41 36 -73 82 -92 133c-19 -51 -51 -97 -92 -133c-4 -3 -8 -5 -13 -5z" fill="currentColor"/>
</g>
</a>
<a style="color:inherit;" xlink:href="textedit://C:/Users/har1sf0x/Documents/GitHub/musicSchoolTampouras.github.io/sheets/ly/%ce%a0%ce%bf%ce%b4%ce%b1%cf%81%ce%ac%ce%ba%ce%b9_%ce%b2.ly:16:18:19">
<g transform="translate(47.5939, 20.3107)">
<path transform="scale(0.0040, -0.0040)" d="M218 136c55 0 108 -28 108 -89c0 -71 -55 -121 -102 -149c-35 -21 -75 -34 -116 -34c-55 0 -108 28 -108 89c0 71 55 121 102 149c35 21 75 34 116 34z" fill="currentColor"/>
</g>
</a>
<g transform="translate(5.6906, 34.9482)">
<line stroke-linejoin="round" stroke-linecap="round" stroke-width="0.1000" stroke="currentColor" x1="0.0500" y1="0" x2="108.0705" y2="0"/>
</g>
<g transform="translate(5.6906, 33.9482)">
<line stroke-linejoin="round" stroke-linecap="round" stroke-width="0.1000" stroke="currentColor" x1="0.0500" y1="0" x2="108.0705" y2="0"/>
</g>
<g transform="translate(5.6906, 32.9482)">
<line stroke-linejoin="round" stroke-linecap="round" stroke-width="0.1000" stroke="currentColor" x1="0.0500" y1="0" x2="108.0705" y2="0"/>
</g>
<g transform="translate(5.6906, 31.9482)">
<line stroke-linejoin="round" stroke-linecap="round" stroke-width="0.1000" stroke="currentColor" x1="0.0500" y1="0" x2="108.0705" y2="0"/>
</g>
<g transform="translate(5.6906, 30.9482)">
<line stroke-linejoin="round" stroke-linecap="round" stroke-width="0.1000" stroke="currentColor" x1="0.0500" y1="0" x2="108.0705" y2="0"/>
</g>
<g transform="translate(50.2998, 32.9482)">
<rect x="0.0000" y="-2.0000" width="0.1900" height="4.0000" ry="0.0000" fill="currentColor"/>
</g>
<g transform="translate(25.4251, 32.9482)">
<rect x="0.0000" y="-2.0000" width="0.1900" height="4.0000" ry="0.0000" fill="currentColor"/>
</g>
<g transform="translate(101.2773, 32.9482)">
<rect x="0.0000" y="-2.0000" width="0.1900" height="4.0000" ry="0.0000" fill="currentColor"/>
</g>
<g transform="translate(74.9245, 32.9482)">
<rect x="0.0000" y="-2.0000" width="0.1900" height="4.0000" ry="0.0000" fill="currentColor"/>
</g>
<g transform="translate(113.2110, 32.9482)">
<rect x="0.0000" y="-2.0000" width="0.6000" height="4.0000" ry="0.0000" fill="currentColor"/>
</g>
<g transform="translate(112.7210, 32.9482)">
<rect x="0.0000" y="-2.0000" width="0.1900" height="4.0000" ry="0.0000" fill="currentColor"/>
</g>
<g transform="translate(89.8336, 32.9482)">
<rect x="0.0000" y="-2.0000" width="0.1900" height="4.0000" ry="0.0000" fill="currentColor"/>
</g>
<g transform="translate(61.7302, 32.9482)">
<rect x="0.0000" y="-2.0000" width="0.1900" height="4.0000" ry="0.0000" fill="currentColor"/>
</g>
<g transform="translate(5.6906, 35.9482)">
<rect x="101.4653" y="-0.1000" width="1.9563" height="0.2000" ry="0.1000" fill="currentColor"/>
</g>
<g transform="translate(5.6906, 36.9482)">
<rect x="101.4653" y="-0.1000" width="1.9563" height="0.2000" ry="0.1000" fill="currentColor"/>
</g>
<g transform="translate(5.6906, 35.9482)">
<rect x="96.4404" y="-0.1000" width="1.9563" height="0.2000" ry="0.1000" fill="currentColor"/>
</g>
<g transform="translate(5.6906, 36.9482)">
<rect x="96.4404" y="-0.1000" width="1.9563" height="0.2000" ry="0.1000" fill="currentColor"/>
</g>
<g transform="translate(5.6906, 35.9482)">
<rect x="90.0216" y="-0.1000" width="1.9563" height="0.2000" ry="0.1000" fill="currentColor"/>
</g>
<g transform="translate(5.6906, 36.9482)">
<rect x="90.0216" y="-0.1000" width="1.9563" height="0.2000" ry="0.1000" fill="currentColor"/>
</g>
<g transform="translate(5.6906, 35.9482)">
<rect x="84.9967" y="-0.1000" width="1.9563" height="0.2000" ry="0.1000" fill="currentColor"/>
</g>
<g transform="translate(5.6906, 35.9482)">
<rect x="56.8934" y="-0.1000" width="1.9563" height="0.2000" ry="0.1000" fill="currentColor"/>
</g>
<g transform="translate(5.6906, 35.9482)">
<rect x="33.7825" y="-0.1000" width="1.9563" height="0.2000" ry="0.1000" fill="currentColor"/>
</g>
<g transform="translate(5.6906, 35.9482)">
<rect x="20.5882" y="-0.1000" width="1.9563" height="0.2000" ry="0.1000" fill="currentColor"/>
</g>
<g transform="translate(5.6906, 35.9482)">
<rect x="7.3940" y="-0.1000" width="1.9563" height="0.2000" ry="0.1000" fill="currentColor"/>
</g>
<g transform="translate(38.6193, 32.9482)">
<rect x="0.0000" y="-2.0000" width="0.1900" height="4.0000" ry="0.0000" fill="currentColor"/>
</g>
<g transform="translate(84.3331, 32.9482)">
<rect x="-0.0650" y="-2.5000" width="0.1300" height="3.3139" ry="0.0400" fill="currentColor"/>
</g>
<a style="color:inherit;" xlink:href="textedit://C:/Users/har1sf0x/Documents/GitHub/musicSchoolTampouras.github.io/sheets/ly/%ce%a0%ce%bf%ce%b4%ce%b1%cf%81%ce%ac%ce%ba%ce%b9_%ce%b2.ly:23:74:75">
<g transform="scale(1.0000, -1.0000)">
<g transform="translate(83.7460, -28.1792)">
<line stroke-linejoin="round" stroke-linecap="round" stroke-width="0.1380" stroke="currentColor" x1="0" y1="0" x2="0" y2="-1.6000"/>
</g>
<g transform="translate(83.7460, -27.7292)">
<path transform="scale(0.0036, -0.0036)" d="M-103 250c5 0 10 -1 14 -5c40 -35 70 -79 89 -128c19 49 49 93 89 128c4 4 9 5 14 5c11 0 22 -10 22 -22c0 -6 -2 -12 -7 -16c-61 -54 -96 -131 -96 -212c0 -14 -11 -22 -22 -22s-22 8 -22 22c0 81 -35 158 -96 212c-5 4 -7 10 -7 16c0 12 11 22 22 22z" fill="currentColor"/>
</g>
</g>
<g transform="translate(83.7460, 28.2292)">
<path transform="scale(0.0040, -0.0040)" d="M-105 -250c-11 0 -20 9 -20 20c0 6 2 11 7 15c62 54 98 133 98 215c0 13 10 20 20 20s20 -7 20 -20c0 -82 36 -161 98 -215c5 -4 7 -9 7 -15c0 -11 -9 -20 -20 -20c-5 0 -9 2 -13 5c-41 36 -73 82 -92 133c-19 -51 -51 -97 -92 -133c-4 -3 -8 -5 -13 -5z" fill="currentColor"/>
</g>
<g transform="translate(83.7460, 28.7292)">
<path transform="scale(0.0040, -0.0040)" d="M-105 -250c-11 0 -20 9 -20 20c0 6 2 11 7 15c62 54 98 133 98 215c0 13 10 20 20 20s20 -7 20 -20c0 -82 36 -161 98 -215c5 -4 7 -9 7 -15c0 -11 -9 -20 -20 -20c-5 0 -9 2 -13 5c-41 36 -73 82 -92 133c-19 -51 -51 -97 -92 -133c-4 -3 -8 -5 -13 -5z" fill="currentColor"/>
</g>
</a>
<a style="color:inherit;" xlink:href="textedit://C:/Users/har1sf0x/Documents/GitHub/musicSchoolTampouras.github.io/sheets/ly/%ce%a0%ce%bf%ce%b4%ce%b1%cf%81%ce%ac%ce%ba%ce%b9_%ce%b2.ly:23:70:71">
<g transform="translate(83.0939, 33.9482)">
<path transform="scale(0.0040, -0.0040)" d="M218 136c55 0 108 -28 108 -89c0 -71 -55 -121 -102 -149c-35 -21 -75 -34 -116 -34c-55 0 -108 28 -108 89c0 71 55 121 102 149c35 21 75 34 116 34z" fill="currentColor"/>
</g>
</a>
<g transform="translate(81.5913, 31.4882)">
<path transform="scale(0.0040, -0.0040)" d="M0 0v-250h-16v250h16zM0 0c0 -197 207 -336 207 -533c0 -71 -15 -141 -41 -207c-5 -8 -13 -12 -20 -12c-13 0 -26 11 -23 27c26 61 42 126 42 192c0 103 -94 208 -165 283v250z" fill="currentColor"/>
</g>
<g transform="translate(81.5263, 32.9482)">
<rect x="-0.0650" y="-1.5000" width="0.1300" height="3.3139" ry="0.0400" fill="currentColor"/>
</g>
<a style="color:inherit;" xlink:href="textedit://C:/Users/har1sf0x/Documents/GitHub/musicSchoolTampouras.github.io/sheets/ly/%ce%a0%ce%bf%ce%b4%ce%b1%cf%81%ce%ac%ce%ba%ce%b9_%ce%b2.ly:23:62:63">
<g transform="translate(80.2871, 34.9482)">
<path transform="scale(0.0040, -0.0040)" d="M218 136c55 0 108 -28 108 -89c0 -71 -55 -121 -102 -149c-35 -21 -75 -34 -116 -34c-55 0 -108 28 -108 89c0 71 55 121 102 149c35 21 75 34 116 34z" fill="currentColor"/>
</g>
</a>
<a style="color:inherit;" xlink:href="textedit://C:/Users/har1sf0x/Documents/GitHub/musicSchoolTampouras.github.io/sheets/ly/%ce%a0%ce%bf%ce%b4%ce%b1%cf%81%ce%ac%ce%ba%ce%b9_%ce%b2.ly:24:2:3">
<g transform="translate(91.0133, 35.9482)">
<path transform="scale(0.0040, -0.0040)" d="M218 136c55 0 108 -28 108 -89c0 -71 -55 -121 -102 -149c-35 -21 -75 -34 -116 -34c-55 0 -108 28 -108 89c0 71 55 121 102 149c35 21 75 34 116 34z" fill="currentColor"/>
</g>
</a>
<g transform="translate(92.2525, 32.9482)">
<rect x="-0.0650" y="-0.5000" width="0.1300" height="3.3139" ry="0.0400" fill="currentColor"/>
</g>
<g transform="translate(92.7675, 35.4482)">
<path transform="scale(0.0040, -0.0040)" d="M0 0c0 31 25 56 56 56s56 -25 56 -56s-25 -56 -56 -56s-56 25 -56 56z" fill="currentColor"/>
</g>
<a style="color:inherit;" xlink:href="textedit://C:/Users/har1sf0x/Documents/GitHub/musicSchoolTampouras.github.io/sheets/ly/%ce%a0%ce%bf%ce%b4%ce%b1%cf%81%ce%ac%ce%ba%ce%b9_%ce%b2.ly:24:7:8">
<g transform="translate(91.6654, 29.7698)">
<line stroke-linejoin="round" stroke-linecap="round" stroke-width="0.1380" stroke="currentColor" x1="0" y1="0" x2="0" y2="-1.6000"/>
</g>
<g transform="translate(91.6654, 30.2198)">
<path transform="scale(0.0036, -0.0036)" d="M-103 250c5 0 10 -1 14 -5c40 -35 70 -79 89 -128c19 49 49 93 89 128c4 4 9 5 14 5c11 0 22 -10 22 -22c0 -6 -2 -12 -7 -16c-61 -54 -96 -131 -96 -212c0 -14 -11 -22 -22 -22s-22 8 -22 22c0 81 -35 158 -96 212c-5 4 -7 10 -7 16c0 12 11 22 22 22z" fill="currentColor"/>
</g>
</a>
<g transform="translate(88.3310, 31.4882)">
<path transform="scale(0.0040, -0.0040)" d="M0 0v-250h-16v250h16zM0 0c0 -197 207 -336 207 -533c0 -71 -15 -141 -41 -207c-5 -8 -13 -12 -20 -12c-13 0 -26 11 -23 27c26 61 42 126 42 192c0 103 -94 208 -165 283v250z" fill="currentColor"/>
</g>
<g transform="translate(88.2660, 32.9482)">
<rect x="-0.0650" y="-1.5000" width="0.1300" height="3.3139" ry="0.0400" fill="currentColor"/>
</g>
<a style="color:inherit;" xlink:href="textedit://C:/Users/har1sf0x/Documents/GitHub/musicSchoolTampouras.github.io/sheets/ly/%ce%a0%ce%bf%ce%b4%ce%b1%cf%81%ce%ac%ce%ba%ce%b9_%ce%b2.ly:23:87:88">
<g transform="translate(87.0268, 34.9482)">
<path transform="scale(0.0040, -0.0040)" d="M218 136c55 0 108 -28 108 -89c0 -71 -55 -121 -102 -149c-35 -21 -75 -34 -116 -34c-55 0 -108 28 -108 89c0 71 55 121 102 149c35 21 75 34 116 34z" fill="currentColor"/>
</g>
</a>
<a style="color:inherit;" xlink:href="textedit://C:/Users/har1sf0x/Documents/GitHub/musicSchoolTampouras.github.io/sheets/ly/%ce%a0%ce%bf%ce%b4%ce%b1%cf%81%ce%ac%ce%ba%ce%b9_%ce%b2.ly:23:23:24">
<g transform="scale(1.0000, -1.0000)">
<g transform="translate(68.5869, -28.6292)">
<line stroke-linejoin="round" stroke-linecap="round" stroke-width="0.1380" stroke="currentColor" x1="0" y1="0" x2="0" y2="-1.6000"/>
</g>
<g transform="translate(68.5869, -28.1792)">
<path transform="scale(0.0036, -0.0036)" d="M-103 250c5 0 10 -1 14 -5c40 -35 70 -79 89 -128c19 49 49 93 89 128c4 4 9 5 14 5c11 0 22 -10 22 -22c0 -6 -2 -12 -7 -16c-61 -54 -96 -131 -96 -212c0 -14 -11 -22 -22 -22s-22 8 -22 22c0 81 -35 158 -96 212c-5 4 -7 10 -7 16c0 12 11 22 22 22z" fill="currentColor"/>
</g>
</g>
<g transform="translate(68.5869, 28.6792)">
<path transform="scale(0.0040, -0.0040)" d="M-105 -250c-11 0 -20 9 -20 20c0 6 2 11 7 15c62 54 98 133 98 215c0 13 10 20 20 20s20 -7 20 -20c0 -82 36 -161 98 -215c5 -4 7 -9 7 -15c0 -11 -9 -20 -20 -20c-5 0 -9 2 -13 5c-41 36 -73 82 -92 133c-19 -51 -51 -97 -92 -133c-4 -3 -8 -5 -13 -5z" fill="currentColor"/>
</g>
<g transform="translate(68.5869, 29.1792)">
<path transform="scale(0.0040, -0.0040)" d="M-105 -250c-11 0 -20 9 -20 20c0 6 2 11 7 15c62 54 98 133 98 215c0 13 10 20 20 20s20 -7 20 -20c0 -82 36 -161 98 -215c5 -4 7 -9 7 -15c0 -11 -9 -20 -20 -20c-5 0 -9 2 -13 5c-41 36 -73 82 -92 133c-19 -51 -51 -97 -92 -133c-4 -3 -8 -5 -13 -5z" fill="currentColor"/>
</g>
</a>
<g transform="translate(73.3569, 32.9482)">
<rect x="-0.0650" y="-1.5000" width="0.1300" height="3.3139" ry="0.0400" fill="currentColor"/>
</g>
<a style="color:inherit;" xlink:href="textedit://C:/Users/har1sf0x/Documents/GitHub/musicSchoolTampouras.github.io/sheets/ly/%ce%a0%ce%bf%ce%b4%ce%b1%cf%81%ce%ac%ce%ba%ce%b9_%ce%b2.ly:23:36:37">
<g transform="translate(72.1177, 34.9482)">
<path transform="scale(0.0040, -0.0040)" d="M218 136c55 0 108 -28 108 -89c0 -71 -55 -121 -102 -149c-35 -21 -75 -34 -116 -34c-55 0 -108 28 -108 89c0 71 55 121 102 149c35 21 75 34 116 34z" fill="currentColor"/>
</g>
</a>
<g transform="translate(69.1740, 32.9482)">
<rect x="-0.0650" y="-1.0000" width="0.1300" height="3.3139" ry="0.0400" fill="currentColor"/>
</g>
<g transform="translate(73.4219, 31.4882)">
<path transform="scale(0.0040, -0.0040)" d="M0 0v-250h-16v250h16zM0 0c0 -197 207 -336 207 -533c0 -71 -15 -141 -41 -207c-5 -8 -13 -12 -20 -12c-13 0 -26 11 -23 27c26 61 42 126 42 192c0 103 -94 208 -165 283v250z" fill="currentColor"/>
</g>
<a style="color:inherit;" xlink:href="textedit://C:/Users/har1sf0x/Documents/GitHub/musicSchoolTampouras.github.io/sheets/ly/%ce%a0%ce%bf%ce%b4%ce%b1%cf%81%ce%ac%ce%ba%ce%b9_%ce%b2.ly:23:19:20">
<g transform="translate(67.9348, 35.4482)">
<path transform="scale(0.0040, -0.0040)" d="M218 136c55 0 108 -28 108 -89c0 -71 -55 -121 -102 -149c-35 -21 -75 -34 -116 -34c-55 0 -108 28 -108 89c0 71 55 121 102 149c35 21 75 34 116 34z" fill="currentColor"/>
</g>
</a>
<a style="color:inherit;" xlink:href="textedit://C:/Users/har1sf0x/Documents/GitHub/musicSchoolTampouras.github.io/sheets/ly/%ce%a0%ce%bf%ce%b4%ce%b1%cf%81%ce%ac%ce%ba%ce%b9_%ce%b2.ly:23:86:87">
<g transform="translate(83.0939, 32.9482)">
<path stroke-width="0.0800" stroke-linejoin="round" stroke-linecap="round" stroke="currentColor" fill="currentColor" d="M0.5603 2.1950C1.3256 3.2928 3.3428 3.7288 4.4932 3.0450L4.4932 3.0450C3.3681 3.6115 1.3510 3.1755 0.5603 2.1950z"/>
</g>
</a>
<a style="color:inherit;" xlink:href="textedit://C:/Users/har1sf0x/Documents/GitHub/musicSchoolTampouras.github.io/sheets/ly/%ce%a0%ce%bf%ce%b4%ce%b1%cf%81%ce%ac%ce%ba%ce%b9_%ce%b2.ly:23:48:49">
<g transform="translate(76.3637, 37.4802)">
<path transform="scale(0.0022, -0.0022)" d="M155 471c-34 0 -71 -8 -71 -38c0 -19 32 -23 32 -42c0 -28 -23 -51 -51 -51s-51 23 -51 51c0 67 68 109 141 109c93 0 174 -31 174 -113c0 -41 -6 -77 -42 -94c-11 -5 -17 -16 -17 -27s6 -22 17 -27c40 -19 59 -53 59 -98c0 -94 -83 -141 -186 -141
c-82 0 -160 45 -160 119c0 32 26 58 58 58s58 -26 58 -58c0 -22 -36 -26 -36 -48c0 -33 42 -42 80 -42c46 0 56 58 56 112v38c0 40 -4 69 -43 69h-74c-12 0 -18 9 -18 18s6 18 18 18h74c40 0 43 31 43 73v30c0 50 -16 84 -61 84z" fill="currentColor"/>
</g>
<g transform="translate(76.7563, 36.9189)">
<circle stroke-linejoin="round" stroke-linecap="round" fill="none" stroke="currentColor" stroke-width="0.1000" r="0.7735"/>
</g>
</a>
<g transform="translate(77.3434, 32.9482)">
<rect x="-0.0650" y="-2.0000" width="0.1300" height="3.3139" ry="0.0400" fill="currentColor"/>
</g>
<a style="color:inherit;" xlink:href="textedit://C:/Users/har1sf0x/Documents/GitHub/musicSchoolTampouras.github.io/sheets/ly/%ce%a0%ce%bf%ce%b4%ce%b1%cf%81%ce%ac%ce%ba%ce%b9_%ce%b2.ly:23:50:51">
<g transform="translate(76.7563, 29.7698)">
<line stroke-linejoin="round" stroke-linecap="round" stroke-width="0.1380" stroke="currentColor" x1="0" y1="0" x2="0" y2="-1.6000"/>
</g>
<g transform="translate(76.7563, 30.2198)">
<path transform="scale(0.0036, -0.0036)" d="M-103 250c5 0 10 -1 14 -5c40 -35 70 -79 89 -128c19 49 49 93 89 128c4 4 9 5 14 5c11 0 22 -10 22 -22c0 -6 -2 -12 -7 -16c-61 -54 -96 -131 -96 -212c0 -14 -11 -22 -22 -22s-22 8 -22 22c0 81 -35 158 -96 212c-5 4 -7 10 -7 16c0 12 11 22 22 22z" fill="currentColor"/>
</g>
</a>
<a style="color:inherit;" xlink:href="textedit://C:/Users/har1sf0x/Documents/GitHub/musicSchoolTampouras.github.io/sheets/ly/%ce%a0%ce%bf%ce%b4%ce%b1%cf%81%ce%ac%ce%ba%ce%b9_%ce%b2.ly:23:44:45">
<g transform="translate(76.1042, 34.4482)">
<path transform="scale(0.0040, -0.0040)" d="M218 136c55 0 108 -28 108 -89c0 -71 -55 -121 -102 -149c-35 -21 -75 -34 -116 -34c-55 0 -108 28 -108 89c0 71 55 121 102 149c35 21 75 34 116 34z" fill="currentColor"/>
</g>
</a>
<a style="color:inherit;" xlink:href="textedit://C:/Users/har1sf0x/Documents/GitHub/musicSchoolTampouras.github.io/sheets/ly/%ce%a0%ce%bf%ce%b4%ce%b1%cf%81%ce%ac%ce%ba%ce%b9_%ce%b2.ly:24:65:66">
<g transform="translate(107.4819, 35.4482)">
<path transform="scale(0.0040, -0.0040)" d="M218 136c55 0 108 -28 108 -89c0 -71 -55 -121 -102 -149c-35 -21 -75 -34 -116 -34c-55 0 -108 28 -108 89c0 71 55 121 102 149c35 21 75 34 116 34z" fill="currentColor"/>
</g>
</a>
<g transform="translate(110.4753, 36.4482)">
<path transform="scale(0.0040, -0.0040)" d="M0 0c0 31 25 56 56 56s56 -25 56 -56s-25 -56 -56 -56s-56 25 -56 56z" fill="currentColor"/>
</g>
<g transform="translate(108.7211, 32.9482)">
<rect x="-0.0650" y="-1.0000" width="0.1300" height="4.8139" ry="0.0400" fill="currentColor"/>
</g>
<g transform="translate(110.4753, 34.4482)">
<path transform="scale(0.0040, -0.0040)" d="M0 0c0 31 25 56 56 56s56 -25 56 -56s-25 -56 -56 -56s-56 25 -56 56z" fill="currentColor"/>
</g>
<a style="color:inherit;" xlink:href="textedit://C:/Users/har1sf0x/Documents/GitHub/musicSchoolTampouras.github.io/sheets/ly/%ce%a0%ce%bf%ce%b4%ce%b1%cf%81%ce%ac%ce%ba%ce%b9_%ce%b2.ly:24:77:78">
<g transform="scale(1.0000, -1.0000)">
<g transform="translate(108.1340, -28.6292)">
<line stroke-linejoin="round" stroke-linecap="round" stroke-width="0.1380" stroke="currentColor" x1="0" y1="0" x2="0" y2="-1.6000"/>
</g>
<g transform="translate(108.1340, -28.1792)">
<path transform="scale(0.0036, -0.0036)" d="M-103 250c5 0 10 -1 14 -5c40 -35 70 -79 89 -128c19 49 49 93 89 128c4 4 9 5 14 5c11 0 22 -10 22 -22c0 -6 -2 -12 -7 -16c-61 -54 -96 -131 -96 -212c0 -14 -11 -22 -22 -22s-22 8 -22 22c0 81 -35 158 -96 212c-5 4 -7 10 -7 16c0 12 11 22 22 22z" fill="currentColor"/>
</g>
</g>
</a>
<g color="rgb(50.0000%, 50.0000%, 50.0000%)">
<a style="color:inherit;" xlink:href="textedit://C:/Users/har1sf0x/Documents/GitHub/musicSchoolTampouras.github.io/sheets/ly/%ce%a0%ce%bf%ce%b4%ce%b1%cf%81%ce%ac%ce%ba%ce%b9_%ce%b2.ly:24:65:66">
<g transform="translate(108.7211, 35.4482)">
<path transform="scale(0.0040, -0.0040)" d="M218 136c55 0 108 -28 108 -89c0 -71 -55 -121 -102 -149c-35 -21 -75 -34 -116 -34c-55 0 -108 28 -108 89c0 71 55 121 102 149c35 21 75 34 116 34z" fill="currentColor"/>
</g>
</a>
</g>
<g color="rgb(50.0000%, 50.0000%, 50.0000%)">
<a style="color:inherit;" xlink:href="textedit://C:/Users/har1sf0x/Documents/GitHub/musicSchoolTampouras.github.io/sheets/ly/%ce%a0%ce%bf%ce%b4%ce%b1%cf%81%ce%ac%ce%ba%ce%b9_%ce%b2.ly:24:65:66">
<g transform="translate(107.4819, 36.9482)">
<path transform="scale(0.0040, -0.0040)" d="M218 136c55 0 108 -28 108 -89c0 -71 -55 -121 -102 -149c-35 -21 -75 -34 -116 -34c-55 0 -108 28 -108 89c0 71 55 121 102 149c35 21 75 34 116 34z" fill="currentColor"/>
</g>
</a>
</g>
<g transform="translate(110.4753, 35.4482)">
<path transform="scale(0.0040, -0.0040)" d="M0 0c0 31 25 56 56 56s56 -25 56 -56s-25 -56 -56 -56s-56 25 -56 56z" fill="currentColor"/>
</g>
<a style="color:inherit;" xlink:href="textedit://C:/Users/har1sf0x/Documents/GitHub/musicSchoolTampouras.github.io/sheets/ly/%ce%a0%ce%bf%ce%b4%ce%b1%cf%81%ce%ac%ce%ba%ce%b9_%ce%b2.ly:23:61:62">
<g transform="translate(76.1042, 32.9482)">
<path stroke-width="0.0800" stroke-linejoin="round" stroke-linecap="round" stroke="currentColor" fill="currentColor" d="M0.6005 2.5450C1.4961 3.5987 3.6647 3.8579 4.7834 3.0450L4.7834 3.0450C3.6789 3.7387 1.5103 3.4795 0.6005 2.5450z"/>
</g>
</a>
<a style="color:inherit;" xlink:href="textedit://C:/Users/har1sf0x/Documents/GitHub/musicSchoolTampouras.github.io/sheets/ly/%ce%a0%ce%bf%ce%b4%ce%b1%cf%81%ce%ac%ce%ba%ce%b9_%ce%b2.ly:23:35:36">
<g transform="translate(67.9348, 32.9482)">
<path stroke-width="0.0800" stroke-linejoin="round" stroke-linecap="round" stroke="currentColor" fill="currentColor" d="M0.7037 3.5450C1.8224 4.3579 3.9910 4.0987 4.8866 3.0450L4.8866 3.0450C3.9768 3.9795 1.8082 4.2387 0.7037 3.5450z"/>
</g>
</a>
<a style="color:inherit;" xlink:href="textedit://C:/Users/har1sf0x/Documents/GitHub/musicSchoolTampouras.github.io/sheets/ly/%ce%a0%ce%bf%ce%b4%ce%b1%cf%81%ce%ac%ce%ba%ce%b9_%ce%b2.ly:21:75:76">
<g transform="translate(31.6297, 32.9482)">
<path stroke-width="0.0800" stroke-linejoin="round" stroke-linecap="round" stroke="currentColor" fill="currentColor" d="M0.7037 3.5450C1.8224 4.3579 3.9910 4.0987 4.8866 3.0450L4.8866 3.0450C3.9768 3.9795 1.8082 4.2387 0.7037 3.5450z"/>
</g>
</a>
<a style="color:inherit;" xlink:href="textedit://C:/Users/har1sf0x/Documents/GitHub/musicSchoolTampouras.github.io/sheets/ly/%ce%a0%ce%bf%ce%b4%ce%b1%cf%81%ce%ac%ce%ba%ce%b9_%ce%b2.ly:21:34:35">
<g transform="translate(18.4354, 32.9482)">
<path stroke-width="0.0800" stroke-linejoin="round" stroke-linecap="round" stroke="currentColor" fill="currentColor" d="M0.7037 3.5450C1.8224 4.3579 3.9910 4.0987 4.8866 3.0450L4.8866 3.0450C3.9768 3.9795 1.8082 4.2387 0.7037 3.5450z"/>
</g>
</a>
<g transform="translate(99.0316, 35.4482)">
<path transform="scale(0.0040, -0.0040)" d="M0 0c0 31 25 56 56 56s56 -25 56 -56s-25 -56 -56 -56s-56 25 -56 56z" fill="currentColor"/>
</g>
<g transform="translate(99.0316, 36.4482)">
<path transform="scale(0.0040, -0.0040)" d="M0 0c0 31 25 56 56 56s56 -25 56 -56s-25 -56 -56 -56s-56 25 -56 56z" fill="currentColor"/>
</g>
<g transform="translate(97.2774, 32.9482)">
<rect x="-0.0650" y="-1.0000" width="0.1300" height="4.8139" ry="0.0400" fill="currentColor"/>
</g>
<g transform="translate(99.0316, 34.4482)">
<path transform="scale(0.0040, -0.0040)" d="M0 0c0 31 25 56 56 56s56 -25 56 -56s-25 -56 -56 -56s-56 25 -56 56z" fill="currentColor"/>
</g>
<a style="color:inherit;" xlink:href="textedit://C:/Users/har1sf0x/Documents/GitHub/musicSchoolTampouras.github.io/sheets/ly/%ce%a0%ce%bf%ce%b4%ce%b1%cf%81%ce%ac%ce%ba%ce%b9_%ce%b2.ly:24:30:31">
<g transform="scale(1.0000, -1.0000)">
<g transform="translate(96.6903, -28.6292)">
<line stroke-linejoin="round" stroke-linecap="round" stroke-width="0.1380" stroke="currentColor" x1="0" y1="0" x2="0" y2="-1.6000"/>
</g>
<g transform="translate(96.6903, -28.1792)">
<path transform="scale(0.0036, -0.0036)" d="M-103 250c5 0 10 -1 14 -5c40 -35 70 -79 89 -128c19 49 49 93 89 128c4 4 9 5 14 5c11 0 22 -10 22 -22c0 -6 -2 -12 -7 -16c-61 -54 -96 -131 -96 -212c0 -14 -11 -22 -22 -22s-22 8 -22 22c0 81 -35 158 -96 212c-5 4 -7 10 -7 16c0 12 11 22 22 22z" fill="currentColor"/>
</g>
</g>
<g transform="translate(96.6903, 28.6792)">
<path transform="scale(0.0040, -0.0040)" d="M-105 -250c-11 0 -20 9 -20 20c0 6 2 11 7 15c62 54 98 133 98 215c0 13 10 20 20 20s20 -7 20 -20c0 -82 36 -161 98 -215c5 -4 7 -9 7 -15c0 -11 -9 -20 -20 -20c-5 0 -9 2 -13 5c-41 36 -73 82 -92 133c-19 -51 -51 -97 -92 -133c-4 -3 -8 -5 -13 -5z" fill="currentColor"/>
</g>
<g transform="translate(96.6903, 29.1792)">
<path transform="scale(0.0040, -0.0040)" d="M-105 -250c-11 0 -20 9 -20 20c0 6 2 11 7 15c62 54 98 133 98 215c0 13 10 20 20 20s20 -7 20 -20c0 -82 36 -161 98 -215c5 -4 7 -9 7 -15c0 -11 -9 -20 -20 -20c-5 0 -9 2 -13 5c-41 36 -73 82 -92 133c-19 -51 -51 -97 -92 -133c-4 -3 -8 -5 -13 -5z" fill="currentColor"/>
</g>
</a>
<g color="rgb(50.0000%, 50.0000%, 50.0000%)">
<a style="color:inherit;" xlink:href="textedit://C:/Users/har1sf0x/Documents/GitHub/musicSchoolTampouras.github.io/sheets/ly/%ce%a0%ce%bf%ce%b4%ce%b1%cf%81%ce%ac%ce%ba%ce%b9_%ce%b2.ly:24:18:19">
<g transform="translate(97.2774, 35.4482)">
<path transform="scale(0.0040, -0.0040)" d="M218 136c55 0 108 -28 108 -89c0 -71 -55 -121 -102 -149c-35 -21 -75 -34 -116 -34c-55 0 -108 28 -108 89c0 71 55 121 102 149c35 21 75 34 116 34z" fill="currentColor"/>
</g>
</a>
</g>
<g color="rgb(50.0000%, 50.0000%, 50.0000%)">
<a style="color:inherit;" xlink:href="textedit://C:/Users/har1sf0x/Documents/GitHub/musicSchoolTampouras.github.io/sheets/ly/%ce%a0%ce%bf%ce%b4%ce%b1%cf%81%ce%ac%ce%ba%ce%b9_%ce%b2.ly:24:18:19">
<g transform="translate(96.0382, 36.9482)">
<path transform="scale(0.0040, -0.0040)" d="M218 136c55 0 108 -28 108 -89c0 -71 -55 -121 -102 -149c-35 -21 -75 -34 -116 -34c-55 0 -108 28 -108 89c0 71 55 121 102 149c35 21 75 34 116 34z" fill="currentColor"/>
</g>
</a>
</g>
<a style="color:inherit;" xlink:href="textedit://C:/Users/har1sf0x/Documents/GitHub/musicSchoolTampouras.github.io/sheets/ly/%ce%a0%ce%bf%ce%b4%ce%b1%cf%81%ce%ac%ce%ba%ce%b9_%ce%b2.ly:24:18:19">
<g transform="translate(96.0382, 35.4482)">
<path transform="scale(0.0040, -0.0040)" d="M218 136c55 0 108 -28 108 -89c0 -71 -55 -121 -102 -149c-35 -21 -75 -34 -116 -34c-55 0 -108 28 -108 89c0 71 55 121 102 149c35 21 75 34 116 34z" fill="currentColor"/>
</g>
</a>
<g transform="translate(105.4505, 35.4482)">
<path transform="scale(0.0040, -0.0040)" d="M0 0c0 31 25 56 56 56s56 -25 56 -56s-25 -56 -56 -56s-56 25 -56 56z" fill="currentColor"/>
</g>
<g transform="translate(105.4505, 36.4482)">
<path transform="scale(0.0040, -0.0040)" d="M0 0c0 31 25 56 56 56s56 -25 56 -56s-25 -56 -56 -56s-56 25 -56 56z" fill="currentColor"/>
</g>
<g transform="translate(103.6963, 32.9482)">
<rect x="-0.0650" y="-1.0000" width="0.1300" height="4.8139" ry="0.0400" fill="currentColor"/>
</g>
<g transform="translate(105.4505, 34.4482)">
<path transform="scale(0.0040, -0.0040)" d="M0 0c0 31 25 56 56 56s56 -25 56 -56s-25 -56 -56 -56s-56 25 -56 56z" fill="currentColor"/>
</g>
<a style="color:inherit;" xlink:href="textedit://C:/Users/har1sf0x/Documents/GitHub/musicSchoolTampouras.github.io/sheets/ly/%ce%a0%ce%bf%ce%b4%ce%b1%cf%81%ce%ac%ce%ba%ce%b9_%ce%b2.ly:24:54:55">
<g transform="translate(103.1092, 29.7698)">
<line stroke-linejoin="round" stroke-linecap="round" stroke-width="0.1380" stroke="currentColor" x1="0" y1="0" x2="0" y2="-1.6000"/>
</g>
<g transform="translate(103.1092, 30.2198)">
<path transform="scale(0.0036, -0.0036)" d="M-103 250c5 0 10 -1 14 -5c40 -35 70 -79 89 -128c19 49 49 93 89 128c4 4 9 5 14 5c11 0 22 -10 22 -22c0 -6 -2 -12 -7 -16c-61 -54 -96 -131 -96 -212c0 -14 -11 -22 -22 -22s-22 8 -22 22c0 81 -35 158 -96 212c-5 4 -7 10 -7 16c0 12 11 22 22 22z" fill="currentColor"/>
</g>
</a>
<g color="rgb(50.0000%, 50.0000%, 50.0000%)">
<a style="color:inherit;" xlink:href="textedit://C:/Users/har1sf0x/Documents/GitHub/musicSchoolTampouras.github.io/sheets/ly/%ce%a0%ce%bf%ce%b4%ce%b1%cf%81%ce%ac%ce%ba%ce%b9_%ce%b2.ly:24:42:43">
<g transform="translate(103.6963, 35.4482)">
<path transform="scale(0.0040, -0.0040)" d="M218 136c55 0 108 -28 108 -89c0 -71 -55 -121 -102 -149c-35 -21 -75 -34 -116 -34c-55 0 -108 28 -108 89c0 71 55 121 102 149c35 21 75 34 116 34z" fill="currentColor"/>
</g>
</a>
</g>
<g color="rgb(50.0000%, 50.0000%, 50.0000%)">
<a style="color:inherit;" xlink:href="textedit://C:/Users/har1sf0x/Documents/GitHub/musicSchoolTampouras.github.io/sheets/ly/%ce%a0%ce%bf%ce%b4%ce%b1%cf%81%ce%ac%ce%ba%ce%b9_%ce%b2.ly:24:42:43">
<g transform="translate(102.4570, 36.9482)">
<path transform="scale(0.0040, -0.0040)" d="M218 136c55 0 108 -28 108 -89c0 -71 -55 -121 -102 -149c-35 -21 -75 -34 -116 -34c-55 0 -108 28 -108 89c0 71 55 121 102 149c35 21 75 34 116 34z" fill="currentColor"/>
</g>
</a>
</g>
<a style="color:inherit;" xlink:href="textedit://C:/Users/har1sf0x/Documents/GitHub/musicSchoolTampouras.github.io/sheets/ly/%ce%a0%ce%bf%ce%b4%ce%b1%cf%81%ce%ac%ce%ba%ce%b9_%ce%b2.ly:24:42:43">
<g transform="translate(102.4570, 35.4482)">
<path transform="scale(0.0040, -0.0040)" d="M218 136c55 0 108 -28 108 -89c0 -71 -55 -121 -102 -149c-35 -21 -75 -34 -116 -34c-55 0 -108 28 -108 89c0 71 55 121 102 149c35 21 75 34 116 34z" fill="currentColor"/>
</g>
</a>
<a style="color:inherit;" xlink:href="textedit://C:/Users/har1sf0x/Documents/GitHub/musicSchoolTampouras.github.io/sheets/ly/%ce%a0%ce%bf%ce%b4%ce%b1%cf%81%ce%ac%ce%ba%ce%b9_%ce%b2.ly:21:59:60">
<g transform="translate(31.6297, 35.4482)">
<path transform="scale(0.0040, -0.0040)" d="M218 136c55 0 108 -28 108 -89c0 -71 -55 -121 -102 -149c-35 -21 -75 -34 -116 -34c-55 0 -108 28 -108 89c0 71 55 121 102 149c35 21 75 34 116 34z" fill="currentColor"/>
</g>
</a>
<g transform="translate(27.8440, 32.9482)">
<rect x="-0.0650" y="-0.5000" width="0.1300" height="3.3139" ry="0.0400" fill="currentColor"/>
</g>
<g transform="translate(28.3590, 35.4482)">
<path transform="scale(0.0040, -0.0040)" d="M0 0c0 31 25 56 56 56s56 -25 56 -56s-25 -56 -56 -56s-56 25 -56 56z" fill="currentColor"/>
</g>
<a style="color:inherit;" xlink:href="textedit://C:/Users/har1sf0x/Documents/GitHub/musicSchoolTampouras.github.io/sheets/ly/%ce%a0%ce%bf%ce%b4%ce%b1%cf%81%ce%ac%ce%ba%ce%b9_%ce%b2.ly:21:48:49">
<g transform="translate(27.2569, 29.7698)">
<line stroke-linejoin="round" stroke-linecap="round" stroke-width="0.1380" stroke="currentColor" x1="0" y1="0" x2="0" y2="-1.6000"/>
</g>
<g transform="translate(27.2569, 30.2198)">
<path transform="scale(0.0036, -0.0036)" d="M-103 250c5 0 10 -1 14 -5c40 -35 70 -79 89 -128c19 49 49 93 89 128c4 4 9 5 14 5c11 0 22 -10 22 -22c0 -6 -2 -12 -7 -16c-61 -54 -96 -131 -96 -212c0 -14 -11 -22 -22 -22s-22 8 -22 22c0 81 -35 158 -96 212c-5 4 -7 10 -7 16c0 12 11 22 22 22z" fill="currentColor"/>
</g>
</a>
<g transform="translate(37.0518, 32.9482)">
<rect x="-0.0650" y="-1.5000" width="0.1300" height="3.3139" ry="0.0400" fill="currentColor"/>
</g>
<a style="color:inherit;" xlink:href="textedit://C:/Users/har1sf0x/Documents/GitHub/musicSchoolTampouras.github.io/sheets/ly/%ce%a0%ce%bf%ce%b4%ce%b1%cf%81%ce%ac%ce%ba%ce%b9_%ce%b2.ly:22:7:8">
<g transform="translate(40.4512, 29.7698)">
<line stroke-linejoin="round" stroke-linecap="round" stroke-width="0.1380" stroke="currentColor" x1="0" y1="0" x2="0" y2="-1.6000"/>
</g>
<g transform="translate(40.4512, 30.2198)">
<path transform="scale(0.0036, -0.0036)" d="M-103 250c5 0 10 -1 14 -5c40 -35 70 -79 89 -128c19 49 49 93 89 128c4 4 9 5 14 5c11 0 22 -10 22 -22c0 -6 -2 -12 -7 -16c-61 -54 -96 -131 -96 -212c0 -14 -11 -22 -22 -22s-22 8 -22 22c0 81 -35 158 -96 212c-5 4 -7 10 -7 16c0 12 11 22 22 22z" fill="currentColor"/>
</g>
</a>
<a style="color:inherit;" xlink:href="textedit://C:/Users/har1sf0x/Documents/GitHub/musicSchoolTampouras.github.io/sheets/ly/%ce%a0%ce%bf%ce%b4%ce%b1%cf%81%ce%ac%ce%ba%ce%b9_%ce%b2.ly:22:2:3">
<g transform="translate(39.7991, 35.9482)">
<path transform="scale(0.0040, -0.0040)" d="M218 136c55 0 108 -28 108 -89c0 -71 -55 -121 -102 -149c-35 -21 -75 -34 -116 -34c-55 0 -108 28 -108 89c0 71 55 121 102 149c35 21 75 34 116 34z" fill="currentColor"/>
</g>
</a>
<g transform="translate(37.1168, 31.4882)">
<path transform="scale(0.0040, -0.0040)" d="M0 0v-250h-16v250h16zM0 0c0 -197 207 -336 207 -533c0 -71 -15 -141 -41 -207c-5 -8 -13 -12 -20 -12c-13 0 -26 11 -23 27c26 61 42 126 42 192c0 103 -94 208 -165 283v250z" fill="currentColor"/>
</g>
<a style="color:inherit;" xlink:href="textedit://C:/Users/har1sf0x/Documents/GitHub/musicSchoolTampouras.github.io/sheets/ly/%ce%a0%ce%bf%ce%b4%ce%b1%cf%81%ce%ac%ce%ba%ce%b9_%ce%b2.ly:21:43:44">
<g transform="translate(26.6048, 35.9482)">
<path transform="scale(0.0040, -0.0040)" d="M218 136c55 0 108 -28 108 -89c0 -71 -55 -121 -102 -149c-35 -21 -75 -34 -116 -34c-55 0 -108 28 -108 89c0 71 55 121 102 149c35 21 75 34 116 34z" fill="currentColor"/>
</g>
</a>
<a style="color:inherit;" xlink:href="textedit://C:/Users/har1sf0x/Documents/GitHub/musicSchoolTampouras.github.io/sheets/ly/%ce%a0%ce%bf%ce%b4%ce%b1%cf%81%ce%ac%ce%ba%ce%b9_%ce%b2.ly:21:76:77">
<g transform="translate(35.8126, 34.9482)">
<path transform="scale(0.0040, -0.0040)" d="M218 136c55 0 108 -28 108 -89c0 -71 -55 -121 -102 -149c-35 -21 -75 -34 -116 -34c-55 0 -108 28 -108 89c0 71 55 121 102 149c35 21 75 34 116 34z" fill="currentColor"/>
</g>
</a>
<g transform="translate(32.8689, 32.9482)">
<rect x="-0.0650" y="-1.0000" width="0.1300" height="3.3139" ry="0.0400" fill="currentColor"/>
</g>
<a style="color:inherit;" xlink:href="textedit://C:/Users/har1sf0x/Documents/GitHub/musicSchoolTampouras.github.io/sheets/ly/%ce%a0%ce%bf%ce%b4%ce%b1%cf%81%ce%ac%ce%ba%ce%b9_%ce%b2.ly:21:63:64">
<g transform="scale(1.0000, -1.0000)">
<g transform="translate(32.2818, -28.6292)">
<line stroke-linejoin="round" stroke-linecap="round" stroke-width="0.1380" stroke="currentColor" x1="0" y1="0" x2="0" y2="-1.6000"/>
</g>
<g transform="translate(32.2818, -28.1792)">
<path transform="scale(0.0036, -0.0036)" d="M-103 250c5 0 10 -1 14 -5c40 -35 70 -79 89 -128c19 49 49 93 89 128c4 4 9 5 14 5c11 0 22 -10 22 -22c0 -6 -2 -12 -7 -16c-61 -54 -96 -131 -96 -212c0 -14 -11 -22 -22 -22s-22 8 -22 22c0 81 -35 158 -96 212c-5 4 -7 10 -7 16c0 12 11 22 22 22z" fill="currentColor"/>
</g>
</g>
<g transform="translate(32.2818, 28.6792)">
<path transform="scale(0.0040, -0.0040)" d="M-105 -250c-11 0 -20 9 -20 20c0 6 2 11 7 15c62 54 98 133 98 215c0 13 10 20 20 20s20 -7 20 -20c0 -82 36 -161 98 -215c5 -4 7 -9 7 -15c0 -11 -9 -20 -20 -20c-5 0 -9 2 -13 5c-41 36 -73 82 -92 133c-19 -51 -51 -97 -92 -133c-4 -3 -8 -5 -13 -5z" fill="currentColor"/>
</g>
<g transform="translate(32.2818, 29.1792)">
<path transform="scale(0.0040, -0.0040)" d="M-105 -250c-11 0 -20 9 -20 20c0 6 2 11 7 15c62 54 98 133 98 215c0 13 10 20 20 20s20 -7 20 -20c0 -82 36 -161 98 -215c5 -4 7 -9 7 -15c0 -11 -9 -20 -20 -20c-5 0 -9 2 -13 5c-41 36 -73 82 -92 133c-19 -51 -51 -97 -92 -133c-4 -3 -8 -5 -13 -5z" fill="currentColor"/>
</g>
</a>
<g transform="translate(14.6498, 32.9482)">
<rect x="-0.0650" y="-0.5000" width="0.1300" height="3.3139" ry="0.0400" fill="currentColor"/>
</g>
<g transform="translate(15.1648, 35.4482)">
<path transform="scale(0.0040, -0.0040)" d="M0 0c0 31 25 56 56 56s56 -25 56 -56s-25 -56 -56 -56s-56 25 -56 56z" fill="currentColor"/>
</g>
<a style="color:inherit;" xlink:href="textedit://C:/Users/har1sf0x/Documents/GitHub/musicSchoolTampouras.github.io/sheets/ly/%ce%a0%ce%bf%ce%b4%ce%b1%cf%81%ce%ac%ce%ba%ce%b9_%ce%b2.ly:21:7:8">
<g transform="translate(14.0627, 29.7698)">
<line stroke-linejoin="round" stroke-linecap="round" stroke-width="0.1380" stroke="currentColor" x1="0" y1="0" x2="0" y2="-1.6000"/>
</g>
<g transform="translate(14.0627, 30.2198)">
<path transform="scale(0.0036, -0.0036)" d="M-103 250c5 0 10 -1 14 -5c40 -35 70 -79 89 -128c19 49 49 93 89 128c4 4 9 5 14 5c11 0 22 -10 22 -22c0 -6 -2 -12 -7 -16c-61 -54 -96 -131 -96 -212c0 -14 -11 -22 -22 -22s-22 8 -22 22c0 81 -35 158 -96 212c-5 4 -7 10 -7 16c0 12 11 22 22 22z" fill="currentColor"/>
</g>
</a>
<a style="color:inherit;" xlink:href="textedit://C:/Users/har1sf0x/Documents/GitHub/musicSchoolTampouras.github.io/sheets/ly/%ce%a0%ce%bf%ce%b4%ce%b1%cf%81%ce%ac%ce%ba%ce%b9_%ce%b2.ly:21:2:3">
<g transform="translate(13.4106, 35.9482)">
<path transform="scale(0.0040, -0.0040)" d="M218 136c55 0 108 -28 108 -89c0 -71 -55 -121 -102 -149c-35 -21 -75 -34 -116 -34c-55 0 -108 28 -108 89c0 71 55 121 102 149c35 21 75 34 116 34z" fill="currentColor"/>
</g>
</a>
<a style="color:inherit;" xlink:href="textedit://C:/Users/har1sf0x/Documents/GitHub/musicSchoolTampouras.github.io/sheets/ly/%ce%a0%ce%bf%ce%b4%ce%b1%cf%81%ce%ac%ce%ba%ce%b9_%ce%b2.ly:20:18:19">
<g transform="translate(5.6906, 29.6507)">
<text font-family="serif" font-size="2.6163" text-anchor="start" fill="currentColor">
<tspan>B</tspan>
</text>
</g>
</a>
<g transform="translate(10.1106, 31.4482)">
<path transform="scale(0.0040, -0.0040)" d="M143 41c-1 33 -22 63 -53 63c-29 0 -43 -34 -43 -67c0 -59 48 -101 93 -139c3 22 4 44 4 66v11zM185 -138c0 -14 -10 -25 -23 -25c-21 0 -30 25 -45 38c-61 52 -147 89 -147 169c0 54 37 102 89 102c33 0 66 -13 91 -34l-7 345c8 5 18 8 27 8s19 -3 27 -8z" fill="currentColor"/>
</g>
<g transform="translate(6.4906, 33.9482)">
<path transform="scale(0.0040, -0.0040)" d="M266 -635h-6c-108 0 -195 88 -195 197c0 58 53 103 112 103c54 0 95 -47 95 -103c0 -52 -43 -95 -95 -95c-11 0 -21 2 -31 6c26 -39 68 -65 117 -65h4zM461 -203c68 24 113 95 113 164c0 90 -66 179 -173 190c24 -116 46 -231 60 -354zM74 28c0 -135 129 -247 264 -247
c28 0 55 2 82 6c-14 127 -37 245 -63 364c-79 -8 -124 -61 -124 -119c0 -44 25 -91 81 -123c5 -5 7 -10 7 -15c0 -11 -10 -22 -22 -22c-3 0 -6 1 -9 2c-80 43 -117 115 -117 185c0 88 58 174 160 197c-14 58 -29 117 -46 175c-107 -121 -213 -243 -213 -403zM335 -262
c-188 0 -333 172 -333 374c0 177 131 306 248 441c-19 62 -37 125 -45 190c-6 52 -7 104 -7 156c0 115 55 224 149 292c6 5 14 5 20 0c71 -84 133 -245 133 -358c0 -143 -86 -255 -180 -364c21 -68 39 -138 56 -207c4 0 9 1 13 1c155 0 256 -128 256 -261
c0 -76 -33 -154 -107 -210c-22 -17 -47 -28 -73 -36c3 -35 5 -70 5 -105c0 -19 -1 -39 -2 -58c-7 -119 -88 -225 -202 -228l1 43c93 2 153 92 159 191c1 18 2 37 2 55c0 31 -1 61 -4 92c-29 -5 -58 -8 -89 -8zM428 916c0 55 -4 79 -20 129c-99 -48 -162 -149 -162 -259
c0 -74 18 -133 36 -194c80 97 146 198 146 324z" fill="currentColor"/>
</g>
<g transform="translate(23.9225, 31.4882)">
<path transform="scale(0.0040, -0.0040)" d="M0 0v-250h-16v250h16zM0 0c0 -197 207 -336 207 -533c0 -71 -15 -141 -41 -207c-5 -8 -13 -12 -20 -12c-13 0 -26 11 -23 27c26 61 42 126 42 192c0 103 -94 208 -165 283v250z" fill="currentColor"/>
</g>
<g transform="translate(23.8575, 32.9482)">
<rect x="-0.0650" y="-1.5000" width="0.1300" height="3.3139" ry="0.0400" fill="currentColor"/>
</g>
<a style="color:inherit;" xlink:href="textedit://C:/Users/har1sf0x/Documents/GitHub/musicSchoolTampouras.github.io/sheets/ly/%ce%a0%ce%bf%ce%b4%ce%b1%cf%81%ce%ac%ce%ba%ce%b9_%ce%b2.ly:21:35:36">
<g transform="translate(22.6183, 34.9482)">
<path transform="scale(0.0040, -0.0040)" d="M218 136c55 0 108 -28 108 -89c0 -71 -55 -121 -102 -149c-35 -21 -75 -34 -116 -34c-55 0 -108 28 -108 89c0 71 55 121 102 149c35 21 75 34 116 34z" fill="currentColor"/>
</g>
</a>
<g transform="translate(19.6746, 32.9482)">
<rect x="-0.0650" y="-1.0000" width="0.1300" height="3.3139" ry="0.0400" fill="currentColor"/>
</g>
<a style="color:inherit;" xlink:href="textedit://C:/Users/har1sf0x/Documents/GitHub/musicSchoolTampouras.github.io/sheets/ly/%ce%a0%ce%bf%ce%b4%ce%b1%cf%81%ce%ac%ce%ba%ce%b9_%ce%b2.ly:21:22:23">
<g transform="scale(1.0000, -1.0000)">
<g transform="translate(19.0875, -28.6292)">
<line stroke-linejoin="round" stroke-linecap="round" stroke-width="0.1380" stroke="currentColor" x1="0" y1="0" x2="0" y2="-1.6000"/>
</g>
<g transform="translate(19.0875, -28.1792)">
<path transform="scale(0.0036, -0.0036)" d="M-103 250c5 0 10 -1 14 -5c40 -35 70 -79 89 -128c19 49 49 93 89 128c4 4 9 5 14 5c11 0 22 -10 22 -22c0 -6 -2 -12 -7 -16c-61 -54 -96 -131 -96 -212c0 -14 -11 -22 -22 -22s-22 8 -22 22c0 81 -35 158 -96 212c-5 4 -7 10 -7 16c0 12 11 22 22 22z" fill="currentColor"/>
</g>
</g>
<g transform="translate(19.0875, 28.6792)">
<path transform="scale(0.0040, -0.0040)" d="M-105 -250c-11 0 -20 9 -20 20c0 6 2 11 7 15c62 54 98 133 98 215c0 13 10 20 20 20s20 -7 20 -20c0 -82 36 -161 98 -215c5 -4 7 -9 7 -15c0 -11 -9 -20 -20 -20c-5 0 -9 2 -13 5c-41 36 -73 82 -92 133c-19 -51 -51 -97 -92 -133c-4 -3 -8 -5 -13 -5z" fill="currentColor"/>
</g>
<g transform="translate(19.0875, 29.1792)">
<path transform="scale(0.0040, -0.0040)" d="M-105 -250c-11 0 -20 9 -20 20c0 6 2 11 7 15c62 54 98 133 98 215c0 13 10 20 20 20s20 -7 20 -20c0 -82 36 -161 98 -215c5 -4 7 -9 7 -15c0 -11 -9 -20 -20 -20c-5 0 -9 2 -13 5c-41 36 -73 82 -92 133c-19 -51 -51 -97 -92 -133c-4 -3 -8 -5 -13 -5z" fill="currentColor"/>
</g>
</a>
<a style="color:inherit;" xlink:href="textedit://C:/Users/har1sf0x/Documents/GitHub/musicSchoolTampouras.github.io/sheets/ly/%ce%a0%ce%bf%ce%b4%ce%b1%cf%81%ce%ac%ce%ba%ce%b9_%ce%b2.ly:21:18:19">
<g transform="translate(18.4354, 35.4482)">
<path transform="scale(0.0040, -0.0040)" d="M218 136c55 0 108 -28 108 -89c0 -71 -55 -121 -102 -149c-35 -21 -75 -34 -116 -34c-55 0 -108 28 -108 89c0 71 55 121 102 149c35 21 75 34 116 34z" fill="currentColor"/>
</g>
</a>
<a style="color:inherit;" xlink:href="textedit://C:/Users/har1sf0x/Documents/GitHub/musicSchoolTampouras.github.io/sheets/ly/%ce%a0%ce%bf%ce%b4%ce%b1%cf%81%ce%ac%ce%ba%ce%b9_%ce%b2.ly:22:48:49">
<g transform="translate(56.5044, 33.9482)">
<path transform="scale(0.0040, -0.0040)" d="M218 136c55 0 108 -28 108 -89c0 -71 -55 -121 -102 -149c-35 -21 -75 -34 -116 -34c-55 0 -108 28 -108 89c0 71 55 121 102 149c35 21 75 34 116 34z" fill="currentColor"/>
</g>
</a>
<a style="color:inherit;" xlink:href="textedit://C:/Users/har1sf0x/Documents/GitHub/musicSchoolTampouras.github.io/sheets/ly/%ce%a0%ce%bf%ce%b4%ce%b1%cf%81%ce%ac%ce%ba%ce%b9_%ce%b2.ly:22:51:52">
<g transform="scale(1.0000, -1.0000)">
<g transform="translate(57.1565, -28.1792)">
<line stroke-linejoin="round" stroke-linecap="round" stroke-width="0.1380" stroke="currentColor" x1="0" y1="0" x2="0" y2="-1.6000"/>
</g>
<g transform="translate(57.1565, -27.7292)">
<path transform="scale(0.0036, -0.0036)" d="M-103 250c5 0 10 -1 14 -5c40 -35 70 -79 89 -128c19 49 49 93 89 128c4 4 9 5 14 5c11 0 22 -10 22 -22c0 -6 -2 -12 -7 -16c-61 -54 -96 -131 -96 -212c0 -14 -11 -22 -22 -22s-22 8 -22 22c0 81 -35 158 -96 212c-5 4 -7 10 -7 16c0 12 11 22 22 22z" fill="currentColor"/>
</g>
</g>
</a>
<g transform="translate(52.7187, 32.9482)">
<rect x="-0.0650" y="-2.5000" width="0.1300" height="3.3139" ry="0.0400" fill="currentColor"/>
</g>
<g transform="translate(53.2337, 33.4482)">
<path transform="scale(0.0040, -0.0040)" d="M0 0c0 31 25 56 56 56s56 -25 56 -56s-25 -56 -56 -56s-56 25 -56 56z" fill="currentColor"/>
</g>
<a style="color:inherit;" xlink:href="textedit://C:/Users/har1sf0x/Documents/GitHub/musicSchoolTampouras.github.io/sheets/ly/%ce%a0%ce%bf%ce%b4%ce%b1%cf%81%ce%ac%ce%ba%ce%b9_%ce%b2.ly:22:37:38">
<g transform="translate(52.1316, 29.3198)">
<line stroke-linejoin="round" stroke-linecap="round" stroke-width="0.1380" stroke="currentColor" x1="0" y1="0" x2="0" y2="-1.6000"/>
</g>
<g transform="translate(52.1316, 29.7698)">
<path transform="scale(0.0036, -0.0036)" d="M-103 250c5 0 10 -1 14 -5c40 -35 70 -79 89 -128c19 49 49 93 89 128c4 4 9 5 14 5c11 0 22 -10 22 -22c0 -6 -2 -12 -7 -16c-61 -54 -96 -131 -96 -212c0 -14 -11 -22 -22 -22s-22 8 -22 22c0 81 -35 158 -96 212c-5 4 -7 10 -7 16c0 12 11 22 22 22z" fill="currentColor"/>
</g>
</a>
<g transform="translate(64.1492, 32.9482)">
<rect x="-0.0650" y="-0.5000" width="0.1300" height="3.3139" ry="0.0400" fill="currentColor"/>
</g>
<g transform="translate(64.6642, 35.4482)">
<path transform="scale(0.0040, -0.0040)" d="M0 0c0 31 25 56 56 56s56 -25 56 -56s-25 -56 -56 -56s-56 25 -56 56z" fill="currentColor"/>
</g>
<a style="color:inherit;" xlink:href="textedit://C:/Users/har1sf0x/Documents/GitHub/musicSchoolTampouras.github.io/sheets/ly/%ce%a0%ce%bf%ce%b4%ce%b1%cf%81%ce%ac%ce%ba%ce%b9_%ce%b2.ly:23:8:9">
<g transform="translate(63.5621, 29.7698)">
<line stroke-linejoin="round" stroke-linecap="round" stroke-width="0.1380" stroke="currentColor" x1="0" y1="0" x2="0" y2="-1.6000"/>
</g>
<g transform="translate(63.5621, 30.2198)">
<path transform="scale(0.0036, -0.0036)" d="M-103 250c5 0 10 -1 14 -5c40 -35 70 -79 89 -128c19 49 49 93 89 128c4 4 9 5 14 5c11 0 22 -10 22 -22c0 -6 -2 -12 -7 -16c-61 -54 -96 -131 -96 -212c0 -14 -11 -22 -22 -22s-22 8 -22 22c0 81 -35 158 -96 212c-5 4 -7 10 -7 16c0 12 11 22 22 22z" fill="currentColor"/>
</g>
</a>
<g transform="translate(41.0383, 32.9482)">
<rect x="-0.0650" y="-0.5000" width="0.1300" height="3.3139" ry="0.0400" fill="currentColor"/>
</g>
<a style="color:inherit;" xlink:href="textedit://C:/Users/har1sf0x/Documents/GitHub/musicSchoolTampouras.github.io/sheets/ly/%ce%a0%ce%bf%ce%b4%ce%b1%cf%81%ce%ac%ce%ba%ce%b9_%ce%b2.ly:23:2:3">
<g transform="translate(62.9100, 35.9482)">
<path transform="scale(0.0040, -0.0040)" d="M218 136c55 0 108 -28 108 -89c0 -71 -55 -121 -102 -149c-35 -21 -75 -34 -116 -34c-55 0 -108 28 -108 89c0 71 55 121 102 149c35 21 75 34 116 34z" fill="currentColor"/>
</g>
</a>
<g transform="translate(57.7436, 32.9482)">
<rect x="-0.0650" y="-2.5000" width="0.1300" height="3.3139" ry="0.0400" fill="currentColor"/>
</g>
<g transform="translate(58.2586, 33.4482)">
<path transform="scale(0.0040, -0.0040)" d="M0 0c0 31 25 56 56 56s56 -25 56 -56s-25 -56 -56 -56s-56 25 -56 56z" fill="currentColor"/>
</g>
<a style="color:inherit;" xlink:href="textedit://C:/Users/har1sf0x/Documents/GitHub/musicSchoolTampouras.github.io/sheets/ly/%ce%a0%ce%bf%ce%b4%ce%b1%cf%81%ce%ac%ce%ba%ce%b9_%ce%b2.ly:22:22:23">
<g transform="scale(1.0000, -1.0000)">
<g transform="translate(45.7260, -28.1792)">
<line stroke-linejoin="round" stroke-linecap="round" stroke-width="0.1380" stroke="currentColor" x1="0" y1="0" x2="0" y2="-1.6000"/>
</g>
<g transform="translate(45.7260, -27.7292)">
<path transform="scale(0.0036, -0.0036)" d="M-103 250c5 0 10 -1 14 -5c40 -35 70 -79 89 -128c19 49 49 93 89 128c4 4 9 5 14 5c11 0 22 -10 22 -22c0 -6 -2 -12 -7 -16c-61 -54 -96 -131 -96 -212c0 -14 -11 -22 -22 -22s-22 8 -22 22c0 81 -35 158 -96 212c-5 4 -7 10 -7 16c0 12 11 22 22 22z" fill="currentColor"/>
</g>
</g>
<g transform="translate(45.7260, 28.2292)">
<path transform="scale(0.0040, -0.0040)" d="M-105 -250c-11 0 -20 9 -20 20c0 6 2 11 7 15c62 54 98 133 98 215c0 13 10 20 20 20s20 -7 20 -20c0 -82 36 -161 98 -215c5 -4 7 -9 7 -15c0 -11 -9 -20 -20 -20c-5 0 -9 2 -13 5c-41 36 -73 82 -92 133c-19 -51 -51 -97 -92 -133c-4 -3 -8 -5 -13 -5z" fill="currentColor"/>
</g>
<g transform="translate(45.7260, 28.7292)">
<path transform="scale(0.0040, -0.0040)" d="M-105 -250c-11 0 -20 9 -20 20c0 6 2 11 7 15c62 54 98 133 98 215c0 13 10 20 20 20s20 -7 20 -20c0 -82 36 -161 98 -215c5 -4 7 -9 7 -15c0 -11 -9 -20 -20 -20c-5 0 -9 2 -13 5c-41 36 -73 82 -92 133c-19 -51 -51 -97 -92 -133c-4 -3 -8 -5 -13 -5z" fill="currentColor"/>
</g>
</a>
<a style="color:inherit;" xlink:href="textedit://C:/Users/har1sf0x/Documents/GitHub/musicSchoolTampouras.github.io/sheets/ly/%ce%a0%ce%bf%ce%b4%ce%b1%cf%81%ce%ac%ce%ba%ce%b9_%ce%b2.ly:22:18:19">
<g transform="translate(45.0739, 33.9482)">
<path transform="scale(0.0040, -0.0040)" d="M218 136c55 0 108 -28 108 -89c0 -71 -55 -121 -102 -149c-35 -21 -75 -34 -116 -34c-55 0 -108 28 -108 89c0 71 55 121 102 149c35 21 75 34 116 34z" fill="currentColor"/>
</g>
</a>
<g transform="translate(41.5533, 35.4482)">
<path transform="scale(0.0040, -0.0040)" d="M0 0c0 31 25 56 56 56s56 -25 56 -56s-25 -56 -56 -56s-56 25 -56 56z" fill="currentColor"/>
</g>
<g transform="translate(46.3132, 32.9482)">
<rect x="-0.0650" y="-2.5000" width="0.1300" height="3.3139" ry="0.0400" fill="currentColor"/>
</g>
<a style="color:inherit;" xlink:href="textedit://C:/Users/har1sf0x/Documents/GitHub/musicSchoolTampouras.github.io/sheets/ly/%ce%a0%ce%bf%ce%b4%ce%b1%cf%81%ce%ac%ce%ba%ce%b9_%ce%b2.ly:22:34:35">
<g transform="translate(51.4795, 33.9482)">
<path transform="scale(0.0040, -0.0040)" d="M218 136c55 0 108 -28 108 -89c0 -71 -55 -121 -102 -149c-35 -21 -75 -34 -116 -34c-55 0 -108 28 -108 89c0 71 55 121 102 149c35 21 75 34 116 34z" fill="currentColor"/>
</g>
</a>
<g transform="translate(46.8281, 33.4482)">
<path transform="scale(0.0040, -0.0040)" d="M0 0c0 31 25 56 56 56s56 -25 56 -56s-25 -56 -56 -56s-56 25 -56 56z" fill="currentColor"/>
</g>
<g transform="translate(54.0830, 43.7446)">
<text font-family="serif" font-size="2.2001" text-anchor="start" fill="currentColor">
<tspan>Χ. Κόχυλας</tspan>
</text>
</g>
<g transform="translate(30.6607, 47.2726)">
<a xlink:href="https://lilypond.org/">
<rect x="0.0000" y="-0.5280" width="58.1802" height="2.2001" fill="none" stroke="none" stroke-width="0.0"/>
</a>
</g>
<g transform="translate(30.6607, 47.2726)">
<text font-family="serif" font-size="2.2001" text-anchor="start" fill="currentColor">
<tspan>Music engraving by LilyPond 2.24.4—www.lilypond.org</tspan>
</text>
</g>
</svg>
