<svg xmlns="http://www.w3.org/2000/svg" xmlns:xlink="http://www.w3.org/1999/xlink" version="1.2" width="210.00mm" height="90.00mm" viewBox="0.0000 -0.0000 119.5016 51.2150">
<style type="text/css">
<![CDATA[
tspan { white-space: pre; }
]]>
</style>
<g transform="translate(47.9713, 6.6255)">
<text font-family="serif" font-weight="bold" font-size="3.4927" text-anchor="start" fill="currentColor">
<tspan>Ποδαράκι (β)</tspan>
</text>
</g>
<g transform="translate(55.5682, 10.1255)">
<text font-family="serif" font-weight="bold" font-size="2.4696" text-anchor="start" fill="currentColor">
<tspan>Θράκη</tspan>
</text>
</g>
<g transform="translate(5.6906, 22.2607)">
<line stroke-linejoin="round" stroke-linecap="round" stroke-width="0.1000" stroke="currentColor" x1="0.0500" y1="0" x2="108.0705" y2="0"/>
</g>
<g transform="translate(5.6906, 21.2607)">
<line stroke-linejoin="round" stroke-linecap="round" stroke-width="0.1000" stroke="currentColor" x1="0.0500" y1="0" x2="108.0705" y2="0"/>
</g>
<g transform="translate(5.6906, 20.2607)">
<line stroke-linejoin="round" stroke-linecap="round" stroke-width="0.1000" stroke="currentColor" x1="0.0500" y1="0" x2="108.0705" y2="0"/>
</g>
<g transform="translate(5.6906, 19.2607)">
<line stroke-linejoin="round" stroke-linecap="round" stroke-width="0.1000" stroke="currentColor" x1="0.0500" y1="0" x2="108.0705" y2="0"/>
</g>
<g transform="translate(5.6906, 18.2607)">
<line stroke-linejoin="round" stroke-linecap="round" stroke-width="0.1000" stroke="currentColor" x1="0.0500" y1="0" x2="108.0705" y2="0"/>
</g>
<g transform="translate(63.0521, 20.2607)">
<rect x="0.0000" y="-2.0000" width="0.1900" height="4.0000" ry="0.0000" fill="currentColor"/>
</g>
<g transform="translate(52.4776, 20.2607)">
<rect x="0.0000" y="-2.0000" width="0.1900" height="4.0000" ry="0.0000" fill="currentColor"/>
</g>
<g transform="translate(77.7435, 20.2607)">
<rect x="0.0000" y="-2.0000" width="0.1900" height="4.0000" ry="0.0000" fill="currentColor"/>
</g>
<g transform="translate(41.6780, 20.2607)">
<rect x="0.0000" y="-2.0000" width="0.1900" height="4.0000" ry="0.0000" fill="currentColor"/>
</g>
<g transform="translate(90.5393, 20.2607)">
<rect x="0.0000" y="-2.0000" width="0.1900" height="4.0000" ry="0.0000" fill="currentColor"/>
</g>
<g transform="translate(28.8822, 20.2607)">
<rect x="0.0000" y="-2.0000" width="0.1900" height="4.0000" ry="0.0000" fill="currentColor"/>
</g>
<g transform="translate(101.5573, 20.2607)">
<rect x="0.0000" y="-2.0000" width="0.1900" height="4.0000" ry="0.0000" fill="currentColor"/>
</g>
<g transform="translate(111.9710, 19.7607)">
<path transform="scale(0.0040, -0.0040)" d="M0 0c0 31 25 56 56 56s56 -25 56 -56s-25 -56 -56 -56s-56 25 -56 56z" fill="currentColor"/>
</g>
<g transform="translate(111.9710, 20.7607)">
<path transform="scale(0.0040, -0.0040)" d="M0 0c0 31 25 56 56 56s56 -25 56 -56s-25 -56 -56 -56s-56 25 -56 56z" fill="currentColor"/>
</g>
<g transform="translate(113.2110, 20.2607)">
<rect x="0.0000" y="-2.0000" width="0.6000" height="4.0000" ry="0.0000" fill="currentColor"/>
</g>
<g transform="translate(112.7210, 20.2607)">
<rect x="0.0000" y="-2.0000" width="0.1900" height="4.0000" ry="0.0000" fill="currentColor"/>
</g>
<g transform="translate(79.1179, 20.2607)">
<rect x="-0.0650" y="-0.8139" width="0.1300" height="3.3139" ry="0.0400" fill="currentColor"/>
</g>
<g transform="translate(80.8071, 18.7607)">
<path transform="scale(0.0040, -0.0040)" d="M0 0c0 31 25 56 56 56s56 -25 56 -56s-25 -56 -56 -56s-56 25 -56 56z" fill="currentColor"/>
</g>
<a style="color:inherit;" xlink:href="textedit://C:/Users/har1sf0x/Documents/GitHub/musicSchoolTampouras.github.io/sheets/ly/%ce%a0%ce%bf%ce%b4%ce%b1%cf%81%ce%ac%ce%ba%ce%b9_%ce%b2.ly:17:63:64">
<g transform="translate(79.7050, 17.0823)">
<line stroke-linejoin="round" stroke-linecap="round" stroke-width="0.1380" stroke="currentColor" x1="0" y1="0" x2="0" y2="-1.6000"/>
</g>
<g transform="translate(79.7050, 17.5323)">
<path transform="scale(0.0036, -0.0036)" d="M-103 250c5 0 10 -1 14 -5c40 -35 70 -79 89 -128c19 49 49 93 89 128c4 4 9 5 14 5c11 0 22 -10 22 -22c0 -6 -2 -12 -7 -16c-61 -54 -96 -131 -96 -212c0 -14 -11 -22 -22 -22s-22 8 -22 22c0 81 -35 158 -96 212c-5 4 -7 10 -7 16c0 12 11 22 22 22z" fill="currentColor"/>
</g>
</a>
<a style="color:inherit;" xlink:href="textedit://C:/Users/har1sf0x/Documents/GitHub/musicSchoolTampouras.github.io/sheets/ly/%ce%a0%ce%bf%ce%b4%ce%b1%cf%81%ce%ac%ce%ba%ce%b9_%ce%b2.ly:17:58:59">
<g transform="translate(79.0529, 19.2607)">
<path transform="scale(0.0040, -0.0040)" d="M218 136c55 0 108 -28 108 -89c0 -71 -55 -121 -102 -149c-35 -21 -75 -34 -116 -34c-55 0 -108 28 -108 89c0 71 55 121 102 149c35 21 75 34 116 34z" fill="currentColor"/>
</g>
</a>
<g transform="translate(83.9276, 20.2607)">
<rect x="-0.0650" y="-0.3139" width="0.1300" height="3.3139" ry="0.0400" fill="currentColor"/>
</g>
<g transform="translate(87.9440, 20.2607)">
<rect x="-0.0650" y="0.1861" width="0.1300" height="3.1889" ry="0.0400" fill="currentColor"/>
</g>
<a style="color:inherit;" xlink:href="textedit://C:/Users/har1sf0x/Documents/GitHub/musicSchoolTampouras.github.io/sheets/ly/%ce%a0%ce%bf%ce%b4%ce%b1%cf%81%ce%ac%ce%ba%ce%b9_%ce%b2.ly:17:95:96">
<g transform="scale(1.0000, -1.0000)">
<g transform="translate(88.5311, -15.9417)">
<line stroke-linejoin="round" stroke-linecap="round" stroke-width="0.1380" stroke="currentColor" x1="0" y1="0" x2="0" y2="-1.6000"/>
</g>
<g transform="translate(88.5311, -15.4917)">
<path transform="scale(0.0036, -0.0036)" d="M-103 250c5 0 10 -1 14 -5c40 -35 70 -79 89 -128c19 49 49 93 89 128c4 4 9 5 14 5c11 0 22 -10 22 -22c0 -6 -2 -12 -7 -16c-61 -54 -96 -131 -96 -212c0 -14 -11 -22 -22 -22s-22 8 -22 22c0 81 -35 158 -96 212c-5 4 -7 10 -7 16c0 12 11 22 22 22z" fill="currentColor"/>
</g>
</g>
</a>
<a style="color:inherit;" xlink:href="textedit://C:/Users/har1sf0x/Documents/GitHub/musicSchoolTampouras.github.io/sheets/ly/%ce%a0%ce%bf%ce%b4%ce%b1%cf%81%ce%ac%ce%ba%ce%b9_%ce%b2.ly:17:89:90">
<g transform="translate(87.8790, 20.2607)">
<path transform="scale(0.0040, -0.0040)" d="M218 136c55 0 108 -28 108 -89c0 -71 -55 -121 -102 -149c-35 -21 -75 -34 -116 -34c-55 0 -108 28 -108 89c0 71 55 121 102 149c35 21 75 34 116 34z" fill="currentColor"/>
</g>
</a>
<a style="color:inherit;" xlink:href="textedit://C:/Users/har1sf0x/Documents/GitHub/musicSchoolTampouras.github.io/sheets/ly/%ce%a0%ce%bf%ce%b4%ce%b1%cf%81%ce%ac%ce%ba%ce%b9_%ce%b2.ly:17:78:79">
<g transform="translate(84.5147, 17.0823)">
<line stroke-linejoin="round" stroke-linecap="round" stroke-width="0.1380" stroke="currentColor" x1="0" y1="0" x2="0" y2="-1.6000"/>
</g>
<g transform="translate(84.5147, 17.5323)">
<path transform="scale(0.0036, -0.0036)" d="M-103 250c5 0 10 -1 14 -5c40 -35 70 -79 89 -128c19 49 49 93 89 128c4 4 9 5 14 5c11 0 22 -10 22 -22c0 -6 -2 -12 -7 -16c-61 -54 -96 -131 -96 -212c0 -14 -11 -22 -22 -22s-22 8 -22 22c0 81 -35 158 -96 212c-5 4 -7 10 -7 16c0 12 11 22 22 22z" fill="currentColor"/>
</g>
</a>
<a style="color:inherit;" xlink:href="textedit://C:/Users/har1sf0x/Documents/GitHub/musicSchoolTampouras.github.io/sheets/ly/%ce%a0%ce%bf%ce%b4%ce%b1%cf%81%ce%ac%ce%ba%ce%b9_%ce%b2.ly:17:74:75">
<g transform="translate(83.8626, 19.7607)">
<path transform="scale(0.0040, -0.0040)" d="M218 136c55 0 108 -28 108 -89c0 -71 -55 -121 -102 -149c-35 -21 -75 -34 -116 -34c-55 0 -108 28 -108 89c0 71 55 121 102 149c35 21 75 34 116 34z" fill="currentColor"/>
</g>
</a>
<a style="color:inherit;" xlink:href="textedit://C:/Users/har1sf0x/Documents/GitHub/musicSchoolTampouras.github.io/sheets/ly/%ce%a0%ce%bf%ce%b4%ce%b1%cf%81%ce%ac%ce%ba%ce%b9_%ce%b2.ly:17:21:22">
<g transform="scale(1.0000, -1.0000)">
<g transform="translate(69.0585, -15.9417)">
<line stroke-linejoin="round" stroke-linecap="round" stroke-width="0.1380" stroke="currentColor" x1="0" y1="0" x2="0" y2="-1.6000"/>
</g>
<g transform="translate(69.0585, -15.4917)">
<path transform="scale(0.0036, -0.0036)" d="M-103 250c5 0 10 -1 14 -5c40 -35 70 -79 89 -128c19 49 49 93 89 128c4 4 9 5 14 5c11 0 22 -10 22 -22c0 -6 -2 -12 -7 -16c-61 -54 -96 -131 -96 -212c0 -14 -11 -22 -22 -22s-22 8 -22 22c0 81 -35 158 -96 212c-5 4 -7 10 -7 16c0 12 11 22 22 22z" fill="currentColor"/>
</g>
</g>
</a>
<a style="color:inherit;" xlink:href="textedit://C:/Users/har1sf0x/Documents/GitHub/musicSchoolTampouras.github.io/sheets/ly/%ce%a0%ce%bf%ce%b4%ce%b1%cf%81%ce%ac%ce%ba%ce%b9_%ce%b2.ly:17:17:18">
<g transform="translate(68.4064, 19.2607)">
<path transform="scale(0.0040, -0.0040)" d="M218 136c55 0 108 -28 108 -89c0 -71 -55 -121 -102 -149c-35 -21 -75 -34 -116 -34c-55 0 -108 28 -108 89c0 71 55 121 102 149c35 21 75 34 116 34z" fill="currentColor"/>
</g>
</a>
<g transform="translate(68.4714, 20.2607)">
<rect x="-0.0650" y="-0.8139" width="0.1300" height="3.3139" ry="0.0400" fill="currentColor"/>
</g>
<g transform="translate(64.4550, 20.2607)">
<rect x="-0.0650" y="-1.3139" width="0.1300" height="3.3139" ry="0.0400" fill="currentColor"/>
</g>
<g transform="translate(71.1318, 20.2607)">
<rect x="-0.0650" y="-0.8139" width="0.1300" height="3.3139" ry="0.0400" fill="currentColor"/>
</g>
<g transform="translate(88.0090, 23.5957)">
<path transform="scale(0.0040, -0.0040)" d="M0 0h-16v250h16v-250zM0 0v250c97 59 224 148 224 259c0 57 -15 112 -40 163c-3 16 10 27 23 27c7 0 15 -3 20 -11c25 -56 40 -117 40 -179c0 -203 -267 -306 -267 -509z" fill="currentColor"/>
</g>
<g transform="translate(75.1482, 20.2607)">
<rect x="-0.0650" y="-1.3139" width="0.1300" height="3.3139" ry="0.0400" fill="currentColor"/>
</g>
<a style="color:inherit;" xlink:href="textedit://C:/Users/har1sf0x/Documents/GitHub/musicSchoolTampouras.github.io/sheets/ly/%ce%a0%ce%bf%ce%b4%ce%b1%cf%81%ce%ac%ce%ba%ce%b9_%ce%b2.ly:17:49:50">
<g transform="scale(1.0000, -1.0000)">
<g transform="translate(75.7353, -15.9417)">
<line stroke-linejoin="round" stroke-linecap="round" stroke-width="0.1380" stroke="currentColor" x1="0" y1="0" x2="0" y2="-1.6000"/>
</g>
<g transform="translate(75.7353, -15.4917)">
<path transform="scale(0.0036, -0.0036)" d="M-103 250c5 0 10 -1 14 -5c40 -35 70 -79 89 -128c19 49 49 93 89 128c4 4 9 5 14 5c11 0 22 -10 22 -22c0 -6 -2 -12 -7 -16c-61 -54 -96 -131 -96 -212c0 -14 -11 -22 -22 -22s-22 8 -22 22c0 81 -35 158 -96 212c-5 4 -7 10 -7 16c0 12 11 22 22 22z" fill="currentColor"/>
</g>
</g>
</a>
<a style="color:inherit;" xlink:href="textedit://C:/Users/har1sf0x/Documents/GitHub/musicSchoolTampouras.github.io/sheets/ly/%ce%a0%ce%bf%ce%b4%ce%b1%cf%81%ce%ac%ce%ba%ce%b9_%ce%b2.ly:17:45:46">
<g transform="translate(75.0832, 18.7607)">
<path transform="scale(0.0040, -0.0040)" d="M218 136c55 0 108 -28 108 -89c0 -71 -55 -121 -102 -149c-35 -21 -75 -34 -116 -34c-55 0 -108 28 -108 89c0 71 55 121 102 149c35 21 75 34 116 34z" fill="currentColor"/>
</g>
</a>
<g transform="translate(75.2132, 22.2207)">
<path transform="scale(0.0040, -0.0040)" d="M0 0h-16v250h16v-250zM0 0v250c97 59 224 148 224 259c0 57 -15 112 -40 163c-3 16 10 27 23 27c7 0 15 -3 20 -11c25 -56 40 -117 40 -179c0 -203 -267 -306 -267 -509z" fill="currentColor"/>
</g>
<a style="color:inherit;" xlink:href="textedit://C:/Users/har1sf0x/Documents/GitHub/musicSchoolTampouras.github.io/sheets/ly/%ce%a0%ce%bf%ce%b4%ce%b1%cf%81%ce%ac%ce%ba%ce%b9_%ce%b2.ly:17:34:35">
<g transform="translate(71.7189, 17.0823)">
<line stroke-linejoin="round" stroke-linecap="round" stroke-width="0.1380" stroke="currentColor" x1="0" y1="0" x2="0" y2="-1.6000"/>
</g>
<g transform="translate(71.7189, 17.5323)">
<path transform="scale(0.0036, -0.0036)" d="M-103 250c5 0 10 -1 14 -5c40 -35 70 -79 89 -128c19 49 49 93 89 128c4 4 9 5 14 5c11 0 22 -10 22 -22c0 -6 -2 -12 -7 -16c-61 -54 -96 -131 -96 -212c0 -14 -11 -22 -22 -22s-22 8 -22 22c0 81 -35 158 -96 212c-5 4 -7 10 -7 16c0 12 11 22 22 22z" fill="currentColor"/>
</g>
</a>
<a style="color:inherit;" xlink:href="textedit://C:/Users/har1sf0x/Documents/GitHub/musicSchoolTampouras.github.io/sheets/ly/%ce%a0%ce%bf%ce%b4%ce%b1%cf%81%ce%ac%ce%ba%ce%b9_%ce%b2.ly:17:30:31">
<g transform="translate(71.0668, 19.2607)">
<path transform="scale(0.0040, -0.0040)" d="M218 136c55 0 108 -28 108 -89c0 -71 -55 -121 -102 -149c-35 -21 -75 -34 -116 -34c-55 0 -108 28 -108 89c0 71 55 121 102 149c35 21 75 34 116 34z" fill="currentColor"/>
</g>
</a>
<g transform="translate(68.5364, 22.7207)">
<path transform="scale(0.0040, -0.0040)" d="M0 0h-16v250h16v-250zM0 0v250c97 59 224 148 224 259c0 57 -15 112 -40 163c-3 16 10 27 23 27c7 0 15 -3 20 -11c25 -56 40 -117 40 -179c0 -203 -267 -306 -267 -509z" fill="currentColor"/>
</g>
<g transform="translate(105.6992, 20.7607)">
<path transform="scale(0.0040, -0.0040)" d="M0 0c0 31 25 56 56 56s56 -25 56 -56s-25 -56 -56 -56s-56 25 -56 56z" fill="currentColor"/>
</g>
<g transform="translate(105.6992, 21.7607)">
<path transform="scale(0.0040, -0.0040)" d="M0 0c0 31 25 56 56 56s56 -25 56 -56s-25 -56 -56 -56s-56 25 -56 56z" fill="currentColor"/>
</g>
<g transform="translate(103.9450, 20.2607)">
<rect x="-0.0650" y="-3.0000" width="0.1300" height="4.8139" ry="0.0400" fill="currentColor"/>
</g>
<g transform="translate(105.6992, 19.7607)">
<path transform="scale(0.0040, -0.0040)" d="M0 0c0 31 25 56 56 56s56 -25 56 -56s-25 -56 -56 -56s-56 25 -56 56z" fill="currentColor"/>
</g>
<a style="color:inherit;" xlink:href="textedit://C:/Users/har1sf0x/Documents/GitHub/musicSchoolTampouras.github.io/sheets/ly/%ce%a0%ce%bf%ce%b4%ce%b1%cf%81%ce%ac%ce%ba%ce%b9_%ce%b2.ly:18:51:52">
<g transform="translate(103.3579, 16.1323)">
<line stroke-linejoin="round" stroke-linecap="round" stroke-width="0.1380" stroke="currentColor" x1="0" y1="0" x2="0" y2="-1.6000"/>
</g>
<g transform="translate(103.3579, 16.5823)">
<path transform="scale(0.0036, -0.0036)" d="M-103 250c5 0 10 -1 14 -5c40 -35 70 -79 89 -128c19 49 49 93 89 128c4 4 9 5 14 5c11 0 22 -10 22 -22c0 -6 -2 -12 -7 -16c-61 -54 -96 -131 -96 -212c0 -14 -11 -22 -22 -22s-22 8 -22 22c0 81 -35 158 -96 212c-5 4 -7 10 -7 16c0 12 11 22 22 22z" fill="currentColor"/>
</g>
</a>
<g color="rgb(50.0000%, 50.0000%, 50.0000%)">
<a style="color:inherit;" xlink:href="textedit://C:/Users/har1sf0x/Documents/GitHub/musicSchoolTampouras.github.io/sheets/ly/%ce%a0%ce%bf%ce%b4%ce%b1%cf%81%ce%ac%ce%ba%ce%b9_%ce%b2.ly:18:39:40">
<g transform="translate(103.9450, 20.7607)">
<path transform="scale(0.0040, -0.0040)" d="M218 136c55 0 108 -28 108 -89c0 -71 -55 -121 -102 -149c-35 -21 -75 -34 -116 -34c-55 0 -108 28 -108 89c0 71 55 121 102 149c35 21 75 34 116 34z" fill="currentColor"/>
</g>
</a>
</g>
<g color="rgb(50.0000%, 50.0000%, 50.0000%)">
<a style="color:inherit;" xlink:href="textedit://C:/Users/har1sf0x/Documents/GitHub/musicSchoolTampouras.github.io/sheets/ly/%ce%a0%ce%bf%ce%b4%ce%b1%cf%81%ce%ac%ce%ba%ce%b9_%ce%b2.ly:18:39:40">
<g transform="translate(102.7058, 22.2607)">
<path transform="scale(0.0040, -0.0040)" d="M218 136c55 0 108 -28 108 -89c0 -71 -55 -121 -102 -149c-35 -21 -75 -34 -116 -34c-55 0 -108 28 -108 89c0 71 55 121 102 149c35 21 75 34 116 34z" fill="currentColor"/>
</g>
</a>
</g>
<a style="color:inherit;" xlink:href="textedit://C:/Users/har1sf0x/Documents/GitHub/musicSchoolTampouras.github.io/sheets/ly/%ce%a0%ce%bf%ce%b4%ce%b1%cf%81%ce%ac%ce%ba%ce%b9_%ce%b2.ly:18:39:40">
<g transform="translate(102.7058, 20.7607)">
<path transform="scale(0.0040, -0.0040)" d="M218 136c55 0 108 -28 108 -89c0 -71 -55 -121 -102 -149c-35 -21 -75 -34 -116 -34c-55 0 -108 28 -108 89c0 71 55 121 102 149c35 21 75 34 116 34z" fill="currentColor"/>
</g>
</a>
<g transform="translate(108.9155, 19.7607)">
<path transform="scale(0.0040, -0.0040)" d="M0 0c0 31 25 56 56 56s56 -25 56 -56s-25 -56 -56 -56s-56 25 -56 56z" fill="currentColor"/>
</g>
<a style="color:inherit;" xlink:href="textedit://C:/Users/har1sf0x/Documents/GitHub/musicSchoolTampouras.github.io/sheets/ly/%ce%a0%ce%bf%ce%b4%ce%b1%cf%81%ce%ac%ce%ba%ce%b9_%ce%b2.ly:18:62:63">
<g transform="translate(107.5155, 20.2607)">
<path transform="scale(0.0040, -0.0040)" d="M-23 -116c0 28 11 42 40 42c33 0 78 -13 119 -31l-132 158c-7 9 -10 17 -10 25c0 34 50 66 87 99c25 22 37 52 37 83c0 24 -8 49 -25 69l-35 42c-3 3 -4 7 -4 10c0 9 9 15 17 15c4 0 8 -1 11 -5l151 -180c7 -9 10 -17 10 -25c0 -34 -50 -66 -87 -99
c-25 -22 -37 -52 -37 -83c0 -24 7 -49 24 -69l84 -99c3 -3 4 -7 4 -10c0 -9 -8 -16 -16 -16c-4 0 -9 2 -12 6c-18 21 -63 38 -97 38c-41 0 -53 -26 -53 -67c0 -35 11 -74 28 -94c7 -8 -5 -19 -12 -11c-45 54 -92 148 -92 202z" fill="currentColor"/>
</g>
</a>
<g transform="translate(92.9271, 20.2607)">
<rect x="-0.0650" y="-2.5000" width="0.1300" height="3.3139" ry="0.0400" fill="currentColor"/>
</g>
<g transform="translate(93.4421, 20.7607)">
<path transform="scale(0.0040, -0.0040)" d="M0 0c0 31 25 56 56 56s56 -25 56 -56s-25 -56 -56 -56s-56 25 -56 56z" fill="currentColor"/>
</g>
<a style="color:inherit;" xlink:href="textedit://C:/Users/har1sf0x/Documents/GitHub/musicSchoolTampouras.github.io/sheets/ly/%ce%a0%ce%bf%ce%b4%ce%b1%cf%81%ce%ac%ce%ba%ce%b9_%ce%b2.ly:18:7:8">
<g transform="translate(92.3400, 16.6323)">
<line stroke-linejoin="round" stroke-linecap="round" stroke-width="0.1380" stroke="currentColor" x1="0" y1="0" x2="0" y2="-1.6000"/>
</g>
<g transform="translate(92.3400, 17.0823)">
<path transform="scale(0.0036, -0.0036)" d="M-103 250c5 0 10 -1 14 -5c40 -35 70 -79 89 -128c19 49 49 93 89 128c4 4 9 5 14 5c11 0 22 -10 22 -22c0 -6 -2 -12 -7 -16c-61 -54 -96 -131 -96 -212c0 -14 -11 -22 -22 -22s-22 8 -22 22c0 81 -35 158 -96 212c-5 4 -7 10 -7 16c0 12 11 22 22 22z" fill="currentColor"/>
</g>
</a>
<a style="color:inherit;" xlink:href="textedit://C:/Users/har1sf0x/Documents/GitHub/musicSchoolTampouras.github.io/sheets/ly/%ce%a0%ce%bf%ce%b4%ce%b1%cf%81%ce%ac%ce%ba%ce%b9_%ce%b2.ly:18:2:3">
<g transform="translate(91.6879, 21.2607)">
<path transform="scale(0.0040, -0.0040)" d="M218 136c55 0 108 -28 108 -89c0 -71 -55 -121 -102 -149c-35 -21 -75 -34 -116 -34c-55 0 -108 28 -108 89c0 71 55 121 102 149c35 21 75 34 116 34z" fill="currentColor"/>
</g>
</a>
<g transform="translate(99.4910, 20.7607)">
<path transform="scale(0.0040, -0.0040)" d="M0 0c0 31 25 56 56 56s56 -25 56 -56s-25 -56 -56 -56s-56 25 -56 56z" fill="currentColor"/>
</g>
<g transform="translate(99.4910, 21.7607)">
<path transform="scale(0.0040, -0.0040)" d="M0 0c0 31 25 56 56 56s56 -25 56 -56s-25 -56 -56 -56s-56 25 -56 56z" fill="currentColor"/>
</g>
<g transform="translate(97.7368, 20.2607)">
<rect x="-0.0650" y="-3.0000" width="0.1300" height="4.8139" ry="0.0400" fill="currentColor"/>
</g>
<g transform="translate(99.4910, 19.7607)">
<path transform="scale(0.0040, -0.0040)" d="M0 0c0 31 25 56 56 56s56 -25 56 -56s-25 -56 -56 -56s-56 25 -56 56z" fill="currentColor"/>
</g>
<a style="color:inherit;" xlink:href="textedit://C:/Users/har1sf0x/Documents/GitHub/musicSchoolTampouras.github.io/sheets/ly/%ce%a0%ce%bf%ce%b4%ce%b1%cf%81%ce%ac%ce%ba%ce%b9_%ce%b2.ly:18:30:31">
<g transform="scale(1.0000, -1.0000)">
<g transform="translate(97.1497, -14.9917)">
<line stroke-linejoin="round" stroke-linecap="round" stroke-width="0.1380" stroke="currentColor" x1="0" y1="0" x2="0" y2="-1.6000"/>
</g>
<g transform="translate(97.1497, -14.5417)">
<path transform="scale(0.0036, -0.0036)" d="M-103 250c5 0 10 -1 14 -5c40 -35 70 -79 89 -128c19 49 49 93 89 128c4 4 9 5 14 5c11 0 22 -10 22 -22c0 -6 -2 -12 -7 -16c-61 -54 -96 -131 -96 -212c0 -14 -11 -22 -22 -22s-22 8 -22 22c0 81 -35 158 -96 212c-5 4 -7 10 -7 16c0 12 11 22 22 22z" fill="currentColor"/>
</g>
</g>
</a>
<g color="rgb(50.0000%, 50.0000%, 50.0000%)">
<a style="color:inherit;" xlink:href="textedit://C:/Users/har1sf0x/Documents/GitHub/musicSchoolTampouras.github.io/sheets/ly/%ce%a0%ce%bf%ce%b4%ce%b1%cf%81%ce%ac%ce%ba%ce%b9_%ce%b2.ly:18:18:19">
<g transform="translate(97.7368, 20.7607)">
<path transform="scale(0.0040, -0.0040)" d="M218 136c55 0 108 -28 108 -89c0 -71 -55 -121 -102 -149c-35 -21 -75 -34 -116 -34c-55 0 -108 28 -108 89c0 71 55 121 102 149c35 21 75 34 116 34z" fill="currentColor"/>
</g>
</a>
</g>
<g color="rgb(50.0000%, 50.0000%, 50.0000%)">
<a style="color:inherit;" xlink:href="textedit://C:/Users/har1sf0x/Documents/GitHub/musicSchoolTampouras.github.io/sheets/ly/%ce%a0%ce%bf%ce%b4%ce%b1%cf%81%ce%ac%ce%ba%ce%b9_%ce%b2.ly:18:18:19">
<g transform="translate(96.4976, 22.2607)">
<path transform="scale(0.0040, -0.0040)" d="M218 136c55 0 108 -28 108 -89c0 -71 -55 -121 -102 -149c-35 -21 -75 -34 -116 -34c-55 0 -108 28 -108 89c0 71 55 121 102 149c35 21 75 34 116 34z" fill="currentColor"/>
</g>
</a>
</g>
<a style="color:inherit;" xlink:href="textedit://C:/Users/har1sf0x/Documents/GitHub/musicSchoolTampouras.github.io/sheets/ly/%ce%a0%ce%bf%ce%b4%ce%b1%cf%81%ce%ac%ce%ba%ce%b9_%ce%b2.ly:18:18:19">
<g transform="translate(96.4976, 20.7607)">
<path transform="scale(0.0040, -0.0040)" d="M218 136c55 0 108 -28 108 -89c0 -71 -55 -121 -102 -149c-35 -21 -75 -34 -116 -34c-55 0 -108 28 -108 89c0 71 55 121 102 149c35 21 75 34 116 34z" fill="currentColor"/>
</g>
</a>
<g transform="translate(30.2566, 20.2607)">
<rect x="-0.0650" y="-0.8139" width="0.1300" height="3.3139" ry="0.0400" fill="currentColor"/>
</g>
<g transform="translate(31.9458, 18.7607)">
<path transform="scale(0.0040, -0.0040)" d="M0 0c0 31 25 56 56 56s56 -25 56 -56s-25 -56 -56 -56s-56 25 -56 56z" fill="currentColor"/>
</g>
<a style="color:inherit;" xlink:href="textedit://C:/Users/har1sf0x/Documents/GitHub/musicSchoolTampouras.github.io/sheets/ly/%ce%a0%ce%bf%ce%b4%ce%b1%cf%81%ce%ac%ce%ba%ce%b9_%ce%b2.ly:15:63:64">
<g transform="translate(30.8437, 17.0823)">
<line stroke-linejoin="round" stroke-linecap="round" stroke-width="0.1380" stroke="currentColor" x1="0" y1="0" x2="0" y2="-1.6000"/>
</g>
<g transform="translate(30.8437, 17.5323)">
<path transform="scale(0.0036, -0.0036)" d="M-103 250c5 0 10 -1 14 -5c40 -35 70 -79 89 -128c19 49 49 93 89 128c4 4 9 5 14 5c11 0 22 -10 22 -22c0 -6 -2 -12 -7 -16c-61 -54 -96 -131 -96 -212c0 -14 -11 -22 -22 -22s-22 8 -22 22c0 81 -35 158 -96 212c-5 4 -7 10 -7 16c0 12 11 22 22 22z" fill="currentColor"/>
</g>
</a>
<a style="color:inherit;" xlink:href="textedit://C:/Users/har1sf0x/Documents/GitHub/musicSchoolTampouras.github.io/sheets/ly/%ce%a0%ce%bf%ce%b4%ce%b1%cf%81%ce%ac%ce%ba%ce%b9_%ce%b2.ly:15:58:59">
<g transform="translate(30.1916, 19.2607)">
<path transform="scale(0.0040, -0.0040)" d="M218 136c55 0 108 -28 108 -89c0 -71 -55 -121 -102 -149c-35 -21 -75 -34 -116 -34c-55 0 -108 28 -108 89c0 71 55 121 102 149c35 21 75 34 116 34z" fill="currentColor"/>
</g>
</a>
<g transform="translate(26.3519, 22.2207)">
<path transform="scale(0.0040, -0.0040)" d="M0 0h-16v250h16v-250zM0 0v250c97 59 224 148 224 259c0 57 -15 112 -40 163c-3 16 10 27 23 27c7 0 15 -3 20 -11c25 -56 40 -117 40 -179c0 -203 -267 -306 -267 -509z" fill="currentColor"/>
</g>
<g transform="translate(26.2869, 20.2607)">
<rect x="-0.0650" y="-1.3139" width="0.1300" height="3.3139" ry="0.0400" fill="currentColor"/>
</g>
<a style="color:inherit;" xlink:href="textedit://C:/Users/har1sf0x/Documents/GitHub/musicSchoolTampouras.github.io/sheets/ly/%ce%a0%ce%bf%ce%b4%ce%b1%cf%81%ce%ac%ce%ba%ce%b9_%ce%b2.ly:15:49:50">
<g transform="scale(1.0000, -1.0000)">
<g transform="translate(26.8740, -15.9417)">
<line stroke-linejoin="round" stroke-linecap="round" stroke-width="0.1380" stroke="currentColor" x1="0" y1="0" x2="0" y2="-1.6000"/>
</g>
<g transform="translate(26.8740, -15.4917)">
<path transform="scale(0.0036, -0.0036)" d="M-103 250c5 0 10 -1 14 -5c40 -35 70 -79 89 -128c19 49 49 93 89 128c4 4 9 5 14 5c11 0 22 -10 22 -22c0 -6 -2 -12 -7 -16c-61 -54 -96 -131 -96 -212c0 -14 -11 -22 -22 -22s-22 8 -22 22c0 81 -35 158 -96 212c-5 4 -7 10 -7 16c0 12 11 22 22 22z" fill="currentColor"/>
</g>
</g>
</a>
<a style="color:inherit;" xlink:href="textedit://C:/Users/har1sf0x/Documents/GitHub/musicSchoolTampouras.github.io/sheets/ly/%ce%a0%ce%bf%ce%b4%ce%b1%cf%81%ce%ac%ce%ba%ce%b9_%ce%b2.ly:15:45:46">
<g transform="translate(26.2219, 18.7607)">
<path transform="scale(0.0040, -0.0040)" d="M218 136c55 0 108 -28 108 -89c0 -71 -55 -121 -102 -149c-35 -21 -75 -34 -116 -34c-55 0 -108 28 -108 89c0 71 55 121 102 149c35 21 75 34 116 34z" fill="currentColor"/>
</g>
</a>
<a style="color:inherit;" xlink:href="textedit://C:/Users/har1sf0x/Documents/GitHub/musicSchoolTampouras.github.io/sheets/ly/%ce%a0%ce%bf%ce%b4%ce%b1%cf%81%ce%ac%ce%ba%ce%b9_%ce%b2.ly:15:89:90">
<g transform="translate(39.0177, 20.2607)">
<path transform="scale(0.0040, -0.0040)" d="M218 136c55 0 108 -28 108 -89c0 -71 -55 -121 -102 -149c-35 -21 -75 -34 -116 -34c-55 0 -108 28 -108 89c0 71 55 121 102 149c35 21 75 34 116 34z" fill="currentColor"/>
</g>
</a>
<g transform="translate(35.0663, 20.2607)">
<rect x="-0.0650" y="-0.3139" width="0.1300" height="3.3139" ry="0.0400" fill="currentColor"/>
</g>
<a style="color:inherit;" xlink:href="textedit://C:/Users/har1sf0x/Documents/GitHub/musicSchoolTampouras.github.io/sheets/ly/%ce%a0%ce%bf%ce%b4%ce%b1%cf%81%ce%ac%ce%ba%ce%b9_%ce%b2.ly:15:78:79">
<g transform="translate(35.6534, 17.0823)">
<line stroke-linejoin="round" stroke-linecap="round" stroke-width="0.1380" stroke="currentColor" x1="0" y1="0" x2="0" y2="-1.6000"/>
</g>
<g transform="translate(35.6534, 17.5323)">
<path transform="scale(0.0036, -0.0036)" d="M-103 250c5 0 10 -1 14 -5c40 -35 70 -79 89 -128c19 49 49 93 89 128c4 4 9 5 14 5c11 0 22 -10 22 -22c0 -6 -2 -12 -7 -16c-61 -54 -96 -131 -96 -212c0 -14 -11 -22 -22 -22s-22 8 -22 22c0 81 -35 158 -96 212c-5 4 -7 10 -7 16c0 12 11 22 22 22z" fill="currentColor"/>
</g>
</a>
<a style="color:inherit;" xlink:href="textedit://C:/Users/har1sf0x/Documents/GitHub/musicSchoolTampouras.github.io/sheets/ly/%ce%a0%ce%bf%ce%b4%ce%b1%cf%81%ce%ac%ce%ba%ce%b9_%ce%b2.ly:15:74:75">
<g transform="translate(35.0013, 19.7607)">
<path transform="scale(0.0040, -0.0040)" d="M218 136c55 0 108 -28 108 -89c0 -71 -55 -121 -102 -149c-35 -21 -75 -34 -116 -34c-55 0 -108 28 -108 89c0 71 55 121 102 149c35 21 75 34 116 34z" fill="currentColor"/>
</g>
</a>
<a style="color:inherit;" xlink:href="textedit://C:/Users/har1sf0x/Documents/GitHub/musicSchoolTampouras.github.io/sheets/ly/utilities_01.ly:94:2:3">
<g transform="translate(12.1118, 20.2607)">
<path transform="scale(0.0040, -0.0040)" d="M170 259c-51 0 -53 -43 -53 -100v-18v-18c0 -57 2 -100 53 -100c57 0 61 51 61 118s-4 118 -61 118zM117 266c15 10 33 16 53 16c101 0 170 -46 170 -141s-69 -141 -170 -141c-112 0 -170 124 -170 250c0 128 72 250 190 250c70 0 136 -39 136 -103
c0 -36 -29 -66 -65 -66s-66 30 -66 66c0 24 40 25 40 49c0 20 -23 31 -45 31c-66 0 -75 -65 -75 -139c0 -24 2 -48 2 -72z" fill="currentColor"/>
</g>
<g transform="translate(12.0606, 22.2607)">
<path transform="scale(0.0040, -0.0040)" d="M261 287c25 30 44 64 44 103c0 54 -55 87 -114 87c-46 0 -73 -36 -73 -71c0 -21 10 -42 31 -54zM292 269c54 -31 80 -79 80 -125c0 -73 -66 -144 -189 -144c-94 0 -183 54 -183 140c0 50 36 87 72 123c-37 28 -55 66 -55 103c0 68 60 134 174 134c80 0 157 -39 157 -110
c0 -46 -25 -86 -56 -121zM103 244c-31 -30 -59 -61 -59 -104c0 -69 66 -117 139 -117c54 0 86 42 86 83c0 24 -10 48 -35 62z" fill="currentColor"/>
</g>
</a>
<g transform="translate(15.5937, 20.2607)">
<rect x="-0.0650" y="-1.3139" width="0.1300" height="3.3139" ry="0.0400" fill="currentColor"/>
</g>
<a style="color:inherit;" xlink:href="textedit://C:/Users/har1sf0x/Documents/GitHub/musicSchoolTampouras.github.io/sheets/ly/%ce%a0%ce%bf%ce%b4%ce%b1%cf%81%ce%ac%ce%ba%ce%b9_%ce%b2.ly:14:2:3">
<g transform="translate(5.6906, 16.1591)">
<text font-family="serif" font-size="2.6163" text-anchor="start" fill="currentColor">
<tspan>A</tspan>
</text>
</g>
</a>
<g transform="translate(10.1106, 20.2607)">
<path transform="scale(0.0040, -0.0040)" d="M143 41c-1 33 -22 63 -53 63c-29 0 -43 -34 -43 -67c0 -59 48 -101 93 -139c3 22 4 44 4 66v11zM185 -138c0 -14 -10 -25 -23 -25c-21 0 -30 25 -45 38c-61 52 -147 89 -147 169c0 54 37 102 89 102c33 0 66 -13 91 -34l-7 345c8 5 18 8 27 8s19 -3 27 -8z" fill="currentColor"/>
</g>
<g transform="translate(6.4906, 21.2607)">
<path transform="scale(0.0040, -0.0040)" d="M266 -635h-6c-108 0 -195 88 -195 197c0 58 53 103 112 103c54 0 95 -47 95 -103c0 -52 -43 -95 -95 -95c-11 0 -21 2 -31 6c26 -39 68 -65 117 -65h4zM461 -203c68 24 113 95 113 164c0 90 -66 179 -173 190c24 -116 46 -231 60 -354zM74 28c0 -135 129 -247 264 -247
c28 0 55 2 82 6c-14 127 -37 245 -63 364c-79 -8 -124 -61 -124 -119c0 -44 25 -91 81 -123c5 -5 7 -10 7 -15c0 -11 -10 -22 -22 -22c-3 0 -6 1 -9 2c-80 43 -117 115 -117 185c0 88 58 174 160 197c-14 58 -29 117 -46 175c-107 -121 -213 -243 -213 -403zM335 -262
c-188 0 -333 172 -333 374c0 177 131 306 248 441c-19 62 -37 125 -45 190c-6 52 -7 104 -7 156c0 115 55 224 149 292c6 5 14 5 20 0c71 -84 133 -245 133 -358c0 -143 -86 -255 -180 -364c21 -68 39 -138 56 -207c4 0 9 1 13 1c155 0 256 -128 256 -261
c0 -76 -33 -154 -107 -210c-22 -17 -47 -28 -73 -36c3 -35 5 -70 5 -105c0 -19 -1 -39 -2 -58c-7 -119 -88 -225 -202 -228l1 43c93 2 153 92 159 191c1 18 2 37 2 55c0 31 -1 61 -4 92c-29 -5 -58 -8 -89 -8zM428 916c0 55 -4 79 -20 129c-99 -48 -162 -149 -162 -259
c0 -74 18 -133 36 -194c80 97 146 198 146 324z" fill="currentColor"/>
</g>
<a style="color:inherit;" xlink:href="textedit://C:/Users/har1sf0x/Documents/GitHub/musicSchoolTampouras.github.io/sheets/ly/%ce%a0%ce%bf%ce%b4%ce%b1%cf%81%ce%ac%ce%ba%ce%b9_%ce%b2.ly:15:6:7">
<g transform="translate(16.1808, 17.0823)">
<line stroke-linejoin="round" stroke-linecap="round" stroke-width="0.1380" stroke="currentColor" x1="0" y1="0" x2="0" y2="-1.6000"/>
</g>
<g transform="translate(16.1808, 17.5323)">
<path transform="scale(0.0036, -0.0036)" d="M-103 250c5 0 10 -1 14 -5c40 -35 70 -79 89 -128c19 49 49 93 89 128c4 4 9 5 14 5c11 0 22 -10 22 -22c0 -6 -2 -12 -7 -16c-61 -54 -96 -131 -96 -212c0 -14 -11 -22 -22 -22s-22 8 -22 22c0 81 -35 158 -96 212c-5 4 -7 10 -7 16c0 12 11 22 22 22z" fill="currentColor"/>
</g>
</a>
<a style="color:inherit;" xlink:href="textedit://C:/Users/har1sf0x/Documents/GitHub/musicSchoolTampouras.github.io/sheets/ly/%ce%a0%ce%bf%ce%b4%ce%b1%cf%81%ce%ac%ce%ba%ce%b9_%ce%b2.ly:15:2:3">
<g transform="translate(15.5287, 18.7607)">
<path transform="scale(0.0040, -0.0040)" d="M218 136c55 0 108 -28 108 -89c0 -71 -55 -121 -102 -149c-35 -21 -75 -34 -116 -34c-55 0 -108 28 -108 89c0 71 55 121 102 149c35 21 75 34 116 34z" fill="currentColor"/>
</g>
</a>
<g transform="translate(22.2705, 20.2607)">
<rect x="-0.0650" y="-0.8139" width="0.1300" height="3.3139" ry="0.0400" fill="currentColor"/>
</g>
<a style="color:inherit;" xlink:href="textedit://C:/Users/har1sf0x/Documents/GitHub/musicSchoolTampouras.github.io/sheets/ly/%ce%a0%ce%bf%ce%b4%ce%b1%cf%81%ce%ac%ce%ba%ce%b9_%ce%b2.ly:15:34:35">
<g transform="translate(22.8576, 17.0823)">
<line stroke-linejoin="round" stroke-linecap="round" stroke-width="0.1380" stroke="currentColor" x1="0" y1="0" x2="0" y2="-1.6000"/>
</g>
<g transform="translate(22.8576, 17.5323)">
<path transform="scale(0.0036, -0.0036)" d="M-103 250c5 0 10 -1 14 -5c40 -35 70 -79 89 -128c19 49 49 93 89 128c4 4 9 5 14 5c11 0 22 -10 22 -22c0 -6 -2 -12 -7 -16c-61 -54 -96 -131 -96 -212c0 -14 -11 -22 -22 -22s-22 8 -22 22c0 81 -35 158 -96 212c-5 4 -7 10 -7 16c0 12 11 22 22 22z" fill="currentColor"/>
</g>
</a>
<a style="color:inherit;" xlink:href="textedit://C:/Users/har1sf0x/Documents/GitHub/musicSchoolTampouras.github.io/sheets/ly/%ce%a0%ce%bf%ce%b4%ce%b1%cf%81%ce%ac%ce%ba%ce%b9_%ce%b2.ly:15:30:31">
<g transform="translate(22.2055, 19.2607)">
<path transform="scale(0.0040, -0.0040)" d="M218 136c55 0 108 -28 108 -89c0 -71 -55 -121 -102 -149c-35 -21 -75 -34 -116 -34c-55 0 -108 28 -108 89c0 71 55 121 102 149c35 21 75 34 116 34z" fill="currentColor"/>
</g>
</a>
<g transform="translate(19.6752, 22.7207)">
<path transform="scale(0.0040, -0.0040)" d="M0 0h-16v250h16v-250zM0 0v250c97 59 224 148 224 259c0 57 -15 112 -40 163c-3 16 10 27 23 27c7 0 15 -3 20 -11c25 -56 40 -117 40 -179c0 -203 -267 -306 -267 -509z" fill="currentColor"/>
</g>
<g transform="translate(19.6102, 20.2607)">
<rect x="-0.0650" y="-0.8139" width="0.1300" height="3.3139" ry="0.0400" fill="currentColor"/>
</g>
<a style="color:inherit;" xlink:href="textedit://C:/Users/har1sf0x/Documents/GitHub/musicSchoolTampouras.github.io/sheets/ly/%ce%a0%ce%bf%ce%b4%ce%b1%cf%81%ce%ac%ce%ba%ce%b9_%ce%b2.ly:15:21:22">
<g transform="scale(1.0000, -1.0000)">
<g transform="translate(20.1973, -15.9417)">
<line stroke-linejoin="round" stroke-linecap="round" stroke-width="0.1380" stroke="currentColor" x1="0" y1="0" x2="0" y2="-1.6000"/>
</g>
<g transform="translate(20.1973, -15.4917)">
<path transform="scale(0.0036, -0.0036)" d="M-103 250c5 0 10 -1 14 -5c40 -35 70 -79 89 -128c19 49 49 93 89 128c4 4 9 5 14 5c11 0 22 -10 22 -22c0 -6 -2 -12 -7 -16c-61 -54 -96 -131 -96 -212c0 -14 -11 -22 -22 -22s-22 8 -22 22c0 81 -35 158 -96 212c-5 4 -7 10 -7 16c0 12 11 22 22 22z" fill="currentColor"/>
</g>
</g>
</a>
<a style="color:inherit;" xlink:href="textedit://C:/Users/har1sf0x/Documents/GitHub/musicSchoolTampouras.github.io/sheets/ly/%ce%a0%ce%bf%ce%b4%ce%b1%cf%81%ce%ac%ce%ba%ce%b9_%ce%b2.ly:15:17:18">
<g transform="translate(19.5452, 19.2607)">
<path transform="scale(0.0040, -0.0040)" d="M218 136c55 0 108 -28 108 -89c0 -71 -55 -121 -102 -149c-35 -21 -75 -34 -116 -34c-55 0 -108 28 -108 89c0 71 55 121 102 149c35 21 75 34 116 34z" fill="currentColor"/>
</g>
</a>
<g transform="translate(53.8519, 20.2607)">
<rect x="-0.0650" y="-0.8139" width="0.1300" height="3.3139" ry="0.0400" fill="currentColor"/>
</g>
<g transform="translate(55.5411, 18.7607)">
<path transform="scale(0.0040, -0.0040)" d="M0 0c0 31 25 56 56 56s56 -25 56 -56s-25 -56 -56 -56s-56 25 -56 56z" fill="currentColor"/>
</g>
<a style="color:inherit;" xlink:href="textedit://C:/Users/har1sf0x/Documents/GitHub/musicSchoolTampouras.github.io/sheets/ly/%ce%a0%ce%bf%ce%b4%ce%b1%cf%81%ce%ac%ce%ba%ce%b9_%ce%b2.ly:16:34:35">
<g transform="translate(54.4390, 17.0823)">
<line stroke-linejoin="round" stroke-linecap="round" stroke-width="0.1380" stroke="currentColor" x1="0" y1="0" x2="0" y2="-1.6000"/>
</g>
<g transform="translate(54.4390, 17.5323)">
<path transform="scale(0.0036, -0.0036)" d="M-103 250c5 0 10 -1 14 -5c40 -35 70 -79 89 -128c19 49 49 93 89 128c4 4 9 5 14 5c11 0 22 -10 22 -22c0 -6 -2 -12 -7 -16c-61 -54 -96 -131 -96 -212c0 -14 -11 -22 -22 -22s-22 8 -22 22c0 81 -35 158 -96 212c-5 4 -7 10 -7 16c0 12 11 22 22 22z" fill="currentColor"/>
</g>
</a>
<a style="color:inherit;" xlink:href="textedit://C:/Users/har1sf0x/Documents/GitHub/musicSchoolTampouras.github.io/sheets/ly/%ce%a0%ce%bf%ce%b4%ce%b1%cf%81%ce%ac%ce%ba%ce%b9_%ce%b2.ly:16:31:32">
<g transform="translate(53.7869, 19.2607)">
<path transform="scale(0.0040, -0.0040)" d="M218 136c55 0 108 -28 108 -89c0 -71 -55 -121 -102 -149c-35 -21 -75 -34 -116 -34c-55 0 -108 28 -108 89c0 71 55 121 102 149c35 21 75 34 116 34z" fill="currentColor"/>
</g>
</a>
<g transform="translate(47.9338, 20.2607)">
<rect x="-0.0650" y="-0.8139" width="0.1300" height="3.3139" ry="0.0400" fill="currentColor"/>
</g>
<g transform="translate(49.6230, 18.7607)">
<path transform="scale(0.0040, -0.0040)" d="M0 0c0 31 25 56 56 56s56 -25 56 -56s-25 -56 -56 -56s-56 25 -56 56z" fill="currentColor"/>
</g>
<a style="color:inherit;" xlink:href="textedit://C:/Users/har1sf0x/Documents/GitHub/musicSchoolTampouras.github.io/sheets/ly/%ce%a0%ce%bf%ce%b4%ce%b1%cf%81%ce%ac%ce%ba%ce%b9_%ce%b2.ly:16:22:23">
<g transform="scale(1.0000, -1.0000)">
<g transform="translate(48.5209, -15.9417)">
<line stroke-linejoin="round" stroke-linecap="round" stroke-width="0.1380" stroke="currentColor" x1="0" y1="0" x2="0" y2="-1.6000"/>
</g>
<g transform="translate(48.5209, -15.4917)">
<path transform="scale(0.0036, -0.0036)" d="M-103 250c5 0 10 -1 14 -5c40 -35 70 -79 89 -128c19 49 49 93 89 128c4 4 9 5 14 5c11 0 22 -10 22 -22c0 -6 -2 -12 -7 -16c-61 -54 -96 -131 -96 -212c0 -14 -11 -22 -22 -22s-22 8 -22 22c0 81 -35 158 -96 212c-5 4 -7 10 -7 16c0 12 11 22 22 22z" fill="currentColor"/>
</g>
</g>
</a>
<a style="color:inherit;" xlink:href="textedit://C:/Users/har1sf0x/Documents/GitHub/musicSchoolTampouras.github.io/sheets/ly/%ce%a0%ce%bf%ce%b4%ce%b1%cf%81%ce%ac%ce%ba%ce%b9_%ce%b2.ly:16:18:19">
<g transform="translate(47.8688, 19.2607)">
<path transform="scale(0.0040, -0.0040)" d="M218 136c55 0 108 -28 108 -89c0 -71 -55 -121 -102 -149c-35 -21 -75 -34 -116 -34c-55 0 -108 28 -108 89c0 71 55 121 102 149c35 21 75 34 116 34z" fill="currentColor"/>
</g>
</a>
<a style="color:inherit;" xlink:href="textedit://C:/Users/har1sf0x/Documents/GitHub/musicSchoolTampouras.github.io/sheets/ly/%ce%a0%ce%bf%ce%b4%ce%b1%cf%81%ce%ac%ce%ba%ce%b9_%ce%b2.ly:17:6:7">
<g transform="translate(65.0421, 17.0823)">
<line stroke-linejoin="round" stroke-linecap="round" stroke-width="0.1380" stroke="currentColor" x1="0" y1="0" x2="0" y2="-1.6000"/>
</g>
<g transform="translate(65.0421, 17.5323)">
<path transform="scale(0.0036, -0.0036)" d="M-103 250c5 0 10 -1 14 -5c40 -35 70 -79 89 -128c19 49 49 93 89 128c4 4 9 5 14 5c11 0 22 -10 22 -22c0 -6 -2 -12 -7 -16c-61 -54 -96 -131 -96 -212c0 -14 -11 -22 -22 -22s-22 8 -22 22c0 81 -35 158 -96 212c-5 4 -7 10 -7 16c0 12 11 22 22 22z" fill="currentColor"/>
</g>
</a>
<a style="color:inherit;" xlink:href="textedit://C:/Users/har1sf0x/Documents/GitHub/musicSchoolTampouras.github.io/sheets/ly/%ce%a0%ce%bf%ce%b4%ce%b1%cf%81%ce%ac%ce%ba%ce%b9_%ce%b2.ly:17:2:3">
<g transform="translate(64.3900, 18.7607)">
<path transform="scale(0.0040, -0.0040)" d="M218 136c55 0 108 -28 108 -89c0 -71 -55 -121 -102 -149c-35 -21 -75 -34 -116 -34c-55 0 -108 28 -108 89c0 71 55 121 102 149c35 21 75 34 116 34z" fill="currentColor"/>
</g>
</a>
<g transform="translate(59.9966, 19.7607)">
<path transform="scale(0.0040, -0.0040)" d="M0 0c0 31 25 56 56 56s56 -25 56 -56s-25 -56 -56 -56s-56 25 -56 56z" fill="currentColor"/>
</g>
<a style="color:inherit;" xlink:href="textedit://C:/Users/har1sf0x/Documents/GitHub/musicSchoolTampouras.github.io/sheets/ly/%ce%a0%ce%bf%ce%b4%ce%b1%cf%81%ce%ac%ce%ba%ce%b9_%ce%b2.ly:16:45:46">
<g transform="translate(58.5966, 20.2607)">
<path transform="scale(0.0040, -0.0040)" d="M-23 -116c0 28 11 42 40 42c33 0 78 -13 119 -31l-132 158c-7 9 -10 17 -10 25c0 34 50 66 87 99c25 22 37 52 37 83c0 24 -8 49 -25 69l-35 42c-3 3 -4 7 -4 10c0 9 9 15 17 15c4 0 8 -1 11 -5l151 -180c7 -9 10 -17 10 -25c0 -34 -50 -66 -87 -99
c-25 -22 -37 -52 -37 -83c0 -24 7 -49 24 -69l84 -99c3 -3 4 -7 4 -10c0 -9 -8 -16 -16 -16c-4 0 -9 2 -12 6c-18 21 -63 38 -97 38c-41 0 -53 -26 -53 -67c0 -35 11 -74 28 -94c7 -8 -5 -19 -12 -11c-45 54 -92 148 -92 202z" fill="currentColor"/>
</g>
</a>
<a style="color:inherit;" xlink:href="textedit://C:/Users/har1sf0x/Documents/GitHub/musicSchoolTampouras.github.io/sheets/ly/%ce%a0%ce%bf%ce%b4%ce%b1%cf%81%ce%ac%ce%ba%ce%b9_%ce%b2.ly:15:95:96">
<g transform="scale(1.0000, -1.0000)">
<g transform="translate(39.6698, -15.9417)">
<line stroke-linejoin="round" stroke-linecap="round" stroke-width="0.1380" stroke="currentColor" x1="0" y1="0" x2="0" y2="-1.6000"/>
</g>
<g transform="translate(39.6698, -15.4917)">
<path transform="scale(0.0036, -0.0036)" d="M-103 250c5 0 10 -1 14 -5c40 -35 70 -79 89 -128c19 49 49 93 89 128c4 4 9 5 14 5c11 0 22 -10 22 -22c0 -6 -2 -12 -7 -16c-61 -54 -96 -131 -96 -212c0 -14 -11 -22 -22 -22s-22 8 -22 22c0 81 -35 158 -96 212c-5 4 -7 10 -7 16c0 12 11 22 22 22z" fill="currentColor"/>
</g>
</g>
</a>
<g transform="translate(44.0658, 20.2607)">
<rect x="-0.0650" y="-2.5000" width="0.1300" height="3.3139" ry="0.0400" fill="currentColor"/>
</g>
<g transform="translate(44.5808, 20.7607)">
<path transform="scale(0.0040, -0.0040)" d="M0 0c0 31 25 56 56 56s56 -25 56 -56s-25 -56 -56 -56s-56 25 -56 56z" fill="currentColor"/>
</g>
<a style="color:inherit;" xlink:href="textedit://C:/Users/har1sf0x/Documents/GitHub/musicSchoolTampouras.github.io/sheets/ly/%ce%a0%ce%bf%ce%b4%ce%b1%cf%81%ce%ac%ce%ba%ce%b9_%ce%b2.ly:16:7:8">
<g transform="translate(43.4787, 16.6323)">
<line stroke-linejoin="round" stroke-linecap="round" stroke-width="0.1380" stroke="currentColor" x1="0" y1="0" x2="0" y2="-1.6000"/>
</g>
<g transform="translate(43.4787, 17.0823)">
<path transform="scale(0.0036, -0.0036)" d="M-103 250c5 0 10 -1 14 -5c40 -35 70 -79 89 -128c19 49 49 93 89 128c4 4 9 5 14 5c11 0 22 -10 22 -22c0 -6 -2 -12 -7 -16c-61 -54 -96 -131 -96 -212c0 -14 -11 -22 -22 -22s-22 8 -22 22c0 81 -35 158 -96 212c-5 4 -7 10 -7 16c0 12 11 22 22 22z" fill="currentColor"/>
</g>
</a>
<a style="color:inherit;" xlink:href="textedit://C:/Users/har1sf0x/Documents/GitHub/musicSchoolTampouras.github.io/sheets/ly/%ce%a0%ce%bf%ce%b4%ce%b1%cf%81%ce%ac%ce%ba%ce%b9_%ce%b2.ly:16:2:3">
<g transform="translate(42.8266, 21.2607)">
<path transform="scale(0.0040, -0.0040)" d="M218 136c55 0 108 -28 108 -89c0 -71 -55 -121 -102 -149c-35 -21 -75 -34 -116 -34c-55 0 -108 28 -108 89c0 71 55 121 102 149c35 21 75 34 116 34z" fill="currentColor"/>
</g>
</a>
<g transform="translate(39.1477, 23.5957)">
<path transform="scale(0.0040, -0.0040)" d="M0 0h-16v250h16v-250zM0 0v250c97 59 224 148 224 259c0 57 -15 112 -40 163c-3 16 10 27 23 27c7 0 15 -3 20 -11c25 -56 40 -117 40 -179c0 -203 -267 -306 -267 -509z" fill="currentColor"/>
</g>
<g transform="translate(39.0827, 20.2607)">
<rect x="-0.0650" y="0.1861" width="0.1300" height="3.1889" ry="0.0400" fill="currentColor"/>
</g>
<g transform="translate(5.6906, 34.8482)">
<line stroke-linejoin="round" stroke-linecap="round" stroke-width="0.1000" stroke="currentColor" x1="0.0500" y1="0" x2="108.0705" y2="0"/>
</g>
<g transform="translate(5.6906, 33.8482)">
<line stroke-linejoin="round" stroke-linecap="round" stroke-width="0.1000" stroke="currentColor" x1="0.0500" y1="0" x2="108.0705" y2="0"/>
</g>
<g transform="translate(5.6906, 32.8482)">
<line stroke-linejoin="round" stroke-linecap="round" stroke-width="0.1000" stroke="currentColor" x1="0.0500" y1="0" x2="108.0705" y2="0"/>
</g>
<g transform="translate(5.6906, 31.8482)">
<line stroke-linejoin="round" stroke-linecap="round" stroke-width="0.1000" stroke="currentColor" x1="0.0500" y1="0" x2="108.0705" y2="0"/>
</g>
<g transform="translate(5.6906, 30.8482)">
<line stroke-linejoin="round" stroke-linecap="round" stroke-width="0.1000" stroke="currentColor" x1="0.0500" y1="0" x2="108.0705" y2="0"/>
</g>
<g transform="translate(101.6681, 32.8482)">
<rect x="0.0000" y="-2.0000" width="0.1900" height="4.0000" ry="0.0000" fill="currentColor"/>
</g>
<g transform="translate(50.3380, 32.8482)">
<rect x="0.0000" y="-2.0000" width="0.1900" height="4.0000" ry="0.0000" fill="currentColor"/>
</g>
<g transform="translate(25.5591, 32.8482)">
<rect x="0.0000" y="-2.0000" width="0.1900" height="4.0000" ry="0.0000" fill="currentColor"/>
</g>
<g transform="translate(74.8919, 32.8482)">
<rect x="0.0000" y="-2.0000" width="0.1900" height="4.0000" ry="0.0000" fill="currentColor"/>
</g>
<g transform="translate(113.2110, 32.8482)">
<rect x="0.0000" y="-2.0000" width="0.6000" height="4.0000" ry="0.0000" fill="currentColor"/>
</g>
<g transform="translate(112.7210, 32.8482)">
<rect x="0.0000" y="-2.0000" width="0.1900" height="4.0000" ry="0.0000" fill="currentColor"/>
</g>
<g transform="translate(38.8993, 32.8482)">
<rect x="0.0000" y="-2.0000" width="0.1900" height="4.0000" ry="0.0000" fill="currentColor"/>
</g>
<g transform="translate(61.5517, 32.8482)">
<rect x="0.0000" y="-2.0000" width="0.1900" height="4.0000" ry="0.0000" fill="currentColor"/>
</g>
<g transform="translate(90.0110, 32.8482)">
<rect x="0.0000" y="-2.0000" width="0.1900" height="4.0000" ry="0.0000" fill="currentColor"/>
</g>
<g transform="translate(80.5929, 36.1832)">
<path transform="scale(0.0040, -0.0040)" d="M0 0h-16v250h16v-250zM0 0v250c97 59 224 148 224 259c0 57 -15 112 -40 163c-3 16 10 27 23 27c7 0 15 -3 20 -11c25 -56 40 -117 40 -179c0 -203 -267 -306 -267 -509z" fill="currentColor"/>
</g>
<g transform="translate(80.5279, 32.8482)">
<rect x="-0.0650" y="0.1861" width="0.1300" height="3.1889" ry="0.0400" fill="currentColor"/>
</g>
<a style="color:inherit;" xlink:href="textedit://C:/Users/har1sf0x/Documents/GitHub/musicSchoolTampouras.github.io/sheets/ly/%ce%a0%ce%bf%ce%b4%ce%b1%cf%81%ce%ac%ce%ba%ce%b9_%ce%b2.ly:23:60:61">
<g transform="translate(80.4629, 32.8482)">
<path transform="scale(0.0040, -0.0040)" d="M218 136c55 0 108 -28 108 -89c0 -71 -55 -121 -102 -149c-35 -21 -75 -34 -116 -34c-55 0 -108 28 -108 89c0 71 55 121 102 149c35 21 75 34 116 34z" fill="currentColor"/>
</g>
</a>
<a style="color:inherit;" xlink:href="textedit://C:/Users/har1sf0x/Documents/GitHub/musicSchoolTampouras.github.io/sheets/ly/%ce%a0%ce%bf%ce%b4%ce%b1%cf%81%ce%ac%ce%ba%ce%b9_%ce%b2.ly:23:85:86">
<g transform="translate(87.2354, 32.8482)">
<path transform="scale(0.0040, -0.0040)" d="M218 136c55 0 108 -28 108 -89c0 -71 -55 -121 -102 -149c-35 -21 -75 -34 -116 -34c-55 0 -108 28 -108 89c0 71 55 121 102 149c35 21 75 34 116 34z" fill="currentColor"/>
</g>
</a>
<a style="color:inherit;" xlink:href="textedit://C:/Users/har1sf0x/Documents/GitHub/musicSchoolTampouras.github.io/sheets/ly/%ce%a0%ce%bf%ce%b4%ce%b1%cf%81%ce%ac%ce%ba%ce%b9_%ce%b2.ly:24:2:3">
<g transform="translate(91.2028, 33.8482)">
<path transform="scale(0.0040, -0.0040)" d="M218 136c55 0 108 -28 108 -89c0 -71 -55 -121 -102 -149c-35 -21 -75 -34 -116 -34c-55 0 -108 28 -108 89c0 71 55 121 102 149c35 21 75 34 116 34z" fill="currentColor"/>
</g>
</a>
<g transform="translate(87.3654, 36.1832)">
<path transform="scale(0.0040, -0.0040)" d="M0 0h-16v250h16v-250zM0 0v250c97 59 224 148 224 259c0 57 -15 112 -40 163c-3 16 10 27 23 27c7 0 15 -3 20 -11c25 -56 40 -117 40 -179c0 -203 -267 -306 -267 -509z" fill="currentColor"/>
</g>
<g transform="translate(87.3004, 32.8482)">
<rect x="-0.0650" y="0.1861" width="0.1300" height="3.1889" ry="0.0400" fill="currentColor"/>
</g>
<a style="color:inherit;" xlink:href="textedit://C:/Users/har1sf0x/Documents/GitHub/musicSchoolTampouras.github.io/sheets/ly/%ce%a0%ce%bf%ce%b4%ce%b1%cf%81%ce%ac%ce%ba%ce%b9_%ce%b2.ly:23:68:69">
<g transform="translate(83.2385, 31.8482)">
<path transform="scale(0.0040, -0.0040)" d="M218 136c55 0 108 -28 108 -89c0 -71 -55 -121 -102 -149c-35 -21 -75 -34 -116 -34c-55 0 -108 28 -108 89c0 71 55 121 102 149c35 21 75 34 116 34z" fill="currentColor"/>
</g>
</a>
<g transform="translate(83.3035, 32.8482)">
<rect x="-0.0650" y="-0.8139" width="0.1300" height="3.3139" ry="0.0400" fill="currentColor"/>
</g>
<a style="color:inherit;" xlink:href="textedit://C:/Users/har1sf0x/Documents/GitHub/musicSchoolTampouras.github.io/sheets/ly/%ce%a0%ce%bf%ce%b4%ce%b1%cf%81%ce%ac%ce%ba%ce%b9_%ce%b2.ly:23:72:73">
<g transform="scale(1.0000, -1.0000)">
<g transform="translate(83.8906, -28.5292)">
<line stroke-linejoin="round" stroke-linecap="round" stroke-width="0.1380" stroke="currentColor" x1="0" y1="0" x2="0" y2="-1.6000"/>
</g>
<g transform="translate(83.8906, -28.0792)">
<path transform="scale(0.0036, -0.0036)" d="M-103 250c5 0 10 -1 14 -5c40 -35 70 -79 89 -128c19 49 49 93 89 128c4 4 9 5 14 5c11 0 22 -10 22 -22c0 -6 -2 -12 -7 -16c-61 -54 -96 -131 -96 -212c0 -14 -11 -22 -22 -22s-22 8 -22 22c0 81 -35 158 -96 212c-5 4 -7 10 -7 16c0 12 11 22 22 22z" fill="currentColor"/>
</g>
</g>
<g transform="translate(83.8906, 28.5792)">
<path transform="scale(0.0040, -0.0040)" d="M-105 -250c-11 0 -20 9 -20 20c0 6 2 11 7 15c62 54 98 133 98 215c0 13 10 20 20 20s20 -7 20 -20c0 -82 36 -161 98 -215c5 -4 7 -9 7 -15c0 -11 -9 -20 -20 -20c-5 0 -9 2 -13 5c-41 36 -73 82 -92 133c-19 -51 -51 -97 -92 -133c-4 -3 -8 -5 -13 -5z" fill="currentColor"/>
</g>
<g transform="translate(83.8906, 29.0792)">
<path transform="scale(0.0040, -0.0040)" d="M-105 -250c-11 0 -20 9 -20 20c0 6 2 11 7 15c62 54 98 133 98 215c0 13 10 20 20 20s20 -7 20 -20c0 -82 36 -161 98 -215c5 -4 7 -9 7 -15c0 -11 -9 -20 -20 -20c-5 0 -9 2 -13 5c-41 36 -73 82 -92 133c-19 -51 -51 -97 -92 -133c-4 -3 -8 -5 -13 -5z" fill="currentColor"/>
</g>
</a>
<a style="color:inherit;" xlink:href="textedit://C:/Users/har1sf0x/Documents/GitHub/musicSchoolTampouras.github.io/sheets/ly/%ce%a0%ce%bf%ce%b4%ce%b1%cf%81%ce%ac%ce%ba%ce%b9_%ce%b2.ly:24:7:8">
<g transform="translate(91.8549, 29.2198)">
<line stroke-linejoin="round" stroke-linecap="round" stroke-width="0.1380" stroke="currentColor" x1="0" y1="0" x2="0" y2="-1.6000"/>
</g>
<g transform="translate(91.8549, 29.6698)">
<path transform="scale(0.0036, -0.0036)" d="M-103 250c5 0 10 -1 14 -5c40 -35 70 -79 89 -128c19 49 49 93 89 128c4 4 9 5 14 5c11 0 22 -10 22 -22c0 -6 -2 -12 -7 -16c-61 -54 -96 -131 -96 -212c0 -14 -11 -22 -22 -22s-22 8 -22 22c0 81 -35 158 -96 212c-5 4 -7 10 -7 16c0 12 11 22 22 22z" fill="currentColor"/>
</g>
</a>
<g transform="translate(69.0903, 32.8482)">
<rect x="-0.0650" y="-3.0000" width="0.1300" height="3.3139" ry="0.0400" fill="currentColor"/>
</g>
<a style="color:inherit;" xlink:href="textedit://C:/Users/har1sf0x/Documents/GitHub/musicSchoolTampouras.github.io/sheets/ly/%ce%a0%ce%bf%ce%b4%ce%b1%cf%81%ce%ac%ce%ba%ce%b9_%ce%b2.ly:23:23:24">
<g transform="scale(1.0000, -1.0000)">
<g transform="translate(68.5032, -27.5792)">
<line stroke-linejoin="round" stroke-linecap="round" stroke-width="0.1380" stroke="currentColor" x1="0" y1="0" x2="0" y2="-1.6000"/>
</g>
<g transform="translate(68.5032, -27.1292)">
<path transform="scale(0.0036, -0.0036)" d="M-103 250c5 0 10 -1 14 -5c40 -35 70 -79 89 -128c19 49 49 93 89 128c4 4 9 5 14 5c11 0 22 -10 22 -22c0 -6 -2 -12 -7 -16c-61 -54 -96 -131 -96 -212c0 -14 -11 -22 -22 -22s-22 8 -22 22c0 81 -35 158 -96 212c-5 4 -7 10 -7 16c0 12 11 22 22 22z" fill="currentColor"/>
</g>
</g>
<g transform="translate(68.5032, 27.6292)">
<path transform="scale(0.0040, -0.0040)" d="M-105 -250c-11 0 -20 9 -20 20c0 6 2 11 7 15c62 54 98 133 98 215c0 13 10 20 20 20s20 -7 20 -20c0 -82 36 -161 98 -215c5 -4 7 -9 7 -15c0 -11 -9 -20 -20 -20c-5 0 -9 2 -13 5c-41 36 -73 82 -92 133c-19 -51 -51 -97 -92 -133c-4 -3 -8 -5 -13 -5z" fill="currentColor"/>
</g>
<g transform="translate(68.5032, 28.1292)">
<path transform="scale(0.0040, -0.0040)" d="M-105 -250c-11 0 -20 9 -20 20c0 6 2 11 7 15c62 54 98 133 98 215c0 13 10 20 20 20s20 -7 20 -20c0 -82 36 -161 98 -215c5 -4 7 -9 7 -15c0 -11 -9 -20 -20 -20c-5 0 -9 2 -13 5c-41 36 -73 82 -92 133c-19 -51 -51 -97 -92 -133c-4 -3 -8 -5 -13 -5z" fill="currentColor"/>
</g>
</a>
<a style="color:inherit;" xlink:href="textedit://C:/Users/har1sf0x/Documents/GitHub/musicSchoolTampouras.github.io/sheets/ly/%ce%a0%ce%bf%ce%b4%ce%b1%cf%81%ce%ac%ce%ba%ce%b9_%ce%b2.ly:23:19:20">
<g transform="translate(67.8511, 33.3482)">
<path transform="scale(0.0040, -0.0040)" d="M218 136c55 0 108 -28 108 -89c0 -71 -55 -121 -102 -149c-35 -21 -75 -34 -116 -34c-55 0 -108 28 -108 89c0 71 55 121 102 149c35 21 75 34 116 34z" fill="currentColor"/>
</g>
</a>
<a style="color:inherit;" xlink:href="textedit://C:/Users/har1sf0x/Documents/GitHub/musicSchoolTampouras.github.io/sheets/ly/%ce%a0%ce%bf%ce%b4%ce%b1%cf%81%ce%ac%ce%ba%ce%b9_%ce%b2.ly:23:84:85">
<g transform="translate(83.2385, 32.8482)">
<path stroke-width="0.0800" stroke-linejoin="round" stroke-linecap="round" stroke="currentColor" fill="currentColor" d="M0.7576 -2.1950C1.9502 -2.8512 4.0116 -2.3355 4.7546 -1.1950L4.7546 -1.1950C3.9824 -2.2191 1.9210 -2.7348 0.7576 -2.1950z"/>
</g>
</a>
<g transform="translate(76.2809, 32.8482)">
<rect x="-0.0650" y="-0.3139" width="0.1300" height="3.3139" ry="0.0400" fill="currentColor"/>
</g>
<a style="color:inherit;" xlink:href="textedit://C:/Users/har1sf0x/Documents/GitHub/musicSchoolTampouras.github.io/sheets/ly/%ce%a0%ce%bf%ce%b4%ce%b1%cf%81%ce%ac%ce%ba%ce%b9_%ce%b2.ly:23:48:49">
<g transform="translate(76.8680, 29.6698)">
<line stroke-linejoin="round" stroke-linecap="round" stroke-width="0.1380" stroke="currentColor" x1="0" y1="0" x2="0" y2="-1.6000"/>
</g>
<g transform="translate(76.8680, 30.1198)">
<path transform="scale(0.0036, -0.0036)" d="M-103 250c5 0 10 -1 14 -5c40 -35 70 -79 89 -128c19 49 49 93 89 128c4 4 9 5 14 5c11 0 22 -10 22 -22c0 -6 -2 -12 -7 -16c-61 -54 -96 -131 -96 -212c0 -14 -11 -22 -22 -22s-22 8 -22 22c0 81 -35 158 -96 212c-5 4 -7 10 -7 16c0 12 11 22 22 22z" fill="currentColor"/>
</g>
</a>
<a style="color:inherit;" xlink:href="textedit://C:/Users/har1sf0x/Documents/GitHub/musicSchoolTampouras.github.io/sheets/ly/%ce%a0%ce%bf%ce%b4%ce%b1%cf%81%ce%ac%ce%ba%ce%b9_%ce%b2.ly:23:44:45">
<g transform="translate(76.2159, 32.3482)">
<path transform="scale(0.0040, -0.0040)" d="M218 136c55 0 108 -28 108 -89c0 -71 -55 -121 -102 -149c-35 -21 -75 -34 -116 -34c-55 0 -108 28 -108 89c0 71 55 121 102 149c35 21 75 34 116 34z" fill="currentColor"/>
</g>
</a>
<g transform="translate(72.2463, 36.1832)">
<path transform="scale(0.0040, -0.0040)" d="M0 0h-16v250h16v-250zM0 0v250c97 59 224 148 224 259c0 57 -15 112 -40 163c-3 16 10 27 23 27c7 0 15 -3 20 -11c25 -56 40 -117 40 -179c0 -203 -267 -306 -267 -509z" fill="currentColor"/>
</g>
<g transform="translate(72.1813, 32.8482)">
<rect x="-0.0650" y="0.1861" width="0.1300" height="3.1889" ry="0.0400" fill="currentColor"/>
</g>
<a style="color:inherit;" xlink:href="textedit://C:/Users/har1sf0x/Documents/GitHub/musicSchoolTampouras.github.io/sheets/ly/%ce%a0%ce%bf%ce%b4%ce%b1%cf%81%ce%ac%ce%ba%ce%b9_%ce%b2.ly:23:36:37">
<g transform="translate(72.1163, 32.8482)">
<path transform="scale(0.0040, -0.0040)" d="M218 136c55 0 108 -28 108 -89c0 -71 -55 -121 -102 -149c-35 -21 -75 -34 -116 -34c-55 0 -108 28 -108 89c0 71 55 121 102 149c35 21 75 34 116 34z" fill="currentColor"/>
</g>
</a>
<a style="color:inherit;" xlink:href="textedit://C:/Users/har1sf0x/Documents/GitHub/musicSchoolTampouras.github.io/sheets/ly/%ce%a0%ce%bf%ce%b4%ce%b1%cf%81%ce%ac%ce%ba%ce%b9_%ce%b2.ly:24:62:63">
<g transform="translate(107.9676, 32.8482)">
<path transform="scale(0.0040, -0.0040)" d="M-23 -116c0 28 11 42 40 42c33 0 78 -13 119 -31l-132 158c-7 9 -10 17 -10 25c0 34 50 66 87 99c25 22 37 52 37 83c0 24 -8 49 -25 69l-35 42c-3 3 -4 7 -4 10c0 9 9 15 17 15c4 0 8 -1 11 -5l151 -180c7 -9 10 -17 10 -25c0 -34 -50 -66 -87 -99
c-25 -22 -37 -52 -37 -83c0 -24 7 -49 24 -69l84 -99c3 -3 4 -7 4 -10c0 -9 -8 -16 -16 -16c-4 0 -9 2 -12 6c-18 21 -63 38 -97 38c-41 0 -53 -26 -53 -67c0 -35 11 -74 28 -94c7 -8 -5 -19 -12 -11c-45 54 -92 148 -92 202z" fill="currentColor"/>
</g>
</a>
<g transform="translate(109.3676, 32.3482)">
<path transform="scale(0.0040, -0.0040)" d="M0 0c0 31 25 56 56 56s56 -25 56 -56s-25 -56 -56 -56s-56 25 -56 56z" fill="currentColor"/>
</g>
<g transform="translate(105.8533, 33.3482)">
<path transform="scale(0.0040, -0.0040)" d="M0 0c0 31 25 56 56 56s56 -25 56 -56s-25 -56 -56 -56s-56 25 -56 56z" fill="currentColor"/>
</g>
<g transform="translate(105.8533, 34.3482)">
<path transform="scale(0.0040, -0.0040)" d="M0 0c0 31 25 56 56 56s56 -25 56 -56s-25 -56 -56 -56s-56 25 -56 56z" fill="currentColor"/>
</g>
<g transform="translate(104.0991, 32.8482)">
<rect x="-0.0650" y="-3.0000" width="0.1300" height="4.8139" ry="0.0400" fill="currentColor"/>
</g>
<g transform="translate(105.8533, 32.3482)">
<path transform="scale(0.0040, -0.0040)" d="M0 0c0 31 25 56 56 56s56 -25 56 -56s-25 -56 -56 -56s-56 25 -56 56z" fill="currentColor"/>
</g>
<a style="color:inherit;" xlink:href="textedit://C:/Users/har1sf0x/Documents/GitHub/musicSchoolTampouras.github.io/sheets/ly/%ce%a0%ce%bf%ce%b4%ce%b1%cf%81%ce%ac%ce%ba%ce%b9_%ce%b2.ly:23:59:60">
<g transform="translate(76.2159, 32.8482)">
<path stroke-width="0.0800" stroke-linejoin="round" stroke-linecap="round" stroke="currentColor" fill="currentColor" d="M0.6878 -1.6239C1.7852 -2.7798 3.9930 -2.5979 4.9348 -1.2739L4.9348 -1.2739C3.9831 -2.4783 1.7753 -2.6602 0.6878 -1.6239z"/>
</g>
</a>
<a style="color:inherit;" xlink:href="textedit://C:/Users/har1sf0x/Documents/GitHub/musicSchoolTampouras.github.io/sheets/ly/%ce%a0%ce%bf%ce%b4%ce%b1%cf%81%ce%ac%ce%ba%ce%b9_%ce%b2.ly:23:35:36">
<g transform="translate(67.8511, 32.8482)">
<path stroke-width="0.0800" stroke-linejoin="round" stroke-linecap="round" stroke="currentColor" fill="currentColor" d="M1.6042 -0.5450C2.2712 -1.4861 3.8545 -1.8048 4.8336 -1.1950L4.8336 -1.1950C3.8781 -1.6872 2.2949 -1.3685 1.6042 -0.5450z"/>
</g>
</a>
<a style="color:inherit;" xlink:href="textedit://C:/Users/har1sf0x/Documents/GitHub/musicSchoolTampouras.github.io/sheets/ly/%ce%a0%ce%bf%ce%b4%ce%b1%cf%81%ce%ac%ce%ba%ce%b9_%ce%b2.ly:21:75:76">
<g transform="translate(31.8585, 32.8482)">
<path stroke-width="0.0800" stroke-linejoin="round" stroke-linecap="round" stroke="currentColor" fill="currentColor" d="M1.6042 -0.5450C2.2712 -1.4861 3.8545 -1.8048 4.8336 -1.1950L4.8336 -1.1950C3.8781 -1.6872 2.2949 -1.3685 1.6042 -0.5450z"/>
</g>
</a>
<a style="color:inherit;" xlink:href="textedit://C:/Users/har1sf0x/Documents/GitHub/musicSchoolTampouras.github.io/sheets/ly/%ce%a0%ce%bf%ce%b4%ce%b1%cf%81%ce%ac%ce%ba%ce%b9_%ce%b2.ly:21:34:35">
<g transform="translate(18.5182, 32.8482)">
<path stroke-width="0.0800" stroke-linejoin="round" stroke-linecap="round" stroke="currentColor" fill="currentColor" d="M1.6042 -0.5450C2.2712 -1.4861 3.8545 -1.8048 4.8336 -1.1950L4.8336 -1.1950C3.8781 -1.6872 2.2949 -1.3685 1.6042 -0.5450z"/>
</g>
</a>
<a style="color:inherit;" xlink:href="textedit://C:/Users/har1sf0x/Documents/GitHub/musicSchoolTampouras.github.io/sheets/ly/%ce%a0%ce%bf%ce%b4%ce%b1%cf%81%ce%ac%ce%ba%ce%b9_%ce%b2.ly:24:30:31">
<g transform="scale(1.0000, -1.0000)">
<g transform="translate(96.9626, -27.5792)">
<line stroke-linejoin="round" stroke-linecap="round" stroke-width="0.1380" stroke="currentColor" x1="0" y1="0" x2="0" y2="-1.6000"/>
</g>
<g transform="translate(96.9626, -27.1292)">
<path transform="scale(0.0036, -0.0036)" d="M-103 250c5 0 10 -1 14 -5c40 -35 70 -79 89 -128c19 49 49 93 89 128c4 4 9 5 14 5c11 0 22 -10 22 -22c0 -6 -2 -12 -7 -16c-61 -54 -96 -131 -96 -212c0 -14 -11 -22 -22 -22s-22 8 -22 22c0 81 -35 158 -96 212c-5 4 -7 10 -7 16c0 12 11 22 22 22z" fill="currentColor"/>
</g>
</g>
</a>
<g color="rgb(50.0000%, 50.0000%, 50.0000%)">
<a style="color:inherit;" xlink:href="textedit://C:/Users/har1sf0x/Documents/GitHub/musicSchoolTampouras.github.io/sheets/ly/%ce%a0%ce%bf%ce%b4%ce%b1%cf%81%ce%ac%ce%ba%ce%b9_%ce%b2.ly:24:18:19">
<g transform="translate(97.5497, 33.3482)">
<path transform="scale(0.0040, -0.0040)" d="M218 136c55 0 108 -28 108 -89c0 -71 -55 -121 -102 -149c-35 -21 -75 -34 -116 -34c-55 0 -108 28 -108 89c0 71 55 121 102 149c35 21 75 34 116 34z" fill="currentColor"/>
</g>
</a>
</g>
<g color="rgb(50.0000%, 50.0000%, 50.0000%)">
<a style="color:inherit;" xlink:href="textedit://C:/Users/har1sf0x/Documents/GitHub/musicSchoolTampouras.github.io/sheets/ly/%ce%a0%ce%bf%ce%b4%ce%b1%cf%81%ce%ac%ce%ba%ce%b9_%ce%b2.ly:24:18:19">
<g transform="translate(96.3105, 34.8482)">
<path transform="scale(0.0040, -0.0040)" d="M218 136c55 0 108 -28 108 -89c0 -71 -55 -121 -102 -149c-35 -21 -75 -34 -116 -34c-55 0 -108 28 -108 89c0 71 55 121 102 149c35 21 75 34 116 34z" fill="currentColor"/>
</g>
</a>
</g>
<a style="color:inherit;" xlink:href="textedit://C:/Users/har1sf0x/Documents/GitHub/musicSchoolTampouras.github.io/sheets/ly/%ce%a0%ce%bf%ce%b4%ce%b1%cf%81%ce%ac%ce%ba%ce%b9_%ce%b2.ly:24:18:19">
<g transform="translate(96.3105, 33.3482)">
<path transform="scale(0.0040, -0.0040)" d="M218 136c55 0 108 -28 108 -89c0 -71 -55 -121 -102 -149c-35 -21 -75 -34 -116 -34c-55 0 -108 28 -108 89c0 71 55 121 102 149c35 21 75 34 116 34z" fill="currentColor"/>
</g>
</a>
<g transform="translate(99.3039, 32.3482)">
<path transform="scale(0.0040, -0.0040)" d="M0 0c0 31 25 56 56 56s56 -25 56 -56s-25 -56 -56 -56s-56 25 -56 56z" fill="currentColor"/>
</g>
<g transform="translate(92.4420, 32.8482)">
<rect x="-0.0650" y="-2.5000" width="0.1300" height="3.3139" ry="0.0400" fill="currentColor"/>
</g>
<a style="color:inherit;" xlink:href="textedit://C:/Users/har1sf0x/Documents/GitHub/musicSchoolTampouras.github.io/sheets/ly/%ce%a0%ce%bf%ce%b4%ce%b1%cf%81%ce%ac%ce%ba%ce%b9_%ce%b2.ly:24:51:52">
<g transform="translate(103.5120, 28.7198)">
<line stroke-linejoin="round" stroke-linecap="round" stroke-width="0.1380" stroke="currentColor" x1="0" y1="0" x2="0" y2="-1.6000"/>
</g>
<g transform="translate(103.5120, 29.1698)">
<path transform="scale(0.0036, -0.0036)" d="M-103 250c5 0 10 -1 14 -5c40 -35 70 -79 89 -128c19 49 49 93 89 128c4 4 9 5 14 5c11 0 22 -10 22 -22c0 -6 -2 -12 -7 -16c-61 -54 -96 -131 -96 -212c0 -14 -11 -22 -22 -22s-22 8 -22 22c0 81 -35 158 -96 212c-5 4 -7 10 -7 16c0 12 11 22 22 22z" fill="currentColor"/>
</g>
</a>
<g color="rgb(50.0000%, 50.0000%, 50.0000%)">
<a style="color:inherit;" xlink:href="textedit://C:/Users/har1sf0x/Documents/GitHub/musicSchoolTampouras.github.io/sheets/ly/%ce%a0%ce%bf%ce%b4%ce%b1%cf%81%ce%ac%ce%ba%ce%b9_%ce%b2.ly:24:39:40">
<g transform="translate(104.0991, 33.3482)">
<path transform="scale(0.0040, -0.0040)" d="M218 136c55 0 108 -28 108 -89c0 -71 -55 -121 -102 -149c-35 -21 -75 -34 -116 -34c-55 0 -108 28 -108 89c0 71 55 121 102 149c35 21 75 34 116 34z" fill="currentColor"/>
</g>
</a>
</g>
<g color="rgb(50.0000%, 50.0000%, 50.0000%)">
<a style="color:inherit;" xlink:href="textedit://C:/Users/har1sf0x/Documents/GitHub/musicSchoolTampouras.github.io/sheets/ly/%ce%a0%ce%bf%ce%b4%ce%b1%cf%81%ce%ac%ce%ba%ce%b9_%ce%b2.ly:24:39:40">
<g transform="translate(102.8599, 34.8482)">
<path transform="scale(0.0040, -0.0040)" d="M218 136c55 0 108 -28 108 -89c0 -71 -55 -121 -102 -149c-35 -21 -75 -34 -116 -34c-55 0 -108 28 -108 89c0 71 55 121 102 149c35 21 75 34 116 34z" fill="currentColor"/>
</g>
</a>
</g>
<a style="color:inherit;" xlink:href="textedit://C:/Users/har1sf0x/Documents/GitHub/musicSchoolTampouras.github.io/sheets/ly/%ce%a0%ce%bf%ce%b4%ce%b1%cf%81%ce%ac%ce%ba%ce%b9_%ce%b2.ly:24:39:40">
<g transform="translate(102.8599, 33.3482)">
<path transform="scale(0.0040, -0.0040)" d="M218 136c55 0 108 -28 108 -89c0 -71 -55 -121 -102 -149c-35 -21 -75 -34 -116 -34c-55 0 -108 28 -108 89c0 71 55 121 102 149c35 21 75 34 116 34z" fill="currentColor"/>
</g>
</a>
<g transform="translate(92.9570, 33.3482)">
<path transform="scale(0.0040, -0.0040)" d="M0 0c0 31 25 56 56 56s56 -25 56 -56s-25 -56 -56 -56s-56 25 -56 56z" fill="currentColor"/>
</g>
<g transform="translate(99.3039, 33.3482)">
<path transform="scale(0.0040, -0.0040)" d="M0 0c0 31 25 56 56 56s56 -25 56 -56s-25 -56 -56 -56s-56 25 -56 56z" fill="currentColor"/>
</g>
<g transform="translate(99.3039, 34.3482)">
<path transform="scale(0.0040, -0.0040)" d="M0 0c0 31 25 56 56 56s56 -25 56 -56s-25 -56 -56 -56s-56 25 -56 56z" fill="currentColor"/>
</g>
<g transform="translate(97.5497, 32.8482)">
<rect x="-0.0650" y="-3.0000" width="0.1300" height="4.8139" ry="0.0400" fill="currentColor"/>
</g>
<g transform="translate(27.9900, 32.8482)">
<rect x="-0.0650" y="-2.5000" width="0.1300" height="3.3139" ry="0.0400" fill="currentColor"/>
</g>
<g transform="translate(28.5050, 33.3482)">
<path transform="scale(0.0040, -0.0040)" d="M0 0c0 31 25 56 56 56s56 -25 56 -56s-25 -56 -56 -56s-56 25 -56 56z" fill="currentColor"/>
</g>
<a style="color:inherit;" xlink:href="textedit://C:/Users/har1sf0x/Documents/GitHub/musicSchoolTampouras.github.io/sheets/ly/%ce%a0%ce%bf%ce%b4%ce%b1%cf%81%ce%ac%ce%ba%ce%b9_%ce%b2.ly:21:48:49">
<g transform="translate(27.4029, 29.2198)">
<line stroke-linejoin="round" stroke-linecap="round" stroke-width="0.1380" stroke="currentColor" x1="0" y1="0" x2="0" y2="-1.6000"/>
</g>
<g transform="translate(27.4029, 29.6698)">
<path transform="scale(0.0036, -0.0036)" d="M-103 250c5 0 10 -1 14 -5c40 -35 70 -79 89 -128c19 49 49 93 89 128c4 4 9 5 14 5c11 0 22 -10 22 -22c0 -6 -2 -12 -7 -16c-61 -54 -96 -131 -96 -212c0 -14 -11 -22 -22 -22s-22 8 -22 22c0 81 -35 158 -96 212c-5 4 -7 10 -7 16c0 12 11 22 22 22z" fill="currentColor"/>
</g>
</a>
<a style="color:inherit;" xlink:href="textedit://C:/Users/har1sf0x/Documents/GitHub/musicSchoolTampouras.github.io/sheets/ly/%ce%a0%ce%bf%ce%b4%ce%b1%cf%81%ce%ac%ce%ba%ce%b9_%ce%b2.ly:21:43:44">
<g transform="translate(26.7508, 33.8482)">
<path transform="scale(0.0040, -0.0040)" d="M218 136c55 0 108 -28 108 -89c0 -71 -55 -121 -102 -149c-35 -21 -75 -34 -116 -34c-55 0 -108 28 -108 89c0 71 55 121 102 149c35 21 75 34 116 34z" fill="currentColor"/>
</g>
</a>
<a style="color:inherit;" xlink:href="textedit://C:/Users/har1sf0x/Documents/GitHub/musicSchoolTampouras.github.io/sheets/ly/%ce%a0%ce%bf%ce%b4%ce%b1%cf%81%ce%ac%ce%ba%ce%b9_%ce%b2.ly:22:2:3">
<g transform="translate(40.0911, 33.8482)">
<path transform="scale(0.0040, -0.0040)" d="M218 136c55 0 108 -28 108 -89c0 -71 -55 -121 -102 -149c-35 -21 -75 -34 -116 -34c-55 0 -108 28 -108 89c0 71 55 121 102 149c35 21 75 34 116 34z" fill="currentColor"/>
</g>
</a>
<g transform="translate(36.2537, 36.1832)">
<path transform="scale(0.0040, -0.0040)" d="M0 0h-16v250h16v-250zM0 0v250c97 59 224 148 224 259c0 57 -15 112 -40 163c-3 16 10 27 23 27c7 0 15 -3 20 -11c25 -56 40 -117 40 -179c0 -203 -267 -306 -267 -509z" fill="currentColor"/>
</g>
<g transform="translate(36.1887, 32.8482)">
<rect x="-0.0650" y="0.1861" width="0.1300" height="3.1889" ry="0.0400" fill="currentColor"/>
</g>
<a style="color:inherit;" xlink:href="textedit://C:/Users/har1sf0x/Documents/GitHub/musicSchoolTampouras.github.io/sheets/ly/%ce%a0%ce%bf%ce%b4%ce%b1%cf%81%ce%ac%ce%ba%ce%b9_%ce%b2.ly:21:76:77">
<g transform="translate(36.1237, 32.8482)">
<path transform="scale(0.0040, -0.0040)" d="M218 136c55 0 108 -28 108 -89c0 -71 -55 -121 -102 -149c-35 -21 -75 -34 -116 -34c-55 0 -108 28 -108 89c0 71 55 121 102 149c35 21 75 34 116 34z" fill="currentColor"/>
</g>
</a>
<g transform="translate(33.0977, 32.8482)">
<rect x="-0.0650" y="-3.0000" width="0.1300" height="3.3139" ry="0.0400" fill="currentColor"/>
</g>
<a style="color:inherit;" xlink:href="textedit://C:/Users/har1sf0x/Documents/GitHub/musicSchoolTampouras.github.io/sheets/ly/%ce%a0%ce%bf%ce%b4%ce%b1%cf%81%ce%ac%ce%ba%ce%b9_%ce%b2.ly:21:63:64">
<g transform="scale(1.0000, -1.0000)">
<g transform="translate(32.5106, -27.5792)">
<line stroke-linejoin="round" stroke-linecap="round" stroke-width="0.1380" stroke="currentColor" x1="0" y1="0" x2="0" y2="-1.6000"/>
</g>
<g transform="translate(32.5106, -27.1292)">
<path transform="scale(0.0036, -0.0036)" d="M-103 250c5 0 10 -1 14 -5c40 -35 70 -79 89 -128c19 49 49 93 89 128c4 4 9 5 14 5c11 0 22 -10 22 -22c0 -6 -2 -12 -7 -16c-61 -54 -96 -131 -96 -212c0 -14 -11 -22 -22 -22s-22 8 -22 22c0 81 -35 158 -96 212c-5 4 -7 10 -7 16c0 12 11 22 22 22z" fill="currentColor"/>
</g>
</g>
<g transform="translate(32.5106, 27.6292)">
<path transform="scale(0.0040, -0.0040)" d="M-105 -250c-11 0 -20 9 -20 20c0 6 2 11 7 15c62 54 98 133 98 215c0 13 10 20 20 20s20 -7 20 -20c0 -82 36 -161 98 -215c5 -4 7 -9 7 -15c0 -11 -9 -20 -20 -20c-5 0 -9 2 -13 5c-41 36 -73 82 -92 133c-19 -51 -51 -97 -92 -133c-4 -3 -8 -5 -13 -5z" fill="currentColor"/>
</g>
<g transform="translate(32.5106, 28.1292)">
<path transform="scale(0.0040, -0.0040)" d="M-105 -250c-11 0 -20 9 -20 20c0 6 2 11 7 15c62 54 98 133 98 215c0 13 10 20 20 20s20 -7 20 -20c0 -82 36 -161 98 -215c5 -4 7 -9 7 -15c0 -11 -9 -20 -20 -20c-5 0 -9 2 -13 5c-41 36 -73 82 -92 133c-19 -51 -51 -97 -92 -133c-4 -3 -8 -5 -13 -5z" fill="currentColor"/>
</g>
</a>
<a style="color:inherit;" xlink:href="textedit://C:/Users/har1sf0x/Documents/GitHub/musicSchoolTampouras.github.io/sheets/ly/%ce%a0%ce%bf%ce%b4%ce%b1%cf%81%ce%ac%ce%ba%ce%b9_%ce%b2.ly:21:59:60">
<g transform="translate(31.8585, 33.3482)">
<path transform="scale(0.0040, -0.0040)" d="M218 136c55 0 108 -28 108 -89c0 -71 -55 -121 -102 -149c-35 -21 -75 -34 -116 -34c-55 0 -108 28 -108 89c0 71 55 121 102 149c35 21 75 34 116 34z" fill="currentColor"/>
</g>
</a>
<g transform="translate(14.6498, 32.8482)">
<rect x="-0.0650" y="-2.5000" width="0.1300" height="3.3139" ry="0.0400" fill="currentColor"/>
</g>
<g transform="translate(15.1648, 33.3482)">
<path transform="scale(0.0040, -0.0040)" d="M0 0c0 31 25 56 56 56s56 -25 56 -56s-25 -56 -56 -56s-56 25 -56 56z" fill="currentColor"/>
</g>
<a style="color:inherit;" xlink:href="textedit://C:/Users/har1sf0x/Documents/GitHub/musicSchoolTampouras.github.io/sheets/ly/%ce%a0%ce%bf%ce%b4%ce%b1%cf%81%ce%ac%ce%ba%ce%b9_%ce%b2.ly:21:7:8">
<g transform="translate(14.0627, 29.2198)">
<line stroke-linejoin="round" stroke-linecap="round" stroke-width="0.1380" stroke="currentColor" x1="0" y1="0" x2="0" y2="-1.6000"/>
</g>
<g transform="translate(14.0627, 29.6698)">
<path transform="scale(0.0036, -0.0036)" d="M-103 250c5 0 10 -1 14 -5c40 -35 70 -79 89 -128c19 49 49 93 89 128c4 4 9 5 14 5c11 0 22 -10 22 -22c0 -6 -2 -12 -7 -16c-61 -54 -96 -131 -96 -212c0 -14 -11 -22 -22 -22s-22 8 -22 22c0 81 -35 158 -96 212c-5 4 -7 10 -7 16c0 12 11 22 22 22z" fill="currentColor"/>
</g>
</a>
<a style="color:inherit;" xlink:href="textedit://C:/Users/har1sf0x/Documents/GitHub/musicSchoolTampouras.github.io/sheets/ly/%ce%a0%ce%bf%ce%b4%ce%b1%cf%81%ce%ac%ce%ba%ce%b9_%ce%b2.ly:21:2:3">
<g transform="translate(13.4106, 33.8482)">
<path transform="scale(0.0040, -0.0040)" d="M218 136c55 0 108 -28 108 -89c0 -71 -55 -121 -102 -149c-35 -21 -75 -34 -116 -34c-55 0 -108 28 -108 89c0 71 55 121 102 149c35 21 75 34 116 34z" fill="currentColor"/>
</g>
</a>
<a style="color:inherit;" xlink:href="textedit://C:/Users/har1sf0x/Documents/GitHub/musicSchoolTampouras.github.io/sheets/ly/%ce%a0%ce%bf%ce%b4%ce%b1%cf%81%ce%ac%ce%ba%ce%b9_%ce%b2.ly:20:18:19">
<g transform="translate(5.6906, 29.5507)">
<text font-family="serif" font-size="2.6163" text-anchor="start" fill="currentColor">
<tspan>B</tspan>
</text>
</g>
</a>
<g transform="translate(10.1106, 32.8482)">
<path transform="scale(0.0040, -0.0040)" d="M143 41c-1 33 -22 63 -53 63c-29 0 -43 -34 -43 -67c0 -59 48 -101 93 -139c3 22 4 44 4 66v11zM185 -138c0 -14 -10 -25 -23 -25c-21 0 -30 25 -45 38c-61 52 -147 89 -147 169c0 54 37 102 89 102c33 0 66 -13 91 -34l-7 345c8 5 18 8 27 8s19 -3 27 -8z" fill="currentColor"/>
</g>
<g transform="translate(6.4906, 33.8482)">
<path transform="scale(0.0040, -0.0040)" d="M266 -635h-6c-108 0 -195 88 -195 197c0 58 53 103 112 103c54 0 95 -47 95 -103c0 -52 -43 -95 -95 -95c-11 0 -21 2 -31 6c26 -39 68 -65 117 -65h4zM461 -203c68 24 113 95 113 164c0 90 -66 179 -173 190c24 -116 46 -231 60 -354zM74 28c0 -135 129 -247 264 -247
c28 0 55 2 82 6c-14 127 -37 245 -63 364c-79 -8 -124 -61 -124 -119c0 -44 25 -91 81 -123c5 -5 7 -10 7 -15c0 -11 -10 -22 -22 -22c-3 0 -6 1 -9 2c-80 43 -117 115 -117 185c0 88 58 174 160 197c-14 58 -29 117 -46 175c-107 -121 -213 -243 -213 -403zM335 -262
c-188 0 -333 172 -333 374c0 177 131 306 248 441c-19 62 -37 125 -45 190c-6 52 -7 104 -7 156c0 115 55 224 149 292c6 5 14 5 20 0c71 -84 133 -245 133 -358c0 -143 -86 -255 -180 -364c21 -68 39 -138 56 -207c4 0 9 1 13 1c155 0 256 -128 256 -261
c0 -76 -33 -154 -107 -210c-22 -17 -47 -28 -73 -36c3 -35 5 -70 5 -105c0 -19 -1 -39 -2 -58c-7 -119 -88 -225 -202 -228l1 43c93 2 153 92 159 191c1 18 2 37 2 55c0 31 -1 61 -4 92c-29 -5 -58 -8 -89 -8zM428 916c0 55 -4 79 -20 129c-99 -48 -162 -149 -162 -259
c0 -74 18 -133 36 -194c80 97 146 198 146 324z" fill="currentColor"/>
</g>
<g transform="translate(22.9135, 36.1832)">
<path transform="scale(0.0040, -0.0040)" d="M0 0h-16v250h16v-250zM0 0v250c97 59 224 148 224 259c0 57 -15 112 -40 163c-3 16 10 27 23 27c7 0 15 -3 20 -11c25 -56 40 -117 40 -179c0 -203 -267 -306 -267 -509z" fill="currentColor"/>
</g>
<g transform="translate(22.8485, 32.8482)">
<rect x="-0.0650" y="0.1861" width="0.1300" height="3.1889" ry="0.0400" fill="currentColor"/>
</g>
<a style="color:inherit;" xlink:href="textedit://C:/Users/har1sf0x/Documents/GitHub/musicSchoolTampouras.github.io/sheets/ly/%ce%a0%ce%bf%ce%b4%ce%b1%cf%81%ce%ac%ce%ba%ce%b9_%ce%b2.ly:21:35:36">
<g transform="translate(22.7835, 32.8482)">
<path transform="scale(0.0040, -0.0040)" d="M218 136c55 0 108 -28 108 -89c0 -71 -55 -121 -102 -149c-35 -21 -75 -34 -116 -34c-55 0 -108 28 -108 89c0 71 55 121 102 149c35 21 75 34 116 34z" fill="currentColor"/>
</g>
</a>
<g transform="translate(19.7574, 32.8482)">
<rect x="-0.0650" y="-3.0000" width="0.1300" height="3.3139" ry="0.0400" fill="currentColor"/>
</g>
<a style="color:inherit;" xlink:href="textedit://C:/Users/har1sf0x/Documents/GitHub/musicSchoolTampouras.github.io/sheets/ly/%ce%a0%ce%bf%ce%b4%ce%b1%cf%81%ce%ac%ce%ba%ce%b9_%ce%b2.ly:21:22:23">
<g transform="scale(1.0000, -1.0000)">
<g transform="translate(19.1703, -27.5792)">
<line stroke-linejoin="round" stroke-linecap="round" stroke-width="0.1380" stroke="currentColor" x1="0" y1="0" x2="0" y2="-1.6000"/>
</g>
<g transform="translate(19.1703, -27.1292)">
<path transform="scale(0.0036, -0.0036)" d="M-103 250c5 0 10 -1 14 -5c40 -35 70 -79 89 -128c19 49 49 93 89 128c4 4 9 5 14 5c11 0 22 -10 22 -22c0 -6 -2 -12 -7 -16c-61 -54 -96 -131 -96 -212c0 -14 -11 -22 -22 -22s-22 8 -22 22c0 81 -35 158 -96 212c-5 4 -7 10 -7 16c0 12 11 22 22 22z" fill="currentColor"/>
</g>
</g>
<g transform="translate(19.1703, 27.6292)">
<path transform="scale(0.0040, -0.0040)" d="M-105 -250c-11 0 -20 9 -20 20c0 6 2 11 7 15c62 54 98 133 98 215c0 13 10 20 20 20s20 -7 20 -20c0 -82 36 -161 98 -215c5 -4 7 -9 7 -15c0 -11 -9 -20 -20 -20c-5 0 -9 2 -13 5c-41 36 -73 82 -92 133c-19 -51 -51 -97 -92 -133c-4 -3 -8 -5 -13 -5z" fill="currentColor"/>
</g>
<g transform="translate(19.1703, 28.1292)">
<path transform="scale(0.0040, -0.0040)" d="M-105 -250c-11 0 -20 9 -20 20c0 6 2 11 7 15c62 54 98 133 98 215c0 13 10 20 20 20s20 -7 20 -20c0 -82 36 -161 98 -215c5 -4 7 -9 7 -15c0 -11 -9 -20 -20 -20c-5 0 -9 2 -13 5c-41 36 -73 82 -92 133c-19 -51 -51 -97 -92 -133c-4 -3 -8 -5 -13 -5z" fill="currentColor"/>
</g>
</a>
<a style="color:inherit;" xlink:href="textedit://C:/Users/har1sf0x/Documents/GitHub/musicSchoolTampouras.github.io/sheets/ly/%ce%a0%ce%bf%ce%b4%ce%b1%cf%81%ce%ac%ce%ba%ce%b9_%ce%b2.ly:21:18:19">
<g transform="translate(18.5182, 33.3482)">
<path transform="scale(0.0040, -0.0040)" d="M218 136c55 0 108 -28 108 -89c0 -71 -55 -121 -102 -149c-35 -21 -75 -34 -116 -34c-55 0 -108 28 -108 89c0 71 55 121 102 149c35 21 75 34 116 34z" fill="currentColor"/>
</g>
</a>
<g transform="translate(51.7555, 32.8482)">
<rect x="-0.0650" y="-0.8139" width="0.1300" height="3.3139" ry="0.0400" fill="currentColor"/>
</g>
<g transform="translate(53.4447, 31.3482)">
<path transform="scale(0.0040, -0.0040)" d="M0 0c0 31 25 56 56 56s56 -25 56 -56s-25 -56 -56 -56s-56 25 -56 56z" fill="currentColor"/>
</g>
<a style="color:inherit;" xlink:href="textedit://C:/Users/har1sf0x/Documents/GitHub/musicSchoolTampouras.github.io/sheets/ly/%ce%a0%ce%bf%ce%b4%ce%b1%cf%81%ce%ac%ce%ba%ce%b9_%ce%b2.ly:22:34:35">
<g transform="translate(52.3426, 29.6698)">
<line stroke-linejoin="round" stroke-linecap="round" stroke-width="0.1380" stroke="currentColor" x1="0" y1="0" x2="0" y2="-1.6000"/>
</g>
<g transform="translate(52.3426, 30.1198)">
<path transform="scale(0.0036, -0.0036)" d="M-103 250c5 0 10 -1 14 -5c40 -35 70 -79 89 -128c19 49 49 93 89 128c4 4 9 5 14 5c11 0 22 -10 22 -22c0 -6 -2 -12 -7 -16c-61 -54 -96 -131 -96 -212c0 -14 -11 -22 -22 -22s-22 8 -22 22c0 81 -35 158 -96 212c-5 4 -7 10 -7 16c0 12 11 22 22 22z" fill="currentColor"/>
</g>
</a>
<a style="color:inherit;" xlink:href="textedit://C:/Users/har1sf0x/Documents/GitHub/musicSchoolTampouras.github.io/sheets/ly/%ce%a0%ce%bf%ce%b4%ce%b1%cf%81%ce%ac%ce%ba%ce%b9_%ce%b2.ly:22:7:8">
<g transform="translate(40.7432, 29.2198)">
<line stroke-linejoin="round" stroke-linecap="round" stroke-width="0.1380" stroke="currentColor" x1="0" y1="0" x2="0" y2="-1.6000"/>
</g>
<g transform="translate(40.7432, 29.6698)">
<path transform="scale(0.0036, -0.0036)" d="M-103 250c5 0 10 -1 14 -5c40 -35 70 -79 89 -128c19 49 49 93 89 128c4 4 9 5 14 5c11 0 22 -10 22 -22c0 -6 -2 -12 -7 -16c-61 -54 -96 -131 -96 -212c0 -14 -11 -22 -22 -22s-22 8 -22 22c0 81 -35 158 -96 212c-5 4 -7 10 -7 16c0 12 11 22 22 22z" fill="currentColor"/>
</g>
</a>
<a style="color:inherit;" xlink:href="textedit://C:/Users/har1sf0x/Documents/GitHub/musicSchoolTampouras.github.io/sheets/ly/%ce%a0%ce%bf%ce%b4%ce%b1%cf%81%ce%ac%ce%ba%ce%b9_%ce%b2.ly:22:31:32">
<g transform="translate(51.6905, 31.8482)">
<path transform="scale(0.0040, -0.0040)" d="M218 136c55 0 108 -28 108 -89c0 -71 -55 -121 -102 -149c-35 -21 -75 -34 -116 -34c-55 0 -108 28 -108 89c0 71 55 121 102 149c35 21 75 34 116 34z" fill="currentColor"/>
</g>
</a>
<g transform="translate(63.9826, 32.8482)">
<rect x="-0.0650" y="-2.5000" width="0.1300" height="3.3139" ry="0.0400" fill="currentColor"/>
</g>
<g transform="translate(64.4976, 33.3482)">
<path transform="scale(0.0040, -0.0040)" d="M0 0c0 31 25 56 56 56s56 -25 56 -56s-25 -56 -56 -56s-56 25 -56 56z" fill="currentColor"/>
</g>
<a style="color:inherit;" xlink:href="textedit://C:/Users/har1sf0x/Documents/GitHub/musicSchoolTampouras.github.io/sheets/ly/%ce%a0%ce%bf%ce%b4%ce%b1%cf%81%ce%ac%ce%ba%ce%b9_%ce%b2.ly:23:8:9">
<g transform="translate(63.3955, 29.2198)">
<line stroke-linejoin="round" stroke-linecap="round" stroke-width="0.1380" stroke="currentColor" x1="0" y1="0" x2="0" y2="-1.6000"/>
</g>
<g transform="translate(63.3955, 29.6698)">
<path transform="scale(0.0036, -0.0036)" d="M-103 250c5 0 10 -1 14 -5c40 -35 70 -79 89 -128c19 49 49 93 89 128c4 4 9 5 14 5c11 0 22 -10 22 -22c0 -6 -2 -12 -7 -16c-61 -54 -96 -131 -96 -212c0 -14 -11 -22 -22 -22s-22 8 -22 22c0 81 -35 158 -96 212c-5 4 -7 10 -7 16c0 12 11 22 22 22z" fill="currentColor"/>
</g>
</a>
<a style="color:inherit;" xlink:href="textedit://C:/Users/har1sf0x/Documents/GitHub/musicSchoolTampouras.github.io/sheets/ly/%ce%a0%ce%bf%ce%b4%ce%b1%cf%81%ce%ac%ce%ba%ce%b9_%ce%b2.ly:23:2:3">
<g transform="translate(62.7434, 33.8482)">
<path transform="scale(0.0040, -0.0040)" d="M218 136c55 0 108 -28 108 -89c0 -71 -55 -121 -102 -149c-35 -21 -75 -34 -116 -34c-55 0 -108 28 -108 89c0 71 55 121 102 149c35 21 75 34 116 34z" fill="currentColor"/>
</g>
</a>
<g transform="translate(58.1982, 32.3482)">
<path transform="scale(0.0040, -0.0040)" d="M0 0c0 31 25 56 56 56s56 -25 56 -56s-25 -56 -56 -56s-56 25 -56 56z" fill="currentColor"/>
</g>
<a style="color:inherit;" xlink:href="textedit://C:/Users/har1sf0x/Documents/GitHub/musicSchoolTampouras.github.io/sheets/ly/%ce%a0%ce%bf%ce%b4%ce%b1%cf%81%ce%ac%ce%ba%ce%b9_%ce%b2.ly:22:45:46">
<g transform="translate(56.7982, 32.8482)">
<path transform="scale(0.0040, -0.0040)" d="M-23 -116c0 28 11 42 40 42c33 0 78 -13 119 -31l-132 158c-7 9 -10 17 -10 25c0 34 50 66 87 99c25 22 37 52 37 83c0 24 -8 49 -25 69l-35 42c-3 3 -4 7 -4 10c0 9 9 15 17 15c4 0 8 -1 11 -5l151 -180c7 -9 10 -17 10 -25c0 -34 -50 -66 -87 -99
c-25 -22 -37 -52 -37 -83c0 -24 7 -49 24 -69l84 -99c3 -3 4 -7 4 -10c0 -9 -8 -16 -16 -16c-4 0 -9 2 -12 6c-18 21 -63 38 -97 38c-41 0 -53 -26 -53 -67c0 -35 11 -74 28 -94c7 -8 -5 -19 -12 -11c-45 54 -92 148 -92 202z" fill="currentColor"/>
</g>
</a>
<g transform="translate(41.3303, 32.8482)">
<rect x="-0.0650" y="-2.5000" width="0.1300" height="3.3139" ry="0.0400" fill="currentColor"/>
</g>
<g transform="translate(41.8453, 33.3482)">
<path transform="scale(0.0040, -0.0040)" d="M0 0c0 31 25 56 56 56s56 -25 56 -56s-25 -56 -56 -56s-56 25 -56 56z" fill="currentColor"/>
</g>
<g transform="translate(45.4963, 32.8482)">
<rect x="-0.0650" y="-0.8139" width="0.1300" height="3.3139" ry="0.0400" fill="currentColor"/>
</g>
<g transform="translate(47.1855, 31.3482)">
<path transform="scale(0.0040, -0.0040)" d="M0 0c0 31 25 56 56 56s56 -25 56 -56s-25 -56 -56 -56s-56 25 -56 56z" fill="currentColor"/>
</g>
<a style="color:inherit;" xlink:href="textedit://C:/Users/har1sf0x/Documents/GitHub/musicSchoolTampouras.github.io/sheets/ly/%ce%a0%ce%bf%ce%b4%ce%b1%cf%81%ce%ac%ce%ba%ce%b9_%ce%b2.ly:22:22:23">
<g transform="scale(1.0000, -1.0000)">
<g transform="translate(46.0834, -28.5292)">
<line stroke-linejoin="round" stroke-linecap="round" stroke-width="0.1380" stroke="currentColor" x1="0" y1="0" x2="0" y2="-1.6000"/>
</g>
<g transform="translate(46.0834, -28.0792)">
<path transform="scale(0.0036, -0.0036)" d="M-103 250c5 0 10 -1 14 -5c40 -35 70 -79 89 -128c19 49 49 93 89 128c4 4 9 5 14 5c11 0 22 -10 22 -22c0 -6 -2 -12 -7 -16c-61 -54 -96 -131 -96 -212c0 -14 -11 -22 -22 -22s-22 8 -22 22c0 81 -35 158 -96 212c-5 4 -7 10 -7 16c0 12 11 22 22 22z" fill="currentColor"/>
</g>
</g>
</a>
<a style="color:inherit;" xlink:href="textedit://C:/Users/har1sf0x/Documents/GitHub/musicSchoolTampouras.github.io/sheets/ly/%ce%a0%ce%bf%ce%b4%ce%b1%cf%81%ce%ac%ce%ba%ce%b9_%ce%b2.ly:22:18:19">
<g transform="translate(45.4313, 31.8482)">
<path transform="scale(0.0040, -0.0040)" d="M218 136c55 0 108 -28 108 -89c0 -71 -55 -121 -102 -149c-35 -21 -75 -34 -116 -34c-55 0 -108 28 -108 89c0 71 55 121 102 149c35 21 75 34 116 34z" fill="currentColor"/>
</g>
</a>
<g transform="translate(54.0830, 43.7446)">
<text font-family="serif" font-size="2.2001" text-anchor="start" fill="currentColor">
<tspan>Χ. Κόχυλας</tspan>
</text>
</g>
<g transform="translate(30.6607, 47.2726)">
<a xlink:href="https://lilypond.org/">
<rect x="0.0000" y="-0.5280" width="58.1802" height="2.2001" fill="none" stroke="none" stroke-width="0.0"/>
</a>
</g>
<g transform="translate(30.6607, 47.2726)">
<text font-family="serif" font-size="2.2001" text-anchor="start" fill="currentColor">
<tspan>Music engraving by LilyPond 2.24.4—www.lilypond.org</tspan>
</text>
</g>
</svg>
