<svg xmlns="http://www.w3.org/2000/svg" xmlns:xlink="http://www.w3.org/1999/xlink" version="1.2" width="210.00mm" height="90.00mm" viewBox="0.0000 -0.0000 119.5016 51.2150">
<style type="text/css">
<![CDATA[
tspan { white-space: pre; }
]]>
</style>
<g transform="translate(45.2570, 4.9183)">
<text font-family="serif" font-weight="bold" font-size="3.4927" text-anchor="start" fill="currentColor">
<tspan>7/8 Καλαματιανό</tspan>
</text>
</g>
<g transform="translate(5.6906, 13.3758)">
<line stroke-linejoin="round" stroke-linecap="round" stroke-width="0.1000" stroke="currentColor" x1="0.0500" y1="0" x2="108.0705" y2="0"/>
</g>
<g transform="translate(5.6906, 12.3758)">
<line stroke-linejoin="round" stroke-linecap="round" stroke-width="0.1000" stroke="currentColor" x1="0.0500" y1="0" x2="108.0705" y2="0"/>
</g>
<g transform="translate(5.6906, 11.3758)">
<line stroke-linejoin="round" stroke-linecap="round" stroke-width="0.1000" stroke="currentColor" x1="0.0500" y1="0" x2="108.0705" y2="0"/>
</g>
<g transform="translate(5.6906, 10.3758)">
<line stroke-linejoin="round" stroke-linecap="round" stroke-width="0.1000" stroke="currentColor" x1="0.0500" y1="0" x2="108.0705" y2="0"/>
</g>
<g transform="translate(5.6906, 9.3758)">
<line stroke-linejoin="round" stroke-linecap="round" stroke-width="0.1000" stroke="currentColor" x1="0.0500" y1="0" x2="108.0705" y2="0"/>
</g>
<g transform="translate(5.6906, 14.3758)">
<rect x="99.6195" y="-0.1000" width="1.9563" height="0.2000" ry="0.1000" fill="currentColor"/>
</g>
<g transform="translate(5.6906, 15.3758)">
<rect x="99.6195" y="-0.1000" width="1.9563" height="0.2000" ry="0.1000" fill="currentColor"/>
</g>
<g transform="translate(5.6906, 14.3758)">
<rect x="92.7845" y="-0.1000" width="1.9563" height="0.2000" ry="0.1000" fill="currentColor"/>
</g>
<g transform="translate(5.6906, 15.3758)">
<rect x="92.7845" y="-0.1000" width="1.9563" height="0.2000" ry="0.1000" fill="currentColor"/>
</g>
<g transform="translate(5.6906, 14.3758)">
<rect x="85.9496" y="-0.1000" width="1.9563" height="0.2000" ry="0.1000" fill="currentColor"/>
</g>
<g transform="translate(5.6906, 15.3758)">
<rect x="85.9496" y="-0.1000" width="1.9563" height="0.2000" ry="0.1000" fill="currentColor"/>
</g>
<g transform="translate(5.6906, 14.3758)">
<rect x="79.1146" y="-0.1000" width="1.9563" height="0.2000" ry="0.1000" fill="currentColor"/>
</g>
<g transform="translate(5.6906, 15.3758)">
<rect x="79.1146" y="-0.1000" width="1.9563" height="0.2000" ry="0.1000" fill="currentColor"/>
</g>
<g transform="translate(5.6906, 14.3758)">
<rect x="72.2165" y="-0.1000" width="1.9563" height="0.2000" ry="0.1000" fill="currentColor"/>
</g>
<g transform="translate(5.6906, 15.3758)">
<rect x="72.2165" y="-0.1000" width="1.9563" height="0.2000" ry="0.1000" fill="currentColor"/>
</g>
<g transform="translate(5.6906, 14.3758)">
<rect x="59.8508" y="-0.1000" width="1.9563" height="0.2000" ry="0.1000" fill="currentColor"/>
</g>
<g transform="translate(5.6906, 15.3758)">
<rect x="59.8508" y="-0.1000" width="1.9563" height="0.2000" ry="0.1000" fill="currentColor"/>
</g>
<g transform="translate(5.6906, 14.3758)">
<rect x="49.1518" y="-0.1000" width="1.9563" height="0.2000" ry="0.1000" fill="currentColor"/>
</g>
<g transform="translate(5.6906, 15.3758)">
<rect x="49.1518" y="-0.1000" width="1.9563" height="0.2000" ry="0.1000" fill="currentColor"/>
</g>
<g transform="translate(5.6906, 14.3758)">
<rect x="42.3168" y="-0.1000" width="1.9563" height="0.2000" ry="0.1000" fill="currentColor"/>
</g>
<g transform="translate(5.6906, 15.3758)">
<rect x="42.3168" y="-0.1000" width="1.9563" height="0.2000" ry="0.1000" fill="currentColor"/>
</g>
<g transform="translate(5.6906, 14.3758)">
<rect x="35.4819" y="-0.1000" width="1.9563" height="0.2000" ry="0.1000" fill="currentColor"/>
</g>
<g transform="translate(5.6906, 15.3758)">
<rect x="35.4819" y="-0.1000" width="1.9563" height="0.2000" ry="0.1000" fill="currentColor"/>
</g>
<g transform="translate(5.6906, 14.3758)">
<rect x="28.6470" y="-0.1000" width="1.9563" height="0.2000" ry="0.1000" fill="currentColor"/>
</g>
<g transform="translate(5.6906, 15.3758)">
<rect x="28.6470" y="-0.1000" width="1.9563" height="0.2000" ry="0.1000" fill="currentColor"/>
</g>
<g transform="translate(5.6906, 14.3758)">
<rect x="21.8120" y="-0.1000" width="1.9563" height="0.2000" ry="0.1000" fill="currentColor"/>
</g>
<g transform="translate(5.6906, 15.3758)">
<rect x="21.8120" y="-0.1000" width="1.9563" height="0.2000" ry="0.1000" fill="currentColor"/>
</g>
<g transform="translate(5.6906, 14.3758)">
<rect x="14.9771" y="-0.1000" width="1.9563" height="0.2000" ry="0.1000" fill="currentColor"/>
</g>
<g transform="translate(5.6906, 15.3758)">
<rect x="14.9771" y="-0.1000" width="1.9563" height="0.2000" ry="0.1000" fill="currentColor"/>
</g>
<g transform="translate(5.6906, 14.3758)">
<rect x="8.1421" y="-0.1000" width="1.9563" height="0.2000" ry="0.1000" fill="currentColor"/>
</g>
<g transform="translate(5.6906, 15.3758)">
<rect x="8.1421" y="-0.1000" width="1.9563" height="0.2000" ry="0.1000" fill="currentColor"/>
</g>
<g transform="translate(62.7433, 11.3758)">
<rect x="0.0000" y="-2.0000" width="0.6000" height="4.0000" ry="0.0000" fill="currentColor"/>
</g>
<g transform="translate(62.2533, 11.3758)">
<rect x="0.0000" y="-2.0000" width="0.1900" height="4.0000" ry="0.0000" fill="currentColor"/>
</g>
<g transform="translate(113.2110, 11.3758)">
<rect x="0.0000" y="-2.0000" width="0.6000" height="4.0000" ry="0.0000" fill="currentColor"/>
</g>
<g transform="translate(112.7210, 11.3758)">
<rect x="0.0000" y="-2.0000" width="0.1900" height="4.0000" ry="0.0000" fill="currentColor"/>
</g>
<g color="rgb(50.0000%, 50.0000%, 50.0000%)">
<g transform="translate(78.2331, 14.3758)">
<path transform="scale(0.0040, -0.0040)" d="M218 136c55 0 108 -28 108 -89c0 -71 -55 -121 -102 -149c-35 -21 -75 -34 -116 -34c-55 0 -108 28 -108 89c0 71 55 121 102 149c35 21 75 34 116 34z" fill="currentColor"/>
</g>
</g>
<g color="rgb(50.0000%, 50.0000%, 50.0000%)">
<g transform="translate(91.9662, 14.3758)">
<path transform="scale(0.0040, -0.0040)" d="M218 136c55 0 108 -28 108 -89c0 -71 -55 -121 -102 -149c-35 -21 -75 -34 -116 -34c-55 0 -108 28 -108 89c0 71 55 121 102 149c35 21 75 34 116 34z" fill="currentColor"/>
</g>
</g>
<g color="rgb(50.0000%, 50.0000%, 50.0000%)">
<g transform="translate(78.2331, 15.8758)">
<path transform="scale(0.0040, -0.0040)" d="M218 136c55 0 108 -28 108 -89c0 -71 -55 -121 -102 -149c-35 -21 -75 -34 -116 -34c-55 0 -108 28 -108 89c0 71 55 121 102 149c35 21 75 34 116 34z" fill="currentColor"/>
</g>
</g>
<g transform="translate(78.2331, 12.3758)">
<path transform="scale(0.0040, -0.0040)" d="M218 136c55 0 108 -28 108 -89c0 -71 -55 -121 -102 -149c-35 -21 -75 -34 -116 -34c-55 0 -108 28 -108 89c0 71 55 121 102 149c35 21 75 34 116 34z" fill="currentColor"/>
</g>
<g transform="scale(1.0000, -1.0000)">
<g transform="translate(78.8831, -7.1968)">
<line stroke-linejoin="round" stroke-linecap="round" stroke-width="0.1380" stroke="currentColor" x1="0" y1="0" x2="0" y2="-1.6000"/>
</g>
<g transform="translate(78.8831, -6.7468)">
<path transform="scale(0.0036, -0.0036)" d="M-103 250c5 0 10 -1 14 -5c40 -35 70 -79 89 -128c19 49 49 93 89 128c4 4 9 5 14 5c11 0 22 -10 22 -22c0 -6 -2 -12 -7 -16c-61 -54 -96 -131 -96 -212c0 -14 -11 -22 -22 -22s-22 8 -22 22c0 81 -35 158 -96 212c-5 4 -7 10 -7 16c0 12 11 22 22 22z" fill="currentColor"/>
</g>
</g>
<g transform="translate(79.4723, 11.3758)">
<rect x="-0.0650" y="-2.5000" width="0.1300" height="6.8139" ry="0.0400" fill="currentColor"/>
</g>
<g transform="translate(79.5373, 8.9158)">
<path transform="scale(0.0040, -0.0040)" d="M0 0v-250h-16v250h16zM0 0c0 -197 207 -336 207 -533c0 -71 -15 -141 -41 -207c-5 -8 -13 -12 -20 -12c-13 0 -26 11 -23 27c26 61 42 126 42 192c0 103 -94 208 -165 283v250z" fill="currentColor"/>
</g>
<g color="rgb(50.0000%, 50.0000%, 50.0000%)">
<g transform="translate(85.1312, 14.3758)">
<path transform="scale(0.0040, -0.0040)" d="M218 136c55 0 108 -28 108 -89c0 -71 -55 -121 -102 -149c-35 -21 -75 -34 -116 -34c-55 0 -108 28 -108 89c0 71 55 121 102 149c35 21 75 34 116 34z" fill="currentColor"/>
</g>
</g>
<g color="rgb(50.0000%, 50.0000%, 50.0000%)">
<g transform="translate(85.1312, 15.8758)">
<path transform="scale(0.0040, -0.0040)" d="M218 136c55 0 108 -28 108 -89c0 -71 -55 -121 -102 -149c-35 -21 -75 -34 -116 -34c-55 0 -108 28 -108 89c0 71 55 121 102 149c35 21 75 34 116 34z" fill="currentColor"/>
</g>
</g>
<g transform="translate(85.1312, 12.3758)">
<path transform="scale(0.0040, -0.0040)" d="M218 136c55 0 108 -28 108 -89c0 -71 -55 -121 -102 -149c-35 -21 -75 -34 -116 -34c-55 0 -108 28 -108 89c0 71 55 121 102 149c35 21 75 34 116 34z" fill="currentColor"/>
</g>
<g transform="translate(85.7812, 8.3374)">
<line stroke-linejoin="round" stroke-linecap="round" stroke-width="0.1380" stroke="currentColor" x1="0" y1="0" x2="0" y2="-1.6000"/>
</g>
<g transform="translate(85.7812, 8.7874)">
<path transform="scale(0.0036, -0.0036)" d="M-103 250c5 0 10 -1 14 -5c40 -35 70 -79 89 -128c19 49 49 93 89 128c4 4 9 5 14 5c11 0 22 -10 22 -22c0 -6 -2 -12 -7 -16c-61 -54 -96 -131 -96 -212c0 -14 -11 -22 -22 -22s-22 8 -22 22c0 81 -35 158 -96 212c-5 4 -7 10 -7 16c0 12 11 22 22 22z" fill="currentColor"/>
</g>
<g transform="translate(86.3704, 11.3758)">
<rect x="-0.0650" y="-2.0000" width="0.1300" height="6.3139" ry="0.0400" fill="currentColor"/>
</g>
<g transform="translate(67.1066, 11.3758)">
<rect x="-0.0650" y="-2.5000" width="0.1300" height="6.8139" ry="0.0400" fill="currentColor"/>
</g>
<g transform="translate(99.9753, 9.3758)">
<polygon stroke-linejoin="round" stroke-linecap="round" stroke-width="0.0800" fill="currentColor" stroke="currentColor" points="6.9249 -0.2000 6.9249 0.2000 0.0400 0.2000 0.0400 -0.2000"/>
</g>
<g color="rgb(50.0000%, 50.0000%, 50.0000%)">
<g transform="translate(65.8674, 14.3758)">
<path transform="scale(0.0040, -0.0040)" d="M218 136c55 0 108 -28 108 -89c0 -71 -55 -121 -102 -149c-35 -21 -75 -34 -116 -34c-55 0 -108 28 -108 89c0 71 55 121 102 149c35 21 75 34 116 34z" fill="currentColor"/>
</g>
</g>
<g color="rgb(50.0000%, 50.0000%, 50.0000%)">
<g transform="translate(65.8674, 15.8758)">
<path transform="scale(0.0040, -0.0040)" d="M218 136c55 0 108 -28 108 -89c0 -71 -55 -121 -102 -149c-35 -21 -75 -34 -116 -34c-55 0 -108 28 -108 89c0 71 55 121 102 149c35 21 75 34 116 34z" fill="currentColor"/>
</g>
</g>
<g transform="translate(65.8674, 12.3758)">
<path transform="scale(0.0040, -0.0040)" d="M218 136c55 0 108 -28 108 -89c0 -71 -55 -121 -102 -149c-35 -21 -75 -34 -116 -34c-55 0 -108 28 -108 89c0 71 55 121 102 149c35 21 75 34 116 34z" fill="currentColor"/>
</g>
<g transform="translate(66.5174, 8.3374)">
<line stroke-linejoin="round" stroke-linecap="round" stroke-width="0.1380" stroke="currentColor" x1="0" y1="0" x2="0" y2="-1.6000"/>
</g>
<g transform="translate(66.5174, 8.7874)">
<path transform="scale(0.0036, -0.0036)" d="M-103 250c5 0 10 -1 14 -5c40 -35 70 -79 89 -128c19 49 49 93 89 128c4 4 9 5 14 5c11 0 22 -10 22 -22c0 -6 -2 -12 -7 -16c-61 -54 -96 -131 -96 -212c0 -14 -11 -22 -22 -22s-22 8 -22 22c0 81 -35 158 -96 212c-5 4 -7 10 -7 16c0 12 11 22 22 22z" fill="currentColor"/>
</g>
<g transform="translate(62.7983, 8.5258)">
<text font-family="serif" font-size="2.6163" text-anchor="start" fill="currentColor">
<tspan>2</tspan>
</text>
</g>
<g transform="translate(106.8753, 11.3758)">
<rect x="-0.0650" y="-2.0000" width="0.1300" height="6.3139" ry="0.0400" fill="currentColor"/>
</g>
<g transform="scale(1.0000, -1.0000)">
<g transform="translate(106.2861, -7.0068)">
<line stroke-linejoin="round" stroke-linecap="round" stroke-width="0.1380" stroke="currentColor" x1="0" y1="0" x2="0" y2="-1.6000"/>
</g>
<g transform="translate(106.2861, -6.5568)">
<path transform="scale(0.0036, -0.0036)" d="M-103 250c5 0 10 -1 14 -5c40 -35 70 -79 89 -128c19 49 49 93 89 128c4 4 9 5 14 5c11 0 22 -10 22 -22c0 -6 -2 -12 -7 -16c-61 -54 -96 -131 -96 -212c0 -14 -11 -22 -22 -22s-22 8 -22 22c0 81 -35 158 -96 212c-5 4 -7 10 -7 16c0 12 11 22 22 22z" fill="currentColor"/>
</g>
</g>
<g transform="translate(15.3329, 9.3758)">
<polygon stroke-linejoin="round" stroke-linecap="round" stroke-width="0.0800" fill="currentColor" stroke="currentColor" points="13.7599 -0.2000 13.7599 0.2000 0.0400 0.2000 0.0400 -0.2000"/>
</g>
<g transform="translate(35.8378, 9.3758)">
<polygon stroke-linejoin="round" stroke-linecap="round" stroke-width="0.0800" fill="currentColor" stroke="currentColor" points="6.9249 -0.2000 6.9249 0.2000 0.0400 0.2000 0.0400 -0.2000"/>
</g>
<g transform="translate(49.5077, 9.3758)">
<polygon stroke-linejoin="round" stroke-linecap="round" stroke-width="0.0800" fill="currentColor" stroke="currentColor" points="6.9249 -0.2000 6.9249 0.2000 0.0400 0.2000 0.0400 -0.2000"/>
</g>
<g transform="translate(86.3054, 9.3758)">
<polygon stroke-linejoin="round" stroke-linecap="round" stroke-width="0.0800" fill="currentColor" stroke="currentColor" points="6.9249 -0.2000 6.9249 0.2000 0.0400 0.2000 0.0400 -0.2000"/>
</g>
<g transform="translate(98.8011, 12.3758)">
<path transform="scale(0.0040, -0.0040)" d="M218 136c55 0 108 -28 108 -89c0 -71 -55 -121 -102 -149c-35 -21 -75 -34 -116 -34c-55 0 -108 28 -108 89c0 71 55 121 102 149c35 21 75 34 116 34z" fill="currentColor"/>
</g>
<g transform="translate(91.9662, 12.3758)">
<path transform="scale(0.0040, -0.0040)" d="M218 136c55 0 108 -28 108 -89c0 -71 -55 -121 -102 -149c-35 -21 -75 -34 -116 -34c-55 0 -108 28 -108 89c0 71 55 121 102 149c35 21 75 34 116 34z" fill="currentColor"/>
</g>
<g transform="scale(1.0000, -1.0000)">
<g transform="translate(92.6162, -7.0068)">
<line stroke-linejoin="round" stroke-linecap="round" stroke-width="0.1380" stroke="currentColor" x1="0" y1="0" x2="0" y2="-1.6000"/>
</g>
<g transform="translate(92.6162, -6.5568)">
<path transform="scale(0.0036, -0.0036)" d="M-103 250c5 0 10 -1 14 -5c40 -35 70 -79 89 -128c19 49 49 93 89 128c4 4 9 5 14 5c11 0 22 -10 22 -22c0 -6 -2 -12 -7 -16c-61 -54 -96 -131 -96 -212c0 -14 -11 -22 -22 -22s-22 8 -22 22c0 81 -35 158 -96 212c-5 4 -7 10 -7 16c0 12 11 22 22 22z" fill="currentColor"/>
</g>
</g>
<g transform="translate(93.2054, 11.3758)">
<rect x="-0.0650" y="-2.0000" width="0.1300" height="6.3139" ry="0.0400" fill="currentColor"/>
</g>
<g color="rgb(50.0000%, 50.0000%, 50.0000%)">
<g transform="translate(98.8011, 14.3758)">
<path transform="scale(0.0040, -0.0040)" d="M218 136c55 0 108 -28 108 -89c0 -71 -55 -121 -102 -149c-35 -21 -75 -34 -116 -34c-55 0 -108 28 -108 89c0 71 55 121 102 149c35 21 75 34 116 34z" fill="currentColor"/>
</g>
</g>
<g color="rgb(50.0000%, 50.0000%, 50.0000%)">
<g transform="translate(98.8011, 15.8758)">
<path transform="scale(0.0040, -0.0040)" d="M218 136c55 0 108 -28 108 -89c0 -71 -55 -121 -102 -149c-35 -21 -75 -34 -116 -34c-55 0 -108 28 -108 89c0 71 55 121 102 149c35 21 75 34 116 34z" fill="currentColor"/>
</g>
</g>
<g color="rgb(50.0000%, 50.0000%, 50.0000%)">
<g transform="translate(91.9662, 15.8758)">
<path transform="scale(0.0040, -0.0040)" d="M218 136c55 0 108 -28 108 -89c0 -71 -55 -121 -102 -149c-35 -21 -75 -34 -116 -34c-55 0 -108 28 -108 89c0 71 55 121 102 149c35 21 75 34 116 34z" fill="currentColor"/>
</g>
</g>
<g transform="translate(99.4511, 8.3374)">
<line stroke-linejoin="round" stroke-linecap="round" stroke-width="0.1380" stroke="currentColor" x1="0" y1="0" x2="0" y2="-1.6000"/>
</g>
<g transform="translate(99.4511, 8.7874)">
<path transform="scale(0.0036, -0.0036)" d="M-103 250c5 0 10 -1 14 -5c40 -35 70 -79 89 -128c19 49 49 93 89 128c4 4 9 5 14 5c11 0 22 -10 22 -22c0 -6 -2 -12 -7 -16c-61 -54 -96 -131 -96 -212c0 -14 -11 -22 -22 -22s-22 8 -22 22c0 81 -35 158 -96 212c-5 4 -7 10 -7 16c0 12 11 22 22 22z" fill="currentColor"/>
</g>
<g transform="translate(100.0403, 11.3758)">
<rect x="-0.0650" y="-2.0000" width="0.1300" height="6.3139" ry="0.0400" fill="currentColor"/>
</g>
<g color="rgb(50.0000%, 50.0000%, 50.0000%)">
<g transform="translate(105.6361, 14.3758)">
<path transform="scale(0.0040, -0.0040)" d="M218 136c55 0 108 -28 108 -89c0 -71 -55 -121 -102 -149c-35 -21 -75 -34 -116 -34c-55 0 -108 28 -108 89c0 71 55 121 102 149c35 21 75 34 116 34z" fill="currentColor"/>
</g>
</g>
<g color="rgb(50.0000%, 50.0000%, 50.0000%)">
<g transform="translate(105.6361, 15.8758)">
<path transform="scale(0.0040, -0.0040)" d="M218 136c55 0 108 -28 108 -89c0 -71 -55 -121 -102 -149c-35 -21 -75 -34 -116 -34c-55 0 -108 28 -108 89c0 71 55 121 102 149c35 21 75 34 116 34z" fill="currentColor"/>
</g>
</g>
<g transform="translate(105.6361, 12.3758)">
<path transform="scale(0.0040, -0.0040)" d="M218 136c55 0 108 -28 108 -89c0 -71 -55 -121 -102 -149c-35 -21 -75 -34 -116 -34c-55 0 -108 28 -108 89c0 71 55 121 102 149c35 21 75 34 116 34z" fill="currentColor"/>
</g>
<g color="rgb(50.0000%, 50.0000%, 50.0000%)">
<g transform="translate(20.9937, 14.3758)">
<path transform="scale(0.0040, -0.0040)" d="M218 136c55 0 108 -28 108 -89c0 -71 -55 -121 -102 -149c-35 -21 -75 -34 -116 -34c-55 0 -108 28 -108 89c0 71 55 121 102 149c35 21 75 34 116 34z" fill="currentColor"/>
</g>
</g>
<g color="rgb(50.0000%, 50.0000%, 50.0000%)">
<g transform="translate(20.9937, 15.8758)">
<path transform="scale(0.0040, -0.0040)" d="M218 136c55 0 108 -28 108 -89c0 -71 -55 -121 -102 -149c-35 -21 -75 -34 -116 -34c-55 0 -108 28 -108 89c0 71 55 121 102 149c35 21 75 34 116 34z" fill="currentColor"/>
</g>
</g>
<g transform="translate(20.9937, 12.3758)">
<path transform="scale(0.0040, -0.0040)" d="M218 136c55 0 108 -28 108 -89c0 -71 -55 -121 -102 -149c-35 -21 -75 -34 -116 -34c-55 0 -108 28 -108 89c0 71 55 121 102 149c35 21 75 34 116 34z" fill="currentColor"/>
</g>
<g transform="scale(1.0000, -1.0000)">
<g transform="translate(21.6437, -7.0068)">
<line stroke-linejoin="round" stroke-linecap="round" stroke-width="0.1380" stroke="currentColor" x1="0" y1="0" x2="0" y2="-1.6000"/>
</g>
<g transform="translate(21.6437, -6.5568)">
<path transform="scale(0.0036, -0.0036)" d="M-103 250c5 0 10 -1 14 -5c40 -35 70 -79 89 -128c19 49 49 93 89 128c4 4 9 5 14 5c11 0 22 -10 22 -22c0 -6 -2 -12 -7 -16c-61 -54 -96 -131 -96 -212c0 -14 -11 -22 -22 -22s-22 8 -22 22c0 81 -35 158 -96 212c-5 4 -7 10 -7 16c0 12 11 22 22 22z" fill="currentColor"/>
</g>
</g>
<g transform="translate(22.2329, 11.3758)">
<rect x="-0.0650" y="-2.0000" width="0.1300" height="6.3139" ry="0.0400" fill="currentColor"/>
</g>
<g color="rgb(50.0000%, 50.0000%, 50.0000%)">
<g transform="translate(27.8286, 14.3758)">
<path transform="scale(0.0040, -0.0040)" d="M218 136c55 0 108 -28 108 -89c0 -71 -55 -121 -102 -149c-35 -21 -75 -34 -116 -34c-55 0 -108 28 -108 89c0 71 55 121 102 149c35 21 75 34 116 34z" fill="currentColor"/>
</g>
</g>
<g color="rgb(50.0000%, 50.0000%, 50.0000%)">
<g transform="translate(27.8286, 15.8758)">
<path transform="scale(0.0040, -0.0040)" d="M218 136c55 0 108 -28 108 -89c0 -71 -55 -121 -102 -149c-35 -21 -75 -34 -116 -34c-55 0 -108 28 -108 89c0 71 55 121 102 149c35 21 75 34 116 34z" fill="currentColor"/>
</g>
</g>
<g transform="translate(27.8286, 12.3758)">
<path transform="scale(0.0040, -0.0040)" d="M218 136c55 0 108 -28 108 -89c0 -71 -55 -121 -102 -149c-35 -21 -75 -34 -116 -34c-55 0 -108 28 -108 89c0 71 55 121 102 149c35 21 75 34 116 34z" fill="currentColor"/>
</g>
<g transform="scale(1.0000, -1.0000)">
<g transform="translate(28.4786, -7.0068)">
<line stroke-linejoin="round" stroke-linecap="round" stroke-width="0.1380" stroke="currentColor" x1="0" y1="0" x2="0" y2="-1.6000"/>
</g>
<g transform="translate(28.4786, -6.5568)">
<path transform="scale(0.0036, -0.0036)" d="M-103 250c5 0 10 -1 14 -5c40 -35 70 -79 89 -128c19 49 49 93 89 128c4 4 9 5 14 5c11 0 22 -10 22 -22c0 -6 -2 -12 -7 -16c-61 -54 -96 -131 -96 -212c0 -14 -11 -22 -22 -22s-22 8 -22 22c0 81 -35 158 -96 212c-5 4 -7 10 -7 16c0 12 11 22 22 22z" fill="currentColor"/>
</g>
</g>
<g transform="translate(29.0678, 11.3758)">
<rect x="-0.0650" y="-2.0000" width="0.1300" height="6.3139" ry="0.0400" fill="currentColor"/>
</g>
<g transform="translate(10.7588, 11.3758)">
<path transform="scale(0.0040, -0.0040)" d="M71 412c-34 0 -42 -42 -42 -72v-75c0 -10 -7 -15 -14 -15s-15 5 -15 15v220c0 10 8 15 15 15s14 -5 14 -15v-14c0 -9 12 -19 15 -15c20 29 52 44 85 44c28 0 56 -11 77 -32c13 -13 31 -19 48 -19c29 0 59 17 79 45c3 5 7 6 11 6c8 0 16 -6 16 -14c0 -3 -1 -6 -3 -9
c-83 -118 -161 -248 -161 -386c0 -24 3 -50 8 -75c2 -10 -6 -19 -16 -16c-23 7 -47 13 -71 13s-48 -6 -71 -13c-11 -3 -21 6 -17 16c55 130 136 246 219 360c-21 -11 -41 -17 -61 -17c-23 0 -44 8 -63 27c-16 16 -36 26 -53 26z" fill="currentColor"/>
</g>
<g transform="translate(10.6906, 13.3879)">
<path transform="scale(0.0040, -0.0040)" d="M261 287c25 30 44 64 44 103c0 54 -55 87 -114 87c-46 0 -73 -36 -73 -71c0 -21 10 -42 31 -54zM292 269c54 -31 80 -79 80 -125c0 -73 -66 -144 -189 -144c-94 0 -183 54 -183 140c0 50 36 87 72 123c-37 28 -55 66 -55 103c0 68 60 134 174 134c80 0 157 -39 157 -110
c0 -46 -25 -86 -56 -121zM103 244c-31 -30 -59 -61 -59 -104c0 -69 66 -117 139 -117c54 0 86 42 86 83c0 24 -10 48 -35 62z" fill="currentColor"/>
</g>
<g color="rgb(50.0000%, 50.0000%, 50.0000%)">
<g transform="translate(14.1587, 14.3758)">
<path transform="scale(0.0040, -0.0040)" d="M218 136c55 0 108 -28 108 -89c0 -71 -55 -121 -102 -149c-35 -21 -75 -34 -116 -34c-55 0 -108 28 -108 89c0 71 55 121 102 149c35 21 75 34 116 34z" fill="currentColor"/>
</g>
</g>
<g color="rgb(50.0000%, 50.0000%, 50.0000%)">
<g transform="translate(14.1587, 15.8758)">
<path transform="scale(0.0040, -0.0040)" d="M218 136c55 0 108 -28 108 -89c0 -71 -55 -121 -102 -149c-35 -21 -75 -34 -116 -34c-55 0 -108 28 -108 89c0 71 55 121 102 149c35 21 75 34 116 34z" fill="currentColor"/>
</g>
</g>
<g transform="translate(14.1587, 12.3758)">
<path transform="scale(0.0040, -0.0040)" d="M218 136c55 0 108 -28 108 -89c0 -71 -55 -121 -102 -149c-35 -21 -75 -34 -116 -34c-55 0 -108 28 -108 89c0 71 55 121 102 149c35 21 75 34 116 34z" fill="currentColor"/>
</g>
<g transform="translate(14.8087, 8.3374)">
<line stroke-linejoin="round" stroke-linecap="round" stroke-width="0.1380" stroke="currentColor" x1="0" y1="0" x2="0" y2="-1.6000"/>
</g>
<g transform="translate(14.8087, 8.7874)">
<path transform="scale(0.0036, -0.0036)" d="M-103 250c5 0 10 -1 14 -5c40 -35 70 -79 89 -128c19 49 49 93 89 128c4 4 9 5 14 5c11 0 22 -10 22 -22c0 -6 -2 -12 -7 -16c-61 -54 -96 -131 -96 -212c0 -14 -11 -22 -22 -22s-22 8 -22 22c0 81 -35 158 -96 212c-5 4 -7 10 -7 16c0 12 11 22 22 22z" fill="currentColor"/>
</g>
<g transform="translate(6.4906, 12.3758)">
<path transform="scale(0.0040, -0.0040)" d="M266 -635h-6c-108 0 -195 88 -195 197c0 58 53 103 112 103c54 0 95 -47 95 -103c0 -52 -43 -95 -95 -95c-11 0 -21 2 -31 6c26 -39 68 -65 117 -65h4zM461 -203c68 24 113 95 113 164c0 90 -66 179 -173 190c24 -116 46 -231 60 -354zM74 28c0 -135 129 -247 264 -247
c28 0 55 2 82 6c-14 127 -37 245 -63 364c-79 -8 -124 -61 -124 -119c0 -44 25 -91 81 -123c5 -5 7 -10 7 -15c0 -11 -10 -22 -22 -22c-3 0 -6 1 -9 2c-80 43 -117 115 -117 185c0 88 58 174 160 197c-14 58 -29 117 -46 175c-107 -121 -213 -243 -213 -403zM335 -262
c-188 0 -333 172 -333 374c0 177 131 306 248 441c-19 62 -37 125 -45 190c-6 52 -7 104 -7 156c0 115 55 224 149 292c6 5 14 5 20 0c71 -84 133 -245 133 -358c0 -143 -86 -255 -180 -364c21 -68 39 -138 56 -207c4 0 9 1 13 1c155 0 256 -128 256 -261
c0 -76 -33 -154 -107 -210c-22 -17 -47 -28 -73 -36c3 -35 5 -70 5 -105c0 -19 -1 -39 -2 -58c-7 -119 -88 -225 -202 -228l1 43c93 2 153 92 159 191c1 18 2 37 2 55c0 31 -1 61 -4 92c-29 -5 -58 -8 -89 -8zM428 916c0 55 -4 79 -20 129c-99 -48 -162 -149 -162 -259
c0 -74 18 -133 36 -194c80 97 146 198 146 324z" fill="currentColor"/>
</g>
<g transform="translate(5.6906, 8.1351)">
<text font-family="serif" font-size="2.6163" text-anchor="start" fill="currentColor">
<tspan>1</tspan>
</text>
</g>
<g transform="translate(15.3979, 11.3758)">
<rect x="-0.0650" y="-2.0000" width="0.1300" height="6.3139" ry="0.0400" fill="currentColor"/>
</g>
<g color="rgb(50.0000%, 50.0000%, 50.0000%)">
<g transform="translate(34.6636, 14.3758)">
<path transform="scale(0.0040, -0.0040)" d="M218 136c55 0 108 -28 108 -89c0 -71 -55 -121 -102 -149c-35 -21 -75 -34 -116 -34c-55 0 -108 28 -108 89c0 71 55 121 102 149c35 21 75 34 116 34z" fill="currentColor"/>
</g>
</g>
<g color="rgb(50.0000%, 50.0000%, 50.0000%)">
<g transform="translate(48.3335, 14.3758)">
<path transform="scale(0.0040, -0.0040)" d="M218 136c55 0 108 -28 108 -89c0 -71 -55 -121 -102 -149c-35 -21 -75 -34 -116 -34c-55 0 -108 28 -108 89c0 71 55 121 102 149c35 21 75 34 116 34z" fill="currentColor"/>
</g>
</g>
<g color="rgb(50.0000%, 50.0000%, 50.0000%)">
<g transform="translate(48.3335, 15.8758)">
<path transform="scale(0.0040, -0.0040)" d="M218 136c55 0 108 -28 108 -89c0 -71 -55 -121 -102 -149c-35 -21 -75 -34 -116 -34c-55 0 -108 28 -108 89c0 71 55 121 102 149c35 21 75 34 116 34z" fill="currentColor"/>
</g>
</g>
<g transform="translate(48.3335, 12.3758)">
<path transform="scale(0.0040, -0.0040)" d="M218 136c55 0 108 -28 108 -89c0 -71 -55 -121 -102 -149c-35 -21 -75 -34 -116 -34c-55 0 -108 28 -108 89c0 71 55 121 102 149c35 21 75 34 116 34z" fill="currentColor"/>
</g>
<g transform="translate(48.9835, 8.3374)">
<line stroke-linejoin="round" stroke-linecap="round" stroke-width="0.1380" stroke="currentColor" x1="0" y1="0" x2="0" y2="-1.6000"/>
</g>
<g transform="translate(48.9835, 8.7874)">
<path transform="scale(0.0036, -0.0036)" d="M-103 250c5 0 10 -1 14 -5c40 -35 70 -79 89 -128c19 49 49 93 89 128c4 4 9 5 14 5c11 0 22 -10 22 -22c0 -6 -2 -12 -7 -16c-61 -54 -96 -131 -96 -212c0 -14 -11 -22 -22 -22s-22 8 -22 22c0 81 -35 158 -96 212c-5 4 -7 10 -7 16c0 12 11 22 22 22z" fill="currentColor"/>
</g>
<g transform="translate(49.5727, 11.3758)">
<rect x="-0.0650" y="-2.0000" width="0.1300" height="6.3139" ry="0.0400" fill="currentColor"/>
</g>
<g color="rgb(50.0000%, 50.0000%, 50.0000%)">
<g transform="translate(55.1684, 14.3758)">
<path transform="scale(0.0040, -0.0040)" d="M218 136c55 0 108 -28 108 -89c0 -71 -55 -121 -102 -149c-35 -21 -75 -34 -116 -34c-55 0 -108 28 -108 89c0 71 55 121 102 149c35 21 75 34 116 34z" fill="currentColor"/>
</g>
</g>
<g color="rgb(50.0000%, 50.0000%, 50.0000%)">
<g transform="translate(55.1684, 15.8758)">
<path transform="scale(0.0040, -0.0040)" d="M218 136c55 0 108 -28 108 -89c0 -71 -55 -121 -102 -149c-35 -21 -75 -34 -116 -34c-55 0 -108 28 -108 89c0 71 55 121 102 149c35 21 75 34 116 34z" fill="currentColor"/>
</g>
</g>
<g transform="translate(55.1684, 12.3758)">
<path transform="scale(0.0040, -0.0040)" d="M218 136c55 0 108 -28 108 -89c0 -71 -55 -121 -102 -149c-35 -21 -75 -34 -116 -34c-55 0 -108 28 -108 89c0 71 55 121 102 149c35 21 75 34 116 34z" fill="currentColor"/>
</g>
<g transform="scale(1.0000, -1.0000)">
<g transform="translate(55.8184, -7.0068)">
<line stroke-linejoin="round" stroke-linecap="round" stroke-width="0.1380" stroke="currentColor" x1="0" y1="0" x2="0" y2="-1.6000"/>
</g>
<g transform="translate(55.8184, -6.5568)">
<path transform="scale(0.0036, -0.0036)" d="M-103 250c5 0 10 -1 14 -5c40 -35 70 -79 89 -128c19 49 49 93 89 128c4 4 9 5 14 5c11 0 22 -10 22 -22c0 -6 -2 -12 -7 -16c-61 -54 -96 -131 -96 -212c0 -14 -11 -22 -22 -22s-22 8 -22 22c0 81 -35 158 -96 212c-5 4 -7 10 -7 16c0 12 11 22 22 22z" fill="currentColor"/>
</g>
</g>
<g transform="translate(56.4076, 11.3758)">
<rect x="-0.0650" y="-2.0000" width="0.1300" height="6.3139" ry="0.0400" fill="currentColor"/>
</g>
<g transform="translate(35.9028, 11.3758)">
<rect x="-0.0650" y="-2.0000" width="0.1300" height="6.3139" ry="0.0400" fill="currentColor"/>
</g>
<g transform="translate(35.3136, 8.3374)">
<line stroke-linejoin="round" stroke-linecap="round" stroke-width="0.1380" stroke="currentColor" x1="0" y1="0" x2="0" y2="-1.6000"/>
</g>
<g transform="translate(35.3136, 8.7874)">
<path transform="scale(0.0036, -0.0036)" d="M-103 250c5 0 10 -1 14 -5c40 -35 70 -79 89 -128c19 49 49 93 89 128c4 4 9 5 14 5c11 0 22 -10 22 -22c0 -6 -2 -12 -7 -16c-61 -54 -96 -131 -96 -212c0 -14 -11 -22 -22 -22s-22 8 -22 22c0 81 -35 158 -96 212c-5 4 -7 10 -7 16c0 12 11 22 22 22z" fill="currentColor"/>
</g>
<g transform="translate(34.6636, 12.3758)">
<path transform="scale(0.0040, -0.0040)" d="M218 136c55 0 108 -28 108 -89c0 -71 -55 -121 -102 -149c-35 -21 -75 -34 -116 -34c-55 0 -108 28 -108 89c0 71 55 121 102 149c35 21 75 34 116 34z" fill="currentColor"/>
</g>
<g color="rgb(50.0000%, 50.0000%, 50.0000%)">
<g transform="translate(41.4985, 14.3758)">
<path transform="scale(0.0040, -0.0040)" d="M218 136c55 0 108 -28 108 -89c0 -71 -55 -121 -102 -149c-35 -21 -75 -34 -116 -34c-55 0 -108 28 -108 89c0 71 55 121 102 149c35 21 75 34 116 34z" fill="currentColor"/>
</g>
</g>
<g color="rgb(50.0000%, 50.0000%, 50.0000%)">
<g transform="translate(41.4985, 15.8758)">
<path transform="scale(0.0040, -0.0040)" d="M218 136c55 0 108 -28 108 -89c0 -71 -55 -121 -102 -149c-35 -21 -75 -34 -116 -34c-55 0 -108 28 -108 89c0 71 55 121 102 149c35 21 75 34 116 34z" fill="currentColor"/>
</g>
</g>
<g color="rgb(50.0000%, 50.0000%, 50.0000%)">
<g transform="translate(34.6636, 15.8758)">
<path transform="scale(0.0040, -0.0040)" d="M218 136c55 0 108 -28 108 -89c0 -71 -55 -121 -102 -149c-35 -21 -75 -34 -116 -34c-55 0 -108 28 -108 89c0 71 55 121 102 149c35 21 75 34 116 34z" fill="currentColor"/>
</g>
</g>
<g transform="translate(41.4985, 12.3758)">
<path transform="scale(0.0040, -0.0040)" d="M218 136c55 0 108 -28 108 -89c0 -71 -55 -121 -102 -149c-35 -21 -75 -34 -116 -34c-55 0 -108 28 -108 89c0 71 55 121 102 149c35 21 75 34 116 34z" fill="currentColor"/>
</g>
<g transform="scale(1.0000, -1.0000)">
<g transform="translate(42.1485, -7.0068)">
<line stroke-linejoin="round" stroke-linecap="round" stroke-width="0.1380" stroke="currentColor" x1="0" y1="0" x2="0" y2="-1.6000"/>
</g>
<g transform="translate(42.1485, -6.5568)">
<path transform="scale(0.0036, -0.0036)" d="M-103 250c5 0 10 -1 14 -5c40 -35 70 -79 89 -128c19 49 49 93 89 128c4 4 9 5 14 5c11 0 22 -10 22 -22c0 -6 -2 -12 -7 -16c-61 -54 -96 -131 -96 -212c0 -14 -11 -22 -22 -22s-22 8 -22 22c0 81 -35 158 -96 212c-5 4 -7 10 -7 16c0 12 11 22 22 22z" fill="currentColor"/>
</g>
</g>
<g transform="translate(42.7377, 11.3758)">
<rect x="-0.0650" y="-2.0000" width="0.1300" height="6.3139" ry="0.0400" fill="currentColor"/>
</g>
<g transform="translate(5.6906, 25.3758)">
<line stroke-linejoin="round" stroke-linecap="round" stroke-width="0.1000" stroke="currentColor" x1="0.0500" y1="0" x2="108.0705" y2="0"/>
</g>
<g transform="translate(5.6906, 24.3758)">
<line stroke-linejoin="round" stroke-linecap="round" stroke-width="0.1000" stroke="currentColor" x1="0.0500" y1="0" x2="108.0705" y2="0"/>
</g>
<g transform="translate(5.6906, 23.3758)">
<line stroke-linejoin="round" stroke-linecap="round" stroke-width="0.1000" stroke="currentColor" x1="0.0500" y1="0" x2="108.0705" y2="0"/>
</g>
<g transform="translate(5.6906, 22.3758)">
<line stroke-linejoin="round" stroke-linecap="round" stroke-width="0.1000" stroke="currentColor" x1="0.0500" y1="0" x2="108.0705" y2="0"/>
</g>
<g transform="translate(5.6906, 21.3758)">
<line stroke-linejoin="round" stroke-linecap="round" stroke-width="0.1000" stroke="currentColor" x1="0.0500" y1="0" x2="108.0705" y2="0"/>
</g>
<g transform="translate(5.6906, 26.3758)">
<rect x="99.1661" y="-0.1000" width="1.9563" height="0.2000" ry="0.1000" fill="currentColor"/>
</g>
<g transform="translate(5.6906, 27.3758)">
<rect x="99.1661" y="-0.1000" width="1.9563" height="0.2000" ry="0.1000" fill="currentColor"/>
</g>
<g transform="translate(5.6906, 26.3758)">
<rect x="91.8777" y="-0.1000" width="1.9563" height="0.2000" ry="0.1000" fill="currentColor"/>
</g>
<g transform="translate(5.6906, 27.3758)">
<rect x="91.8777" y="-0.1000" width="1.9563" height="0.2000" ry="0.1000" fill="currentColor"/>
</g>
<g transform="translate(5.6906, 26.3758)">
<rect x="78.6053" y="-0.1000" width="1.9563" height="0.2000" ry="0.1000" fill="currentColor"/>
</g>
<g transform="translate(5.6906, 27.3758)">
<rect x="78.6053" y="-0.1000" width="1.9563" height="0.2000" ry="0.1000" fill="currentColor"/>
</g>
<g transform="translate(5.6906, 26.3758)">
<rect x="71.2537" y="-0.1000" width="1.9563" height="0.2000" ry="0.1000" fill="currentColor"/>
</g>
<g transform="translate(5.6906, 27.3758)">
<rect x="71.2537" y="-0.1000" width="1.9563" height="0.2000" ry="0.1000" fill="currentColor"/>
</g>
<g transform="translate(5.6906, 26.3758)">
<rect x="57.9812" y="-0.1000" width="1.9563" height="0.2000" ry="0.1000" fill="currentColor"/>
</g>
<g transform="translate(5.6906, 27.3758)">
<rect x="57.9812" y="-0.1000" width="1.9563" height="0.2000" ry="0.1000" fill="currentColor"/>
</g>
<g transform="translate(5.6906, 26.3758)">
<rect x="46.6588" y="-0.1000" width="1.9563" height="0.2000" ry="0.1000" fill="currentColor"/>
</g>
<g transform="translate(5.6906, 27.3758)">
<rect x="46.6588" y="-0.1000" width="1.9563" height="0.2000" ry="0.1000" fill="currentColor"/>
</g>
<g transform="translate(5.6906, 26.3758)">
<rect x="39.3705" y="-0.1000" width="1.9563" height="0.2000" ry="0.1000" fill="currentColor"/>
</g>
<g transform="translate(5.6906, 27.3758)">
<rect x="39.3705" y="-0.1000" width="1.9563" height="0.2000" ry="0.1000" fill="currentColor"/>
</g>
<g transform="translate(5.6906, 26.3758)">
<rect x="26.0980" y="-0.1000" width="1.9563" height="0.2000" ry="0.1000" fill="currentColor"/>
</g>
<g transform="translate(5.6906, 27.3758)">
<rect x="26.0980" y="-0.1000" width="1.9563" height="0.2000" ry="0.1000" fill="currentColor"/>
</g>
<g transform="translate(5.6906, 26.3758)">
<rect x="18.7464" y="-0.1000" width="1.9563" height="0.2000" ry="0.1000" fill="currentColor"/>
</g>
<g transform="translate(5.6906, 27.3758)">
<rect x="18.7464" y="-0.1000" width="1.9563" height="0.2000" ry="0.1000" fill="currentColor"/>
</g>
<g transform="translate(5.6906, 26.3758)">
<rect x="5.4739" y="-0.1000" width="1.9563" height="0.2000" ry="0.1000" fill="currentColor"/>
</g>
<g transform="translate(5.6906, 27.3758)">
<rect x="5.4739" y="-0.1000" width="1.9563" height="0.2000" ry="0.1000" fill="currentColor"/>
</g>
<g transform="translate(60.7038, 23.3758)">
<rect x="0.0000" y="-2.0000" width="0.6000" height="4.0000" ry="0.0000" fill="currentColor"/>
</g>
<g transform="translate(60.2138, 23.3758)">
<rect x="0.0000" y="-2.0000" width="0.1900" height="4.0000" ry="0.0000" fill="currentColor"/>
</g>
<g transform="translate(113.2110, 23.3758)">
<rect x="0.0000" y="-2.0000" width="0.6000" height="4.0000" ry="0.0000" fill="currentColor"/>
</g>
<g transform="translate(112.7210, 23.3758)">
<rect x="0.0000" y="-2.0000" width="0.1900" height="4.0000" ry="0.0000" fill="currentColor"/>
</g>
<g transform="translate(85.2719, 20.3374)">
<line stroke-linejoin="round" stroke-linecap="round" stroke-width="0.1380" stroke="currentColor" x1="0" y1="0" x2="0" y2="-1.6000"/>
</g>
<g transform="translate(85.2719, 20.7874)">
<path transform="scale(0.0036, -0.0036)" d="M-103 250c5 0 10 -1 14 -5c40 -35 70 -79 89 -128c19 49 49 93 89 128c4 4 9 5 14 5c11 0 22 -10 22 -22c0 -6 -2 -12 -7 -16c-61 -54 -96 -131 -96 -212c0 -14 -11 -22 -22 -22s-22 8 -22 22c0 81 -35 158 -96 212c-5 4 -7 10 -7 16c0 12 11 22 22 22z" fill="currentColor"/>
</g>
<g color="rgb(50.0000%, 50.0000%, 50.0000%)">
<g transform="translate(77.2703, 26.3758)">
<path transform="scale(0.0040, -0.0040)" d="M218 136c55 0 108 -28 108 -89c0 -71 -55 -121 -102 -149c-35 -21 -75 -34 -116 -34c-55 0 -108 28 -108 89c0 71 55 121 102 149c35 21 75 34 116 34z" fill="currentColor"/>
</g>
</g>
<g color="rgb(50.0000%, 50.0000%, 50.0000%)">
<g transform="translate(77.2703, 27.8758)">
<path transform="scale(0.0040, -0.0040)" d="M218 136c55 0 108 -28 108 -89c0 -71 -55 -121 -102 -149c-35 -21 -75 -34 -116 -34c-55 0 -108 28 -108 89c0 71 55 121 102 149c35 21 75 34 116 34z" fill="currentColor"/>
</g>
</g>
<g transform="translate(77.2703, 24.3758)">
<path transform="scale(0.0040, -0.0040)" d="M218 136c55 0 108 -28 108 -89c0 -71 -55 -121 -102 -149c-35 -21 -75 -34 -116 -34c-55 0 -108 28 -108 89c0 71 55 121 102 149c35 21 75 34 116 34z" fill="currentColor"/>
</g>
<g transform="scale(1.0000, -1.0000)">
<g transform="translate(77.9203, -19.1968)">
<line stroke-linejoin="round" stroke-linecap="round" stroke-width="0.1380" stroke="currentColor" x1="0" y1="0" x2="0" y2="-1.6000"/>
</g>
<g transform="translate(77.9203, -18.7468)">
<path transform="scale(0.0036, -0.0036)" d="M-103 250c5 0 10 -1 14 -5c40 -35 70 -79 89 -128c19 49 49 93 89 128c4 4 9 5 14 5c11 0 22 -10 22 -22c0 -6 -2 -12 -7 -16c-61 -54 -96 -131 -96 -212c0 -14 -11 -22 -22 -22s-22 8 -22 22c0 81 -35 158 -96 212c-5 4 -7 10 -7 16c0 12 11 22 22 22z" fill="currentColor"/>
</g>
</g>
<g transform="translate(78.5095, 23.3758)">
<rect x="-0.0650" y="-2.5000" width="0.1300" height="6.8139" ry="0.0400" fill="currentColor"/>
</g>
<g transform="translate(78.5745, 20.9158)">
<path transform="scale(0.0040, -0.0040)" d="M0 0v-250h-16v250h16zM0 0c0 -197 207 -336 207 -533c0 -71 -15 -141 -41 -207c-5 -8 -13 -12 -20 -12c-13 0 -26 11 -23 27c26 61 42 126 42 192c0 103 -94 208 -165 283v250z" fill="currentColor"/>
</g>
<g color="rgb(50.0000%, 50.0000%, 50.0000%)">
<g transform="translate(84.6219, 26.3758)">
<path transform="scale(0.0040, -0.0040)" d="M218 136c55 0 108 -28 108 -89c0 -71 -55 -121 -102 -149c-35 -21 -75 -34 -116 -34c-55 0 -108 28 -108 89c0 71 55 121 102 149c35 21 75 34 116 34z" fill="currentColor"/>
</g>
</g>
<g color="rgb(50.0000%, 50.0000%, 50.0000%)">
<g transform="translate(84.6219, 27.8758)">
<path transform="scale(0.0040, -0.0040)" d="M218 136c55 0 108 -28 108 -89c0 -71 -55 -121 -102 -149c-35 -21 -75 -34 -116 -34c-55 0 -108 28 -108 89c0 71 55 121 102 149c35 21 75 34 116 34z" fill="currentColor"/>
</g>
</g>
<g transform="translate(84.6219, 24.3758)">
<path transform="scale(0.0040, -0.0040)" d="M218 136c55 0 108 -28 108 -89c0 -71 -55 -121 -102 -149c-35 -21 -75 -34 -116 -34c-55 0 -108 28 -108 89c0 71 55 121 102 149c35 21 75 34 116 34z" fill="currentColor"/>
</g>
<g color="rgb(50.0000%, 50.0000%, 50.0000%)">
<g transform="translate(63.9978, 27.8758)">
<path transform="scale(0.0040, -0.0040)" d="M218 136c55 0 108 -28 108 -89c0 -71 -55 -121 -102 -149c-35 -21 -75 -34 -116 -34c-55 0 -108 28 -108 89c0 71 55 121 102 149c35 21 75 34 116 34z" fill="currentColor"/>
</g>
</g>
<g transform="translate(65.2370, 23.3758)">
<rect x="-0.0650" y="-2.5000" width="0.1300" height="6.8139" ry="0.0400" fill="currentColor"/>
</g>
<g transform="translate(60.7588, 19.8979)">
<text font-family="serif" font-size="2.6163" text-anchor="start" fill="currentColor">
<tspan>3β</tspan>
</text>
</g>
<g transform="translate(64.6478, 20.3374)">
<line stroke-linejoin="round" stroke-linecap="round" stroke-width="0.1380" stroke="currentColor" x1="0" y1="0" x2="0" y2="-1.6000"/>
</g>
<g transform="translate(64.6478, 20.7874)">
<path transform="scale(0.0036, -0.0036)" d="M-103 250c5 0 10 -1 14 -5c40 -35 70 -79 89 -128c19 49 49 93 89 128c4 4 9 5 14 5c11 0 22 -10 22 -22c0 -6 -2 -12 -7 -16c-61 -54 -96 -131 -96 -212c0 -14 -11 -22 -22 -22s-22 8 -22 22c0 81 -35 158 -96 212c-5 4 -7 10 -7 16c0 12 11 22 22 22z" fill="currentColor"/>
</g>
<g transform="translate(63.9978, 24.3758)">
<path transform="scale(0.0040, -0.0040)" d="M218 136c55 0 108 -28 108 -89c0 -71 -55 -121 -102 -149c-35 -21 -75 -34 -116 -34c-55 0 -108 28 -108 89c0 71 55 121 102 149c35 21 75 34 116 34z" fill="currentColor"/>
</g>
<g transform="translate(99.0685, 21.3758)">
<polygon stroke-linejoin="round" stroke-linecap="round" stroke-width="0.0800" fill="currentColor" stroke="currentColor" points="7.3783 -0.2000 7.3783 0.2000 0.0400 0.2000 0.0400 -0.2000"/>
</g>
<g transform="translate(106.4219, 23.3758)">
<rect x="-0.0650" y="-2.0000" width="0.1300" height="6.3139" ry="0.0400" fill="currentColor"/>
</g>
<g transform="scale(1.0000, -1.0000)">
<g transform="translate(105.8327, -19.0068)">
<line stroke-linejoin="round" stroke-linecap="round" stroke-width="0.1380" stroke="currentColor" x1="0" y1="0" x2="0" y2="-1.6000"/>
</g>
<g transform="translate(105.8327, -18.5568)">
<path transform="scale(0.0036, -0.0036)" d="M-103 250c5 0 10 -1 14 -5c40 -35 70 -79 89 -128c19 49 49 93 89 128c4 4 9 5 14 5c11 0 22 -10 22 -22c0 -6 -2 -12 -7 -16c-61 -54 -96 -131 -96 -212c0 -14 -11 -22 -22 -22s-22 8 -22 22c0 81 -35 158 -96 212c-5 4 -7 10 -7 16c0 12 11 22 22 22z" fill="currentColor"/>
</g>
</g>
<g transform="translate(46.5613, 21.3758)">
<polygon stroke-linejoin="round" stroke-linecap="round" stroke-width="0.0800" fill="currentColor" stroke="currentColor" points="7.3783 -0.2000 7.3783 0.2000 0.0400 0.2000 0.0400 -0.2000"/>
</g>
<g transform="translate(85.8611, 23.3758)">
<rect x="-0.0650" y="-2.5000" width="0.1300" height="6.8139" ry="0.0400" fill="currentColor"/>
</g>
<g transform="translate(105.1827, 24.3758)">
<path transform="scale(0.0040, -0.0040)" d="M218 136c55 0 108 -28 108 -89c0 -71 -55 -121 -102 -149c-35 -21 -75 -34 -116 -34c-55 0 -108 28 -108 89c0 71 55 121 102 149c35 21 75 34 116 34z" fill="currentColor"/>
</g>
<g color="rgb(50.0000%, 50.0000%, 50.0000%)">
<g transform="translate(105.1827, 27.8758)">
<path transform="scale(0.0040, -0.0040)" d="M218 136c55 0 108 -28 108 -89c0 -71 -55 -121 -102 -149c-35 -21 -75 -34 -116 -34c-55 0 -108 28 -108 89c0 71 55 121 102 149c35 21 75 34 116 34z" fill="currentColor"/>
</g>
</g>
<g color="rgb(50.0000%, 50.0000%, 50.0000%)">
<g transform="translate(105.1827, 26.3758)">
<path transform="scale(0.0040, -0.0040)" d="M218 136c55 0 108 -28 108 -89c0 -71 -55 -121 -102 -149c-35 -21 -75 -34 -116 -34c-55 0 -108 28 -108 89c0 71 55 121 102 149c35 21 75 34 116 34z" fill="currentColor"/>
</g>
</g>
<g transform="translate(99.1335, 23.3758)">
<rect x="-0.0650" y="-2.0000" width="0.1300" height="6.3139" ry="0.0400" fill="currentColor"/>
</g>
<g transform="scale(1.0000, -1.0000)">
<g transform="translate(98.5443, -19.1968)">
<line stroke-linejoin="round" stroke-linecap="round" stroke-width="0.1380" stroke="currentColor" x1="0" y1="0" x2="0" y2="-1.6000"/>
</g>
<g transform="translate(98.5443, -18.7468)">
<path transform="scale(0.0036, -0.0036)" d="M-103 250c5 0 10 -1 14 -5c40 -35 70 -79 89 -128c19 49 49 93 89 128c4 4 9 5 14 5c11 0 22 -10 22 -22c0 -6 -2 -12 -7 -16c-61 -54 -96 -131 -96 -212c0 -14 -11 -22 -22 -22s-22 8 -22 22c0 81 -35 158 -96 212c-5 4 -7 10 -7 16c0 12 11 22 22 22z" fill="currentColor"/>
</g>
</g>
<g transform="translate(97.8943, 24.3758)">
<path transform="scale(0.0040, -0.0040)" d="M218 136c55 0 108 -28 108 -89c0 -71 -55 -121 -102 -149c-35 -21 -75 -34 -116 -34c-55 0 -108 28 -108 89c0 71 55 121 102 149c35 21 75 34 116 34z" fill="currentColor"/>
</g>
<g color="rgb(50.0000%, 50.0000%, 50.0000%)">
<g transform="translate(97.8943, 27.8758)">
<path transform="scale(0.0040, -0.0040)" d="M218 136c55 0 108 -28 108 -89c0 -71 -55 -121 -102 -149c-35 -21 -75 -34 -116 -34c-55 0 -108 28 -108 89c0 71 55 121 102 149c35 21 75 34 116 34z" fill="currentColor"/>
</g>
</g>
<g color="rgb(50.0000%, 50.0000%, 50.0000%)">
<g transform="translate(97.8943, 26.3758)">
<path transform="scale(0.0040, -0.0040)" d="M218 136c55 0 108 -28 108 -89c0 -71 -55 -121 -102 -149c-35 -21 -75 -34 -116 -34c-55 0 -108 28 -108 89c0 71 55 121 102 149c35 21 75 34 116 34z" fill="currentColor"/>
</g>
</g>
<g color="rgb(50.0000%, 50.0000%, 50.0000%)">
<g transform="translate(24.7630, 27.8758)">
<path transform="scale(0.0040, -0.0040)" d="M218 136c55 0 108 -28 108 -89c0 -71 -55 -121 -102 -149c-35 -21 -75 -34 -116 -34c-55 0 -108 28 -108 89c0 71 55 121 102 149c35 21 75 34 116 34z" fill="currentColor"/>
</g>
</g>
<g color="rgb(50.0000%, 50.0000%, 50.0000%)">
<g transform="translate(11.4906, 27.8758)">
<path transform="scale(0.0040, -0.0040)" d="M218 136c55 0 108 -28 108 -89c0 -71 -55 -121 -102 -149c-35 -21 -75 -34 -116 -34c-55 0 -108 28 -108 89c0 71 55 121 102 149c35 21 75 34 116 34z" fill="currentColor"/>
</g>
</g>
<g transform="translate(11.4906, 24.3758)">
<path transform="scale(0.0040, -0.0040)" d="M218 136c55 0 108 -28 108 -89c0 -71 -55 -121 -102 -149c-35 -21 -75 -34 -116 -34c-55 0 -108 28 -108 89c0 71 55 121 102 149c35 21 75 34 116 34z" fill="currentColor"/>
</g>
<g transform="translate(12.1406, 20.3374)">
<line stroke-linejoin="round" stroke-linecap="round" stroke-width="0.1380" stroke="currentColor" x1="0" y1="0" x2="0" y2="-1.6000"/>
</g>
<g transform="translate(12.1406, 20.7874)">
<path transform="scale(0.0036, -0.0036)" d="M-103 250c5 0 10 -1 14 -5c40 -35 70 -79 89 -128c19 49 49 93 89 128c4 4 9 5 14 5c11 0 22 -10 22 -22c0 -6 -2 -12 -7 -16c-61 -54 -96 -131 -96 -212c0 -14 -11 -22 -22 -22s-22 8 -22 22c0 81 -35 158 -96 212c-5 4 -7 10 -7 16c0 12 11 22 22 22z" fill="currentColor"/>
</g>
<g transform="translate(12.7298, 23.3758)">
<rect x="-0.0650" y="-2.5000" width="0.1300" height="6.8139" ry="0.0400" fill="currentColor"/>
</g>
<g color="rgb(50.0000%, 50.0000%, 50.0000%)">
<g transform="translate(24.7630, 26.3758)">
<path transform="scale(0.0040, -0.0040)" d="M218 136c55 0 108 -28 108 -89c0 -71 -55 -121 -102 -149c-35 -21 -75 -34 -116 -34c-55 0 -108 28 -108 89c0 71 55 121 102 149c35 21 75 34 116 34z" fill="currentColor"/>
</g>
</g>
<g color="rgb(50.0000%, 50.0000%, 50.0000%)">
<g transform="translate(11.4906, 26.3758)">
<path transform="scale(0.0040, -0.0040)" d="M218 136c55 0 108 -28 108 -89c0 -71 -55 -121 -102 -149c-35 -21 -75 -34 -116 -34c-55 0 -108 28 -108 89c0 71 55 121 102 149c35 21 75 34 116 34z" fill="currentColor"/>
</g>
</g>
<g transform="translate(24.7630, 24.3758)">
<path transform="scale(0.0040, -0.0040)" d="M218 136c55 0 108 -28 108 -89c0 -71 -55 -121 -102 -149c-35 -21 -75 -34 -116 -34c-55 0 -108 28 -108 89c0 71 55 121 102 149c35 21 75 34 116 34z" fill="currentColor"/>
</g>
<g transform="scale(1.0000, -1.0000)">
<g transform="translate(25.4130, -19.1968)">
<line stroke-linejoin="round" stroke-linecap="round" stroke-width="0.1380" stroke="currentColor" x1="0" y1="0" x2="0" y2="-1.6000"/>
</g>
<g transform="translate(25.4130, -18.7468)">
<path transform="scale(0.0036, -0.0036)" d="M-103 250c5 0 10 -1 14 -5c40 -35 70 -79 89 -128c19 49 49 93 89 128c4 4 9 5 14 5c11 0 22 -10 22 -22c0 -6 -2 -12 -7 -16c-61 -54 -96 -131 -96 -212c0 -14 -11 -22 -22 -22s-22 8 -22 22c0 81 -35 158 -96 212c-5 4 -7 10 -7 16c0 12 11 22 22 22z" fill="currentColor"/>
</g>
</g>
<g transform="translate(26.0022, 23.3758)">
<rect x="-0.0650" y="-2.5000" width="0.1300" height="6.8139" ry="0.0400" fill="currentColor"/>
</g>
<g color="rgb(50.0000%, 50.0000%, 50.0000%)">
<g transform="translate(63.9978, 26.3758)">
<path transform="scale(0.0040, -0.0040)" d="M218 136c55 0 108 -28 108 -89c0 -71 -55 -121 -102 -149c-35 -21 -75 -34 -116 -34c-55 0 -108 28 -108 89c0 71 55 121 102 149c35 21 75 34 116 34z" fill="currentColor"/>
</g>
</g>
<g transform="translate(26.0672, 20.9158)">
<path transform="scale(0.0040, -0.0040)" d="M0 0v-250h-16v250h16zM0 0c0 -197 207 -336 207 -533c0 -71 -15 -141 -41 -207c-5 -8 -13 -12 -20 -12c-13 0 -26 11 -23 27c26 61 42 126 42 192c0 103 -94 208 -165 283v250z" fill="currentColor"/>
</g>
<g transform="translate(5.6906, 19.1106)">
<text font-family="serif" font-size="2.6163" text-anchor="start" fill="currentColor">
<tspan>3α</tspan>
</text>
</g>
<g transform="translate(6.4906, 24.3758)">
<path transform="scale(0.0040, -0.0040)" d="M266 -635h-6c-108 0 -195 88 -195 197c0 58 53 103 112 103c54 0 95 -47 95 -103c0 -52 -43 -95 -95 -95c-11 0 -21 2 -31 6c26 -39 68 -65 117 -65h4zM461 -203c68 24 113 95 113 164c0 90 -66 179 -173 190c24 -116 46 -231 60 -354zM74 28c0 -135 129 -247 264 -247
c28 0 55 2 82 6c-14 127 -37 245 -63 364c-79 -8 -124 -61 -124 -119c0 -44 25 -91 81 -123c5 -5 7 -10 7 -15c0 -11 -10 -22 -22 -22c-3 0 -6 1 -9 2c-80 43 -117 115 -117 185c0 88 58 174 160 197c-14 58 -29 117 -46 175c-107 -121 -213 -243 -213 -403zM335 -262
c-188 0 -333 172 -333 374c0 177 131 306 248 441c-19 62 -37 125 -45 190c-6 52 -7 104 -7 156c0 115 55 224 149 292c6 5 14 5 20 0c71 -84 133 -245 133 -358c0 -143 -86 -255 -180 -364c21 -68 39 -138 56 -207c4 0 9 1 13 1c155 0 256 -128 256 -261
c0 -76 -33 -154 -107 -210c-22 -17 -47 -28 -73 -36c3 -35 5 -70 5 -105c0 -19 -1 -39 -2 -58c-7 -119 -88 -225 -202 -228l1 43c93 2 153 92 159 191c1 18 2 37 2 55c0 31 -1 61 -4 92c-29 -5 -58 -8 -89 -8zM428 916c0 55 -4 79 -20 129c-99 -48 -162 -149 -162 -259
c0 -74 18 -133 36 -194c80 97 146 198 146 324z" fill="currentColor"/>
</g>
<g color="rgb(50.0000%, 50.0000%, 50.0000%)">
<g transform="translate(32.1146, 26.3758)">
<path transform="scale(0.0040, -0.0040)" d="M218 136c55 0 108 -28 108 -89c0 -71 -55 -121 -102 -149c-35 -21 -75 -34 -116 -34c-55 0 -108 28 -108 89c0 71 55 121 102 149c35 21 75 34 116 34z" fill="currentColor"/>
</g>
</g>
<g transform="translate(53.9146, 23.3758)">
<rect x="-0.0650" y="-2.0000" width="0.1300" height="6.3139" ry="0.0400" fill="currentColor"/>
</g>
<g transform="scale(1.0000, -1.0000)">
<g transform="translate(53.3254, -19.0068)">
<line stroke-linejoin="round" stroke-linecap="round" stroke-width="0.1380" stroke="currentColor" x1="0" y1="0" x2="0" y2="-1.6000"/>
</g>
<g transform="translate(53.3254, -18.5568)">
<path transform="scale(0.0036, -0.0036)" d="M-103 250c5 0 10 -1 14 -5c40 -35 70 -79 89 -128c19 49 49 93 89 128c4 4 9 5 14 5c11 0 22 -10 22 -22c0 -6 -2 -12 -7 -16c-61 -54 -96 -131 -96 -212c0 -14 -11 -22 -22 -22s-22 8 -22 22c0 81 -35 158 -96 212c-5 4 -7 10 -7 16c0 12 11 22 22 22z" fill="currentColor"/>
</g>
</g>
<g transform="translate(52.6754, 24.3758)">
<path transform="scale(0.0040, -0.0040)" d="M218 136c55 0 108 -28 108 -89c0 -71 -55 -121 -102 -149c-35 -21 -75 -34 -116 -34c-55 0 -108 28 -108 89c0 71 55 121 102 149c35 21 75 34 116 34z" fill="currentColor"/>
</g>
<g color="rgb(50.0000%, 50.0000%, 50.0000%)">
<g transform="translate(52.6754, 27.8758)">
<path transform="scale(0.0040, -0.0040)" d="M218 136c55 0 108 -28 108 -89c0 -71 -55 -121 -102 -149c-35 -21 -75 -34 -116 -34c-55 0 -108 28 -108 89c0 71 55 121 102 149c35 21 75 34 116 34z" fill="currentColor"/>
</g>
</g>
<g color="rgb(50.0000%, 50.0000%, 50.0000%)">
<g transform="translate(52.6754, 26.3758)">
<path transform="scale(0.0040, -0.0040)" d="M218 136c55 0 108 -28 108 -89c0 -71 -55 -121 -102 -149c-35 -21 -75 -34 -116 -34c-55 0 -108 28 -108 89c0 71 55 121 102 149c35 21 75 34 116 34z" fill="currentColor"/>
</g>
</g>
<g transform="translate(46.6263, 23.3758)">
<rect x="-0.0650" y="-2.0000" width="0.1300" height="6.3139" ry="0.0400" fill="currentColor"/>
</g>
<g transform="translate(46.0371, 20.3374)">
<line stroke-linejoin="round" stroke-linecap="round" stroke-width="0.1380" stroke="currentColor" x1="0" y1="0" x2="0" y2="-1.6000"/>
</g>
<g transform="translate(46.0371, 20.7874)">
<path transform="scale(0.0036, -0.0036)" d="M-103 250c5 0 10 -1 14 -5c40 -35 70 -79 89 -128c19 49 49 93 89 128c4 4 9 5 14 5c11 0 22 -10 22 -22c0 -6 -2 -12 -7 -16c-61 -54 -96 -131 -96 -212c0 -14 -11 -22 -22 -22s-22 8 -22 22c0 81 -35 158 -96 212c-5 4 -7 10 -7 16c0 12 11 22 22 22z" fill="currentColor"/>
</g>
<g transform="translate(45.3871, 24.3758)">
<path transform="scale(0.0040, -0.0040)" d="M218 136c55 0 108 -28 108 -89c0 -71 -55 -121 -102 -149c-35 -21 -75 -34 -116 -34c-55 0 -108 28 -108 89c0 71 55 121 102 149c35 21 75 34 116 34z" fill="currentColor"/>
</g>
<g color="rgb(50.0000%, 50.0000%, 50.0000%)">
<g transform="translate(45.3871, 27.8758)">
<path transform="scale(0.0040, -0.0040)" d="M218 136c55 0 108 -28 108 -89c0 -71 -55 -121 -102 -149c-35 -21 -75 -34 -116 -34c-55 0 -108 28 -108 89c0 71 55 121 102 149c35 21 75 34 116 34z" fill="currentColor"/>
</g>
</g>
<g color="rgb(50.0000%, 50.0000%, 50.0000%)">
<g transform="translate(45.3871, 26.3758)">
<path transform="scale(0.0040, -0.0040)" d="M218 136c55 0 108 -28 108 -89c0 -71 -55 -121 -102 -149c-35 -21 -75 -34 -116 -34c-55 0 -108 28 -108 89c0 71 55 121 102 149c35 21 75 34 116 34z" fill="currentColor"/>
</g>
</g>
<g color="rgb(50.0000%, 50.0000%, 50.0000%)">
<g transform="translate(32.1146, 27.8758)">
<path transform="scale(0.0040, -0.0040)" d="M218 136c55 0 108 -28 108 -89c0 -71 -55 -121 -102 -149c-35 -21 -75 -34 -116 -34c-55 0 -108 28 -108 89c0 71 55 121 102 149c35 21 75 34 116 34z" fill="currentColor"/>
</g>
</g>
<g transform="translate(32.1146, 24.3758)">
<path transform="scale(0.0040, -0.0040)" d="M218 136c55 0 108 -28 108 -89c0 -71 -55 -121 -102 -149c-35 -21 -75 -34 -116 -34c-55 0 -108 28 -108 89c0 71 55 121 102 149c35 21 75 34 116 34z" fill="currentColor"/>
</g>
<g transform="translate(33.3538, 23.3758)">
<rect x="-0.0650" y="-2.5000" width="0.1300" height="6.8139" ry="0.0400" fill="currentColor"/>
</g>
<g transform="translate(32.7646, 20.3374)">
<line stroke-linejoin="round" stroke-linecap="round" stroke-width="0.1380" stroke="currentColor" x1="0" y1="0" x2="0" y2="-1.6000"/>
</g>
<g transform="translate(32.7646, 20.7874)">
<path transform="scale(0.0036, -0.0036)" d="M-103 250c5 0 10 -1 14 -5c40 -35 70 -79 89 -128c19 49 49 93 89 128c4 4 9 5 14 5c11 0 22 -10 22 -22c0 -6 -2 -12 -7 -16c-61 -54 -96 -131 -96 -212c0 -14 -11 -22 -22 -22s-22 8 -22 22c0 81 -35 158 -96 212c-5 4 -7 10 -7 16c0 12 11 22 22 22z" fill="currentColor"/>
</g>
<g transform="translate(5.6906, 38.4771)">
<line stroke-linejoin="round" stroke-linecap="round" stroke-width="0.1000" stroke="currentColor" x1="0.0500" y1="0" x2="108.0705" y2="0"/>
</g>
<g transform="translate(5.6906, 37.4771)">
<line stroke-linejoin="round" stroke-linecap="round" stroke-width="0.1000" stroke="currentColor" x1="0.0500" y1="0" x2="108.0705" y2="0"/>
</g>
<g transform="translate(5.6906, 36.4771)">
<line stroke-linejoin="round" stroke-linecap="round" stroke-width="0.1000" stroke="currentColor" x1="0.0500" y1="0" x2="108.0705" y2="0"/>
</g>
<g transform="translate(5.6906, 35.4771)">
<line stroke-linejoin="round" stroke-linecap="round" stroke-width="0.1000" stroke="currentColor" x1="0.0500" y1="0" x2="108.0705" y2="0"/>
</g>
<g transform="translate(5.6906, 34.4771)">
<line stroke-linejoin="round" stroke-linecap="round" stroke-width="0.1000" stroke="currentColor" x1="0.0500" y1="0" x2="108.0705" y2="0"/>
</g>
<g transform="translate(44.1777, 36.4771)">
<rect x="0.0000" y="-2.0000" width="0.6000" height="4.0000" ry="0.0000" fill="currentColor"/>
</g>
<g transform="translate(43.6877, 36.4771)">
<rect x="0.0000" y="-2.0000" width="0.1900" height="4.0000" ry="0.0000" fill="currentColor"/>
</g>
<g transform="translate(113.2110, 36.4771)">
<rect x="0.0000" y="-2.0000" width="0.6000" height="4.0000" ry="0.0000" fill="currentColor"/>
</g>
<g transform="translate(112.7210, 36.4771)">
<rect x="0.0000" y="-2.0000" width="0.1900" height="4.0000" ry="0.0000" fill="currentColor"/>
</g>
<g transform="translate(79.2174, 36.4771)">
<rect x="0.0000" y="-2.0000" width="0.6000" height="4.0000" ry="0.0000" fill="currentColor"/>
</g>
<g transform="translate(78.7274, 36.4771)">
<rect x="0.0000" y="-2.0000" width="0.1900" height="4.0000" ry="0.0000" fill="currentColor"/>
</g>
<g transform="translate(5.6906, 39.4771)">
<rect x="101.6764" y="-0.1000" width="1.9563" height="0.2000" ry="0.1000" fill="currentColor"/>
</g>
<g transform="translate(5.6906, 40.4771)">
<rect x="101.6764" y="-0.1000" width="1.9563" height="0.2000" ry="0.1000" fill="currentColor"/>
</g>
<g transform="translate(5.6906, 39.4771)">
<rect x="96.8984" y="-0.1000" width="1.9563" height="0.2000" ry="0.1000" fill="currentColor"/>
</g>
<g transform="translate(5.6906, 40.4771)">
<rect x="96.8984" y="-0.1000" width="1.9563" height="0.2000" ry="0.1000" fill="currentColor"/>
</g>
<g transform="translate(5.6906, 39.4771)">
<rect x="88.6466" y="-0.1000" width="1.9563" height="0.2000" ry="0.1000" fill="currentColor"/>
</g>
<g transform="translate(5.6906, 40.4771)">
<rect x="88.6466" y="-0.1000" width="1.9563" height="0.2000" ry="0.1000" fill="currentColor"/>
</g>
<g transform="translate(5.6906, 39.4771)">
<rect x="83.8053" y="-0.1000" width="1.9563" height="0.2000" ry="0.1000" fill="currentColor"/>
</g>
<g transform="translate(5.6906, 40.4771)">
<rect x="83.8053" y="-0.1000" width="1.9563" height="0.2000" ry="0.1000" fill="currentColor"/>
</g>
<g transform="translate(5.6906, 39.4771)">
<rect x="75.5535" y="-0.1000" width="1.9563" height="0.2000" ry="0.1000" fill="currentColor"/>
</g>
<g transform="translate(5.6906, 40.4771)">
<rect x="75.5535" y="-0.1000" width="1.9563" height="0.2000" ry="0.1000" fill="currentColor"/>
</g>
<g transform="translate(5.6906, 39.4771)">
<rect x="67.6828" y="-0.1000" width="1.9563" height="0.2000" ry="0.1000" fill="currentColor"/>
</g>
<g transform="translate(5.6906, 40.4771)">
<rect x="67.6828" y="-0.1000" width="1.9563" height="0.2000" ry="0.1000" fill="currentColor"/>
</g>
<g transform="translate(5.6906, 39.4771)">
<rect x="62.9048" y="-0.1000" width="1.9563" height="0.2000" ry="0.1000" fill="currentColor"/>
</g>
<g transform="translate(5.6906, 40.4771)">
<rect x="62.9048" y="-0.1000" width="1.9563" height="0.2000" ry="0.1000" fill="currentColor"/>
</g>
<g transform="translate(5.6906, 39.4771)">
<rect x="60.3048" y="-0.1000" width="1.3768" height="0.2000" ry="0.1000" fill="currentColor"/>
</g>
<g transform="translate(5.6906, 40.4771)">
<rect x="60.3048" y="-0.1000" width="1.3768" height="0.2000" ry="0.1000" fill="currentColor"/>
</g>
<g transform="translate(5.6906, 39.4771)">
<rect x="53.6068" y="-0.1000" width="1.9563" height="0.2000" ry="0.1000" fill="currentColor"/>
</g>
<g transform="translate(5.6906, 40.4771)">
<rect x="53.6068" y="-0.1000" width="1.9563" height="0.2000" ry="0.1000" fill="currentColor"/>
</g>
<g transform="translate(5.6906, 39.4771)">
<rect x="48.7655" y="-0.1000" width="1.9563" height="0.2000" ry="0.1000" fill="currentColor"/>
</g>
<g transform="translate(5.6906, 40.4771)">
<rect x="48.7655" y="-0.1000" width="1.9563" height="0.2000" ry="0.1000" fill="currentColor"/>
</g>
<g transform="translate(5.6906, 39.4771)">
<rect x="40.5137" y="-0.1000" width="1.9563" height="0.2000" ry="0.1000" fill="currentColor"/>
</g>
<g transform="translate(5.6906, 40.4771)">
<rect x="40.5137" y="-0.1000" width="1.9563" height="0.2000" ry="0.1000" fill="currentColor"/>
</g>
<g transform="translate(5.6906, 39.4771)">
<rect x="32.6430" y="-0.1000" width="1.9563" height="0.2000" ry="0.1000" fill="currentColor"/>
</g>
<g transform="translate(5.6906, 40.4771)">
<rect x="32.6430" y="-0.1000" width="1.9563" height="0.2000" ry="0.1000" fill="currentColor"/>
</g>
<g transform="translate(5.6906, 39.4771)">
<rect x="27.8650" y="-0.1000" width="1.9563" height="0.2000" ry="0.1000" fill="currentColor"/>
</g>
<g transform="translate(5.6906, 40.4771)">
<rect x="27.8650" y="-0.1000" width="1.9563" height="0.2000" ry="0.1000" fill="currentColor"/>
</g>
<g transform="translate(5.6906, 39.4771)">
<rect x="25.2651" y="-0.1000" width="1.3768" height="0.2000" ry="0.1000" fill="currentColor"/>
</g>
<g transform="translate(5.6906, 40.4771)">
<rect x="25.2651" y="-0.1000" width="1.3768" height="0.2000" ry="0.1000" fill="currentColor"/>
</g>
<g transform="translate(5.6906, 39.4771)">
<rect x="18.5670" y="-0.1000" width="1.9563" height="0.2000" ry="0.1000" fill="currentColor"/>
</g>
<g transform="translate(5.6906, 40.4771)">
<rect x="18.5670" y="-0.1000" width="1.9563" height="0.2000" ry="0.1000" fill="currentColor"/>
</g>
<g transform="translate(5.6906, 39.4771)">
<rect x="13.7258" y="-0.1000" width="1.9563" height="0.2000" ry="0.1000" fill="currentColor"/>
</g>
<g transform="translate(5.6906, 40.4771)">
<rect x="13.7258" y="-0.1000" width="1.9563" height="0.2000" ry="0.1000" fill="currentColor"/>
</g>
<g transform="translate(5.6906, 39.4771)">
<rect x="5.4739" y="-0.1000" width="1.9563" height="0.2000" ry="0.1000" fill="currentColor"/>
</g>
<g transform="translate(5.6906, 40.4771)">
<rect x="5.4739" y="-0.1000" width="1.9563" height="0.2000" ry="0.1000" fill="currentColor"/>
</g>
<g color="rgb(50.0000%, 50.0000%, 50.0000%)">
<g transform="translate(73.6994, 39.4771)">
<path transform="scale(0.0040, -0.0040)" d="M218 136c55 0 108 -28 108 -89c0 -71 -55 -121 -102 -149c-35 -21 -75 -34 -116 -34c-55 0 -108 28 -108 89c0 71 55 121 102 149c35 21 75 34 116 34z" fill="currentColor"/>
</g>
</g>
<g color="rgb(50.0000%, 50.0000%, 50.0000%)">
<g transform="translate(73.6994, 40.9771)">
<path transform="scale(0.0040, -0.0040)" d="M218 136c55 0 108 -28 108 -89c0 -71 -55 -121 -102 -149c-35 -21 -75 -34 -116 -34c-55 0 -108 28 -108 89c0 71 55 121 102 149c35 21 75 34 116 34z" fill="currentColor"/>
</g>
</g>
<g transform="translate(73.6994, 37.4771)">
<path transform="scale(0.0040, -0.0040)" d="M218 136c55 0 108 -28 108 -89c0 -71 -55 -121 -102 -149c-35 -21 -75 -34 -116 -34c-55 0 -108 28 -108 89c0 71 55 121 102 149c35 21 75 34 116 34z" fill="currentColor"/>
</g>
<g transform="scale(1.0000, -1.0000)">
<g transform="translate(74.3494, -32.1081)">
<line stroke-linejoin="round" stroke-linecap="round" stroke-width="0.1380" stroke="currentColor" x1="0" y1="0" x2="0" y2="-1.6000"/>
</g>
<g transform="translate(74.3494, -31.6581)">
<path transform="scale(0.0036, -0.0036)" d="M-103 250c5 0 10 -1 14 -5c40 -35 70 -79 89 -128c19 49 49 93 89 128c4 4 9 5 14 5c11 0 22 -10 22 -22c0 -6 -2 -12 -7 -16c-61 -54 -96 -131 -96 -212c0 -14 -11 -22 -22 -22s-22 8 -22 22c0 81 -35 158 -96 212c-5 4 -7 10 -7 16c0 12 11 22 22 22z" fill="currentColor"/>
</g>
</g>
<g transform="translate(74.9386, 36.4771)">
<rect x="-0.0650" y="-2.0000" width="0.1300" height="6.3139" ry="0.0400" fill="currentColor"/>
</g>
<g color="rgb(50.0000%, 50.0000%, 50.0000%)">
<g transform="translate(81.5701, 39.4771)">
<path transform="scale(0.0040, -0.0040)" d="M218 136c55 0 108 -28 108 -89c0 -71 -55 -121 -102 -149c-35 -21 -75 -34 -116 -34c-55 0 -108 28 -108 89c0 71 55 121 102 149c35 21 75 34 116 34z" fill="currentColor"/>
</g>
</g>
<g color="rgb(50.0000%, 50.0000%, 50.0000%)">
<g transform="translate(81.5701, 40.9771)">
<path transform="scale(0.0040, -0.0040)" d="M218 136c55 0 108 -28 108 -89c0 -71 -55 -121 -102 -149c-35 -21 -75 -34 -116 -34c-55 0 -108 28 -108 89c0 71 55 121 102 149c35 21 75 34 116 34z" fill="currentColor"/>
</g>
</g>
<g transform="translate(81.5701, 37.4771)">
<path transform="scale(0.0040, -0.0040)" d="M218 136c55 0 108 -28 108 -89c0 -71 -55 -121 -102 -149c-35 -21 -75 -34 -116 -34c-55 0 -108 28 -108 89c0 71 55 121 102 149c35 21 75 34 116 34z" fill="currentColor"/>
</g>
<g transform="translate(82.2201, 33.4387)">
<line stroke-linejoin="round" stroke-linecap="round" stroke-width="0.1380" stroke="currentColor" x1="0" y1="0" x2="0" y2="-1.6000"/>
</g>
<g transform="translate(82.2201, 33.8887)">
<path transform="scale(0.0036, -0.0036)" d="M-103 250c5 0 10 -1 14 -5c40 -35 70 -79 89 -128c19 49 49 93 89 128c4 4 9 5 14 5c11 0 22 -10 22 -22c0 -6 -2 -12 -7 -16c-61 -54 -96 -131 -96 -212c0 -14 -11 -22 -22 -22s-22 8 -22 22c0 81 -35 158 -96 212c-5 4 -7 10 -7 16c0 12 11 22 22 22z" fill="currentColor"/>
</g>
<g color="rgb(50.0000%, 50.0000%, 50.0000%)">
<g transform="translate(59.6234, 39.4771)">
<path transform="scale(0.0040, -0.0040)" d="M218 136c55 0 108 -28 108 -89c0 -71 -55 -121 -102 -149c-35 -21 -75 -34 -116 -34c-55 0 -108 28 -108 89c0 71 55 121 102 149c35 21 75 34 116 34z" fill="currentColor"/>
</g>
</g>
<g transform="translate(79.2724, 31.3255)">
<text font-family="serif" font-size="2.6163" text-anchor="start" fill="currentColor">
<tspan>4β2</tspan>
</text>
</g>
<g transform="translate(82.8093, 36.4771)">
<rect x="-0.0650" y="-2.5000" width="0.1300" height="6.8139" ry="0.0400" fill="currentColor"/>
</g>
<g transform="translate(67.0777, 36.4771)">
<rect x="-0.0650" y="-1.8000" width="0.1300" height="6.1856" ry="0.0400" fill="currentColor"/>
</g>
<g transform="translate(104.0892, 34.4771)">
<polygon stroke-linejoin="round" stroke-linecap="round" stroke-width="0.0800" fill="currentColor" stroke="currentColor" points="4.8680 -0.2000 4.8680 0.2000 0.0400 0.2000 0.0400 -0.2000"/>
</g>
<g color="rgb(50.0000%, 50.0000%, 50.0000%)">
<g transform="translate(59.6234, 40.9771)">
<path transform="scale(0.0040, -0.0040)" d="M218 136c55 0 108 -28 108 -89c0 -71 -55 -121 -102 -149c-35 -21 -75 -34 -116 -34c-55 0 -108 28 -108 89c0 71 55 121 102 149c35 21 75 34 116 34z" fill="currentColor"/>
</g>
</g>
<g transform="translate(59.6234, 37.4771)">
<path transform="scale(0.0040, -0.0040)" d="M218 136c55 0 108 -28 108 -89c0 -71 -55 -121 -102 -149c-35 -21 -75 -34 -116 -34c-55 0 -108 28 -108 89c0 71 55 121 102 149c35 21 75 34 116 34z" fill="currentColor"/>
</g>
<g transform="translate(60.2734, 33.4387)">
<line stroke-linejoin="round" stroke-linecap="round" stroke-width="0.1380" stroke="currentColor" x1="0" y1="0" x2="0" y2="-1.6000"/>
</g>
<g transform="translate(60.2734, 33.8887)">
<path transform="scale(0.0036, -0.0036)" d="M-103 250c5 0 10 -1 14 -5c40 -35 70 -79 89 -128c19 49 49 93 89 128c4 4 9 5 14 5c11 0 22 -10 22 -22c0 -6 -2 -12 -7 -16c-61 -54 -96 -131 -96 -212c0 -14 -11 -22 -22 -22s-22 8 -22 22c0 81 -35 158 -96 212c-5 4 -7 10 -7 16c0 12 11 22 22 22z" fill="currentColor"/>
</g>
<g transform="translate(60.8626, 36.4771)">
<rect x="-0.0650" y="-2.5000" width="0.1300" height="6.8139" ry="0.0400" fill="currentColor"/>
</g>
<g color="rgb(50.0000%, 50.0000%, 50.0000%)">
<g transform="translate(66.2249, 39.4771)">
<path transform="scale(0.0028, -0.0028)" d="M208 139c61 0 117 -33 117 -99c0 -71 -52 -119 -99 -147c-34 -20 -71 -32 -110 -32c-61 0 -116 33 -116 99c0 71 51 119 98 147c34 20 71 32 110 32z" fill="currentColor"/>
</g>
</g>
<g color="rgb(50.0000%, 50.0000%, 50.0000%)">
<g transform="translate(66.2249, 40.9771)">
<path transform="scale(0.0028, -0.0028)" d="M208 139c61 0 117 -33 117 -99c0 -71 -52 -119 -99 -147c-34 -20 -71 -32 -110 -32c-61 0 -116 33 -116 99c0 71 51 119 98 147c34 20 71 32 110 32z" fill="currentColor"/>
</g>
</g>
<g transform="translate(66.2249, 37.4771)">
<path transform="scale(0.0028, -0.0028)" d="M208 139c61 0 117 -33 117 -99c0 -71 -52 -119 -99 -147c-34 -20 -71 -32 -110 -32c-61 0 -116 33 -116 99c0 71 51 119 98 147c34 20 71 32 110 32z" fill="currentColor"/>
</g>
<g transform="translate(66.8749, 33.8981)">
<line stroke-linejoin="round" stroke-linecap="round" stroke-width="0.1380" stroke="currentColor" x1="0" y1="0" x2="0" y2="-0.8000"/>
</g>
<g transform="translate(66.8749, 33.2981)">
<path transform="scale(0.0028, -0.0028)" d="M-100 250c6 0 13 -3 18 -7c36 -32 63 -72 82 -116c19 44 46 84 82 116c5 4 12 7 18 7c13 0 25 -11 25 -25c0 -7 -2 -14 -8 -19c-58 -53 -92 -128 -92 -206c0 -17 -12 -25 -25 -25s-25 8 -25 25c0 78 -34 153 -92 206c-6 5 -8 12 -8 19c0 14 12 25 25 25z" fill="currentColor"/>
</g>
<g transform="translate(66.8749, 32.8981)">
<path transform="scale(0.0028, -0.0028)" d="M-100 -250c-13 0 -25 11 -25 25c0 7 2 14 8 19c58 53 92 128 92 206c0 17 12 25 25 25s25 -8 25 -25c0 -78 34 -153 92 -206c6 -5 8 -12 8 -19c0 -14 -12 -25 -25 -25c-6 0 -13 3 -18 7c-36 32 -63 72 -82 116c-19 -44 -46 -84 -82 -116c-5 -4 -12 -7 -18 -7z" fill="currentColor"/>
</g>
<g transform="translate(67.1427, 34.7171)">
<path transform="scale(0.0028, -0.0028)" d="M0 -212v-213v213c0 -114 85 -201 146 -295c4 13 6 26 6 40c0 94 -87 188 -152 255zM0 0c0 -177 201 -290 201 -467c0 -33 -9 -66 -23 -96c18 -36 29 -74 29 -116c0 -63 -15 -125 -41 -182c-5 -10 -14 -13 -23 -13c-14 0 -28 10 -28 26c0 2 1 3 1 5c26 51 42 107 42 164
c0 95 -90 188 -158 254v-75h-21v500h21z" fill="currentColor"/>
</g>
<g color="rgb(50.0000%, 50.0000%, 50.0000%)">
<g transform="translate(68.9214, 39.4771)">
<path transform="scale(0.0040, -0.0040)" d="M218 136c55 0 108 -28 108 -89c0 -71 -55 -121 -102 -149c-35 -21 -75 -34 -116 -34c-55 0 -108 28 -108 89c0 71 55 121 102 149c35 21 75 34 116 34z" fill="currentColor"/>
</g>
</g>
<g color="rgb(50.0000%, 50.0000%, 50.0000%)">
<g transform="translate(68.9214, 40.9771)">
<path transform="scale(0.0040, -0.0040)" d="M218 136c55 0 108 -28 108 -89c0 -71 -55 -121 -102 -149c-35 -21 -75 -34 -116 -34c-55 0 -108 28 -108 89c0 71 55 121 102 149c35 21 75 34 116 34z" fill="currentColor"/>
</g>
</g>
<g transform="translate(68.9214, 37.4771)">
<path transform="scale(0.0040, -0.0040)" d="M218 136c55 0 108 -28 108 -89c0 -71 -55 -121 -102 -149c-35 -21 -75 -34 -116 -34c-55 0 -108 28 -108 89c0 71 55 121 102 149c35 21 75 34 116 34z" fill="currentColor"/>
</g>
<g transform="scale(1.0000, -1.0000)">
<g transform="translate(69.5714, -32.2981)">
<line stroke-linejoin="round" stroke-linecap="round" stroke-width="0.1380" stroke="currentColor" x1="0" y1="0" x2="0" y2="-1.6000"/>
</g>
<g transform="translate(69.5714, -31.8481)">
<path transform="scale(0.0036, -0.0036)" d="M-103 250c5 0 10 -1 14 -5c40 -35 70 -79 89 -128c19 49 49 93 89 128c4 4 9 5 14 5c11 0 22 -10 22 -22c0 -6 -2 -12 -7 -16c-61 -54 -96 -131 -96 -212c0 -14 -11 -22 -22 -22s-22 8 -22 22c0 81 -35 158 -96 212c-5 4 -7 10 -7 16c0 12 11 22 22 22z" fill="currentColor"/>
</g>
</g>
<g transform="translate(70.1606, 36.4771)">
<rect x="-0.0650" y="-2.0000" width="0.1300" height="6.3139" ry="0.0400" fill="currentColor"/>
</g>
<g color="rgb(50.0000%, 50.0000%, 50.0000%)">
<g transform="translate(107.6930, 39.4771)">
<path transform="scale(0.0040, -0.0040)" d="M218 136c55 0 108 -28 108 -89c0 -71 -55 -121 -102 -149c-35 -21 -75 -34 -116 -34c-55 0 -108 28 -108 89c0 71 55 121 102 149c35 21 75 34 116 34z" fill="currentColor"/>
</g>
</g>
<g color="rgb(50.0000%, 50.0000%, 50.0000%)">
<g transform="translate(107.6930, 40.9771)">
<path transform="scale(0.0040, -0.0040)" d="M218 136c55 0 108 -28 108 -89c0 -71 -55 -121 -102 -149c-35 -21 -75 -34 -116 -34c-55 0 -108 28 -108 89c0 71 55 121 102 149c35 21 75 34 116 34z" fill="currentColor"/>
</g>
</g>
<g transform="translate(107.6930, 37.4771)">
<path transform="scale(0.0040, -0.0040)" d="M218 136c55 0 108 -28 108 -89c0 -71 -55 -121 -102 -149c-35 -21 -75 -34 -116 -34c-55 0 -108 28 -108 89c0 71 55 121 102 149c35 21 75 34 116 34z" fill="currentColor"/>
</g>
<g transform="scale(1.0000, -1.0000)">
<g transform="translate(108.3430, -32.1081)">
<line stroke-linejoin="round" stroke-linecap="round" stroke-width="0.1380" stroke="currentColor" x1="0" y1="0" x2="0" y2="-1.6000"/>
</g>
<g transform="translate(108.3430, -31.6581)">
<path transform="scale(0.0036, -0.0036)" d="M-103 250c5 0 10 -1 14 -5c40 -35 70 -79 89 -128c19 49 49 93 89 128c4 4 9 5 14 5c11 0 22 -10 22 -22c0 -6 -2 -12 -7 -16c-61 -54 -96 -131 -96 -212c0 -14 -11 -22 -22 -22s-22 8 -22 22c0 81 -35 158 -96 212c-5 4 -7 10 -7 16c0 12 11 22 22 22z" fill="currentColor"/>
</g>
</g>
<g transform="translate(108.9322, 36.4771)">
<rect x="-0.0650" y="-2.0000" width="0.1300" height="6.3139" ry="0.0400" fill="currentColor"/>
</g>
<g transform="translate(35.0558, 34.4771)">
<polygon stroke-linejoin="round" stroke-linecap="round" stroke-width="0.0800" fill="currentColor" stroke="currentColor" points="4.8680 -0.2000 4.8680 0.2000 0.0400 0.2000 0.0400 -0.2000"/>
</g>
<g transform="translate(70.0956, 34.4771)">
<polygon stroke-linejoin="round" stroke-linecap="round" stroke-width="0.0800" fill="currentColor" stroke="currentColor" points="4.8680 -0.2000 4.8680 0.2000 0.0400 0.2000 0.0400 -0.2000"/>
</g>
<g color="rgb(50.0000%, 50.0000%, 50.0000%)">
<g transform="translate(94.6632, 39.4771)">
<path transform="scale(0.0040, -0.0040)" d="M218 136c55 0 108 -28 108 -89c0 -71 -55 -121 -102 -149c-35 -21 -75 -34 -116 -34c-55 0 -108 28 -108 89c0 71 55 121 102 149c35 21 75 34 116 34z" fill="currentColor"/>
</g>
</g>
<g color="rgb(50.0000%, 50.0000%, 50.0000%)">
<g transform="translate(89.8219, 39.4771)">
<path transform="scale(0.0040, -0.0040)" d="M218 136c55 0 108 -28 108 -89c0 -71 -55 -121 -102 -149c-35 -21 -75 -34 -116 -34c-55 0 -108 28 -108 89c0 71 55 121 102 149c35 21 75 34 116 34z" fill="currentColor"/>
</g>
</g>
<g color="rgb(50.0000%, 50.0000%, 50.0000%)">
<g transform="translate(89.8219, 40.9771)">
<path transform="scale(0.0040, -0.0040)" d="M218 136c55 0 108 -28 108 -89c0 -71 -55 -121 -102 -149c-35 -21 -75 -34 -116 -34c-55 0 -108 28 -108 89c0 71 55 121 102 149c35 21 75 34 116 34z" fill="currentColor"/>
</g>
</g>
<g transform="translate(89.8219, 37.4771)">
<path transform="scale(0.0040, -0.0040)" d="M218 136c55 0 108 -28 108 -89c0 -71 -55 -121 -102 -149c-35 -21 -75 -34 -116 -34c-55 0 -108 28 -108 89c0 71 55 121 102 149c35 21 75 34 116 34z" fill="currentColor"/>
</g>
<g transform="scale(1.0000, -1.0000)">
<g transform="translate(90.4719, -31.8805)">
<line stroke-linejoin="round" stroke-linecap="round" stroke-width="0.1380" stroke="currentColor" x1="0" y1="0" x2="0" y2="-1.6000"/>
</g>
<g transform="translate(90.4719, -31.4305)">
<path transform="scale(0.0036, -0.0036)" d="M-103 250c5 0 10 -1 14 -5c40 -35 70 -79 89 -128c19 49 49 93 89 128c4 4 9 5 14 5c11 0 22 -10 22 -22c0 -6 -2 -12 -7 -16c-61 -54 -96 -131 -96 -212c0 -14 -11 -22 -22 -22s-22 8 -22 22c0 81 -35 158 -96 212c-5 4 -7 10 -7 16c0 12 11 22 22 22z" fill="currentColor"/>
</g>
<g transform="translate(90.4719, -32.8305)">
<path transform="scale(0.0028, -0.0028)" d="M-100 250c6 0 13 -3 18 -7c36 -32 63 -72 82 -116c19 44 46 84 82 116c5 4 12 7 18 7c13 0 25 -11 25 -25c0 -7 -2 -14 -8 -19c-58 -53 -92 -128 -92 -206c0 -17 -12 -25 -25 -25s-25 8 -25 25c0 78 -34 153 -92 206c-6 5 -8 12 -8 19c0 14 12 25 25 25z" fill="currentColor"/>
</g>
<g transform="translate(90.4719, -33.2305)">
<path transform="scale(0.0028, -0.0028)" d="M-100 -250c-13 0 -25 11 -25 25c0 7 2 14 8 19c58 53 92 128 92 206c0 17 12 25 25 25s25 -8 25 -25c0 -78 34 -153 92 -206c6 -5 8 -12 8 -19c0 -14 -12 -25 -25 -25c-6 0 -13 3 -18 7c-36 32 -63 72 -82 116c-19 -44 -46 -84 -82 -116c-5 -4 -12 -7 -18 -7z" fill="currentColor"/>
</g>
</g>
<g transform="translate(91.0611, 36.4771)">
<rect x="-0.0650" y="-2.5000" width="0.1300" height="6.8139" ry="0.0400" fill="currentColor"/>
</g>
<g transform="translate(91.1261, 34.0171)">
<path transform="scale(0.0040, -0.0040)" d="M0 0v-250h-16v250h16zM0 0c0 -197 207 -336 207 -533c0 -71 -15 -141 -41 -207c-5 -8 -13 -12 -20 -12c-13 0 -26 11 -23 27c26 61 42 126 42 192c0 103 -94 208 -165 283v250z" fill="currentColor"/>
</g>
<g color="rgb(50.0000%, 50.0000%, 50.0000%)">
<g transform="translate(94.6632, 40.9771)">
<path transform="scale(0.0040, -0.0040)" d="M218 136c55 0 108 -28 108 -89c0 -71 -55 -121 -102 -149c-35 -21 -75 -34 -116 -34c-55 0 -108 28 -108 89c0 71 55 121 102 149c35 21 75 34 116 34z" fill="currentColor"/>
</g>
</g>
<g transform="translate(94.6632, 37.4771)">
<path transform="scale(0.0040, -0.0040)" d="M218 136c55 0 108 -28 108 -89c0 -71 -55 -121 -102 -149c-35 -21 -75 -34 -116 -34c-55 0 -108 28 -108 89c0 71 55 121 102 149c35 21 75 34 116 34z" fill="currentColor"/>
</g>
<g transform="translate(95.3132, 33.4387)">
<line stroke-linejoin="round" stroke-linecap="round" stroke-width="0.1380" stroke="currentColor" x1="0" y1="0" x2="0" y2="-1.6000"/>
</g>
<g transform="translate(95.3132, 33.8887)">
<path transform="scale(0.0036, -0.0036)" d="M-103 250c5 0 10 -1 14 -5c40 -35 70 -79 89 -128c19 49 49 93 89 128c4 4 9 5 14 5c11 0 22 -10 22 -22c0 -6 -2 -12 -7 -16c-61 -54 -96 -131 -96 -212c0 -14 -11 -22 -22 -22s-22 8 -22 22c0 81 -35 158 -96 212c-5 4 -7 10 -7 16c0 12 11 22 22 22z" fill="currentColor"/>
</g>
<g transform="translate(95.9024, 36.4771)">
<rect x="-0.0650" y="-2.5000" width="0.1300" height="6.8139" ry="0.0400" fill="currentColor"/>
</g>
<g color="rgb(50.0000%, 50.0000%, 50.0000%)">
<g transform="translate(102.9150, 39.4771)">
<path transform="scale(0.0040, -0.0040)" d="M218 136c55 0 108 -28 108 -89c0 -71 -55 -121 -102 -149c-35 -21 -75 -34 -116 -34c-55 0 -108 28 -108 89c0 71 55 121 102 149c35 21 75 34 116 34z" fill="currentColor"/>
</g>
</g>
<g color="rgb(50.0000%, 50.0000%, 50.0000%)">
<g transform="translate(102.9150, 40.9771)">
<path transform="scale(0.0040, -0.0040)" d="M218 136c55 0 108 -28 108 -89c0 -71 -55 -121 -102 -149c-35 -21 -75 -34 -116 -34c-55 0 -108 28 -108 89c0 71 55 121 102 149c35 21 75 34 116 34z" fill="currentColor"/>
</g>
</g>
<g transform="translate(102.9150, 37.4771)">
<path transform="scale(0.0040, -0.0040)" d="M218 136c55 0 108 -28 108 -89c0 -71 -55 -121 -102 -149c-35 -21 -75 -34 -116 -34c-55 0 -108 28 -108 89c0 71 55 121 102 149c35 21 75 34 116 34z" fill="currentColor"/>
</g>
<g transform="scale(1.0000, -1.0000)">
<g transform="translate(103.5650, -32.1405)">
<line stroke-linejoin="round" stroke-linecap="round" stroke-width="0.1380" stroke="currentColor" x1="0" y1="0" x2="0" y2="-1.6000"/>
</g>
<g transform="translate(103.5650, -31.6905)">
<path transform="scale(0.0036, -0.0036)" d="M-103 250c5 0 10 -1 14 -5c40 -35 70 -79 89 -128c19 49 49 93 89 128c4 4 9 5 14 5c11 0 22 -10 22 -22c0 -6 -2 -12 -7 -16c-61 -54 -96 -131 -96 -212c0 -14 -11 -22 -22 -22s-22 8 -22 22c0 81 -35 158 -96 212c-5 4 -7 10 -7 16c0 12 11 22 22 22z" fill="currentColor"/>
</g>
<g transform="translate(103.5650, -33.0905)">
<path transform="scale(0.0028, -0.0028)" d="M-100 250c6 0 13 -3 18 -7c36 -32 63 -72 82 -116c19 44 46 84 82 116c5 4 12 7 18 7c13 0 25 -11 25 -25c0 -7 -2 -14 -8 -19c-58 -53 -92 -128 -92 -206c0 -17 -12 -25 -25 -25s-25 8 -25 25c0 78 -34 153 -92 206c-6 5 -8 12 -8 19c0 14 12 25 25 25z" fill="currentColor"/>
</g>
<g transform="translate(103.5650, -33.4905)">
<path transform="scale(0.0028, -0.0028)" d="M-100 -250c-13 0 -25 11 -25 25c0 7 2 14 8 19c58 53 92 128 92 206c0 17 12 25 25 25s25 -8 25 -25c0 -78 34 -153 92 -206c6 -5 8 -12 8 -19c0 -14 -12 -25 -25 -25c-6 0 -13 3 -18 7c-36 32 -63 72 -82 116c-19 -44 -46 -84 -82 -116c-5 -4 -12 -7 -18 -7z" fill="currentColor"/>
</g>
</g>
<g transform="translate(104.1542, 36.4771)">
<rect x="-0.0650" y="-2.0000" width="0.1300" height="6.3139" ry="0.0400" fill="currentColor"/>
</g>
<g transform="scale(1.0000, -1.0000)">
<g transform="translate(20.3924, -31.8805)">
<line stroke-linejoin="round" stroke-linecap="round" stroke-width="0.1380" stroke="currentColor" x1="0" y1="0" x2="0" y2="-1.6000"/>
</g>
<g transform="translate(20.3924, -31.4305)">
<path transform="scale(0.0036, -0.0036)" d="M-103 250c5 0 10 -1 14 -5c40 -35 70 -79 89 -128c19 49 49 93 89 128c4 4 9 5 14 5c11 0 22 -10 22 -22c0 -6 -2 -12 -7 -16c-61 -54 -96 -131 -96 -212c0 -14 -11 -22 -22 -22s-22 8 -22 22c0 81 -35 158 -96 212c-5 4 -7 10 -7 16c0 12 11 22 22 22z" fill="currentColor"/>
</g>
<g transform="translate(20.3924, -32.8305)">
<path transform="scale(0.0028, -0.0028)" d="M-100 250c6 0 13 -3 18 -7c36 -32 63 -72 82 -116c19 44 46 84 82 116c5 4 12 7 18 7c13 0 25 -11 25 -25c0 -7 -2 -14 -8 -19c-58 -53 -92 -128 -92 -206c0 -17 -12 -25 -25 -25s-25 8 -25 25c0 78 -34 153 -92 206c-6 5 -8 12 -8 19c0 14 12 25 25 25z" fill="currentColor"/>
</g>
<g transform="translate(20.3924, -33.2305)">
<path transform="scale(0.0028, -0.0028)" d="M-100 -250c-13 0 -25 11 -25 25c0 7 2 14 8 19c58 53 92 128 92 206c0 17 12 25 25 25s25 -8 25 -25c0 -78 34 -153 92 -206c6 -5 8 -12 8 -19c0 -14 -12 -25 -25 -25c-6 0 -13 3 -18 7c-36 32 -63 72 -82 116c-19 -44 -46 -84 -82 -116c-5 -4 -12 -7 -18 -7z" fill="currentColor"/>
</g>
</g>
<g transform="translate(20.9816, 36.4771)">
<rect x="-0.0650" y="-2.5000" width="0.1300" height="6.8139" ry="0.0400" fill="currentColor"/>
</g>
<g transform="translate(21.0466, 34.0171)">
<path transform="scale(0.0040, -0.0040)" d="M0 0v-250h-16v250h16zM0 0c0 -197 207 -336 207 -533c0 -71 -15 -141 -41 -207c-5 -8 -13 -12 -20 -12c-13 0 -26 11 -23 27c26 61 42 126 42 192c0 103 -94 208 -165 283v250z" fill="currentColor"/>
</g>
<g color="rgb(50.0000%, 50.0000%, 50.0000%)">
<g transform="translate(24.5836, 39.4771)">
<path transform="scale(0.0040, -0.0040)" d="M218 136c55 0 108 -28 108 -89c0 -71 -55 -121 -102 -149c-35 -21 -75 -34 -116 -34c-55 0 -108 28 -108 89c0 71 55 121 102 149c35 21 75 34 116 34z" fill="currentColor"/>
</g>
</g>
<g color="rgb(50.0000%, 50.0000%, 50.0000%)">
<g transform="translate(24.5836, 40.9771)">
<path transform="scale(0.0040, -0.0040)" d="M218 136c55 0 108 -28 108 -89c0 -71 -55 -121 -102 -149c-35 -21 -75 -34 -116 -34c-55 0 -108 28 -108 89c0 71 55 121 102 149c35 21 75 34 116 34z" fill="currentColor"/>
</g>
</g>
<g transform="translate(24.5836, 37.4771)">
<path transform="scale(0.0040, -0.0040)" d="M218 136c55 0 108 -28 108 -89c0 -71 -55 -121 -102 -149c-35 -21 -75 -34 -116 -34c-55 0 -108 28 -108 89c0 71 55 121 102 149c35 21 75 34 116 34z" fill="currentColor"/>
</g>
<g transform="translate(25.2336, 33.4387)">
<line stroke-linejoin="round" stroke-linecap="round" stroke-width="0.1380" stroke="currentColor" x1="0" y1="0" x2="0" y2="-1.6000"/>
</g>
<g transform="translate(25.2336, 33.8887)">
<path transform="scale(0.0036, -0.0036)" d="M-103 250c5 0 10 -1 14 -5c40 -35 70 -79 89 -128c19 49 49 93 89 128c4 4 9 5 14 5c11 0 22 -10 22 -22c0 -6 -2 -12 -7 -16c-61 -54 -96 -131 -96 -212c0 -14 -11 -22 -22 -22s-22 8 -22 22c0 81 -35 158 -96 212c-5 4 -7 10 -7 16c0 12 11 22 22 22z" fill="currentColor"/>
</g>
<g transform="translate(25.8228, 36.4771)">
<rect x="-0.0650" y="-2.5000" width="0.1300" height="6.8139" ry="0.0400" fill="currentColor"/>
</g>
<g transform="translate(19.7424, 37.4771)">
<path transform="scale(0.0040, -0.0040)" d="M218 136c55 0 108 -28 108 -89c0 -71 -55 -121 -102 -149c-35 -21 -75 -34 -116 -34c-55 0 -108 28 -108 89c0 71 55 121 102 149c35 21 75 34 116 34z" fill="currentColor"/>
</g>
<g color="rgb(50.0000%, 50.0000%, 50.0000%)">
<g transform="translate(31.1851, 39.4771)">
<path transform="scale(0.0028, -0.0028)" d="M208 139c61 0 117 -33 117 -99c0 -71 -52 -119 -99 -147c-34 -20 -71 -32 -110 -32c-61 0 -116 33 -116 99c0 71 51 119 98 147c34 20 71 32 110 32z" fill="currentColor"/>
</g>
</g>
<g color="rgb(50.0000%, 50.0000%, 50.0000%)">
<g transform="translate(31.1851, 40.9771)">
<path transform="scale(0.0028, -0.0028)" d="M208 139c61 0 117 -33 117 -99c0 -71 -52 -119 -99 -147c-34 -20 -71 -32 -110 -32c-61 0 -116 33 -116 99c0 71 51 119 98 147c34 20 71 32 110 32z" fill="currentColor"/>
</g>
</g>
<g transform="translate(31.1851, 37.4771)">
<path transform="scale(0.0028, -0.0028)" d="M208 139c61 0 117 -33 117 -99c0 -71 -52 -119 -99 -147c-34 -20 -71 -32 -110 -32c-61 0 -116 33 -116 99c0 71 51 119 98 147c34 20 71 32 110 32z" fill="currentColor"/>
</g>
<g transform="scale(1.0000, -1.0000)">
<g transform="translate(31.8351, -32.2981)">
<line stroke-linejoin="round" stroke-linecap="round" stroke-width="0.1380" stroke="currentColor" x1="0" y1="0" x2="0" y2="-1.6000"/>
</g>
<g transform="translate(31.8351, -31.8481)">
<path transform="scale(0.0036, -0.0036)" d="M-103 250c5 0 10 -1 14 -5c40 -35 70 -79 89 -128c19 49 49 93 89 128c4 4 9 5 14 5c11 0 22 -10 22 -22c0 -6 -2 -12 -7 -16c-61 -54 -96 -131 -96 -212c0 -14 -11 -22 -22 -22s-22 8 -22 22c0 81 -35 158 -96 212c-5 4 -7 10 -7 16c0 12 11 22 22 22z" fill="currentColor"/>
</g>
</g>
<g transform="translate(31.8351, 32.3481)">
<path transform="scale(0.0040, -0.0040)" d="M-105 -250c-11 0 -20 9 -20 20c0 6 2 11 7 15c62 54 98 133 98 215c0 13 10 20 20 20s20 -7 20 -20c0 -82 36 -161 98 -215c5 -4 7 -9 7 -15c0 -11 -9 -20 -20 -20c-5 0 -9 2 -13 5c-41 36 -73 82 -92 133c-19 -51 -51 -97 -92 -133c-4 -3 -8 -5 -13 -5z" fill="currentColor"/>
</g>
<g transform="translate(31.8351, 32.8481)">
<path transform="scale(0.0040, -0.0040)" d="M-105 -250c-11 0 -20 9 -20 20c0 6 2 11 7 15c62 54 98 133 98 215c0 13 10 20 20 20s20 -7 20 -20c0 -82 36 -161 98 -215c5 -4 7 -9 7 -15c0 -11 -9 -20 -20 -20c-5 0 -9 2 -13 5c-41 36 -73 82 -92 133c-19 -51 -51 -97 -92 -133c-4 -3 -8 -5 -13 -5z" fill="currentColor"/>
</g>
<g transform="translate(32.0380, 36.4771)">
<rect x="-0.0650" y="-1.8000" width="0.1300" height="6.1856" ry="0.0400" fill="currentColor"/>
</g>
<g transform="translate(32.1030, 34.7171)">
<path transform="scale(0.0028, -0.0028)" d="M0 -212v-213v213c0 -114 85 -201 146 -295c4 13 6 26 6 40c0 94 -87 188 -152 255zM0 0c0 -177 201 -290 201 -467c0 -33 -9 -66 -23 -96c18 -36 29 -74 29 -116c0 -63 -15 -125 -41 -182c-5 -10 -14 -13 -23 -13c-14 0 -28 10 -28 26c0 2 1 3 1 5c26 51 42 107 42 164
c0 95 -90 188 -158 254v-75h-21v500h21z" fill="currentColor"/>
</g>
<g color="rgb(50.0000%, 50.0000%, 50.0000%)">
<g transform="translate(33.8816, 39.4771)">
<path transform="scale(0.0040, -0.0040)" d="M218 136c55 0 108 -28 108 -89c0 -71 -55 -121 -102 -149c-35 -21 -75 -34 -116 -34c-55 0 -108 28 -108 89c0 71 55 121 102 149c35 21 75 34 116 34z" fill="currentColor"/>
</g>
</g>
<g color="rgb(50.0000%, 50.0000%, 50.0000%)">
<g transform="translate(33.8816, 40.9771)">
<path transform="scale(0.0040, -0.0040)" d="M218 136c55 0 108 -28 108 -89c0 -71 -55 -121 -102 -149c-35 -21 -75 -34 -116 -34c-55 0 -108 28 -108 89c0 71 55 121 102 149c35 21 75 34 116 34z" fill="currentColor"/>
</g>
</g>
<g transform="translate(33.8816, 37.4771)">
<path transform="scale(0.0040, -0.0040)" d="M218 136c55 0 108 -28 108 -89c0 -71 -55 -121 -102 -149c-35 -21 -75 -34 -116 -34c-55 0 -108 28 -108 89c0 71 55 121 102 149c35 21 75 34 116 34z" fill="currentColor"/>
</g>
<g transform="translate(6.4906, 37.4771)">
<path transform="scale(0.0040, -0.0040)" d="M266 -635h-6c-108 0 -195 88 -195 197c0 58 53 103 112 103c54 0 95 -47 95 -103c0 -52 -43 -95 -95 -95c-11 0 -21 2 -31 6c26 -39 68 -65 117 -65h4zM461 -203c68 24 113 95 113 164c0 90 -66 179 -173 190c24 -116 46 -231 60 -354zM74 28c0 -135 129 -247 264 -247
c28 0 55 2 82 6c-14 127 -37 245 -63 364c-79 -8 -124 -61 -124 -119c0 -44 25 -91 81 -123c5 -5 7 -10 7 -15c0 -11 -10 -22 -22 -22c-3 0 -6 1 -9 2c-80 43 -117 115 -117 185c0 88 58 174 160 197c-14 58 -29 117 -46 175c-107 -121 -213 -243 -213 -403zM335 -262
c-188 0 -333 172 -333 374c0 177 131 306 248 441c-19 62 -37 125 -45 190c-6 52 -7 104 -7 156c0 115 55 224 149 292c6 5 14 5 20 0c71 -84 133 -245 133 -358c0 -143 -86 -255 -180 -364c21 -68 39 -138 56 -207c4 0 9 1 13 1c155 0 256 -128 256 -261
c0 -76 -33 -154 -107 -210c-22 -17 -47 -28 -73 -36c3 -35 5 -70 5 -105c0 -19 -1 -39 -2 -58c-7 -119 -88 -225 -202 -228l1 43c93 2 153 92 159 191c1 18 2 37 2 55c0 31 -1 61 -4 92c-29 -5 -58 -8 -89 -8zM428 916c0 55 -4 79 -20 129c-99 -48 -162 -149 -162 -259
c0 -74 18 -133 36 -194c80 97 146 198 146 324z" fill="currentColor"/>
</g>
<g transform="translate(5.6906, 32.2119)">
<text font-family="serif" font-size="2.6163" text-anchor="start" fill="currentColor">
<tspan>4α</tspan>
</text>
</g>
<g color="rgb(50.0000%, 50.0000%, 50.0000%)">
<g transform="translate(11.4906, 39.4771)">
<path transform="scale(0.0040, -0.0040)" d="M218 136c55 0 108 -28 108 -89c0 -71 -55 -121 -102 -149c-35 -21 -75 -34 -116 -34c-55 0 -108 28 -108 89c0 71 55 121 102 149c35 21 75 34 116 34z" fill="currentColor"/>
</g>
</g>
<g color="rgb(50.0000%, 50.0000%, 50.0000%)">
<g transform="translate(11.4906, 40.9771)">
<path transform="scale(0.0040, -0.0040)" d="M218 136c55 0 108 -28 108 -89c0 -71 -55 -121 -102 -149c-35 -21 -75 -34 -116 -34c-55 0 -108 28 -108 89c0 71 55 121 102 149c35 21 75 34 116 34z" fill="currentColor"/>
</g>
</g>
<g transform="translate(11.4906, 37.4771)">
<path transform="scale(0.0040, -0.0040)" d="M218 136c55 0 108 -28 108 -89c0 -71 -55 -121 -102 -149c-35 -21 -75 -34 -116 -34c-55 0 -108 28 -108 89c0 71 55 121 102 149c35 21 75 34 116 34z" fill="currentColor"/>
</g>
<g transform="translate(12.1406, 33.4387)">
<line stroke-linejoin="round" stroke-linecap="round" stroke-width="0.1380" stroke="currentColor" x1="0" y1="0" x2="0" y2="-1.6000"/>
</g>
<g transform="translate(12.1406, 33.8887)">
<path transform="scale(0.0036, -0.0036)" d="M-103 250c5 0 10 -1 14 -5c40 -35 70 -79 89 -128c19 49 49 93 89 128c4 4 9 5 14 5c11 0 22 -10 22 -22c0 -6 -2 -12 -7 -16c-61 -54 -96 -131 -96 -212c0 -14 -11 -22 -22 -22s-22 8 -22 22c0 81 -35 158 -96 212c-5 4 -7 10 -7 16c0 12 11 22 22 22z" fill="currentColor"/>
</g>
<g transform="translate(12.7298, 36.4771)">
<rect x="-0.0650" y="-2.5000" width="0.1300" height="6.8139" ry="0.0400" fill="currentColor"/>
</g>
<g color="rgb(50.0000%, 50.0000%, 50.0000%)">
<g transform="translate(19.7424, 39.4771)">
<path transform="scale(0.0040, -0.0040)" d="M218 136c55 0 108 -28 108 -89c0 -71 -55 -121 -102 -149c-35 -21 -75 -34 -116 -34c-55 0 -108 28 -108 89c0 71 55 121 102 149c35 21 75 34 116 34z" fill="currentColor"/>
</g>
</g>
<g color="rgb(50.0000%, 50.0000%, 50.0000%)">
<g transform="translate(19.7424, 40.9771)">
<path transform="scale(0.0040, -0.0040)" d="M218 136c55 0 108 -28 108 -89c0 -71 -55 -121 -102 -149c-35 -21 -75 -34 -116 -34c-55 0 -108 28 -108 89c0 71 55 121 102 149c35 21 75 34 116 34z" fill="currentColor"/>
</g>
</g>
<g color="rgb(50.0000%, 50.0000%, 50.0000%)">
<g transform="translate(46.5303, 40.9771)">
<path transform="scale(0.0040, -0.0040)" d="M218 136c55 0 108 -28 108 -89c0 -71 -55 -121 -102 -149c-35 -21 -75 -34 -116 -34c-55 0 -108 28 -108 89c0 71 55 121 102 149c35 21 75 34 116 34z" fill="currentColor"/>
</g>
</g>
<g transform="translate(46.5303, 37.4771)">
<path transform="scale(0.0040, -0.0040)" d="M218 136c55 0 108 -28 108 -89c0 -71 -55 -121 -102 -149c-35 -21 -75 -34 -116 -34c-55 0 -108 28 -108 89c0 71 55 121 102 149c35 21 75 34 116 34z" fill="currentColor"/>
</g>
<g transform="translate(47.1803, 33.4387)">
<line stroke-linejoin="round" stroke-linecap="round" stroke-width="0.1380" stroke="currentColor" x1="0" y1="0" x2="0" y2="-1.6000"/>
</g>
<g transform="translate(47.1803, 33.8887)">
<path transform="scale(0.0036, -0.0036)" d="M-103 250c5 0 10 -1 14 -5c40 -35 70 -79 89 -128c19 49 49 93 89 128c4 4 9 5 14 5c11 0 22 -10 22 -22c0 -6 -2 -12 -7 -16c-61 -54 -96 -131 -96 -212c0 -14 -11 -22 -22 -22s-22 8 -22 22c0 81 -35 158 -96 212c-5 4 -7 10 -7 16c0 12 11 22 22 22z" fill="currentColor"/>
</g>
<g transform="translate(34.5316, 33.4387)">
<line stroke-linejoin="round" stroke-linecap="round" stroke-width="0.1380" stroke="currentColor" x1="0" y1="0" x2="0" y2="-1.6000"/>
</g>
<g transform="translate(34.5316, 33.8887)">
<path transform="scale(0.0036, -0.0036)" d="M-103 250c5 0 10 -1 14 -5c40 -35 70 -79 89 -128c19 49 49 93 89 128c4 4 9 5 14 5c11 0 22 -10 22 -22c0 -6 -2 -12 -7 -16c-61 -54 -96 -131 -96 -212c0 -14 -11 -22 -22 -22s-22 8 -22 22c0 81 -35 158 -96 212c-5 4 -7 10 -7 16c0 12 11 22 22 22z" fill="currentColor"/>
</g>
<g transform="translate(44.2327, 31.4171)">
<text font-family="serif" font-size="2.6163" text-anchor="start" fill="currentColor">
<tspan>4β1</tspan>
</text>
</g>
<g transform="translate(47.7695, 36.4771)">
<rect x="-0.0650" y="-2.5000" width="0.1300" height="6.8139" ry="0.0400" fill="currentColor"/>
</g>
<g color="rgb(50.0000%, 50.0000%, 50.0000%)">
<g transform="translate(54.7821, 39.4771)">
<path transform="scale(0.0040, -0.0040)" d="M218 136c55 0 108 -28 108 -89c0 -71 -55 -121 -102 -149c-35 -21 -75 -34 -116 -34c-55 0 -108 28 -108 89c0 71 55 121 102 149c35 21 75 34 116 34z" fill="currentColor"/>
</g>
</g>
<g color="rgb(50.0000%, 50.0000%, 50.0000%)">
<g transform="translate(54.7821, 40.9771)">
<path transform="scale(0.0040, -0.0040)" d="M218 136c55 0 108 -28 108 -89c0 -71 -55 -121 -102 -149c-35 -21 -75 -34 -116 -34c-55 0 -108 28 -108 89c0 71 55 121 102 149c35 21 75 34 116 34z" fill="currentColor"/>
</g>
</g>
<g transform="translate(54.7821, 37.4771)">
<path transform="scale(0.0040, -0.0040)" d="M218 136c55 0 108 -28 108 -89c0 -71 -55 -121 -102 -149c-35 -21 -75 -34 -116 -34c-55 0 -108 28 -108 89c0 71 55 121 102 149c35 21 75 34 116 34z" fill="currentColor"/>
</g>
<g transform="scale(1.0000, -1.0000)">
<g transform="translate(55.4321, -31.8805)">
<line stroke-linejoin="round" stroke-linecap="round" stroke-width="0.1380" stroke="currentColor" x1="0" y1="0" x2="0" y2="-1.6000"/>
</g>
<g transform="translate(55.4321, -31.4305)">
<path transform="scale(0.0036, -0.0036)" d="M-103 250c5 0 10 -1 14 -5c40 -35 70 -79 89 -128c19 49 49 93 89 128c4 4 9 5 14 5c11 0 22 -10 22 -22c0 -6 -2 -12 -7 -16c-61 -54 -96 -131 -96 -212c0 -14 -11 -22 -22 -22s-22 8 -22 22c0 81 -35 158 -96 212c-5 4 -7 10 -7 16c0 12 11 22 22 22z" fill="currentColor"/>
</g>
<g transform="translate(55.4321, -32.8305)">
<path transform="scale(0.0028, -0.0028)" d="M-100 250c6 0 13 -3 18 -7c36 -32 63 -72 82 -116c19 44 46 84 82 116c5 4 12 7 18 7c13 0 25 -11 25 -25c0 -7 -2 -14 -8 -19c-58 -53 -92 -128 -92 -206c0 -17 -12 -25 -25 -25s-25 8 -25 25c0 78 -34 153 -92 206c-6 5 -8 12 -8 19c0 14 12 25 25 25z" fill="currentColor"/>
</g>
<g transform="translate(55.4321, -33.2305)">
<path transform="scale(0.0028, -0.0028)" d="M-100 -250c-13 0 -25 11 -25 25c0 7 2 14 8 19c58 53 92 128 92 206c0 17 12 25 25 25s25 -8 25 -25c0 -78 34 -153 92 -206c6 -5 8 -12 8 -19c0 -14 -12 -25 -25 -25c-6 0 -13 3 -18 7c-36 32 -63 72 -82 116c-19 -44 -46 -84 -82 -116c-5 -4 -12 -7 -18 -7z" fill="currentColor"/>
</g>
</g>
<g transform="translate(56.0214, 36.4771)">
<rect x="-0.0650" y="-2.5000" width="0.1300" height="6.8139" ry="0.0400" fill="currentColor"/>
</g>
<g transform="translate(56.0864, 34.0171)">
<path transform="scale(0.0040, -0.0040)" d="M0 0v-250h-16v250h16zM0 0c0 -197 207 -336 207 -533c0 -71 -15 -141 -41 -207c-5 -8 -13 -12 -20 -12c-13 0 -26 11 -23 27c26 61 42 126 42 192c0 103 -94 208 -165 283v250z" fill="currentColor"/>
</g>
<g color="rgb(50.0000%, 50.0000%, 50.0000%)">
<g transform="translate(46.5303, 39.4771)">
<path transform="scale(0.0040, -0.0040)" d="M218 136c55 0 108 -28 108 -89c0 -71 -55 -121 -102 -149c-35 -21 -75 -34 -116 -34c-55 0 -108 28 -108 89c0 71 55 121 102 149c35 21 75 34 116 34z" fill="currentColor"/>
</g>
</g>
<g transform="translate(35.1208, 36.4771)">
<rect x="-0.0650" y="-2.0000" width="0.1300" height="6.3139" ry="0.0400" fill="currentColor"/>
</g>
<g color="rgb(50.0000%, 50.0000%, 50.0000%)">
<g transform="translate(38.6596, 39.4771)">
<path transform="scale(0.0040, -0.0040)" d="M218 136c55 0 108 -28 108 -89c0 -71 -55 -121 -102 -149c-35 -21 -75 -34 -116 -34c-55 0 -108 28 -108 89c0 71 55 121 102 149c35 21 75 34 116 34z" fill="currentColor"/>
</g>
</g>
<g color="rgb(50.0000%, 50.0000%, 50.0000%)">
<g transform="translate(38.6596, 40.9771)">
<path transform="scale(0.0040, -0.0040)" d="M218 136c55 0 108 -28 108 -89c0 -71 -55 -121 -102 -149c-35 -21 -75 -34 -116 -34c-55 0 -108 28 -108 89c0 71 55 121 102 149c35 21 75 34 116 34z" fill="currentColor"/>
</g>
</g>
<g transform="translate(38.6596, 37.4771)">
<path transform="scale(0.0040, -0.0040)" d="M218 136c55 0 108 -28 108 -89c0 -71 -55 -121 -102 -149c-35 -21 -75 -34 -116 -34c-55 0 -108 28 -108 89c0 71 55 121 102 149c35 21 75 34 116 34z" fill="currentColor"/>
</g>
<g transform="scale(1.0000, -1.0000)">
<g transform="translate(39.3096, -32.1081)">
<line stroke-linejoin="round" stroke-linecap="round" stroke-width="0.1380" stroke="currentColor" x1="0" y1="0" x2="0" y2="-1.6000"/>
</g>
<g transform="translate(39.3096, -31.6581)">
<path transform="scale(0.0036, -0.0036)" d="M-103 250c5 0 10 -1 14 -5c40 -35 70 -79 89 -128c19 49 49 93 89 128c4 4 9 5 14 5c11 0 22 -10 22 -22c0 -6 -2 -12 -7 -16c-61 -54 -96 -131 -96 -212c0 -14 -11 -22 -22 -22s-22 8 -22 22c0 81 -35 158 -96 212c-5 4 -7 10 -7 16c0 12 11 22 22 22z" fill="currentColor"/>
</g>
</g>
<g transform="translate(39.8988, 36.4771)">
<rect x="-0.0650" y="-2.0000" width="0.1300" height="6.3139" ry="0.0400" fill="currentColor"/>
</g>
<g transform="translate(54.0830, 46.0208)">
<text font-family="serif" font-size="2.2001" text-anchor="start" fill="currentColor">
<tspan>Χ. Κόχυλας</tspan>
</text>
</g>
<g transform="translate(30.6607, 49.5488)">
<a xlink:href="https://lilypond.org/">
<rect x="0.0000" y="-0.5280" width="58.1802" height="2.2001" fill="none" stroke="none" stroke-width="0.0"/>
</a>
</g>
<g transform="translate(30.6607, 49.5488)">
<text font-family="serif" font-size="2.2001" text-anchor="start" fill="currentColor">
<tspan>Music engraving by LilyPond 2.24.4—www.lilypond.org</tspan>
</text>
</g>
</svg>
